<svg xmlns="http://www.w3.org/2000/svg" width="41" height="40" viewBox="0 0 41 40">
    <g fill="none" fill-rule="evenodd" transform="translate(.5)">
        <circle cx="20" cy="20" r="20" fill="#EDEDED"/>
        <path d="M7 7h28v28H7z"/>
        <path fill="#FEA34C" fill-rule="nonzero" d="M8 16.935l2.188 2.17c5.41-5.368 14.213-5.368 19.624 0L32 16.935c-6.632-6.58-17.385-6.58-24 0zm8.718 8.649l3.274 3.248 3.273-3.248a4.674 4.674 0 0 0-6.547 0zm-4.359-4.325l2.188 2.171c3.002-2.978 7.887-2.978 10.906 0l2.171-2.17c-4.206-4.174-11.059-4.174-15.265 0z"/>
    </g>
</svg>
