<svg width="108" height="188" viewBox="0 0 108 188" version="1.1" xmlns="http://www.w3.org/2000/svg"
     xmlns:xlink="http://www.w3.org/1999/xlink">
    <title>broadcast</title>
    <desc>Created using Figma</desc>
    <g id="Canvas">
        <g id="broadcast">
            <g id="color-1">
                <use xlink:href="#path2_fill" transform="translate(45.0067 48.2148)" fill="#BEDECD">
                    <animate dur="4s" attributeName="fill" from="#BEDECD" to="#BEDECD" values="#BEDECD; #34908E; #5AB085; #EDF7F3; #BEDECD" repeatCount="indefinite"/>
                </use>
            </g>
            <g id="color-2">
                <use xlink:href="#path0_fill" transform="translate(45.0067 76.9853)" fill="#34908E">
                    <animate dur="4s" attributeName="fill" from="#34908E" to="#34908E" values="#34908E; #5AB085; #EDF7F3; #BEDECD; #34908E" repeatCount="indefinite"/>
                </use>
            </g>
            <g id="color-3">
                <use xlink:href="#path1_fill" transform="translate(4.98299 4.12101)" fill="#5AB085">
                    <animate dur="4s" attributeName="fill" from="#5AB085" to="#5AB085" values="#5AB085; #EDF7F3; #BEDECD; #34908E; #5AB085" repeatCount="indefinite"/>
                </use>
            </g>
            <g id="color-4">
                <use xlink:href="#path3_fill" transform="translate(44.4439 4.12101)" fill="#EDF7F3">
                    <animate dur="4s" attributeName="fill" from="#EDF7F3" to="#EDF7F3" values="#EDF7F3; #BEDECD; #34908E; #5AB085; #EDF7F3" repeatCount="indefinite"/>
                </use>
            </g>
            <g id="strokes">
                <g id="stroke">
                    <use xlink:href="#path4_fill" transform="translate(43.4413 73.0329)" fill="#FFFFFF"/>
                </g>
                <g id="stroke">
                    <use xlink:href="#path5_fill" transform="translate(3.38809 0.130737)" fill="#FFFFFF"/>
                </g>
                <g id="stroke">
                    <use xlink:href="#path6_fill" transform="translate(42.4903 45.7129)" fill="#FFFFFF"/>
                </g>
                <g id="stroke">
                    <use xlink:href="#path7_fill" transform="translate(42.8867 1.02808)" fill="#FFFFFF"/>
                </g>
            </g>
            <g id="dots">
                <g id="dot">
                    <use xlink:href="#path8_fill" transform="matrix(0.0228158 -0.9997 0.9997 0.0228212 40.9327 8.32108)"
                         fill="#424242"/>
                </g>
                <g id="dot">
                    <use xlink:href="#path9_fill" transform="matrix(0.0228158 -0.9997 0.9997 0.0228212 39.365 9.81931)"
                         fill="#FFFFFF"/>
                </g>
                <g id="dot">
                    <use xlink:href="#path10_fill" transform="matrix(0.0228158 -0.9997 0.9997 0.0228213 99.5262 51.507)"
                         fill="#424242"/>
                </g>
                <g id="dot">
                    <use xlink:href="#path11_fill"
                         transform="matrix(0.0228158 -0.9997 0.9997 0.0228212 97.9585 53.0052)" fill="#FFFFFF"/>
                </g>
                <g id="dot">
                    <use xlink:href="#path12_fill" transform="matrix(0.0228067 -0.9997 0.9997 0.022812 1.5677 52.6822)"
                         fill="#424242"/>
                </g>
                <g id="dot">
                    <use xlink:href="#path13_fill" transform="matrix(0.0228067 -0.9997 0.9997 0.022812 0 54.1805)"
                         fill="#FFFFFF"/>
                </g>
                <g id="dot">
                    <use xlink:href="#path14_fill"
                         transform="matrix(0.0228158 -0.9997 0.9997 0.0228213 10.6036 140.593)" fill="#424242"/>
                </g>
                <g id="dot">
                    <use xlink:href="#path15_fill"
                         transform="matrix(0.0228158 -0.9997 0.9997 0.0228213 9.03583 142.091)" fill="#FFFFFF"/>
                </g>
                <g id="dot">
                    <use xlink:href="#path16_fill"
                         transform="matrix(0.0228159 -0.9997 0.9997 0.0228213 42.5445 185.462)" fill="#424242"/>
                </g>
                <g id="dot">
                    <use xlink:href="#path17_fill" transform="matrix(0.0228158 -0.9997 0.9997 0.0228213 40.9768 186.96)"
                         fill="#FFFFFF"/>
                </g>
                <g id="dot">
                    <use xlink:href="#path18_fill" transform="matrix(0.0228067 -0.9997 0.9997 0.0228121 97.158 141.408)"
                         fill="#424242"/>
                </g>
                <g id="dot">
                    <use xlink:href="#path19_fill"
                         transform="matrix(0.0228067 -0.9997 0.9997 0.0228121 95.5904 142.906)" fill="#FFFFFF"/>
                </g>
                <g id="dot">
                    <use xlink:href="#path20_fill"
                         transform="matrix(0.0228159 -0.9997 0.9997 0.0228212 40.7631 81.3762)" fill="#424242"/>
                </g>
                <g id="dot">
                    <use xlink:href="#path21_fill"
                         transform="matrix(0.0228158 -0.9997 0.9997 0.0228213 39.1953 82.8745)" fill="#FFFFFF"/>
                </g>
            </g>
        </g>
    </g>
    <defs>
        <path id="path0_fill" d="M 0.87552 107.702L 55.9081 60.4805L 3.29087e-14 4.02039e-14L 0.87552 107.702Z"/>
        <path id="path1_fill"
              d="M -1.55929e-15 44.344L 9.13041 132.219L 41.0243 178.064L 39.4609 1.36983e-15L -1.55929e-15 44.344Z"/>
        <path id="path2_fill" d="M 6.84271e-15 28.7705L 55.9081 89.251L 57.9719 -7.24381e-14L 6.84271e-15 28.7705Z"/>
        <path id="path3_fill"
              d="M 2.08962e-14 -9.35731e-16L 0.56283 72.8643L 58.5347 44.0939L 2.08962e-14 -9.35731e-16Z"/>
        <path id="path4_fill" fill-rule="evenodd"
              d="M 0 0L 59.6797 64.5605L 0.934582 114.967L 0.0322309 3.96486L 0 0ZM 3.13071 7.90479L 3.94717 108.341L 55.2673 64.3053L 3.13071 7.90479Z"/>
        <path id="path5_fill" fill-rule="evenodd"
              d="M 42.554 0L 44.1959 187.006L 9.24118 136.761L 0 47.8199L 42.554 0ZM 3.18977 48.8487L 12.2094 135.658L 41.0425 177.103L 39.5576 7.98052L 3.18977 48.8487Z"/>
        <path id="path6_fill" fill-rule="evenodd"
              d="M 62.0797 0L 59.8698 95.5753L 0 30.8091L 62.0797 0ZM 5.03288 31.7356L 56.9794 87.9305L 58.8969 5.0038L 5.03288 31.7356Z"/>
        <path id="path7_fill" fill-rule="evenodd"
              d="M 2.47938 1.86771L 62.9984 47.4564L 0.60575 78.4208L 0 0L 2.47938 1.86771ZM 3.11422 6.18582L 3.63413 73.4936L 57.1852 46.9172L 3.11422 6.18582Z"/>
        <path id="path8_fill"
              d="M 3.3774 6.754C 5.24269 6.754 6.7548 5.24207 6.7548 3.377C 6.7548 1.51194 5.24269 0 3.3774 0C 1.51211 0 0 1.51194 0 3.377C 0 5.24207 1.51211 6.754 3.3774 6.754Z"/>
        <path id="path9_fill" fill-rule="evenodd"
              d="M 4.91113 3.06635C 3.89325 3.06635 3.06746 3.89151 3.06746 4.91018C 3.06746 5.92885 3.89325 6.754 4.91113 6.754C 5.92901 6.754 6.7548 5.92884 6.7548 4.91018C 6.7548 3.89151 5.92901 3.06635 4.91113 3.06635ZM 0 4.91018C 0 2.19871 2.19843 0 4.91113 0C 7.62382 0 9.82226 2.19871 9.82226 4.91018C 9.82226 7.62164 7.62382 9.82036 4.91113 9.82036C 2.19843 9.82036 0 7.62164 0 4.91018Z"/>
        <path id="path10_fill"
              d="M 3.3774 6.754C 5.24269 6.754 6.75481 5.24207 6.75481 3.377C 6.75481 1.51194 5.24269 0 3.3774 0C 1.51211 0 0 1.51194 0 3.377C 0 5.24207 1.51211 6.754 3.3774 6.754Z"/>
        <path id="path11_fill" fill-rule="evenodd"
              d="M 4.91112 3.06635C 3.89325 3.06635 3.06746 3.89151 3.06746 4.91018C 3.06746 5.92885 3.89324 6.754 4.91112 6.754C 5.92901 6.754 6.7548 5.92884 6.7548 4.91018C 6.7548 3.89151 5.92901 3.06635 4.91112 3.06635ZM 0 4.91018C 0 2.19872 2.19843 0 4.91112 0C 7.62381 0 9.82226 2.19871 9.82226 4.91018C 9.82226 7.62165 7.62381 9.82035 4.91112 9.82035C 2.19843 9.82035 0 7.62164 0 4.91018Z"/>
        <path id="path12_fill"
              d="M 3.3774 6.75401C 5.24269 6.75401 6.7548 5.24207 6.7548 3.377C 6.7548 1.51193 5.24269 0 3.3774 0C 1.51211 0 0 1.51193 0 3.377C 0 5.24207 1.51211 6.75401 3.3774 6.75401Z"/>
        <path id="path13_fill" fill-rule="evenodd"
              d="M 4.91113 3.06635C 3.89324 3.06635 3.06745 3.89151 3.06745 4.91018C 3.06745 5.92884 3.89324 6.754 4.91113 6.754C 5.92901 6.754 6.7548 5.92884 6.7548 4.91018C 6.7548 3.89151 5.92901 3.06635 4.91113 3.06635ZM 0 4.91018C 0 2.19871 2.19844 0 4.91113 0C 7.62382 0 9.82225 2.19871 9.82225 4.91018C 9.82225 7.62164 7.62382 9.82035 4.91113 9.82035C 2.19844 9.82035 0 7.62164 0 4.91018Z"/>
        <path id="path14_fill"
              d="M 3.37741 6.754C 5.2427 6.754 6.75482 5.24206 6.75482 3.377C 6.75482 1.51193 5.2427 0 3.37741 0C 1.51212 0 0 1.51193 0 3.377C 0 5.24206 1.51212 6.754 3.37741 6.754Z"/>
        <path id="path15_fill" fill-rule="evenodd"
              d="M 4.91114 3.06635C 3.89325 3.06635 3.06746 3.89151 3.06746 4.91018C 3.06746 5.92885 3.89326 6.75401 4.91114 6.75401C 5.92902 6.75401 6.75481 5.92885 6.75481 4.91018C 6.75481 3.89151 5.92902 3.06635 4.91114 3.06635ZM 0 4.91018C 0 2.19871 2.19844 0 4.91114 0C 7.62383 0 9.82227 2.19871 9.82227 4.91018C 9.82227 7.62164 7.62384 9.82036 4.91114 9.82036C 2.19844 9.82036 0 7.62164 0 4.91018Z"/>
        <path id="path16_fill"
              d="M 3.3774 6.75399C 5.24269 6.75399 6.7548 5.24206 6.7548 3.377C 6.7548 1.51193 5.24269 0 3.3774 0C 1.51211 0 0 1.51193 0 3.377C 0 5.24206 1.51211 6.75399 3.3774 6.75399Z"/>
        <path id="path17_fill" fill-rule="evenodd"
              d="M 4.91114 3.06635C 3.89325 3.06635 3.06746 3.89151 3.06746 4.91018C 3.06746 5.92884 3.89325 6.754 4.91114 6.754C 5.92902 6.754 6.75481 5.92884 6.75481 4.91018C 6.75481 3.89151 5.92902 3.06635 4.91114 3.06635ZM 0 4.91018C 0 2.19871 2.19844 0 4.91114 0C 7.62383 0 9.82227 2.19871 9.82227 4.91018C 9.82227 7.62165 7.62383 9.82035 4.91114 9.82035C 2.19845 9.82035 0 7.62165 0 4.91018Z"/>
        <path id="path18_fill"
              d="M 3.37741 6.75401C 5.2427 6.75401 6.75481 5.24208 6.75481 3.37701C 6.75481 1.51194 5.2427 0 3.37741 0C 1.51212 0 0 1.51194 0 3.37701C 0 5.24208 1.51212 6.75401 3.37741 6.75401Z"/>
        <path id="path19_fill" fill-rule="evenodd"
              d="M 4.91113 3.06635C 3.89325 3.06635 3.06746 3.89151 3.06746 4.91018C 3.06746 5.92884 3.89325 6.754 4.91113 6.754C 5.92902 6.754 6.7548 5.92884 6.7548 4.91018C 6.7548 3.89151 5.92901 3.06635 4.91113 3.06635ZM 0 4.91018C 0 2.19871 2.19844 0 4.91113 0C 7.62383 0 9.82226 2.19871 9.82226 4.91018C 9.82226 7.62165 7.62383 9.82035 4.91113 9.82035C 2.19845 9.82035 0 7.62165 0 4.91018Z"/>
        <path id="path20_fill"
              d="M 3.3774 6.75401C 5.24269 6.75401 6.7548 5.24207 6.7548 3.377C 6.7548 1.51193 5.24269 0 3.3774 0C 1.51211 0 0 1.51193 0 3.377C 0 5.24207 1.51211 6.75401 3.3774 6.75401Z"/>
        <path id="path21_fill" fill-rule="evenodd"
              d="M 4.91113 3.06635C 3.89325 3.06635 3.06746 3.89151 3.06746 4.91018C 3.06746 5.92884 3.89325 6.754 4.91113 6.754C 5.92902 6.754 6.75481 5.92884 6.75481 4.91018C 6.75481 3.89151 5.92902 3.06635 4.91113 3.06635ZM 0 4.91018C 0 2.19871 2.19844 0 4.91113 0C 7.62383 0 9.82227 2.19871 9.82227 4.91018C 9.82227 7.62164 7.62383 9.82036 4.91113 9.82036C 2.19844 9.82036 0 7.62164 0 4.91018Z"/>
    </defs>
</svg>
