<?xml version="1.0" encoding="UTF-8"?>
<svg width="28px" height="28px" viewBox="0 0 28 28" version="1.1" xmlns="http://www.w3.org/2000/svg" xmlns:xlink="http://www.w3.org/1999/xlink">
    <!-- Generator: Sketch 51.3 (57544) - http://www.bohemiancoding.com/sketch -->
    <title>Group 6</title>
    <desc>Created with Sketch.</desc>
    <defs></defs>
    <g id="Swap---Improve" stroke="none" stroke-width="1" fill="none" fill-rule="evenodd">
        <g id="M/Swap-Import-Address-Copy" transform="translate(-29.000000, -152.000000)" fill="#0049EB">
            <g id="Group-6" transform="translate(28.000000, 151.000000)">
                <path d="M19.3374577,18.1188398 C19.3374577,18.8310137 18.7618284,19.406643 18.0496545,19.406643 L11.8328581,19.406643 C11.1233616,19.406643 10.5450549,18.8310137 10.5450549,18.1188398 L10.5450549,11.9047208 C10.5450549,11.1898696 11.1233616,10.6142403 11.8328581,10.6142403 L18.0496545,10.6142403 C18.7618284,10.6142403 19.3374577,11.1898696 19.3374577,11.9047208 L19.3374577,18.1188398 Z M14.9412563,1.18730664 C7.30814416,1.18730664 1.11812128,7.37465217 1.11812128,15.0104416 C1.11812128,22.6435538 7.30814416,28.8335767 14.9412563,28.8335767 C22.5770458,28.8335767 28.7643913,22.6435538 28.7643913,15.0104416 C28.7643913,7.37465217 22.5770458,1.18730664 14.9412563,1.18730664 Z" id="Fill-4"></path>
            </g>
        </g>
    </g>
</svg>