<?xml version="1.0" encoding="UTF-8"?>
<svg width="19px" height="22px" viewBox="0 0 19 22" version="1.1" xmlns="http://www.w3.org/2000/svg" xmlns:xlink="http://www.w3.org/1999/xlink">
    <!-- Generator: Sketch 48.2 (47327) - http://www.bohemiancoding.com/sketch -->
    <title>ic_content_copy</title>
    <desc>Created with Sketch.</desc>
    <defs></defs>
    <g id="Artboard-16" stroke="none" stroke-width="1" fill="none" fill-rule="evenodd" transform="translate(-142.000000, -104.000000)">
        <g id="ic_content_copy" transform="translate(140.000000, 103.000000)">
            <polygon id="Bounds" points="0 0 24 0 24 24 0 24"></polygon>
            <path d="M16,1 L4,1 C2.9,1 2,1.9 2,3 L2,17 L4,17 L4,3 L16,3 L16,1 L16,1 Z M19,5 L8,5 C6.9,5 6,5.9 6,7 L6,21 C6,22.1 6.9,23 8,23 L19,23 C20.1,23 21,22.1 21,21 L21,7 C21,5.9 20.1,5 19,5 L19,5 Z M19,21 L8,21 L8,7 L19,7 L19,21 L19,21 Z" id="Icon" fill="#A5A5A5"></path>
        </g>
    </g>
</svg>