<?xml version="1.0" encoding="UTF-8"?>
<svg width="19px" height="22px" viewBox="0 0 19 22" version="1.1" xmlns="http://www.w3.org/2000/svg" xmlns:xlink="http://www.w3.org/1999/xlink">
    <!-- Generator: Sketch 50.2 (55047) - http://www.bohemiancoding.com/sketch -->
    <title>baseline-file_copy-24px</title>
    <desc>Created with Sketch.</desc>
    <defs></defs>
    <g id="Home-Swap-" stroke="none" stroke-width="1" fill="none" fill-rule="evenodd">
        <g id="Swap--Broadcasted" transform="translate(-1007.000000, -640.000000)">
            <g id="Group-8" transform="translate(558.000000, 623.000000)">
                <g id="baseline-file_copy-24px" transform="translate(447.000000, 16.000000)">
                    <polygon id="Shape" points="0 0 24 0 24 24 0 24"></polygon>
                    <path d="M16,1 L4,1 C2.9,1 2,1.9 2,3 L2,17 L4,17 L4,3 L16,3 L16,1 Z M15,5 L21,11 L21,21 C21,22.1 20.1,23 19,23 L7.99,23 C6.89,23 6,22.1 6,21 L6.01,7 C6.01,5.9 6.9,5 8,5 L15,5 Z M14,12 L19.5,12 L14,6.5 L14,12 Z" id="Shape" fill="#EF8102" fill-rule="nonzero"></path>
                </g>
            </g>
        </g>
    </g>
</svg>