<svg width="55" height="62" viewBox="0 0 55 62" version="1.1" xmlns="http://www.w3.org/2000/svg" xmlns:xlink="http://www.w3.org/1999/xlink">
<title>empty</title>
<desc>Created using Figma</desc>
<g id="Canvas" transform="translate(-763 2132)">
<g id="empty">
<g id="Group">
<g id="Vector">
<use xlink:href="#path0_stroke" transform="translate(788.337 -2113.73)" fill="#ECECEC"/>
</g>
<g id="Vector">
<use xlink:href="#path1_stroke" transform="translate(797.243 -2113.16)" fill="#ECECEC"/>
</g>
<g id="Vector">
<use xlink:href="#path2_stroke" transform="translate(764 -2113.47)" fill="#ECECEC"/>
</g>
<g id="Vector">
<use xlink:href="#path3_stroke" transform="translate(764 -2106.57)" fill="#ECECEC"/>
</g>
<g id="Vector">
<use xlink:href="#path4_stroke" transform="translate(772.181 -2101.1)" fill="#ECECEC"/>
</g>
<g id="Vector">
<use xlink:href="#path5_stroke" transform="translate(777.152 -2106.57)" fill="#ECECEC"/>
</g>
<g id="Vector">
<use xlink:href="#path6_stroke" transform="translate(764 -2083.78)" fill="#ECECEC"/>
</g>
<g id="Vector">
<use xlink:href="#path7_stroke" transform="translate(798.071 -2072.44)" fill="#ECECEC"/>
</g>
<g id="Vector">
<use xlink:href="#path8_stroke" transform="translate(800.867 -2083.78)" fill="#ECECEC"/>
</g>
<g id="Vector">
<use xlink:href="#path9_stroke" transform="translate(807.185 -2106.57)" fill="#ECECEC"/>
</g>
<g id="Vector">
<use xlink:href="#path10_stroke" transform="translate(800.867 -2093.89)" fill="#ECECEC"/>
</g>
<g id="Vector">
<use xlink:href="#path11_stroke" transform="translate(772.596 -2083.78)" fill="#ECECEC"/>
</g>
<g id="Vector">
<use xlink:href="#path12_stroke" transform="translate(765.243 -2097.19)" fill="#ECECEC"/>
</g>
<g id="Vector">
<use xlink:href="#path13_stroke" transform="translate(764 -2106.57)" fill="#ECECEC"/>
</g>
<g id="Vector">
<use xlink:href="#path14_stroke" transform="translate(783.159 -2113.68)" fill="#ECECEC"/>
</g>
<g id="Vector">
<use xlink:href="#path15_stroke" transform="translate(781.191 -2122.13)" fill="#ECECEC"/>
</g>
<g id="Vector">
<use xlink:href="#path16_stroke" transform="translate(789.787 -2113.37)" fill="#ECECEC"/>
</g>
<g id="Vector">
<use xlink:href="#path17_stroke" transform="translate(786.058 -2131)" fill="#ECECEC"/>
</g>
<g id="Vector">
<use xlink:href="#path18_stroke" transform="translate(805.217 -2101.11)" fill="#ECECEC"/>
</g>
<g id="Vector">
<use xlink:href="#path19_stroke" transform="translate(765.243 -2097.08)" fill="#ECECEC"/>
</g>
</g>
</g>
</g>
<defs>
<path id="path0_stroke" d="M 1.81674 1.0447C 2.3684 1.07085 2.83681 0.644834 2.86296 0.0931691C 2.88912 -0.458496 2.4631 -0.926909 1.91144 -0.95306L 1.81674 1.0447ZM 0 -0.954182C -0.552285 -0.954182 -1 -0.506467 -1 0.0458182C -1 0.598103 -0.552285 1.04582 0 1.04582L 0 -0.954182ZM 1.91144 -0.95306C 1.36396 -0.979005 1.029 -0.992322 0.825648 -0.99737C 0.666157 -1.00131 0.474129 -1.00635 0.309592 -0.973592C 0.167412 -0.945284 0.0483511 -0.888048 0.0790664 -0.901152C 0.154071 -0.933152 0.224163 -0.9501 0.273188 -0.957495C 0.281351 -0.959777 0.22966 -0.953754 0 -0.954182L 0 1.04582C 0.250064 1.04582 0.43287 1.04104 0.571476 1.02014C 0.6739 1.00469 0.769073 0.97888 0.863899 0.938423C 0.914437 0.916862 0.809939 0.966045 0.700122 0.987909C 0.60031 1.00778 0.544204 0.996293 0.7763 1.00202C 0.964536 1.00664 1.27682 1.0191 1.81674 1.0447L 1.91144 -0.95306Z"/>
<path id="path1_stroke" d="M 0.139024 -0.99029C -0.407897 -1.06707 -0.913509 -0.685948 -0.99029 -0.139026C -1.06707 0.407895 -0.685948 0.913506 -0.139027 0.990288L 0.139024 -0.99029ZM 11.2201 6.59794C 11.2201 7.15022 11.6678 7.59794 12.2201 7.59794C 12.7724 7.59794 13.2201 7.15022 13.2201 6.59794L 11.2201 6.59794ZM -0.139027 0.990288C 3.84278 1.54929 6.76125 2.42806 8.6543 3.47766C 10.5645 4.53674 11.2201 5.63606 11.2201 6.59794L 13.2201 6.59794C 13.2201 4.57013 11.8046 2.93749 9.62411 1.72852C 7.42653 0.510081 4.23493 -0.415271 0.139024 -0.99029L -0.139027 0.990288Z"/>
<path id="path2_stroke" d="M 16.9492 0.997628C 17.5002 0.959614 17.916 0.482145 17.878 -0.0688304C 17.84 -0.619805 17.3625 -1.03564 16.8115 -0.997628L 16.9492 0.997628ZM -1 6.90722C -1 7.4595 -0.552285 7.90722 0 7.90722C 0.552285 7.90722 1 7.4595 1 6.90722L -1 6.90722ZM 16.8115 -0.997628C 11.5171 -0.630227 7.14009 0.254426 4.13731 1.48502C 2.61026 2.11662 1.31702 2.90673 0.464183 3.73902C -0.437276 4.62882 -1 5.69577 -1 6.90722L 1 6.90722C 1 6.36608 1.23987 5.78356 1.86916 5.1624C 2.54708 4.48374 3.51275 3.90142 4.89834 3.33457C 7.72083 2.16825 11.784 1.35188 16.9492 0.997628L 16.8115 -0.997628Z"/>
<path id="path3_stroke" d="M 4.95857 5.48248C 5.48125 5.66087 6.04958 5.38178 6.22798 4.8591C 6.40637 4.33642 6.12727 3.76808 5.60459 3.58969L 4.95857 5.48248ZM 1 7.86536e-07C 1 -0.552284 0.552285 -0.999999 0 -0.999999C -0.552285 -0.999999 -1 -0.552284 -1 7.86536e-07L 1 7.86536e-07ZM 5.60459 3.58969C 3.85276 2.99177 2.66966 2.34834 1.94075 1.70937C 1.2309 1.0871 1 0.51797 1 7.86536e-07L -1 7.86536e-07C -1 1.23461 -0.402419 2.31497 0.622365 3.21331C 1.6281 4.09496 3.08579 4.84328 4.95857 5.48248L 5.60459 3.58969Z"/>
<path id="path4_stroke" d="M 0.250565 1.08961C 0.795402 1.18 1.31036 0.811606 1.40076 0.26677C 1.49115 -0.278067 1.12276 -0.793025 0.577918 -0.883421L 0.250565 1.08961ZM 0.241504 -0.9704C -0.294433 -1.10378 -0.837021 -0.777441 -0.9704 -0.241504C -1.10378 0.294432 -0.777442 0.83702 -0.241505 0.9704L 0.241504 -0.9704ZM 0.577918 -0.883421C 0.49526 -0.897122 0.431615 -0.90701 0.391968 -0.912638C 0.367887 -0.916011 0.33646 -0.919911 0.316615 -0.921987C 0.304881 -0.923171 0.277121 -0.925869 0.243124 -0.927082C 0.227752 -0.92763 0.191757 -0.928663 0.146349 -0.925992C 0.123804 -0.924665 0.0833557 -0.921583 0.0335108 -0.912942C 0.00788135 -0.908498 -0.0277986 -0.901299 -0.0696072 -0.889403C -0.109433 -0.878071 -0.170948 -0.857967 -0.241697 -0.822754C -0.308625 -0.789442 -0.420051 -0.724844 -0.527874 -0.60912C -0.644058 -0.484422 -0.758854 -0.295385 -0.788949 -0.0481912C -0.818433 0.193993 -0.754732 0.394446 -0.687117 0.527042C -0.62271 0.653349 -0.545291 0.738714 -0.497356 0.785857C -0.404899 0.876785 -0.316314 0.927729 -0.285361 0.945108C -0.244031 0.968313 -0.209274 0.983932 -0.189312 0.992492C -0.149285 1.00966 -0.116573 1.02055 -0.102184 1.02523C -0.089966 1.02912 -0.0694528 1.03529 -0.0602303 1.03791C -0.0265249 1.04736 0.00335159 1.05394 0.0165306 1.0568C 0.0442955 1.06274 0.0895102 1.0714 0.121115 1.07672C 0.13777 1.07946 0.165255 1.08358 0.184541 1.08612C 0.199553 1.08805 0.249635 1.09451 0.309679 1.09581C 0.326239 1.09605 0.364526 1.09558 0.387251 1.09462C 0.415434 1.09312 0.474186 1.08902 0.546673 1.07344C 0.583874 1.06545 0.640531 1.05112 0.706643 1.02485C 0.768715 1.00018 0.873668 0.951523 0.982577 0.859662C 1.09691 0.763227 1.23575 0.600751 1.30193 0.361345C 1.3695 0.116881 1.33284 -0.10473 1.27135 -0.264558C 1.21435 -0.412725 1.13478 -0.514402 1.08561 -0.569793C 1.03343 -0.62858 0.984199 -0.670049 0.951785 -0.695308C 0.888601 -0.744544 0.833081 -0.775468 0.807176 -0.789343C 0.752268 -0.818754 0.70571 -0.837061 0.687886 -0.843961C 0.645583 -0.860338 0.606348 -0.872578 0.583253 -0.879593C 0.559999 -0.886625 0.526261 -0.896316 0.494395 -0.905064C 0.435785 -0.921098 0.349993 -0.943387 0.241504 -0.9704L -0.241505 0.9704C -0.142873 0.994933 -0.0797968 1.0113 -0.0340372 1.02386C 0.0225782 1.03937 0.00549949 1.03651 -0.0341616 1.02115C -0.0447041 1.01707 -0.0859022 1.00113 -0.137156 0.973676C -0.161235 0.960779 -0.215354 0.930731 -0.277538 0.882274C -0.309452 0.857406 -0.358287 0.816302 -0.410163 0.757857C -0.459024 0.702808 -0.538384 0.60145 -0.595274 0.453579C -0.65665 0.294046 -0.69329 0.0727082 -0.625786 -0.171505C -0.559679 -0.41066 -0.420997 -0.572908 -0.306911 -0.669135C -0.198248 -0.760789 -0.0936273 -0.809263 -0.0319701 -0.833765C 0.0337258 -0.859873 0.0898841 -0.874055 0.126507 -0.881924C 0.197837 -0.897252 0.255114 -0.901189 0.281528 -0.902587C 0.312536 -0.904229 0.337551 -0.904054 0.352946 -0.90372C 0.383237 -0.903065 0.406103 -0.901071 0.415474 -0.9002C 0.408519 -0.9009 0.442232 -0.897235 0.439147 -0.897605C 0.435942 -0.898082 0.45123 -0.895824 0.448467 -0.896308C 0.441237 -0.89743 0.436803 -0.898627 0.440592 -0.897728C 0.440215 -0.89782 0.452266 -0.895047 0.449796 -0.895619C 0.453699 -0.894688 0.464687 -0.89204 0.47963 -0.88785C 0.481352 -0.887368 0.534648 -0.873193 0.598991 -0.845598C 0.61845 -0.837253 0.652785 -0.821837 0.693779 -0.79882C 0.724396 -0.78163 0.812729 -0.730862 0.905022 -0.640094C 0.952876 -0.593032 1.03023 -0.507744 1.0946 -0.381511C 1.16218 -0.248987 1.22587 -0.0486039 1.19639 0.193515C 1.16631 0.440643 1.05154 0.629618 0.935411 0.754258C 0.827642 0.869923 0.716293 0.934468 0.649466 0.967729C 0.521606 1.03137 0.410858 1.05147 0.375153 1.05766C 0.325703 1.06624 0.285748 1.06927 0.263798 1.07056C 0.21958 1.07316 0.185181 1.07212 0.171838 1.07165C 0.141899 1.07058 0.119929 1.06832 0.115932 1.06792C 0.103836 1.0667 0.100048 1.06598 0.11208 1.06768C 0.137968 1.07132 0.177883 1.07754 0.250565 1.08961L 0.577918 -0.883421Z"/>
<path id="path5_stroke" d="M 33.3108 7.86536e-07C 33.3108 -0.552284 32.8631 -0.999999 32.3108 -0.999999C 31.7586 -0.999999 31.3108 -0.552284 31.3108 7.86536e-07L 33.3108 7.86536e-07ZM 0.189194 5.40981C -0.353116 5.30532 -0.87745 5.66025 -0.98194 6.20256C -1.08643 6.74487 -0.731505 7.2692 -0.189195 7.37369L 0.189194 5.40981ZM 31.3108 7.86536e-07C 31.3108 0.514169 30.9758 1.18831 29.9337 1.96085C 28.8719 2.75458 27.3616 3.44856 25.3704 4.07171C 21.3461 5.339 15.8266 6.11585 9.63112 6.1134L 9.63112 8.1134C 15.9665 8.11095 21.7868 7.28986 25.9696 5.97984C 28.082 5.31432 29.8921 4.47481 31.1248 3.5675C 32.3773 2.63901 33.3108 1.4446 33.3108 7.86536e-07L 31.3108 7.86536e-07ZM 9.63112 6.1134C 5.61389 6.11364 3.32691 6.01712 0.189194 5.40981L -0.189195 7.37369C 3.09384 8.0035 5.57064 8.11317 9.63112 8.1134L 9.63112 6.1134Z"/>
<path id="path6_stroke" d="M 30.3259 13.3674C 30.8761 13.3198 31.2835 12.8351 31.2359 12.2849C 31.1883 11.7347 30.7036 11.3272 30.1534 11.3749L 30.3259 13.3674ZM 22.7833 12.7835L 22.7751 13.7835L 22.7833 13.7835L 22.7833 12.7835ZM 8.84147 0.96928C 9.37679 0.833442 9.70063 0.289362 9.5648 -0.245957C 9.42896 -0.781276 8.88488 -1.10512 8.34956 -0.969282L 8.84147 0.96928ZM 30.1534 11.3749C 27.7733 11.5809 25.3309 11.7844 22.7833 11.7835L 22.7833 13.7835C 25.4137 13.7827 27.9422 13.5737 30.3259 13.3674L 30.1534 11.3749ZM 22.7915 11.7835C 16.5398 11.7347 10.9899 10.9574 6.95251 9.69C 4.95492 9.06683 3.4431 8.37369 2.38108 7.57472C 1.3441 6.80122 1 6.11433 1 5.56701L -1 5.56701C -1 7.03 -0.0754865 8.23744 1.18528 9.17786C 2.42101 10.0928 4.23607 10.9332 6.35501 11.5987C 10.5507 12.9086 16.3924 13.7292 22.7751 13.7835L 22.7915 11.7835ZM 1 5.56701C 1 4.96206 1.44931 4.16691 2.85136 3.28093C 4.25428 2.38866 6.25739 1.6232 8.84147 0.96928L 8.34956 -0.969282C 5.65206 -0.282995 3.35741 0.601028 1.78297 1.59021C 0.207659 2.58567 -1 3.90392 -1 5.56701L 1 5.56701Z"/>
<path id="path7_stroke" d="M 2.51983 0.970399C 3.05577 0.83702 3.38211 0.294432 3.24873 -0.241505C 3.11535 -0.777442 2.57276 -1.10378 2.03682 -0.9704L 2.51983 0.970399ZM -0.208623 -0.462533C -0.748755 -0.347313 -1.09321 0.183955 -0.977994 0.724087C -0.862774 1.26422 -0.331506 1.60868 0.208626 1.49346L -0.208623 -0.462533ZM 2.03682 -0.9704C 0.81375 -0.666013 1.24575 -0.772777 -0.208623 -0.462533L 0.208626 1.49346C 1.65394 1.18515 1.25746 1.28457 2.51983 0.970399L 2.03682 -0.9704Z"/>
<path id="path8_stroke" d="M 0.250568 -0.9681C -0.284099 -1.10648 -0.829715 -0.785236 -0.9681 -0.25057C -1.10649 0.284096 -0.785237 0.829712 -0.250571 0.968098L 0.250568 -0.9681ZM 2.63816 9.37831C 2.124 9.57994 1.87065 10.1602 2.07228 10.6744C 2.27391 11.1885 2.85418 11.4419 3.36834 11.2402L 2.63816 9.37831ZM -0.250571 0.968098C 2.28408 1.62248 4.2912 2.38953 5.70862 3.28301C 7.13502 4.1766 7.59552 4.97251 7.59552 5.56701L 9.59552 5.56701C 9.59552 3.89347 8.34726 2.57598 6.77041 1.58813C 5.18458 0.600155 2.89394 -0.282272 0.250568 -0.9681L -0.250571 0.968098ZM 7.59552 5.56701C 7.59552 6.00549 7.32004 6.60095 6.44551 7.32063C 5.5539 8.06068 4.293 8.73119 2.63816 9.37831L 3.36834 11.2402C 5.131 10.5472 6.66623 9.72283 7.71638 8.86494C 8.7836 7.98668 9.59552 6.88111 9.59552 5.56701L 7.59552 5.56701Z"/>
<path id="path9_stroke" d="M -0.934753 12.4282C -1.13098 12.9445 -0.871545 13.522 -0.355294 13.7183C 0.160956 13.9145 0.738531 13.6551 0.934755 13.1388L -0.934753 12.4282ZM 3.27833 7.86536e-07C 3.27833 -0.552284 2.83062 -0.999999 2.27833 -0.999999C 1.72605 -0.999999 1.27833 -0.552284 1.27833 7.86536e-07L 3.27833 7.86536e-07ZM 0.934755 13.1388C 2.41196 9.24172 3.27387 4.73356 3.27833 7.86536e-07L 1.27833 7.86536e-07C 1.2828 4.54479 0.487732 8.69642 -0.934753 12.4282L 0.934755 13.1388Z"/>
<path id="path10_stroke" d="M -0.719265 9.40836C -1.10296 9.80559 -1.09198 10.4387 -0.694739 10.8224C -0.2975 11.206 0.33557 11.1951 0.719262 10.7978L -0.719265 9.40836ZM 7.24677 0.368606C 7.45035 -0.14479 7.19919 -0.72601 6.68579 -0.929586C 6.1724 -1.13316 5.59118 -0.882002 5.3876 -0.368606L 7.24677 0.368606ZM 0.719262 10.7978C 3.37797 8.03713 5.65697 4.36721 7.24677 0.368606L 5.3876 -0.368606C 3.87059 3.46784 1.80005 6.80823 -0.719265 9.40836L 0.719262 10.7978Z"/>
<path id="path11_stroke" d="M 28.9866 0.699482C 29.373 0.304793 29.3662 -0.328336 28.9715 -0.71465C 28.5768 -1.10096 27.9437 -1.09417 27.5573 -0.699484L 28.9866 0.699482ZM 0.723907 -0.689899C 0.342886 -1.0897 -0.290096 -1.10493 -0.689898 -0.723907C -1.0897 -0.342887 -1.10493 0.290095 -0.723906 0.689897L 0.723907 -0.689899ZM 27.5573 -0.699484C 23.7755 3.16435 19.1546 5.39175 14.0842 5.39175L 14.0842 7.39175C 19.7841 7.39175 24.8979 4.87688 28.9866 0.699482L 27.5573 -0.699484ZM 14.0842 5.39175C 9.01243 5.39175 4.39625 3.16347 0.723907 -0.689899L -0.723906 0.689897C 3.26722 4.87776 8.38572 7.39175 14.0842 7.39175L 14.0842 5.39175Z"/>
<path id="path12_stroke" d="M 6.64728 14.1108C 7.03869 14.5004 7.67185 14.499 8.06149 14.1076C 8.45113 13.7162 8.4497 13.083 8.05829 12.6934L 6.64728 14.1108ZM 0.969883 -0.243571C 0.835363 -0.779223 0.292081 -1.1044 -0.243571 -0.969884C -0.779222 -0.835364 -1.1044 -0.292082 -0.969883 0.24357L 0.969883 -0.243571ZM 8.05829 12.6934C 4.73238 9.39613 2.27586 4.99219 0.969883 -0.243571L -0.969883 0.24357C 0.416709 5.72945 3.13821 10.6039 6.64728 14.1108L 8.05829 12.6934Z"/>
<path id="path13_stroke" d="M 1 7.86536e-07C 1 -0.552284 0.552285 -0.999999 0 -0.999999C -0.552285 -0.999999 -1 -0.552284 -1 7.86536e-07L 1 7.86536e-07ZM 0.279042 9.75159C 0.426529 10.2838 0.977547 10.5957 1.50977 10.4482C 2.042 10.3007 2.3539 9.74972 2.20641 9.21749L 0.279042 9.75159ZM -1 7.86536e-07C -0.997924 3.36337 -0.565901 6.69314 0.279042 9.75159L 2.20641 9.21749C 1.39438 6.29656 0.997924 3.23457 1 7.86536e-07L -1 7.86536e-07Z"/>
<path id="path14_stroke" d="M -0.386567 2.58289C -0.895918 2.79639 -1.13576 3.38237 -0.922261 3.89172C -0.708766 4.40107 -0.122783 4.64091 0.386567 4.42742L -0.386567 2.58289ZM 2.96765 -7.86536e-07C 2.96765 -0.552286 2.51993 -1 1.96765 -1C 1.41536 -1 0.967648 -0.552286 0.967648 -7.86536e-07L 2.96765 -7.86536e-07ZM 0 3.50516C 0.386567 4.42742 0.387037 4.42722 0.387514 4.42702C 0.387684 4.42695 0.388169 4.42674 0.388508 4.4266C 0.388878 4.42645 0.389898 4.42601 0.390638 4.4257C 0.391499 4.42534 0.393732 4.42438 0.395457 4.42365C 0.397665 4.4227 0.402889 4.42044 0.4073 4.41851C 0.413611 4.41574 0.427011 4.40975 0.439493 4.40404C 0.459347 4.3949 0.497285 4.37685 0.53549 4.35764C 0.601322 4.32428 0.716364 4.26178 0.834382 4.18915C 1.04798 4.05601 1.38986 3.80591 1.69847 3.49588C 2.33681 2.8437 2.96765 1.80426 2.96765 0.309279L 0.967648 0.309279C 0.967648 1.18543 0.614664 1.74393 0.269175 2.09691C 0.0858748 2.28946 -0.064154 2.39373 -0.219492 2.48934C -0.285941 2.53107 -0.324621 2.55153 -0.366395 2.57253C -0.381993 2.5805 -0.386329 2.58249 -0.395298 2.58659C -0.397227 2.58749 -0.397145 2.58742 -0.396011 2.58693C -0.396698 2.58722 -0.392289 2.58532 -0.392605 2.58545C -0.393385 2.58578 -0.389536 2.58414 -0.389921 2.58431C -0.390423 2.58452 -0.388079 2.58353 -0.388329 2.58363C -0.38805 2.58352 -0.387609 2.58333 -0.387469 2.58327C -0.387022 2.58309 -0.386567 2.58289 0 3.50516ZM 2.96765 0.309279C 2.96765 0.206186 2.96765 0.103092 2.96765 -7.86536e-07L 0.967648 -7.86536e-07C 0.967648 0.103092 0.967648 0.206186 0.967648 0.309279L 2.96765 0.309279Z"/>
<path id="path15_stroke" d="M 2.55145 0.877135C 3.03588 0.611902 3.21358 0.00418284 2.94834 -0.480245C 2.68311 -0.964673 2.07539 -1.14237 1.59096 -0.877134L 2.55145 0.877135ZM 2.94646 8.60261C 3.02875 9.14873 3.53817 9.52473 4.08429 9.44244C 4.63041 9.36016 5.00642 8.85073 4.92413 8.30461L 2.94646 8.60261ZM 2.07121 3.93268e-07C 1.59096 -0.877134 1.59061 -0.876941 1.59025 -0.876743C 1.59012 -0.876671 1.58975 -0.876468 1.58949 -0.876324C 1.58919 -0.876163 1.5884 -0.875728 1.58782 -0.875404C 1.5871 -0.875009 1.58533 -0.874027 1.58389 -0.873231C 1.58196 -0.872154 1.57763 -0.869733 1.57377 -0.867557C 1.56792 -0.864253 1.55623 -0.857578 1.54471 -0.850881C 1.52548 -0.839669 1.49069 -0.818927 1.45394 -0.796117C 1.38831 -0.755222 1.2788 -0.683549 1.16236 -0.599852C 0.946128 -0.443329 0.613097 -0.171335 0.304957 0.154874C -0.316179 0.81958 -1 1.87658 -1 3.29897L 1 3.29897C 1 2.55641 1.35178 1.96393 1.76625 1.52038C 1.97591 1.29247 2.16069 1.14565 2.33281 1.02189C 2.41054 0.965444 2.46284 0.931608 2.51049 0.90203C 2.53037 0.889603 2.54008 0.883867 2.55119 0.87741C 2.55484 0.875273 2.55478 0.875316 2.55677 0.874196C 2.55683 0.874161 2.55558 0.874863 2.55552 0.874893C 2.55596 0.874651 2.55363 0.875938 2.55385 0.87582C 2.55418 0.875634 2.55257 0.876521 2.55274 0.876429C 2.55254 0.876538 2.55222 0.876715 2.55212 0.87677C 2.55179 0.87695 2.55145 0.877135 2.07121 3.93268e-07ZM -1 3.29897C -1 4.13053 -0.628591 4.80007 -0.20095 5.31972C 0.206158 5.80759 0.741462 6.2604 1.21789 6.65024C 1.69425 7.03997 2.12231 7.3794 2.45182 7.74362C 2.76991 8.09101 2.91061 8.36472 2.94646 8.60261L 4.92413 8.30461C 4.80464 7.51156 4.37576 6.88321 3.92686 6.39297C 3.48937 5.91956 2.95303 5.4858 2.48439 5.10234C 2.01583 4.71898 1.62557 4.39859 1.34335 4.04884C 1.08167 3.73086 1 3.49834 1 3.29897L -1 3.29897Z"/>
<path id="path16_stroke" d="M 4.71803 0.14205C 4.79649 -0.404634 4.41691 -0.911407 3.87022 -0.989859C 3.32354 -1.06831 2.81677 -0.688734 2.73832 -0.14205L 4.71803 0.14205ZM -0.38524 4.02564C -0.894898 4.2384 -1.13558 4.82404 -0.922817 5.33369C -0.710055 5.84335 -0.124418 6.08403 0.385239 5.87127L -0.38524 4.02564ZM 2.73832 -0.14205C 2.54593 1.42014 1.79882 2.36689 0.998357 3.08636C 0.620154 3.43269 0.286102 3.65432 0.00223263 3.821C -0.129901 3.89921 -0.224217 3.94809 -0.302558 3.98656C -0.337098 4.00363 -0.357186 4.01292 -0.376072 4.02145C -0.383275 4.02472 -0.385428 4.02566 -0.389251 4.02732C -0.390062 4.02768 -0.389902 4.0276 -0.389464 4.02741C -0.38979 4.02755 -0.387757 4.02669 -0.387915 4.02676C -0.388265 4.02691 -0.386545 4.02618 -0.386719 4.02626C -0.386497 4.02616 -0.386127 4.02601 -0.386015 4.02596C -0.385634 4.0258 -0.38524 4.02564 -3.95052e-07 4.94845C 0.385239 5.87127 0.385658 5.8711 0.386088 5.87092C 0.386248 5.87085 0.386692 5.87066 0.387012 5.87053C 0.387381 5.87037 0.388345 5.86997 0.389084 5.86966C 0.39002 5.86926 0.392249 5.86832 0.39412 5.86752C 0.396772 5.86639 0.402422 5.86397 0.407701 5.86168C 0.416058 5.85804 0.431995 5.85101 0.448432 5.84359C 0.476826 5.83073 0.526216 5.8077 0.580471 5.78107C 0.67972 5.73216 0.84026 5.64815 1.01719 5.54433C 1.35145 5.34697 1.85235 5.00803 2.34147 4.56827C 3.27564 3.71559 4.39261 2.1881 4.71803 0.14205L 2.73832 -0.14205Z"/>
<path id="path17_stroke" d="M 6.45635 17.6289C 6.45635 18.1812 6.90406 18.6289 7.45635 18.6289C 8.00863 18.6289 8.45635 18.1812 8.45635 17.6289L 6.45635 17.6289ZM 4.51129 0.881364C 4.99806 0.620444 5.18114 0.0143264 4.92022 -0.472438C 4.6593 -0.959202 4.05318 -1.14228 3.56642 -0.881364L 4.51129 0.881364ZM 8.45635 17.6289C 8.45291 17.5571 8.46953 17.4785 8.4964 17.3048C 8.5231 17.1319 8.55737 16.8753 8.55991 16.5979L 6.55991 16.5979C 6.56245 16.7329 6.54494 16.8371 6.51986 16.9993C 6.49495 17.1607 6.45979 17.3914 6.45635 17.6289L 8.45635 17.6289ZM 8.55991 16.5979C 8.55991 15.1987 7.94206 14.0508 7.14571 13.0987C 6.37174 12.1807 5.35341 11.3485 4.40682 10.5869C 3.46021 9.82524 2.58335 9.13123 1.9384 8.37706C 1.31357 7.6528 0.999999 6.98795 0.999999 6.28866L -1 6.28866C -1 7.65122 -0.36858 8.76473 0.424069 9.68351C 1.1966 10.5724 2.20972 11.3861 3.15309 12.1451C 4.09647 12.9041 4.96813 13.6054 5.61164 14.3819C 6.23277 15.1245 6.55991 15.8323 6.55991 16.5979L 8.55991 16.5979ZM 0.999999 6.28866C 0.999999 4.57486 1.836 3.2374 2.74243 2.28879C 3.19766 1.80889 3.62805 1.47092 3.98464 1.21955C 4.15466 1.09915 4.28393 1.01692 4.38542 0.955178C 4.43226 0.926601 4.46319 0.908627 4.48874 0.894074C 4.49963 0.887857 4.50514 0.884789 4.51087 0.881627C 4.5128 0.880555 4.51288 0.880516 4.51389 0.879968C 4.51393 0.879943 4.51333 0.880268 4.5133 0.880283C 4.51352 0.880168 4.51237 0.880785 4.51248 0.880728C 4.51231 0.880818 4.51202 0.880977 4.51193 0.881022C 4.51162 0.881189 4.51129 0.881364 4.03886 -1.8313e-15C 3.56642 -0.881364 3.56606 -0.881173 3.56569 -0.880973C 3.56554 -0.880895 3.56516 -0.880686 3.56487 -0.88053C 3.56451 -0.880341 3.56364 -0.879871 3.56294 -0.879491C 3.56199 -0.878978 3.55987 -0.87783 3.55797 -0.876798C 3.5551 -0.875233 3.54938 -0.872105 3.54367 -0.868955C 3.53412 -0.863672 3.51695 -0.85408 3.49825 -0.843433C 3.46464 -0.82426 3.4088 -0.791695 3.3452 -0.753019C 3.22582 -0.680258 3.03956 -0.561137 2.83093 -0.41414C 2.43023 -0.130714 1.85091 0.330289 1.29643 0.907088C 0.183428 2.07188 -1 3.87875 -1 6.28866L 0.999999 6.28866Z"/>
<path id="path18_stroke" d="M 0.247322 10.5866C -0.287805 10.45 -0.832342 10.7731 -0.968934 11.3082C -1.10553 11.8433 -0.78245 12.3879 -0.247323 12.5245L 0.247322 10.5866ZM 10.6667 1.55554L 11.3845 0.859322L 11.3841 0.858896L 10.6667 1.55554ZM 3.10224 0.0842708C 2.63129 0.372772 2.4834 0.988422 2.7719 1.45936C 3.0604 1.9303 3.67605 2.0782 4.14699 1.7897L 3.10224 0.0842708ZM -7.90103e-07 11.5555C -0.247323 12.5245 -0.24705 12.5245 -0.246762 12.5246C -0.246645 12.5246 -0.24634 12.5247 -0.246107 12.5248C -0.245811 12.5249 -0.245108 12.525 -0.244516 12.5252C -0.243678 12.5254 -0.241897 12.5259 -0.240221 12.5263C -0.237563 12.5269 -0.232514 12.5282 -0.227221 12.5295C -0.218037 12.5318 -0.202101 12.5356 -0.183968 12.5399C -0.150575 12.5478 -0.0962143 12.5603 -0.0315507 12.5743C 0.0917817 12.6009 0.283604 12.6394 0.512321 12.6784C 0.956822 12.7536 1.61933 12.8415 2.36174 12.8766C 3.81882 12.9421 5.85603 12.7779 7.59127 11.9353L 6.70007 10.1448C 5.3285 10.8487 3.79287 10.9422 2.45382 10.8788C 1.79816 10.8495 1.25678 10.7763 0.846908 10.7066C 0.648439 10.673 0.500453 10.6431 0.390774 10.6194C 0.338933 10.6082 0.303487 10.6 0.2762 10.5936C 0.263993 10.5907 0.256871 10.589 0.250581 10.5874C 0.248138 10.5868 0.247346 10.5866 0.246098 10.5863C 0.24582 10.5862 0.245846 10.5862 0.245989 10.5863C 0.245888 10.5862 0.246524 10.5864 0.246474 10.5864C 0.246585 10.5864 0.246797 10.5865 0.246853 10.5865C 0.247079 10.5865 0.247322 10.5866 -7.90103e-07 11.5555ZM 7.59127 11.9353C 9.3558 11.057 11.1171 9.26322 12.0624 7.26705C 13.0125 5.26073 13.2394 2.77171 11.3845 0.859322L 9.94889 2.25176C 10.9938 3.32907 11.0135 4.80912 10.2549 6.41105C 9.49143 8.02312 8.04235 9.47674 6.70007 10.1448L 7.59127 11.9353ZM 11.3841 0.858896C 9.58625 -0.992585 7.45435 -1.16775 5.85428 -0.899796C 5.07601 -0.765569 4.36255 -0.515683 3.90642 -0.319456C 3.66834 -0.216308 3.463 -0.114202 3.33589 -0.0469455C 3.26784 -0.0108217 3.20853 0.0222685 3.17362 0.0422536C 3.15405 0.0534777 3.136 0.0640518 3.12614 0.0698971C 3.12019 0.0734301 3.11416 0.0770407 3.11119 0.0788347C 3.1092 0.0800353 3.10695 0.0813986 3.10596 0.0820019C 3.10521 0.082455 3.10428 0.0830232 3.10391 0.0832501C 3.1036 0.0834391 3.10318 0.0836945 3.10302 0.083789C 3.10262 0.0840345 3.10224 0.0842708 3.62461 0.936985C 4.14699 1.7897 4.14664 1.78992 4.1463 1.79012C 4.1462 1.79018 4.14588 1.79038 4.14569 1.79049C 4.14582 1.79042 4.14449 1.79122 4.14475 1.79107C 4.14476 1.79106 4.14388 1.7916 4.14392 1.79157C 4.14299 1.79213 4.14466 1.79112 4.14644 1.79007C 4.15205 1.78674 4.15705 1.7838 4.16779 1.77765C 4.19351 1.7629 4.22391 1.74586 4.27216 1.72037C 4.37765 1.6644 4.51131 1.59737 4.6988 1.51688C 5.09381 1.34584 5.57777 1.17047 6.18461 1.07274C 7.35479 0.876773 8.74394 1.01089 9.94931 2.25219L 11.3841 0.858896Z"/>
<path id="path19_stroke" d="M 41.5245 4.20765C 42.0263 4.43822 42.6201 4.21831 42.8506 3.71646C 43.0812 3.21461 42.8613 2.62087 42.3595 2.39029L 41.5245 4.20765ZM 0.705505 -0.708703C 0.314098 -1.09834 -0.319065 -1.09691 -0.708705 -0.705503C -1.09834 -0.314096 -1.09691 0.319067 -0.705505 0.708707L 0.705505 -0.708703ZM 41.942 3.29897C 42.3595 2.39029 42.3591 2.39014 42.3588 2.38998C 42.3587 2.38992 42.3583 2.38975 42.358 2.38963C 42.3577 2.38947 42.3569 2.3891 42.3562 2.38879C 42.3553 2.38838 42.3533 2.38746 42.3514 2.38663C 42.3486 2.38536 42.3431 2.38288 42.3375 2.38036C 42.3279 2.37608 42.3109 2.36859 42.2917 2.36028C 42.2568 2.34518 42.199 2.32076 42.1293 2.29245C 41.9967 2.23877 41.7869 2.15768 41.5233 2.06522C 41.0107 1.88584 40.2199 1.63884 39.2085 1.39816C 37.2174 0.92633 34.2024 0.446443 30.3432 0.443298L 30.3432 2.4433C 34.0439 2.44015 36.8283 2.8881 38.7466 3.34411C 39.6899 3.56735 40.3814 3.78426 40.8623 3.95282C 41.0954 4.03432 41.2602 4.09821 41.3781 4.14601C 41.4335 4.16845 41.4699 4.18389 41.4978 4.19597C 41.5101 4.20126 41.5167 4.20418 41.5228 4.20693C 41.5251 4.20792 41.5255 4.2081 41.5266 4.20861C 41.5267 4.20867 41.5263 4.2085 41.5263 4.20846C 41.5264 4.20854 41.5255 4.2081 41.5255 4.20814C 41.5254 4.20807 41.5251 4.20795 41.5251 4.20791C 41.5248 4.20778 41.5245 4.20765 41.942 3.29897ZM 30.3432 0.443298C 22.4017 0.518986 18.6735 4.23033 11.4952 4.15464L 11.4952 6.15464C 19.4368 6.07895 23.1649 2.36761 30.3432 2.4433L 30.3432 0.443298ZM 11.4952 4.15464C 4.51378 4.15464 0.964662 -0.450717 0.705505 -0.708703L -0.705505 0.708707C -0.718398 0.698122 -0.411043 1.07083 0.136364 1.60792C 0.661606 2.12018 1.46602 2.81928 2.47878 3.48957C 4.46737 4.79608 7.56192 6.13338 11.4952 6.15464L 11.4952 4.15464Z"/>
</defs>
</svg>
