<?xml version="1.0" encoding="UTF-8"?>
<svg version="1.1" viewBox="0 0 55 62" xmlns="http://www.w3.org/2000/svg" xmlns:xlink="http://www.w3.org/1999/xlink">
<title>empty</title>
<desc>Created using Figma</desc>
<g transform="translate(-763 2132)">
<use transform="translate(788.34 -2113.7)" fill="#ECECEC" xlink:href="#t"/>
<use transform="translate(797.24 -2113.2)" fill="#ECECEC" xlink:href="#i"/>
<use transform="translate(764 -2113.5)" fill="#ECECEC" xlink:href="#h"/>
<use transform="translate(764 -2106.6)" fill="#ECECEC" xlink:href="#g"/>
<use transform="translate(772.18 -2101.1)" fill="#ECECEC" xlink:href="#f"/>
<use transform="translate(777.15 -2106.6)" fill="#ECECEC" xlink:href="#e"/>
<use transform="translate(764 -2083.8)" fill="#ECECEC" xlink:href="#d"/>
<use transform="translate(798.07 -2072.4)" fill="#ECECEC" xlink:href="#c"/>
<use transform="translate(800.87 -2083.8)" fill="#ECECEC" xlink:href="#b"/>
<use transform="translate(807.18 -2106.6)" fill="#ECECEC" xlink:href="#a"/>
<use transform="translate(800.87 -2093.9)" fill="#ECECEC" xlink:href="#s"/>
<use transform="translate(772.6 -2083.8)" fill="#ECECEC" xlink:href="#r"/>
<use transform="translate(765.24 -2097.2)" fill="#ECECEC" xlink:href="#q"/>
<use transform="translate(764 -2106.6)" fill="#ECECEC" xlink:href="#p"/>
<use transform="translate(783.16 -2113.7)" fill="#ECECEC" xlink:href="#o"/>
<use transform="translate(781.19 -2122.1)" fill="#ECECEC" xlink:href="#n"/>
<use transform="translate(789.79 -2113.4)" fill="#ECECEC" xlink:href="#m"/>
<use transform="translate(786.06 -2131)" fill="#ECECEC" xlink:href="#l"/>
<use transform="translate(805.22 -2101.1)" fill="#ECECEC" xlink:href="#k"/>
<use transform="translate(765.24 -2097.1)" fill="#ECECEC" xlink:href="#j"/>
</g>
<defs>
<path id="t" d="m1.8167 1.0447c0.55166 0.02615 1.0201-0.39987 1.0462-0.95153 0.02616-0.55167-0.39986-1.0201-0.95152-1.0462l-0.0947 1.9978zm-1.8167-1.9989c-0.55228 0-1 0.44772-1 1 0 0.55228 0.44772 1 1 1v-2zm1.9114 0.001122c-0.54748-0.025945-0.88244-0.039262-1.0858-0.04431-0.15949-0.00394-0.35152-0.00898-0.51606 0.023778-0.14218 0.028308-0.26124 0.085544-0.23053 0.07244 0.075005-0.032 0.1451-0.048948 0.19412-0.056343 0.008163-0.002282-0.043528 0.003741-0.27319 0.003313v2c0.25006 0 0.43287-0.00478 0.57148-0.02568 0.10242-0.01545 0.1976-0.04126 0.29242-0.081717 0.050538-0.021561-0.05396 0.027622-0.16378 0.049486-0.099812 0.019871-0.15592 0.008384 0.076178 0.014111 0.18824 0.00462 0.50052 0.01708 1.0404 0.04268l0.0947-1.9978z"/>
<path id="i" d="m0.13902-0.99029c-0.54692-0.07678-1.0525 0.30434-1.1293 0.85126-0.07678 0.54692 0.30434 1.0525 0.85126 1.1293l0.27805-1.9806zm11.081 7.5882c0 0.55228 0.4477 1 1 1s1-0.44772 1-1h-2zm-11.359-5.6077c3.9818 0.559 6.9003 1.4378 8.7933 2.4874 1.9102 1.0591 2.5658 2.1584 2.5658 3.1203h2c0-2.0278-1.4155-3.6604-3.596-4.8694-2.1976-1.2184-5.3892-2.1438-9.4851-2.7188l-0.27805 1.9806z"/>
<path id="h" d="m16.949 0.99763c0.551-0.038014 0.9668-0.51548 0.9288-1.0665-0.038-0.55097-0.5155-0.96681-1.0665-0.9288l0.1377 1.9953zm-17.949 5.9096c0 0.55228 0.44772 1 1 1s1-0.44772 1-1h-2zm17.812-7.9048c-5.2944 0.3674-9.6714 1.2521-12.674 2.4826-1.527 0.6316-2.8203 1.4217-3.6731 2.254-0.90146 0.8898-1.4642 1.9568-1.4642 3.1682h2c0-0.54114 0.23987-1.1237 0.86916-1.7448 0.67792-0.67866 1.6436-1.261 3.0292-1.8278 2.8225-1.1663 6.8857-1.9827 12.051-2.3369l-0.1377-1.9953z"/>
<path id="g" d="m4.9586 5.4825c0.52268 0.17839 1.091-0.1007 1.2694-0.62338 0.17839-0.52268-0.10071-1.091-0.62339-1.2694l-0.64602 1.8928zm-3.9586-5.4825c0-0.55228-0.44772-1-1-1s-1 0.44772-1 1h2zm4.6046 3.5897c-1.7518-0.59792-2.9349-1.2414-3.6638-1.8803-0.70985-0.62227-0.94075-1.1914-0.94075-1.7094h-2c0 1.2346 0.59758 2.315 1.6224 3.2133 1.0057 0.88165 2.4634 1.63 4.3362 2.2692l0.64602-1.8928z"/>
<path id="f" d="m0.25056 1.0896c0.54484 0.09039 1.0598-0.278 1.1502-0.82284 0.09039-0.54484-0.278-1.0598-0.82284-1.1502l-0.32735 1.973zm-0.009061-2.06c-0.53594-0.13338-1.0785 0.19296-1.2119 0.7289-0.13338 0.53594 0.19296 1.0785 0.7289 1.2119l0.48301-1.9408zm0.33641 0.086979c-0.082658-0.013701-0.1463-0.023589-0.18595-0.029217-0.024081-0.003373-0.055508-0.007273-0.075353-0.009349-0.011734-0.001184-0.039494-0.003882-0.073491-0.005095-0.015372-5.48e-4 -0.051367-0.001581-0.096775 0.00109-0.022545 0.001327-0.062993 0.004409-0.11284 0.01305-0.025629 0.004444-0.061309 0.011643-0.10312 0.023539-0.039826 0.011332-0.10134 0.031436-0.17209 0.066649-0.066928 0.033312-0.17835 0.09791-0.28618 0.21363-0.11618 0.1247-0.23098 0.31374-0.26108 0.56093-0.029484 0.24218 0.034217 0.44264 0.10183 0.57523 0.064407 0.12631 0.14183 0.21167 0.18976 0.25882 0.092457 0.090928 0.18104 0.14187 0.212 0.15925 0.04133 0.023205 0.076087 0.038824 0.096049 0.047384 0.040027 0.017168 0.072739 0.028058 0.087128 0.032738 0.012218 0.00389 0.032731 0.01006 0.041954 0.01268 0.033705 0.00945 0.063582 0.01603 0.076761 0.01889 0.027765 0.00594 0.07298 0.0146 0.10458 0.01992 0.016655 0.00274 0.04414 0.00686 0.063426 0.0094 0.015012 0.00193 0.065094 0.00839 0.12514 0.00969 0.01656 2.4e-4 0.054847-2.3e-4 0.077572-0.00119 0.028183-0.0015 0.086935-0.0056 0.15942-0.02118 0.037201-0.00799 0.093858-0.02232 0.15997-0.04859 0.062072-0.02467 0.16702-0.073327 0.27593-0.16519 0.11433-0.096435 0.25317-0.25891 0.31935-0.49832 0.06757-0.24446 0.03091-0.46608-0.03058-0.6259-0.057-0.14817-0.13657-0.24984-0.18574-0.30524-0.05218-0.058787-0.10141-0.10026-0.13382-0.12552-0.063184-0.049236-0.1187-0.08016-0.14461-0.094035-0.054908-0.029411-0.10147-0.047718-0.11929-0.054618-0.042303-0.016377-0.081538-0.028617-0.10463-0.035632-0.023254-0.007032-0.056992-0.016723-0.088858-0.025471-0.05861-0.016034-0.1444-0.038323-0.25289-0.065336l-0.48301 1.9408c0.098632 0.024533 0.16171 0.0409 0.20747 0.05346 0.056615 0.01551 0.039537 0.01265-1.244e-4 -0.00271-0.010542-0.00408-0.051741-0.02002-0.10299-0.047474-0.024079-0.012897-0.078198-0.042945-0.14038-0.091402-0.031914-0.024868-0.080749-0.065972-0.13262-0.12442-0.048861-0.055049-0.12822-0.15641-0.18511-0.30428-0.061376-0.15953-0.098016-0.38087-0.030512-0.62508 0.066107-0.23916 0.20479-0.4014 0.31888-0.49763 0.10866-0.091654 0.21328-0.14013 0.27494-0.16463 0.065696-0.026108 0.12185-0.04029 0.15848-0.048159 0.07133-0.015328 0.12861-0.019265 0.15502-0.020663 0.031008-0.001642 0.056023-0.001467 0.071418-0.001133 0.030291 6.55e-4 0.053157 0.002649 0.062528 0.00352-0.006955-7e-4 0.026758 0.002965 0.023673 0.002595-0.003205-4.77e-4 0.012083 0.001781 0.00932 0.001297-0.00723-0.001122-0.011664-0.002319-0.007875-0.00142-3.77e-4 -9.2e-5 0.011674 0.002681 0.009204 0.002109 0.003903 9.31e-4 0.014891 0.003579 0.029834 0.007769 0.001722 4.82e-4 0.055018 0.014657 0.11936 0.042252 0.019459 0.008345 0.053794 0.023761 0.094788 0.046778 0.030617 0.01719 0.11895 0.067958 0.21124 0.15873 0.047854 0.047062 0.12521 0.13235 0.18958 0.25858 0.06758 0.13252 0.13127 0.33291 0.10179 0.57503-0.03008 0.24713-0.14485 0.4361-0.26098 0.56074-0.10777 0.11566-0.21912 0.18021-0.28594 0.21347-0.12786 0.063641-0.23861 0.083741-0.27431 0.089931-0.04945 0.00858-0.089405 0.01161-0.11136 0.0129-0.044218 0.0026-0.078617 0.00156-0.09196 0.00109-0.029939-0.00107-0.051909-0.00333-0.055906-0.00373-0.012096-0.00122-0.015884-0.00194-0.003852-2.4e-4 0.025888 0.00364 0.065803 0.00986 0.13848 0.02193l0.32735-1.973z"/>
<path id="e" d="m33.311 7.8654e-7c0-0.55228-0.4477-1-1-1-0.5522 0-1 0.44772-1 1h2zm-33.122 5.4098c-0.54231-0.10449-1.0666 0.25044-1.1711 0.79275s0.25044 1.0666 0.79274 1.1711l0.37839-1.9639zm31.122-5.4098c0 0.51417-0.335 1.1883-1.3771 1.9608-1.0618 0.79373-2.5721 1.4877-4.5633 2.1109-4.0243 1.2673-9.5438 2.0441-15.739 2.0417v2c6.3354-0.00245 12.156-0.82354 16.338-2.1336 2.1124-0.66552 3.9225-1.505 5.1552-2.4123 1.2525-0.92849 2.186-2.1229 2.186-3.5675h-2zm-21.68 6.1134c-4.0172 2.4e-4 -6.3042-0.09628-9.4419-0.70359l-0.37839 1.9639c3.283 0.62981 5.7598 0.73948 9.8203 0.73971v-2z"/>
<path id="d" d="m30.326 13.367c0.5502-0.0476 0.9576-0.5323 0.91-1.0825s-0.5323-0.9577-1.0825-0.91l0.1725 1.9925zm-7.5426-0.5839-0.0082 1h0.0082v-1zm-13.942-11.814c0.53532-0.13584 0.85916-0.67992 0.72333-1.2152-0.13584-0.53532-0.67992-0.85916-1.2152-0.72332l0.49191 1.9386zm21.312 10.406c-2.3801 0.206-4.8225 0.4095-7.3701 0.4086v2c2.6304-8e-4 5.1589-0.2098 7.5426-0.4161l-0.1725-1.9925zm-7.3619 0.4086c-6.2517-0.0488-11.802-0.8261-15.839-2.0935-1.9976-0.62317-3.5094-1.3163-4.5714-2.1153-1.037-0.7735-1.3811-1.4604-1.3811-2.0077h-2c0 1.463 0.92451 2.6704 2.1853 3.6108 1.2357 0.91494 3.0508 1.7553 5.1697 2.4208 4.1957 1.3099 10.037 2.1305 16.42 2.1848l0.0164-2zm-21.792-6.2165c0-0.60495 0.44931-1.4001 1.8514-2.2861 1.4029-0.89227 3.406-1.6577 5.9901-2.3116l-0.49191-1.9386c-2.6975 0.68629-4.9922 1.5703-6.5666 2.5595-1.5753 0.99546-2.783 2.3137-2.783 3.9768h2z"/>
<path id="c" d="m2.5198 0.9704c0.53594-0.13338 0.86228-0.67597 0.7289-1.2119s-0.67597-0.86228-1.2119-0.7289l0.48301 1.9408zm-2.7285-1.4329c-0.54013 0.11522-0.88459 0.64649-0.76937 1.1866 0.11522 0.54013 0.64649 0.88459 1.1866 0.76937l-0.41725-1.956zm2.2454-0.50787c-1.2231 0.30439-0.79107 0.19762-2.2454 0.50787l0.41725 1.956c1.4453-0.30831 1.0488-0.20889 2.3112-0.52306l-0.48301-1.9408z"/>
<path id="b" d="m0.25057-0.9681c-0.53467-0.13838-1.0803 0.18286-1.2187 0.71753-0.13839 0.53467 0.18286 1.0803 0.71753 1.2187l0.50114-1.9362zm2.3876 10.346c-0.51416 0.20163-0.76751 0.78189-0.56588 1.2961 0.20163 0.5141 0.7819 0.7675 1.2961 0.5658l-0.73018-1.8619zm-2.8887-8.4102c2.5347 0.65438 4.5418 1.4214 5.9592 2.3149 1.4264 0.89359 1.8869 1.6895 1.8869 2.284h2c0-1.6735-1.2483-2.991-2.8251-3.9789-1.5858-0.98798-3.8765-1.8704-6.5198-2.5562l-0.50114 1.9362zm7.8461 4.5989c0 0.43848-0.27548 1.0339-1.15 1.7536-0.89161 0.74005-2.1525 1.4106-3.8074 2.0577l0.73018 1.8619c1.7627-0.693 3.2979-1.5174 4.348-2.3753 1.0672-0.87826 1.8791-1.9838 1.8791-3.2979h-2z"/>
<path id="a" d="m-0.93475 12.428c-0.19623 0.5163 0.063208 1.0938 0.57946 1.2901 0.51625 0.1962 1.0938-0.0632 1.29-0.5795l-1.8695-0.7106zm4.2131-12.428c0-0.55228-0.44771-1-1-1-0.55228 0-1 0.44772-1 1h2zm-2.3436 13.139c1.4772-3.8971 2.3391-8.4052 2.3436-13.139h-2c0.00447 4.5448-0.7906 8.6964-2.2131 12.428l1.8695 0.7106z"/>
<path id="s" d="m-0.71926 9.4084c-0.3837 0.39723-0.37272 1.0303 0.024526 1.414 0.39724 0.3836 1.0303 0.3727 1.414-0.0246l-1.4385-1.3894zm7.966-9.0398c0.20358-0.5134-0.04758-1.0946-0.56098-1.2982-0.51339-0.20357-1.0946 0.047584-1.2982 0.56098l1.8592 0.73721zm-6.5275 10.429c2.6587-2.7607 4.9377-6.4306 6.5275-10.429l-1.8592-0.73721c-1.517 3.8364-3.5876 7.1768-6.1069 9.777l1.4385 1.3894z"/>
<path id="r" d="m28.987 0.69948c0.3864-0.39469 0.3796-1.0278-0.0151-1.4141-0.3947-0.38631-1.0278-0.37952-1.4142 0.015166l1.4293 1.399zm-28.263-1.3894c-0.38102-0.3998-1.014-0.41503-1.4138-0.034008-0.3998 0.38102-0.41503 1.014-0.034008 1.4138l1.4478-1.3798zm26.833-0.009585c-3.7818 3.8638-8.4027 6.0912-13.473 6.0912v2c5.6999 0 10.814-2.5149 14.902-6.6923l-1.4293-1.399zm-13.473 6.0912c-5.0718 0-9.688-2.2283-13.36-6.0816l-1.4478 1.3798c3.9911 4.1879 9.1096 6.7019 14.808 6.7019v-2z"/>
<path id="q" d="m6.6473 14.111c0.39141 0.3896 1.0246 0.3882 1.4142-0.0032s0.38821-1.0246-0.0032-1.4142l-1.411 1.4174zm-5.6774-14.354c-0.13452-0.53565-0.6778-0.86083-1.2135-0.72631-0.53565 0.13452-0.86083 0.6778-0.72631 1.2135l1.9398-0.48714zm7.0884 12.937c-3.3259-3.2973-5.7824-7.7012-7.0884-12.937l-1.9398 0.48714c1.3866 5.4859 4.1081 10.36 7.6172 13.867l1.411-1.4174z"/>
<path id="p" d="m1 7.8654e-7c0-0.55228-0.44772-1-1-1s-1 0.44772-1 1h2zm-0.72096 9.7516c0.14749 0.53221 0.6985 0.84411 1.2307 0.69661 0.53223-0.1475 0.84413-0.69848 0.69664-1.2307l-1.9274 0.5341zm-1.279-9.7516c0.002076 3.3634 0.4341 6.6931 1.279 9.7516l1.9274-0.5341c-0.81203-2.9209-1.2085-5.9829-1.2064-9.2175h-2z"/>
<path id="o" d="m-0.38657 2.5829c-0.50935 0.2135-0.74919 0.79948-0.53569 1.3088 0.2135 0.50935 0.79948 0.74919 1.3088 0.5357l-0.77313-1.8445zm3.3542-2.5829c0-0.55229-0.44772-1-1-1-0.55229 0-1 0.44771-1 1h2zm-2.9676 3.5052c0.38657 0.92226 0.38704 0.92206 0.38751 0.92186 1.7e-4 -7e-5 6.55e-4 -2.8e-4 9.94e-4 -4.2e-4 3.7e-4 -1.5e-4 0.00139-5.9e-4 0.00213-9e-4 8.61e-4 -3.6e-4 0.003094-0.00132 0.004819-0.00205 0.002208-9.5e-4 0.007432-0.00321 0.011843-0.00514 0.006311-0.00277 0.019711-0.00876 0.032193-0.01447 0.019854-0.00914 0.057792-0.02719 0.095997-0.0464 0.065832-0.03336 0.18087-0.09586 0.29889-0.16849 0.2136-0.13314 0.55548-0.38324 0.86409-0.69327 0.63834-0.65218 1.2692-1.6916 1.2692-3.1866h-2c0 0.87615-0.35298 1.4347-0.69847 1.7876-0.1833 0.19255-0.33333 0.29682-0.48867 0.39243-0.066449 0.04173-0.10513 0.06219-0.1469 0.08319-0.015598 0.00797-0.019934 0.00996-0.028903 0.01406-0.001929 9e-4 -0.001847 8.3e-4 -7.13e-4 3.4e-4 -6.87e-4 2.9e-4 0.003722-0.00161 0.003406-0.00148-7.8e-4 3.3e-4 0.003069-0.00131 0.002684-0.00114-5.02e-4 2.1e-4 0.001842-7.8e-4 0.001592-6.8e-4 2.79e-4 -1.1e-4 7.2e-4 -3e-4 8.6e-4 -3.6e-4 4.47e-4 -1.8e-4 9.02e-4 -3.8e-4 0.38747 0.92189zm2.9676-3.1959v-0.30928h-2v0.30928h2z"/>
<path id="n" d="m2.5514 0.87714c0.48443-0.26523 0.66213-0.87295 0.39689-1.3574-0.26523-0.48443-0.87295-0.66212-1.3574-0.39689l0.96049 1.7543zm0.39501 7.7255c0.08229 0.54612 0.59171 0.92212 1.1378 0.83983 0.54612-0.08228 0.92213-0.59171 0.83984-1.1378l-1.9777 0.298zm-0.87525-8.6026c-0.48025-0.87713-0.4806-0.87694-0.48096-0.87674-1.3e-4 7.2e-5 -5e-4 2.75e-4 -7.6e-4 4.19e-4 -3e-4 1.61e-4 -0.00109 5.96e-4 -0.00167 9.2e-4 -7.2e-4 3.95e-4 -0.00249 0.001377-0.00393 0.002173-0.00193 0.001077-0.00626 0.003498-0.01012 0.005674-0.00585 0.003304-0.01754 0.009979-0.02906 0.016676-0.01923 0.011212-0.05402 0.031954-0.09077 0.054764-0.06563 0.040895-0.17514 0.11257-0.29158 0.19626-0.21623 0.15652-0.54926 0.42852-0.8574 0.75473-0.62114 0.66471-1.305 1.7217-1.305 3.1441h2c0-0.74256 0.35178-1.335 0.76625-1.7786 0.20966-0.22791 0.39444-0.37473 0.56656-0.49849 0.07773-0.056446 0.13003-0.090282 0.17768-0.11986 0.01988-0.012427 0.02959-0.018163 0.0407-0.02462 0.00365-0.002137 0.00359-0.002094 0.00558-0.003214 6e-5 -3.5e-5 -0.00119 6.67e-4 -0.00125 6.97e-4 4.4e-4 -2.42e-4 -0.00189 0.001045-0.00167 9.27e-4 3.3e-4 -1.86e-4 -0.00128 7.01e-4 -0.00111 6.09e-4 -2e-4 1.09e-4 -5.2e-4 2.86e-4 -6.2e-4 3.41e-4 -3.3e-4 1.8e-4 -6.7e-4 3.65e-4 -0.48091-0.87677zm-3.0712 3.299c0 0.83156 0.37141 1.5011 0.79905 2.0208 0.40711 0.48787 0.94241 0.94068 1.4188 1.3305 0.47636 0.38973 0.90442 0.72916 1.2339 1.0934 0.31809 0.34739 0.45879 0.6211 0.49464 0.85899l1.9777-0.298c-0.11949-0.79305-0.54837-1.4214-0.99727-1.9116-0.43749-0.47341-0.97383-0.90717-1.4425-1.2906-0.46856-0.38336-0.85882-0.70375-1.141-1.0535-0.26168-0.31798-0.34335-0.5505-0.34335-0.74987h-2z"/>
<path id="m" d="m4.718 0.14205c0.07846-0.54668-0.30112-1.0535-0.84781-1.1319-0.54668-0.078451-1.0534 0.30112-1.1319 0.84781l1.9797 0.2841zm-5.1033 3.8836c-0.50966 0.21276-0.75034 0.7984-0.53758 1.308 0.21276 0.50966 0.7984 0.75034 1.3081 0.53758l-0.77048-1.8456zm3.1236-4.1677c-0.19239 1.5622-0.9395 2.5089-1.74 3.2284-0.3782 0.34633-0.71226 0.56796-0.99612 0.73464-0.13213 0.07821-0.22645 0.12709-0.30479 0.16556-0.03454 0.01707-0.054628 0.02636-0.073514 0.03489-0.007203 0.00327-0.009356 0.00421-0.013179 0.00587-8.11e-4 3.6e-4 -6.51e-4 2.8e-4 -2.13e-4 9e-5 -3.26e-4 1.4e-4 0.001707-7.2e-4 0.001549-6.5e-4 -3.5e-4 1.5e-4 0.00137-5.8e-4 0.001196-5e-4 2.22e-4 -1e-4 5.92e-4 -2.5e-4 7.04e-4 -3e-4 3.81e-4 -1.6e-4 7.75e-4 -3.2e-4 0.38601 0.92249 0.38524 0.92282 0.38566 0.92265 0.38609 0.92247 1.6e-4 -7e-5 6.04e-4 -2.6e-4 9.24e-4 -3.9e-4 3.69e-4 -1.6e-4 0.001333-5.6e-4 0.002072-8.7e-4 9.36e-4 -4e-4 0.003165-0.00134 0.005036-0.00214 0.002652-0.00113 0.008302-0.00355 0.013581-0.00584 0.008357-0.00364 0.024294-0.01067 0.040731-0.01809 0.028394-0.01286 0.077784-0.03589 0.13204-0.06252 0.099249-0.04891 0.25979-0.13292 0.43672-0.23674 0.33426-0.19736 0.83516-0.5363 1.3243-0.97606 0.93417-0.85268 2.0511-2.3802 2.3766-4.4262l-1.9797-0.2841z"/>
<path id="l" d="m6.4564 17.629c0 0.5523 0.44771 1 1 1 0.55228 0 1-0.4477 1-1h-2zm-1.9451-16.748c0.48677-0.26092 0.66985-0.86704 0.40893-1.3538-0.26092-0.48676-0.86704-0.66984-1.3538-0.40893l0.94487 1.7627zm3.9451 16.748c-0.00344-0.0718 0.01318-0.1504 0.04005-0.3241 0.0267-0.1729 0.06097-0.4295 0.06351-0.7069h-2c0.00254 0.135-0.01497 0.2392-0.04005 0.4014-0.02491 0.1614-0.06007 0.3921-0.06351 0.6296h2zm0.10356-1.031c0-1.3992-0.61785-2.5471-1.4142-3.4992-0.77397-0.918-1.7923-1.7502-2.7389-2.5118-0.94661-0.76166-1.8235-1.4557-2.4684-2.2098-0.62483-0.72426-0.9384-1.3891-0.9384-2.0884h-2c0 1.3626 0.63142 2.4761 1.4241 3.3948 0.77253 0.88889 1.7857 1.7026 2.729 2.4616 0.94338 0.759 1.815 1.4603 2.4586 2.2368 0.62113 0.7426 0.94827 1.4504 0.94827 2.216h2zm-7.5599-10.309c0-1.7138 0.836-3.0513 1.7424-3.9999 0.45523-0.4799 0.88562-0.81787 1.2422-1.0692 0.17002-0.1204 0.29929-0.20263 0.40078-0.26437 0.04684-0.028577 0.07777-0.046551 0.10332-0.061104 0.01089-0.006217 0.0164-0.009285 0.02213-0.012447 0.00193-0.001072 0.00201-0.001111 0.00302-0.001659 4e-5 -2.5e-5 -5.6e-4 3e-4 -5.9e-4 3.15e-4 2.2e-4 -1.15e-4 -9.3e-4 5.02e-4 -8.2e-4 4.45e-4 -1.7e-4 9e-5 -4.6e-4 2.49e-4 -5.5e-4 2.94e-4 -3.1e-4 1.67e-4 -6.4e-4 3.42e-4 -0.47307-0.88102-0.47244-0.88136-0.4728-0.88117-0.47317-0.88097-1.5e-4 7.8e-5 -5.3e-4 2.87e-4 -8.2e-4 4.43e-4 -3.6e-4 1.89e-4 -0.00123 6.59e-4 -0.00193 0.001039-9.5e-4 5.13e-4 -0.00307 0.001661-0.00497 0.002693-0.00287 0.001565-0.00859 0.004693-0.0143 0.007843-0.00955 0.005283-0.02672 0.014875-0.04542 0.025522-0.03361 0.019173-0.08945 0.051738-0.15305 0.090414-0.11938 0.072761-0.30564 0.19188-0.51427 0.33888-0.4007 0.28343-0.98002 0.74443-1.5345 1.3212-1.113 1.1648-2.2964 2.9717-2.2964 5.3816h2z"/>
<path id="k" d="m0.24732 10.587c-0.53513-0.1366-1.0797 0.1865-1.2163 0.7216-0.1366 0.5351 0.18648 1.0797 0.72161 1.2163l0.49464-1.9379zm10.419-9.0311 0.7178-0.69622-4e-4 -4.26e-4 -0.7174 0.69664zm-7.5645-1.4713c-0.47095 0.2885-0.61884 0.90415-0.33034 1.3751 0.2885 0.47094 0.90415 0.61884 1.3751 0.33034l-1.0448-1.7054zm-3.1022 11.471c-0.24732 0.969-0.24705 0.969-0.24676 0.9691 1.17e-4 0 4.22e-4 1e-4 6.55e-4 2e-4 2.96e-4 1e-4 9.99e-4 2e-4 0.001591 4e-4 8.38e-4 2e-4 0.002619 7e-4 0.004295 0.0011 0.002658 6e-4 0.007707 0.0019 0.013 0.0032 0.009184 0.0023 0.02512 0.0061 0.043253 0.0104 0.033393 0.0079 0.087754 0.0204 0.15242 0.0344 0.12333 0.0266 0.31515 0.0651 0.54387 0.1041 0.4445 0.0752 1.107 0.1631 1.8494 0.1982 1.4571 0.0655 3.4943-0.0987 5.2295-0.9413l-0.8912-1.7905c-1.3716 0.7039-2.9072 0.7974-4.2462 0.734-0.65566-0.0293-1.197-0.1025-1.6069-0.1722-0.19847-0.0336-0.34646-0.0635-0.45613-0.0872-0.051841-0.0112-0.087287-0.0194-0.11457-0.0258-0.012207-0.0029-0.019329-0.0046-0.025619-0.0062-0.002443-6e-4 -0.003235-8e-4 -0.004483-0.0011-2.78e-4 -1e-4 -2.52e-4 -1e-4 -1.09e-4 0-1.01e-4 -1e-4 5.35e-4 1e-4 4.85e-4 1e-4 1.11e-4 0 3.23e-4 1e-4 3.79e-4 1e-4 2.26e-4 0 4.69e-4 1e-4 -0.24685 0.969zm7.5913 0.3798c1.7645-0.8783 3.5258-2.6721 4.4711-4.6682 0.9501-2.0063 1.177-4.4953-0.6779-6.4077l-1.4356 1.3924c1.0449 1.0773 1.0646 2.5574 0.30601 4.1593-0.76347 1.6121-2.2126 3.0657-3.5548 3.7338l0.8912 1.7905zm3.7928-11.076c-1.7978-1.8515-3.9298-2.0266-5.5298-1.7587-0.77827 0.13423-1.4917 0.38411-1.9479 0.58034-0.23808 0.10315-0.44342 0.20525-0.57053 0.27251-0.06805 0.036124-0.12736 0.069214-0.16227 0.089199-0.01957 0.011224-0.03762 0.021798-0.04748 0.027644-0.00595 0.003533-0.01198 0.0071436-0.01495 0.0089376-0.00199 0.0012006-0.00424 0.0025639-0.00523 0.0031672-7.5e-4 4.531e-4 -0.00168 0.0010213-0.00205 0.0012482-3.1e-4 1.89e-4 -7.3e-4 4.444e-4 -8.9e-4 5.389e-4 -4e-4 2.455e-4 -7.8e-4 4.818e-4 0.52159 0.8532 0.52238 0.85272 0.52203 0.85294 0.52169 0.85314-1e-4 6e-5 -4.2e-4 2.6e-4 -6.1e-4 3.7e-4 1.3e-4 -7e-5 -0.0012 7.3e-4 -9.4e-4 5.8e-4 1e-5 -1e-5 -8.7e-4 5.3e-4 -8.3e-4 5e-4 -9.3e-4 5.6e-4 7.4e-4 -4.5e-4 0.00252-0.0015 0.00561-0.00333 0.01061-0.00627 0.02135-0.01242 0.02572-0.01475 0.05612-0.03179 0.10437-0.05728 0.10549-0.05597 0.23915-0.123 0.42664-0.20349 0.39501-0.17104 0.87897-0.34641 1.4858-0.44414 1.1702-0.19597 2.5593-0.06185 3.7647 1.1794l1.4348-1.3933z"/>
<path id="j" d="m41.524 4.2076c0.5018 0.23057 1.0956 0.01066 1.3261-0.49119 0.2306-0.50185 0.0107-1.0956-0.4911-1.3262l-0.835 1.8174zm-40.819-4.9164c-0.39141-0.38964-1.0246-0.38821-1.4142 0.0032-0.38964 0.39141-0.3882 1.0246 0.0032 1.4142l1.411-1.4174zm41.236 4.0077c0.4175-0.90868 0.4171-0.90883 0.4168-0.90899-1e-4 -6e-5 -5e-4 -2.3e-4 -8e-4 -3.5e-4 -3e-4 -1.6e-4 -0.0011-5.3e-4 -0.0018-8.4e-4 -9e-4 -4.1e-4 -0.0029-0.00133-0.0048-0.00216-0.0028-0.00127-0.0083-0.00375-0.0139-0.00627-0.0096-0.00428-0.0266-0.01177-0.0458-0.02008-0.0349-0.0151-0.0927-0.03952-0.1624-0.06783-0.1326-0.05368-0.3424-0.13477-0.606-0.22723-0.5126-0.17938-1.3034-0.42638-2.3148-0.66706-1.9911-0.47183-5.0061-0.95172-8.8653-0.95486v2c3.7007-0.00315 6.4851 0.4448 8.4034 0.90081 0.9433 0.22324 1.6348 0.44015 2.1157 0.60871 0.2331 0.0815 0.3979 0.14539 0.5158 0.19319 0.0554 0.02244 0.0918 0.03788 0.1197 0.04996 0.0123 0.00529 0.0189 0.00821 0.025 0.01096 0.0023 9.9e-4 0.0027 0.00117 0.0038 0.00168 1e-4 6e-5 -3e-4 -1.1e-4 -3e-4 -1.5e-4 1e-4 8e-5 -8e-4 -3.6e-4 -8e-4 -3.2e-4 -1e-4 -7e-5 -4e-4 -1.9e-4 -4e-4 -2.3e-4 -3e-4 -1.3e-4 -6e-4 -2.6e-4 0.4169-0.90894zm-11.599-2.8557c-7.9415 0.075688-11.67 3.787-18.848 3.7113v2c7.9416-0.07569 11.67-3.787 18.848-3.7113v-2zm-18.848 3.7113c-6.9814 0-10.531-4.6054-10.79-4.8633l-1.411 1.4174c-0.012893-0.010585 0.29446 0.36212 0.84187 0.89921 0.52524 0.51226 1.3297 1.2114 2.3424 1.8816 1.9886 1.3065 5.0831 2.6438 9.0164 2.6651v-2z"/>
</defs>
</svg>
