<svg width="28" height="28" viewBox="0 0 28 28" version="1.1" xmlns="http://www.w3.org/2000/svg" xmlns:xlink="http://www.w3.org/1999/xlink">
<title>eth</title>
<desc>Created using Figma</desc>
<g id="Canvas" transform="translate(-406 -1036)">
<g id="eth">
<g id="Vector">
<use xlink:href="#path0_fill" transform="translate(406 1036)" fill="#515B85"/>
</g>
</g>
</g>
<defs>
<path id="path0_fill" d="M 14 0C 6.26802 0 0 6.26802 0 14C 0 21.732 6.26802 28 14 28C 21.732 28 28 21.732 28 14C 28 6.26802 21.732 0 14 0ZM 13.8185 23.2754L 8.28586 15.4491L 13.8185 18.6884L 13.8185 23.2754ZM 13.8185 17.5414L 8.24843 14.2786L 13.8185 11.8387L 13.8185 17.5414ZM 13.8185 11.4467L 8.42782 13.8078L 13.8185 4.75068L 13.8185 11.4467ZM 14.1775 4.74796L 19.644 13.8414L 14.1775 11.4467L 14.1775 4.74796ZM 14.1775 23.2754L 14.1775 18.6884L 19.7102 15.4491L 14.1775 23.2754ZM 14.1775 17.5415L 14.1775 11.8388L 19.7517 14.2805L 14.1775 17.5415Z"/>
</defs>
</svg>
