<svg xmlns="http://www.w3.org/2000/svg" width="29" height="28" viewBox="0 0 29 28">
    <path fill="#FFF" fill-rule="nonzero" d="M13.459.132c-.98.025-1.966.171-2.935.42C3.317 2.41-1.059 9.923.75 17.323c1.808 7.398 9.127 11.89 16.334 10.034 7.207-1.856 11.583-9.37 9.774-16.769a.353.353 0 0 0-.239-.283.34.34 0 0 0-.354.094.363.363 0 0 0-.075.367c1.717 7.027-2.434 14.141-9.279 15.905-6.845 1.763-13.775-2.498-15.492-9.526C-.3 10.117 3.852 3.003 10.697 1.24a12.51 12.51 0 0 1 10.638 2.116.34.34 0 0 0 .446-.098.362.362 0 0 0-.036-.467A13.256 13.256 0 0 0 13.459.132zm14.834 2.115a.342.342 0 0 0-.237.122c-3.783 4.063-10.08 11.194-13.928 15.34l-5.621-5.095a.34.34 0 0 0-.35-.092.359.359 0 0 0-.103.624l5.869 5.316a.339.339 0 0 0 .474-.022C18.241 14.312 24.724 6.97 28.552 2.857a.361.361 0 0 0 .077-.397.345.345 0 0 0-.336-.213z"/>
</svg>
