<svg xmlns="http://www.w3.org/2000/svg" width="201" height="297" viewBox="0 0 201 297">
    <defs>
        <linearGradient id="a" x1="57.055%" x2="-8.692%" y1="-24.518%" y2="100%">
            <stop offset="0%" stop-color="#FCFDFE"/>
            <stop offset="100%" stop-color="#E1F4EE"/>
        </linearGradient>
        <linearGradient id="b" x1="50%" x2="50%" y1="0%" y2="100%">
            <stop offset="0%" stop-color="#5E5E5E"/>
            <stop offset="100%" stop-color="#DADADA"/>
        </linearGradient>
    </defs>
    <g fill="none" fill-rule="evenodd" opacity=".9">
        <g transform="translate(.227 86.195)">
            <rect width="130.007" height="130.007" x=".367" y=".188" fill="url(#a)" opacity=".7" rx="6.93"/>
            <path fill="url(#b)" fill-rule="nonzero" d="M22.603 0l22.6 36.838-22.6-10.099V0zm0 0v26.74L0 36.837 22.603 0zm0 49.96V26.746l22.6 10.093-22.6 13.123zM0 36.839l22.603-10.093v23.216L0 36.838zm22.603 17.328l22.616-13.12-22.616 31.289V54.166zm0 18.169L0 41.047l22.603 13.116v18.172z" opacity=".5" transform="translate(42.695 28.91)"/>
        </g>
        <g transform="translate(94.307 33.3)">
            <rect width="81.972" height="81.972" x=".044" y=".356" fill="url(#a)" opacity=".7" rx="8.316"/>
            <path fill="url(#b)" fill-rule="nonzero" d="M55.802 37.49c.618-4.13-2.527-6.351-6.827-7.833l1.395-5.596-3.407-.848-1.358 5.448c-.895-.223-1.815-.434-2.729-.642l1.368-5.485-3.404-.848-1.396 5.593a113.95 113.95 0 0 1-2.175-.51l.004-.018-4.698-1.173-.906 3.638s2.527.579 2.474.615c1.38.344 1.629 1.257 1.587 1.981l-1.589 6.375c.095.024.218.059.354.113l-.36-.089-2.227 8.93c-.169.42-.597 1.048-1.561.81.034.049-2.476-.619-2.476-.619l-1.69 3.9 4.432 1.104c.824.207 1.632.423 2.428.627l-1.41 5.66 3.403.849 1.396-5.6c.93.252 1.831.485 2.714.704l-1.391 5.574 3.406.849 1.41-5.65c5.808 1.1 10.176.656 12.014-4.597 1.481-4.23-.074-6.67-3.13-8.26 2.226-.514 3.902-1.978 4.35-5.002zM48.02 48.403c-1.053 4.23-8.174 1.944-10.483 1.37l1.87-7.498c2.309.576 9.713 1.717 8.613 6.128zm1.054-10.974c-.96 3.848-6.888 1.893-8.811 1.414l1.696-6.801c1.922.48 8.115 1.374 7.115 5.387z" opacity=".5"/>
        </g>
        <g transform="translate(141.307 149.695)">
            <rect width="43.094" height="43.094" x=".03" y=".343" fill="url(#a)" opacity=".7" rx="6.93"/>
            <path fill="url(#b)" fill-rule="nonzero" d="M21.577 11.749c5.614 0 10.155 4.54 10.155 10.155 0 1.128-.193 2.201-.523 3.22h-3.027v-8.532l-6.605 6.605-6.605-6.605v8.532h-3.027a10.385 10.385 0 0 1-.523-3.22c0-5.614 4.54-10.155 10.155-10.155zm-1.514 12.934l1.541 1.514 1.514-1.514 2.862-2.89v5.367h4.266a10.138 10.138 0 0 1-8.67 4.871c-3.66 0-6.88-1.954-8.668-4.87H17.173v-5.367l2.89 2.89z" opacity=".5"/>
        </g>
        <g transform="translate(157.707 9.025)">
            <rect width="42.534" height="42.534" x=".47" fill="url(#a)" opacity=".7" rx="7.484"/>
            <path fill="url(#b)" fill-rule="nonzero" d="M12.965 10.74c14.144.523 19.6 9.013 16.86 16.59-.775 2.108-1.6 3.262-3.333 4.464.07-.304.143-.609.198-.92 1.026-5.911-.918-13.024-10.423-16.953 7.563 4.502 10.615 12.51 7.088 17.68-6.003.944-10.39-4.183-10.39-10.09V10.74z" opacity=".5"/>
        </g>
        <g transform="translate(20.174 .125)">
            <rect width="64.152" height="64.152" y=".536" fill="url(#a)" opacity=".7" rx="8.316"/>
            <path fill="url(#b)" fill-rule="nonzero" d="M22.02 38.412l-2.575 1 1.241-4.98 2.606-1.046 3.755-15.21h9.255l-2.74 11.18 2.543-1.03-1.227 4.963-2.575 1.03-1.53 6.285h13.934l-1.575 6.444H19.899z" opacity=".5"/>
        </g>
        <g transform="translate(16.156 236)">
            <rect width="61.435" height="60.181" x=".019" y=".291" fill="url(#a)" opacity=".7" rx="7.623"/>
            <path fill="url(#b)" fill-rule="nonzero" d="M40.653 33.524c-.983-.582-2.09-.75-3.187-.79-.92-.033-2.294-.637-2.294-2.352a2.357 2.357 0 0 1 2.294-2.352c1.097-.04 2.204-.208 3.187-.79 2.442-1.444 3.519-4.475 2.555-7.19-.964-2.713-3.692-4.326-6.468-3.824-2.776.501-4.8 2.973-4.8 5.86 0 1.154.4 2.215.91 3.199.43.828.648 2.364-.826 3.235-1.096.649-2.464.238-3.147-.882-.577-.946-1.274-1.833-2.25-2.41-2.44-1.444-5.542-.884-7.354 1.329a6.063 6.063 0 0 0 0 7.65c1.812 2.213 4.913 2.773 7.355 1.329.975-.577 1.672-1.463 2.248-2.408.474-.777 1.657-1.767 3.148-.884 1.095.648 1.433 2.067.826 3.236-.51.984-.91 2.045-.91 3.198 0 2.888 2.024 5.359 4.8 5.86 2.776.502 5.503-1.111 6.468-3.825.964-2.714-.113-5.745-2.555-7.19z" opacity=".5"/>
        </g>
        <g transform="translate(90.727 230.4)">
            <rect width="39.862" height="39.048" x=".759" y=".189" fill="url(#a)" opacity=".7" rx="7.623"/>
            <path fill="url(#b)" fill-rule="nonzero" d="M24.025 12.967a.595.595 0 0 0-.425.18l-7.119 7.267a.595.595 0 0 1-.425.18H14.75a.595.595 0 0 1-.425-.179l-.923-.94a.617.617 0 0 1-.176-.432v-1.33c0-.162.063-.317.176-.432l.923-.94a.595.595 0 0 1 .425-.18h1.305c.16 0 .312.065.425.18l.567.577a.593.593 0 0 0 .85 0l1.368-1.394a.62.62 0 0 0 0-.865l-1.485-1.513a.595.595 0 0 0-.425-.179H13.45a.596.596 0 0 0-.425.18l-2.761 2.81a.617.617 0 0 0-.176.433v3.976c0 .162.063.318.176.432l2.761 2.812c.113.114.266.179.425.179h3.904c.16 0 .313-.065.426-.18l7.118-7.268a.595.595 0 0 1 .425-.18h1.306c.159 0 .312.065.424.18l.923.94c.113.114.176.27.176.432v1.33a.617.617 0 0 1-.176.432l-.923.94a.595.595 0 0 1-.424.18h-1.306a.595.595 0 0 1-.425-.18l-.571-.582a.593.593 0 0 0-.845-.005l-1.689 1.681a.617.617 0 0 0-.18.438v3.9c0 .338.269.612.6.612h1.97c.332 0 .6-.274.6-.611V24.4c0-.337.27-.611.601-.611h2.544c.16 0 .312-.065.425-.18l2.761-2.81a.617.617 0 0 0 .176-.433V16.39a.617.617 0 0 0-.176-.432l-2.761-2.812a.595.595 0 0 0-.425-.179h-3.904z" opacity=".5"/>
        </g>
    </g>
</svg>
