<?xml version="1.0" encoding="UTF-8"?>
<svg width="19px" height="19px" viewBox="0 0 19 19" version="1.1" xmlns="http://www.w3.org/2000/svg" xmlns:xlink="http://www.w3.org/1999/xlink">
    <!-- Generator: Sketch 48.2 (47327) - http://www.bohemiancoding.com/sketch -->
    <title>info-button</title>
    <desc>Created with Sketch.</desc>
    <defs></defs>
    <g id="B_Home_3_Advance" stroke="none" stroke-width="1" fill="none" fill-rule="evenodd" transform="translate(-492.000000, -572.000000)">
        <g id="advance" transform="translate(0.000000, 540.000000)" fill="#FFFFFF">
            <g id="Group-12" transform="translate(354.000000, 25.000000)">
                <g id="info-button" transform="translate(137.915081, 7.086006)">
                    <path d="M9.55104261,18.586866 C4.56069518,18.586866 0.515219268,14.54139 0.515219268,9.55104261 C0.515219268,4.56069518 4.56069518,0.515219268 9.55104261,0.515219268 C14.54139,0.515219268 18.586866,4.56069518 18.586866,9.55104261 C18.586866,14.54139 14.54139,18.586866 9.55104261,18.586866 Z M9.55104261,17.3820895 C13.8760104,17.3820895 17.3820895,13.8760104 17.3820895,9.55104261 C17.3820895,5.22607484 13.8760104,1.71999571 9.55104261,1.71999571 C5.22607484,1.71999571 1.71999571,5.22607484 1.71999571,9.55104261 C1.71999571,13.8760104 5.22607484,17.3820895 9.55104261,17.3820895 Z" id="Combined-Shape"></path>
                    <g id="Group-5" transform="translate(8.425719, 5.163018)">
                        <polygon id="Rectangle-2-Copy-15" transform="translate(1.209263, 5.829517) scale(-1, 1) rotate(90.000000) translate(-1.209263, -5.829517) " points="-1.7477388 5.06914526 4.16626401 5.06914526 4.16626401 6.5898888 -1.7477388 6.5898888"></polygon>
                        <polygon id="Rectangle-2-Copy-20" transform="translate(1.212565, 0.843471) scale(-1, 1) rotate(90.000000) translate(-1.212565, -0.843471) " points="0.452193084 -2.34754824e-13 1.97293662 -1.54829563e-13 1.97293662 1.68694259 0.452193084 1.68694259"></polygon>
                    </g>
                </g>
            </g>
        </g>
    </g>
</svg>