<?xml version="1.0" encoding="UTF-8"?>
<svg width="240px" height="125px" viewBox="0 0 240 125" version="1.1" xmlns="http://www.w3.org/2000/svg" xmlns:xlink="http://www.w3.org/1999/xlink">
    <!-- Generator: Sketch 47.1 (45422) - http://www.bohemiancoding.com/sketch -->
    <title>json</title>
    <desc>Created with Sketch.</desc>
    <defs></defs>
    <g id="Page-1" stroke="none" stroke-width="1" fill="none" fill-rule="evenodd">
        <g id="json" fill-rule="nonzero" fill="#FFFFFF">
            <g id="Stacked-Group" transform="translate(54.000000, 63.000000)">
                <g id="Asset-1" transform="translate(56.000000, 8.000000)">
                    <path d="M3.66896552,28 C2.57835072,27.9753648 1.4909325,27.8721084 0.415172414,27.6910345 L0,27.6717241 L0.0675862069,22.3806897 L0.59862069,22.4386207 C1.56413793,22.5448276 2.24,22.6027586 2.66482759,22.6027586 L2.66482759,22.6027586 C3.14687875,22.6700302 3.63655373,22.5527841 4.03586207,22.2744828 C4.32520668,21.761489 4.44357513,21.1696467 4.3737931,20.5848276 L4.60551724,1.0137931 L11.0165517,1.09103448 L10.7848276,20.5751724 C10.7848276,23.1144828 10.1958621,25.0165517 9.12413793,26.2331034 C8.05241379,27.4496552 6.27586207,28 3.86206897,28 L3.66896552,28 Z" id="Shape"></path>
                    <path d="M0.540689655,22.9213793 C1.5062069,23.0308046 2.21103448,23.0887356 2.65517241,23.0951724 C3.28265887,23.1848997 3.91858174,23.0022037 4.40275862,22.5931034 C4.75401101,21.9892981 4.90287639,21.2889542 4.82758621,20.5944828 L5.07862069,1.5062069 L10.5241379,1.5737931 L10.302069,20.5751724 C10.302069,23.0082759 9.78712644,24.788046 8.75724138,25.9144828 C7.72735632,27.0409195 6.03126437,27.588046 3.66896552,27.5558621 C2.60105322,27.5333208 1.53618594,27.4332879 0.482758621,27.2565517 L0.540689655,22.9213793 Z" id="Shape"></path>
                    <path d="M22.2068966,23.0662069 C20.6199121,23.04736 19.0422788,22.8201288 17.5144828,22.3903448 C16.1285757,22.0414217 14.8191836,21.4391014 13.6524138,20.6137931 L13.3434483,20.382069 L15.4965517,15.6896552 L15.9696552,15.9986207 C16.9184255,16.6198397 17.9483653,17.1071929 19.0303448,17.4468966 C20.0870389,17.7783777 21.1864184,17.9540182 22.2937931,17.9682759 L22.4289655,17.9682759 C23.2179943,18.0089936 24.0062063,17.8737773 24.7365517,17.5724138 C25.3351724,17.2731034 25.4124138,16.9062069 25.4124138,16.6648276 C25.4124138,16.4234483 25.3544828,16.1144828 24.8137931,15.7862069 C23.8665174,15.3250745 22.8588673,15.0000261 21.8206897,14.8206897 C20.2057722,14.5271275 18.6395131,14.010457 17.1668966,13.2855172 C16.1550697,12.792498 15.3069187,12.0180993 14.7241379,11.0551724 C14.2399265,10.1133117 14.0071244,9.06237651 14.0482759,8.00413793 C14.0548811,6.68468604 14.4771856,5.40088038 15.2551724,4.33517241 C16.1006566,3.19870917 17.2480506,2.32227409 18.5668966,1.80551724 C19.9818736,1.22737066 21.4992397,0.941632881 23.0275862,0.965517241 L23.1724138,0.965517241 C24.685048,0.980991705 26.1874941,1.21513916 27.6331034,1.66068966 C28.8923949,2.00856142 30.0660025,2.61344601 31.08,3.43724138 L31.3503448,3.66896552 L29.2551724,8.37103448 L28.7724138,8.02344828 C27.9439174,7.42080599 27.0335704,6.93962255 26.0689655,6.59448276 C25.1382302,6.26550965 24.1595281,6.09260562 23.1724138,6.08275862 L23.1724138,6.08275862 C22.4351874,6.03852838 21.7000794,6.19891558 21.0482759,6.5462069 C20.6317403,6.7558474 20.3672006,7.18060125 20.3627586,7.64689655 C20.350569,7.8442188 20.4164592,8.03842126 20.5462069,8.18758621 C20.8245367,8.44307892 21.1534981,8.63716614 21.5117241,8.75724138 C22.3686325,9.05880294 23.2463536,9.29759471 24.137931,9.47172414 C25.7099532,9.79030629 27.2326946,10.3162852 28.6662069,11.0358621 C29.6697936,11.5320115 30.5155751,12.2975608 31.1089655,13.2468966 C31.6032101,14.1648464 31.8432108,15.1981829 31.8041379,16.24 C31.8480092,18.2696318 30.8684036,20.185305 29.1972414,21.337931 C27.2112321,22.5957518 24.8825372,23.2032374 22.5351724,23.0758621 L22.2068966,23.0662069 Z" id="Shape"></path>
                    <path d="M17.6786207,21.9172414 C16.3646426,21.5808989 15.1240718,21.0048027 14.0193103,20.217931 L15.7765517,16.3558621 C16.7644659,16.9993645 17.8367138,17.5029961 18.9627586,17.8524138 C20.0626932,18.200782 21.2077146,18.3861974 22.3613793,18.4027586 C23.2751774,18.4625829 24.1904482,18.3105885 25.0358621,17.9586207 C25.5497192,17.7391317 25.8885007,17.240268 25.9030363,16.6816865 C25.9175719,16.123105 25.6051945,15.6072967 25.1034483,15.3613793 C24.1096679,14.866769 23.0494548,14.518785 21.9558621,14.3282759 C20.384704,14.0453649 18.8606265,13.5449216 17.4275862,12.8413793 C16.4970435,12.3932859 15.7158197,11.6858256 15.177931,10.8041379 C14.7312697,9.93374112 14.5183409,8.96225355 14.56,7.98482759 C14.56455,6.76652102 14.9530805,5.58065825 15.6703448,4.59586207 C16.4490329,3.55121311 17.5016942,2.7425019 18.7117241,2.25931034 C20.125426,1.67959795 21.64513,1.40328813 23.1724138,1.44827586 C24.6393723,1.4629324 26.0964233,1.69059661 27.497931,2.12413793 C28.6901256,2.4526756 29.8013038,3.02470223 30.7613793,3.80413793 L29.0331034,7.6662069 C28.1458965,7.02850613 27.1700062,6.52429614 26.1365517,6.16965517 C25.1861695,5.81811706 24.1852179,5.62249133 23.1724138,5.59034483 C22.3424076,5.54229853 21.5157146,5.72972692 20.7875862,6.13103448 C20.229417,6.42760358 19.8776641,7.00521883 19.8703448,7.63724138 C19.8573492,7.95591252 19.968054,8.26726976 20.1793103,8.5062069 C20.5173683,8.81997685 20.9191572,9.05709816 21.3572414,9.20137931 C22.204273,9.51044187 23.0722088,9.75888445 23.9544828,9.94482759 C25.4828142,10.2525736 26.9633958,10.7623352 28.3572414,11.4606897 C29.2991029,11.9160642 30.0925457,12.6291583 30.6455172,13.5172414 C31.0985158,14.3581367 31.3185218,15.3048296 31.2827586,16.2593103 C31.3291789,18.1352602 30.4247982,19.9077011 28.8786207,20.9710345 C26.8839548,22.207161 24.5459282,22.7722123 22.2068966,22.5834483 C20.6748461,22.5601896 19.1524533,22.3362128 17.6786207,21.9172414 L17.6786207,21.9172414 Z" id="Shape"></path>
                    <path d="M43.8537931,23.3268966 C41.859112,23.3449913 39.8924563,22.8566494 38.137931,21.9075862 C36.5199648,20.9999359 35.2115893,19.6276552 34.382069,17.9682759 C33.4969402,16.1449083 33.0694373,14.133325 33.1365517,12.1075862 C33.116487,10.0904347 33.597543,8.09985817 34.5365517,6.31448276 C35.4220091,4.69195871 36.7650876,3.36566868 38.3986207,2.50068966 C40.1047717,1.62184097 42.002517,1.18058202 43.9213793,1.21655172 L44.1144828,1.21655172 C46.1063499,1.19627798 48.0704228,1.68480373 49.8206897,2.63586207 C51.4173846,3.52658543 52.7142895,4.87052835 53.5475862,6.49793103 C54.421229,8.3008597 54.8452676,10.2885406 54.7834483,12.2910345 C54.7976085,14.3040743 54.3273719,16.2909895 53.4124138,18.0841379 C52.5456118,19.7327062 51.1989131,21.0794049 49.5503448,21.9462069 C47.8355276,22.8297471 45.9272411,23.271142 43.9986207,23.2303448 L43.8537931,23.3268966 Z M43.9793103,6.32413793 C42.7552474,6.25871339 41.5728102,6.77826909 40.7931034,7.72413793 C39.9037157,9.03442578 39.4788177,10.604849 39.5862069,12.1848276 C39.453264,13.7832056 39.8576171,15.3802302 40.7351724,16.7227586 C41.5029618,17.7161261 42.7057044,18.2742851 43.96,18.2193103 L43.96,18.2193103 C45.2169686,18.2949271 46.4340406,17.76358 47.2331034,16.7903448 C48.1444164,15.4771083 48.5897017,13.8965153 48.497931,12.3006897 C48.6191781,10.7161091 48.200613,9.1371315 47.3103448,7.82068966 C46.532362,6.82940716 45.3252694,6.27256385 44.0662069,6.32413793 L43.9793103,5.79310345 L43.9793103,6.32413793 Z" id="Shape"></path>
                    <path d="M38.3696552,21.4827586 C36.8152889,20.6317532 35.5560392,19.3287328 34.7586207,17.7462069 C33.9067012,15.9955166 33.4956899,14.0631006 33.5613793,12.1172414 C33.5529326,10.1733352 34.0308879,8.25819495 34.9517241,6.5462069 C35.786786,4.99352287 37.0636206,3.72340845 38.6206897,2.89655172 C40.3170388,2.03720513 42.2046771,1.62511507 44.1048276,1.69931034 C46.0152217,1.67432718 47.9000986,2.13972888 49.5793103,3.05103448 C51.0994058,3.90532075 52.3273322,5.19716655 53.1034483,6.75862069 C53.9466848,8.50136773 54.3510679,10.4238446 54.2813793,12.3586207 C54.3017705,14.3038757 53.8512553,16.2251905 52.9682759,17.9586207 C52.1571068,19.5125092 50.894962,20.7847512 49.3475862,21.6082759 C47.6481297,22.4808662 45.7532909,22.9030496 43.8441379,22.8344828 C41.9341393,22.85604 40.0501114,22.3908479 38.3696552,21.4827586 L38.3696552,21.4827586 Z M47.5613793,17.0896552 C48.5540428,15.6831768 49.0376457,13.9803496 48.9324138,12.262069 C49.0780329,10.555344 48.631375,8.85054287 47.6675862,7.43448276 C46.7649984,6.3797128 45.4520232,5.76454987 44.0639084,5.74606632 C42.6757936,5.72758276 41.3469042,6.30756774 40.4165517,7.33793103 C39.4372031,8.72483505 38.9572621,10.4029266 39.0551724,12.097931 C38.9171052,13.8012781 39.3557825,15.5015775 40.3006897,16.9255172 C41.2074806,17.9765615 42.5228294,18.5864004 43.9109203,18.5993386 C45.2990113,18.6122769 46.6254991,18.0270624 47.5517241,16.9931034 L47.5613793,17.0896552 Z" id="Shape"></path>
                    <polygon id="Shape" points="71.342069 23.3944828 62.8262069 12.4841379 62.7006897 23.2882759 56.6662069 23.2110345 56.9172414 1.63172414 61.6 1.68 70.1158621 12.542069 70.2413793 1.7862069 76.3337931 1.8537931 76.0827586 23.4427586"></polygon>
                    <polygon id="Shape" points="70.7241379 2.27862069 75.8510345 2.33655172 75.6 22.96 71.5737931 22.96 62.3627586 11.0937931 62.2275862 22.7958621 57.1586207 22.737931 57.4 2.11448276 61.3682759 2.11448276 70.5793103 13.9131034"></polygon>
                </g>
                <g id="Group-4">
                    <path d="M30.1211348,44.9998946 C29.7704814,44.9998946 29.4689193,44.9998946 29.2515142,44.9711333 L28.9990437,44.9711333 L28.9990437,39.8631305 L29.2655403,39.8631305 C31.8816494,39.7478998 33.9384634,37.9853222 33.9642971,35.8365516 L33.9642971,27.0356007 C33.9573195,25.2396071 35.0004938,23.5497344 36.769525,22.4913189 C35.0004938,21.4329034 33.9573195,19.7430307 33.9642971,17.9470371 L33.9642971,9.17484749 C33.9384634,7.02607696 31.8816494,5.26349928 29.2655403,5.14826865 L28.9990437,5.14826865 L28.9990437,0.0517702993 L29.2515142,0.0517702993 C29.4548932,0 29.7634683,0 30.1562002,0 C31.7692062,0 39.9744979,0.362392095 39.9744979,7.53545468 L39.9744979,15.4333014 C39.9744979,15.467815 39.8272235,18.1368615 41.3771119,19.4943938 C41.9867976,20.016443 42.8386,20.3009293 43.7194772,20.2767006 L44,20.2767006 L44,24.7346986 L43.7194772,24.7346986 C42.8386,24.7104698 41.9867976,24.9949561 41.3771119,25.5170053 C39.8131973,26.8630331 39.9744979,29.5435841 39.9744979,29.5435841 L39.9744979,37.4644399 C39.9744979,40.3405677 38.6700669,42.4458932 36.1032834,43.7286461 C34.2769167,44.5697859 32.2156956,45.0078098 30.1211348,44.9998946 Z M13.9419828,44.9998946 C12.2939114,44.9998946 4.06056742,44.6375025 4.06056742,37.4644399 L4.06056742,29.5608409 C4.06056742,29.5263274 4.20784189,26.8572808 2.65795346,25.4997485 C2.03632112,24.9763755 1.1702114,24.697664 0.280522792,24.7346986 L0,24.7346986 L0,20.2767006 L0.280522792,20.2767006 C1.16033032,20.3024208 2.0119707,20.0200801 2.62288811,19.5001461 C4.20082882,18.1426138 4.02550207,15.4735672 4.02550207,15.4735672 L4.02550207,7.53545468 C4.05355435,0.362392095 12.2868983,0 13.9349697,0 C14.2926363,0 14.5871852,0 14.8045904,0.0287612774 L15.0570609,0.0287612774 L15.0570609,5.13676414 L14.7905642,5.13676414 C12.1744552,5.25199477 10.1176412,7.01457244 10.0918075,9.16334298 L10.0918075,17.9585416 C10.0987851,19.7545352 9.05561074,21.4444079 7.28657953,22.5028234 C9.05561074,23.5612389 10.0987851,25.2511117 10.0918075,27.0471053 L10.0918075,35.8250471 C10.1176412,37.9738176 12.1744552,39.7363953 14.7905642,39.8516259 L15.0570609,39.8516259 L15.0570609,44.9366198 L14.8045904,44.9366198 C14.5871852,44.9883901 14.2926363,44.9998946 13.9419828,44.9998946 L13.9419828,44.9998946 Z" id="Shape"></path>
                    <path d="M29.4261245,44.9991092 C29.0819593,44.9991092 28.7997439,44.9991092 28.5863615,44.9701894 L28.462462,44.9701894 L28.462462,40.0769701 L28.5932448,40.0769701 C31.2342726,39.9580141 33.3105687,38.1348326 33.3358412,35.9125281 L33.3358412,27.0688729 C33.330666,25.2370161 34.4122417,23.5234638 36.2199456,22.4995546 C34.4122417,21.4756454 33.330666,19.7620931 33.3358412,17.9302363 L33.3358412,9.10971683 C33.3105687,6.88741241 31.2342726,5.06423085 28.5932448,4.94527485 L28.462462,4.94527485 L28.462462,0.0404876304 L28.5863615,0.0404876304 C28.7722107,0.0115678944 29.0819593,0 29.4605411,0 C31.0574676,0 39.0214503,0.358604726 39.0214503,7.46129188 L39.0214503,15.4026514 C39.0214503,15.4373551 38.8769009,18.1673781 40.4669441,19.5670934 C41.0903065,20.1143649 41.9612759,20.412999 42.8623339,20.3884139 L43,20.3884139 L43,24.6222632 L42.8623339,24.6222632 C41.9612759,24.597678 41.0903065,24.8963121 40.4669441,25.4435837 C38.8769009,26.8432989 39.0214503,29.573322 39.0214503,29.6022417 L39.0214503,37.5551691 C39.0214503,40.4008712 37.768689,42.4830921 35.2906995,43.7555605 C33.4987178,44.5935127 31.4767076,45.0222681 29.4261245,44.9991092 Z M13.5463422,44.9991092 C11.9494157,44.9991092 3.99231631,44.6578563 3.99231631,37.5551691 L3.99231631,29.6080257 C3.99231631,29.573322 4.1368657,26.8432989 2.54682247,25.4435837 C1.91971877,24.8938764 1.04330313,24.5950921 0.13766608,24.6222632 L0,24.6222632 L0,20.3884139 L0.13766608,20.3884139 C1.04172357,20.4077749 1.9128315,20.1027832 2.53305587,19.5497415 C4.12309909,18.1673781 3.99231631,15.4373551 3.99231631,15.4084353 L3.99231631,7.46129188 C3.99231631,0.358604726 11.9425324,0 13.5394589,0 C13.8836241,0 14.1658396,0 14.379222,0.028919736 L14.5031215,0.028919736 L14.5031215,4.9394909 L14.3723387,4.9394909 C11.7313108,5.0584469 9.65501479,6.88162847 9.62974228,9.10393288 L9.62974228,17.9418042 C9.63140242,19.7713594 8.55038122,21.4818652 6.74563791,22.5053385 C8.55038122,23.5288119 9.63140242,25.2393177 9.62974228,27.0688729 L9.62974228,35.9067442 C9.65501479,38.1290486 11.7313108,39.9522302 14.3723387,40.0711862 L14.5031215,40.0711862 L14.5031215,44.9991092 L14.379222,44.9991092 C14.1727229,44.9991092 13.8836241,44.9991092 13.5463422,44.9991092 Z" id="Shape"></path>
                    <path d="M39.992583,15.0199328 L39.992583,7.21803503 C39.992583,0.0980219591 31.6033538,-0.129272951 29.6689777,0.029833486 L29.6689777,4.62687305 L29.6689777,4.62687305 C32.3999504,4.75225684 34.5455284,6.59021581 34.5777169,8.83182889 L34.5777169,17.5144945 C34.5780966,19.3369786 35.7193969,21.0318376 37.6006127,22.003569 C35.7235595,22.9731434 34.5828505,24.6628356 34.5777169,26.4812787 L34.5777169,35.1639443 C34.5455284,37.4055573 32.3999504,39.2435163 29.6689777,39.3689001 L29.6689777,39.3689001 L29.6689777,43.9659397 C31.6033538,44.1250461 39.992583,43.9034336 39.992583,36.7777381 L39.992583,28.9758403 C39.992583,28.9758403 39.6944534,23.9639876 44,23.9639876 L44,20.0317856 C39.6875202,20.0317856 39.992583,15.0199328 39.992583,15.0199328 M5.00741696,7.21803503 L5.00741696,15.0199328 C5.00741696,15.0199328 5.31247985,20.0317856 1,20.0317856 L1,23.9639876 C5.31247985,23.9639876 5.00741696,28.9758403 5.00741696,28.9758403 L5.00741696,36.7834205 C5.00741696,43.9034336 13.3966462,44.1250461 15.3310223,43.971622 L15.3310223,39.3689001 C12.6027774,39.2406438 10.4611684,37.40349 10.4292164,35.1639443 L10.4292164,26.4812787 C10.4288367,24.6587946 9.28753632,22.9639355 7.40632054,21.9922042 C9.28337378,21.0226298 10.4240827,19.3329375 10.4292164,17.5144945 L10.4292164,8.83751126 C10.4614048,6.59589818 12.6069829,4.75793922 15.3379555,4.63255542 L15.3379555,0.029833486 C13.3966462,-0.129272951 5.00741696,0.0980219591 5.00741696,7.21803503" id="Shape"></path>
                </g>
            </g>
        </g>
    </g>
</svg>