<svg xmlns="http://www.w3.org/2000/svg" viewBox="0 0 240 125"><defs><style>.cls-1,.cls-2{fill:#fff;}.cls-1{fill-opacity:0.01;}</style></defs><title>Asset 10</title><g id="Layer_2" data-name="Layer 2"><g id="Layer_1-2" data-name="Layer 1"><g id="Layer_2-2" data-name="Layer 2"><g id="cutting-board"><g id="json"><g id="bg"><path id="path13_fill" data-name="path13 fill" class="cls-1" d="M0,0H240V125H0Z"/></g><g id="Canvas"><g id="json-2"><g id="JSON-3"><g id="J"><path class="cls-2" d="M109.18,111.35a7.47,7.47,0,0,1-7.14-4.42l-.38-.81,5-3.08.51.91c.7,1.26,1,1.65,1.8,1.65s1.23,0,1.23-1.64V88.68h6.16V104C116.39,108.61,113.69,111.35,109.18,111.35Z"/><path class="cls-2" d="M102.95,106.51l3.39-2.07c.65,1.17,1.25,2.16,2.67,2.16s2.23-.54,2.23-2.64V89.68h4.16V104c0,4.35-2.52,6.33-6.21,6.33A6.45,6.45,0,0,1,102.95,106.51Z"/></g><g id="S"><path class="cls-2" d="M129.11,111.35a9,9,0,0,1-8.46-4.84l-.42-.84,5-3,.51.84a3.52,3.52,0,0,0,3.24,2.07c.91,0,1.82-.33,1.82-1.07s-.49-1-2.43-1.87l-1-.45c-2.76-1.19-5.62-2.93-5.62-7.19,0-3.79,3-6.55,7.09-6.55a7.11,7.11,0,0,1,6.78,3.87l.46.82-4.92,3.19-.52-.94c-.6-1.08-1.09-1.28-1.8-1.28s-1,.3-1,.8.08.81,2,1.63l1,.45c3.78,1.64,6.13,3.47,6.13,7.52S133.9,111.35,129.11,111.35Z"/><path class="cls-2" d="M121.54,106.06l3.38-2a4.52,4.52,0,0,0,4.1,2.55c1.72,0,2.82-.87,2.82-2.07,0-1.44-1.13-2-3-2.79l-1-.45c-3-1.29-5-2.91-5-6.33,0-3.15,2.38-5.55,6.09-5.55a6.13,6.13,0,0,1,5.82,3.38l-3.24,2.1a2.83,2.83,0,0,0-2.67-1.8,1.82,1.82,0,0,0-2,1.63q0,.08,0,.17c0,1.26.77,1.77,2.55,2.55l1,.45c3.53,1.53,5.52,3.09,5.52,6.6,0,3.78-2.94,5.85-6.89,5.85S122.75,108.49,121.54,106.06Z"/></g><g id="O"><path class="cls-2" d="M150.9,111.35a11.47,11.47,0,1,1,11.45-11.49v0a11.34,11.34,0,0,1-11.21,11.47Zm0-17.19c-3,0-5.18,2.35-5.18,5.72s2.13,5.72,5.18,5.72,5.18-2.35,5.18-5.72S153.95,94.16,150.9,94.16Z"/><path class="cls-2" d="M140.45,99.88a10.45,10.45,0,1,1,10.45,10.47,10.28,10.28,0,0,1-10.45-10.11Q140.45,100.06,140.45,99.88Zm16.63,0c0-3.81-2.49-6.72-6.18-6.72s-6.15,2.91-6.15,6.72,2.49,6.72,6.18,6.72S157.08,103.69,157.08,99.88Z"/></g><g id="N"><path class="cls-2" d="M183.07,111.26l-10.47-9.93-.43-.44v10.19h-5.92V88.5h1.81l10.47,9.93.43.44V88.68h5.89v22.58Z"/><path class="cls-2" d="M173.25,100.6a30.2,30.2,0,0,1-2.41-2.79,36.28,36.28,0,0,1,.3,3.72v8.55h-3.89V89.5h.42l10.18,9.66a29,29,0,0,1,2.38,2.79s-.27-2.31-.27-3.72V89.68h3.89v20.58h-.42Z"/></g></g><g id="icon"><path id="Shape" class="cls-2" d="M81.3,113a5.46,5.46,0,0,1-.65,0h-.26V109.1h.2a3.41,3.41,0,0,0,3.5-3.06V99.35a4.09,4.09,0,0,1,2.09-3.46,4.09,4.09,0,0,1-2.09-3.46V85.73a3.41,3.41,0,0,0-3.5-3.06h-.2V78.78h.19a3.12,3.12,0,0,1,.67,0c1.2,0,7.29.27,7.29,5.74v6a4.34,4.34,0,0,0,1.1,3,2.55,2.55,0,0,0,1.74.59h.21v3.39h-.21a2.55,2.55,0,0,0-1.74.59,4.26,4.26,0,0,0-1.06,3.11v6A5,5,0,0,1,85.7,112,10.4,10.4,0,0,1,81.3,113Zm-12,0c-1.23,0-7.36-.27-7.36-5.74v-6a4.34,4.34,0,0,0-1-3.09,2.56,2.56,0,0,0-1.77-.58h-.21v-3.4h.21a2.55,2.55,0,0,0,1.7-.63,4.22,4.22,0,0,0,1-3.06v-6c0-5.46,6.15-5.74,7.38-5.74a5.46,5.46,0,0,1,.65,0H70v3.92h-.2a3.41,3.41,0,0,0-3.5,3.06v6.69a4.09,4.09,0,0,1-2.09,3.46,4.09,4.09,0,0,1,2.09,3.46V106a3.41,3.41,0,0,0,3.5,3.06H70v3.87h-.19a2.93,2.93,0,0,1-.65,0Z"/><path id="Shape-2" class="cls-2" d="M80.74,113a5.07,5.07,0,0,1-.63,0H80v-3.73h.1a3.47,3.47,0,0,0,3.53-3.17V99.36a4.05,4.05,0,0,1,2.15-3.48,4.05,4.05,0,0,1-2.15-3.48V85.68a3.47,3.47,0,0,0-3.53-3.17H80V78.77h.09a4.79,4.79,0,0,1,.65,0c1.19,0,7.11.27,7.11,5.67v6a4.5,4.5,0,0,0,1.07,3.17,2.58,2.58,0,0,0,1.82.63h.1v3.22h-.1a2.58,2.58,0,0,0-1.82.63,4.47,4.47,0,0,0-1.07,3.16v6a5,5,0,0,1-2.73,4.72A9.89,9.89,0,0,1,80.74,113ZM68.9,113c-1.19,0-7.11-.26-7.11-5.67v-6a4.5,4.5,0,0,0-1.07-3.17,2.58,2.58,0,0,0-1.82-.63h-.1V94.26h.1a2.58,2.58,0,0,0,1.82-.64,4.45,4.45,0,0,0,1.08-3.15v-6c0-5.4,5.92-5.67,7.1-5.67a5.07,5.07,0,0,1,.63,0h.09V82.5h-.1A3.47,3.47,0,0,0,66,85.67v6.72a4.06,4.06,0,0,1-2.15,3.47A4.06,4.06,0,0,1,66,99.33v6.72a3.47,3.47,0,0,0,3.53,3.17h.1V113H68.9Z"/><path id="Shape-3" class="cls-2" d="M88.58,90.18V84.24c0-5.42-6.25-5.59-7.69-5.46v3.5h0a3.54,3.54,0,0,1,3.64,3.2v6.6a3.93,3.93,0,0,0,2.25,3.42,3.93,3.93,0,0,0-2.25,3.41v6.6c0,1.7-1.62,3.11-3.64,3.2h0v3.5c1.44.12,7.69,0,7.69-5.46v-5.89s-.22-3.82,3-3.82V94c-3.19,0-3-3.82-3-3.82m-26-5.94v5.94s.23,3.82-3,3.82v3c3.21,0,3,3.82,3,3.82v5.94c0,5.42,6.25,5.58,7.69,5.46V108.7c-2-.1-3.64-1.49-3.64-3.2V98.9a3.93,3.93,0,0,0-2.25-3.42,3.93,3.93,0,0,0,2.25-3.41V85.47c0-1.7,1.62-3.11,3.64-3.2V78.76c-1.45-.12-7.69.05-7.69,5.46"/><circle class="cls-2" cx="75.27" cy="96.51" r="3.76"/></g></g></g></g></g></g></g></g></svg>