<?xml version="1.0" encoding="UTF-8"?>
<svg width="240px" height="125px" viewBox="0 0 240 125" version="1.1" xmlns="http://www.w3.org/2000/svg" xmlns:xlink="http://www.w3.org/1999/xlink">
    <!-- Generator: Sketch 47.1 (45422) - http://www.bohemiancoding.com/sketch -->
    <title>json</title>
    <desc>Created with Sketch.</desc>
    <defs></defs>
    <g id="Page-1" stroke="none" stroke-width="1" fill="none" fill-rule="evenodd">
        <g id="json" fill-rule="nonzero" fill="#FFFFFF">
            <g id="Stacked-Group" transform="translate(51.000000, 77.000000)">
                <g id="Asset-1" transform="translate(58.000000, 10.000000)">
                    <path d="M3.8,29 C2.67043468,28.9744849 1.54418009,28.8675409 0.43,28.68 L0,28.66 L0.07,23.18 L0.62,23.24 C1.62,23.35 2.32,23.41 2.76,23.41 L2.76,23.41 C3.25926728,23.4796742 3.76643065,23.3582407 4.18,23.07 C4.47967834,22.538685 4.60227424,21.9257055 4.53,21.32 L4.77,1.05 L11.41,1.13 L11.17,21.31 C11.17,23.94 10.56,25.91 9.45,27.17 C8.34,28.43 6.5,29 4,29 L3.8,29 Z" id="Shape"></path>
                    <path d="M0.56,23.74 C1.56,23.8533333 2.29,23.9133333 2.75,23.92 C3.39989669,24.0129319 4.05853109,23.8237109 4.56,23.4 C4.92379712,22.7746302 5.07797911,22.049274 5,21.33 L5.26,1.56 L10.9,1.63 L10.67,21.31 C10.67,23.83 10.1366667,25.6733333 9.07,26.84 C8.00333333,28.0066667 6.24666667,28.5733333 3.8,28.54 C2.69394798,28.5166537 1.59104972,28.4130481 0.5,28.23 L0.56,23.74 Z" id="Shape"></path>
                    <path d="M23,23.89 C21.3563375,23.87048 19.7223601,23.6351334 18.14,23.19 C16.7045963,22.8286154 15.3484402,22.2047836 14.14,21.35 L13.82,21.11 L16.05,16.25 L16.54,16.57 C17.522655,17.2134054 18.5893784,17.7181641 19.71,18.07 C20.8044331,18.4133197 21.9430762,18.5952331 23.09,18.61 L23.23,18.61 C24.0472084,18.6521719 24.8635708,18.5121265 25.62,18.2 C26.24,17.89 26.32,17.51 26.32,17.26 C26.32,17.01 26.26,16.69 25.7,16.35 C24.718893,15.8723986 23.6752554,15.5357413 22.6,15.35 C20.9274069,15.0459535 19.30521,14.5108304 17.78,13.76 C16.7320365,13.2493729 15.8535944,12.4473171 15.25,11.45 C14.7484953,10.4745014 14.5073789,9.38603282 14.55,8.29 C14.5568412,6.92342483 14.994228,5.59376896 15.8,4.49 C16.6756801,3.31294878 17.8640524,2.40521245 19.23,1.87 C20.6955119,1.27120533 22.2670697,0.975262627 23.85,1 L24,1 C25.5666568,1.01602712 27.1227618,1.25853699 28.62,1.72 C29.9242661,2.08029576 31.1397883,2.70678337 32.19,3.56 L32.47,3.8 L30.3,8.67 L29.8,8.31 C28.9419145,7.68583478 27.999055,7.18746621 27,6.83 C26.0360241,6.48927786 25.0223684,6.31019868 24,6.3 L24,6.3 C23.2364441,6.25419011 22.4750822,6.42030542 21.8,6.78 C21.3685881,6.99712767 21.0946006,7.4370513 21.09,7.92 C21.0773751,8.12436947 21.1456184,8.32550773 21.28,8.48 C21.5682701,8.74461745 21.9089801,8.94563636 22.28,9.07 C23.1675123,9.38233162 24.0765805,9.62965166 25,9.81 C26.6281659,10.1399601 28.2052908,10.6847239 29.69,11.43 C30.7294291,11.9438691 31.6054171,12.7367594 32.22,13.72 C32.7318961,14.6707338 32.9804683,15.7409751 32.94,16.82 C32.9854381,18.9221187 31.9708466,20.9062087 30.24,22.1 C28.1830618,23.4027429 25.7711993,24.0319244 23.34,23.9 L23,23.89 Z" id="Shape"></path>
                    <path d="M18.31,22.7 C16.9490941,22.3516453 15.6642172,21.7549742 14.52,20.94 L16.34,16.94 C17.3631968,17.6064846 18.4737393,18.1281031 19.64,18.49 C20.779218,18.85081 21.965133,19.0428473 23.16,19.06 C24.1064338,19.1219609 25.0543928,18.9645381 25.93,18.6 C26.4622092,18.3726721 26.81309,17.8559919 26.8281448,17.277461 C26.8431995,16.6989302 26.5196657,16.1647001 26,15.91 C24.9707274,15.3977251 23.8726496,15.037313 22.74,14.84 C21.1127291,14.5469851 19.5342203,14.0286688 18.05,13.3 C17.0862236,12.8359032 16.2770989,12.1031766 15.72,11.19 C15.2573864,10.2885176 15.036853,9.28233403 15.08,8.27 C15.0847125,7.00818249 15.4871191,5.77996747 16.23,4.76 C17.0364984,3.67804215 18.1267547,2.84044839 19.38,2.34 C20.8441913,1.73958359 22.4181704,1.45340557 24,1.5 C25.5193499,1.51517999 27.0284384,1.75097506 28.48,2.2 C29.714773,2.54027116 30.8656361,3.13272731 31.86,3.94 L30.07,7.94 C29.1511071,7.2795242 28.1403636,6.75730672 27.07,6.39 C26.0856755,6.02590695 25.0489756,5.82329459 24,5.79 C23.1403508,5.74023776 22.2841329,5.93436002 21.53,6.35 C20.9518962,6.65716085 20.5875807,7.25540522 20.58,7.91 C20.5665403,8.24005226 20.6811988,8.56252939 20.9,8.81 C21.2501315,9.13497602 21.66627,9.38056595 22.12,9.53 C22.9972828,9.85010051 23.8962162,10.107416 24.81,10.3 C26.3929147,10.6187369 27.9263742,11.1467043 29.37,11.87 C30.3454994,12.3416379 31.1672794,13.0801997 31.74,14 C32.209177,14.8709273 32.4370405,15.8514306 32.4,16.84 C32.4480782,18.7829481 31.5113982,20.6186905 29.91,21.72 C27.844096,23.0002739 25.4225685,23.5855056 23,23.39 C21.4132335,23.3659107 19.8364694,23.1339347 18.31,22.7 L18.31,22.7 Z" id="Shape"></path>
                    <path d="M45.42,24.16 C43.3540803,24.1787409 41.3171869,23.6729583 39.5,22.69 C37.8242493,21.7499336 36.4691461,20.3286429 35.61,18.61 C34.6932595,16.7215122 34.2504887,14.6380866 34.32,12.54 C34.2992186,10.4508074 34.7974552,8.38913882 35.77,6.54 C36.6870808,4.85952866 38.0781264,3.48587113 39.77,2.59 C41.537085,1.67976386 43.5026069,1.22274566 45.49,1.26 L45.69,1.26 C47.7530053,1.2390022 49.7872237,1.74497529 51.6,2.73 C53.2537198,3.65253491 54.5969427,5.04447579 55.46,6.73 C56.3648443,8.59731897 56.8040271,10.6559885 56.74,12.73 C56.7546659,14.8149341 56.2676352,16.8728105 55.32,18.73 C54.4222408,20.4374457 53.0274457,21.8322408 51.32,22.73 C49.5439393,23.6450952 47.5674998,24.1022542 45.57,24.06 L45.42,24.16 Z M45.55,6.55 C44.2822205,6.48223887 43.0575535,7.02035013 42.25,8 C41.3288485,9.35708385 40.8887755,10.9835936 41,12.62 C40.8623092,14.2754629 41.2811034,15.9295241 42.19,17.32 C42.9852105,18.3488449 44.2309081,18.9269382 45.53,18.87 L45.53,18.87 C46.8318604,18.9483173 48.0923992,18.3979936 48.92,17.39 C49.8638598,16.0298622 50.3250482,14.3928194 50.23,12.74 C50.3555774,11.0988272 49.9220634,9.46345763 49,8.1 C48.1942321,7.07331455 46.944029,6.49658399 45.64,6.55 L45.55,6 L45.55,6.55 Z" id="Shape"></path>
                    <path d="M39.74,22.25 C38.1301207,21.3686016 36.8258977,20.0190447 36,18.38 C35.1176548,16.5667851 34.6919646,14.5653542 34.76,12.55 C34.7512517,10.5366686 35.2462768,8.55313049 36.2,6.78 C37.0648855,5.17186297 38.3873214,3.85638732 40,3 C41.756933,2.10996245 43.711987,1.68315489 45.68,1.76 C47.6586225,1.73412458 49.6108164,2.21614777 51.35,3.16 C52.9243846,4.0447965 54.1961654,5.38277964 55,7 C55.8733521,8.804988 56.2921774,10.7961247 56.22,12.8 C56.2411194,14.8147284 55.7745144,16.8046616 54.86,18.6 C54.0198606,20.2093846 52.7126392,21.5270637 51.11,22.38 C49.3498486,23.2837543 47.387337,23.7210156 45.41,23.65 C43.4317872,23.6723271 41.4804726,23.1905211 39.74,22.25 L39.74,22.25 Z M49.26,17.7 C50.2881158,16.2432903 50.7889902,14.4796478 50.68,12.7 C50.8308198,10.9323205 50.3682099,9.16663368 49.37,7.7 C48.435177,6.60755969 47.0753097,5.97042665 45.6376194,5.95128297 C44.1999291,5.93213929 42.8235794,6.53283802 41.86,7.6 C40.8456747,9.0364363 40.3485929,10.7744597 40.45,12.53 C40.3070018,14.2941809 40.7613461,16.0552053 41.74,17.53 C42.6791763,18.6185816 44.0415019,19.2502004 45.4791675,19.2636007 C46.9168331,19.2770011 48.2906955,18.670886 49.25,17.6 L49.26,17.7 Z" id="Shape"></path>
                    <polygon id="Shape" points="73.89 24.23 65.07 12.93 64.94 24.12 58.69 24.04 58.95 1.69 63.8 1.74 72.62 12.99 72.75 1.85 79.06 1.92 78.8 24.28"></polygon>
                    <polygon id="Shape" points="73.25 2.36 78.56 2.42 78.3 23.78 74.13 23.78 64.59 11.49 64.45 23.61 59.2 23.55 59.45 2.19 63.56 2.19 73.1 14.41"></polygon>
                </g>
                <g id="Group-4">
                    <path d="M31.4902773,47.9998876 C31.123685,47.9998876 30.8084157,47.9998876 30.5811285,47.9692089 L30.317182,47.9692089 L30.317182,42.5206725 L30.5957922,42.5206725 C33.3308153,42.3977598 35.4811208,40.517677 35.5081288,38.2256551 L35.5081288,28.8379741 C35.500834,26.9222476 36.5914254,25.1197167 38.4408671,23.9907402 C36.5914254,22.8617637 35.500834,21.0592327 35.5081288,19.1435062 L35.5081288,9.78650399 C35.4811208,7.49448209 33.3308153,5.61439923 30.5957922,5.49148656 L30.317182,5.49148656 L30.317182,0.0552216526 L30.5811285,0.0552216526 C30.793752,0 31.1163532,0 31.5269366,0 C33.2132611,0 41.7915206,0.386551568 41.7915206,8.03781832 L41.7915206,16.4621882 C41.7915206,16.4990026 41.6375518,19.3459856 43.2578897,20.7940201 C43.8952884,21.3508725 44.7858091,21.6543245 45.7067262,21.6284806 L46,21.6284806 L46,26.3836785 L45.7067262,26.3836785 C44.7858091,26.3578345 43.8952884,26.6612865 43.2578897,27.218139 C41.6228881,28.653902 41.7915206,31.5131564 41.7915206,31.5131564 L41.7915206,39.9620693 C41.7915206,43.0299388 40.4277973,45.2756194 37.7443417,46.6438892 C35.8349583,47.541105 33.6800454,48.0083305 31.4902773,47.9998876 Z M14.5757093,47.9998876 C12.8527255,47.9998876 4.24513867,47.613336 4.24513867,39.9620693 L4.24513867,31.5315636 C4.24513867,31.4947492 4.39910743,28.6477662 2.77876953,27.1997318 C2.12888117,26.6414672 1.22340283,26.3441749 0.293273828,26.3836785 L0,26.3836785 L0,21.6284806 L0.293273828,21.6284806 C1.21307261,21.6559155 2.10342391,21.3547521 2.7421103,20.8001558 C4.39177558,19.3521214 4.20847944,16.5051384 4.20847944,16.5051384 L4.20847944,8.03781832 C4.23780682,0.386551568 12.8453937,0 14.5683774,0 C14.9423016,0 15.2502391,0 15.4775263,0.0306786959 L15.7414727,0.0306786959 L15.7414727,5.47921508 L15.4628626,5.47921508 C12.7278395,5.60212775 10.5775339,7.48221061 10.550526,9.77423251 L10.550526,19.1557777 C10.5578208,21.0715042 9.46722941,22.8740351 7.6177877,24.0030117 C9.46722941,25.1319882 10.5578208,26.9345191 10.550526,28.8502456 L10.550526,38.2133836 C10.5775339,40.5054055 12.7278395,42.3854883 15.4628626,42.508401 L15.7414727,42.508401 L15.7414727,47.9323944 L15.4775263,47.9323944 C15.2502391,47.9876161 14.9423016,47.9998876 14.5757093,47.9998876 L14.5757093,47.9998876 Z" id="Shape"></path>
                    <path d="M30.7947815,47.9990498 C30.4346086,47.9990498 30.1392668,47.9990498 29.9159597,47.9682021 L29.7862974,47.9682021 L29.7862974,42.7487681 L29.9231631,42.7487681 C32.6870295,42.6218817 34.8598975,40.6771547 34.8863454,38.3066967 L34.8863454,28.8734644 C34.8809295,26.9194839 36.0128111,25.0916947 37.9045942,23.9995249 C36.0128111,22.907355 34.8809295,21.0795659 34.8863454,19.1255854 L34.8863454,9.71703129 C34.8598975,7.34657324 32.6870295,5.40184624 29.9231631,5.27495984 L29.7862974,5.27495984 L29.7862974,0.0431868057 L29.9159597,0.0431868057 C30.110453,0.0123390873 30.4346086,0 30.8307988,0 C32.502001,0 40.8364015,0.382511708 40.8364015,7.95871134 L40.8364015,16.4294948 C40.8364015,16.4665121 40.6851289,19.3785367 42.3491276,20.8715663 C43.0014836,21.4553226 43.9129632,21.7738656 44.8559308,21.7476415 L45,21.7476415 L45,26.2637474 L44.8559308,26.2637474 C43.9129632,26.2375232 43.0014836,26.5560663 42.3491276,27.1398226 C40.6851289,28.6328522 40.8364015,31.5448768 40.8364015,31.5757245 L40.8364015,40.0588471 C40.8364015,43.0942626 39.5253722,45.3152983 36.9321274,46.6725979 C35.0567977,47.5664135 32.9407405,48.0237526 30.7947815,47.9990498 Z M14.1764047,47.9990498 C12.5052025,47.9990498 4.17800544,47.6350467 4.17800544,40.0588471 L4.17800544,31.5818941 C4.17800544,31.5448768 4.32927805,28.6328522 2.66527933,27.1398226 C2.00900802,26.5534682 1.09182886,26.2347649 0.144069153,26.2637474 L0,26.2637474 L0,21.7476415 L0.144069153,21.7476415 C1.09017583,21.7682933 2.00180041,21.4429687 2.65087242,20.8530576 C4.31487114,19.3785367 4.17800544,16.4665121 4.17800544,16.4356643 L4.17800544,7.95871134 C4.17800544,0.382511708 12.497999,0 14.1692012,0 C14.5293741,0 14.8247159,0 15.0480231,0.0308477184 L15.1776853,0.0308477184 L15.1776853,5.2687903 L15.0408196,5.2687903 C12.2769532,5.39567669 10.1040852,7.3404037 10.0776373,9.71086174 L10.0776373,19.1379245 C10.0793746,21.08945 8.94807337,22.9139896 7.05938851,24.0056944 C8.94807337,25.0973993 10.0793746,26.9219389 10.0776373,28.8734644 L10.0776373,38.3005271 C10.1040852,40.6709852 12.2769532,42.6157122 15.0408196,42.7425986 L15.1776853,42.7425986 L15.1776853,47.9990498 L15.0480231,47.9990498 C14.8319193,47.9990498 14.5293741,47.9990498 14.1764047,47.9990498 Z" id="Shape"></path>
                    <path d="M41.8061916,16.0440192 L41.8061916,7.71017378 C41.8061916,0.104705275 33.0267656,-0.138087016 31.0024186,0.0318675873 L31.0024186,4.94234167 L31.0024186,4.94234167 C33.8604132,5.07627436 36.1057856,7.0395487 36.1394711,9.43399904 L36.1394711,18.7086645 C36.1398685,20.6554089 37.3342526,22.4658265 39.3029668,23.5038123 C37.3386087,24.5394941 36.1448436,26.3443926 36.1394711,28.2868204 L36.1394711,37.5614859 C36.1057856,39.9559363 33.8604132,41.9192106 31.0024186,42.0531433 L31.0024186,42.0531433 L31.0024186,46.9636174 C33.0267656,47.133572 41.8061916,46.8968495 41.8061916,39.2853112 L41.8061916,30.9514658 C41.8061916,30.9514658 41.4941954,25.5978958 46,25.5978958 L46,21.3975892 C41.4869397,21.3975892 41.8061916,16.0440192 41.8061916,16.0440192 M5.19380845,7.71017378 L5.19380845,16.0440192 C5.19380845,16.0440192 5.5130603,21.3975892 1,21.3975892 L1,25.5978958 C5.5130603,25.5978958 5.19380845,30.9514658 5.19380845,30.9514658 L5.19380845,39.291381 C5.19380845,46.8968495 13.9732344,47.133572 15.9975814,46.9696872 L15.9975814,42.0531433 C13.1424415,41.9161422 10.9012227,39.953728 10.8677846,37.5614859 L10.8677846,28.2868204 C10.8673872,26.340076 9.67300313,24.5296584 7.70428894,23.4916727 C9.66864698,22.4559909 10.8624122,20.6510924 10.8677846,18.7086645 L10.8677846,9.44006885 C10.9014701,7.04561851 13.1468425,5.08234416 16.0048371,4.94841147 L16.0048371,0.0318675873 C13.9732344,-0.138087016 5.19380845,0.104705275 5.19380845,7.71017378" id="Shape"></path>
                </g>
            </g>
        </g>
    </g>
</svg>