<svg xmlns="http://www.w3.org/2000/svg" viewBox="0 0 240 125"><defs><style>.cls-1,.cls-2{fill:#fff;}.cls-2{fill-opacity:0.01;}</style></defs><title>Asset 40</title><g id="Layer_2" data-name="Layer 2"><g id="cutting-board"><g id="json"><g id="Canvas"><g id="json-2" data-name="json"><g id="JSON-3" data-name="JSON"><path class="cls-1" d="M114.43,111.35a7.47,7.47,0,0,1-7.14-4.42l-.38-.81,5-3.08.51.91c.7,1.26,1,1.65,1.8,1.65s1.23,0,1.23-1.64V88.68h6.16V104C121.64,108.61,118.94,111.35,114.43,111.35Z"/><path class="cls-1" d="M108.2,106.51l3.39-2.07c.65,1.17,1.25,2.16,2.67,2.16s2.23-.54,2.23-2.64V89.68h4.16V104c0,4.35-2.52,6.33-6.21,6.33A6.45,6.45,0,0,1,108.2,106.51Z"/><path class="cls-1" d="M132.36,111.35a9,9,0,0,1-8.46-4.84l-.42-.84,5-3,.51.84a3.52,3.52,0,0,0,3.24,2.07c.91,0,1.82-.33,1.82-1.07s-.49-1-2.43-1.87l-1-.45C127.86,101,125,99.26,125,95c0-3.79,3-6.55,7.09-6.55a7.11,7.11,0,0,1,6.78,3.87l.46.82-4.92,3.19-.52-.94c-.6-1.08-1.09-1.28-1.8-1.28s-1,.3-1,.8.08.81,2,1.63l1,.45c3.78,1.64,6.13,3.47,6.13,7.52S137.15,111.35,132.36,111.35Z"/><path class="cls-1" d="M124.79,106.06l3.38-2a4.52,4.52,0,0,0,4.1,2.55c1.72,0,2.82-.87,2.82-2.07,0-1.44-1.13-2-3-2.79l-1-.45c-3-1.29-5-2.91-5-6.33,0-3.15,2.38-5.55,6.09-5.55A6.13,6.13,0,0,1,138,92.8l-3.24,2.1a2.83,2.83,0,0,0-2.67-1.8,1.82,1.82,0,0,0-2,1.8c0,1.26.77,1.77,2.55,2.55l1,.45c3.53,1.53,5.52,3.09,5.52,6.6,0,3.78-2.94,5.85-6.89,5.85S126,108.49,124.79,106.06Z"/><path class="cls-1" d="M154.15,111.35a11.47,11.47,0,1,1,11.45-11.47A11.34,11.34,0,0,1,154.15,111.35Zm0-17.19c-3,0-5.18,2.35-5.18,5.72s2.13,5.72,5.18,5.72,5.18-2.35,5.18-5.72S157.2,94.16,154.15,94.16Z"/><path class="cls-1" d="M143.7,99.88a10.45,10.45,0,1,1,10.45,10.47A10.28,10.28,0,0,1,143.7,99.88Zm16.63,0c0-3.81-2.49-6.72-6.18-6.72S148,96.07,148,99.88s2.49,6.72,6.18,6.72S160.33,103.69,160.33,99.88Z"/><path class="cls-1" d="M185.82,111.26l-10.47-9.93-.43-.44c0,.22,0,.44,0,.64v9.55H169V88.5h1.81l10.47,9.93.43.44c0-.22,0-.44,0-.64V88.68h5.89v22.58Z"/><path class="cls-1" d="M176,100.6a30.2,30.2,0,0,1-2.41-2.79,36.28,36.28,0,0,1,.3,3.72v8.55H170V89.5h.42l10.18,9.66a29,29,0,0,1,2.38,2.79s-.27-2.31-.27-3.72V89.68h3.89v20.58h-.42Z"/></g><g id="icon"><path id="Shape" class="cls-1" d="M86,116.35a6,6,0,0,1-.71,0H85v-4.27h.22a3.74,3.74,0,0,0,3.84-3.36v-7.35a4.49,4.49,0,0,1,2.29-3.8,4.49,4.49,0,0,1-2.29-3.8V86.42a3.74,3.74,0,0,0-3.84-3.36H85V78.79h.21a3.43,3.43,0,0,1,.74,0c1.32,0,8,.3,8,6.3v6.6A4.77,4.77,0,0,0,95.16,95a2.8,2.8,0,0,0,1.91.65h.23v3.72h-.23a2.8,2.8,0,0,0-1.91.65A4.68,4.68,0,0,0,94,103.43V110a5.48,5.48,0,0,1-3.16,5.23A11.42,11.42,0,0,1,86,116.35Zm-13.22,0c-1.35,0-8.08-.3-8.08-6.3v-6.6a4.77,4.77,0,0,0-1.15-3.39,2.81,2.81,0,0,0-1.94-.64h-.23V95.69h.23A2.8,2.8,0,0,0,63.48,95a4.63,4.63,0,0,0,1.15-3.36V85c0-6,6.75-6.3,8.1-6.3a6,6,0,0,1,.71,0h.21V83h-.22a3.74,3.74,0,0,0-3.84,3.36v7.35a4.49,4.49,0,0,1-2.29,3.8,4.49,4.49,0,0,1,2.29,3.8v7.33A3.74,3.74,0,0,0,73.43,112h.22v4.25h-.21a3.22,3.22,0,0,1-.71.05Z"/><path id="Shape-2" data-name="Shape" class="cls-1" d="M85.39,116.34a5.56,5.56,0,0,1-.69,0h-.1v-4.09h.11a3.81,3.81,0,0,0,3.88-3.48v-7.39a4.45,4.45,0,0,1,2.36-3.82,4.45,4.45,0,0,1-2.36-3.82V86.36a3.81,3.81,0,0,0-3.88-3.48H84.6v-4.1h.1a5.26,5.26,0,0,1,.71,0c1.31,0,7.81.3,7.81,6.23v6.63s-.12,2.31,1.18,3.48a2.83,2.83,0,0,0,2,.69h.11v3.54h-.11a2.83,2.83,0,0,0-2,.69,4.91,4.91,0,0,0-1.18,3.47v6.64a5.44,5.44,0,0,1-3,5.18A10.86,10.86,0,0,1,85.39,116.34Zm-13,0c-1.31,0-7.81-.29-7.81-6.22v-6.64s.12-2.31-1.18-3.48a2.83,2.83,0,0,0-2-.69h-.11V95.78h.11a2.83,2.83,0,0,0,2-.7c1.3-1.15,1.19-3.44,1.19-3.46V85c0-5.93,6.5-6.23,7.8-6.23a5.56,5.56,0,0,1,.69,0h.1v4.1h-.11a3.81,3.81,0,0,0-3.88,3.48v7.38a4.46,4.46,0,0,1-2.36,3.81,4.46,4.46,0,0,1,2.36,3.81v7.38a3.81,3.81,0,0,0,3.88,3.48h.11v4.12h-.78Z"/><path id="Shape-3" data-name="Shape" class="cls-1" d="M94,91.3V84.78c0-5.95-6.86-6.14-8.44-6v3.84h0c2.23.1,4,1.64,4,3.51v7.25a4.32,4.32,0,0,0,2.47,3.75,4.32,4.32,0,0,0-2.47,3.74v7.25c0,1.87-1.78,3.41-4,3.51h0v3.84c1.58.13,8.44-.05,8.44-6V103s-.24-4.19,3.28-4.19V95.49C93.78,95.49,94,91.3,94,91.3m-28.6-6.52V91.3s.25,4.19-3.28,4.19v3.29c3.52,0,3.28,4.19,3.28,4.19v6.52c0,5.95,6.86,6.13,8.44,6v-3.85c-2.23-.11-4-1.64-4-3.51v-7.25a4.32,4.32,0,0,0-2.47-3.75,4.32,4.32,0,0,0,2.47-3.74V86.13c0-1.87,1.78-3.41,4-3.51V78.77c-1.59-.13-8.44.06-8.44,6"/><circle class="cls-1" cx="79.38" cy="98.25" r="4.13"/></g><g id="bg"><path id="path13_fill" data-name="path13 fill" class="cls-2" d="M0,0H240V125H0Z"/></g></g></g></g></g></g></svg>