<svg xmlns="http://www.w3.org/2000/svg" viewBox="0 0 240 125"><defs><style>.cls-1,.cls-2{fill:#fff;}.cls-2{fill-opacity:0.01;}</style></defs><title>Asset 50</title><g id="Layer_2" data-name="Layer 2"><g id="cutting-board"><g id="Ledger"><g id="Canvas"><g id="ledger-2" data-name="ledger"><g id="LEDGER-3" data-name="LEDGER"><polygon class="cls-1" points="81.4 111.22 81.4 88.82 87.56 88.82 87.56 105.53 96.7 105.53 96.7 111.22 81.4 111.22"/><path class="cls-1" d="M82.4,89.82h4.16v16.71H95.7v3.69H82.4Z"/><polygon class="cls-1" points="99.96 111.22 99.96 88.82 115.32 88.82 115.32 94.5 106.11 94.5 106.11 97.19 114.22 97.19 114.22 102.78 106.11 102.78 106.11 105.53 115.73 105.53 115.73 111.22 99.96 111.22"/><path class="cls-1" d="M101,89.82h13.36v3.69h-9.21v4.68h8.11v3.6h-8.11v4.74h9.62v3.69H101Z"/><path class="cls-1" d="M119.49,111.22V88.82h7.21c6.85,0,11.63,4.61,11.63,11.2s-4.78,11.2-11.63,11.2Zm7-5.69c4.57,0,5.53-3,5.53-5.51s-1-5.51-5.53-5.51h-.84v11Z"/><path class="cls-1" d="M120.49,89.82h6.21c6.21,0,10.63,4.17,10.63,10.2s-4.39,10.2-10.63,10.2h-6.21Zm6,16.71c4.48,0,6.53-2.7,6.53-6.51s-2-6.51-6.53-6.51h-1.84v13Z"/><path class="cls-1" d="M153,111.48c-7,0-12-4.72-12-11.47a11,11,0,0,1,11.3-11.44c3.6,0,6.25,1,8.09,3.17l.61.7-4.2,4.2-.71-.73a4.58,4.58,0,0,0-3.79-1.55c-3,0-5,2.27-5,5.66a5.34,5.34,0,0,0,5.68,5.72,10.14,10.14,0,0,0,2.95-.43v-1.62h-4.87V98h10.67v10.59l-.36.3A13.93,13.93,0,0,1,153,111.48Z"/><path class="cls-1" d="M142,100c0-6,4.22-10.44,10.3-10.44,3.3,0,5.67.9,7.33,2.82l-2.82,2.82a5.57,5.57,0,0,0-4.51-1.86c-3.65,0-6,2.85-6,6.66s2.43,6.72,6.68,6.72a9.86,9.86,0,0,0,3.95-.75v-3.3h-4.87V99h8.67v9.12a13,13,0,0,1-7.75,2.37C146.41,110.48,142,106,142,100Z"/><polygon class="cls-1" points="165.56 111.22 165.56 88.82 180.93 88.82 180.93 94.5 171.72 94.5 171.72 97.19 179.83 97.19 179.83 102.78 171.72 102.78 171.72 105.53 181.34 105.53 181.34 111.22 165.56 111.22"/><path class="cls-1" d="M166.56,89.82h13.36v3.69h-9.21v4.68h8.11v3.6h-8.11v4.74h9.62v3.69H166.56Z"/><path class="cls-1" d="M196.42,111.22l-4.1-7.08h-1.07v7.08H185.1V88.82h8.48c5.33,0,8.51,2.89,8.51,7.72a7,7,0,0,1-3.53,6.4l4.94,8.28Zm-3-12.62c2,0,2.36-.79,2.36-2.06s-.39-2-2.36-2h-2.21V98.6Z"/><path class="cls-1" d="M186.1,89.82h7.48c4.13,0,7.51,2,7.51,6.72a6,6,0,0,1-3.95,6l4.6,7.71H197l-4.1-7.08h-2.64v7.08H186.1Zm7.36,9.78c2,0,3.36-.81,3.36-3.06s-1.37-3-3.36-3h-3.21V99.6Z"/></g><g id="icon"><g id="Group"><g id="Vector"><path id="path7_fill" data-name="path7 fill" class="cls-1" d="M45.24,84.2H39.32A3.39,3.39,0,0,0,36,87.51v5.79h9.24Z"/></g><g id="Vector-2" data-name="Vector"><path id="path8_fill" data-name="path8 fill" class="cls-1" d="M45.24,96.36H36V104h9.24Z"/></g><g id="Vector-3" data-name="Vector"><path id="path9_fill" data-name="path9 fill" class="cls-1" d="M36,107v5.79a3.39,3.39,0,0,0,3.32,3.31h5.81v-9.21H36Z"/></g><g id="Vector-4" data-name="Vector"><path id="path10_fill" data-name="path10 fill" class="cls-1" d="M64.68,84.2H48.21V104H68V87.51A3.39,3.39,0,0,0,64.68,84.2Z"/></g><g id="Vector-5" data-name="Vector"><path id="path11_fill" data-name="path11 fill" class="cls-1" d="M58.88,116.08h5.81A3.31,3.31,0,0,0,68,112.78V107H58.76v9.09Z"/></g><g id="Vector-6" data-name="Vector"><path id="path12_fill" data-name="path12 fill" class="cls-1" d="M55.91,107h-7.7v9.21h7.7Z"/></g></g></g><g id="bg"><path id="path13_fill" data-name="path13 fill" class="cls-2" d="M0,0H240V125H0Z"/></g></g></g></g></g></g></svg>