<svg width="240" height="125" viewBox="0 0 240 125" version="1.1" xmlns="http://www.w3.org/2000/svg" xmlns:xlink="http://www.w3.org/1999/xlink">
<title>ledger</title>
<desc>Created using Figma</desc>
<g id="Canvas" transform="translate(1516 -989)">
<g id="ledger">
<g id="LEDGER">
<use xlink:href="#path0_fill" transform="translate(-1434.21 1078.81)" fill="#FFFFFF"/>
<use xlink:href="#path1_fill" transform="translate(-1434.21 1078.81)" fill="#FFFFFF"/>
<use xlink:href="#path2_fill" transform="translate(-1434.21 1078.81)" fill="#FFFFFF"/>
<use xlink:href="#path3_fill" transform="translate(-1434.21 1078.81)" fill="#FFFFFF"/>
<use xlink:href="#path4_fill" transform="translate(-1434.21 1078.81)" fill="#FFFFFF"/>
<use xlink:href="#path5_fill" transform="translate(-1434.21 1078.81)" fill="#FFFFFF"/>
<mask id="mask0_outline_out">
<rect id="mask0_outline_inv" fill="white" x="-1" y="-1" width="122" height="23" transform="translate(-1434.21 1078.81)"/>
<use xlink:href="#path0_fill" fill="black" transform="translate(-1434.21 1078.81)"/>
<use xlink:href="#path1_fill" fill="black" transform="translate(-1434.21 1078.81)"/>
<use xlink:href="#path2_fill" fill="black" transform="translate(-1434.21 1078.81)"/>
<use xlink:href="#path3_fill" fill="black" transform="translate(-1434.21 1078.81)"/>
<use xlink:href="#path4_fill" fill="black" transform="translate(-1434.21 1078.81)"/>
<use xlink:href="#path5_fill" fill="black" transform="translate(-1434.21 1078.81)"/>
</mask>
<g mask="url(#mask0_outline_out)">
<use xlink:href="#path6_stroke_2x" transform="translate(-1434.21 1078.81)" fill="#FFFFFF"/>
</g>
</g>
<g id="Group">
<g id="Group">
<g id="Vector">
<use xlink:href="#path7_fill" transform="translate(-1480 1073.2)" fill="#FFFFFF"/>
</g>
<g id="Vector">
<use xlink:href="#path8_fill" transform="translate(-1480 1085.36)" fill="#FFFFFF"/>
</g>
<g id="Vector">
<use xlink:href="#path9_fill" transform="translate(-1480 1095.87)" fill="#FFFFFF"/>
</g>
<g id="Vector">
<use xlink:href="#path10_fill" transform="translate(-1467.79 1073.2)" fill="#FFFFFF"/>
</g>
<g id="Vector">
<use xlink:href="#path11_fill" transform="translate(-1457.24 1095.99)" fill="#FFFFFF"/>
</g>
<g id="Vector">
<use xlink:href="#path12_fill" transform="translate(-1467.79 1095.99)" fill="#FFFFFF"/>
</g>
</g>
</g>
<g id="bg">
<use xlink:href="#path13_fill" transform="translate(-1516 989)" fill="#FFFFFF" fill-opacity="0.01"/>
</g>
</g>
</g>
<defs>
<path id="path0_fill" d="M 0 0.252L 5.264 0.252L 5.264 15.932L 13.692 15.932L 13.692 20.188L 0 20.188L 0 0.252Z"/>
<path id="path1_fill" d="M 18.1748 0.252L 32.3988 0.252L 32.3988 4.284L 23.2988 4.284L 23.2988 8.036L 31.8108 8.036L 31.8108 12.068L 23.2988 12.068L 23.2988 16.156L 32.3988 16.156L 32.3988 20.188L 18.1748 20.188L 18.1748 0.252Z"/>
<path id="path2_fill" d="M 37.0333 0.252L 45.1813 0.252C 47.3839 0.252 49.2786 0.653335 50.8653 1.456C 52.4706 2.24 53.6933 3.37867 54.5333 4.872C 55.3919 6.36533 55.8213 8.13867 55.8213 10.192C 55.8213 12.264 55.4013 14.056 54.5613 15.568C 53.7213 17.0613 52.4986 18.2093 50.8933 19.012C 49.3066 19.796 47.4026 20.188 45.1813 20.188L 37.0333 20.188L 37.0333 0.252ZM 44.8173 15.988C 46.7586 15.988 48.2053 15.512 49.1573 14.56C 50.1279 13.5893 50.6133 12.1333 50.6133 10.192C 50.6133 6.36533 48.6813 4.452 44.8173 4.452L 42.2973 4.452L 42.2973 15.988L 44.8173 15.988Z"/>
<path id="path3_fill" d="M 78.5643 8.932L 78.5643 18.928C 77.5003 19.4133 76.3056 19.7867 74.9803 20.048C 73.6736 20.3093 72.3296 20.44 70.9483 20.44C 68.7829 20.44 66.8976 20.0293 65.2923 19.208C 63.7056 18.3867 62.4829 17.2107 61.6243 15.68C 60.7656 14.1307 60.3363 12.3013 60.3363 10.192C 60.3363 8.13867 60.7656 6.34667 61.6243 4.816C 62.4829 3.26667 63.6963 2.08134 65.2643 1.26C 66.8323 0.420002 68.6616 0 70.7523 0C 72.1896 0 73.5429 0.186667 74.8123 0.560001C 76.1003 0.933334 77.1456 1.44667 77.9483 2.1L 76.2963 5.824C 75.3816 5.22667 74.4949 4.79733 73.6363 4.536C 72.7963 4.256 71.8909 4.116 70.9203 4.116C 69.1469 4.116 67.8216 4.62 66.9443 5.628C 66.0856 6.61733 65.6563 8.13867 65.6563 10.192C 65.6563 12.32 66.1043 13.8973 67.0003 14.924C 67.9149 15.9507 69.3149 16.464 71.2003 16.464C 72.0776 16.464 72.9549 16.3707 73.8323 16.184L 73.8323 12.488L 70.3603 12.488L 70.3603 8.932L 78.5643 8.932Z"/>
<path id="path4_fill" d="M 83.8556 0.252L 98.0796 0.252L 98.0796 4.284L 88.9796 4.284L 88.9796 8.036L 97.4916 8.036L 97.4916 12.068L 88.9796 12.068L 88.9796 16.156L 98.0796 16.156L 98.0796 20.188L 83.8556 20.188L 83.8556 0.252Z"/>
<path id="path5_fill" d="M 120.046 20.188L 114.474 20.188L 111.898 13.552C 111.599 12.8053 110.899 12.432 109.798 12.432L 107.894 12.432L 107.894 20.188L 102.714 20.188L 102.714 0.252L 111.982 0.252C 114.39 0.252 116.201 0.774668 117.414 1.82C 118.627 2.84667 119.234 4.32133 119.234 6.244C 119.234 7.588 118.87 8.75467 118.142 9.744C 117.433 10.7147 116.425 11.4053 115.118 11.816C 115.678 11.928 116.182 12.1893 116.63 12.6C 117.078 13.0107 117.433 13.5613 117.694 14.252L 120.046 20.188ZM 111.142 8.512C 112.262 8.512 113.074 8.344 113.578 8.008C 114.082 7.65333 114.334 7.112 114.334 6.384C 114.334 5.61867 114.082 5.068 113.578 4.732C 113.093 4.396 112.281 4.228 111.142 4.228L 107.838 4.228L 107.838 8.512L 111.142 8.512Z"/>
<path id="path6_stroke_2x" d="M 0 0.252L 0 -0.348L -0.6 -0.348L -0.6 0.252L 0 0.252ZM 5.264 0.252L 5.864 0.252L 5.864 -0.348L 5.264 -0.348L 5.264 0.252ZM 5.264 15.932L 4.664 15.932L 4.664 16.532L 5.264 16.532L 5.264 15.932ZM 13.692 15.932L 14.292 15.932L 14.292 15.332L 13.692 15.332L 13.692 15.932ZM 13.692 20.188L 13.692 20.788L 14.292 20.788L 14.292 20.188L 13.692 20.188ZM 0 20.188L -0.6 20.188L -0.6 20.788L 0 20.788L 0 20.188ZM 18.1748 0.252L 18.1748 -0.348L 17.5748 -0.348L 17.5748 0.252L 18.1748 0.252ZM 32.3988 0.252L 32.9988 0.252L 32.9988 -0.348L 32.3988 -0.348L 32.3988 0.252ZM 32.3988 4.284L 32.3988 4.884L 32.9988 4.884L 32.9988 4.284L 32.3988 4.284ZM 23.2988 4.284L 23.2988 3.684L 22.6988 3.684L 22.6988 4.284L 23.2988 4.284ZM 23.2988 8.036L 22.6988 8.036L 22.6988 8.636L 23.2988 8.636L 23.2988 8.036ZM 31.8108 8.036L 32.4108 8.036L 32.4108 7.436L 31.8108 7.436L 31.8108 8.036ZM 31.8108 12.068L 31.8108 12.668L 32.4108 12.668L 32.4108 12.068L 31.8108 12.068ZM 23.2988 12.068L 23.2988 11.468L 22.6988 11.468L 22.6988 12.068L 23.2988 12.068ZM 23.2988 16.156L 22.6988 16.156L 22.6988 16.756L 23.2988 16.756L 23.2988 16.156ZM 32.3988 16.156L 32.9988 16.156L 32.9988 15.556L 32.3988 15.556L 32.3988 16.156ZM 32.3988 20.188L 32.3988 20.788L 32.9988 20.788L 32.9988 20.188L 32.3988 20.188ZM 18.1748 20.188L 17.5748 20.188L 17.5748 20.788L 18.1748 20.788L 18.1748 20.188ZM 37.0333 0.252L 37.0333 -0.348L 36.4333 -0.348L 36.4333 0.252L 37.0333 0.252ZM 50.8653 1.456L 50.5944 1.99144L 50.602 1.99514L 50.8653 1.456ZM 54.5333 4.872L 54.0103 5.16617L 54.0131 5.17108L 54.5333 4.872ZM 54.5613 15.568L 55.0842 15.8622L 55.0858 15.8594L 54.5613 15.568ZM 50.8933 19.012L 51.1591 19.5499L 51.1616 19.5487L 50.8933 19.012ZM 37.0333 20.188L 36.4333 20.188L 36.4333 20.788L 37.0333 20.788L 37.0333 20.188ZM 49.1573 14.56L 48.733 14.1357L 48.733 14.1357L 49.1573 14.56ZM 42.2973 4.452L 42.2973 3.852L 41.6973 3.852L 41.6973 4.452L 42.2973 4.452ZM 42.2973 15.988L 41.6973 15.988L 41.6973 16.588L 42.2973 16.588L 42.2973 15.988ZM 78.5643 8.932L 79.1643 8.932L 79.1643 8.332L 78.5643 8.332L 78.5643 8.932ZM 78.5643 18.928L 78.8133 19.4739L 79.1643 19.3138L 79.1643 18.928L 78.5643 18.928ZM 74.9803 20.048L 74.8642 19.4593L 74.8626 19.4597L 74.9803 20.048ZM 65.2923 19.208L 65.0165 19.7408L 65.019 19.7421L 65.2923 19.208ZM 61.6243 15.68L 61.0995 15.9709L 61.101 15.9736L 61.6243 15.68ZM 61.6243 4.816L 62.1476 5.10955L 62.1491 5.10685L 61.6243 4.816ZM 65.2643 1.26L 65.5427 1.79152L 65.5476 1.78889L 65.2643 1.26ZM 74.8123 0.560001L 74.643 1.13562L 74.6452 1.13628L 74.8123 0.560001ZM 77.9483 2.1L 78.4967 2.3433L 78.6827 1.92414L 78.327 1.63466L 77.9483 2.1ZM 76.2963 5.824L 75.9682 6.32636L 76.5587 6.71201L 76.8447 6.0673L 76.2963 5.824ZM 73.6363 4.536L 73.4465 5.10521L 73.454 5.10771L 73.4616 5.11L 73.6363 4.536ZM 66.9443 5.628L 66.4917 5.23409L 66.4911 5.23472L 66.9443 5.628ZM 67.0003 14.924L 66.5482 15.3185L 66.5523 15.3231L 67.0003 14.924ZM 73.8323 16.184L 73.9571 16.7709L 74.4323 16.6698L 74.4323 16.184L 73.8323 16.184ZM 73.8323 12.488L 74.4323 12.488L 74.4323 11.888L 73.8323 11.888L 73.8323 12.488ZM 70.3603 12.488L 69.7603 12.488L 69.7603 13.088L 70.3603 13.088L 70.3603 12.488ZM 70.3603 8.932L 70.3603 8.332L 69.7603 8.332L 69.7603 8.932L 70.3603 8.932ZM 83.8556 0.252L 83.8556 -0.348L 83.2556 -0.348L 83.2556 0.252L 83.8556 0.252ZM 98.0796 0.252L 98.6796 0.252L 98.6796 -0.348L 98.0796 -0.348L 98.0796 0.252ZM 98.0796 4.284L 98.0796 4.884L 98.6796 4.884L 98.6796 4.284L 98.0796 4.284ZM 88.9796 4.284L 88.9796 3.684L 88.3796 3.684L 88.3796 4.284L 88.9796 4.284ZM 88.9796 8.036L 88.3796 8.036L 88.3796 8.636L 88.9796 8.636L 88.9796 8.036ZM 97.4916 8.036L 98.0916 8.036L 98.0916 7.436L 97.4916 7.436L 97.4916 8.036ZM 97.4916 12.068L 97.4916 12.668L 98.0916 12.668L 98.0916 12.068L 97.4916 12.068ZM 88.9796 12.068L 88.9796 11.468L 88.3796 11.468L 88.3796 12.068L 88.9796 12.068ZM 88.9796 16.156L 88.3796 16.156L 88.3796 16.756L 88.9796 16.756L 88.9796 16.156ZM 98.0796 16.156L 98.6796 16.156L 98.6796 15.556L 98.0796 15.556L 98.0796 16.156ZM 98.0796 20.188L 98.0796 20.788L 98.6796 20.788L 98.6796 20.188L 98.0796 20.188ZM 83.8556 20.188L 83.2556 20.188L 83.2556 20.788L 83.8556 20.788L 83.8556 20.188ZM 120.046 20.188L 120.046 20.788L 120.929 20.788L 120.604 19.967L 120.046 20.188ZM 114.474 20.188L 113.915 20.4051L 114.063 20.788L 114.474 20.788L 114.474 20.188ZM 111.898 13.552L 112.457 13.3349L 112.455 13.3292L 111.898 13.552ZM 107.894 12.432L 107.894 11.832L 107.294 11.832L 107.294 12.432L 107.894 12.432ZM 107.894 20.188L 107.894 20.788L 108.494 20.788L 108.494 20.188L 107.894 20.188ZM 102.714 20.188L 102.114 20.188L 102.114 20.788L 102.714 20.788L 102.714 20.188ZM 102.714 0.252L 102.714 -0.348L 102.114 -0.348L 102.114 0.252L 102.714 0.252ZM 117.414 1.82L 117.022 2.27458L 117.026 2.27803L 117.414 1.82ZM 118.142 9.744L 117.659 9.38839L 117.658 9.38999L 118.142 9.744ZM 115.118 11.816L 114.938 11.2436L 115 12.4043L 115.118 11.816ZM 116.63 12.6L 116.225 13.0423L 116.225 13.0423L 116.63 12.6ZM 117.694 14.252L 117.133 14.4644L 117.136 14.473L 117.694 14.252ZM 113.578 8.008L 113.911 8.50723L 113.917 8.50304L 113.923 8.49868L 113.578 8.008ZM 113.578 4.732L 113.236 5.22539L 113.245 5.23123L 113.578 4.732ZM 107.838 4.228L 107.838 3.628L 107.238 3.628L 107.238 4.228L 107.838 4.228ZM 107.838 8.512L 107.238 8.512L 107.238 9.112L 107.838 9.112L 107.838 8.512ZM 0 0.852L 5.264 0.852L 5.264 -0.348L 0 -0.348L 0 0.852ZM 4.664 0.252L 4.664 15.932L 5.864 15.932L 5.864 0.252L 4.664 0.252ZM 5.264 16.532L 13.692 16.532L 13.692 15.332L 5.264 15.332L 5.264 16.532ZM 13.092 15.932L 13.092 20.188L 14.292 20.188L 14.292 15.932L 13.092 15.932ZM 13.692 19.588L 0 19.588L 0 20.788L 13.692 20.788L 13.692 19.588ZM 0.6 20.188L 0.6 0.252L -0.6 0.252L -0.6 20.188L 0.6 20.188ZM 18.1748 0.852L 32.3988 0.852L 32.3988 -0.348L 18.1748 -0.348L 18.1748 0.852ZM 31.7988 0.252L 31.7988 4.284L 32.9988 4.284L 32.9988 0.252L 31.7988 0.252ZM 32.3988 3.684L 23.2988 3.684L 23.2988 4.884L 32.3988 4.884L 32.3988 3.684ZM 22.6988 4.284L 22.6988 8.036L 23.8988 8.036L 23.8988 4.284L 22.6988 4.284ZM 23.2988 8.636L 31.8108 8.636L 31.8108 7.436L 23.2988 7.436L 23.2988 8.636ZM 31.2108 8.036L 31.2108 12.068L 32.4108 12.068L 32.4108 8.036L 31.2108 8.036ZM 31.8108 11.468L 23.2988 11.468L 23.2988 12.668L 31.8108 12.668L 31.8108 11.468ZM 22.6988 12.068L 22.6988 16.156L 23.8988 16.156L 23.8988 12.068L 22.6988 12.068ZM 23.2988 16.756L 32.3988 16.756L 32.3988 15.556L 23.2988 15.556L 23.2988 16.756ZM 31.7988 16.156L 31.7988 20.188L 32.9988 20.188L 32.9988 16.156L 31.7988 16.156ZM 32.3988 19.588L 18.1748 19.588L 18.1748 20.788L 32.3988 20.788L 32.3988 19.588ZM 18.7748 20.188L 18.7748 0.252L 17.5748 0.252L 17.5748 20.188L 18.7748 20.188ZM 37.0333 0.852L 45.1813 0.852L 45.1813 -0.348L 37.0333 -0.348L 37.0333 0.852ZM 45.1813 0.852C 47.3214 0.848735 49.0793 1.21928 50.5944 1.99139L 51.1361 0.920609C 49.4779 0.0873907 47.4465 -0.344735 45.1813 -0.348L 45.1813 0.852ZM 50.602 1.99514C 52.1308 2.7345 53.2217 3.74969 54.0103 5.16616L 55.0562 4.57784C 54.1648 3.00764 52.8104 1.7455 51.1286 0.91686L 50.602 1.99514ZM 54.0131 5.17108C 54.8347 6.58771 55.2255 8.20976 55.2213 10.192L 56.4213 10.192C 56.4171 8.06757 55.9492 6.14296 55.0534 4.57292L 54.0131 5.17108ZM 55.2213 10.192C 55.2253 12.1951 54.8416 13.8398 54.0368 15.2766L 55.0858 15.8594C 55.961 14.2722 56.4173 12.3329 56.4213 10.192L 55.2213 10.192ZM 54.0383 15.2738C 53.249 16.6913 52.1555 17.7171 50.625 18.4753L 51.1616 19.5487C 52.8417 18.7015 54.1936 17.4314 55.0842 15.8622L 54.0383 15.2738ZM 50.6275 18.4741C 49.1116 19.2286 47.3418 19.5911 45.1813 19.588L 45.1813 20.788C 47.4634 20.7849 49.5016 20.3634 51.1591 19.5499L 50.6275 18.4741ZM 45.1813 19.588L 37.0333 19.588L 37.0333 20.788L 45.1813 20.788L 45.1813 19.588ZM 37.6333 20.188L 37.6333 0.252L 36.4333 0.252L 36.4333 20.188L 37.6333 20.188ZM 44.8173 16.588C 46.8472 16.588 48.4754 16.0904 49.5815 14.9843L 48.733 14.1357C 47.9352 14.9336 46.6701 15.388 44.8173 15.388L 44.8173 16.588ZM 49.5815 14.9843C 50.7044 13.8614 51.2133 12.2258 51.2133 10.192L 50.0133 10.192C 50.0133 12.0408 49.5515 13.3173 48.733 14.1357L 49.5815 14.9843ZM 51.2133 10.192C 51.2133 8.1847 50.706 6.56934 49.5865 5.46068C 48.4681 4.35309 46.8403 3.852 44.8173 3.852L 44.8173 5.052C 46.6583 5.052 47.9285 5.50758 48.7421 6.31332C 49.5546 7.11799 50.0133 8.37263 50.0133 10.192L 51.2133 10.192ZM 44.8173 3.852L 42.2973 3.852L 42.2973 5.052L 44.8173 5.052L 44.8173 3.852ZM 41.6973 4.452L 41.6973 15.988L 42.8973 15.988L 42.8973 4.452L 41.6973 4.452ZM 42.2973 16.588L 44.8173 16.588L 44.8173 15.388L 42.2973 15.388L 42.2973 16.588ZM 77.9643 8.932L 77.9643 18.928L 79.1643 18.928L 79.1643 8.932L 77.9643 8.932ZM 78.3153 18.3821C 77.2859 18.8529 76.1579 19.2051 74.8642 19.4593L 75.0964 20.6367C 76.4533 20.3682 77.7147 19.9737 78.8133 19.4739L 78.3153 18.3821ZM 74.8626 19.4597C 73.5856 19.7158 72.3005 19.8407 70.9483 19.84L 70.9483 21.04C 72.3587 21.0393 73.7616 20.9028 75.0979 20.6363L 74.8626 19.4597ZM 70.9483 19.84C 68.8472 19.8434 67.0998 19.4644 65.5656 18.6739L 65.019 19.7421C 66.6954 20.5942 68.7187 21.0366 70.9483 21.04L 70.9483 19.84ZM 65.5681 18.6752C 64.0551 17.899 62.9577 16.8437 62.1476 15.3865L 61.101 15.9736C 62.0082 17.5776 63.3561 18.8744 65.0165 19.7408L 65.5681 18.6752ZM 62.1491 15.3892C 61.3254 13.9147 60.9323 12.2323 60.9363 10.192L 59.7363 10.192C 59.7403 12.3703 60.2058 14.3467 61.0995 15.9709L 62.1491 15.3892ZM 60.9363 10.192C 60.9321 8.20905 61.3243 6.56542 62.1476 5.10955L 61.101 4.52245C 60.2069 6.12791 59.7404 8.06828 59.7363 10.192L 60.9363 10.192ZM 62.1491 5.10685C 62.96 3.63053 64.0489 2.56682 65.5427 1.7915L 64.9859 0.728502C 63.3437 1.59585 62.0059 2.9028 61.0995 4.52515L 62.1491 5.10685ZM 65.5476 1.78889C 67.0429 0.981805 68.7292 0.596184 70.7523 0.6L 70.7523 -0.6C 68.5941 -0.596184 66.6216 -0.141801 64.9809 0.731113L 65.5476 1.78889ZM 70.7523 0.6C 72.1485 0.598592 73.417 0.77329 74.643 1.13562L 74.9816 -0.0156178C 73.6689 -0.399956 72.2307 -0.598592 70.7523 -0.6L 70.7523 0.6ZM 74.6452 1.13628C 75.8837 1.49288 76.8219 1.95186 77.5695 2.56534L 78.327 1.63466C 77.4693 0.941473 76.3169 0.373786 74.9793 -0.0162785L 74.6452 1.13628ZM 77.3998 1.8567L 75.7478 5.5807L 76.8447 6.0673L 78.4967 2.3433L 77.3998 1.8567ZM 76.6244 5.32164C 75.677 4.70441 74.7137 4.23863 73.811 3.962L 73.4616 5.11C 74.2762 5.35604 75.0862 5.74892 75.9682 6.32636L 76.6244 5.32164ZM 73.826 3.96679C 72.9375 3.67286 71.9369 3.51776 70.9203 3.516L 70.9203 4.716C 71.845 4.71424 72.6551 4.83915 73.4465 5.10521L 73.826 3.96679ZM 70.9203 3.516C 69.0335 3.516 67.5172 4.05579 66.4917 5.23409L 67.3969 6.02192C 68.126 5.18421 69.2604 4.716 70.9203 4.716L 70.9203 3.516ZM 66.4911 5.23472C 65.4968 6.38038 65.0563 8.07216 65.0563 10.192L 66.2563 10.192C 66.2563 8.20518 66.6744 6.85429 67.3974 6.02128L 66.4911 5.23472ZM 65.0563 10.192C 65.0563 12.3874 65.5158 14.1356 66.5482 15.3185L 67.4523 14.5295C 66.6927 13.6591 66.2563 12.2526 66.2563 10.192L 65.0563 10.192ZM 66.5523 15.3231C 67.6184 16.5198 69.21 17.064 71.2003 17.064L 71.2003 15.864C 69.4199 15.864 68.2115 15.3815 67.4483 14.5249L 66.5523 15.3231ZM 71.2003 17.064C 72.1094 17.0632 73.0492 16.9632 73.9571 16.7709L 73.7074 15.5971C 72.8606 15.7781 72.0458 15.8648 71.2003 15.864L 71.2003 17.064ZM 74.4323 16.184L 74.4323 12.488L 73.2323 12.488L 73.2323 16.184L 74.4323 16.184ZM 73.8323 11.888L 70.3603 11.888L 70.3603 13.088L 73.8323 13.088L 73.8323 11.888ZM 70.9603 12.488L 70.9603 8.932L 69.7603 8.932L 69.7603 12.488L 70.9603 12.488ZM 70.3603 9.532L 78.5643 9.532L 78.5643 8.332L 70.3603 8.332L 70.3603 9.532ZM 83.8556 0.852L 98.0796 0.852L 98.0796 -0.348L 83.8556 -0.348L 83.8556 0.852ZM 97.4796 0.252L 97.4796 4.284L 98.6796 4.284L 98.6796 0.252L 97.4796 0.252ZM 98.0796 3.684L 88.9796 3.684L 88.9796 4.884L 98.0796 4.884L 98.0796 3.684ZM 88.3796 4.284L 88.3796 8.036L 89.5796 8.036L 89.5796 4.284L 88.3796 4.284ZM 88.9796 8.636L 97.4916 8.636L 97.4916 7.436L 88.9796 7.436L 88.9796 8.636ZM 96.8916 8.036L 96.8916 12.068L 98.0916 12.068L 98.0916 8.036L 96.8916 8.036ZM 97.4916 11.468L 88.9796 11.468L 88.9796 12.668L 97.4916 12.668L 97.4916 11.468ZM 88.3796 12.068L 88.3796 16.156L 89.5796 16.156L 89.5796 12.068L 88.3796 12.068ZM 88.9796 16.756L 98.0796 16.756L 98.0796 15.556L 88.9796 15.556L 88.9796 16.756ZM 97.4796 16.156L 97.4796 20.188L 98.6796 20.188L 98.6796 16.156L 97.4796 16.156ZM 98.0796 19.588L 83.8556 19.588L 83.8556 20.788L 98.0796 20.788L 98.0796 19.588ZM 84.4556 20.188L 84.4556 0.252L 83.2556 0.252L 83.2556 20.188L 84.4556 20.188ZM 120.046 19.588L 114.474 19.588L 114.474 20.788L 120.046 20.788L 120.046 19.588ZM 115.033 19.9709L 112.457 13.3349L 111.339 13.7691L 113.915 20.4051L 115.033 19.9709ZM 112.455 13.3292C 112.259 12.8628 111.87 12.427 111.431 12.1826C 110.967 11.9351 110.411 11.832 109.798 11.832L 109.798 13.032C 110.286 13.032 110.631 13.1156 110.867 13.2414C 111.128 13.3703 111.239 13.4945 111.341 13.7748L 112.455 13.3292ZM 109.798 11.832L 107.894 11.832L 107.894 13.032L 109.798 13.032L 109.798 11.832ZM 107.294 12.432L 107.294 20.188L 108.494 20.188L 108.494 12.432L 107.294 12.432ZM 107.894 19.588L 102.714 19.588L 102.714 20.788L 107.894 20.788L 107.894 19.588ZM 103.314 20.188L 103.314 0.252L 102.114 0.252L 102.114 20.188L 103.314 20.188ZM 102.714 0.852L 111.982 0.852L 111.982 -0.348L 102.714 -0.348L 102.714 0.852ZM 111.982 0.852C 114.316 0.852 115.961 1.36038 117.022 2.27457L 117.806 1.36544C 116.44 0.188953 114.464 -0.348 111.982 -0.348L 111.982 0.852ZM 117.026 2.27803C 118.077 3.16684 118.634 4.45721 118.634 6.244L 119.834 6.244C 119.834 4.18545 119.178 2.5265 117.802 1.36197L 117.026 2.27803ZM 118.634 6.244C 118.641 7.49762 118.335 8.48379 117.659 9.38839L 118.625 10.0996C 119.405 9.02554 119.827 7.67838 119.834 6.244L 118.634 6.244ZM 117.658 9.38999C 117.015 10.284 116.162 10.8657 114.938 11.2436L 115.298 12.3884C 116.687 11.9449 117.85 11.1453 118.626 10.098L 117.658 9.38999ZM 115 12.4043C 115.479 12.4941 115.838 12.6811 116.225 13.0423L 117.035 12.1577C 116.526 11.6976 115.877 11.3619 115.236 11.2277L 115 12.4043ZM 116.225 13.0423C 116.619 13.3974 116.897 13.8314 117.133 14.4643L 118.255 14.0397C 117.968 13.2912 117.537 12.6239 117.035 12.1577L 116.225 13.0423ZM 117.136 14.473L 119.488 20.409L 120.604 19.967L 118.252 14.031L 117.136 14.473ZM 111.142 9.112C 112.294 9.112 113.255 8.94441 113.911 8.50723L 113.245 7.50877C 112.893 7.74359 112.23 7.912 111.142 7.912L 111.142 9.112ZM 113.923 8.49868C 114.617 8.01022 114.934 7.26681 114.934 6.384L 113.734 6.384C 113.734 6.9572 113.547 7.29645 113.233 7.51732L 113.923 8.49868ZM 114.934 6.384C 114.934 5.47775 114.626 4.70952 113.911 4.23277L 113.245 5.23123C 113.538 5.42648 113.734 5.75958 113.734 6.384L 114.934 6.384ZM 113.92 4.23869C 113.277 3.79362 112.307 3.628 111.142 3.628L 111.142 4.828C 112.254 4.828 112.909 4.99838 113.237 5.22532L 113.92 4.23869ZM 111.142 3.628L 107.838 3.628L 107.838 4.828L 111.142 4.828L 111.142 3.628ZM 107.238 4.228L 107.238 8.512L 108.438 8.512L 108.438 4.228L 107.238 4.228ZM 107.838 9.112L 111.142 9.112L 111.142 7.912L 107.838 7.912L 107.838 9.112Z"/>
<path id="path7_fill" d="M 9.24444 0L 3.31852 0C 1.54074 0 0 1.53506 0 3.30627L 0 9.09225L 9.24444 9.09225L 9.24444 0Z"/>
<path id="path8_fill" d="M 9.24444 0L 0 0L 0 7.67528L 9.24444 7.67528L 9.24444 0Z"/>
<path id="path9_fill" d="M 0 0.11808L 0 5.90406C 0 7.67528 1.54074 9.21033 3.31852 9.21033L 9.12593 9.21033L 9.12593 9.00888e-07L 0 9.00888e-07L 0 0.11808Z"/>
<path id="path10_fill" d="M 16.4741 0L 2.26056e-07 0L 2.26056e-07 19.8376L 19.7926 19.8376L 19.7926 3.30627C 19.7926 1.53506 18.2519 0 16.4741 0Z"/>
<path id="path11_fill" d="M 0.118518 9.09225L 5.92593 9.09225C 7.82222 9.09225 9.24444 7.5572 9.24444 5.78598L 9.24444 -9.00888e-07L 9.04225e-07 -9.00888e-07L 9.04225e-07 9.09225L 0.118518 9.09225Z"/>
<path id="path12_fill" d="M 7.7037 0L 0 0L 0 9.21033L 7.7037 9.21033L 7.7037 0Z"/>
<path id="path13_fill" d="M 0 0L 240 0L 240 125L 0 125L 0 0Z"/>
</defs>
</svg>
