<?xml version="1.0" encoding="UTF-8"?>
<svg width="17px" height="17px" viewBox="0 0 17 17" version="1.1" xmlns="http://www.w3.org/2000/svg" xmlns:xlink="http://www.w3.org/1999/xlink">
    <!-- Generator: Sketch 48.2 (47327) - http://www.bohemiancoding.com/sketch -->
    <title>link</title>
    <desc>Created with Sketch.</desc>
    <defs></defs>
    <g id="G_ImportAddress_2_Trezor" stroke="none" stroke-width="1" fill="none" fill-rule="evenodd" transform="translate(-1152.000000, -664.000000)">
        <g id="Group-12" transform="translate(220.000000, 73.000000)" fill="#FFFFFF" fill-rule="nonzero">
            <g id="Group-3" transform="translate(48.000000, 570.000000)">
                <g id="link" transform="translate(884.000000, 21.000000)">
                    <path d="M9.682,10.998 C8.739,10.998 7.796,10.639 7.078,9.921 C6.883,9.726 6.883,9.409 7.078,9.214 C7.273,9.019 7.59,9.019 7.785,9.214 C8.831,10.26 10.532,10.26 11.578,9.214 L15.214,5.578 C16.26,4.532 16.26,2.831 15.214,1.785 C14.168,0.739 12.467,0.739 11.421,1.785 L8.353,4.853 C8.158,5.048 7.841,5.048 7.646,4.853 C7.451,4.658 7.451,4.341 7.646,4.146 L10.714,1.078 C12.15,-0.358 14.486,-0.358 15.921,1.078 C17.356,2.514 17.357,4.85 15.921,6.285 L12.285,9.921 C11.567,10.639 10.624,10.998 9.681,10.998 L9.682,10.998 Z" id="Shape"></path>
                    <path d="M3.682,16.998 C2.739,16.998 1.796,16.639 1.078,15.921 C-0.358,14.485 -0.358,12.149 1.078,10.714 L4.714,7.078 C6.15,5.642 8.486,5.642 9.921,7.078 C10.116,7.273 10.116,7.59 9.921,7.785 C9.726,7.98 9.409,7.98 9.214,7.785 C8.168,6.739 6.467,6.739 5.421,7.785 L1.785,11.421 C0.739,12.467 0.739,14.168 1.785,15.214 C2.831,16.26 4.532,16.26 5.578,15.214 L8.646,12.146 C8.841,11.951 9.158,11.951 9.353,12.146 C9.548,12.341 9.548,12.658 9.353,12.853 L6.285,15.921 C5.567,16.639 4.624,16.998 3.681,16.998 L3.682,16.998 Z" id="Shape"></path>
                </g>
            </g>
        </g>
    </g>
</svg>