<?xml version="1.0" encoding="UTF-8"?>
<svg width="12px" height="15px" viewBox="0 0 12 15" version="1.1" xmlns="http://www.w3.org/2000/svg" xmlns:xlink="http://www.w3.org/1999/xlink">
    <!-- Generator: Sketch 50.2 (55047) - http://www.bohemiancoding.com/sketch -->
    <title></title>
    <desc>Created with Sketch.</desc>
    <defs></defs>
    <g id="Desktop---Swap-" stroke="none" stroke-width="1" fill="none" fill-rule="evenodd">
        <g id="Swap-ConfirmPopup2" transform="translate(-555.000000, -894.000000)" fill="#C1C8DB">
            <path d="M558.214286,901.285714 L563.357143,901.285714 L563.357143,899.357143 C563.357143,898.647318 563.106029,898.041297 562.603795,897.539062 C562.10156,897.036828 561.495539,896.785714 560.785714,896.785714 C560.075889,896.785714 559.469869,897.036828 558.967634,897.539062 C558.465399,898.041297 558.214286,898.647318 558.214286,899.357143 L558.214286,901.285714 Z M566.571429,902.25 L566.571429,908.035714 C566.571429,908.303573 566.47768,908.531249 566.290179,908.71875 C566.102678,908.906251 565.875001,909 565.607143,909 L555.964286,909 C555.696427,909 555.468751,908.906251 555.28125,908.71875 C555.093749,908.531249 555,908.303573 555,908.035714 L555,902.25 C555,901.982142 555.093749,901.754465 555.28125,901.566964 C555.468751,901.379463 555.696427,901.285714 555.964286,901.285714 L556.285714,901.285714 L556.285714,899.357143 C556.285714,898.124994 556.727674,897.066969 557.611607,896.183036 C558.49554,895.299103 559.553565,894.857143 560.785714,894.857143 C562.017863,894.857143 563.075888,895.299103 563.959821,896.183036 C564.843754,897.066969 565.285714,898.124994 565.285714,899.357143 L565.285714,901.285714 L565.607143,901.285714 C565.875001,901.285714 566.102678,901.379463 566.290179,901.566964 C566.47768,901.754465 566.571429,901.982142 566.571429,902.25 Z" id=""></path>
        </g>
    </g>
</svg>