<?xml version="1.0" encoding="UTF-8"?>
<svg width="22px" height="15px" viewBox="0 0 22 15" version="1.1" xmlns="http://www.w3.org/2000/svg" xmlns:xlink="http://www.w3.org/1999/xlink">
    <!-- Generator: Sketch 50.2 (55047) - http://www.bohemiancoding.com/sketch -->
    <title>Shape</title>
    <desc>Created with Sketch.</desc>
    <defs></defs>
    <g id="Home-Swap-" stroke="none" stroke-width="1" fill="none" fill-rule="evenodd">
        <g id="Swap-ConfirmPopup-step-2" transform="translate(-883.000000, -946.000000)" fill="#BEC5D9" fill-rule="nonzero">
            <path d="M894,946 C889,946 884.73,949.11 883,953.5 C884.73,957.89 889,961 894,961 C899,961 903.27,957.89 905,953.5 C903.27,949.11 899,946 894,946 Z M894,958.5 C891.24,958.5 889,956.26 889,953.5 C889,950.74 891.24,948.5 894,948.5 C896.76,948.5 899,950.74 899,953.5 C899,956.26 896.76,958.5 894,958.5 Z M894,950.5 C892.34,950.5 891,951.84 891,953.5 C891,955.16 892.34,956.5 894,956.5 C895.66,956.5 897,955.16 897,953.5 C897,951.84 895.66,950.5 894,950.5 Z" id="Shape"></path>
        </g>
    </g>
</svg>