<?xml version="1.0" ?><svg baseProfile="tiny" height="24px" id="Layer_1" version="1.2" viewBox="0 0 24 24" width="24px" xml:space="preserve" xmlns="http://www.w3.org/2000/svg" xmlns:xlink="http://www.w3.org/1999/xlink"><path d="M17,10h-1V8c0-2.205-1.794-4-4-4S8,5.795,8,8v2H7c-1.103,0-2,0.896-2,2v7c0,1.104,0.897,2,2,2h10c1.103,0,2-0.896,2-2v-7  C19,10.896,18.103,10,17,10z M12,18.299c-0.719,0-1.3-0.58-1.3-1.299s0.581-1.301,1.3-1.301s1.3,0.582,1.3,1.301  S12.719,18.299,12,18.299z M14,11h-4V8c0-1.104,0.897-2,2-2s2,0.896,2,2V11z"/></svg>