<?xml version="1.0" encoding="UTF-8"?>
<svg width="16px" height="21px" viewBox="0 0 16 21" version="1.1" xmlns="http://www.w3.org/2000/svg" xmlns:xlink="http://www.w3.org/1999/xlink">
    <!-- Generator: Sketch 48.2 (47327) - http://www.bohemiancoding.com/sketch -->
    <title>ic_lock copy</title>
    <desc>Created with Sketch.</desc>
    <defs></defs>
    <g id="Artboard-5" stroke="none" stroke-width="1" fill="none" fill-rule="evenodd" transform="translate(-35.000000, -55.000000)">
        <g id="ic_lock-copy" transform="translate(31.000000, 54.000000)">
            <polygon id="Bounds" points="0 0 24 0 24 24 0 24"></polygon>
            <path d="M18,8 L17,8 L17,6 C17,3.24 14.76,1 12,1 C9.24,1 7,3.24 7,6 L7,8 L6,8 C4.9,8 4,8.9 4,10 L4,20 C4,21.1 4.9,22 6,22 L18,22 C19.1,22 20,21.1 20,20 L20,10 C20,8.9 19.1,8 18,8 L18,8 Z M12,17 C10.9,17 10,16.1 10,15 C10,13.9 10.9,13 12,13 C13.1,13 14,13.9 14,15 C14,16.1 13.1,17 12,17 L12,17 Z M15,8 L9,8 L9,6.03921569 C9,4.3627451 10.3451613,3 12,3 C13.6548387,3 15,4.3627451 15,6.03921569 L15,8 L15,8 Z" id="Icon" fill="#FFFFFF"></path>
        </g>
    </g>
</svg>