<svg width="114" height="62" viewBox="0 0 114 62" version="1.1" xmlns="http://www.w3.org/2000/svg" xmlns:xlink="http://www.w3.org/1999/xlink">
<title>logo</title>
<desc>Created using Figma</desc>
<g id="Canvas" transform="translate(-40 266)">
<rect x="40" y="-266" width="114" height="62" fill="#070C17"/>
<clipPath id="clip-0" clip-rule="evenodd">
<path d="M 6 -285L 1034 -285L 1034 615L 6 615L 6 -285Z" fill="#FFFFFF"/>
</clipPath>
<g id="not&#195;&#172;ications" clip-path="url(#clip-0)">
<path d="M 6 -285L 1034 -285L 1034 615L 6 615L 6 -285Z" fill="#FFFFFF"/>
<g id="top-bar-alt">
<g id="bg">
<use xlink:href="#path0_fill" transform="translate(6 -285)" fill="#FFFFFF"/>
</g>
<g id="logo">
<g id="Vector No Gradient 2">
<g id="Vector">
<use xlink:href="#path1_fill" transform="translate(55.1664 -240.414)" fill="#34908E"/>
<use xlink:href="#path2_stroke" transform="translate(55.1664 -240.414)" fill="#FFFFFF"/>
</g>
<g id="Vector">
<use xlink:href="#path3_fill" transform="translate(42.1138 -264.168)" fill="#5AB085"/>
<use xlink:href="#path4_stroke" transform="translate(42.1138 -264.168)" fill="#FFFFFF"/>
</g>
<g id="Vector">
<use xlink:href="#path5_fill" transform="translate(55.1664 -249.793)" fill="#BEDECD"/>
<use xlink:href="#path6_stroke" transform="translate(55.1664 -249.793)" fill="#FFFFFF"/>
</g>
<g id="Vector">
<use xlink:href="#path7_fill" transform="translate(54.9828 -264.168)" fill="#EDF7F3"/>
<use xlink:href="#path8_stroke" transform="translate(54.9828 -264.168)" fill="#FFFFFF"/>
</g>
<g id="Vector">
<use xlink:href="#path9_fill" transform="matrix(0.0228241 -0.9997 0.9997 0.022813 53.8377 -262.799)" fill="#424242"/>
<use xlink:href="#path10_stroke" transform="matrix(0.0228241 -0.9997 0.9997 0.022813 53.8377 -262.799)" fill="#FFFFFF"/>
</g>
<g id="Vector">
<use xlink:href="#path11_fill" transform="matrix(0.0228241 -0.9997 0.9997 0.022813 72.9463 -248.72)" fill="#424242"/>
<use xlink:href="#path12_stroke" transform="matrix(0.0228241 -0.9997 0.9997 0.022813 72.9463 -248.72)" fill="#FFFFFF"/>
</g>
<g id="Vector">
<use xlink:href="#path13_fill" transform="matrix(0.0228149 -0.9997 0.9997 0.0228038 41 -248.337)" fill="#424242"/>
<use xlink:href="#path14_stroke" transform="matrix(0.0228149 -0.9997 0.9997 0.0228038 41 -248.337)" fill="#FFFFFF"/>
</g>
<g id="Vector">
<use xlink:href="#path15_fill" transform="matrix(0.0228241 -0.9997 0.9997 0.022813 43.9468 -219.678)" fill="#424242"/>
<use xlink:href="#path16_stroke" transform="matrix(0.0228241 -0.9997 0.9997 0.022813 43.9468 -219.678)" fill="#FFFFFF"/>
</g>
<g id="Vector">
<use xlink:href="#path17_fill" transform="matrix(0.0228241 -0.9997 0.9997 0.022813 54.3634 -205.05)" fill="#424242"/>
<use xlink:href="#path18_stroke" transform="matrix(0.0228241 -0.9997 0.9997 0.022813 54.3634 -205.05)" fill="#FFFFFF"/>
</g>
<g id="Vector">
<use xlink:href="#path19_fill" transform="matrix(0.0228149 -0.9997 0.9997 0.0228038 72.174 -219.412)" fill="#424242"/>
<use xlink:href="#path20_stroke" transform="matrix(0.0228149 -0.9997 0.9997 0.0228038 72.174 -219.412)" fill="#FFFFFF"/>
</g>
<g id="Vector">
<use xlink:href="#path21_fill" transform="matrix(0.0228241 -0.9997 0.9997 0.022813 53.7824 -238.982)" fill="#424242"/>
<use xlink:href="#path22_stroke" transform="matrix(0.0228241 -0.9997 0.9997 0.022813 53.7824 -238.982)" fill="#FFFFFF"/>
</g>
</g>
<g id="Group">
<g id="Vector">
<use xlink:href="#path23_fill" transform="translate(90.0826 -249.425)" fill="#0B0F1A"/>
</g>
<g id="Vector">
<use xlink:href="#path24_fill" transform="translate(97.526 -245.572)" fill="#0B0F1A"/>
</g>
<g id="Vector">
<use xlink:href="#path25_fill" transform="translate(107.886 -249.446)" fill="#0B0F1A"/>
</g>
<g id="Vector">
<use xlink:href="#path26_fill" transform="translate(117.676 -245.552)" fill="#0B0F1A"/>
</g>
<g id="Vector">
<use xlink:href="#path27_fill" transform="translate(127.71 -245.532)" fill="#0B0F1A"/>
</g>
<g id="Vector">
<use xlink:href="#path28_fill" transform="translate(133.217 -238.253)" fill="#0B0F1A"/>
</g>
<g id="Vector">
<use xlink:href="#path29_fill" transform="translate(90.0616 -230.851)" fill="#0B0F1A"/>
</g>
<g id="Vector">
<use xlink:href="#path30_fill" transform="translate(99.6878 -230.851)" fill="#0B0F1A"/>
</g>
<g id="Vector">
<use xlink:href="#path31_fill" transform="translate(108.335 -233.461)" fill="#0B0F1A"/>
</g>
<g id="Vector">
<use xlink:href="#path32_fill" transform="translate(114.902 -230.851)" fill="#0B0F1A"/>
</g>
<g id="Vector">
<use xlink:href="#path33_fill" transform="translate(130.178 -230.871)" fill="#0B0F1A"/>
</g>
<g id="Vector">
<use xlink:href="#path34_fill" transform="translate(140.559 -230.825)" fill="#0B0F1A"/>
</g>
<g id="Vector">
<use xlink:href="#path35_fill" transform="translate(146.718 -234.725)" fill="#0B0F1A"/>
</g>
</g>
</g>
</g>
</g>
</g>
<defs>
<path id="path0_fill" d="M 0 0L 1028 0L 1028 100L 0 100L 0 0Z"/>
<path id="path1_fill" d="M 0.285524 35.111L 18.2328 19.7168L -6.22394e-07 6.22244e-07L 0.285524 35.111Z"/>
<path id="path2_stroke" d="M 0.285524 35.111L -0.214459 35.1151L -0.205709 36.1911L 0.611052 35.4905L 0.285524 35.111ZM 18.2328 19.7168L 18.5583 20.0963L 18.9523 19.7584L 18.5999 19.3774L 18.2328 19.7168ZM -6.22394e-07 6.22244e-07L 0.367098 -0.339468L -0.510495 -1.28849L -0.499984 0.00406652L -6.22394e-07 6.22244e-07ZM 0.611052 35.4905L 18.5583 20.0963L 17.9073 19.3373L -0.0400034 34.7315L 0.611052 35.4905ZM 18.5999 19.3774L 0.367098 -0.339468L -0.367099 0.339469L 17.8657 20.0563L 18.5999 19.3774ZM -0.499984 0.00406652L -0.214459 35.1151L 0.785508 35.107L 0.499983 -0.00406527L -0.499984 0.00406652Z"/>
<path id="path3_fill" d="M -3.88997e-08 14.4563L 2.97761 43.1038L 13.3789 58.0494L 12.869 3.88902e-08L -3.88997e-08 14.4563Z"/>
<path id="path4_stroke" d="M -3.88997e-08 14.4563L -0.373461 14.1238L -0.520125 14.2886L -0.497321 14.508L -3.88997e-08 14.4563ZM 2.97761 43.1038L 2.48029 43.1555L 2.49361 43.2836L 2.56722 43.3894L 2.97761 43.1038ZM 13.3789 58.0494L 12.9685 58.335L 13.8931 59.6636L 13.8789 58.045L 13.3789 58.0494ZM 12.869 3.88902e-08L 13.369 -0.00439145L 13.3576 -1.30084L 12.4955 -0.332456L 12.869 3.88902e-08ZM -0.497321 14.508L 2.48029 43.1555L 3.47494 43.0521L 0.497321 14.4046L -0.497321 14.508ZM 2.56722 43.3894L 12.9685 58.335L 13.7893 57.7638L 3.38801 42.8182L 2.56722 43.3894ZM 13.8789 58.045L 13.369 -0.00439145L 12.369 0.00439153L 12.8789 58.0538L 13.8789 58.045ZM 12.4955 -0.332456L -0.373461 14.1238L 0.373461 14.7887L 13.2425 0.332456L 12.4955 -0.332456Z"/>
<path id="path5_fill" d="M -6.22394e-07 9.37925L 18.2328 29.0961L 18.9058 6.22244e-07L -6.22394e-07 9.37925Z"/>
<path id="path6_stroke" d="M -6.22394e-07 9.37925L -0.22221 8.93134L -0.820664 9.22824L -0.367099 9.71872L -6.22394e-07 9.37925ZM 18.2328 29.0961L 17.8657 29.4355L 18.7041 30.3422L 18.7327 29.1076L 18.2328 29.0961ZM 18.9058 6.22244e-07L 19.4057 0.011563L 19.4248 -0.815626L 18.6836 -0.447909L 18.9058 6.22244e-07ZM -0.367099 9.71872L 17.8657 29.4355L 18.5999 28.7566L 0.367098 9.03979L -0.367099 9.71872ZM 18.7327 29.1076L 19.4057 0.011563L 18.4059 -0.0115618L 17.7329 29.0845L 18.7327 29.1076ZM 18.6836 -0.447909L -0.22221 8.93134L 0.222209 9.82716L 19.128 0.44791L 18.6836 -0.447909Z"/>
<path id="path7_fill" d="M 6.22394e-07 3.88902e-08L 0.183551 23.754L 19.0894 14.3747L 6.22394e-07 3.88902e-08Z"/>
<path id="path8_stroke" d="M 6.22394e-07 3.88902e-08L 0.300773 -0.39942L -0.507806 -1.0083L -0.499984 0.00386349L 6.22394e-07 3.88902e-08ZM 0.183551 23.754L -0.316434 23.7578L -0.310258 24.5571L 0.405761 24.2019L 0.183551 23.754ZM 19.0894 14.3747L 19.3116 14.8226L 20.0373 14.4626L 19.3901 13.9753L 19.0894 14.3747ZM -0.499984 0.00386349L -0.316434 23.7578L 0.683536 23.7501L 0.499986 -0.00386342L -0.499984 0.00386349ZM 0.405761 24.2019L 19.3116 14.8226L 18.8672 13.9268L -0.0386588 23.3061L 0.405761 24.2019ZM 19.3901 13.9753L 0.300773 -0.39942L -0.300772 0.39942L 18.7886 14.7741L 19.3901 13.9753Z"/>
<path id="path9_fill" d="M 1.10104 2.20262C 1.70913 2.20262 2.20209 1.70955 2.20209 1.10131C 2.20209 0.493073 1.70913 0 1.10104 0C 0.492953 0 0 0.493073 0 1.10131C 0 1.70955 0.492953 2.20262 1.10104 2.20262Z"/>
<path id="path10_stroke" d="M 1.70209 1.10131C 1.70209 1.43352 1.43287 1.70262 1.10104 1.70262L 1.10104 2.70262C 1.98539 2.70262 2.70209 1.98557 2.70209 1.10131L 1.70209 1.10131ZM 1.10104 1.70262C 0.76921 1.70262 0.5 1.43352 0.5 1.10131L -0.5 1.10131C -0.5 1.98557 0.216696 2.70262 1.10104 2.70262L 1.10104 1.70262ZM 0.5 1.10131C 0.5 0.769101 0.76921 0.5 1.10104 0.5L 1.10104 -0.5C 0.216696 -0.5 -0.5 0.217045 -0.5 1.10131L 0.5 1.10131ZM 1.10104 0.5C 1.43288 0.5 1.70209 0.769101 1.70209 1.10131L 2.70209 1.10131C 2.70209 0.217044 1.98539 -0.5 1.10104 -0.5L 1.10104 0.5Z"/>
<path id="path11_fill" d="M 1.10104 2.20262C 1.70913 2.20262 2.20209 1.70955 2.20209 1.10131C 2.20209 0.493074 1.70913 0 1.10104 0C 0.492952 0 0 0.493074 0 1.10131C 0 1.70955 0.492952 2.20262 1.10104 2.20262Z"/>
<path id="path12_stroke" d="M 1.70209 1.10131C 1.70209 1.43352 1.43288 1.70262 1.10104 1.70262L 1.10104 2.70262C 1.98539 2.70262 2.70209 1.98558 2.70209 1.10131L 1.70209 1.10131ZM 1.10104 1.70262C 0.769209 1.70262 0.5 1.43352 0.5 1.10131L -0.5 1.10131C -0.5 1.98557 0.216696 2.70262 1.10104 2.70262L 1.10104 1.70262ZM 0.5 1.10131C 0.5 0.769101 0.76921 0.5 1.10104 0.5L 1.10104 -0.5C 0.216695 -0.5 -0.5 0.217046 -0.5 1.10131L 0.5 1.10131ZM 1.10104 0.5C 1.43288 0.5 1.70209 0.769103 1.70209 1.10131L 2.70209 1.10131C 2.70209 0.217045 1.98539 -0.5 1.10104 -0.5L 1.10104 0.5Z"/>
<path id="path13_fill" d="M 1.10104 2.20262C 1.70913 2.20262 2.20209 1.70955 2.20209 1.10131C 2.20209 0.493072 1.70913 0 1.10104 0C 0.492954 0 0 0.493072 0 1.10131C 0 1.70955 0.492954 2.20262 1.10104 2.20262Z"/>
<path id="path14_stroke" d="M 1.70209 1.10131C 1.70209 1.43352 1.43288 1.70262 1.10104 1.70262L 1.10104 2.70262C 1.98539 2.70262 2.70209 1.98557 2.70209 1.10131L 1.70209 1.10131ZM 1.10104 1.70262C 0.76921 1.70262 0.5 1.43352 0.5 1.10131L -0.5 1.10131C -0.5 1.98557 0.216697 2.70262 1.10104 2.70262L 1.10104 1.70262ZM 0.5 1.10131C 0.5 0.769101 0.76921 0.5 1.10104 0.5L 1.10104 -0.5C 0.216697 -0.5 -0.5 0.217044 -0.5 1.10131L 0.5 1.10131ZM 1.10104 0.5C 1.43288 0.5 1.70209 0.769101 1.70209 1.10131L 2.70209 1.10131C 2.70209 0.217044 1.98539 -0.5 1.10104 -0.5L 1.10104 0.5Z"/>
<path id="path15_fill" d="M 1.10104 2.20262C 1.70913 2.20262 2.20209 1.70955 2.20209 1.10131C 2.20209 0.493072 1.70913 0 1.10104 0C 0.492954 0 0 0.493072 0 1.10131C 0 1.70955 0.492954 2.20262 1.10104 2.20262Z"/>
<path id="path16_stroke" d="M 1.70209 1.10131C 1.70209 1.43352 1.43287 1.70262 1.10104 1.70262L 1.10104 2.70262C 1.98539 2.70262 2.70209 1.98557 2.70209 1.10131L 1.70209 1.10131ZM 1.10104 1.70262C 0.769211 1.70262 0.5 1.43352 0.5 1.10131L -0.5 1.10131C -0.5 1.98557 0.216696 2.70262 1.10104 2.70262L 1.10104 1.70262ZM 0.5 1.10131C 0.5 0.769101 0.76921 0.5 1.10104 0.5L 1.10104 -0.5C 0.216698 -0.5 -0.5 0.217044 -0.5 1.10131L 0.5 1.10131ZM 1.10104 0.5C 1.43288 0.5 1.70209 0.769101 1.70209 1.10131L 2.70209 1.10131C 2.70209 0.217044 1.98539 -0.5 1.10104 -0.5L 1.10104 0.5Z"/>
<path id="path17_fill" d="M 1.10104 2.20262C 1.70913 2.20262 2.20209 1.70955 2.20209 1.10131C 2.20209 0.493073 1.70913 0 1.10104 0C 0.492954 0 0 0.493073 0 1.10131C 0 1.70955 0.492954 2.20262 1.10104 2.20262Z"/>
<path id="path18_stroke" d="M 1.70209 1.10131C 1.70209 1.43352 1.43288 1.70262 1.10104 1.70262L 1.10104 2.70262C 1.98539 2.70262 2.70209 1.98557 2.70209 1.10131L 1.70209 1.10131ZM 1.10104 1.70262C 0.76921 1.70262 0.5 1.43352 0.5 1.10131L -0.5 1.10131C -0.5 1.98558 0.216699 2.70262 1.10104 2.70262L 1.10104 1.70262ZM 0.5 1.10131C 0.5 0.769102 0.76921 0.5 1.10104 0.5L 1.10104 -0.5C 0.216698 -0.5 -0.5 0.217044 -0.5 1.10131L 0.5 1.10131ZM 1.10104 0.5C 1.43288 0.5 1.70209 0.769101 1.70209 1.10131L 2.70209 1.10131C 2.70209 0.217045 1.98539 -0.5 1.10104 -0.5L 1.10104 0.5Z"/>
<path id="path19_fill" d="M 1.10104 2.20262C 1.70913 2.20262 2.20209 1.70955 2.20209 1.10131C 2.20209 0.493073 1.70913 0 1.10104 0C 0.492955 0 0 0.493073 0 1.10131C 0 1.70955 0.492955 2.20262 1.10104 2.20262Z"/>
<path id="path20_stroke" d="M 1.70209 1.10131C 1.70209 1.43352 1.43288 1.70262 1.10104 1.70262L 1.10104 2.70262C 1.98539 2.70262 2.70209 1.98557 2.70209 1.10131L 1.70209 1.10131ZM 1.10104 1.70262C 0.76921 1.70262 0.5 1.43352 0.5 1.10131L -0.5 1.10131C -0.5 1.98558 0.2167 2.70262 1.10104 2.70262L 1.10104 1.70262ZM 0.5 1.10131C 0.5 0.769102 0.769211 0.5 1.10104 0.5L 1.10104 -0.5C 0.216699 -0.5 -0.5 0.217044 -0.5 1.10131L 0.5 1.10131ZM 1.10104 0.5C 1.43288 0.5 1.70209 0.769101 1.70209 1.10131L 2.70209 1.10131C 2.70209 0.217046 1.98539 -0.5 1.10104 -0.5L 1.10104 0.5Z"/>
<path id="path21_fill" d="M 1.10104 2.20262C 1.70913 2.20262 2.20209 1.70955 2.20209 1.10131C 2.20209 0.493073 1.70913 0 1.10104 0C 0.492954 0 0 0.493073 0 1.10131C 0 1.70955 0.492954 2.20262 1.10104 2.20262Z"/>
<path id="path22_stroke" d="M 1.70209 1.10131C 1.70209 1.43352 1.43288 1.70262 1.10104 1.70262L 1.10104 2.70262C 1.98539 2.70262 2.70209 1.98557 2.70209 1.10131L 1.70209 1.10131ZM 1.10104 1.70262C 0.76921 1.70262 0.5 1.43352 0.5 1.10131L -0.5 1.10131C -0.5 1.98557 0.216697 2.70262 1.10104 2.70262L 1.10104 1.70262ZM 0.5 1.10131C 0.5 0.769101 0.76921 0.5 1.10104 0.5L 1.10104 -0.5C 0.216698 -0.5 -0.5 0.217044 -0.5 1.10131L 0.5 1.10131ZM 1.10104 0.5C 1.43288 0.5 1.70209 0.769101 1.70209 1.10131L 2.70209 1.10131C 2.70209 0.217044 1.98539 -0.5 1.10104 -0.5L 1.10104 0.5Z"/>
<path id="path23_fill" d="M 6.91377 12.4173C 6.91377 12.56 6.87299 12.662 6.77102 12.7639C 6.66904 12.8659 6.56707 12.9271 6.4243 12.9271C 6.30194 12.9271 6.17957 12.8659 6.03681 12.7639L 1.1217 8.56367L 1.1217 12.3561C 1.1217 12.5397 1.06052 12.6824 0.958548 12.7639C 0.856575 12.8659 0.734206 12.9067 0.571049 12.9067C 0.407892 12.9067 0.265129 12.8659 0.163156 12.7639C 0.0611832 12.662 -1.24479e-06 12.5193 -1.24479e-06 12.3561L -1.24479e-06 0.550522C -1.24479e-06 0.367015 0.0611832 0.224287 0.163156 0.142728C 0.265129 0.04078 0.407892 -3.11122e-07 0.571049 -3.11122e-07C 0.734206 -3.11122e-07 0.856575 0.04078 0.958548 0.142728C 1.06052 0.244677 1.1217 0.387405 1.1217 0.550522L 1.1217 8.0947L 5.62892 4.03716C 5.75128 3.93521 5.89404 3.87404 6.01641 3.87404C 6.15917 3.87404 6.28155 3.93521 6.38352 4.03716C 6.48549 4.13911 6.54667 4.26144 6.54667 4.40417C 6.54667 4.58768 6.46509 4.73041 6.32233 4.83235L 2.42696 8.27821L 6.68944 11.928C 6.8322 12.1115 6.91377 12.2542 6.91377 12.4173Z"/>
<path id="path24_fill" d="M 8.05587 0.0203894C 8.17824 0.0203894 8.30061 0.0611697 8.42298 0.163118C 8.52495 0.265066 8.58613 0.367014 8.58613 0.509742C 8.58613 0.591301 8.56574 0.672859 8.52495 0.754418L 3.4059 11.9687C 3.30393 12.1726 3.16116 12.2746 2.93682 12.2746C 2.79406 12.2746 2.69209 12.2338 2.59012 12.1523C 2.48815 12.0707 2.42696 11.9687 2.42696 11.826C 2.42696 11.7445 2.44736 11.6833 2.48815 11.6017L 3.773 8.80834L 0.0611864 0.754418C 0.0203971 0.672859 -1.24479e-06 0.61169 -1.24479e-06 0.530131C -1.24479e-06 0.387404 0.0611814 0.265066 0.183549 0.163118C 0.305917 0.0611697 0.448679 -5.7951e-15 0.591442 -5.7951e-15C 0.815782 -5.7951e-15 0.978943 0.101948 1.06052 0.326235L 4.32366 7.62574L 7.5868 0.346624C 7.68877 0.142727 7.83153 0.0203894 8.05587 0.0203894Z"/>
<path id="path25_fill" d="M 6.15917 4.42456C 6.75062 4.79157 7.1993 5.32171 7.52562 6.01496C 7.85193 6.68782 8.01509 7.48301 8.01509 8.40055C 8.01509 9.31808 7.85193 10.1133 7.52562 10.8065C 7.1993 11.4998 6.75062 12.0299 6.15917 12.4173C 5.56773 12.8047 4.89471 12.9882 4.11971 12.9882C 3.4059 12.9882 2.79406 12.8251 2.2842 12.5193C 1.77433 12.2134 1.36644 11.7648 1.10131 11.1735L 1.10131 12.3561C 1.10131 12.5193 1.06052 12.662 0.958546 12.7639C 0.856573 12.8659 0.734206 12.9271 0.571049 12.9271C 0.407892 12.9271 0.26513 12.8659 0.163157 12.7639C 0.0611839 12.662 2.48958e-06 12.5193 2.48958e-06 12.3561L 2.48958e-06 0.570912C 2.48958e-06 0.407794 0.0611839 0.265066 0.163157 0.163118C 0.26513 0.0611697 0.407892 0 0.571049 0C 0.734206 0 0.876967 0.0611697 0.958546 0.163118C 1.06052 0.265066 1.10131 0.407794 1.10131 0.570912L 1.10131 5.66833C 1.36644 5.07703 1.75394 4.62846 2.2842 4.32261C 2.79406 4.01677 3.42629 3.85365 4.11971 3.85365C 4.87431 3.87404 5.56773 4.05755 6.15917 4.42456ZM 6.11839 11.0512C 6.62825 10.4191 6.89338 9.52198 6.89338 8.40055C 6.89338 7.25873 6.62825 6.38197 6.11839 5.77028C 5.60852 5.15859 4.89471 4.83235 3.95656 4.83235C 3.0388 4.83235 2.34538 5.1382 1.83552 5.77028C 1.34605 6.40236 1.10131 7.27912 1.10131 8.42094C 1.10131 9.56276 1.34604 10.4395 1.85591 11.0716C 2.36577 11.6833 3.0592 12.0095 3.97695 12.0095C 4.87432 12.0095 5.58813 11.6833 6.11839 11.0512Z"/>
<path id="path26_fill" d="M 7.5664 7.21795C 7.64798 7.29951 7.68877 7.42184 7.68877 7.54418C 7.68877 7.80925 7.48482 8.07431 7.07693 8.31899C 6.19996 8.82873 5.3026 9.0938 4.32366 9.0938C 2.97761 9.0938 1.93749 8.686 1.16249 7.89081C 0.387497 7.07522 2.48958e-06 5.97418 2.48958e-06 4.56729C 2.48958e-06 3.67014 0.163159 2.87495 0.509868 2.1817C 0.856577 1.48845 1.32565 0.958315 1.95788 0.570911C 2.56972 0.183507 3.28353 -3.11122e-07 4.09932 -3.11122e-07C 5.24141 -3.11122e-07 6.11839 0.367014 6.79141 1.10104C 7.44404 1.83507 7.77035 2.83417 7.77035 4.11872C 7.77035 4.343 7.72956 4.48573 7.62759 4.58768C 7.52562 4.68963 7.38285 4.7508 7.15851 4.7508L 1.1421 4.7508C 1.18289 5.85184 1.46841 6.70821 2.01907 7.27912C 2.56972 7.85003 3.32432 8.15587 4.32366 8.15587C 4.83352 8.15587 5.2822 8.0947 5.62891 7.95198C 5.97562 7.80925 6.34272 7.62574 6.75062 7.40145C 7.01575 7.21795 7.1993 7.13639 7.30127 7.13639C 7.38285 7.07522 7.48482 7.116 7.5664 7.21795ZM 2.08025 1.67195C 1.57038 2.20209 1.26447 2.93611 1.18289 3.89443L 6.77101 3.89443C 6.75062 2.93611 6.50588 2.1817 6.0572 1.67195C 5.60852 1.14182 4.95589 0.876757 4.11971 0.876757C 3.26314 0.876757 2.59012 1.14182 2.08025 1.67195Z"/>
<path id="path27_fill" d="M 4.60918 0.0815584C 4.71116 0.163117 4.75195 0.265066 4.75195 0.448573C 4.75195 0.754418 4.5684 0.917536 4.20129 0.958315L 3.65063 1.01948C 2.79406 1.10104 2.16183 1.40689 1.73354 1.93702C 1.32565 2.46715 1.10131 3.07884 1.10131 3.79248L 1.10131 8.48211C 1.10131 8.66561 1.06052 8.80834 0.958548 8.8899C 0.856575 8.99185 0.734209 9.03263 0.571052 9.03263C 0.407895 9.03263 0.265133 8.99185 0.163159 8.8899C 0.0611864 8.78795 -1.24479e-06 8.64522 -1.24479e-06 8.48211L -1.24479e-06 0.550522C -1.24479e-06 0.367015 0.0611864 0.224287 0.163159 0.142728C 0.265133 0.0407797 0.407895 -6.22244e-07 0.571052 -6.22244e-07C 0.734209 -6.22244e-07 0.856575 0.0407797 0.958548 0.142728C 1.06052 0.244676 1.10131 0.367015 1.10131 0.550522L 1.10131 1.73312C 1.59078 0.693249 2.50854 0.122338 3.85458 0.0407797L 4.09932 0.0203903C 4.34405 -0.0203891 4.50721 -3.09907e-07 4.60918 0.0815584Z"/>
<path id="path28_fill" d="M 0.244737 1.50884C 0.0815797 1.34572 -1.24479e-06 1.14182 -1.24479e-06 0.876756C -1.24479e-06 0.632079 0.0815797 0.407795 0.244737 0.244677C 0.407894 0.08156 0.61184 -1.24449e-06 0.856575 -1.24449e-06C 1.08092 -1.24449e-06 1.28486 0.08156 1.44802 0.244677C 1.61118 0.407795 1.69276 0.61169 1.69276 0.876756C 1.69276 1.12143 1.61118 1.34572 1.44802 1.50884C 1.28486 1.67195 1.08092 1.75351 0.856575 1.75351C 0.61184 1.75351 0.407894 1.67195 0.244737 1.50884Z"/>
<path id="path29_fill" d="M 7.32167 3.36457L 7.32167 8.48238C 7.32167 8.6455 7.28088 8.78823 7.17891 8.89017C 7.07693 8.99212 6.95457 9.05329 6.77101 9.05329C 6.60786 9.05329 6.46509 8.99212 6.36312 8.89017C 6.26115 8.78823 6.19997 8.6455 6.19997 8.48238L 6.19997 3.44613C 6.19997 2.56937 6.01641 1.93729 5.66971 1.54989C 5.323 1.1421 4.77234 0.958587 3.99734 0.958587C 3.12038 0.958587 2.42696 1.22365 1.91709 1.75379C 1.38683 2.28392 1.1217 2.99756 1.1217 3.8947L 1.1217 8.50277C 1.1217 8.66589 1.08092 8.80861 0.978943 8.91056C 0.87697 9.01251 0.754602 9.07368 0.571051 9.07368C 0.407894 9.07368 0.265131 9.01251 0.163158 8.91056C 0.0611851 8.80861 6.22394e-07 8.66589 6.22394e-07 8.50277L 6.22394e-07 0.591575C 6.22394e-07 0.428458 0.0611851 0.28573 0.163158 0.183781C 0.265131 0.081833 0.407894 0.0206634 0.571051 0.0206634C 0.734208 0.0206634 0.856574 0.0614421 0.958547 0.163391C 1.06052 0.265339 1.10131 0.387677 1.10131 0.571184L 1.10131 1.71301C 1.38683 1.16249 1.77433 0.7343 2.30459 0.448845C 2.83485 0.163389 3.4263 0.000272454 4.11971 0.000272454C 6.26115 -0.0201172 7.32167 1.10132 7.32167 3.36457Z"/>
<path id="path30_fill" d="M 7.5664 7.21795C 7.64798 7.29951 7.68877 7.42184 7.68877 7.54418C 7.68877 7.80925 7.48483 8.07431 7.07694 8.31899C 6.19997 8.82873 5.3026 9.0938 4.32366 9.0938C 2.97762 9.0938 1.93749 8.686 1.1625 7.8908C 0.3875 7.07522 -1.1593e-14 5.97418 -1.1593e-14 4.56729C -1.1593e-14 3.67014 0.163157 2.87494 0.509865 2.18169C 0.856574 1.48845 1.32565 0.958315 1.95788 0.570911C 2.56972 0.183507 3.28354 -6.22244e-07 4.09932 -6.22244e-07C 5.24142 -6.22244e-07 6.11838 0.367016 6.79141 1.10104C 7.44403 1.83507 7.77035 2.83416 7.77035 4.11871C 7.77035 4.343 7.72956 4.48573 7.62759 4.58768C 7.52561 4.68963 7.38285 4.7508 7.15851 4.7508L 1.1421 4.7508C 1.18289 5.85184 1.46841 6.7082 2.01907 7.27911C 2.56972 7.85003 3.32433 8.15587 4.32366 8.15587C 4.83353 8.15587 5.28221 8.0947 5.62892 7.95197C 5.97562 7.80925 6.34273 7.62574 6.75062 7.40145C 7.01575 7.21795 7.1993 7.13639 7.30127 7.13639C 7.38285 7.07522 7.48483 7.116 7.5664 7.21795ZM 2.08025 1.67195C 1.57039 2.20208 1.26446 2.93611 1.18289 3.89443L 6.77102 3.89443C 6.75062 2.93611 6.50589 2.18169 6.0572 1.67195C 5.60852 1.14182 4.95589 0.876756 4.11972 0.876756C 3.26314 0.876756 2.59012 1.14182 2.08025 1.67195Z"/>
<path id="path31_fill" d="M 5.73089 11.1939C 5.73089 11.3367 5.66971 11.459 5.56773 11.5406C 5.46576 11.6221 5.28221 11.6629 5.03747 11.6425L 4.52761 11.6017C 3.60985 11.5406 2.93683 11.2551 2.48814 10.7657C 2.03946 10.256 1.83551 9.50159 1.83551 8.48211L 1.83551 3.69053L 0.469079 3.69053C 0.326316 3.69053 0.203946 3.64975 0.122368 3.56819C 0.0407892 3.48663 -1.24479e-06 3.38469 -1.24479e-06 3.24196C -1.24479e-06 3.09923 0.0407892 2.99728 0.122368 2.91572C 0.203946 2.83416 0.326316 2.79339 0.469079 2.79339L 1.83551 2.79339L 1.83551 0.550523C 1.83551 0.367015 1.87631 0.224288 1.97828 0.142729C 2.08025 0.0407806 2.20262 -1.24449e-06 2.38617 -1.24449e-06C 2.54933 -1.24449e-06 2.69209 0.0407806 2.79406 0.142729C 2.89604 0.244677 2.95722 0.387405 2.95722 0.550523L 2.95722 2.79339L 5.13945 2.79339C 5.3026 2.79339 5.42497 2.83416 5.50655 2.91572C 5.58812 2.99728 5.62892 3.09923 5.62892 3.24196C 5.62892 3.38469 5.58812 3.48663 5.50655 3.56819C 5.42497 3.64975 5.3026 3.69053 5.13945 3.69053L 2.95722 3.69053L 2.95722 8.54328C 2.95722 9.29769 3.09998 9.82783 3.38551 10.1337C 3.67103 10.4599 4.11971 10.6434 4.73155 10.6842L 5.22102 10.725C 5.54734 10.7658 5.73089 10.9289 5.73089 11.1939Z"/>
<path id="path32_fill" d="M 13.3585 0.0203903C 13.5012 0.0203903 13.6236 0.061169 13.746 0.163117C 13.8479 0.265066 13.9091 0.387405 13.9091 0.530132C 13.9091 0.550522 13.8887 0.61169 13.8683 0.713638L 10.8499 8.58406C 10.8091 8.72678 10.7276 8.82873 10.6052 8.8899C 10.4828 8.97146 10.3605 8.99185 10.2381 8.99185C 10.0953 8.99185 9.97297 8.95107 9.871 8.8899C 9.74863 8.80834 9.66705 8.70639 9.62626 8.58406L 6.95457 1.69234L 4.30327 8.60444C 4.26248 8.74717 4.1809 8.84912 4.05853 8.91029C 3.93616 8.99185 3.8138 9.01224 3.69143 9.01224C 3.54867 9.01224 3.42629 8.97146 3.32432 8.91029C 3.20195 8.82873 3.12038 8.72678 3.07959 8.60444L 0.0407868 0.734029C 0.0203921 0.65247 1.24479e-06 0.611689 1.24479e-06 0.55052C 1.24479e-06 0.407792 0.0611839 0.285456 0.183552 0.163117C 0.305919 0.061169 0.448682 -6.22244e-07 0.591444 -6.22244e-07C 0.815785 -6.22244e-07 0.978939 0.122337 1.06052 0.346623L 3.69143 7.5034L 6.42431 0.407793C 6.4651 0.285455 6.54667 0.163117 6.66904 0.101948C 6.77101 0.0203891 6.89338 -6.22244e-07 6.99535 -6.22244e-07C 7.11772 -6.22244e-07 7.2197 0.0407787 7.32167 0.101948C 7.42364 0.183507 7.50522 0.285455 7.54601 0.407793L 10.2381 7.48301L 12.9098 0.367014C 12.9914 0.142728 13.1545 0.0203903 13.3585 0.0203903Z"/>
<path id="path33_fill" d="M 1.93749 8.54328C 1.32565 8.17626 0.856574 7.64613 0.509866 6.95288C 0.163157 6.25963 0 5.46443 0 4.5469C 0 3.62936 0.163157 2.83417 0.509866 2.14092C 0.856574 1.44767 1.32565 0.917536 1.93749 0.550522C 2.54933 0.183508 3.26314 1.24449e-06 4.05853 1.24449e-06C 4.85392 1.24449e-06 5.56773 0.183508 6.17957 0.550522C 6.79141 0.917536 7.26048 1.44767 7.60719 2.14092C 7.93351 2.83417 8.09667 3.62936 8.09667 4.5469C 8.09667 5.46443 7.93351 6.25963 7.60719 6.95288C 7.28088 7.64613 6.8118 8.17626 6.17957 8.54328C 5.56773 8.91029 4.85392 9.0938 4.05853 9.0938C 3.26314 9.0938 2.54933 8.91029 1.93749 8.54328ZM 6.19996 7.19756C 6.70983 6.58587 6.95457 5.68872 6.95457 4.5469C 6.95457 3.40508 6.68943 2.52832 6.17957 1.89624C 5.6697 1.26416 4.95589 0.937925 4.05853 0.937925C 3.14077 0.937925 2.42696 1.26416 1.91709 1.89624C 1.40723 2.52832 1.1625 3.40508 1.1625 4.5469C 1.1625 5.70911 1.40723 6.58587 1.8967 7.19756C 2.38617 7.80925 3.09998 8.11509 4.03813 8.11509C 4.97628 8.11509 5.6901 7.80925 6.19996 7.19756Z"/>
<path id="path34_fill" d="M 4.62957 0.0763451C 4.73155 0.157904 4.77234 0.259853 4.77234 0.44336C 4.77234 0.749205 4.58879 0.912323 4.22169 0.953102L 3.67103 1.01427C 2.81446 1.09583 2.18222 1.40168 1.75394 1.93181C 1.34604 2.46194 1.1217 3.07363 1.1217 3.78727L 1.1217 8.47689C 1.1217 8.6604 1.08092 8.80313 0.978944 8.88469C 0.876971 8.98664 0.754603 9.02742 0.571052 9.02742C 0.407895 9.02742 0.265133 8.98664 0.163159 8.88469C 0.0611864 8.78274 -1.24479e-06 8.64001 -1.24479e-06 8.47689L -1.24479e-06 0.565699C -1.24479e-06 0.382192 0.0611864 0.239464 0.163159 0.157906C 0.265133 0.0559573 0.407895 0.0151755 0.571052 0.0151755C 0.734209 0.0151755 0.856575 0.0559573 0.958548 0.157906C 1.06052 0.259854 1.10131 0.382192 1.10131 0.565699L 1.10131 1.7483C 1.59078 0.708425 2.50854 0.137516 3.85458 0.0559573L 4.09932 0.0355664C 4.36445 -0.0256026 4.5276 -0.00521359 4.62957 0.0763451Z"/>
<path id="path35_fill" d="M 6.91378 12.4173C 6.91378 12.56 6.87299 12.662 6.77101 12.7639C 6.66904 12.8659 6.56706 12.9271 6.4243 12.9271C 6.30193 12.9271 6.17957 12.8659 6.03681 12.7639L 1.1217 8.56366L 1.1217 12.3561C 1.1217 12.5397 1.06052 12.6824 0.958545 12.7639C 0.856572 12.8659 0.734211 12.9067 0.571054 12.9067C 0.407897 12.9067 0.265135 12.8659 0.163162 12.7639C 0.0611888 12.662 -4.97916e-06 12.5193 -4.97916e-06 12.3561L -4.97916e-06 0.55052C -4.97916e-06 0.367013 0.0611888 0.224285 0.163162 0.142727C 0.265135 0.0407781 0.407897 -6.22244e-07 0.571054 -6.22244e-07C 0.734211 -6.22244e-07 0.856572 0.0407781 0.958545 0.142727C 1.06052 0.244675 1.1217 0.387403 1.1217 0.55052L 1.1217 8.0947L 5.62892 4.03716C 5.75129 3.93521 5.89404 3.87404 6.01641 3.87404C 6.15917 3.87404 6.28155 3.93521 6.38352 4.03716C 6.48549 4.1391 6.54668 4.26144 6.54668 4.40417C 6.54668 4.58768 6.46509 4.7304 6.32233 4.83235L 2.42696 8.27821L 6.68944 11.928C 6.8322 12.1115 6.91378 12.2542 6.91378 12.4173Z"/>
</defs>
</svg>
