<svg width="24" height="16" viewBox="0 0 24 16" version="1.1" xmlns="http://www.w3.org/2000/svg" xmlns:xlink="http://www.w3.org/1999/xlink">
<title>icon</title>
<desc>Created using Figma</desc>
<g id="Canvas" transform="translate(-965 1009)">
<g id="icon">
<g id="Vector">
<use xlink:href="#path0_fill" transform="translate(969.8 -995.695)" fill="#262C41"/>
</g>
<g id="Vector">
<use xlink:href="#path0_fill" transform="translate(969.8 -1001.74)" fill="#262C41"/>
</g>
<g id="Vector">
<use xlink:href="#path0_fill" transform="translate(969.8 -1007.79)" fill="#262C41"/>
</g>
<g id="Vector">
<use xlink:href="#path1_fill" transform="translate(965 -1009)" fill="#262C41"/>
</g>
<g id="Vector">
<use xlink:href="#path1_fill" transform="translate(965 -1002.95)" fill="#262C41"/>
</g>
<g id="Vector">
<use xlink:href="#path1_fill" transform="translate(965 -996.905)" fill="#262C41"/>
</g>
</g>
</g>
<defs>
<path id="path0_fill" d="M 18.6 1.20955L 0.6 1.20955C 0.2688 1.20955 0 0.93861 0 0.604775C 0 0.270939 0.2688 0 0.6 0L 18.6 0C 18.9312 0 19.2 0.270939 19.2 0.604775C 19.2 0.93861 18.9312 1.20955 18.6 1.20955Z"/>
<path id="path1_fill" d="M 1.8 3.62865C 0.8076 3.62865 0 2.81462 0 1.81432C 0 0.814027 0.8076 0 1.8 0C 2.7924 0 3.6 0.814027 3.6 1.81432C 3.6 2.81462 2.7924 3.62865 1.8 3.62865ZM 1.8 1.20955C 1.4688 1.20955 1.2 1.48049 1.2 1.81432C 1.2 2.14816 1.4688 2.4191 1.8 2.4191C 2.1312 2.4191 2.4 2.14816 2.4 1.81432C 2.4 1.48049 2.1312 1.20955 1.8 1.20955Z"/>
</defs>
</svg>
