<?xml version="1.0" encoding="UTF-8"?>
<svg width="240px" height="125px" viewBox="0 0 240 125" version="1.1" xmlns="http://www.w3.org/2000/svg" xmlns:xlink="http://www.w3.org/1999/xlink">
    <!-- Generator: Sketch 47.1 (45422) - http://www.bohemiancoding.com/sketch -->
    <title>Artboard 5 Copy 2</title>
    <desc>Created with Sketch.</desc>
    <defs></defs>
    <g id="Page-1" stroke="none" stroke-width="1" fill="none" fill-rule="evenodd">
        <g id="Artboard-5-Copy-2">
            <g id="Group-2" transform="translate(56.000000, 73.000000)">
                <g id="Stacked-Group">
                    <path d="M42.3488878,13 L3.65111215,13 L23,43.2852158 L42.3488878,13 Z M40,3.47213595 L37.236068,9 L42.763932,9 L40,3.47213595 Z M6,3.47213595 L3.23606798,9 L8.76393202,9 L6,3.47213595 Z" id="Combined-Shape" stroke="#FFFFFF" stroke-width="4"></path>
                    <path d="M74.5004379,26.7167959 L74.5004379,12 L67.68,12 L65.2715328,21.2553221 L62.8204379,12 L56,12 L56,26.7167959 L60.5185401,26.7167959 L60.4972263,16.0439921 L63.459854,26.7167959 L66.9979562,26.7167959 L70.0032116,16.0439921 L69.9605839,26.7167959 L74.5004379,26.7167959 Z M90.4858394,26.7167959 L90.4858394,23.527462 L82.6849635,23.527462 L82.6849635,20.6091172 L89.3775182,20.6091172 L89.3775182,17.4197832 L82.7062774,17.4197832 L82.7062774,15.2310246 L89.8464233,15.2310246 L89.8464233,12 L77.9319708,12 L77.9319708,26.7167959 L90.4858394,26.7167959 Z M104.638248,15.6270857 L104.638248,12 L92.2335767,12 L92.2335767,15.6270857 L96.070073,15.6270857 L96.070073,26.7167959 L100.823066,26.7167959 L100.823066,15.6270857 L104.638248,15.6270857 Z M121.689343,26.7167959 L116.574015,26.7167959 L115.913285,24.6531093 L110.670073,24.6531093 L110.009343,26.7167959 L104.894015,26.7167959 L110.648759,12 L116.062482,12 L121.689343,26.7167959 Z M114.932847,21.380394 L113.334307,16.1899093 L111.693139,21.380394 L114.932847,21.380394 Z M74.5004379,47.562116 L74.5004379,32.84532 L67.68,32.84532 L65.2715328,42.1006421 L62.8204379,32.84532 L56,32.84532 L56,47.562116 L60.5185401,47.562116 L60.4972263,36.8893121 L63.459854,47.562116 L66.9979562,47.562116 L70.0032116,36.8893121 L69.9605839,47.562116 L74.5004379,47.562116 Z M93.7681751,47.562116 L88.6528467,47.562116 L87.9921168,45.4984293 L82.7489051,45.4984293 L82.0881752,47.562116 L76.9728467,47.562116 L82.7275912,32.84532 L88.1413138,32.84532 L93.7681751,47.562116 Z M87.0116788,42.225714 L85.4131387,37.0352293 L83.7719708,42.225714 L87.0116788,42.225714 Z M110.286423,42.7885377 C110.286423,39.8493475 107.963212,39.0363801 107.025401,38.7445456 C105.533431,38.2651032 104.126715,38.0774953 103.593869,37.9941141 C103.188905,37.9315781 102.293723,37.7648155 101.910073,37.535517 C101.696934,37.3895998 101.526423,37.1394559 101.526423,36.8684668 C101.526423,36.3681791 102.037956,36.1388806 102.123212,36.0971899 C102.570803,35.9095821 103.146277,35.9095821 103.252847,35.9095821 C104.382482,35.9095821 105.895766,36.1388806 106.769635,36.9310027 C106.897518,37.0352293 107.004088,37.1603013 107.195912,37.4104451 L110.201168,34.9715427 C109.796204,34.5754816 109.519124,34.2836471 109.050219,33.950122 C106.897518,32.4075683 104.190657,32.3658777 103.423358,32.3658777 C102.847883,32.3658777 98.8621898,32.324187 97.3275913,35.0757693 C96.7947445,36.0138087 96.7734307,36.9101574 96.7734307,37.3062185 C96.7521168,38.9113081 97.6046716,39.8910382 98.0735767,40.2870993 C98.7982482,40.9124589 99.9065694,41.4127465 101.974015,41.8088076 C103.316788,42.0797968 104.275912,42.2048687 104.808759,42.3924766 C105.25635,42.5383938 105.426861,42.7260017 105.533431,42.9344549 C105.554745,42.9969909 105.64,43.1220628 105.64,43.2888254 C105.64,44.0184116 104.70219,44.4144726 103.359416,44.4144726 C102.315037,44.4144726 100.73781,44.1017928 99.8852555,43.3722066 C99.6721168,43.2054441 99.480292,42.9761456 99.160584,42.4758579 L95.5159124,44.7479978 C96.0274453,45.3942027 96.4324088,45.8319544 97.1144526,46.3322421 C98.9048175,47.6454972 100.993577,47.9998677 103.188905,47.9998677 C103.828321,47.9998677 106.364672,48.0415583 108.304234,46.6449219 C108.964963,46.1654795 110.286423,44.9772963 110.286423,42.7885377 Z M129,47.562116 L123.394453,38.4318658 L128.61635,32.84532 L122.818978,32.84532 L118.087299,38.4110205 L118.087299,32.84532 L113.334307,32.84532 L113.334307,47.562116 L118.087299,47.562116 L118.087299,44.0809475 L120.325255,41.6837357 L123.650219,47.562116 L129,47.562116 Z" id="META-MASK" fill="#FFFFFF"></path>
                </g>
            </g>
        </g>
    </g>
</svg>