<svg width="240" height="125" viewBox="0 0 240 125" version="1.1" xmlns="http://www.w3.org/2000/svg" xmlns:xlink="http://www.w3.org/1999/xlink">
<title>json</title>
<desc>Created using Figma</desc>
<g id="Canvas" transform="translate(2036 -989)">
<g id="json">
<g id="img">
<g id="if_key-outline_216265">
<g id="Group">
<g id="Vector">
<use xlink:href="#path0_fill" transform="translate(-1984 1068)" fill="#FFFFFF"/>
</g>
</g>
<g id="Group">
<g id="Vector">
<use xlink:href="#path1_fill" transform="translate(-1964.16 1078.49)" fill="#FFFFFF"/>
</g>
</g>
</g>
<g id="JSON">
<use xlink:href="#path2_fill" transform="translate(-1931.94 1078.81)" fill="#FFFFFF"/>
<use xlink:href="#path3_fill" transform="translate(-1931.94 1078.81)" fill="#FFFFFF"/>
<use xlink:href="#path4_fill" transform="translate(-1931.94 1078.81)" fill="#FFFFFF"/>
<use xlink:href="#path5_fill" transform="translate(-1931.94 1078.81)" fill="#FFFFFF"/>
<mask id="mask0_outline_out">
<rect id="mask0_outline_inv" fill="white" x="-1" y="-1" width="80" height="28" transform="translate(-1931.94 1078.81)"/>
<use xlink:href="#path2_fill" fill="black" transform="translate(-1931.94 1078.81)"/>
<use xlink:href="#path3_fill" fill="black" transform="translate(-1931.94 1078.81)"/>
<use xlink:href="#path4_fill" fill="black" transform="translate(-1931.94 1078.81)"/>
<use xlink:href="#path5_fill" fill="black" transform="translate(-1931.94 1078.81)"/>
</mask>
<g mask="url(#mask0_outline_out)">
<use xlink:href="#path6_stroke_2x" transform="translate(-1931.94 1078.81)" fill="#FFFFFF"/>
</g>
</g>
</g>
<g id="bg">
<use xlink:href="#path7_fill" transform="translate(-2036 989)" fill="#FFFFFF" fill-opacity="0.01"/>
</g>
</g>
</g>
<defs>
<path id="path0_fill" d="M 15.871 42L 0 42L 0 30.4133L 10.0066 20.4829C 9.512 18.942 9.25806 17.3539 9.25806 15.75C 9.25806 7.06388 16.3762 0 25.129 0C 33.8819 0 41 7.06388 41 15.75C 41 24.4361 33.8819 31.5 25.129 31.5L 21.1613 31.5L 21.1613 36.75L 15.871 36.75L 15.871 42ZM 5.29032 36.75L 10.5806 36.75L 10.5806 31.5L 15.871 31.5L 15.871 26.25L 25.129 26.25C 30.9643 26.25 35.7097 21.5408 35.7097 15.75C 35.7097 9.95925 30.9643 5.25 25.129 5.25C 19.2938 5.25 14.5484 9.95925 14.5484 15.75C 14.5484 17.2174 14.8685 18.6611 15.498 20.0524L 16.2519 21.7088L 5.29032 32.5868L 5.29032 36.75Z"/>
<path id="path1_fill" d="M 5.29032 2.625C 6.74781 2.625 7.93548 3.80363 7.93548 5.25525C 7.93548 6.70425 6.74781 7.88025 5.29032 7.88025C 3.83284 7.88025 2.64516 6.70425 2.64516 5.25525C 2.64516 3.80363 3.83284 2.625 5.29032 2.625ZM 5.29032 3.80516e-07C 2.37006 3.80516e-07 0 2.352 0 5.25525C 0 8.15325 2.37006 10.5052 5.29032 10.5052C 8.21323 10.5052 10.5806 8.15325 10.5806 5.25525C 10.5806 2.35463 8.21323 3.80516e-07 5.29032 3.80516e-07Z"/>
<path id="path2_fill" d="M 0 21C 0.933333 21.0933 1.61467 21.14 2.044 21.14C 2.884 21.14 3.444 20.972 3.724 20.636C 4.004 20.3 4.144 19.656 4.144 18.704L 4.144 0.252L 9.408 0.252L 9.408 18.62C 9.408 20.972 8.932 22.6987 7.98 23.8C 7.028 24.9013 5.39467 25.452 3.08 25.452C 2.16533 25.452 1.13867 25.368 0 25.2L 0 21Z"/>
<path id="path3_fill" d="M 22.213 20.44C 20.7196 20.44 19.245 20.244 17.789 19.852C 16.333 19.46 15.1476 18.928 14.233 18.256L 15.885 14.532C 16.8556 15.148 17.8823 15.624 18.965 15.96C 20.0663 16.2773 21.1676 16.436 22.269 16.436C 23.389 16.436 24.2476 16.2867 24.845 15.988C 25.4423 15.6707 25.741 15.232 25.741 14.672C 25.741 14.168 25.4703 13.7573 24.929 13.44C 24.3876 13.104 23.3703 12.7773 21.877 12.46C 19.9916 12.0867 18.5263 11.6293 17.481 11.088C 16.4356 10.528 15.6983 9.87467 15.269 9.128C 14.8583 8.38133 14.653 7.476 14.653 6.412C 14.653 5.19867 14.9983 4.10667 15.689 3.136C 16.3796 2.14667 17.3503 1.38133 18.601 0.840001C 19.8516 0.280001 21.2796 0 22.885 0C 24.3223 0 25.713 0.205334 27.057 0.616001C 28.4196 1.008 29.4836 1.53067 30.249 2.184L 28.625 5.908C 27.7476 5.292 26.8236 4.82533 25.853 4.508C 24.8823 4.172 23.9116 4.004 22.941 4.004C 21.989 4.004 21.2236 4.19067 20.645 4.564C 20.0663 4.91867 19.777 5.404 19.777 6.02C 19.777 6.356 19.8796 6.636 20.085 6.86C 20.2903 7.084 20.673 7.308 21.233 7.532C 21.793 7.73733 22.633 7.96133 23.753 8.204C 25.5636 8.596 26.9823 9.072 28.009 9.632C 29.0543 10.1733 29.7916 10.8173 30.221 11.564C 30.6503 12.292 30.865 13.1693 30.865 14.196C 30.865 16.1373 30.109 17.668 28.597 18.788C 27.085 19.8893 24.957 20.44 22.213 20.44Z"/>
<path id="path4_fill" d="M 45.2535 20.44C 43.2188 20.44 41.4455 20.0293 39.9335 19.208C 38.4215 18.368 37.2548 17.1733 36.4335 15.624C 35.6308 14.0747 35.2295 12.264 35.2295 10.192C 35.2295 8.12 35.6401 6.31867 36.4615 4.788C 37.2828 3.25733 38.4401 2.08133 39.9335 1.26C 41.4455 0.42 43.2188 0 45.2535 0C 47.2881 0 49.0521 0.42 50.5455 1.26C 52.0575 2.08133 53.2148 3.25733 54.0175 4.788C 54.8201 6.31867 55.2215 8.12 55.2215 10.192C 55.2215 12.264 54.8201 14.0747 54.0175 15.624C 53.2148 17.1733 52.0575 18.368 50.5455 19.208C 49.0521 20.0293 47.2881 20.44 45.2535 20.44ZM 45.2535 16.436C 46.7468 16.436 47.9135 15.904 48.7535 14.84C 49.6121 13.776 50.0415 12.2267 50.0415 10.192C 50.0415 8.176 49.6121 6.64533 48.7535 5.6C 47.9135 4.536 46.7468 4.004 45.2535 4.004C 43.7601 4.004 42.5935 4.52667 41.7535 5.572C 40.9135 6.61733 40.4935 8.15733 40.4935 10.192C 40.4935 12.2453 40.9135 13.804 41.7535 14.868C 42.5935 15.9133 43.7601 16.436 45.2535 16.436Z"/>
<path id="path5_fill" d="M 78.0887 0.252L 78.0887 20.188L 74.1967 20.188L 65.1527 8.876L 65.1527 20.188L 60.2527 20.188L 60.2527 0.252L 64.0887 0.252L 73.1327 11.508L 73.1327 0.252L 78.0887 0.252Z"/>
<path id="path6_stroke_2x" d="M 0 21L 0.0597022 20.403L -0.6 20.337L -0.6 21L 0 21ZM 4.144 0.252L 4.144 -0.348L 3.544 -0.348L 3.544 0.252L 4.144 0.252ZM 9.408 0.252L 10.008 0.252L 10.008 -0.348L 9.408 -0.348L 9.408 0.252ZM 0 25.2L -0.6 25.2L -0.6 25.718L -0.0875765 25.7936L 0 25.2ZM 14.233 18.256L 13.6845 18.0127L 13.4888 18.4538L 13.8777 18.7395L 14.233 18.256ZM 15.885 14.532L 16.2065 14.0254L 15.6188 13.6524L 15.3365 14.2887L 15.885 14.532ZM 18.965 15.96L 18.7871 16.5332L 18.7988 16.5365L 18.965 15.96ZM 24.845 15.988L 25.1133 16.5247L 25.1199 16.5213L 25.1265 16.5179L 24.845 15.988ZM 24.929 13.44L 24.6126 13.9498L 24.619 13.9538L 24.6255 13.9576L 24.929 13.44ZM 21.877 12.46L 22.0017 11.873L 21.9935 11.8714L 21.877 12.46ZM 17.481 11.088L 17.1976 11.6169L 17.2051 11.6208L 17.481 11.088ZM 15.269 9.128L 14.7431 9.4172L 14.7488 9.42708L 15.269 9.128ZM 15.689 3.136L 16.1779 3.48387L 16.1809 3.47945L 15.689 3.136ZM 18.601 0.840001L 18.8393 1.39068L 18.8462 1.38761L 18.601 0.840001ZM 27.057 0.616001L 26.8816 1.18989L 26.8911 1.19262L 27.057 0.616001ZM 30.249 2.184L 30.7989 2.42384L 30.9767 2.01632L 30.6385 1.72766L 30.249 2.184ZM 28.625 5.908L 28.2802 6.39905L 28.8813 6.82113L 29.1749 6.14784L 28.625 5.908ZM 25.853 4.508L 25.6567 5.07508L 25.6665 5.0783L 25.853 4.508ZM 20.645 4.564L 20.9586 5.0757L 20.9702 5.06818L 20.645 4.564ZM 21.233 7.532L 21.0101 8.08909L 21.0182 8.09232L 21.0264 8.09533L 21.233 7.532ZM 23.753 8.204L 23.6259 8.79039L 23.626 8.79042L 23.753 8.204ZM 28.009 9.632L 27.7216 10.1589L 27.7331 10.1648L 28.009 9.632ZM 30.221 11.564L 29.7008 11.8631L 29.7041 11.8688L 30.221 11.564ZM 28.597 18.788L 28.9502 19.273L 28.9541 19.2701L 28.597 18.788ZM 39.9335 19.208L 39.6421 19.7325L 39.6471 19.7352L 39.9335 19.208ZM 36.4335 15.624L 35.9007 15.9L 35.9034 15.905L 36.4335 15.624ZM 39.9335 1.26L 40.2226 1.78573L 40.2249 1.78449L 39.9335 1.26ZM 50.5455 1.26L 50.2513 1.783L 50.2591 1.78723L 50.5455 1.26ZM 50.5455 19.208L 50.8346 19.7337L 50.8369 19.7325L 50.5455 19.208ZM 48.7535 14.84L 48.2865 14.4632L 48.2825 14.4682L 48.7535 14.84ZM 48.7535 5.6L 48.2824 5.97186L 48.2898 5.98084L 48.7535 5.6ZM 41.7535 14.868L 41.2825 15.2398L 41.2858 15.2438L 41.7535 14.868ZM 78.0887 0.252L 78.6887 0.252L 78.6887 -0.348L 78.0887 -0.348L 78.0887 0.252ZM 78.0887 20.188L 78.0887 20.788L 78.6887 20.788L 78.6887 20.188L 78.0887 20.188ZM 74.1967 20.188L 73.7281 20.5627L 73.9082 20.788L 74.1967 20.788L 74.1967 20.188ZM 65.1527 8.876L 65.6214 8.50132L 64.5527 7.1647L 64.5527 8.876L 65.1527 8.876ZM 65.1527 20.188L 65.1527 20.788L 65.7527 20.788L 65.7527 20.188L 65.1527 20.188ZM 60.2527 20.188L 59.6527 20.188L 59.6527 20.788L 60.2527 20.788L 60.2527 20.188ZM 60.2527 0.252L 60.2527 -0.348L 59.6527 -0.348L 59.6527 0.252L 60.2527 0.252ZM 64.0887 0.252L 64.5564 -0.123809L 64.3763 -0.348L 64.0887 -0.348L 64.0887 0.252ZM 73.1327 11.508L 72.665 11.8838L 73.7327 13.2127L 73.7327 11.508L 73.1327 11.508ZM 73.1327 0.252L 73.1327 -0.348L 72.5327 -0.348L 72.5327 0.252L 73.1327 0.252ZM -0.0597022 21.597C 0.882976 21.6912 1.59415 21.7396 2.044 21.74L 2.044 20.54C 1.63518 20.5404 0.98369 20.4955 0.0597022 20.403L -0.0597022 21.597ZM 2.044 21.74C 2.91282 21.74 3.72129 21.5765 4.18493 21.0201L 3.26307 20.2519C 3.16671 20.3675 2.85518 20.54 2.044 20.54L 2.044 21.74ZM 4.18493 21.0201C 4.61384 20.5054 4.744 19.6624 4.744 18.704L 3.544 18.704C 3.544 19.6496 3.39416 20.0946 3.26307 20.2519L 4.18493 21.0201ZM 4.744 18.704L 4.744 0.252L 3.544 0.252L 3.544 18.704L 4.744 18.704ZM 4.144 0.852L 9.408 0.852L 9.408 -0.348L 4.144 -0.348L 4.144 0.852ZM 8.808 0.252L 8.808 18.62L 10.008 18.62L 10.008 0.252L 8.808 0.252ZM 8.808 18.62C 8.808 20.9112 8.34085 22.4651 7.52608 23.4076L 8.43392 24.1924C 9.52316 22.9323 10.008 21.0328 10.008 18.62L 8.808 18.62ZM 7.52608 23.4076C 6.7409 24.316 5.32191 24.852 3.08 24.852L 3.08 26.052C 5.46742 26.052 7.3151 25.4867 8.43392 24.1924L 7.52608 23.4076ZM 3.08 24.852C 2.18982 24.8525 1.20695 24.7719 0.0875765 24.6064L -0.0875765 25.7936C 1.07038 25.9641 2.14085 26.0515 3.08 26.052L 3.08 24.852ZM 0.6 25.2L 0.6 21L -0.6 21L -0.6 25.2L 0.6 25.2ZM 22.213 19.84C 20.7592 19.8413 19.3627 19.6557 17.945 19.2726L 17.633 20.4314C 19.1272 20.8323 20.68 21.0387 22.213 21.04L 22.213 19.84ZM 17.945 19.2726C 16.5344 18.8948 15.4498 18.4096 14.5882 17.7725L 13.8777 18.7395C 14.8455 19.4464 16.1315 20.0252 17.633 20.4314L 17.945 19.2726ZM 14.7814 18.4993L 16.4334 14.7753L 15.3365 14.2887L 13.6845 18.0127L 14.7814 18.4993ZM 15.5635 15.0386C 16.5681 15.6746 17.6667 16.1839 18.7871 16.533L 19.1428 15.387C 18.0979 15.0641 17.1432 14.6214 16.2065 14.0254L 15.5635 15.0386ZM 18.7988 16.5365C 19.9402 16.8639 21.1247 17.0345 22.269 17.036L 22.269 15.836C 21.2105 15.8375 20.1924 15.6907 19.1311 15.3835L 18.7988 16.5365ZM 22.269 17.036C 23.4269 17.036 24.3944 16.8841 25.1133 16.5247L 24.5766 15.4513C 24.1009 15.6892 23.351 15.836 22.269 15.836L 22.269 17.036ZM 25.1265 16.5179C 25.871 16.1223 26.341 15.5042 26.341 14.672L 25.141 14.672C 25.141 14.9598 25.0136 15.219 24.5635 15.4581L 25.1265 16.5179ZM 26.341 14.672C 26.341 13.9007 25.9051 13.3167 25.2324 12.9224L 24.6255 13.9576C 25.0355 14.198 25.141 14.4353 25.141 14.672L 26.341 14.672ZM 25.2454 12.9302C 24.6058 12.5332 23.4943 12.1903 22.0017 11.8731L 21.7523 13.0469C 23.2463 13.3644 24.1695 13.6748 24.6126 13.9498L 25.2454 12.9302ZM 21.9935 11.8714C 20.1395 11.5052 18.7545 11.0744 17.7569 10.5552L 17.2051 11.6208C 18.2981 12.1842 19.8438 12.6682 21.7604 13.0486L 21.9935 11.8714ZM 17.7643 10.5591C 16.782 10.0329 16.1452 9.44827 15.7891 8.82892L 14.7488 9.42708C 15.2514 10.3011 16.0893 11.0231 17.1976 11.6169L 17.7643 10.5591ZM 15.7947 8.83885C 15.4192 8.16832 15.2492 7.40923 15.253 6.412L 14.053 6.412C 14.0567 7.54277 14.2974 8.59435 14.7432 9.41715L 15.7947 8.83885ZM 15.253 6.412C 15.2459 5.29019 15.5353 4.3743 16.1778 3.48385L 15.2001 2.78815C 14.4613 3.83903 14.06 5.10714 14.053 6.412L 15.253 6.412ZM 16.1809 3.47945C 16.8161 2.55841 17.6578 1.89655 18.8393 1.39063L 18.3626 0.289367C 17.0428 0.866116 15.9432 1.73493 15.197 2.79255L 16.1809 3.47945ZM 18.8462 1.38761C 20.0331 0.851892 21.3376 0.59719 22.885 0.6L 22.885 -0.6C 21.2216 -0.59719 19.6701 -0.29189 18.3558 0.29239L 18.8462 1.38761ZM 22.885 0.6C 24.2784 0.598389 25.5811 0.790666 26.8816 1.18981L 27.2323 0.0421897C 25.8448 -0.379998 24.3662 -0.598389 22.885 -0.6L 22.885 0.6ZM 26.8911 1.19262C 28.2036 1.56775 29.154 2.03201 29.8594 2.64034L 30.6385 1.72766C 29.8133 1.02932 28.6357 0.448248 27.2228 0.0393853L 26.8911 1.19262ZM 29.699 1.94416L 28.075 5.66816L 29.1749 6.14784L 30.7989 2.42384L 29.699 1.94416ZM 28.9697 5.41695C 28.0561 4.77735 27.0528 4.27081 26.0394 3.9377L 25.6665 5.0783C 26.5945 5.37986 27.4392 5.80665 28.2802 6.39905L 28.9697 5.41695ZM 26.0492 3.94101C 25.0321 3.591 23.963 3.4062 22.941 3.404L 22.941 4.604C 23.8603 4.6018 24.7325 4.753 25.6567 5.07499L 26.0492 3.94101ZM 22.941 3.404C 21.9161 3.404 21.0258 3.60429 20.3197 4.05982L 20.9702 5.06818C 21.4215 4.77704 22.0618 4.604 22.941 4.604L 22.941 3.404ZM 20.3314 4.05244C 19.5965 4.50288 19.177 5.171 19.177 6.02L 20.377 6.02C 20.377 5.637 20.5361 5.33445 20.9585 5.07556L 20.3314 4.05244ZM 19.177 6.02C 19.177 6.48893 19.3249 6.91873 19.6427 7.26543L 20.5273 6.45457C 20.4344 6.35327 20.377 6.22307 20.377 6.02L 19.177 6.02ZM 19.6427 7.26543C 19.9436 7.59371 20.4331 7.85827 21.0101 8.08909L 21.4558 6.97491C 20.9128 6.75773 20.637 6.57429 20.5273 6.45457L 19.6427 7.26543ZM 21.0264 8.09533C 21.6122 8.30946 22.4921 8.54456 23.6259 8.79039L 23.88 7.61761C 22.7738 7.3781 21.9737 7.16521 21.4395 6.96867L 21.0264 8.09533ZM 23.626 8.79042C 25.4045 9.17451 26.7423 9.6219 27.7217 10.1587L 28.2963 9.10526C 27.2223 8.5221 25.7228 8.01749 23.8799 7.61759L 23.626 8.79042ZM 27.7331 10.1648C 28.7125 10.672 29.3462 11.2464 29.7008 11.8631L 30.7411 11.2649C 30.237 10.3882 29.3961 9.67465 28.2849 9.0992L 27.7331 10.1648ZM 29.7041 11.8688C 30.0945 12.5181 30.2693 13.2412 30.265 14.196L 31.465 14.196C 31.4607 13.0975 31.2061 12.0659 30.7378 11.2592L 29.7041 11.8688ZM 30.265 14.196C 30.265 15.9543 29.5934 17.3032 28.2398 18.3059L 28.9541 19.2701C 30.6245 18.0328 31.465 16.3203 31.465 14.196L 30.265 14.196ZM 28.2437 18.303C 26.8722 19.302 24.8867 19.84 22.213 19.84L 22.213 21.04C 25.0273 21.04 27.2977 20.4767 28.9502 19.273L 28.2437 18.303ZM 45.2535 19.84C 43.2869 19.8439 41.6583 19.4683 40.2199 18.6808L 39.6471 19.7352C 41.2326 20.5903 43.1507 21.0361 45.2535 21.04L 45.2535 19.84ZM 40.2249 18.6835C 38.7856 17.8911 37.7394 16.8196 36.9636 15.343L 35.9034 15.905C 36.7702 17.5271 38.0573 18.8449 39.6421 19.7325L 40.2249 18.6835ZM 36.9662 15.348C 36.1948 13.87 35.8259 12.1987 35.8295 10.192L 34.6295 10.192C 34.633 12.3293 35.0668 14.2793 35.9007 15.9L 36.9662 15.348ZM 35.8295 10.192C 35.8257 8.1871 36.202 6.52909 36.9902 5.07169L 35.9328 4.50431C 35.0782 6.10825 34.6332 8.0529 34.6295 10.192L 35.8295 10.192ZM 36.9902 5.07169C 37.7659 3.61321 38.8023 2.55966 40.2226 1.78573L 39.6443 0.73427C 38.0779 1.603 36.7997 2.90146 35.9328 4.50431L 36.9902 5.07169ZM 40.2249 1.78449C 41.6623 0.979434 43.2884 0.595948 45.2535 0.6L 45.2535 -0.6C 43.1492 -0.595948 41.2286 -0.139434 39.6421 0.735505L 40.2249 1.78449ZM 45.2535 0.6C 47.2182 0.595907 48.8335 0.978728 50.2513 1.78295L 50.8396 0.737054C 49.2708 -0.138729 47.3581 -0.595907 45.2535 -0.6L 45.2535 0.6ZM 50.2591 1.78723C 51.6965 2.56061 52.73 3.61091 53.4861 5.06665L 54.5488 4.50935C 53.6996 2.90376 52.4184 1.60206 50.8319 0.732766L 50.2591 1.78723ZM 53.4861 5.06665C 54.2567 6.52502 54.6251 8.18563 54.6215 10.192L 55.8215 10.192C 55.8179 8.05437 55.3835 6.11231 54.5488 4.50935L 53.4861 5.06665ZM 54.6215 10.192C 54.625 12.1987 54.2561 13.87 53.4847 15.348L 54.5502 15.9C 55.3842 14.2793 55.8179 12.3293 55.8215 10.192L 54.6215 10.192ZM 53.4847 15.348C 52.7278 16.8229 51.6924 17.8919 50.2541 18.6835L 50.8369 19.7325C 52.4226 18.8441 53.7018 17.5238 54.5502 15.9L 53.4847 15.348ZM 50.2563 18.6823C 48.8375 19.469 47.2197 19.8439 45.2535 19.84L 45.2535 21.04C 47.3566 21.0361 49.2667 20.5896 50.8346 19.7337L 50.2563 18.6823ZM 45.2535 17.036C 46.9091 17.036 48.258 16.4359 49.2244 15.2118L 48.2825 14.4682C 47.5689 15.3721 46.5845 15.836 45.2535 15.836L 45.2535 17.036ZM 49.2204 15.2168C 50.1984 14.0049 50.6415 12.2994 50.6415 10.192L 49.4415 10.192C 49.4415 12.1539 49.0259 13.5471 48.2865 14.4632L 49.2204 15.2168ZM 50.6415 10.192C 50.6415 8.10272 50.1981 6.41346 49.2171 5.21916L 48.2898 5.98084C 49.0261 6.87721 49.4415 8.24928 49.4415 10.192L 50.6415 10.192ZM 49.2244 5.22821C 48.258 4.00414 46.9091 3.404 45.2535 3.404L 45.2535 4.604C 46.5845 4.604 47.5689 5.06786 48.2825 5.97179L 49.2244 5.22821ZM 45.2535 3.404C 43.6018 3.404 42.2536 3.99178 41.2858 5.19617L 42.2212 5.94783C 42.9334 5.06155 43.9185 4.604 45.2535 4.604L 45.2535 3.404ZM 41.2858 5.19617C 40.3257 6.39085 39.8935 8.08811 39.8935 10.192L 41.0935 10.192C 41.0935 8.22656 41.5012 6.84382 42.2212 5.94783L 41.2858 5.19617ZM 39.8935 10.192C 39.8935 12.3141 40.3255 14.0276 41.2825 15.2398L 42.2244 14.4962C 41.5014 13.5804 41.0935 12.1766 41.0935 10.192L 39.8935 10.192ZM 41.2858 15.2438C 42.2536 16.4482 43.6018 17.036 45.2535 17.036L 45.2535 15.836C 43.9185 15.836 42.9334 15.3784 42.2212 14.4922L 41.2858 15.2438ZM 77.4887 0.252L 77.4887 20.188L 78.6887 20.188L 78.6887 0.252L 77.4887 0.252ZM 78.0887 19.588L 74.1967 19.588L 74.1967 20.788L 78.0887 20.788L 78.0887 19.588ZM 74.6654 19.8133L 65.6214 8.50132L 64.6841 9.25067L 73.7281 20.5627L 74.6654 19.8133ZM 64.5527 8.876L 64.5527 20.188L 65.7527 20.188L 65.7527 8.876L 64.5527 8.876ZM 65.1527 19.588L 60.2527 19.588L 60.2527 20.788L 65.1527 20.788L 65.1527 19.588ZM 60.8527 20.188L 60.8527 0.252L 59.6527 0.252L 59.6527 20.188L 60.8527 20.188ZM 60.2527 0.852L 64.0887 0.852L 64.0887 -0.348L 60.2527 -0.348L 60.2527 0.852ZM 63.621 0.62781L 72.665 11.8838L 73.6004 11.1322L 64.5564 -0.123809L 63.621 0.62781ZM 73.7327 11.508L 73.7327 0.252L 72.5327 0.252L 72.5327 11.508L 73.7327 11.508ZM 73.1327 0.852L 78.0887 0.852L 78.0887 -0.348L 73.1327 -0.348L 73.1327 0.852Z"/>
<path id="path7_fill" d="M 0 0L 240 0L 240 125L 0 125L 0 0Z"/>
</defs>
</svg>
