<?xml version="1.0" encoding="UTF-8"?>
<svg width="240px" height="125px" viewBox="0 0 240 125" version="1.1" xmlns="http://www.w3.org/2000/svg" xmlns:xlink="http://www.w3.org/1999/xlink">
    <!-- Generator: Sketch 47.1 (45422) - http://www.bohemiancoding.com/sketch -->
    <title>metamask</title>
    <desc>Created with Sketch.</desc>
    <defs></defs>
    <g id="Page-1" stroke="none" stroke-width="1" fill="none" fill-rule="evenodd">
        <g id="metamask">
            <g id="Group-2" transform="translate(58.000000, 76.000000)">
                <g id="Group-3">
                    <path d="M23,43.230493 L40.5233318,15.8026694 L5.47666823,15.8026694 L23,43.230493 Z" id="Combined-Shape" stroke="#FFFFFF" stroke-width="6"></path>
                    <path d="M6.83205029,1.24807544 L12,9 L0,9 L5.16794971,1.24807544 C5.47430216,0.788546753 6.09517151,0.664372884 6.5547002,0.970725343 C6.66455248,1.0439602 6.75881544,1.13822315 6.83205029,1.24807544 Z" id="Path" fill="#FFFFFF"></path>
                    <path d="M40.8320503,1.24807544 L46,9 L34,9 L39.1679497,1.24807544 C39.4743022,0.788546753 40.0951715,0.664372884 40.5547002,0.970725343 C40.6645525,1.0439602 40.7588154,1.13822315 40.8320503,1.24807544 Z" id="Path" fill="#FFFFFF"></path>
                </g>
                <g id="Asset-3" transform="translate(56.000000, 4.000000)" fill-rule="nonzero" fill="#FFFFFF">
                    <polygon id="Shape" points="13.472973 18 13.4594595 11.096823 10.6216216 18 7.36486486 18 4.5 11.1785174 4.5 18 0 18 0 0 4.02702703 0 9.02702703 11.505295 14.0135135 0 18 0 18 18"></polygon>
                    <polygon id="Shape" points="13.54215 1 17 1 17 18 13.0556845 18 13.0556845 10.2039062 9.8870843 18 7.07347254 18 3.85228152 10.3234375 3.85228152 18 0 18 0 1 3.4841454 1 8.51972158 12.6210938"></polygon>
                    <polygon id="Shape" points="23 18 23 0 36 0 36 4.07110439 28.0283019 4.07110439 28.0283019 6.80786687 35.4821803 6.80786687 35.4821803 10.892587 28.0283019 10.892587 28.0283019 13.9152799 36 13.9152799 36 18"></polygon>
                    <polygon id="Shape" points="24 17 24 0 36 0 36 3.43984375 28.3194748 3.43984375 28.3194748 6.640625 35.5010941 6.640625 35.5010941 10.09375 28.3194748 10.09375 28.3194748 13.5867187 36 13.5867187 36 17"></polygon>
                    <polygon id="Shape" points="46.0043668 18 46.0043668 4.27534039 41 4.27534039 41 0 56 0 56 4.27534039 51.0087336 4.27534039 51.0087336 18"></polygon>
                    <polygon id="Shape" points="46.1855204 17 46.1855204 3.6390625 41 3.6390625 41 0 56 0 56 3.6390625 50.8280543 3.6390625 50.8280543 17"></polygon>
                    <path d="M71.8117647,18 L70.2607843,14.3918306 L62.8215686,14.3918306 L61.2019608,18 L56,18 L64.4823529,0 L68.4901961,0 L77,18 L71.8117647,18 Z M68.5176471,10.4024206 L66.5411765,5.84114977 L64.5647059,10.3888048 L68.5176471,10.4024206 Z" id="Shape"></path>
                    <path d="M71.4601227,18 L69.9195637,14.4804688 L62.0940695,14.4804688 L60.6080436,18 L56,18 L64.1663258,1 L67.7927744,1 L76,18 L71.4601227,18 Z M63.6482618,11.1335937 L68.4062713,11.1335937 L66.0204499,5.82109375 L63.6482618,11.1335937 Z" id="Shape"></path>
                    <polygon id="Shape" points="13.472973 40 13.4594595 33.096823 10.6216216 40 7.36486486 40 4.5 33.1785174 4.5 40 0 40 0 22 4.02702703 22 9.02702703 33.505295 14.0135135 22 18 22 18 40"></polygon>
                    <polygon id="Shape" points="13.54215 23 17 23 17 40 13.0556845 40 13.0556845 32.2039063 9.8870843 40 7.07347254 40 3.85228152 32.296875 3.85228152 40 0 40 0 23 3.4841454 23 8.51972158 34.6210938"></polygon>
                    <path d="M35.8117647,40 L34.2607843,36.3918306 L26.8078431,36.3918306 L25.2568627,40 L20,40 L28.4823529,22 L32.4901961,22 L41,40 L35.8117647,40 Z M32.5176471,32.4024206 L30.5411765,27.8547655 L28.5647059,32.4024206 L32.5176471,32.4024206 Z" id="Shape"></path>
                    <path d="M36.4706685,40 L34.9290587,36.5124805 L27.1664393,36.5124805 L25.6111869,40 L21,40 L29.1855389,23 L32.8144611,23 L41,40 L36.4706685,40 Z M28.6671214,33.1310452 L33.4283765,33.1310452 L31.0409277,27.8268331 L28.6671214,33.1310452 Z" id="Shape"></path>
                    <path d="M50.2041868,39.9775076 C48.8930367,39.9789697 47.5873942,39.8093462 46.3208891,39.4730059 C45.1938257,39.199084 44.1271595,38.7220571 43.1740789,38.0657118 L43,37.9329482 L44.6336632,34.2819492 L44.9014768,34.4412656 C45.7086254,34.9514393 46.5827592,35.3490358 47.4992691,35.6228616 C48.3937773,35.8919066 49.3229945,36.0305465 50.2577495,36.0344287 C50.9724578,36.0732939 51.6867358,35.9507244 52.3466959,35.675967 C52.718066,35.5397382 52.9676635,35.192232 52.9760579,34.7997273 C52.9579808,34.4357714 52.7355232,34.1126277 52.4002586,33.9633166 C51.5948309,33.5788674 50.7380774,33.3106235 49.8560291,33.166735 C48.5203261,32.942907 47.2224317,32.5363096 45.9995127,31.9585863 C45.1754995,31.5684831 44.4826654,30.9507169 44.0043011,30.1795541 C43.6035017,29.4279788 43.4051703,28.5865506 43.4285018,27.7367039 C43.419475,26.6767003 43.7474428,25.6408085 44.3658495,24.7760757 C45.048809,23.8602956 45.9764499,23.1521103 47.0439859,22.7315163 C48.2465307,22.2282449 49.5418363,21.9795351 50.8469395,22.0013165 C52.0938185,22.0014445 53.3341286,22.180313 54.529377,22.5323709 C55.563407,22.8023624 56.5299304,23.2814983 57.3682015,23.939665 L57.515499,24.0724286 L55.9086172,27.7234275 L55.6408036,27.5375585 C54.9290226,27.0401378 54.1488578,26.646679 53.3242156,26.3692389 C52.543535,26.1066713 51.7248777,25.9721407 50.9005022,25.9709481 C50.2609766,25.9399183 49.6254681,26.087091 49.0659788,26.3957916 C48.6835339,26.601717 48.4467031,26.9998712 48.4500075,27.4313476 C48.4449929,27.6274887 48.5170096,27.8178936 48.6508677,27.962402 C48.906059,28.1877335 49.2076218,28.3553482 49.5346527,28.4536273 C50.2298716,28.6935303 50.9413586,28.8843023 51.6637711,29.0245108 C52.9632142,29.2695942 54.2240466,29.6847954 55.413162,30.2592122 C56.2291537,30.6488099 56.919915,31.255535 57.4083736,32.0116917 C57.8152953,32.7422773 58.0186592,33.5671177 57.9975636,34.4014365 C58.0492779,36.0292743 57.2750161,37.5745471 55.9353986,38.517108 C54.2341565,39.6046916 52.2235227,40.1170316 50.2041868,39.9775076 L50.2041868,39.9775076 Z" id="Shape"></path>
                    <path d="M45.9956726,39.4780415 C44.9252605,39.2188118 43.9097604,38.7560396 43,38.1128874 L44.3866432,34.8501691 C45.1998415,35.3878748 46.0802465,35.8059137 47.0029512,36.0924593 C47.9026098,36.3741304 48.8369634,36.5167108 49.7762376,36.5156571 C50.5206449,36.5554562 51.2638025,36.4152985 51.9477733,36.1061108 C52.3850399,35.9303379 52.6787157,35.4981298 52.6929952,35.0093541 C52.7072747,34.5205784 52.4393746,34.0705031 52.013181,33.8672581 C51.1856048,33.4526699 50.3040513,33.1674806 49.396873,33.0208625 C48.1147338,32.7973958 46.8687129,32.3884632 45.6947972,31.8058753 C44.9357685,31.433591 44.2954506,30.8411988 43.8503001,30.0994327 C43.4803945,29.3638876 43.3000767,28.5406232 43.3270385,27.710413 C43.3090483,26.6422496 43.6260078,25.597207 44.2296647,24.734377 C44.8503129,23.8377453 45.69712,23.1383423 46.6759127,22.7139488 C47.8388574,22.2070662 49.0920775,21.9650485 50.3518254,22.0040687 C51.5433127,22.0028799 52.7286538,22.1822204 53.8707596,22.5364788 C54.8225815,22.8015807 55.7127481,23.2660576 56.4870676,23.9016329 L55.1789136,27.1643513 C54.4636934,26.6361291 53.6795271,26.217767 52.8503995,25.922061 C52.0421309,25.6601339 51.1977736,25.540187 50.3518254,25.567121 C49.676195,25.5325492 49.0049811,25.6981987 48.4157575,26.0449249 C47.9604668,26.3025062 47.6786707,26.8013831 47.6831913,27.3418213 C47.6757579,27.6136129 47.7695326,27.877837 47.9448221,28.0790046 C48.2243558,28.340374 48.5545044,28.5359204 48.912856,28.6523693 C49.6047249,28.9047528 50.3129136,29.1054815 51.0320655,29.2530371 C52.2743456,29.4994416 53.4796973,29.9172022 54.6164074,30.4953274 C55.3697672,30.8701739 56.0083921,31.4562733 56.4609045,32.1881185 C56.8346115,32.8980281 57.0197777,33.6992439 56.9972476,34.5088805 C57.0503532,36.0973392 56.33215,37.6066013 55.0873428,38.5224337 C53.4931336,39.5904031 51.6149031,40.1019337 49.7239115,39.9831486 C48.4652398,39.9873986 47.2115793,39.8175509 45.9956726,39.4780415 L45.9956726,39.4780415 Z" id="Shape"></path>
                    <polygon id="Shape" points="72.7949886 40 66.1799544 32.5249622 66.1799544 40 61 40 61 22 66.1799544 22 66.1799544 29.0665658 72.6036446 22 78.7539863 22 70.7448747 30.5642965 79 40"></polygon>
                    <polygon id="Shape" points="78 39 72.5730247 39 65.5993615 31.296875 65.5993615 39 61 39 61 22 65.5857941 22 65.5857941 29.3179688 72.3695132 22 77.7964884 22 70.0359138 30.075"></polygon>
                </g>
            </g>
        </g>
    </g>
</svg>