<svg xmlns="http://www.w3.org/2000/svg" viewBox="0 0 240 125"><defs><style>.cls-1,.cls-3{fill:#fff;}.cls-2{fill:none;stroke:#fff;stroke-width:6px;}.cls-3{fill-opacity:0.01;}</style></defs><title>Asset 20</title><g id="Layer_2" data-name="Layer 2"><g id="cutting-board"><g id="metamask"><g id="metamask-text"><g id="MASK"><path class="cls-1" d="M124.22,91.94V84.5c0-.69,0-1.59.08-2.29-.41.57-1,1.3-1.44,1.85L119,88.38h-.63l-3.83-4.33c-.48-.55-1-1.28-1.44-1.85,0,.7.08,1.6.08,2.29v7.44H108.9V72.1h.74l9.15,10.15,9-10.15h.77V91.94Z"/><path class="cls-1" d="M109.2,72.4h.3l9.28,10.3,9.14-10.3h.33V91.64h-3.74V84.5c0-1.29.14-3.33.14-3.33s-1.14,1.68-2,2.69l-3.74,4.23h-.36l-3.74-4.23a33.53,33.53,0,0,1-2-2.69s.14,2,.14,3.33v7.14H109.2Z"/><polygon class="cls-1" points="134.42 91.94 134.42 72.3 147.49 72.3 147.49 76.34 138.9 76.34 138.9 80.11 146.47 80.11 146.47 84.07 138.9 84.07 138.9 87.89 147.88 87.89 147.88 91.94 134.42 91.94"/><path class="cls-1" d="M135,72.6h12.47V76h-8.59v4.37h7.56v3.36h-7.56V88.2h9v3.44H135Z"/><polygon class="cls-1" points="157.7 91.94 157.7 76.34 152.32 76.34 152.32 72.3 167.55 72.3 167.55 76.34 162.18 76.34 162.18 91.94 157.7 91.94"/><path class="cls-1" d="M158,76h-5.38V72.6h14.63V76h-5.38v15.6H158Z"/><path class="cls-1" d="M182.32,91.94l-1.05-2.58h-6.91l-1.05,2.58h-4.4l8.54-19.81h.72l8.89,19.81Zm-2.69-6.45-1-2.47c-.31-.75-.63-1.73-.86-2.45-.31,1-.59,1.84-.83,2.45l-1,2.47Z"/><path class="cls-1" d="M177.9,72.43h.33l8.62,19.21h-4.07l-1.05-2.58h-7.32l-1.05,2.58h-3.74Zm2.44,13.36-1.19-2.88c-.53-1.26-1.08-3.19-1.14-3.39,0,.08-.58,2.07-1.11,3.39l-1.19,2.88Z"/></g><g id="META"><path class="cls-1" d="M124.54,116.16v-7.44c0-.69,0-1.59.08-2.29-.41.57-1,1.3-1.44,1.85l-3.83,4.33h-.63l-3.83-4.33c-.48-.55-1-1.28-1.44-1.85,0,.7.08,1.6.08,2.29v7.44h-4.31V96.33H110l9.15,10.15,9-10.15h.77v19.84Z"/><path class="cls-1" d="M109.51,96.63h.3l9.28,10.3,9.14-10.3h.33v19.24h-3.74v-7.14c0-1.29.14-3.33.14-3.33s-1.14,1.68-2,2.69l-3.74,4.23h-.36l-3.74-4.23a33.53,33.53,0,0,1-2-2.69s.14,2,.14,3.33v7.14h-3.71Z"/><path class="cls-1" d="M145.86,116.16l-1.05-2.58h-6.91l-1.05,2.58h-4.4L141,96.36h.72l8.89,19.81Zm-2.69-6.45-1-2.47c-.31-.75-.63-1.73-.86-2.45-.31,1-.59,1.84-.83,2.45l-1,2.47Z"/><path class="cls-1" d="M141.18,96.66h.33l8.62,19.21h-4.07L145,113.29h-7.32l-1.05,2.58H132.9ZM143.62,110l-1.19-2.88c-.53-1.26-1.08-3.19-1.14-3.39,0,.08-.58,2.07-1.11,3.39L139,110Z"/><path class="cls-1" d="M159.75,116.42c-4.56,0-6.55-2.61-7.33-4.17l-.13-.25,3.66-2.14.15.25a3.89,3.89,0,0,0,3.57,2.24c1.4,0,2.33-.66,2.33-1.63s-.81-1.52-2.65-2.33l-1-.42c-2.51-1.08-4.84-2.58-4.84-6.18,0-3.23,2.46-5.48,6-5.48a6,6,0,0,1,5.78,3.29l.14.25-3.53,2.29-.16-.28a2.36,2.36,0,0,0-2.23-1.53A1.4,1.4,0,0,0,158,101.7c0,1,.55,1.38,2.2,2.11l1,.42c3.38,1.46,5.33,3,5.33,6.44S163.83,116.42,159.75,116.42Z"/><path class="cls-1" d="M152.68,112.11l3.16-1.85a4.22,4.22,0,0,0,3.82,2.38c1.61,0,2.63-.81,2.63-1.93,0-1.34-1.05-1.82-2.83-2.6l-1-.42c-2.8-1.2-4.66-2.72-4.66-5.91,0-2.94,2.22-5.18,5.68-5.18A5.72,5.72,0,0,1,165,99.74l-3,2a2.64,2.64,0,0,0-2.49-1.68,1.69,1.69,0,0,0-1.86,1.68c0,1.18.72,1.65,2.38,2.38l1,.42c3.3,1.43,5.15,2.88,5.15,6.16,0,3.53-2.74,5.46-6.43,5.46A7.44,7.44,0,0,1,152.68,112.11Z"/><path class="cls-1" d="M171,96.82h3.88v6.3a31.72,31.72,0,0,1-.25,3.19,14.79,14.79,0,0,1,1.66-3l5-6.52h4.41l-6.43,8.34,7.09,10.7h-4.68l-5-7.76-1.83,2.21v5.54H171Z"/></g></g><g id="icon"><path id="Combined-Shape" class="cls-2" d="M75.39,109,90.3,87.31H60.48Z"/><path id="Path" class="cls-1" d="M60.91,74.68l4.63,6.46H54.78l4.63-6.46a.94.94,0,0,1,1.24-.23A.87.87,0,0,1,60.91,74.68Z"/><path id="Path-2" data-name="Path" class="cls-1" d="M91.37,74.68,96,81.14H85.25l4.63-6.46a.94.94,0,0,1,1.24-.23A.87.87,0,0,1,91.37,74.68Z"/></g><g id="bg"><path id="path13_fill" data-name="path13 fill" class="cls-3" d="M0,0H240V125H0Z"/></g></g></g></g></svg>