<svg width="28" height="28" viewBox="0 0 28 28" version="1.1" xmlns="http://www.w3.org/2000/svg" xmlns:xlink="http://www.w3.org/1999/xlink">
<title>omg</title>
<desc>Created using Figma</desc>
<g id="Canvas" transform="translate(-707 1293)">
<g id="omg">
<g id="Vector">
<use xlink:href="#path0_fill" transform="translate(707 -1293)" fill="#1A53F0"/>
</g>
<g id="Vector">
<use xlink:href="#path1_fill" transform="translate(715.004 -1284.03)" fill="#FFFFFF"/>
</g>
</g>
</g>
<defs>
<path id="path0_fill" d="M 14 28C 21.732 28 28 21.732 28 14C 28 6.26801 21.732 0 14 0C 6.26802 0 0 6.26801 0 14C 0 21.732 6.26802 28 14 28Z"/>
<path id="path1_fill" d="M 3.24125 6.9258C 1.45331 6.9258 0.0038901 8.37942 0.0038901 10.1725C 0.0038901 11.9657 1.45345 13.4193 3.24139 13.4193C 5.02933 13.4193 6.47889 11.9657 6.47889 10.1725C 6.47889 8.37942 5.02947 6.9258 3.24139 6.9258L 3.24125 6.9258ZM 3.24125 12.4372C 1.99525 12.4372 0.984309 11.4239 0.984309 10.1737C 0.984309 8.92346 1.99483 7.91014 3.24125 7.91014C 4.48767 7.91014 5.49833 8.92346 5.49833 10.1737C 5.49623 11.4227 4.48697 12.4356 3.24125 12.4372ZM 10.1553 0.000140661C 8.36735 0.000140661 6.91779 1.45376 6.91779 3.24688C 6.91779 5.04 8.36735 6.49362 10.1553 6.49362C 11.9432 6.49362 13.3928 5.04 13.3928 3.24688C 13.3928 1.45376 11.9435 5.24398e-07 10.1554 5.24398e-07L 10.1553 0.000140661ZM 10.1553 5.51152C 8.90929 5.51152 7.89835 4.4982 7.89835 3.248C 7.89835 1.9978 8.90845 0.98448 10.1554 0.98448C 11.4024 0.98448 12.4125 1.9978 12.4125 3.248C 12.4104 4.49764 11.4004 5.50928 10.1554 5.51138L 10.1553 5.51152ZM 3.24125 5.24398e-07C 1.69999 -0.000979475 0.37125 1.08766 0.0649299 2.6026C -0.24139 4.11754 0.559269 5.63906 1.97845 6.24064C 2.66883 6.53062 3.43823 6.57299 4.15628 6.36058C 4.87433 6.14817 5.49686 5.69403 5.91837 5.07514C 6.33989 4.45624 6.53448 3.71064 6.46915 2.96469C 6.40382 2.21874 6.0826 1.51831 5.55993 0.982101L 6.47791 0.982101L 6.47791 5.24398e-07L 3.24125 5.24398e-07ZM 5.49847 3.24674C 5.49847 4.4968 4.48795 5.51026 3.24139 5.51026C 1.99483 5.51026 0.984449 4.4968 0.984449 3.24674C 0.984449 1.99668 1.99483 0.98364 3.24125 0.98364C 4.48767 0.98364 5.49735 1.99738 5.49959 3.24716L 5.49847 3.24716L 5.49847 3.24674Z"/>
</defs>
</svg>
