<svg width="13" height="19" viewBox="0 0 13 19" version="1.1" xmlns="http://www.w3.org/2000/svg" xmlns:xlink="http://www.w3.org/1999/xlink">
<title>pending</title>
<desc>Created using Figma</desc>
<g id="Canvas" transform="translate(-647 1881)">
<g id="pending">
<g id="Vector">
<use xlink:href="#path0_fill" transform="translate(647 -1881)"/>
</g>
<g id="Vector">
<use xlink:href="#path1_fill" transform="translate(649 -1874.97)"/>
</g>
</g>
</g>
<defs>
<path id="path0_fill" d="M 13 2.499L 13 1.999C 13 1.607 12.759 1.266 12.283 0.985C 11.939 0.782 11.462 0.603 10.864 0.454C 9.692 0.161 8.142 4.673e-08 6.5 4.673e-08C 4.858 4.673e-08 3.308 0.161 2.136 0.454C 1.538 0.603 1.061 0.782 0.717 0.985C 0.241 1.266 0 1.607 0 1.999L 0 2.499C 0 5.13 1.593 7.498 4 8.501L 4 10.498C 1.593 11.501 0 13.869 0 16.5L 0 17C 0 17.392 0.241 17.733 0.717 18.014C 1.061 18.217 1.538 18.396 2.136 18.545C 3.308 18.838 4.858 18.999 6.5 18.999C 8.142 18.999 9.692 18.838 10.864 18.545C 11.462 18.396 11.939 18.217 12.283 18.014C 12.759 17.733 13 17.391 13 17L 13 16.5C 13 13.869 11.407 11.501 9 10.498L 9 8.501C 11.407 7.498 13 5.13 13 2.499ZM 2.612 1.368C 3.678 1.13 5.059 0.999 6.5 0.999C 7.941 0.999 9.323 1.13 10.388 1.368C 11.538 1.625 11.886 1.902 11.977 1.999C 11.886 2.096 11.538 2.373 10.388 2.63C 9.322 2.868 7.941 2.999 6.5 2.999C 5.059 2.999 3.677 2.868 2.612 2.63C 1.462 2.373 1.114 2.096 1.023 1.999C 1.114 1.902 1.462 1.625 2.612 1.368ZM 8.333 11.312C 10.526 12.087 12 14.172 12 16.499L 12 16.972C 11.958 17.029 11.676 17.342 10.388 17.629C 9.322 17.867 7.941 17.998 6.5 17.998C 5.059 17.998 3.677 17.867 2.612 17.629C 1.325 17.341 1.042 17.029 1 16.972L 1 16.499C 1 14.172 2.473 12.087 4.667 11.312C 4.867 11.241 5 11.053 5 10.841L 5 8.158C 5 7.946 4.866 7.757 4.667 7.687C 2.691 6.988 1.299 5.226 1.043 3.181C 1.343 3.316 1.709 3.438 2.136 3.545C 3.308 3.838 4.858 3.999 6.5 3.999C 8.142 3.999 9.692 3.838 10.864 3.545C 11.292 3.438 11.658 3.316 11.957 3.181C 11.701 5.226 10.31 6.988 8.333 7.687C 8.133 7.758 8 7.947 8 8.158L 8 10.841C 8 11.053 8.134 11.242 8.333 11.312Z"/>
<path id="path1_fill" d="M 8.66699 9.4964C 6.40499 8.6974 4.99999 6.7704 4.99999 4.4674L 4.99999 1.4424C 5.59999 1.3834 6.17799 1.2174 6.72299 0.947398C 6.96999 0.824398 7.07099 0.524398 6.94799 0.277398C 6.82499 0.0303976 6.52499 -0.0706023 6.27799 0.0523977C 5.72299 0.328398 5.12499 0.468398 4.49999 0.468398C 3.87499 0.468398 3.27699 0.328398 2.72199 0.0523977C 2.47499 -0.0706023 2.17499 0.0303976 2.05199 0.277398C 1.92899 0.524398 2.02999 0.824398 2.27699 0.947398C 2.82199 1.2184 3.39899 1.3834 3.99999 1.4424L 3.99999 4.4674C 3.99999 6.7694 2.59499 8.6964 0.332988 9.4964C 0.122988 9.5704 -0.0130122 9.7754 0.000987792 9.9974C 0.0149878 10.2194 0.172988 10.4064 0.390988 10.4554C 1.37299 10.6754 2.86799 10.9674 4.49999 10.9674C 6.13199 10.9674 7.62699 10.6754 8.60899 10.4554C 8.82699 10.4064 8.98599 10.2194 8.99899 9.9974C 9.01199 9.7754 8.87699 9.5704 8.66699 9.4964ZM 4.49999 9.9674C 3.62299 9.9674 2.79899 9.8804 2.06299 9.7624C 2.72799 9.3414 3.30699 8.8104 3.77399 8.1874C 4.06699 7.7964 4.30999 7.3754 4.49999 6.9334C 4.68999 7.3754 4.93299 7.7964 5.22599 8.1874C 5.69199 8.8094 6.27099 9.3404 6.93699 9.7624C 6.20099 9.8794 5.37699 9.9674 4.49999 9.9674Z"/>
</defs>
</svg>
