<svg width="240" height="125" viewBox="0 0 240 125" version="1.1" xmlns="http://www.w3.org/2000/svg" xmlns:xlink="http://www.w3.org/1999/xlink">
<title>private-key</title>
<desc>Created using Figma</desc>
<g id="Canvas" transform="translate(2837 -989)">
<g id="private-key">
<g id="img">
<g id="if_key-outline_216265">
<g id="Group">
<g id="Vector">
<use xlink:href="#path0_fill" transform="translate(-2787 1068)" fill="#FFFFFF"/>
</g>
</g>
<g id="Group">
<g id="Vector">
<use xlink:href="#path1_fill" transform="translate(-2767.16 1078.49)" fill="#FFFFFF"/>
</g>
</g>
</g>
<g id="PKEY">
<use xlink:href="#path2_fill" transform="translate(-2733.21 1079.06)" fill="#FFFFFF"/>
<use xlink:href="#path3_fill" transform="translate(-2733.21 1079.06)" fill="#FFFFFF"/>
<use xlink:href="#path4_fill" transform="translate(-2733.21 1079.06)" fill="#FFFFFF"/>
<use xlink:href="#path5_fill" transform="translate(-2733.21 1079.06)" fill="#FFFFFF"/>
</g>
<g id="PKEY (Stroke)">
<use xlink:href="#path6_fill" transform="translate(-2733.81 1078.46)" fill="#FFFFFF"/>
</g>
</g>
<g id="bg">
<use xlink:href="#path7_fill" transform="translate(-2837 989)" fill="#FFFFFF" fill-opacity="0.01"/>
</g>
</g>
</g>
<defs>
<path id="path0_fill" d="M 15.871 42L 0 42L 0 30.4133L 10.0066 20.4829C 9.512 18.942 9.25806 17.3539 9.25806 15.75C 9.25806 7.06387 16.3762 0 25.129 0C 33.8819 0 41 7.06387 41 15.75C 41 24.4361 33.8819 31.5 25.129 31.5L 21.1613 31.5L 21.1613 36.75L 15.871 36.75L 15.871 42ZM 5.29032 36.75L 10.5806 36.75L 10.5806 31.5L 15.871 31.5L 15.871 26.25L 25.129 26.25C 30.9643 26.25 35.7097 21.5408 35.7097 15.75C 35.7097 9.95925 30.9643 5.25 25.129 5.25C 19.2938 5.25 14.5484 9.95925 14.5484 15.75C 14.5484 17.2174 14.8685 18.6611 15.498 20.0524L 16.2519 21.7088L 5.29032 32.5867L 5.29032 36.75Z"/>
<path id="path1_fill" d="M 5.29032 2.625C 6.74781 2.625 7.93548 3.80363 7.93548 5.25525C 7.93548 6.70425 6.74781 7.88025 5.29032 7.88025C 3.83284 7.88025 2.64516 6.70425 2.64516 5.25525C 2.64516 3.80363 3.83284 2.625 5.29032 2.625ZM 5.29032 3.80516e-07C 2.37006 3.80516e-07 0 2.352 0 5.25525C 0 8.15325 2.37006 10.5052 5.29032 10.5052C 8.21323 10.5052 10.5806 8.15325 10.5806 5.25525C 10.5806 2.35463 8.21323 3.80516e-07 5.29032 3.80516e-07Z"/>
<path id="path2_fill" d="M 0 0L 9.492 0C 11.7693 0 13.5333 0.550667 14.784 1.652C 16.0347 2.73467 16.66 4.20933 16.66 6.076C 16.66 7.924 16.0253 9.39867 14.756 10.5C 13.4867 11.6013 11.732 12.152 9.492 12.152L 5.264 12.152L 5.264 19.936L 0 19.936L 0 0ZM 8.792 8.232C 10.7707 8.232 11.76 7.532 11.76 6.132C 11.76 5.42267 11.5173 4.89067 11.032 4.536C 10.5653 4.16267 9.81867 3.976 8.792 3.976L 5.264 3.976L 5.264 8.232L 8.792 8.232Z"/>
<path id="path3_fill" d="M 34.372 19.936L 26.392 10.892L 26.392 19.936L 21.128 19.936L 21.128 0L 26.392 0L 26.392 8.568L 34.148 0L 40.308 0L 31.488 9.464L 40.616 19.936L 34.372 19.936Z"/>
<path id="path4_fill" d="M 42.8575 0L 57.0815 0L 57.0815 4.032L 47.9815 4.032L 47.9815 7.784L 56.4935 7.784L 56.4935 11.816L 47.9815 11.816L 47.9815 15.904L 57.0815 15.904L 57.0815 19.936L 42.8575 19.936L 42.8575 0Z"/>
<path id="path5_fill" d="M 71.8226 12.32L 71.8226 19.936L 66.5306 19.936L 66.5306 12.292L 58.1586 0L 64.0946 0L 69.1346 7.952L 74.2586 0L 80.2506 0L 71.8226 12.32Z"/>
<path id="path6_fill" fill-rule="evenodd" d="M 0 0L 10.092 0C 12.4605 0 14.384 0.572943 15.7787 1.80007C 17.1774 3.01193 17.86 4.66113 17.86 6.676C 17.86 8.6784 17.1639 10.3257 15.7492 11.5532C 14.3389 12.7769 12.4278 13.352 10.092 13.352L 6.464 13.352L 6.464 21.136L 0 21.136L 0 0ZM 5.864 12.752L 10.092 12.752C 12.332 12.752 14.0867 12.2013 15.356 11.1C 16.6253 9.99867 17.26 8.524 17.26 6.676C 17.26 4.80933 16.6347 3.33467 15.384 2.252C 14.1333 1.15067 12.3693 0.599999 10.092 0.599999L 0.6 0.599999L 0.6 20.536L 5.864 20.536L 5.864 12.752ZM 11.2674 5.61271L 11.2572 5.60452C 10.9499 5.35872 10.3709 5.176 9.392 5.176L 6.464 5.176L 6.464 8.232L 9.392 8.232C 10.3288 8.232 10.9241 8.06299 11.2714 7.8172C 11.5808 7.59834 11.76 7.27203 11.76 6.732C 11.76 6.175 11.5796 5.84086 11.278 5.62043L 11.2674 5.61271ZM 5.864 8.832L 5.864 4.576L 9.392 4.576C 10.4187 4.576 11.1653 4.76267 11.632 5.136C 12.1173 5.49067 12.36 6.02267 12.36 6.732C 12.36 8.132 11.3707 8.832 9.392 8.832L 5.864 8.832ZM 34.7012 21.136L 27.592 13.0789L 27.592 21.136L 21.128 21.136L 21.128 0L 27.592 0L 27.592 7.61113L 34.4818 0L 42.2873 0L 32.8956 10.0774L 42.5349 21.136L 34.7012 21.136ZM 32.088 10.064L 40.908 0.599999L 34.748 0.599999L 26.992 9.168L 26.992 0.599999L 21.728 0.599999L 21.728 20.536L 26.992 20.536L 26.992 11.492L 34.972 20.536L 41.216 20.536L 32.088 10.064ZM 42.8575 0L 65.0247 0L 69.7388 7.4378L 74.5315 0L 81.988 0L 73.0226 13.1056L 73.0226 21.136L 66.5306 21.136L 66.5306 13.0769L 58.2815 0.965329L 58.2815 5.232L 49.1815 5.232L 49.1815 7.784L 57.6935 7.784L 57.6935 13.016L 49.1815 13.016L 49.1815 15.904L 58.2815 15.904L 58.2815 21.136L 42.8575 21.136L 42.8575 0ZM 48.5815 16.504L 48.5815 12.416L 57.0935 12.416L 57.0935 8.384L 48.5815 8.384L 48.5815 4.632L 57.6815 4.632L 57.6815 0.599999L 43.4575 0.599999L 43.4575 20.536L 57.6815 20.536L 57.6815 16.504L 48.5815 16.504ZM 67.1306 12.892L 67.1306 20.536L 72.4226 20.536L 72.4226 12.92L 80.8506 0.599999L 74.8586 0.599999L 69.7346 8.552L 64.6946 0.599999L 58.7586 0.599999L 67.1306 12.892Z"/>
<path id="path7_fill" d="M 0 0L 240 0L 240 125L 0 125L 0 0Z"/>
</defs>
</svg>
