<svg xmlns="http://www.w3.org/2000/svg" viewBox="0 0 240 125"><defs><style>.cls-1,.cls-2{fill:#fff;}.cls-2{fill-opacity:0.01;}</style></defs><title>Asset 30</title><g id="Layer_2" data-name="Layer 2"><g id="cutting-board"><g id="key"><g id="KEY-2" data-name="KEY"><polygon class="cls-1" points="126.6 111.21 121.67 103.59 120.81 104.63 120.81 111.21 114.66 111.21 114.66 88.81 120.81 88.81 120.81 95.83 126.24 88.81 133.49 88.81 125.79 98.8 134.03 111.21 126.6 111.21"/><path class="cls-1" d="M115.66,89.81h4.16v6.75a33.69,33.69,0,0,1-.27,3.42,15.88,15.88,0,0,1,1.78-3.18l5.4-7h4.72l-6.89,8.94,7.6,11.46h-5l-5.37-8.31-2,2.37v5.94h-4.16Z"/><polygon class="cls-1" points="138.2 111.21 138.2 88.81 153.57 88.81 153.57 94.5 144.36 94.5 144.36 97.18 152.47 97.18 152.47 102.78 144.36 102.78 144.36 105.52 153.98 105.52 153.98 111.21 138.2 111.21"/><path class="cls-1" d="M139.2,89.81h13.36V93.5h-9.21v4.68h8.11v3.6h-8.11v4.74H153v3.69H139.2Z"/><path class="cls-1" d="M164,111.21V103l-7.69-14.18h7l3.13,6.09c.24.47.49,1,.73,1.57.22-.53.46-1.08.7-1.55l3-6.11h6.54l-7.18,13.87v8.53Z"/><path class="cls-1" d="M164.29,102.74l-7-12.93h4.66l2.85,5.55c.74,1.44,1.63,3.84,1.63,3.84s.83-2.34,1.57-3.84l2.73-5.55H175l-6.53,12.63v7.77h-4.19Z"/></g><g id="key-3" data-name="key"><g id="Group"><g id="Vector"><g id="path0_fill-link" data-name="path0 fill-link"><path id="path0_fill" data-name="path0 fill" class="cls-1" d="M81.23,116.14H67.38V106l8.74-8.67a13.49,13.49,0,0,1-.65-4.13A13.86,13.86,0,1,1,89.32,107H85.85v4.58H81.23ZM72,111.56h4.62V107h4.62v-4.58h8.08a9.17,9.17,0,1,0-9.24-9.17A9.05,9.05,0,0,0,80.91,97l.66,1.45L72,107.92Z"/></g></g></g><g id="Group-2" data-name="Group"><g id="Vector-2" data-name="Vector"><g id="path1_fill-link" data-name="path1 fill-link"><path id="path1_fill" data-name="path1 fill" class="cls-1" d="M89.32,90.92A2.29,2.29,0,1,1,87,93.22,2.31,2.31,0,0,1,89.32,90.92Zm0-2.29a4.59,4.59,0,1,0,4.62,4.59A4.6,4.6,0,0,0,89.32,88.63Z"/></g></g></g></g><g id="bg"><path id="path13_fill" data-name="path13 fill" class="cls-2" d="M0,0H240V125H0Z"/></g></g></g></g></svg>