<?xml version="1.0" encoding="UTF-8"?>
<svg width="26px" height="38px" viewBox="0 0 26 38" version="1.1" xmlns="http://www.w3.org/2000/svg" xmlns:xlink="http://www.w3.org/1999/xlink">
    <!-- Generator: Sketch 50.2 (55047) - http://www.bohemiancoding.com/sketch -->
    <title>Coupon - KNC</title>
    <desc>Created with Sketch.</desc>
    <defs></defs>
    <g id="Swap---Improve" stroke="none" stroke-width="1" fill="none" fill-rule="evenodd" opacity="0.495479911">
        <g id="Swap-Promocode-1" transform="translate(-695.000000, -598.000000)" fill-rule="nonzero">
            <g id="Group-7" transform="translate(663.000000, 589.000000)">
                <g id="Group-14" transform="translate(32.000000, 9.000000)">
                    <g id="Coupon---KNC">
                        <g id="Group-4">
                            <polygon id="Path-2" fill="#FFFFFF" points="24.6554939 10.4648791 9.91930711 18.8079501 24.1138876 27.6268812"></polygon>
                            <polygon id="Path-4" fill="#FFFFFF" points="12.98386 1.32125708 8.59375233 19.7520679 24.9245493 10.3870782"></polygon>
                            <polygon id="Path-5" fill="#FFFFFF" points="13.0268899 36.8898996 9.11383185 19.8151811 23.972208 28.3525403"></polygon>
                            <path d="M11.8333805,1.10301442 L1.33700761,9.11182175 C0.881962545,9.4556342 0.619047619,9.99157711 0.619047619,10.5679685 L0.619047619,27.5462355 C0.619047619,28.1125149 0.881962545,28.65857 1.33700761,29.0023825 L11.8333805,37.0010775 C12.4906678,37.496572 13.4007579,37.496572 14.0479331,37.0010775 L24.5443059,28.9922703 C24.9993509,28.6484578 25.262266,28.1125149 25.262266,27.5361235 L25.262266,10.5578564 C25.262266,9.99157711 24.9993509,9.44552205 24.5443059,9.10170963 L14.0479331,1.10301442 C13.4007579,0.597407893 12.4906678,0.597407893 11.8333805,1.10301442 Z M9.89185484,20.4171837 L23.381413,28.1529635 L13.2187399,35.8988554 L9.89185484,20.4171837 Z M13.228852,2.20523664 L23.381413,9.95112858 L9.89185484,17.6869084 L13.228852,2.20523664 Z M10.2761151,19.052046 L23.8870187,11.2353691 L23.8870187,26.8586107 L10.2761151,19.052046 Z M1.99429493,10.3353895 L11.6614745,2.96364643 L8.20313205,19.052046 L11.6614745,35.1404456 L1.99429493,27.7687026 L1.99429493,10.3353895 Z" id="Shape" fill="#FFFFFF"></path>
                            <polyline id="Path-3" stroke="#F7C371" points="24.7431641 10.012207 8.66894531 19.5234375 24.7431641 28.0361328"></polyline>
                        </g>
                    </g>
                </g>
            </g>
        </g>
    </g>
</svg>