<?xml version="1.0" encoding="UTF-8"?>
<svg width="21px" height="30px" viewBox="0 0 21 30" version="1.1" xmlns="http://www.w3.org/2000/svg" xmlns:xlink="http://www.w3.org/1999/xlink">
    <!-- Generator: Sketch 51.1 (57501) - http://www.bohemiancoding.com/sketch -->
    <title>Coupon - KNC</title>
    <desc>Created with Sketch.</desc>
    <defs></defs>
    <g id="Swap---Improve" stroke="none" stroke-width="1" fill="none" fill-rule="evenodd">
        <g id="Swap-Promocode-2-Copy" transform="translate(-1225.000000, -298.000000)" fill-rule="nonzero">
            <g id="Group-4" transform="translate(282.000000, 263.000000)">
                <g id="Coupon---KNC" transform="translate(943.000000, 35.000000)">
                    <g id="Group-4">
                        <polygon id="Path-2" fill="#EF8102" points="19.764323 8.26174665 7.95150934 14.8483817 19.3301609 21.8106957"></polygon>
                        <polygon id="Path-4" fill="#EF8102" points="10.4081145 1.0430977 6.88891887 15.5937378 19.9800031 8.20032489"></polygon>
                        <polygon id="Path-5" fill="#EF8102" points="10.4426081 29.1236049 7.30582472 15.643564 19.2165878 22.3835844"></polygon>
                        <path d="M9.48586773,0.870800855 L1.07177128,7.19354349 C0.706998315,7.46497437 0.496240602,7.88808719 0.496240602,8.34313306 L0.496240602,21.747028 C0.496240602,22.1940907 0.706998315,22.6251868 1.07177128,22.8966178 L9.48586773,29.211377 C10.012762,29.6025569 10.7423079,29.6025569 11.2610962,29.211377 L19.6751925,22.8886344 C20.0399655,22.6172035 20.2507234,22.1940907 20.2507234,21.7390449 L20.2507234,8.3351498 C20.2507234,7.88808719 20.0399655,7.4569911 19.6751925,7.18556023 L11.2610962,0.870800855 C10.7423079,0.47163781 10.012762,0.47163781 9.48586773,0.870800855 Z M7.92950307,16.1188292 L18.742995,22.2260238 L10.5963988,28.3412017 L7.92950307,16.1188292 Z M10.6045048,1.74097629 L18.742995,7.85615414 L7.92950307,13.9633487 L10.6045048,1.74097629 Z M8.23753357,15.041089 L19.1482984,8.87002828 L19.1482984,21.2041664 L8.23753357,15.041089 Z M1.59866557,8.15951806 L9.34806461,2.33972087 L6.57579006,15.041089 L9.34806461,27.7424571 L1.59866557,21.9226599 L1.59866557,8.15951806 Z" id="Shape" fill="#EF8102"></path>
                        <polyline id="Path-3" stroke="#FFFFFF" points="19.8346012 7.90437397 6.94919503 15.4132401 19.8346012 22.1337891"></polyline>
                    </g>
                </g>
            </g>
        </g>
    </g>
</svg>