<?xml version="1.0" encoding="UTF-8"?>
<svg width="17px" height="17px" viewBox="0 0 17 17" version="1.1" xmlns="http://www.w3.org/2000/svg" xmlns:xlink="http://www.w3.org/1999/xlink">
    <!-- Generator: Sketch 50.2 (55047) - http://www.bohemiancoding.com/sketch -->
    <title>Shape</title>
    <desc>Created with Sketch.</desc>
    <defs></defs>
    <g id="Swap---Improve" stroke="none" stroke-width="1" fill="none" fill-rule="evenodd">
        <g id="Swap--Improve-1" transform="translate(-542.000000, -763.000000)" fill="#666666" fill-rule="nonzero">
            <path d="M554.1498,773.691824 L553.381933,773.691824 L553.109777,773.429388 C554.062321,772.321326 554.635792,770.88279 554.635792,769.317896 C554.635792,765.828473 551.807318,763 548.317896,763 C544.828473,763 542,765.828473 542,769.317896 C542,772.807318 544.828473,775.635792 548.317896,775.635792 C549.88279,775.635792 551.321326,775.062321 552.429388,774.109777 L552.691824,774.381933 L552.691824,775.1498 L557.551744,780 L559,778.551744 L554.1498,773.691824 Z M548.317896,773.691824 C545.897656,773.691824 543.943968,771.738136 543.943968,769.317896 C543.943968,766.897656 545.897656,764.943968 548.317896,764.943968 C550.738136,764.943968 552.691824,766.897656 552.691824,769.317896 C552.691824,771.738136 550.738136,773.691824 548.317896,773.691824 Z" id="Shape"></path>
        </g>
    </g>
</svg>