<svg width="19" height="19" viewBox="0 0 19 19" version="1.1" xmlns="http://www.w3.org/2000/svg" xmlns:xlink="http://www.w3.org/1999/xlink">
<title>success</title>
<desc>Created using Figma</desc>
<g id="Canvas" transform="translate(-644 1802)">
<g id="success">
<g id="Vector">
<use xlink:href="#path0_fill" transform="translate(644 -1802)" fill="#2A9A8D"/>
</g>
<g id="Vector">
<use xlink:href="#path1_fill" transform="translate(648 -1796.5)" fill="#2A9A8D"/>
</g>
</g>
</g>
<defs>
<path id="path0_fill" d="M 9.5 19C 6.962 19 4.577 18.012 2.782 16.218C 0.987 14.424 0 12.038 0 9.501C 0 6.963 0.988 4.578 2.782 2.783C 4.576 0.988 6.962 -1.33227e-15 9.5 -1.33227e-15C 12.038 -1.33227e-15 14.423 0.988 16.218 2.783C 18.013 4.578 19 6.963 19 9.501C 19 12.039 18.012 14.424 16.218 16.218C 14.424 18.012 12.038 19 9.5 19ZM 9.5 1C 4.813 1 1 4.813 1 9.5C 1 14.187 4.813 18 9.5 18C 14.187 18 18 14.187 18 9.5C 18 4.813 14.187 1 9.5 1Z"/>
<path id="path1_fill" d="M 3.50025 7.99925C 3.37225 7.99925 3.24425 7.95025 3.14625 7.85325L 0.14625 4.85325C -0.0487501 4.65825 -0.0487501 4.34125 0.14625 4.14625C 0.34125 3.95125 0.65825 3.95125 0.85325 4.14625L 3.49925 6.79225L 10.1453 0.14625C 10.3403 -0.0487502 10.6573 -0.0487502 10.8523 0.14625C 11.0472 0.34125 11.0472 0.65825 10.8523 0.85325L 3.85225 7.85325C 3.75425 7.95125 3.62625 7.99925 3.49825 7.99925L 3.50025 7.99925Z"/>
</defs>
</svg>
