<?xml version="1.0" encoding="UTF-8"?>
<svg width="78px" height="120px" viewBox="0 0 78 120" version="1.1" xmlns="http://www.w3.org/2000/svg" xmlns:xlink="http://www.w3.org/1999/xlink">
    <!-- Generator: Sketch 49 (51002) - http://www.bohemiancoding.com/sketch -->
    <title>terms-icon</title>
    <desc>Created with Sketch.</desc>
    <defs>
        <polygon id="path-1" points="0 120 77.64 120 77.64 0.462 0 0.462"></polygon>
    </defs>
    <g id="Phuong-Extended" stroke="none" stroke-width="1" fill="none" fill-rule="evenodd">
        <g id="terms-of-service" transform="translate(-204.000000, -136.000000)">
            <g id="terms-icon" transform="translate(204.000000, 135.000000)">
                <g id="Group-14" transform="translate(0.000000, 0.538000)">
                    <path d="M73.7926,113.876 L3.0956,113.876 C1.6866,113.876 0.5436,112.733 0.5436,111.325 L0.5436,13.378 C0.5436,11.969 1.6866,10.827 3.0956,10.827 L73.7926,10.827 C75.2016,10.827 76.3446,11.969 76.3446,13.378 L76.3446,111.325 C76.3446,112.733 75.2016,113.876 73.7926,113.876 Z" id="Stroke-1" stroke="#FFFFFF" stroke-width="1.088"></path>
                    <mask id="mask-2" fill="white">
                        <use xlink:href="#path-1"></use>
                    </mask>
                    <g id="Clip-4"></g>
                    <polygon id="Fill-3" fill="#FFFFFF" mask="url(#mask-2)" points="17.22 45.635 59.668 45.635 59.668 43.108 17.22 43.108"></polygon>
                    <polygon id="Fill-5" fill="#FFFFFF" mask="url(#mask-2)" points="17.22 54.057 59.668 54.057 59.668 51.531 17.22 51.531"></polygon>
                    <polygon id="Fill-6" fill="#FFFFFF" mask="url(#mask-2)" points="17.22 62.479 59.668 62.479 59.668 59.952 17.22 59.952"></polygon>
                    <polygon id="Fill-7" fill="#FFFFFF" mask="url(#mask-2)" points="16.944 70.901 59.944 70.901 59.944 68.374 16.944 68.374"></polygon>
                    <path d="M39.5528,7.9819 C38.2108,8.6339 36.6268,8.0029 36.0148,6.5739 C35.4038,5.1449 35.9958,3.4579 37.3378,2.8059 C38.6788,2.1549 40.2618,2.7849 40.8738,4.2129 C41.4858,5.6419 40.8938,7.3289 39.5528,7.9809 L39.5528,7.9819 Z M36.5238,0.9079 C34.1978,2.0379 33.1718,4.9619 34.2318,7.4399 C35.2928,9.9179 38.0378,11.0109 40.3648,9.8809 C42.6908,8.7509 43.7168,5.8269 42.6558,3.3489 C42.6558,3.3489 42.6558,3.3479 42.6558,3.3479 C41.5948,0.8709 38.8488,-0.2221 36.5238,0.9079 Z" id="Fill-8" fill="#FFFFFF" mask="url(#mask-2)"></path>
                    <polygon id="Fill-9" fill="#FFFFFF" mask="url(#mask-2)" points="21.263 13.464 55.625 13.464 55.625 8.235 21.263 8.235"></polygon>
                    <path d="M25.3556,92.9336 C24.9356,92.4306 24.6186,91.8496 24.4236,91.2246 C23.9476,89.5926 24.4446,87.4276 26.3366,87.0536 L26.3246,87.0546 C27.7536,86.7716 28.9046,87.7386 28.7306,89.2306 C28.5566,90.7236 27.3096,92.2106 25.9196,92.7636 C25.7366,92.8356 25.5476,92.8926 25.3556,92.9336 M18.0566,97.0016 L18.0486,96.9966 C17.3356,97.1626 17.0826,96.5256 17.1286,95.9216 C17.1856,95.1876 17.6476,94.7146 18.3156,94.4506 C18.4246,94.4066 18.5366,94.3696 18.6496,94.3386 C19.1746,95.4426 19.3896,96.6926 18.0566,97.0016 M41.8506,92.9406 C40.2636,90.5906 37.5876,89.8726 35.0256,91.1736 C33.7276,91.8326 32.6996,92.8786 31.7366,93.9476 C31.3186,94.4126 30.9076,95.0506 30.3836,95.4076 C29.3806,96.0896 28.1126,95.1896 27.2696,94.6196 C27.0796,94.5016 26.8996,94.3606 26.7186,94.2206 C27.9846,93.7006 29.0356,92.7626 29.6966,91.5626 C30.8196,89.6166 30.8686,86.7596 28.5546,85.6546 C26.4866,84.6576 23.9596,85.6896 23.0056,87.7236 C22.1946,89.4526 22.4736,91.3526 23.3486,92.9516 C22.5056,92.8356 21.6586,92.6276 20.8466,92.5446 C20.4666,92.5056 20.0846,92.4896 19.7036,92.4946 C18.3756,90.4146 15.9976,88.7096 13.7216,88.5906 C12.6206,88.5326 12.3956,90.2416 13.5036,90.2986 C15.2366,90.3896 16.5556,91.4496 17.6326,92.7346 L17.7206,92.8456 C17.4806,92.9336 17.2496,93.0436 17.0296,93.1746 C15.3476,94.1876 14.6626,97.0086 16.4236,98.3186 C18.9096,100.1626 21.1726,96.7706 20.5996,94.5106 C20.5756,94.4146 20.5496,94.3206 20.5196,94.2266 C21.2836,94.3056 22.0536,94.4856 22.7656,94.5926 C23.3836,94.6876 24.0116,94.7166 24.6356,94.6776 L24.7206,94.7656 C26.4446,96.4566 29.4856,98.5286 31.7046,96.5456 C33.6236,94.8196 36.4426,90.3816 39.5186,92.8506 C40.7726,93.8556 41.2426,95.5876 42.3016,96.7616 C42.6226,97.1216 42.9906,97.4516 43.3916,97.7256 C43.1136,96.7856 42.9586,95.7946 42.9366,94.7696 C42.5366,94.1266 42.1936,93.4496 41.8506,92.9406" id="Fill-10" fill="#31C09E" mask="url(#mask-2)"></path>
                    <path d="M47.6534,99.957 C49.5334,99.618 50.7954,98.183 52.0904,96.914 C52.7584,96.258 53.5154,95.45 54.4864,95.287 C56.2394,94.995 57.7584,96.742 58.8044,97.887 C59.9504,99.137 62.0644,97.513 60.9034,96.245 C58.0554,93.126 54.4024,91.13 50.8614,94.402 C49.6684,95.505 48.3484,97.547 46.4964,97.352 C44.9174,97.185 43.8224,95.918 42.9234,94.502 C42.9234,94.506 42.9234,94.509 42.9234,94.513 C42.9234,96.173 43.2874,97.747 43.9274,99.169 C45.0414,99.837 46.3064,100.2 47.6534,99.957" id="Fill-11" fill="#31C09E" mask="url(#mask-2)"></path>
                    <path d="M65.6632,94.5127 C65.6632,100.7917 60.5722,105.8827 54.2932,105.8827 C48.0132,105.8827 42.9232,100.7917 42.9232,94.5127 C42.9232,88.2327 48.0132,83.1427 54.2932,83.1427 C60.5722,83.1427 65.6632,88.2327 65.6632,94.5127 Z" id="Stroke-12" stroke="#FFFFFF" stroke-width="0.827" mask="url(#mask-2)"></path>
                    <path d="M77.4068,119.8467 C77.6908,119.6177 77.7198,119.2167 77.4708,118.9497 L62.0888,102.4727 L61.0588,103.3017 L76.4408,119.7777 C76.6898,120.0447 77.1228,120.0757 77.4068,119.8467" id="Fill-13" fill="#F5F7F7" mask="url(#mask-2)"></path>
                </g>
                <text id="Terms" font-family="CircularStd-Black, Circular Std" font-size="8" font-weight="700" letter-spacing="-0.68" fill="#FFFFFF">
                    <tspan x="25.0156" y="32.1406795">T</tspan>
                    <tspan x="28.6396" y="32.1406795" letter-spacing="0.08">e</tspan>
                    <tspan x="33.1916" y="32.1406795" letter-spacing="0.12">r</tspan>
                    <tspan x="36.5756" y="32.1406795" letter-spacing="0.08">ms</tspan>
                </text>
            </g>
        </g>
    </g>
</svg>