<?xml version="1.0" encoding="UTF-8"?>
<svg width="15px" height="15px" viewBox="0 0 15 15" version="1.1" xmlns="http://www.w3.org/2000/svg" xmlns:xlink="http://www.w3.org/1999/xlink">
    <!-- Generator: Sketch 48.2 (47327) - http://www.bohemiancoding.com/sketch -->
    <title>check</title>
    <desc>Created with Sketch.</desc>
    <defs></defs>
    <g id="Artboard-2" stroke="none" stroke-width="1" fill="none" fill-rule="evenodd" transform="translate(-73.000000, -20.000000)">
        <g id="noun_929008_cc" transform="translate(73.000000, 20.000000)" fill="#FFFFFF" fill-rule="nonzero">
            <path d="M7.5,0 C3.375,0 0,3.375 0,7.5 C0,11.625 3.375,15 7.5,15 C11.625,15 15,11.625 15,7.5 C15,3.375 11.625,0 7.5,0 M11.8125,6.234375 L7.6875,10.359375 L6.984375,11.0625 C6.609375,11.4375 6,11.4375 5.671875,11.0625 L4.96875,10.359375 L3.46875,8.90625 C3.09375,8.53125 3.09375,7.96875 3.46875,7.59375 C3.84375,7.21875 4.453125,7.21875 4.78125,7.59375 L6.28125,9.09375 L10.40625,4.96875 C10.78125,4.59375 11.390625,4.59375 11.71875,4.96875 C12.140625,5.25 12.140625,5.859375 11.8125,6.234375" id="check"></path>
        </g>
    </g>
</svg>