<?xml version="1.0" encoding="UTF-8"?>
<svg width="35px" height="35px" viewBox="0 0 35 35" version="1.1" xmlns="http://www.w3.org/2000/svg" xmlns:xlink="http://www.w3.org/1999/xlink">
    <!-- Generator: Sketch 51.3 (57544) - http://www.bohemiancoding.com/sketch -->
    <title>Group 6</title>
    <desc>Created with Sketch.</desc>
    <defs>
        <polygon id="path-1" points="0 0.0362105263 34.9111579 0.0362105263 34.9111579 34.9471632 0 34.9471632"></polygon>
    </defs>
    <g id="Swap---Improve" stroke="none" stroke-width="1" fill="none" fill-rule="evenodd">
        <g id="m/Swap---download-app" transform="translate(-22.000000, -574.000000)">
            <g id="Group-6" transform="translate(22.000000, 574.000000)">
                <g id="Group-3" transform="translate(0.000000, 0.016216)">
                    <mask id="mask-2" fill="white">
                        <use xlink:href="#path-1"></use>
                    </mask>
                    <g id="Clip-2"></g>
                    <path d="M34.9111579,17.4915842 C34.9111579,27.1307421 27.0947368,34.9471632 17.4555789,34.9471632 C7.81642105,34.9471632 0,27.1307421 0,17.4915842 C0,7.85242632 7.81642105,0.0360052632 17.4555789,0.0360052632 C27.0947368,0.0360052632 34.9111579,7.85242632 34.9111579,17.4915842" id="Fill-1" fill="#FFFFFF" mask="url(#mask-2)"></path>
                </g>
                <path d="M20.8253842,19.8911105 C20.8253842,20.4371105 20.3840684,20.8784263 19.8380684,20.8784263 L15.0718579,20.8784263 C14.5279105,20.8784263 14.0845421,20.4371105 14.0845421,19.8911105 L14.0845421,15.1269526 C14.0845421,14.5789 14.5279105,14.1375842 15.0718579,14.1375842 L19.8380684,14.1375842 C20.3840684,14.1375842 20.8253842,14.5789 20.8253842,15.1269526 L20.8253842,19.8911105 Z M17.4549632,6.91026842 C11.6029105,6.91026842 6.85722632,11.6539 6.85722632,17.5080053 C6.85722632,23.3600579 11.6029105,28.1057421 17.4549632,28.1057421 C23.3090684,28.1057421 28.0527,23.3600579 28.0527,17.5080053 C28.0527,11.6539 23.3090684,6.91026842 17.4549632,6.91026842 Z" id="Fill-4" fill="#0049EB"></path>
            </g>
        </g>
    </g>
</svg>