<svg width="240" height="125" viewBox="0 0 240 125" version="1.1" xmlns="http://www.w3.org/2000/svg" xmlns:xlink="http://www.w3.org/1999/xlink">
<title>trezor</title>
<desc>Created using Figma</desc>
<g id="Canvas" transform="translate(1776 -989)">
<g id="trezor">
<g id="path7">
<use xlink:href="#path0_fill" transform="translate(-1741 1063)" fill="#FFFFFF"/>
</g>
<g id="g3222">
<g id="path13">
<use xlink:href="#path1_fill" transform="matrix(0.95575 0 0 0.95575 -1698.31 1078.79)" fill="#FFFFFF"/>
</g>
<g id="path15">
<use xlink:href="#path2_fill" transform="matrix(0.95575 0 0 0.95575 -1677.35 1078.79)" fill="#FFFFFF"/>
</g>
<g id="path17">
<use xlink:href="#path3_fill" transform="matrix(0.95575 0 0 0.95575 -1654.52 1078.79)" fill="#FFFFFF"/>
</g>
<g id="path19">
<use xlink:href="#path4_fill" transform="matrix(0.95575 0 0 0.95575 -1634.66 1078.82)" fill="#FFFFFF"/>
</g>
<g id="path21">
<use xlink:href="#path5_fill" transform="matrix(0.95575 0 0 0.95575 -1615.9 1078.44)" fill="#FFFFFF"/>
</g>
<g id="path23">
<use xlink:href="#path6_fill" transform="matrix(0.95575 0 0 0.95575 -1589.4 1078.82)" fill="#FFFFFF"/>
</g>
</g>
<g id="bg">
<use xlink:href="#path7_fill" transform="translate(-1776 989)" fill="#FFFFFF" fill-opacity="0.01"/>
</g>
</g>
</g>
<defs>
<path id="path0_fill" d="M 16.5843 0C 9.9839 0 4.64228 5.3289 4.64228 11.9136L 4.64228 16.3787C 2.32447 16.7973 0 17.3555 0 18.0797L 0 41.3821C 0 41.3821 0 42.0266 0.72598 42.3322C 3.35683 43.3953 13.707 47.0498 16.0848 47.887C 16.3912 48 16.4778 48 16.5577 48C 16.6709 48 16.7242 48 17.0306 47.887C 19.4083 47.0498 29.7852 43.3953 32.416 42.3322C 33.0887 42.0532 33.1154 41.4086 33.1154 41.4086L 33.1154 18.0797C 33.1154 17.3555 30.8242 16.7708 28.4997 16.3787L 28.4997 11.9136C 28.533 5.3289 23.1581 0 16.5843 0ZM 16.5843 5.69435C 20.474 5.69435 22.8251 8.03987 22.8251 11.9203L 22.8251 15.8007C 18.4626 15.495 14.7394 15.495 10.3502 15.8007L 10.3502 11.9203C 10.3502 8.03322 12.7013 5.69435 16.5843 5.69435ZM 16.5577 21.5149C 21.9859 21.5149 26.5416 21.9336 26.5416 22.6844L 26.5416 37.2226C 26.5416 37.4485 26.5149 37.4751 26.3151 37.5548C 26.122 37.6412 17.0572 40.9037 17.0572 40.9037C 17.0572 40.9037 16.6909 41.0166 16.5843 41.0166C 16.4711 41.0166 16.1114 40.8771 16.1114 40.8771C 16.1114 40.8771 7.04667 37.6146 6.85352 37.5282C 6.66037 37.4419 6.62707 37.4153 6.62707 37.196L 6.62707 22.6578C 6.57379 21.907 11.1295 21.5149 16.5577 21.5149Z"/>
<path id="path1_fill" d="M 6.1009 22.6312L 6.1009 5.97342L 0 5.97342L 0 1.6222e-06L 19.022 1.6222e-06L 19.022 5.97342L 12.9811 5.97342L 12.9811 22.6312L 6.1009 22.6312Z"/>
<path id="path2_fill" d="M 12.5015 22.6312L 9.37114 15.515L 6.88016 15.515L 6.88016 22.6312L -8.13034e-07 22.6312L -8.13034e-07 1.6222e-06L 12.1086 1.6222e-06C 17.4235 1.6222e-06 20.2742 3.51495 20.2742 7.75415C 20.2742 11.6611 18.0096 13.7276 16.1914 14.6179L 20.3008 22.6246L 12.5015 22.6246L 12.5015 22.6312ZM 13.3141 7.75415C 13.3141 6.52492 12.2218 5.99335 11.0762 5.99335L 6.88016 5.99335L 6.88016 9.56811L 11.0762 9.56811C 12.2218 9.54153 13.3141 9.00996 13.3141 7.75415Z"/>
<path id="path3_fill" d="M 1.62607e-06 22.6312L 1.62607e-06 1.6222e-06L 17.2037 1.6222e-06L 17.2037 5.97342L 6.85352 5.97342L 6.85352 8.20598L 16.9506 8.20598L 16.9506 14.1794L 6.85352 14.1794L 6.85352 16.6645L 17.2037 16.6645L 17.2037 22.6312L 1.62607e-06 22.6312Z"/>
<path id="path4_fill" d="M 1.62607e-06 22.6312L 1.62607e-06 17.1894L 8.64516 5.97342L 1.62607e-06 5.97342L 1.62607e-06 -8.11098e-07L 17.7033 -8.11098e-07L 17.7033 5.38871L 9.03146 16.6644L 17.9564 16.6644L 17.9564 22.6379L 1.62607e-06 22.6312Z"/>
<path id="path5_fill" d="M -3.25213e-06 11.7209C -3.25213e-06 4.77076 5.40156 1.6222e-06 12.4216 1.6222e-06C 19.415 1.6222e-06 24.8432 4.74419 24.8432 11.7209C 24.8432 18.6711 19.4416 23.4153 12.4216 23.4153C 5.40156 23.4153 -3.25213e-06 18.6711 -3.25213e-06 11.7209ZM 17.8498 11.7209C 17.8498 8.56478 15.6985 6.05316 12.395 6.05316C 9.09141 6.05316 6.94011 8.56478 6.94011 11.7209C 6.94011 14.8771 9.09141 17.3887 12.395 17.3887C 15.7251 17.3887 17.8498 14.8771 17.8498 11.7209Z"/>
<path id="path6_fill" d="M 12.5015 22.6312L 9.37115 15.5149L 6.88016 15.5149L 6.88016 22.6312L -6.50427e-06 22.6312L -6.50427e-06 -8.11098e-07L 12.1086 -8.11098e-07C 17.4235 -8.11098e-07 20.2742 3.51495 20.2742 7.75415C 20.2742 11.6611 18.0096 13.7276 16.1914 14.6179L 20.3008 22.6246L 12.5015 22.6246L 12.5015 22.6312ZM 13.3407 7.72757C 13.3407 6.49834 12.2484 5.96678 11.1028 5.96678L 6.90681 5.96678L 6.90681 9.54153L 11.1028 9.54153C 12.2551 9.51495 13.3407 8.98339 13.3407 7.72757Z"/>
<path id="path7_fill" d="M 0 0L 240 0L 240 125L 0 125L 0 0Z"/>
</defs>
</svg>
