<svg xmlns="http://www.w3.org/2000/svg" viewBox="0 0 240 125"><defs><style>.cls-1,.cls-2{fill:#fff;}.cls-2{fill-opacity:0.01;}</style></defs><title>Asset 60</title><g id="Layer_2" data-name="Layer 2"><g id="cutting-board"><g id="Trezor"><g id="Canvas"><g id="trezor-2" data-name="trezor"><g id="lock"><path id="path0_fill" data-name="path0 fill" class="cls-1" d="M51.58,74A11.92,11.92,0,0,0,39.64,85.91v4.47c-2.32.42-4.64,1-4.64,1.7v23.3a1.1,1.1,0,0,0,.73,1c2.63,1.06,13,4.72,15.36,5.55a1.19,1.19,0,0,0,.47.11,1.1,1.1,0,0,0,.47-.11c2.38-.84,12.75-4.49,15.39-5.55a1.11,1.11,0,0,0,.7-.92V92.08c0-.72-2.29-1.31-4.62-1.7V85.91A11.89,11.89,0,0,0,51.58,74Zm0,5.69c3.89,0,6.24,2.35,6.24,6.23V89.8a85,85,0,0,0-12.47,0V85.92C45.35,82,47.7,79.69,51.58,79.69Zm0,15.82c5.43,0,10,.42,10,1.17v14.54c0,.23,0,.25-.23.33s-9.26,3.35-9.26,3.35a3.11,3.11,0,0,1-.47.11,2.47,2.47,0,0,1-.47-.14s-9.06-3.26-9.26-3.35-.23-.11-.23-.33V96.66C41.57,95.91,46.13,95.51,51.56,95.51Z"/></g><g id="TREZOR-3" data-name="TREZOR"><polygon class="cls-1" points="86.08 111.99 86.08 95.28 80.31 95.28 80.31 89.59 97.99 89.59 97.99 95.28 92.23 95.28 92.23 111.99 86.08 111.99"/><path class="cls-1" d="M87.08,94.28H81.32V90.59H97v3.69H91.23V111H87.08Z"/><path class="cls-1" d="M112.27,112l-4.1-7.08h-1.07V112h-6.16V89.59h8.48c5.33,0,8.51,2.89,8.51,7.72a7,7,0,0,1-3.53,6.4l4.94,8.28Zm-3-12.62c2,0,2.35-.79,2.35-2.06s-.39-2-2.35-2h-2.21v4.09Z"/><path class="cls-1" d="M101.95,90.59h7.48c4.13,0,7.51,2,7.51,6.72a6,6,0,0,1-3.95,6l4.6,7.71h-4.75l-4.1-7.08h-2.64V111h-4.16Zm7.36,9.78c2,0,3.35-.81,3.35-3.06s-1.37-3-3.35-3h-3.21v6.09Z"/><polygon class="cls-1" points="121.52 111.99 121.52 89.59 136.88 89.59 136.88 95.28 127.68 95.28 127.68 97.96 135.78 97.96 135.78 103.56 127.68 103.56 127.68 106.3 137.3 106.3 137.3 111.99 121.52 111.99"/><path class="cls-1" d="M122.52,90.59h13.36v3.69h-9.21V99h8.11v3.6h-8.11v4.74h9.62V111H122.52Z"/><polygon class="cls-1" points="139.3 111.99 139.3 110.36 147.85 95.28 140.94 95.28 140.94 89.59 156.98 89.59 156.98 91.21 148.46 106.3 156.48 106.3 156.48 111.99 139.3 111.99"/><path class="cls-1" d="M140.3,110.63l9.26-16.35h-7.63V90.59h14v.36l-9.23,16.35h8.73V111H140.3Z"/><path class="cls-1" d="M169.31,112.26a11.47,11.47,0,1,1,11.45-11.47A11.34,11.34,0,0,1,169.31,112.26Zm0-17.19c-3,0-5.18,2.35-5.18,5.72s2.13,5.72,5.18,5.72,5.18-2.35,5.18-5.72S172.36,95.07,169.31,95.07Z"/><path class="cls-1" d="M158.86,100.79a10.45,10.45,0,1,1,10.45,10.47A10.28,10.28,0,0,1,158.86,100.79Zm16.63,0c0-3.81-2.49-6.72-6.18-6.72s-6.18,2.91-6.18,6.72,2.49,6.72,6.18,6.72S175.49,104.6,175.49,100.79Z"/><path class="cls-1" d="M195.51,112l-4.1-7.08h-1.07V112h-6.16V89.59h8.48c5.33,0,8.51,2.89,8.51,7.72a7,7,0,0,1-3.53,6.4L202.6,112Zm-3-12.62c2,0,2.36-.79,2.36-2.06s-.39-2-2.36-2h-2.21v4.09Z"/><path class="cls-1" d="M185.19,90.59h7.48c4.13,0,7.51,2,7.51,6.72a6,6,0,0,1-3.95,6l4.6,7.71h-4.75l-4.1-7.08h-2.64V111h-4.16Zm7.36,9.78c2,0,3.36-.81,3.36-3.06s-1.37-3-3.36-3h-3.21v6.09Z"/></g><g id="bg"><path id="path7_fill" data-name="path7 fill" class="cls-2" d="M0,0H240V125H0Z"/></g></g></g></g></g></g></svg>