<?xml version="1.0" ?><svg baseProfile="tiny" height="24px" id="Layer_1" version="1.2" viewBox="0 0 24 24" width="24px" xml:space="preserve" xmlns="http://www.w3.org/2000/svg" xmlns:xlink="http://www.w3.org/1999/xlink"><path d="M18,4c-2.206,0-4,1.795-4,4v3h-4v-1H7c-1.103,0-2,0.896-2,2v7c0,1.104,0.897,2,2,2h10c1.103,0,2-0.896,2-2v-7  c0-1.104-0.897-2-2-2h-1V8c0-1.104,0.897-2,2-2s2,0.896,2,2v3c0,0.553,0.448,1,1,1s1-0.447,1-1V8C22,5.795,20.206,4,18,4z   M12,18.299c-0.719,0-1.3-0.58-1.3-1.299s0.581-1.301,1.3-1.301s1.3,0.582,1.3,1.301S12.719,18.299,12,18.299z"/></svg>