<?xml version="1.0" encoding="UTF-8"?>
<svg width="10px" height="10px" viewBox="0 0 10 10" version="1.1" xmlns="http://www.w3.org/2000/svg" xmlns:xlink="http://www.w3.org/1999/xlink">
    <!-- Generator: Sketch 50.2 (55047) - http://www.bohemiancoding.com/sketch -->
    <title>Combined Shape</title>
    <desc>Created with Sketch.</desc>
    <defs></defs>
    <g id="Home-Swap-" stroke="none" stroke-width="1" fill="none" fill-rule="evenodd" stroke-linecap="round" stroke-linejoin="round">
        <g id="Swap-ConfirmPopup-step-2" transform="translate(-561.000000, -704.000000)" fill="#B5B7BF" stroke="#B0B3BB" stroke-width="0.5">
            <g id="Group-15" transform="translate(485.000000, 349.000000)">
                <g id="Group-3" transform="translate(76.000000, 349.000000)">
                    <path d="M3.86755871,10.3983698 L1.66471626,9.07666431 L1.45825588,8.95278808 L1.87117663,8.70503563 L2.07763701,8.82891186 L4.81469504,10.4711467 L3.99070523,7.17518744 L3.93230942,6.94160419 L4.39947592,7.05839581 L4.45787173,7.29197906 L5.26551589,10.5225557 L8.08825566,8.82891186 L8.29471603,8.70503563 L8.70763679,8.95278808 L8.50117641,9.07666431 L5.58340006,10.8273301 L8.70802094,11.6084853 L8.94160419,11.6668811 L9.05839581,12.1340477 L8.82481256,12.0756518 L6.53462585,11.5031052 L8.73578407,12.8238001 L8.94224445,12.9476763 L8.52932369,13.1954288 L8.32286332,13.0715525 L5.47568894,11.3632479 L6.34108011,14.8248126 L6.39947592,15.0583958 L5.93230942,14.9416042 L5.8739136,14.7080209 L4.99239209,11.1819349 L1.84302935,13.0715525 L1.63656897,13.1954288 L1.22364822,12.9476763 L1.4301086,12.8238001 L4.48519595,10.9907477 L1.29197906,10.1924435 L1.05839581,10.1340477 L0.941604187,9.66688115 L1.17518744,9.72527696 L3.86755871,10.3983698 Z" id="Combined-Shape"></path>
                </g>
            </g>
        </g>
    </g>
</svg>