<?xml version="1.0" encoding="UTF-8"?>
<svg width="16px" height="16px" viewBox="0 0 16 16" version="1.1" xmlns="http://www.w3.org/2000/svg" xmlns:xlink="http://www.w3.org/1999/xlink">
    <!-- Generator: Sketch 52.6 (67491) - http://www.bohemiancoding.com/sketch -->
    <title>Close-3</title>
    <desc>Created with Sketch.</desc>
    <g id="Improve" stroke="none" stroke-width="1" fill="none" fill-rule="evenodd">
        <g id="Improve---swap--5" transform="translate(-1156.000000, -375.000000)" fill="#9EA1AA">
            <g id="Close-3" transform="translate(1156.000000, 375.000000)">
                <path d="M9.24181496,8.01844231 L15.7965006,1.3345805 C16.0785005,1.02694813 16.0659209,0.551153673 15.7680592,0.258853091 C15.4701975,-0.0334474914 14.9942609,-0.0370487304 14.6920103,0.250711021 L8.14764696,6.92425026 L1.33490279,0.240388455 C1.13986044,0.0355152779 0.848611274,-0.0466722596 0.575245939,0.0260210572 C0.301880604,0.0987143741 0.0899221282,0.314714901 0.0224007243,0.589409038 C-0.0451206796,0.864103175 0.0425452024,1.15375634 0.251057131,1.34490307 L7.05347896,8.01844231 L0.251057131,14.6919815 C-0.0366962973,14.9942388 -0.0330951374,15.4701859 0.259199021,15.7680541 C0.55149318,16.0659223 1.02727718,16.0785022 1.33490279,15.7964962 L8.14764696,9.11263436 L14.6920103,15.7861736 C14.9942609,16.0739333 15.4701975,16.0703321 15.7680592,15.7780315 C16.0659209,15.4857309 16.0785005,15.0099365 15.7965006,14.7023041 L9.24181496,8.01844231 Z" id="Shape"></path>
            </g>
        </g>
    </g>
</svg>