<?xml version="1.0" encoding="UTF-8"?>
<svg width="21px" height="30px" viewBox="0 0 21 30" version="1.1" xmlns="http://www.w3.org/2000/svg" xmlns:xlink="http://www.w3.org/1999/xlink">
    <!-- Generator: Sketch 52.6 (67491) - http://www.bohemiancoding.com/sketch -->
    <title>kyber-logo copy</title>
    <desc>Created with Sketch.</desc>
    <defs>
        <linearGradient x1="-38.5754198%" y1="0%" x2="82.8448475%" y2="261.255612%" id="linearGradient-1">
            <stop stop-color="#FFB046" offset="0%"></stop>
            <stop stop-color="#F52880" offset="100%"></stop>
        </linearGradient>
    </defs>
    <g id="KyberSwap.com-" stroke="none" stroke-width="1" fill="none" fill-rule="evenodd">
        <g id="M_landingpage1" transform="translate(-46.000000, -615.000000)" fill="url(#linearGradient-1)" fill-rule="nonzero">
            <g id="kyber-logo-copy" transform="translate(46.000000, 615.000000)">
                <path d="M8.95865385,15 L20.0711538,21.3986486 C20.4615385,21.6216216 20.9461538,21.3378378 20.9461538,20.8918919 L20.9461538,9.10135135 C20.9461538,8.64864865 20.4615385,8.37162162 20.0711538,8.59459459 L8.95865385,15 Z" id="Shape"></path>
                <path d="M19.4317308,5.84459459 L12.0413462,0.182432432 C11.6980769,-0.0810810811 11.2067308,0.108108108 11.1192308,0.527027027 L8.42019231,13.1283784 L19.3644231,6.81756757 C19.7278846,6.60810811 19.7615385,6.10135135 19.4317308,5.84459459" id="Shape"></path>
                <path d="M12.0413462,29.8175676 L19.4384615,24.1554054 C19.7682692,23.8986486 19.7346154,23.3918919 19.3778846,23.1824324 L8.42692308,16.8716216 L11.1259615,29.472973 C11.2067308,29.8918919 11.7048077,30.0743243 12.0413462,29.8175676" id="Shape"></path>
                <path d="M6.11153846,15 L9.01923077,1.41891892 C9.13365385,0.885135135 8.52788462,0.5 8.09711538,0.831081081 L0.652884615,6.53378378 C0.269230769,6.82432432 0.0471153846,7.28378378 0.0471153846,7.76351351 L0.0471153846,22.2297297 C0.0471153846,22.7094595 0.269230769,23.1689189 0.652884615,23.4594595 L8.09711538,29.1621622 C8.52788462,29.4932432 9.13365385,29.1081081 9.01923077,28.5743243 L6.11153846,15 Z" id="Shape"></path>
            </g>
        </g>
    </g>
</svg>