<?xml version="1.0" encoding="UTF-8"?>
<svg width="17px" height="24px" viewBox="0 0 17 24" version="1.1" xmlns="http://www.w3.org/2000/svg" xmlns:xlink="http://www.w3.org/1999/xlink">
    <!-- Generator: Sketch 52.6 (67491) - http://www.bohemiancoding.com/sketch -->
    <title>Combined Shape</title>
    <desc>Created with Sketch.</desc>
    <g id="KyberSwap.com-" stroke="none" stroke-width="1" fill="none" fill-rule="evenodd">
        <g id="M_landingpage1" transform="translate(-50.000000, -781.000000)" fill="#97AABF" fill-rule="nonzero">
            <path d="M57.2489533,793.001204 L66.2882448,787.85537 C66.6057971,787.676243 67,787.898795 67,788.262477 L67,797.734502 C67,798.092756 66.6057971,798.320736 66.2882448,798.141609 L57.2489533,793.001204 Z M65.7681159,785.646136 C66.0363929,785.852403 66.0090177,786.25951 65.7133655,786.427781 L56.8109501,791.497621 L59.0064412,781.374225 C59.0776167,781.037683 59.4772947,780.885697 59.7565217,781.097392 L65.7681159,785.646136 Z M59.7565217,804.905015 C59.4827697,805.111282 59.0776167,804.964724 59.0119163,804.628182 L56.8164251,794.504786 L65.7243156,799.574626 C66.0144928,799.742897 66.041868,800.150004 65.773591,800.356272 L59.7565217,804.905015 Z M54.9330113,793.001204 L57.2982287,803.906245 C57.3913043,804.335065 56.8985507,804.644466 56.5481481,804.37849 L50.4927536,799.797178 C50.1806763,799.56377 50,799.194659 50,798.809265 L50,787.187714 C50,786.80232 50.1806763,786.433209 50.4927536,786.199801 L56.5481481,781.618489 C56.8985507,781.352513 57.3913043,781.661914 57.2982287,782.090734 L54.9330113,793.001204 Z" id="Combined-Shape"></path>
        </g>
    </g>
</svg>