<?xml version="1.0" encoding="UTF-8"?>
<svg width="25px" height="24px" viewBox="0 0 25 24" version="1.1" xmlns="http://www.w3.org/2000/svg" xmlns:xlink="http://www.w3.org/1999/xlink">
    <!-- Generator: Sketch 52.6 (67491) - http://www.bohemiancoding.com/sketch -->
    <title>Fill 1 Copy</title>
    <desc>Created with Sketch.</desc>
    <g id="KyberSwap.com-" stroke="none" stroke-width="1" fill="none" fill-rule="evenodd">
        <g id="M_landingpage1" transform="translate(-46.000000, -701.000000)" fill="#97AABF">
            <path d="M58.2290352,713 C58.1630677,713.065084 58.1112937,713.114928 58.0606487,713.165884 C55.4388845,715.815745 52.8169589,718.465764 50.1955173,721.115942 C50.15584,721.156262 50.114066,721.196265 50.0826145,721.242617 C49.9448731,721.445805 49.9829374,721.710426 50.1701948,721.876152 C50.3484199,722.033464 50.6085802,722.042988 50.7982569,721.892819 C50.8679341,721.837736 50.928579,721.771224 50.9911594,721.707886 C53.6126011,719.05755 56.2338815,716.407054 58.8545167,713.756241 C58.9040326,713.706238 58.9480647,713.650996 59,713.592103 C58.7414526,713.393518 58.4977438,713.206363 58.2290352,713 M67.4163248,706.257831 C68.1937563,705.280237 68.194687,703.713215 67.4183413,702.735039 C66.639669,701.753954 65.3610641,701.755117 64.5806855,702.737753 C63.7982904,703.72291 63.8077524,705.30234 64.6016259,706.280904 C65.386813,707.248611 66.6365667,707.238335 67.4163248,706.257831 M48.4599628,721.011975 C48.4383931,720.578323 48.4111821,720.056799 48.3871237,719.535275 C48.3625674,719.008359 48.6341794,718.745693 49.1925022,718.756003 C49.7373854,718.765996 50.2822687,718.778685 50.8545288,718.79074 C50.8284793,718.262713 50.8025956,717.751816 50.7778735,717.240919 C50.7491692,716.647702 51.002364,716.415173 51.6287143,716.407401 C52.1573373,716.400739 52.6856284,716.357596 53.2383099,716.329204 C53.2182335,715.931241 53.2084442,715.435412 53.1631479,714.942598 C53.131623,714.600149 53.2469378,714.347794 53.4986393,714.105748 C54.4767412,713.165959 55.4369237,712.20888 56.4097161,711.263855 C56.5255287,711.151398 56.5524078,711.065905 56.4886943,710.911732 C55.2529178,707.920265 56.0962921,704.727359 58.6659043,702.640629 C61.2773285,700.519638 65.3183245,700.446676 68.0278078,702.47107 C71.2277524,704.862181 71.9378925,709.013118 69.6984623,712.237747 C67.8192456,714.943708 64.1369699,716.089538 60.9055005,714.963693 C60.6826691,714.886131 60.555408,714.916585 60.3919763,715.077261 C57.2414761,718.178806 54.0831776,721.273054 50.9310182,724.373012 C50.7378866,724.562874 50.5274993,724.663277 50.2512415,724.688496 C49.230664,724.781762 48.2115797,724.891364 47.1916658,724.992401 C46.6718366,725.043951 46.3910989,724.833787 46.3255603,724.344303 C46.2182097,723.539336 46.1120205,722.734368 46.0098134,721.928924 C45.9422837,721.396615 46.225842,721.111585 46.7811783,721.099689 C47.3350212,721.087793 47.8880345,721.043222 48.4599628,721.011975" id="Fill-1-Copy"></path>
        </g>
    </g>
</svg>