<?xml version="1.0" encoding="UTF-8"?>
<svg width="21px" height="20px" viewBox="0 0 21 20" version="1.1" xmlns="http://www.w3.org/2000/svg" xmlns:xlink="http://www.w3.org/1999/xlink">
    <!-- Generator: Sketch 52.5 (67469) - http://www.bohemiancoding.com/sketch -->
    <title>Shape</title>
    <desc>Created with Sketch.</desc>
    <g id="KyberSwap.com-" stroke="none" stroke-width="1" fill="none" fill-rule="evenodd">
        <g id="search-token" transform="translate(-283.000000, -529.000000)" fill="#222222" fill-rule="nonzero">
            <g id="Group-10" transform="translate(257.500000, 464.000000)">
                <g id="Group-15" transform="translate(26.000000, 65.000000)">
                    <path d="M14.2938822,12.5786164 L13.3905089,12.5786164 L13.0703259,12.2698685 C14.1909663,10.9662664 14.8656375,9.27387078 14.8656375,7.43281875 C14.8656375,3.32761578 11.5380217,0 7.43281875,0 C3.32761578,0 0,3.32761578 0,7.43281875 C0,11.5380217 3.32761578,14.8656375 7.43281875,14.8656375 C9.27387078,14.8656375 10.9662664,14.1909663 12.2698685,13.0703259 L12.5786164,13.3905089 L12.5786164,14.2938822 L18.2961692,20 L20,18.2961692 L14.2938822,12.5786164 Z M7.43281875,12.5786164 C4.58547742,12.5786164 2.28702115,10.2801601 2.28702115,7.43281875 C2.28702115,4.58547742 4.58547742,2.28702115 7.43281875,2.28702115 C10.2801601,2.28702115 12.5786164,4.58547742 12.5786164,7.43281875 C12.5786164,10.2801601 10.2801601,12.5786164 7.43281875,12.5786164 Z" id="Shape"></path>
                </g>
            </g>
        </g>
    </g>
</svg>