<?xml version="1.0" encoding="UTF-8"?>
<svg width="19px" height="19px" viewBox="0 0 19 19" version="1.1" xmlns="http://www.w3.org/2000/svg" xmlns:xlink="http://www.w3.org/1999/xlink">
    <!-- Generator: Sketch 52.6 (67491) - http://www.bohemiancoding.com/sketch -->
    <title>Shape</title>
    <desc>Created with Sketch.</desc>
    <g id="KyberSwap.com-" stroke="none" stroke-width="1" fill="none" fill-rule="evenodd">
        <g id="market" transform="translate(-1217.000000, -316.000000)" fill="#EF8102" fill-rule="nonzero">
            <path d="M1233.76767,326.42625 C1233.80431,326.129375 1233.82874,325.820625 1233.82874,325.5 C1233.82874,325.179375 1233.80431,324.870625 1233.75546,324.57375 L1235.81972,323.00625 C1236.00294,322.86375 1236.0518,322.6025 1235.94186,322.400625 L1233.98753,319.11125 C1233.86539,318.8975 1233.60888,318.82625 1233.38902,318.8975 L1230.95832,319.8475 C1230.44531,319.4675 1229.90787,319.15875 1229.30935,318.92125 L1228.94291,316.40375 C1228.90627,316.16625 1228.69862,316 1228.45433,316 L1224.54567,316 C1224.30138,316 1224.10594,316.16625 1224.0693,316.40375 L1223.70286,318.92125 C1223.10435,319.15875 1222.55469,319.479375 1222.0539,319.8475 L1219.6232,318.8975 C1219.40333,318.814375 1219.14683,318.8975 1219.02468,319.11125 L1217.07035,322.400625 C1216.9482,322.614375 1216.99706,322.86375 1217.1925,323.00625 L1219.25676,324.57375 C1219.2079,324.870625 1219.17126,325.19125 1219.17126,325.5 C1219.17126,325.80875 1219.19569,326.129375 1219.24454,326.42625 L1217.18028,327.99375 C1216.99706,328.13625 1216.9482,328.3975 1217.05814,328.599375 L1219.01247,331.88875 C1219.13461,332.1025 1219.39112,332.17375 1219.61098,332.1025 L1222.04168,331.1525 C1222.55469,331.5325 1223.09213,331.84125 1223.69065,332.07875 L1224.05709,334.59625 C1224.10594,334.83375 1224.30138,335 1224.54567,335 L1228.45433,335 C1228.69862,335 1228.90627,334.83375 1228.9307,334.59625 L1229.29714,332.07875 C1229.89565,331.84125 1230.44531,331.520625 1230.9461,331.1525 L1233.3768,332.1025 C1233.59667,332.185625 1233.85317,332.1025 1233.97532,331.88875 L1235.92965,328.599375 C1236.0518,328.385625 1236.00294,328.13625 1235.8075,327.99375 L1233.76767,326.42625 Z M1226.5,329.0625 C1224.4846,329.0625 1222.83563,327.459375 1222.83563,325.5 C1222.83563,323.540625 1224.4846,321.9375 1226.5,321.9375 C1228.5154,321.9375 1230.16437,323.540625 1230.16437,325.5 C1230.16437,327.459375 1228.5154,329.0625 1226.5,329.0625 Z" id="Shape"></path>
        </g>
    </g>
</svg>