<?xml version="1.0" encoding="UTF-8"?>
<svg width="14px" height="14px" viewBox="0 0 14 14" version="1.1" xmlns="http://www.w3.org/2000/svg" xmlns:xlink="http://www.w3.org/1999/xlink">
    <!-- Generator: Sketch 62 (91390) - https://sketch.com -->
    <title>🌐 Icon</title>
    <desc>Created with Sketch.</desc>
    <defs>
        <path d="M7,0 C10.8663333,0 14,3.13366667 14,7 C14,10.8663333 10.8663333,14 7,14 C3.13366667,14 0,10.8663333 0,7 C0,3.13366667 3.13366667,0 7,0 Z M7,5.44444444 L6.89383105,5.45156544 C6.5123098,5.50321808 6.22222222,5.82958857 6.22222222,6.22450059 L6.22222222,6.22450059 L6.22222222,10.1088327 C6.22222222,10.5316637 6.57044519,10.8888889 7,10.8888889 L7,10.8888889 L7.10616895,10.8817679 C7.4876902,10.8301153 7.77777778,10.5037448 7.77777778,10.1088327 L7.77777778,10.1088327 L7.77777778,6.22450059 C7.77777778,5.80166965 7.42955481,5.44444444 7,5.44444444 L7,5.44444444 Z M7,3.11111111 C6.57044519,3.11111111 6.22222222,3.45933408 6.22222222,3.88888889 C6.22222222,4.31844369 6.57044519,4.66666667 7,4.66666667 C7.42955481,4.66666667 7.77777778,4.31844369 7.77777778,3.88888889 C7.77777778,3.45933408 7.42955481,3.11111111 7,3.11111111 Z" id="path-1"></path>
    </defs>
    <g id="Trading--Contest" stroke="none" stroke-width="1" fill="none" fill-rule="evenodd">
        <g id="KS_Swap" transform="translate(-397.000000, -232.000000)">
            <g id="🌐-Icon" transform="translate(397.000000, 232.000000)">
                <mask id="mask-2" fill="white">
                    <use xlink:href="#path-1"></use>
                </mask>
                <use id="Combined-Shape" fill="#42526E" fill-rule="nonzero" xlink:href="#path-1"></use>
                <g id="Purple-/-P300" mask="url(#mask-2)" fill="#4A90E2">
                    <g transform="translate(-2.333333, -2.333333)" id="P300">
                        <rect x="0" y="0" width="18.6666667" height="18.6666667"></rect>
                    </g>
                </g>
            </g>
        </g>
    </g>
</svg>