<svg xmlns="http://www.w3.org/2000/svg" width="20" height="20" viewBox="0 0 20 20">
    <g fill="none" fill-rule="evenodd">
        <path d="M0 0L24 0 24 24 0 24z" transform="translate(-2 -2)"/>
        <path fill="#949394" d="M11.99 2C6.47 2 2 6.48 2 12s4.47 10 9.99 10C17.52 22 22 17.52 22 12S17.52 2 11.99 2zM12 20c-4.42 0-8-3.58-8-8s3.58-8 8-8 8 3.58 8 8-3.58 8-8 8zm3.5-9c.83 0 1.5-.67 1.5-1.5S16.33 8 15.5 8 14 8.67 14 9.5s.67 1.5 1.5 1.5zm1.884 2.302a.75.75 0 01.424.972A6.245 6.245 0 0112 18.25a6.245 6.245 0 01-5.808-3.976.75.75 0 111.396-.548A4.746 4.746 0 0012 16.75a4.746 4.746 0 004.412-3.024.75.75 0 01.972-.424zM8.5 8c.83 0 1.5.67 1.5 1.5S9.33 11 8.5 11 7 10.33 7 9.5 7.67 8 8.5 8z" transform="translate(-2 -2)"/>
    </g>
</svg>
