<?xml version="1.0" encoding="UTF-8"?>
<svg width="13px" height="13px" viewBox="0 0 13 13" version="1.1" xmlns="http://www.w3.org/2000/svg" xmlns:xlink="http://www.w3.org/1999/xlink">
    <!-- Generator: Sketch 63.1 (92452) - https://sketch.com -->
    <title>ic_gas@2x</title>
    <desc>Created with Sketch.</desc>
    <g id="Screens" stroke="none" stroke-width="1" fill="none" fill-rule="evenodd">
        <g id="KS_Swap_6" transform="translate(-1056.000000, -378.000000)">
            <g id="Group-7" transform="translate(310.000000, 182.000000)">
                <g id="Group-31" transform="translate(446.000000, 181.000000)">
                    <g id="Group-26" transform="translate(294.000000, 10.000000)">
                        <g id="ic_gas" transform="translate(5.000000, 4.000000)">
                            <g id="Icon-24px">
                                <polygon id="Shape" points="0 0 15 0 15 15 0 15"></polygon>
                                <path d="M12.6273139,4.1875 L12.6375412,4.17708333 L10.0977506,1.59723307 L9.37503196,2.33333333 L10.8136618,3.79860026 C10.1727615,4.04860026 9.71592071,4.67708333 9.71592071,5.41666667 C9.71592071,6.375 10.4795486,7.15276693 11.4204604,7.15276693 C11.6624958,7.15276693 11.894336,7.10068359 12.1022698,7.00693359 L12.1022698,12.0138672 C12.1023018,12.3958333 11.7954827,12.7083333 11.4204923,12.7083333 C11.0455019,12.7083333 10.7386829,12.3958333 10.7386829,12.0138997 L10.7386829,8.88889974 C10.7386829,8.12154948 10.1284645,7.5 9.37503196,7.5 L8.69322249,7.5 L8.69322249,2.63889974 C8.69319053,1.87151693 8.08297218,1.25 7.3295716,1.25 L3.23865089,1.25 C2.48521835,1.25 1.875,1.87151693 1.875,2.63889974 L1.875,13.75 L8.69319053,13.75 L8.69319053,8.54166667 L9.71592071,8.54166667 L9.71592071,12.0138997 C9.71592071,12.9722331 10.4795486,13.75 11.4204604,13.75 C12.3613721,13.75 13.125,12.9722331 13.125,12.0138997 L13.125,5.41666667 C13.125,4.9375 12.934133,4.50348307 12.6273139,4.1875 Z M7.3295716,6.11110026 L3.23865089,6.11110026 L3.23865089,2.63889974 L7.3295716,2.63889974 L7.3295716,6.11110026 Z M11.4204923,6.11110026 C11.0455019,6.11110026 10.7386829,5.79860026 10.7386829,5.41666667 C10.7386829,5.03473307 11.0455019,4.72223307 11.4204923,4.72223307 C11.7954827,4.72223307 12.1023018,5.03473307 12.1023018,5.41666667 C12.1023018,5.79860026 11.7954827,6.11110026 11.4204923,6.11110026 Z" id="Shape" fill="#FF9008" fill-rule="nonzero"></path>
                            </g>
                        </g>
                    </g>
                </g>
            </g>
        </g>
    </g>
</svg>