<svg xmlns="http://www.w3.org/2000/svg" width="16" height="16" viewBox="0 0 16 16">
    <path fill="#4E9336" fill-rule="evenodd" d="M2.493 4.316c.377.195.753.395 1.129.594.23.122.46.247.69.368.176.092.357.12.546.037.066-.03.138-.046.203-.077.18-.088.336-.106.492.063.102.112.243.188.382.291-.274.093-.534.17-.783.271-.1.041-.206.12-.26.21-.068.116-.044.256.06.361.108.107.233.114.376.072.422-.125.84-.27 1.27-.354.61-.118 1.23-.12 1.85-.043.543.068 1.062.207 1.57.399.172.064.35-.002.42-.153.084-.176.036-.366-.143-.441-.262-.11-.536-.192-.806-.285-.021-.008-.044-.014-.097-.03.12-.086.235-.143.313-.231.196-.221.392-.21.654-.103.79.32 1.51.74 2.127 1.328.747.713 1.258 1.563 1.456 2.586.027.143.033.29.063.43.01.047.07.119.104.118.181-.004.362-.027.562-.046l-.117-.298c-.155-.392.05-.73.428-.863.233-.082.478-.1.705.028.29.164.405.596.23.924-.084.158-.22.288-.334.43-.03.037-.064.07-.11.121.073.085.152.174.228.265.03.037.078.077.08.117.002.066-.008.157-.05.19-.039.032-.146.028-.19-.005-.115-.086-.22-.19-.316-.298-.072-.08-.137-.089-.241-.062-.294.075-.591.139-.89.19-.11.02-.11.088-.127.161-.068.277-.122.558-.209.828-.208.646-.576 1.2-1.035 1.695-.144.155-.307.291-.46.439-.138.134-.23.286-.262.486-.086.555-.187 1.107-.284 1.66-.026.147-.118.236-.268.238-.538.005-1.076.004-1.614 0-.144-.001-.22-.085-.227-.232-.007-.16 0-.32-.004-.48-.004-.203-.102-.279-.302-.234-.865.193-1.738.209-2.615.114-.216-.023-.43-.072-.643-.113-.219-.043-.31.027-.312.252l-.002.45c-.004.154-.08.24-.23.241-.533.005-1.066.006-1.599.002-.17-.001-.262-.1-.29-.267-.087-.535-.178-1.07-.265-1.604-.036-.226-.144-.403-.318-.552-.556-.48-.995-1.052-1.306-1.72-.09-.191-.229-.295-.443-.327-.339-.051-.675-.122-1.013-.188-.166-.032-.263-.144-.264-.316C0 10.3 0 9.645.002 8.991c0-.187.075-.276.259-.314.298-.06.597-.126.898-.165.278-.037.479-.15.595-.415.194-.442.474-.83.791-1.19.134-.152.17-.324.13-.526-.104-.522-.193-1.047-.289-1.57-.022-.124-.051-.247-.067-.371-.006-.047 0-.12.03-.142.03-.02.101-.004.144.018zm12.842 4.652c-.092-.005-.193.01-.275.05-.05.024-.109.114-.1.164.016.104.074.202.118.301.003.008.036.005.053.002.135-.026.314-.244.316-.428-.022-.02-.065-.087-.112-.09zM3.453 7.525c-.271-.006-.493.21-.492.48.002.272.214.481.49.48.261 0 .477-.216.477-.479 0-.265-.208-.476-.475-.481zM7.675 0c1.496.002 2.695 1.212 2.692 2.716-.003 1.48-1.216 2.678-2.712 2.677-1.486 0-2.681-1.208-2.68-2.706 0-1.49 1.206-2.69 2.7-2.687zm.09 1.047H7.55v.303c-.515.032-.884.322-.884.77 0 .405.27.624.759.735l.125.03v.684c-.255-.028-.39-.162-.42-.353h-.502c.013.469.396.744.922.774v.298h.216v-.3c.532-.035.912-.32.912-.79 0-.41-.268-.617-.78-.733l-.132-.028v-.662c.21.03.35.147.376.349h.5c-.018-.442-.355-.735-.876-.772v-.305zm0 1.886c.291.074.39.158.39.323 0 .17-.129.286-.39.313v-.636zM7.55 1.772v.614c-.253-.067-.36-.165-.36-.314 0-.15.124-.272.36-.3z"/>
</svg>
