<svg xmlns="http://www.w3.org/2000/svg" width="11" height="16" viewBox="0 0 11 16">
    <path fill="#FA6566" d="M2.824 15.979c.167.083.343-.097.24-.246-.553-.808-1.078-2.168-.242-3.92 1.394-2.921 2.242-4.434 2.242-4.434s.45 1.765 1.674 3.335c1.176 1.511 1.82 3.411.782 4.994-.097.149.075.324.24.245 1.286-.617 2.727-1.853 2.89-4.314.06-.752-.03-1.805-.48-3.134-.578-1.683-1.289-2.47-1.7-2.807-.123-.1-.315-.011-.305.142.12 1.817-.609 2.278-1.024 1.239-.165-.415-.262-1.133-.262-2.007 0-1.455-.45-2.954-1.443-4.17-.258-.317-.56-.613-.907-.866-.126-.09-.307 0-.296.15.076.986.007 3.813-2.638 7.191-2.4 3.134-1.47 5.54-1.14 6.192.63 1.248 1.51 1.982 2.37 2.41z"/>
</svg>
