<svg xmlns="http://www.w3.org/2000/svg" width="20" height="21" viewBox="0 0 20 21">
    <g fill="none" fill-rule="evenodd">
        <path d="M-1-1h22v22H-1z"/>
        <path fill="#FFD817" d="M16.89 2.383l-4.163 4.908-4.051-4.017 1.25-1.484 2.8 2.703 3.02-3.624zM18.284 15.5c.566.416.883.883.883 1.375 0 1.772-4.104 3.208-9.167 3.208S.833 18.647.833 16.875c0-.492.317-.959.883-1.375 1.471 1.084 4.628 1.833 8.284 1.833 3.586 0 6.691-.72 8.197-1.77l.087-.063zM10 8.625c5.063 0 9.167 1.436 9.167 3.208 0 1.772-4.104 3.209-9.167 3.209S.833 13.605.833 11.833 4.937 8.625 10 8.625z"/>
    </g>
</svg>
