<?xml version="1.0" encoding="UTF-8"?>
<svg width="475px" height="399px" viewBox="0 0 475 399" version="1.1" xmlns="http://www.w3.org/2000/svg" xmlns:xlink="http://www.w3.org/1999/xlink">
    <!-- Generator: Sketch 49.3 (51167) - http://www.bohemiancoding.com/sketch -->
    <title>Page 1</title>
    <desc>Created with Sketch.</desc>
    <defs>
        <path d="M0.906,173.093 C0.906,268.277 77.637,345.441 172.292,345.441 C266.945,345.441 343.676,268.277 343.676,173.093 C343.676,77.907 266.945,0.744 172.292,0.744 C77.637,0.744 0.906,77.907 0.906,173.093 Z" id="path-1"></path>
        <polygon id="path-3" points="0 2510 1807.081 2510 1807.081 0.987 0 0.987"></polygon>
        <circle id="path-5" cx="68.5" cy="68.5" r="68.5"></circle>
        <filter x="-20.4%" y="-19.0%" width="140.9%" height="140.9%" filterUnits="objectBoundingBox" id="filter-6">
            <feMorphology radius="6" operator="dilate" in="SourceAlpha" result="shadowSpreadOuter1"></feMorphology>
            <feOffset dx="0" dy="2" in="shadowSpreadOuter1" result="shadowOffsetOuter1"></feOffset>
            <feGaussianBlur stdDeviation="7" in="shadowOffsetOuter1" result="shadowBlurOuter1"></feGaussianBlur>
            <feComposite in="shadowBlurOuter1" in2="SourceAlpha" operator="out" result="shadowBlurOuter1"></feComposite>
            <feColorMatrix values="0 0 0 0 0   0 0 0 0 0   0 0 0 0 0  0 0 0 0.214673913 0" type="matrix" in="shadowBlurOuter1"></feColorMatrix>
        </filter>
    </defs>
    <g id="Home-" stroke="none" stroke-width="1" fill="none" fill-rule="evenodd">
        <g id="Home" transform="translate(-828.000000, -155.000000)">
            <g id="Page-1" transform="translate(-8.000000, 46.000000)">
                <path d="M1086.2919,507.4502 C1180.9449,507.4502 1257.6769,430.2872 1257.6769,335.1022 C1257.6769,239.9172 1180.9449,162.7542 1086.2919,162.7542 C991.6379,162.7542 914.9059,239.9172 914.9059,335.1022 C914.9059,430.2872 991.6379,507.4502 1086.2919,507.4502" id="Fill-1" fill="#3C4664"></path>
                <g id="Group-6" transform="translate(914.000000, 162.010000)">
                    <mask id="mask-2" fill="white">
                        <use xlink:href="#path-1"></use>
                    </mask>
                    <g id="Clip-4"></g>
                    <polygon id="Fill-3" fill="#3C4664" mask="url(#mask-2)" points="-808.842 2184.463 739.403 2184.463 739.403 -161.013 -808.842 -161.013"></polygon>
                    <polygon id="Fill-5" fill="#3C4664" mask="url(#mask-2)" points="-3.908 350.255 348.491 350.255 348.491 -4.07 -3.908 -4.07"></polygon>
                </g>
                <g id="Group-72" transform="translate(0.000000, 0.010000)">
                    <path d="M1253.8329,227.4958 C1248.0029,227.4958 1243.2769,232.2708 1243.2769,238.1618 C1243.2769,238.2128 1243.2839,238.2618 1243.2849,238.3108 C1241.6819,235.7318 1239.4849,233.5768 1236.8809,232.0348 C1244.2369,228.9868 1248.9129,221.2108 1247.7449,212.8918 C1246.3649,203.0598 1237.3579,196.2218 1227.6289,197.6158 C1219.5869,198.7688 1213.5829,205.1908 1212.5169,212.9338 C1211.7679,201.5708 1202.4139,192.5868 1190.9789,192.5868 C1179.0559,192.5868 1169.3889,202.3548 1169.3889,214.4048 C1169.3889,226.4548 1179.0559,236.2238 1190.9789,236.2238 C1202.0559,236.2238 1211.1779,227.7938 1212.4209,216.9378 C1212.4489,217.2738 1212.4639,217.6068 1212.5109,217.9448 C1213.2819,223.4348 1216.4349,227.9878 1220.7589,230.6998 C1213.7309,233.4218 1208.7319,240.2848 1208.7319,248.3448 C1208.7319,258.7868 1217.1089,267.2538 1227.4439,267.2538 C1237.7779,267.2538 1246.1559,258.7868 1246.1559,248.3448 C1246.1559,247.2528 1246.0449,246.1888 1245.8689,245.1488 C1247.8049,247.3988 1250.6499,248.8288 1253.8329,248.8288 C1259.6629,248.8288 1264.3889,244.0538 1264.3889,238.1618 C1264.3889,232.2708 1259.6629,227.4958 1253.8329,227.4958" id="Fill-7" fill="#2DBE60"></path>
                    <path d="M1253.8329,227.4958 C1248.0029,227.4958 1243.2769,232.2708 1243.2769,238.1618 C1243.2769,238.2128 1243.2839,238.2618 1243.2849,238.3108 C1241.6819,235.7318 1239.4849,233.5768 1236.8809,232.0348 C1244.2369,228.9868 1248.9129,221.2108 1247.7449,212.8918 C1246.3649,203.0598 1237.3579,196.2218 1227.6289,197.6158 C1219.5869,198.7688 1213.5829,205.1908 1212.5169,212.9338 C1211.7679,201.5708 1202.4139,192.5868 1190.9789,192.5868 C1179.0559,192.5868 1169.3889,202.3548 1169.3889,214.4048 C1169.3889,226.4548 1179.0559,236.2238 1190.9789,236.2238 C1202.0559,236.2238 1211.1779,227.7938 1212.4209,216.9378 C1212.4489,217.2738 1212.4639,217.6068 1212.5109,217.9448 C1213.2819,223.4348 1216.4349,227.9878 1220.7589,230.6998 C1213.7309,233.4218 1208.7319,240.2848 1208.7319,248.3448 C1208.7319,258.7868 1217.1089,267.2538 1227.4439,267.2538 C1237.7779,267.2538 1246.1559,258.7868 1246.1559,248.3448 C1246.1559,247.2528 1246.0449,246.1888 1245.8689,245.1488 C1247.8049,247.3988 1250.6499,248.8288 1253.8329,248.8288 C1259.6629,248.8288 1264.3889,244.0538 1264.3889,238.1618 C1264.3889,232.2708 1259.6629,227.4958 1253.8329,227.4958 Z" id="Stroke-9" stroke="#FDFFFE" stroke-width="8"></path>
                    <path d="M969.2772,302.5193 C969.2772,302.5193 968.5692,305.9333 970.8192,307.6323 C973.0692,309.3313 975.5872,310.4003 983.8532,312.7983 C992.1212,315.1973 1005.3282,318.2083 1005.3282,318.2083 C1005.3282,318.2083 1005.6902,319.1053 1006.5942,321.3463 C1007.5002,323.5883 1008.9782,324.3023 1012.2432,326.7603 C1015.5072,329.2193 1016.7662,329.7543 1018.1112,329.2113 C1019.4562,328.6683 1018.4652,327.5043 1018.4652,327.5043 C1018.4652,327.5043 1021.1632,329.0223 1020.7072,326.5993 C1022.3272,328.0313 1024.7582,330.1783 1025.4732,329.3683 C1026.1892,328.5573 1023.9722,325.3963 1021.4782,323.2173 C1019.9112,322.1703 1019.9742,322.2033 1019.9742,322.2033 C1019.9742,322.2033 1021.5012,322.1083 1021.1382,321.2113 C1020.7772,320.3153 1019.9662,319.5993 1017.1732,316.5553 C1014.3812,313.5113 1011.5102,314.1493 1010.1652,314.6923 C1003.4232,312.1993 982.8302,301.2203 979.2272,297.4603 C974.6412,295.1413 970.1662,299.5543 969.2772,302.5193" id="Fill-11" fill="#FAD347"></path>
                    <path d="M1006.5311,378.8093 C1009.7101,383.5793 1014.4791,388.8763 1018.1881,395.7653 C1021.8971,402.6543 1022.9571,407.4223 1022.4271,409.5423 C1021.8971,411.6623 1020.3071,414.8413 1021.3671,415.9013 C1022.4271,416.9603 1027.1961,416.4303 1029.3151,418.0203 C1031.4351,419.6103 1036.2041,424.3783 1039.9131,424.9093 C1043.6221,425.4383 1044.6821,424.9093 1045.7421,423.8493 C1046.8021,422.7883 1046.2711,420.1393 1042.5621,419.6103 C1038.8531,419.0803 1031.4351,415.3713 1028.7861,409.5423 C1026.1371,403.7133 1018.1881,378.8093 1018.1881,365.5623 C1018.1881,352.3163 1018.1881,331.1213 1011.3001,329.0013 C1004.4111,326.8813 998.5831,330.0613 994.3431,331.6503 C990.1041,333.2403 1003.3511,374.0403 1006.5311,378.8093" id="Fill-13" fill="#202A3F"></path>
                    <path d="M1008.2713,380.6804 C1008.2713,380.6804 1014.5693,355.3194 1012.0143,345.8894 C1009.4593,336.4584 993.5483,340.3934 993.5483,340.3934 C993.5483,340.3934 1003.0573,369.4414 1003.6393,371.2204 C1004.2213,373.0004 1004.7533,376.5734 1008.2713,380.6804" id="Fill-15" fill="#151D2D"></path>
                    <path d="M953.0135,277.6033 C952.6725,276.4683 957.2525,264.8863 954.0735,256.9383 C950.8945,248.9903 950.3645,240.5123 954.0735,236.2733 C957.7825,232.0343 963.6115,229.9153 968.3795,231.5033 C973.1495,233.0933 977.9175,235.2133 978.4475,241.5723 C978.9775,247.9303 978.9775,249.5203 979.5075,251.1093 C980.0365,252.6993 981.6265,253.2293 981.6265,254.2893 C981.6265,255.3483 978.9775,254.2893 978.4475,255.3483 C977.9175,256.4083 977.3875,261.7073 974.7385,262.7663 C972.0885,263.8273 966.7895,262.2373 965.2015,263.8273 C963.6115,265.4153 963.6115,267.0053 965.2015,270.7143 C966.7895,274.4233 969.9695,280.7833 968.9095,281.8423 C967.8505,282.9023 954.6035,282.9023 953.0135,277.6033" id="Fill-17" fill="#FAD347"></path>
                    <path d="M985.866,350.196 C985.866,350.726 983.217,357.085 983.746,366.623 C984.276,376.16 985.336,382.518 984.806,397.885 C984.276,413.252 985.336,418.02 983.746,421.729 C982.157,425.438 980.037,428.618 981.096,430.208 C982.157,431.797 985.866,431.797 986.926,433.386 C987.985,434.976 990.104,440.275 994.344,443.455 C998.583,446.634 1001.762,447.693 1002.292,446.634 C1002.822,445.574 1003.882,442.394 999.642,439.216 C995.403,436.036 989.045,431.267 988.515,427.028 C987.985,422.789 989.575,404.773 993.814,396.825 C998.053,388.877 1006.531,369.272 1008.65,363.443 C1010.77,357.615 1012.359,348.606 1010.24,344.897 C1008.121,341.188 1005.471,340.129 1000.702,340.129 C995.933,340.129 989.045,341.718 989.045,341.718 L985.866,350.196 Z" id="Fill-19" fill="#202A3F"></path>
                    <path d="M952.7488,266.2107 C952.7488,266.7407 952.7488,270.9807 944.8008,277.8677 C936.8528,284.7567 933.4078,286.0817 931.2888,300.9177 C929.1688,315.7547 925.9898,330.5907 932.3488,334.8297 C938.7068,339.0687 940.8258,337.4797 940.8258,337.4797 C940.8258,337.4797 936.5878,359.7337 939.2368,367.1517 C941.8868,374.5697 940.2968,379.8687 954.6028,376.6897 C968.9098,373.5107 983.7458,366.6227 983.7458,366.6227 C983.7458,366.6227 983.8928,365.8087 984.2138,364.4207 C985.8758,357.2387 992.2278,334.6807 1007.3258,329.7957 C995.1388,331.3857 977.3878,330.5907 966.7898,333.7707 C969.4388,322.6427 971.0288,318.9337 974.2088,311.5157 C977.3878,304.0977 978.9778,300.9177 978.9778,294.0287 C978.9778,287.1417 976.3278,286.0817 973.6788,280.7827 C971.0288,275.4837 970.4998,269.6547 969.4388,268.5957 C968.3798,267.5357 963.8758,267.8007 963.8758,267.8007 C963.8758,267.8007 968.1148,275.7487 966.5248,278.3987 C964.9358,281.0477 965.2008,280.2527 965.2008,280.2527 L961.4908,267.5357 L952.7488,266.2107 Z" id="Fill-21" fill="#E96252"></path>
                    <path d="M936.0574,334.2996 C936.0574,334.2996 939.2374,336.4196 941.8864,334.8296 C944.5364,333.2396 946.6554,331.1206 952.4834,323.7026 C958.3124,316.2836 966.7894,304.0976 966.7894,304.0976 L970.4994,304.0976 C973.1494,304.0976 974.4804,302.8876 978.3184,300.5776 C982.1574,298.2686 983.2164,297.2086 983.2164,295.6186 C983.2164,294.0286 981.6264,294.5596 981.6264,294.5596 C981.6264,294.5596 984.2764,292.4406 981.6264,291.9096 C983.7454,290.8506 986.9254,289.2606 986.3954,288.2006 C985.8664,287.1416 981.7434,288.0976 978.5054,289.7386 C976.7994,290.9026 976.8584,290.8506 976.8584,290.8506 C976.8584,290.8506 977.3874,289.2606 976.3284,289.2606 C975.2684,289.2606 974.2084,289.7906 969.9694,291.3796 C965.7304,292.9696 965.2014,296.1496 965.2014,297.7386 C959.9024,303.5676 940.2964,319.9926 934.9974,322.1126 C930.7584,325.8216 933.4084,332.1806 936.0574,334.2996" id="Fill-23" fill="#FAD347"></path>
                    <polygon id="Fill-25" fill="#EBF1F7" points="958.0477 323.531 1061.2097 320.346 1061.8147 330.112 959.2597 331.385"></polygon>
                    <path d="M979.6092,318.9988 L1005.6182,317.4958 C1005.6182,317.4958 1016.7482,280.8208 1017.7702,279.8808 C1018.7952,278.9408 1063.0272,275.2678 1063.9742,276.5708 C1064.9222,277.8738 1051.4242,318.8428 1050.4792,320.8648 C1049.5332,322.8878 979.0212,322.6498 979.0212,322.6498 L979.6092,318.9988 Z" id="Fill-27" fill="#343E59"></path>
                    <mask id="mask-4" fill="white">
                        <use xlink:href="#path-3"></use>
                    </mask>
                    <g id="Clip-30"></g>
                    <polygon id="Fill-29" fill="#EBF1F7" mask="url(#mask-4)" points="924.102 384.373 974.505 384.373 974.505 371.127 924.102 371.127"></polygon>
                    <path d="M953.0135,253.7585 C953.5245,253.8985 952.4835,243.1615 956.7225,240.5125 C960.9615,237.8625 966.2605,235.2135 970.4995,236.2735 C974.7385,237.3325 977.3875,241.5715 979.5075,243.6915 C981.6265,245.8105 986.9255,243.1615 986.3955,239.9825 C985.8665,236.8025 986.9255,235.2135 982.6865,235.2135 C978.4475,235.2135 977.4065,233.7905 976.8765,230.0815 C976.3465,226.3715 972.4585,222.7625 966.6295,222.7625 C960.8015,222.7625 959.9025,225.1455 956.7225,225.6755 C953.5435,226.2055 947.1845,225.6755 947.1845,225.6755 C947.1845,225.6755 948.7745,221.4365 942.4155,220.3765 C936.0575,219.3175 936.5875,220.9065 931.8185,219.3175 C927.0495,217.7275 917.5115,216.6675 909.5635,227.2655 C901.6165,237.8625 904.2645,246.3405 907.9745,250.5795 C911.6835,254.8195 918.5715,256.9385 918.5715,256.9385 C918.5715,256.9385 907.9745,262.2375 909.0345,270.1855 C910.0935,278.1335 923.3405,276.5435 925.9905,274.9535 C930.2295,275.4845 943.4755,271.2445 945.5955,267.0055 C947.7145,262.7665 946.1245,254.2885 943.4755,252.6985 C940.8255,251.1095 935.5275,240.5125 938.7065,237.8625 L941.8865,235.2135 C941.8865,235.2135 941.3565,250.5795 953.0135,253.7585" id="Fill-31" fill="#202A3F" mask="url(#mask-4)"></path>
                    <path d="M984.533,366.0339 C982.321,366.1199 993.555,332.4669 1010.456,331.3759 C1003.809,329.5449 1002.245,331.6959 1002.245,331.6959 C1002.245,331.6959 985.967,346.0489 983.882,368.2729 C986.744,365.9469 984.533,366.0339 984.533,366.0339" id="Fill-32" fill="#151D2D" mask="url(#mask-4)"></path>
                    <path d="M953.0516,240.7332 C953.0516,240.7332 954.2186,251.3252 957.8686,250.1292 C961.5196,248.9322 961.9986,241.9752 965.4956,240.8552 C968.9916,239.7352 975.3326,243.2232 978.6556,240.8762 C981.9796,238.5272 980.6556,234.3302 977.3556,231.6652 C974.0546,228.9992 955.9016,224.6722 953.0516,240.7332" id="Fill-33" fill="#202A3F" mask="url(#mask-4)"></path>
                    <path d="M1042.663,302.9128 C1042.663,305.4248 1040.627,307.4608 1038.114,307.4608 C1035.602,307.4608 1033.566,305.4248 1033.566,302.9128 C1033.566,300.4008 1035.602,298.3648 1038.114,298.3648 C1040.627,298.3648 1042.663,300.4008 1042.663,302.9128" id="Fill-34" fill="#31CB9E" mask="url(#mask-4)"></path>
                    <path d="M1199.5868,303.531 C1199.5868,303.531 1133.3418,295.36 1119.9898,298.332 C1106.6388,301.302 1096.6248,301.594 1097.1388,317.791 C1097.6518,333.987 1100.4768,340.426 1114.8558,344.139 C1129.2338,347.853 1190.6008,347.358 1202.1538,341.416 C1213.7088,335.473 1207.0328,306.255 1205.4918,305.264 C1203.9518,304.274 1199.5868,303.531 1199.5868,303.531" id="Fill-35" fill="#343E59" mask="url(#mask-4)"></path>
                    <path d="M1222.5302,371.6238 C1223.1492,374.1008 1225.0082,381.9188 1220.0532,385.0658 C1215.1002,388.2138 1168.9692,390.6898 1151.3222,390.4418 C1133.6762,390.1948 1111.6932,386.2498 1109.8362,381.0418 C1107.9782,375.8338 1108.2882,372.6138 1116.0282,369.8908 C1123.7682,367.1668 1140.7962,360.4808 1168.9692,361.4718 C1197.1432,362.4628 1216.9582,365.1868 1219.4342,366.4248 C1221.9112,367.6618 1222.5302,371.6238 1222.5302,371.6238" id="Fill-36" fill="#343E59" mask="url(#mask-4)"></path>
                    <path d="M1184.4032,451.3416 C1183.8642,450.9266 1179.9242,458.0206 1179.4972,460.2536 C1179.0702,462.4876 1181.2042,463.5806 1183.3372,465.7666 C1185.4702,467.9516 1187.1762,474.5086 1191.6562,476.6946 C1196.1362,478.8796 1201.0432,480.6276 1199.9762,476.6946 C1198.9102,472.7596 1197.2032,472.1046 1192.7232,468.3886 C1188.2432,464.6736 1183.1242,464.3586 1184.6172,460.2536 C1186.1102,456.1496 1186.1102,452.6536 1184.4032,451.3416" id="Fill-37" fill="#88B7D8" mask="url(#mask-4)"></path>
                    <path d="M1152.1913,434.731198 C1152.1913,434.731198 1148.9763,443.6992 1150.1573,446.8642 C1151.3373,450.0302 1153.5233,453.3082 1151.0443,453.3082 C1148.5643,453.3082 1143.4453,451.1232 1141.9523,451.5602 C1140.4583,451.9972 1135.1253,454.8382 1129.1523,454.8382 C1123.1783,454.8382 1120.6193,452.4342 1121.4723,450.6852 C1122.3263,448.9372 1125.0983,449.5922 1128.9383,450.2492 C1132.7783,450.9042 1141.3113,450.9042 1143.6583,444.7852 C1146.0043,438.6652 1147.0783,434.7282 1152.1913,434.731198" id="Fill-38" fill="#88B7D8" mask="url(#mask-4)"></path>
                    <path d="M1199.9989,366.6912 C1202.4339,367.8672 1204.0319,370.4192 1204.6949,373.0912 C1205.3579,375.7642 1205.2059,378.5742 1204.9389,381.3182 C1203.3119,398.0902 1197.6129,414.8052 1200.3069,431.4332 C1201.2919,437.5132 1203.3839,443.3712 1204.2109,449.4762 C1204.5379,451.8912 1204.4259,454.8432 1202.3929,456.1112 C1200.5799,457.2402 1198.2719,456.3872 1196.2499,455.7322 C1194.2279,455.0772 1191.5879,454.8512 1190.4009,456.6532 C1190.0479,457.1902 1189.8839,457.8432 1189.5059,458.3642 C1188.2049,460.1552 1185.3449,459.3292 1183.7579,457.7982 C1179.5789,453.7722 1179.4159,447.1422 1179.5429,441.2672 C1179.8729,426.1012 1180.2019,410.9362 1180.5309,395.7712 C1174.7689,393.3732 1168.8809,391.1302 1162.7259,390.2122 C1156.5699,389.2942 1150.0689,389.7762 1144.5029,392.6202 C1146.2339,402.3792 1150.3809,411.6792 1156.4459,419.4112 C1157.9079,421.2732 1159.5189,423.1222 1160.1829,425.4122 C1160.8479,427.7022 1160.2199,430.6032 1158.1259,431.6542 C1157.8489,431.7932 1157.5499,431.8992 1157.3149,432.1042 C1155.5649,433.6322 1159.5749,437.0162 1157.8299,438.5502 C1155.9519,437.8922 1153.8659,437.8742 1151.9779,438.5002 C1150.3429,439.0412 1148.8689,440.0432 1147.2009,440.4642 C1145.5329,440.8862 1143.4579,440.5132 1142.6509,438.9592 C1142.1949,438.0792 1142.2449,437.0272 1142.0779,436.0452 C1141.6209,433.3702 1139.5669,431.2982 1138.5419,428.7942 C1137.9169,427.2652 1137.6859,425.6052 1137.3249,423.9902 C1136.5699,420.6132 1135.2339,417.4072 1133.9049,414.2212 C1129.6589,404.0462 1125.4129,393.8712 1121.1669,383.6962 C1119.9109,380.6862 1118.6329,377.5662 1118.6749,374.2942 C1118.6949,372.6922 1119.0339,371.1122 1119.4699,369.5742 C1120.4269,366.1972 1121.9259,362.8682 1124.4729,360.5102 C1128.3059,356.9622 1133.8179,356.1792 1138.9779,355.9012 C1152.4909,355.1722 1166.1229,356.8082 1179.1059,360.7162 C1183.3459,361.9922 1187.5519,363.5162 1191.9419,364.0202 C1195.2319,364.3982 1199.2619,364.6142 1200.7289,367.6542" id="Fill-39" fill="#4F7B8A" mask="url(#mask-4)"></path>
                    <path d="M1174.4813,366.6023 C1167.9603,371.1353 1161.4383,375.6673 1154.9173,380.2013 C1154.5583,380.4503 1154.1723,380.7083 1153.7393,380.7173 C1153.3523,380.7253 1152.9923,380.5313 1152.6553,380.3353 C1145.5243,376.1893 1140.5013,369.0343 1136.8753,361.5003 C1136.7033,361.1443 1136.5293,360.7573 1136.5893,360.3643 C1136.6343,360.0683 1136.8083,359.8083 1137.0023,359.5823 C1138.6873,357.6273 1141.6593,357.7853 1144.1813,358.1413 C1154.7343,359.6323 1165.4043,361.8843 1174.6643,367.2793" id="Fill-40" fill="#202A3F" mask="url(#mask-4)"></path>
                    <path d="M1118.6737,329.7869 C1119.0497,329.5479 1123.1087,319.6789 1125.9517,314.7239 C1128.7967,309.7699 1136.2517,313.8229 1136.5767,314.6969 C1136.9027,315.5719 1140.0317,321.6779 1140.0317,321.6779 C1140.0317,321.6779 1132.0677,331.5529 1128.7967,334.4789 C1125.5257,337.4069 1107.6067,353.4889 1094.9487,353.0229 C1082.2917,352.5569 1073.6157,348.9129 1070.3457,346.2899 C1067.0737,343.6669 1065.3677,342.9369 1064.3717,341.9179 C1063.3767,340.8979 1061.1707,335.1549 1061.4547,332.9169 C1061.7397,330.6779 1062.5767,328.6629 1063.7147,330.5579 C1064.8527,332.4509 1065.2787,337.9469 1065.2787,337.9469 C1065.2787,337.9469 1066.2357,338.1169 1066.2357,337.6809 C1066.2357,336.8059 1066.2207,332.2639 1066.9327,329.9329 C1067.6437,327.6009 1067.2427,324.9239 1069.5217,326.2469 C1071.1987,327.2209 1069.7767,334.9229 1069.6347,335.7979 C1070.4867,335.2149 1069.9187,330.2389 1072.7627,330.1289 C1074.0727,330.0769 1073.1897,338.8589 1073.1897,339.0049 C1073.1897,339.1499 1074.7537,336.3809 1075.4647,337.4009 C1076.1767,338.4209 1075.7497,340.8969 1075.6077,341.7709 C1075.4647,342.6459 1084.5037,343.0579 1086.5947,342.8659 C1092.9547,342.2829 1096.2287,344.1019 1118.6737,329.7869" id="Fill-41" fill="#00A6CE" mask="url(#mask-4)"></path>
                    <path d="M1175.2577,289.7957 C1180.3797,290.7597 1185.5247,292.1327 1189.9547,294.9347 C1195.1367,298.2097 1199.0567,303.2777 1201.9257,308.7787 C1204.7947,314.2807 1206.6957,320.2467 1208.5827,326.1777 C1208.8057,326.8767 1209.0297,327.6217 1208.8557,328.3357 C1208.7047,328.9497 1208.2787,329.4487 1207.8567,329.9127 C1204.7357,333.3447 1201.0987,336.2827 1197.1137,338.5937 C1195.9387,336.2967 1194.6507,334.0617 1193.2547,331.8977 C1193.6857,337.3757 1193.8217,342.8787 1193.6627,348.3717 C1193.6257,349.6657 1193.5687,350.9827 1193.1557,352.2057 C1192.7427,353.4287 1191.9927,354.5057 1191.1467,355.4647 C1189.4087,357.4337 1187.2197,358.9797 1184.8067,359.9417 C1181.1537,361.3997 1177.1307,361.4997 1173.2117,361.3887 C1163.1107,361.1017 1153.0897,359.5377 1143.0997,357.9787 C1141.5447,357.7347 1139.9377,357.4727 1138.6177,356.5957 C1135.5347,354.5467 1135.1947,350.1327 1135.2627,346.3687 C1135.3867,339.4157 1135.7947,332.4677 1136.4857,325.5487 C1132.4117,322.7877 1128.6717,319.5117 1125.3767,315.8177 C1124.9207,315.3067 1124.4617,314.7667 1124.2627,314.1047 C1123.8597,312.7587 1124.6267,311.3667 1125.3637,310.1797 C1128.1997,305.6077 1131.0367,301.0347 1133.8727,296.4637 C1135.0717,294.5297 1136.3177,292.5467 1138.1437,291.2257 C1140.5197,289.5057 1143.5507,289.1337 1146.4427,288.8127 C1156.7637,287.6667 1167.5377,286.5747 1177.2497,290.3357" id="Fill-42" fill="#283247" mask="url(#mask-4)"></path>
                    <path d="M1209.7714,327.6277 C1214.0264,339.2777 1218.3434,351.2987 1217.9644,363.7317 C1217.9564,364.0067 1217.9414,364.2947 1217.8014,364.5277 C1217.5104,365.0157 1216.8434,365.0487 1216.2864,365.0327 C1213.5524,364.9537 1210.8144,365.0587 1208.0944,365.3437 C1204.9084,365.6777 1201.7484,366.2597 1198.5524,366.4797 C1192.7134,366.8807 1186.8344,366.0657 1181.0084,366.6267 C1176.7764,367.0337 1172.5004,368.1617 1168.3304,367.3137 C1167.3244,367.1077 1166.1904,366.6387 1165.9294,365.6217 C1164.5464,365.0457 1162.8294,365.4547 1161.8344,366.5967 C1161.0414,367.5097 1160.7354,368.7467 1160.2824,369.8787 C1159.8284,371.0097 1159.0834,372.1667 1157.9204,372.4477 C1157.8414,371.0747 1158.0684,369.6837 1158.5774,368.4107 C1158.3794,369.4377 1158.1394,370.5447 1157.3654,371.2277 C1156.5914,371.9097 1155.1114,371.7877 1154.8254,370.7837 C1154.6874,370.2997 1154.8614,369.7857 1155.0344,369.3147 C1156.2264,366.0427 1157.6334,362.5077 1160.6124,360.8107 C1158.9644,360.6937 1157.4054,361.7407 1156.4284,363.1057 C1155.4534,364.4697 1154.9534,366.1217 1154.4704,367.7387 C1153.4544,365.5967 1153.3614,363.0147 1154.2224,360.8027 C1155.0834,358.5897 1156.8844,356.7807 1159.0614,355.9427 C1159.9054,355.6177 1160.8294,355.4337 1161.7104,355.6257 C1162.5834,355.8157 1163.3404,356.3557 1164.0714,356.8827 C1165.9254,358.2207 1167.7794,359.5587 1169.6334,360.8967 C1180.1484,357.4027 1190.5624,353.5907 1200.8574,349.4657 C1199.7544,345.3097 1198.6524,341.1517 1197.5504,336.9947 C1202.2164,334.5307 1206.3424,330.9997 1209.5404,326.7337 L1211.3184,328.2487" id="Fill-43" fill="#00A6CE" mask="url(#mask-4)"></path>
                    <path d="M1185.1278,261.9861 C1183.3318,258.2431 1180.5438,254.9471 1176.9908,252.9101 C1173.4388,250.8741 1169.1058,250.1701 1165.1948,251.3311 C1164.1318,251.6461 1163.0958,252.0991 1162.2108,252.7831 C1161.3278,253.4651 1160.6208,254.3551 1159.9428,255.2511 C1157.8138,258.0661 1155.8748,261.0341 1154.1468,264.1251 C1153.6988,264.9241 1153.2838,265.9931 1153.8698,266.6921 C1154.2958,267.2021 1155.1468,267.3271 1155.3398,267.9681 C1155.4278,268.2571 1155.3448,268.5691 1155.2558,268.8571 C1154.8208,270.2551 1154.2118,271.6011 1153.9408,273.0411 C1153.6698,274.4811 1153.7868,276.0901 1154.6798,277.2361 C1155.2428,277.9601 1156.0558,278.4281 1156.8598,278.8511 C1158.2218,279.5691 1159.6208,280.2111 1161.0508,280.7741 C1161.3668,280.8981 1161.7008,281.0311 1161.9128,281.3021 C1162.3888,281.9151 1161.9958,282.8061 1161.5978,283.4721 C1160.6248,285.0971 1159.6528,286.7211 1158.6808,288.3461 C1158.4728,288.6951 1158.2618,289.0461 1157.9848,289.3401 C1157.3118,290.0571 1156.2938,290.3861 1155.7028,291.1761 C1154.8978,292.2541 1155.1798,293.8841 1156.0158,294.9381 C1156.8518,295.9921 1158.1068,296.5901 1159.3398,297.0871 C1165.0798,299.3971 1171.4558,300.2651 1177.4878,298.9511 C1178.7448,298.6761 1180.0558,298.2641 1180.9058,297.2781 C1181.7578,296.2911 1181.9028,294.5661 1180.8948,293.7511 C1180.4878,293.4231 1179.9678,293.2871 1179.4608,293.1821 C1178.1618,292.9131 1176.8348,292.7841 1175.5088,292.7991 C1175.9328,289.0471 1176.5778,285.3191 1177.4408,281.6461 C1177.7088,280.5071 1178.7088,279.5881 1179.0618,278.4741 C1179.2628,277.8381 1179.3948,277.1791 1179.6288,276.5551 C1179.8528,275.9611 1180.1638,275.4071 1180.4688,274.8511 C1182.4078,271.3151 1184.0898,267.6321 1185.4958,263.8401 C1185.7298,263.2131 1185.8278,262.2851 1185.2058,262.0761" id="Fill-44" fill="#00A6CE" mask="url(#mask-4)"></path>
                    <path d="M1172.1014,268.1111 C1171.8454,269.0541 1170.4514,269.1891 1169.7444,268.5311 C1169.0374,267.8741 1168.8784,266.8031 1168.8674,265.8251 C1168.8454,264.0261 1169.1724,262.2241 1169.8244,260.5531 C1168.6304,261.0091 1167.3694,260.1091 1166.4854,259.1701 C1165.4094,258.0251 1164.4814,256.7341 1163.7354,255.3401 C1163.1244,256.3001 1161.9134,256.6121 1160.8134,256.8191 C1159.1564,257.1311 1157.4534,257.3821 1155.7914,257.0901 C1154.1294,256.7991 1152.4954,255.8851 1151.6954,254.3661 C1152.8734,254.9021 1154.3954,254.4721 1155.1394,253.3931 C1152.8394,253.1841 1150.7284,251.5091 1149.9544,249.2821 C1149.7454,248.6781 1149.6294,248.0021 1149.8584,247.4061 C1150.0864,246.8111 1150.7534,246.3611 1151.3434,246.5711 C1150.8044,245.6581 1151.0374,244.3501 1151.8564,243.6911 C1152.6744,243.0331 1153.9694,243.1111 1154.7074,243.8631 C1154.5634,242.9551 1154.9664,241.7991 1155.8594,241.7041 C1156.4814,241.6371 1157.0364,242.1311 1157.3534,242.6821 C1157.6714,243.2331 1157.8394,243.8681 1158.1864,244.4001 C1158.8234,245.3781 1159.9574,245.8721 1161.0554,246.2111 C1165.0124,247.4321 1169.3304,247.3291 1173.1194,249.0211 C1176.2304,250.4111 1178.7304,252.9021 1181.0864,255.4061 C1182.6574,257.0751 1184.2274,258.8211 1185.1094,260.9561 C1186.2714,263.7671 1186.1104,267.0111 1185.2204,269.9251 C1184.3314,272.8401 1182.7634,275.4821 1181.1354,278.0401 C1180.6174,278.8531 1180.0784,279.6761 1179.3344,280.2811 C1178.5914,280.8851 1177.5994,281.2471 1176.6814,281.0021 C1175.9564,280.8071 1175.3694,280.2691 1174.8704,279.6961 C1173.5394,278.1721 1172.6244,276.2711 1172.2514,274.2631 C1173.9464,274.9261 1176.0224,274.1181 1176.9884,272.5451 C1177.9544,270.9711 1177.8184,268.8131 1176.7894,267.2821 C1176.3264,266.5911 1175.6644,265.9991 1174.8644,265.8291 C1173.5694,265.5531 1172.1624,266.6381 1172.0624,267.9901 C1172.5844,267.8851 1173.1084,267.7811 1173.6304,267.6761" id="Fill-45" fill="#202A3F" mask="url(#mask-4)"></path>
                    <path d="M1145.3817,341.699 C1134.6177,334.933 1123.6507,328.508 1112.4987,322.433 C1111.7297,322.014 1110.6477,321.651 1110.1007,322.346 C1109.8147,322.71 1109.8197,323.223 1109.8517,323.689 C1110.3897,331.741 1113.3637,339.749 1115.6277,347.479 C1116.9657,352.053 1118.7357,356.095 1119.7847,360.745 C1119.9207,361.345 1120.0667,361.956 1120.3967,362.47 C1120.7657,363.045 1121.3327,363.45 1121.8907,363.836 C1124.7147,365.792 1127.6237,367.62 1130.6057,369.313 C1136.6117,372.724 1141.5777,376.43 1147.9857,380.52 C1149.2357,381.319 1151.7807,382.187 1153.0187,381.368 C1154.2267,380.567 1153.4007,381.127 1153.7387,380.718 C1154.3727,379.952 1154.2497,379.587 1154.8827,378.821 C1155.1677,378.477 1155.4637,378.11 1155.5417,377.666 C1155.6067,377.303 1155.5187,376.933 1155.4307,376.576 C1153.2857,367.861 1151.1407,359.146 1148.9957,350.431 C1148.2667,347.468 1147.4777,344.384 1145.5127,342.083 C1145.7667,342.266 1146.0207,342.449 1146.2747,342.633" id="Fill-46" fill="#141C2D" mask="url(#mask-4)"></path>
                    <path d="M1144.7548,393.9421 C1143.6638,389.4131 1138.6718,373.7811 1138.6718,373.7811 C1138.6718,373.7811 1140.8848,378.9991 1145.3648,382.3351 C1149.8448,385.6701 1158.3778,387.3041 1163.7108,387.9891 C1169.0438,388.6731 1178.8578,381.6221 1181.4168,380.7171 C1183.9768,379.8131 1182.6968,383.3701 1181.4168,389.7081 C1180.9808,391.8701 1180.6878,395.6331 1180.4468,399.6301 C1180.4758,398.3441 1180.5038,397.0571 1180.5308,395.7711 C1174.7688,393.3731 1168.8808,391.1301 1162.7258,390.2121 C1156.5698,389.2941 1150.0688,389.7761 1144.5028,392.6201 C1144.5848,393.0801 1144.6768,393.5381 1144.7698,393.9961 C1144.7648,393.9781 1144.7588,393.9591 1144.7548,393.9421" id="Fill-47" fill="#47717C" mask="url(#mask-4)"></path>
                    <path d="M1111.4403,324.5759 C1111.4403,324.5759 1142.8193,342.4839 1143.5393,343.5709 C1144.2583,344.6569 1150.0153,369.3149 1150.0153,369.3149 L1151.0233,370.1189 C1151.0233,370.1189 1144.9773,343.4729 1144.6903,342.8119 C1144.4023,342.1499 1112.8793,323.8639 1112.0153,323.7169 C1111.1523,323.5689 1111.4403,324.5759 1111.4403,324.5759" id="Fill-48" fill="#293245" mask="url(#mask-4)"></path>
                    <path d="M1076.121,131.2996 C1071.96,131.2996 1067.963,131.9916 1064.225,133.2496 C1057.294,121.1726 1044.279,113.0306 1029.354,113.0306 C1007.158,113.0306 989.164,131.0256 989.164,153.2216 C989.164,175.4176 1007.158,193.4116 1029.354,193.4116 C1035.146,193.4116 1040.647,192.1766 1045.622,189.9716 C1052.365,199.5616 1063.508,205.8336 1076.121,205.8336 C1096.703,205.8336 1113.389,189.1496 1113.389,168.5676 C1113.389,147.9846 1096.703,131.2996 1076.121,131.2996" id="Fill-49" fill="#FAD347" mask="url(#mask-4)"></path>
                    <path d="M1076.121,131.2996 C1071.96,131.2996 1067.963,131.9916 1064.225,133.2496 C1057.294,121.1726 1044.279,113.0306 1029.354,113.0306 C1007.158,113.0306 989.164,131.0256 989.164,153.2216 C989.164,175.4176 1007.158,193.4116 1029.354,193.4116 C1035.146,193.4116 1040.647,192.1766 1045.622,189.9716 C1052.365,199.5616 1063.508,205.8336 1076.121,205.8336 C1096.703,205.8336 1113.389,189.1496 1113.389,168.5676 C1113.389,147.9846 1096.703,131.2996 1076.121,131.2996 Z" id="Stroke-50" stroke="#FFFFFF" stroke-width="7" mask="url(#mask-4)"></path>
                    <path d="M1037.0927,165.9363 C1036.8117,167.0613 1036.1087,168.0083 1035.1137,168.6043 C1034.1177,169.2013 1032.9517,169.3743 1031.8267,169.0913 L1020.5677,166.2693 L1022.6787,157.8473 L1033.9377,160.6703 C1036.2597,161.2523 1037.6747,163.6153 1037.0927,165.9363 M1040.0937,148.7363 C1040.6897,149.7313 1040.8627,150.8983 1040.5807,152.0223 C1039.9987,154.3433 1037.6357,155.7583 1035.3157,155.1783 L1035.3147,155.1783 L1024.0557,152.3553 L1026.1657,143.9343 L1037.4257,146.7563 C1038.5507,147.0393 1039.4977,147.7413 1040.0937,148.7363 M1044.9507,145.8263 C1043.5777,143.5343 1041.3937,141.9143 1038.8027,141.2643 L1037.3137,140.8903 L1039.0687,133.8883 L1033.7167,132.5463 L1031.9617,139.5493 L1027.3937,138.4043 L1029.1497,131.4013 L1027.8667,131.0803 L1022.6747,129.7783 L1020.9827,136.5283 L1014.6527,134.9423 L1013.1507,140.9393 L1019.4787,142.5263 L1014.0067,164.3563 L1007.6787,162.7693 L1006.1747,168.7673 L1012.5027,170.3543 L1011.0747,176.0513 L1012.3567,176.3733 L1017.5497,177.6733 L1019.0407,171.7243 L1023.6197,172.8723 L1022.1287,178.8223 L1027.4577,180.1583 L1028.9497,174.2073 L1030.4497,174.5833 C1031.4057,174.8243 1032.3757,174.9203 1033.3347,174.8783 C1034.9727,174.8063 1036.5767,174.3283 1038.0237,173.4613 C1040.3157,172.0883 1041.9357,169.9053 1042.5847,167.3133 C1043.2687,164.5863 1042.7517,161.8383 1041.3767,159.6193 C1043.6377,158.3103 1045.3897,156.1273 1046.0727,153.3993 C1046.7227,150.8073 1046.3237,148.1183 1044.9507,145.8263" id="Fill-51" fill="#FFFFFF" mask="url(#mask-4)"></path>
                    <path d="M1109.3885,168.2263 C1109.3885,187.4483 1093.8055,203.0313 1074.5835,203.0313 C1055.3615,203.0313 1039.7795,187.4483 1039.7795,168.2263 C1039.7795,149.0033 1055.3615,133.4213 1074.5835,133.4213 C1093.8055,133.4213 1109.3885,149.0033 1109.3885,168.2263" id="Fill-52" fill="#76DCF5" mask="url(#mask-4)"></path>
                    <polygon id="Fill-53" fill="#FFFFFF" mask="url(#mask-4)" points="1090.8055 166.282 1079.3275 145.112 1064.7595 164.537 1078.3345 159.947"></polygon>
                    <polygon id="Fill-54" fill="#FFFFFF" mask="url(#mask-4)" points="1064.9042 170.1667 1076.4102 190.9107 1090.9512 171.9107 1077.2132 178.9327"></polygon>
                    <polygon id="Fill-55" fill="#FFFFFF" mask="url(#mask-4)" points="1091.1259 169.3005 1078.1409 162.8405 1064.5599 167.5205 1077.2379 176.3165"></polygon>
                    <path d="M1068.4413,153.8943 C1068.4413,174.6243 1051.6363,191.4293 1030.9073,191.4293 C1010.1773,191.4293 993.3723,174.6243 993.3723,153.8943 C993.3723,133.1653 1010.1773,116.3603 1030.9073,116.3603 C1051.6363,116.3603 1068.4413,133.1653 1068.4413,153.8943" id="Fill-56" fill="#FAD347" mask="url(#mask-4)"></path>
                    <path d="M1039.7792,168.2263 C1039.7792,175.6673 1042.1222,182.5583 1046.1002,188.2163 C1059.2582,182.3823 1068.4412,169.2143 1068.4412,153.8943 C1068.4412,147.1033 1066.6292,140.7393 1063.4742,135.2433 C1049.7022,139.8803 1039.7792,152.8903 1039.7792,168.2263" id="Fill-57" fill="#17B950" mask="url(#mask-4)"></path>
                    <path d="M948.8631,367.5623 C942.0711,367.5623 935.6661,369.1953 929.9981,372.0743 C924.0501,353.4893 906.6401,340.0313 886.0811,340.0313 C860.6151,340.0313 839.9711,360.6753 839.9711,386.1413 C839.9711,411.6073 860.6151,432.2503 886.0811,432.2503 C894.9841,432.2503 903.2941,429.7213 910.3421,425.3503 C916.6341,440.4233 931.5091,451.0193 948.8631,451.0193 C971.9091,451.0193 990.5921,432.3363 990.5921,409.2913 C990.5921,386.2453 971.9091,367.5623 948.8631,367.5623" id="Fill-59" fill="#F5973F" mask="url(#mask-4)"></path>
                    <path d="M948.8631,367.5623 C942.0711,367.5623 935.6661,369.1953 929.9981,372.0743 C924.0501,353.4893 906.6401,340.0313 886.0811,340.0313 C860.6151,340.0313 839.9711,360.6753 839.9711,386.1413 C839.9711,411.6073 860.6151,432.2503 886.0811,432.2503 C894.9841,432.2503 903.2941,429.7213 910.3421,425.3503 C916.6341,440.4233 931.5091,451.0193 948.8631,451.0193 C971.9091,451.0193 990.5921,432.3363 990.5921,409.2913 C990.5921,386.2453 971.9091,367.5623 948.8631,367.5623 Z" id="Stroke-60" stroke="#FFFFFF" stroke-width="6" mask="url(#mask-4)"></path>
                    <path d="M988.4012,409.1882 C988.4012,430.9682 970.7452,448.6242 948.9652,448.6242 C927.1862,448.6242 909.5302,430.9682 909.5302,409.1882 C909.5302,387.4092 927.1862,369.7532 948.9652,369.7532 C970.7452,369.7532 988.4012,387.4092 988.4012,409.1882" id="Fill-61" fill="#EAEFF5" mask="url(#mask-4)"></path>
                    <path d="M932.1912,386.1414 C932.1912,411.6074 911.5472,432.2504 886.0812,432.2504 C860.6152,432.2504 839.9712,411.6074 839.9712,386.1414 C839.9712,360.6754 860.6152,340.0314 886.0812,340.0314 C911.5472,340.0314 932.1912,360.6754 932.1912,386.1414" id="Fill-62" fill="#F5973F" mask="url(#mask-4)"></path>
                    <path d="M932.1912,386.1414 C932.1912,411.6074 911.5472,432.2504 886.0812,432.2504 C860.6152,432.2504 839.9712,411.6074 839.9712,386.1414 C839.9712,360.6754 860.6152,340.0314 886.0812,340.0314 C911.5472,340.0314 932.1912,360.6754 932.1912,386.1414 Z" id="Stroke-63" stroke="#FFFFFF" stroke-width="6" mask="url(#mask-4)"></path>
                    <path d="M887.4217,414.6179 C887.1067,414.6179 886.7897,414.5359 886.5067,414.3729 L855.8877,396.6949 C855.0127,396.1889 854.7127,395.0699 855.2177,394.1949 C855.7227,393.3199 856.8417,393.0189 857.7177,393.5249 L887.4217,410.6759 L916.2117,394.0539 L916.2117,390.0679 L888.3367,406.1619 C887.7707,406.4889 887.0727,406.4889 886.5067,406.1619 L855.8877,388.4829 C855.3207,388.1569 854.9727,387.5529 854.9727,386.8989 L854.9727,378.5129 C854.9727,377.5019 855.7917,376.6819 856.8027,376.6819 C857.8127,376.6819 858.6317,377.5019 858.6317,378.5129 L858.6317,385.8429 L887.4217,402.4639 L917.1257,385.3139 C917.6927,384.9869 918.3897,384.9869 918.9557,385.3139 C919.5227,385.6399 919.8707,386.2449 919.8707,386.8989 L919.8707,395.1099 C919.8707,395.7639 919.5227,396.3679 918.9557,396.6949 L888.3367,414.3729 C888.0537,414.5359 887.7367,414.6179 887.4217,414.6179" id="Fill-64" fill="#E37E25" mask="url(#mask-4)"></path>
                    <path d="M860.4617,378.5125 L887.4217,394.0775 L914.3817,378.5135 L887.4217,362.9475 L860.4617,378.5125 Z M887.4217,398.0215 C887.1067,398.0215 886.7897,397.9395 886.5067,397.7765 L855.8877,380.0975 C855.3207,379.7705 854.9727,379.1655 854.9727,378.5125 C854.9727,377.8595 855.3207,377.2545 855.8877,376.9275 L886.5067,359.2495 C887.0727,358.9225 887.7707,358.9225 888.3367,359.2495 L918.9557,376.9285 C919.5227,377.2545 919.8707,377.8595 919.8707,378.5135 C919.8707,379.1665 919.5227,379.7715 918.9557,380.0975 L888.3367,397.7765 C888.0537,397.9395 887.7367,398.0215 887.4217,398.0215 Z" id="Fill-65" fill="#E37E25" mask="url(#mask-4)"></path>
                    <polygon id="Fill-66" fill="#FFFFFF" mask="url(#mask-4)" points="884.7 360.4988 855.53 377.1498 884.008 394.0248 914.517 377.3488"></polygon>
                    <path d="M884.741,413.2781 C884.426,413.2781 884.109,413.1961 883.826,413.0331 L853.207,395.3541 C852.332,394.8491 852.032,393.7301 852.537,392.8551 C853.042,391.9791 854.161,391.6781 855.037,392.1851 L884.741,409.3351 L913.531,392.7141 L913.531,388.7271 L885.656,404.8211 C885.09,405.1481 884.392,405.1481 883.826,404.8211 L853.207,387.1431 C852.64,386.8161 852.292,386.2121 852.292,385.5581 L852.292,377.1731 C852.292,376.1621 853.111,375.3421 854.122,375.3421 C855.133,375.3421 855.952,376.1621 855.952,377.1731 L855.952,384.5021 L884.741,401.1241 L914.446,383.9741 C915.012,383.6471 915.709,383.6471 916.275,383.9741 C916.842,384.3001 917.19,384.9051 917.19,385.5581 L917.19,393.7691 C917.19,394.4241 916.842,395.0281 916.275,395.3541 L885.656,413.0331 C885.373,413.1961 885.057,413.2781 884.741,413.2781" id="Fill-67" fill="#FFCF57" mask="url(#mask-4)"></path>
                    <path d="M857.7811,377.1726 L884.7411,392.7376 L911.7011,377.1726 L884.7411,361.6076 L857.7811,377.1726 Z M884.7411,396.6806 C884.4261,396.6806 884.1091,396.5996 883.8261,396.4356 L853.2071,378.7566 C852.6401,378.4306 852.2921,377.8256 852.2921,377.1726 C852.2921,376.5186 852.6401,375.9136 853.2071,375.5876 L883.8261,357.9096 C884.3921,357.5826 885.0901,357.5826 885.6561,357.9096 L916.2751,375.5876 C916.8421,375.9146 917.1901,376.5196 917.1901,377.1726 C917.1901,377.8256 916.8421,378.4306 916.2751,378.7576 L885.6561,396.4356 C885.3731,396.5996 885.0571,396.6806 884.7411,396.6806 Z" id="Fill-68" fill="#FFCF57" mask="url(#mask-4)"></path>
                    <polygon id="Fill-69" fill="#A8A8A8" mask="url(#mask-4)" points="965.9539 405.7478 953.6029 382.9688 937.9279 403.8708 952.5339 398.9318"></polygon>
                    <polygon id="Fill-70" fill="#A8A8A8" mask="url(#mask-4)" points="938.0838 409.9275 950.4638 432.2485 966.1088 411.8055 951.3278 419.3605"></polygon>
                    <polygon id="Fill-71" fill="#A8A8A8" mask="url(#mask-4)" points="966.2977 408.9958 952.3257 402.0448 937.7127 407.0808 951.3547 416.5448"></polygon>
                </g>
                <g id="Group-106" transform="translate(1168.000000, 192.000000)">
                    <path d="M97.3885,46.031 C97.3885,52.106 92.4635,57.031 86.3885,57.031 C80.3135,57.031 75.3885,52.106 75.3885,46.031 C75.3885,39.956 80.3135,35.031 86.3885,35.031 C92.4635,35.031 97.3885,39.956 97.3885,46.031" id="Fill-76" fill="#EAEFF5"></path>
                    <path d="M88.4706,47.2429 C88.3296,47.2429 88.1926,47.2539 88.0566,47.2729 C87.6536,46.9309 87.3416,46.5039 87.3686,46.0139 C87.3906,45.6319 87.5696,45.3129 87.8246,45.0509 C88.0096,45.0899 88.2006,45.1099 88.3986,45.1099 C89.9196,45.1099 91.1536,43.8769 91.1536,42.3549 C91.1536,40.8329 89.9196,39.5989 88.3986,39.5989 C86.8756,39.5989 85.6426,40.8329 85.6426,42.3549 C85.6426,43.0619 85.9086,43.7079 86.3476,44.1949 C86.2866,44.5589 86.1546,44.8819 85.8966,45.0499 C85.6216,45.2289 85.0766,45.2579 84.4846,45.2179 C84.0806,44.1959 83.0856,43.4719 81.9206,43.4719 C80.3986,43.4719 79.1646,44.7059 79.1646,46.2269 C79.1646,47.7489 80.3986,48.9829 81.9206,48.9829 C83.1736,48.9829 84.2306,48.1459 84.5656,47.0009 C85.0476,46.9279 85.4846,46.9329 85.7146,47.1169 C86.0086,47.3479 86.1576,47.8449 86.2266,48.3999 C85.9056,48.8509 85.7146,49.4019 85.7146,49.9979 C85.7146,51.5199 86.9496,52.7539 88.4706,52.7539 C89.9916,52.7539 91.2266,51.5199 91.2266,49.9979 C91.2266,48.4759 89.9916,47.2429 88.4706,47.2429" id="Fill-78" fill="#C8CDD6"></path>
                    <path d="M78.3885,56.531 C78.3885,67.301 69.6585,76.031 58.8885,76.031 C48.1185,76.031 39.3885,67.301 39.3885,56.531 C39.3885,45.761 48.1185,37.031 58.8885,37.031 C69.6585,37.031 78.3885,45.761 78.3885,56.531" id="Fill-82" fill="#31CB9E"></path>
                    <path d="M52.9882,55.2888 C50.3512,54.6778 48.7042,52.0358 49.3142,49.3998 C49.9252,46.7638 52.5662,45.1158 55.2032,45.7258 C57.8402,46.3368 59.4872,48.9778 58.8772,51.6148 C58.2662,54.2508 55.6252,55.8988 52.9882,55.2888 M59.5632,46.7358 L60.8342,47.0308 L61.2272,45.3308 L55.5962,44.0258 C52.0232,43.1988 48.4422,45.4328 47.6142,49.0068 C46.7872,52.5798 49.0202,56.1608 52.5942,56.9888 C56.1682,57.8158 59.7492,55.5828 60.5772,52.0088 C61.0152,50.1148 60.5882,48.2238 59.5632,46.7358" id="Fill-84" fill="#FFFFFF"></path>
                    <path d="M66.6942,58.4636 C64.0572,57.8526 62.4102,55.2106 63.0202,52.5746 C63.6312,49.9386 66.2722,48.2906 68.9092,48.9006 C71.5452,49.5116 73.1932,52.1526 72.5832,54.7896 C71.9712,57.4256 69.3302,59.0736 66.6942,58.4636 M69.3022,47.2006 C65.7282,46.3726 62.1482,48.6076 61.3202,52.1806 C60.4932,55.7546 62.7262,59.3356 66.3002,60.1626 C69.8742,60.9906 73.4552,58.7566 74.2822,55.1836 C75.1102,51.6096 72.8772,48.0286 69.3022,47.2006" id="Fill-86" fill="#FFFFFF"></path>
                    <path d="M49.8632,68.782 C47.2262,68.172 45.5782,65.53 46.1892,62.893 C46.8002,60.258 49.4412,58.609 52.0782,59.219 C54.7142,59.831 56.3622,62.472 55.7512,65.108 C55.1402,67.745 52.4992,69.392 49.8632,68.782 M52.4712,57.52 C48.8972,56.692 45.3172,58.926 44.4892,62.5 C43.6612,66.074 45.8952,69.654 49.4682,70.482 C53.0432,71.309 56.6242,69.076 57.4512,65.502 C58.2792,61.928 56.0452,58.347 52.4712,57.52" id="Fill-88" fill="#FFFFFF"></path>
                    <path d="M80.3885,23.531 C80.3885,33.196 72.5535,41.031 62.8885,41.031 C53.2235,41.031 45.3885,33.196 45.3885,23.531 C45.3885,13.866 53.2235,6.031 62.8885,6.031 C72.5535,6.031 80.3885,13.866 80.3885,23.531" id="Fill-92" fill="#F9D245"></path>
                    <path d="M45.3885,22.531 C45.3885,34.958 35.3155,45.031 22.8885,45.031 C10.4615,45.031 0.3885,34.958 0.3885,22.531 C0.3885,10.104 10.4615,0.031 22.8885,0.031 C35.3155,0.031 45.3885,10.104 45.3885,22.531" id="Fill-96" fill="#2DBE60"></path>
                    <polygon id="Fill-98" fill="#FFFFFF" points="15.7362 30.0613 16.5282 7.0413 27.0782 30.8223"></polygon>
                    <polygon id="Fill-100" fill="#FFFFFF" points="34.7206 21.6394 27.6406 30.5734 17.0866 6.7864"></polygon>
                    <polygon id="Fill-102" fill="#FFFFFF" points="16.0438 30.7546 27.2808 31.2786 30.5648 38.6816"></polygon>
                    <polygon id="Fill-104" fill="#FFFFFF" points="35.0272 22.3318 31.1272 38.4328 27.8422 31.0298"></polygon>
                </g>
                <g id="Group-7" transform="translate(1154.000000, 343.000000)">
                    <g id="--">
                        <use fill="black" fill-opacity="1" filter="url(#filter-6)" xlink:href="#path-5"></use>
                        <use stroke="#FFFFFF" stroke-width="12" fill="#31CB9E" fill-rule="evenodd" xlink:href="#path-5"></use>
                    </g>
                    <g id="Page-1" transform="translate(39.000000, 28.000000)">
                        <path d="M29.5763,62.4092 C17.5463,62.4092 7.7693,52.6332 7.7693,40.6012 C7.7693,36.9302 8.6783,33.4412 10.3133,30.4252 L5.0073,25.1182 C2.1723,29.5892 0.5003,34.8952 0.5003,40.6012 C0.5003,56.6672 13.5123,69.6792 29.5763,69.6792 L29.5763,80.5822 L44.1153,66.0442 L29.5763,51.5062 L29.5763,62.4092 Z M29.5763,11.5252 L29.5763,0.6212 L15.0383,15.1602 L29.5763,29.6982 L29.5763,18.7942 C41.6073,18.7942 51.3843,28.5712 51.3843,40.6012 C51.3843,44.2722 50.4753,47.7622 48.8403,50.7782 L54.1463,56.0852 C56.9813,51.6142 58.6533,46.3082 58.6533,40.6012 C58.6533,24.5372 45.6413,11.5252 29.5763,11.5252 Z" id="Fill-1" fill="#FFFFFF"></path>
                        <path d="M29.5763,62.4092 C17.5463,62.4092 7.7693,52.6332 7.7693,40.6012 C7.7693,36.9302 8.6783,33.4412 10.3133,30.4252 L5.0073,25.1182 C2.1723,29.5892 0.5003,34.8952 0.5003,40.6012 C0.5003,56.6672 13.5123,69.6792 29.5763,69.6792 L29.5763,80.5822 L44.1153,66.0442 L29.5763,51.5062 L29.5763,62.4092 Z M29.5763,11.5252 L29.5763,0.6212 L15.0383,15.1602 L29.5763,29.6982 L29.5763,18.7942 C41.6073,18.7942 51.3843,28.5712 51.3843,40.6012 C51.3843,44.2722 50.4753,47.7622 48.8403,50.7782 L54.1463,56.0852 C56.9813,51.6142 58.6533,46.3082 58.6533,40.6012 C58.6533,24.5372 45.6413,11.5252 29.5763,11.5252 Z" id="Stroke-3"></path>
                    </g>
                </g>
                <g id="DAI" style="mix-blend-mode: multiply;" transform="translate(1007.000000, 133.000000)" fill-rule="nonzero">
                    <rect id="Rectangle-path" fill="#FDC526" transform="translate(23.000000, 23.000000) rotate(-45.000000) translate(-23.000000, -23.000000) " x="7" y="7" width="32" height="32"></rect>
                    <polygon id="Shape" fill="#FEAE16" points="23.0024307 1 1 23.1645446 23.1434096 31 45 23.1645446"></polygon>
                    <polygon id="Shape" fill="#231F20" opacity="0.2" points="46 23.0024307 24 45 24 1"></polygon>
                    <polygon id="Shape" fill="#FEFEFE" points="23.7590164 6 9 22 19.1163934 22 23.7540984 17.4256671 28.652459 22 39 22"></polygon>
                </g>
                <g id="DAI" style="mix-blend-mode: multiply;" transform="translate(1221.000000, 206.000000)" fill-rule="nonzero">
                    <rect id="Rectangle-path" fill="#FDC526" transform="translate(10.000000, 10.000000) rotate(-45.000000) translate(-10.000000, -10.000000) " x="3.04347826" y="3.04347826" width="13.9130435" height="13.9130435"></rect>
                    <polygon id="Shape" fill="#FEAE16" points="10.0010568 0.434782609 0.434782609 10.0715411 10.062352 13.4782609 19.5652174 10.0715411"></polygon>
                    <polygon id="Shape" fill="#231F20" opacity="0.2" points="20 10.0010568 10.4347826 19.5652174 10.4347826 0.434782609"></polygon>
                    <polygon id="Shape" fill="#FEFEFE" points="10.3300071 2.60869565 3.91304348 9.56521739 8.31147541 9.56521739 10.3278689 7.576377 12.4575909 9.56521739 16.9565217 9.56521739"></polygon>
                </g>
            </g>
        </g>
    </g>
</svg>