<?xml version="1.0" encoding="UTF-8"?>
<svg width="37px" height="30px" viewBox="0 0 37 30" version="1.1" xmlns="http://www.w3.org/2000/svg" xmlns:xlink="http://www.w3.org/1999/xlink">
    <!-- Generator: Sketch 50.2 (55047) - http://www.bohemiancoding.com/sketch -->
    <title>Page 1</title>
    <desc>Created with Sketch.</desc>
    <defs>
        <polygon id="path-1" points="0 0.000263157895 36.4557514 0.000263157895 36.4557514 29.9328947 0 29.9328947"></polygon>
    </defs>
    <g id="Home-Swap-" stroke="none" stroke-width="1" fill="none" fill-rule="evenodd">
        <g id="Swap---After-click-Accept" transform="translate(-567.000000, -396.000000)">
            <g id="Page-1" transform="translate(567.000000, 396.000000)">
                <mask id="mask-2" fill="white">
                    <use xlink:href="#path-1"></use>
                </mask>
                <g id="Clip-2"></g>
                <path d="M18.1917368,9.72631579 C19.1433158,9.71315789 19.7101579,9.17263158 19.7064737,8.28157895 C19.7027895,7.42684211 19.1959474,6.79315789 18.2338421,6.81421053 C17.2817368,6.83526316 16.6222632,7.26157895 16.6575263,8.32105263 C16.6896316,9.27842105 17.2359474,9.73526316 18.1917368,9.72631579 M19.7496316,19.9989474 C19.7496316,18.4242105 19.7585789,16.8494737 19.747,15.2747368 C19.7391053,14.2121053 19.2780526,13.4821053 18.1359474,13.4731579 C17.0185789,13.4642105 16.6343684,14.1905263 16.6343684,15.2047368 C16.6343684,18.3978947 16.6412105,21.5915789 16.6259474,24.7847368 C16.6212105,25.8494737 17.217,26.4115789 18.1633158,26.5673684 C18.9891053,26.7036842 19.7348947,25.7931579 19.7475263,24.7236842 C19.7659474,23.1489474 19.7522632,21.5736842 19.7496316,19.9989474 M4.91857895,21.7447368 L4.90910526,21.7447368 C4.90910526,22.4015789 4.877,23.06 4.91436842,23.7152632 C5.09489474,26.9115789 8.12805263,29.8905263 11.1280526,29.9110526 C12.1680526,29.9178947 12.8948947,29.5431579 12.9596316,28.51 C13.0233158,27.4963158 12.4533158,26.9947368 11.3417368,26.8989474 C9.15015789,26.7110526 8.07068421,25.4615789 7.99963158,23.29 C7.97226316,22.4584211 7.89910526,21.6226316 7.95489474,20.7957895 C8.08857895,18.8215789 7.59910526,17.0931579 6.26805263,15.5836842 C6.06963158,15.3584211 6.11015789,14.6531579 6.317,14.3842105 C7.45594737,12.9084211 8.13068421,11.3252632 7.97331579,9.41947368 C7.90173684,8.54947368 7.94647368,7.66842105 7.96752632,6.79315789 C8.02068421,4.58473684 9.29647368,3.19526316 11.5291053,3.05315789 C12.6554211,2.98157895 12.9812105,2.31736842 12.9543684,1.41368421 C12.9275263,0.492105263 12.3591053,0.0126315789 11.3985789,0.0336842105 C8.92594737,0.0889473684 7.08331579,1.17052632 5.81226316,3.30631579 C4.60805263,5.33 4.94542105,7.54315789 4.91857895,9.71315789 C4.89226316,11.84 3.76594737,13.1710526 1.64752632,13.4247368 C0.711210526,13.5368421 0.0343684211,13.8505263 0.000684210526,14.9057895 C-0.0314210526,15.9473684 0.620684211,16.3378947 1.53121053,16.5315789 C4.12173684,17.0815789 4.92278947,18.0826316 4.91857895,20.6936842 C4.91805263,21.0442105 4.91857895,21.3942105 4.91857895,21.7447368 M31.4485789,8.12421053 C31.4401579,8.12421053 31.4306842,8.12421053 31.4217368,8.12421053 C31.4217368,7.42315789 31.4559474,6.72052632 31.4154211,6.02210526 C31.2327895,2.87315789 27.9991053,-0.159473684 25.0433158,0.00631578947 C24.0359474,0.0631578947 23.3038421,0.491052632 23.2885789,1.54578947 C23.2733158,2.59 23.9475263,2.92368421 24.9717368,3.13947368 C25.9122632,3.33736842 26.9575263,3.88578947 27.5575263,4.61052632 C28.1033158,5.27052632 28.1964737,6.36157895 28.3406842,7.28578947 C28.6206842,9.07894737 28.4675263,11.0168421 29.1091053,12.6536842 C29.7317368,14.2405263 30.5664737,15.3736842 29.2148947,17.0857895 C27.8406842,18.8268421 28.4301579,21.1310526 28.357,23.2105263 C28.2775263,25.4884211 27.1001579,26.7952632 24.8264737,26.9347368 C23.8448947,26.9957895 23.3785789,27.3931579 23.4001579,28.3868421 C23.4222632,29.3994737 23.8748947,29.8863158 24.9233158,29.9278947 C27.5712105,30.0331579 29.2459474,28.5052632 30.5880526,26.5268421 C31.8901579,24.6073684 31.3438421,22.3668421 31.4217368,20.2478947 C31.4964737,18.1973684 32.7096316,16.8121053 34.7575263,16.5573684 C35.7196316,16.4373684 36.4738421,16.0657895 36.4554211,14.9589474 C36.4364737,13.8657895 35.7354211,13.5073684 34.7238421,13.4084211 C32.7627895,13.2163158 31.487,11.78 31.4506842,9.83263158 C31.4401579,9.26315789 31.4485789,8.69368421 31.4485789,8.12421053" id="Fill-1" fill="#EF8102" mask="url(#mask-2)"></path>
            </g>
        </g>
    </g>
</svg>