<?xml version="1.0" encoding="UTF-8"?>
<svg width="30px" height="30px" viewBox="0 0 30 30" version="1.1" xmlns="http://www.w3.org/2000/svg" xmlns:xlink="http://www.w3.org/1999/xlink">
    <!-- Generator: Sketch 50.2 (55047) - http://www.bohemiancoding.com/sketch -->
    <title>Page 1</title>
    <desc>Created with Sketch.</desc>
    <defs></defs>
    <g id="Home-Swap-" stroke="none" stroke-width="1" fill="none" fill-rule="evenodd">
        <g id="Swap---After-click-Accept" transform="translate(-992.000000, -396.000000)" fill="#EF8102">
            <g id="Page-1" transform="translate(992.000000, 396.000000)">
                <path d="M0,4.44155456 C0.0540576923,4.18061225 0.0993461538,3.91747764 0.163442308,3.6590161 C0.696057692,1.51141995 2.62292308,0.00276609935 4.83069231,0.00103533012 C5.58790385,0.000458407041 6.34511538,0.000919945502 7.12182692,0.000919945502 L7.12182692,7.06811225 L0.0569423077,7.06811225 C0.0501923077,6.94205456 0.0395192308,6.81230456 0.0368653846,6.68243918 C0.0234230769,6.03166995 0.0120576923,5.38084302 0,4.7300161 L0,4.44155456 Z M11.3952462,18.4332084 L11.3952462,0.0180545609 C11.4986885,0.0122276378 11.5993615,0.0016699455 11.7000346,0.0016699455 C16.2081692,0.000804560887 20.7163038,-0.00184928527 25.2244962,0.00213148396 C27.4095346,0.00403533012 29.4615346,1.80466995 29.7589385,3.97747764 C29.8069385,4.32853533 29.8353808,4.68524687 29.8357846,5.03936225 C29.8409769,9.38411225 29.8391308,13.7288623 29.8391308,18.0735546 L29.8391308,18.4332084 L11.3952462,18.4332084 Z M11.3987365,22.8083334 L18.4795442,22.8083334 C18.4849096,22.9041026 18.4946019,22.9971603 18.4946596,23.090218 C18.495525,25.2631988 18.4924673,27.4361796 18.4996212,29.6091603 C18.5003135,29.8358334 18.4549096,29.9275065 18.2016981,29.9263526 C16.0191404,29.9166603 13.836525,29.9192565 11.6539673,29.923468 C11.4704481,29.9238142 11.3778519,29.8950834 11.3786019,29.6749873 C11.386275,27.4347373 11.3834481,25.1944296 11.3841404,22.9541796 C11.3841404,22.9166219 11.3914096,22.8791219 11.3987365,22.8083334 Z M7.12685769,11.4641046 L7.12685769,18.5370084 C7.03720385,18.5430661 6.94564615,18.5545469 6.85408846,18.5546046 C4.68295385,18.555643 2.51176154,18.5531623 0.340684615,18.5589315 C0.132242308,18.5595084 0.0305307692,18.5268546 0.0314538462,18.2808546 C0.0401076923,16.0905661 0.0363576923,13.9001623 0.0374538462,11.7098161 C0.0374538462,11.6345276 0.0497423077,11.5591815 0.05805,11.4641046 L7.12685769,11.4641046 Z M7.11671538,29.9298084 C5.81961923,29.8570584 4.52944615,30.0734046 3.27146538,29.6531738 C1.51185,29.0652892 0.155215385,27.3542507 0.0645807692,25.5040007 C0.0210230769,24.615193 0.0570807692,23.7225199 0.0570807692,22.8140392 L7.11671538,22.8140392 L7.11671538,29.9298084 Z M22.7663192,22.8123315 L29.7924923,22.8123315 C29.8066846,22.8283699 29.8297038,22.8422738 29.8295308,22.8558892 C29.8178192,23.8531584 29.9041269,24.8639853 29.7710308,25.8449853 C29.4483577,28.2228315 27.3388962,29.8703507 25.1477423,29.8877161 C24.3611654,29.8939469 23.5744731,29.8886969 22.7663192,29.8886969 L22.7663192,22.8123315 Z" id="Combined-Shape"></path>
            </g>
        </g>
    </g>
</svg>