<?xml version="1.0" encoding="UTF-8"?>
<svg width="30px" height="30px" viewBox="0 0 30 30" version="1.1" xmlns="http://www.w3.org/2000/svg" xmlns:xlink="http://www.w3.org/1999/xlink">
    <!-- Generator: Sketch 50.2 (55047) - http://www.bohemiancoding.com/sketch -->
    <title>Fill 1</title>
    <desc>Created with Sketch.</desc>
    <defs></defs>
    <g id="Home-Swap-" stroke="none" stroke-width="1" fill="none" fill-rule="evenodd">
        <g id="Swap---After-click-Accept" transform="translate(-1204.000000, -396.000000)" fill="#EF8102">
            <path d="M1218.95837,411.735832 C1218.87693,411.817122 1218.81302,411.879378 1218.7505,411.943022 C1215.51406,415.252708 1212.27741,418.562593 1209.04136,421.872676 C1208.99238,421.923036 1208.94081,421.972999 1208.90199,422.030893 C1208.73195,422.284676 1208.77894,422.615189 1209.0101,422.822181 C1209.23011,423.018664 1209.55127,423.03056 1209.78541,422.842999 C1209.87143,422.7742 1209.94629,422.691126 1210.02354,422.612017 C1213.25959,419.301736 1216.49544,415.991256 1219.7305,412.68038 C1219.79162,412.617926 1219.84598,412.548929 1219.91009,412.475371 C1219.59092,412.227338 1219.29008,411.99358 1218.95837,411.735832 M1229.63954,403.857062 C1230.63745,402.857395 1230.63865,401.254994 1229.64213,400.254732 C1228.64262,399.251497 1227.0014,399.252686 1225.99971,400.257508 C1224.99542,401.264907 1225.00757,402.879998 1226.02658,403.880656 C1227.03445,404.870211 1228.63864,404.859703 1229.63954,403.857062 M1206.95196,421.014969 C1206.92607,420.472904 1206.89342,419.820999 1206.86455,419.169094 C1206.83508,418.510448 1207.16102,418.182117 1207.831,418.195004 C1208.48486,418.207495 1209.13872,418.223356 1209.82543,418.238425 C1209.79418,417.578391 1209.76311,416.93977 1209.73345,416.301149 C1209.699,415.559627 1210.00284,415.268966 1210.75446,415.259251 C1211.3888,415.250924 1212.02275,415.196995 1212.68597,415.161505 C1212.66188,414.664051 1212.65013,414.044265 1212.59578,413.428247 C1212.55795,413.000187 1212.69633,412.684742 1212.99837,412.382186 C1214.17209,411.207448 1215.32431,410.0111 1216.49166,408.829819 C1216.63063,408.689247 1216.66289,408.582381 1216.58643,408.389665 C1215.1035,404.650332 1216.11555,400.659199 1219.19909,398.050786 C1222.33279,395.399548 1227.18199,395.308344 1230.43337,397.838838 C1234.2733,400.827727 1235.12547,406.016398 1232.43815,410.047184 C1230.18309,413.429635 1225.76436,414.861922 1221.8866,413.454617 C1221.6192,413.357664 1221.46649,413.395731 1221.27037,413.596576 C1217.48977,417.473507 1213.69981,421.341318 1209.91722,425.216266 C1209.68546,425.453592 1209.433,425.579096 1209.10149,425.61062 C1207.8768,425.727202 1206.6539,425.864205 1205.43,425.990502 C1204.8062,426.054939 1204.46932,425.792234 1204.39067,425.180379 C1204.26185,424.174169 1204.13442,423.16796 1204.01178,422.161155 C1203.93074,421.495768 1204.27101,421.139481 1204.93741,421.124611 C1205.60203,421.109741 1206.26564,421.054027 1206.95196,421.014969" id="Fill-1"></path>
        </g>
    </g>
</svg>