<?xml version="1.0" encoding="UTF-8"?>
<svg width="19px" height="19px" viewBox="0 0 19 19" version="1.1" xmlns="http://www.w3.org/2000/svg" xmlns:xlink="http://www.w3.org/1999/xlink">
    <!-- Generator: Sketch 50.2 (55047) - http://www.bohemiancoding.com/sketch -->
    <title>Shape</title>
    <desc>Created with Sketch.</desc>
    <defs></defs>
    <g id="Home-" stroke="none" stroke-width="1" fill="none" fill-rule="evenodd">
        <g id="Home-Zoom-Graph" transform="translate(-1346.000000, -813.000000)" fill="#000000" fill-rule="nonzero">
            <g id="baseline-settings-20px" transform="translate(1343.000000, 811.000000)">
                <path d="M19.7676705,12.42625 C19.8043142,12.129375 19.8287433,11.820625 19.8287433,11.5 C19.8287433,11.179375 19.8043142,10.870625 19.7554559,10.57375 L21.8197186,9.00625 C22.0029372,8.86375 22.0517955,8.6025 21.9418643,8.400625 L19.9875328,5.11125 C19.8653871,4.8975 19.608881,4.82625 19.3890187,4.8975 L16.9583189,5.8475 C16.4453068,5.4675 15.9078657,5.15875 15.3093516,4.92125 L14.9429144,2.40375 C14.9062707,2.16625 14.698623,2 14.4543316,2 L10.5456684,2 C10.301377,2 10.1059438,2.16625 10.0693001,2.40375 L9.70286296,4.92125 C9.10434892,5.15875 8.55469316,5.479375 8.0538957,5.8475 L5.62319582,4.8975 C5.40333352,4.814375 5.14682751,4.8975 5.02468178,5.11125 L3.07035022,8.400625 C2.9482045,8.614375 2.99706279,8.86375 3.19249595,9.00625 L5.25675866,10.57375 C5.20790037,10.870625 5.17125665,11.19125 5.17125665,11.5 C5.17125665,11.80875 5.1956858,12.129375 5.24454408,12.42625 L3.18028138,13.99375 C2.99706279,14.13625 2.9482045,14.3975 3.05813565,14.599375 L5.01246721,17.88875 C5.13461293,18.1025 5.39111895,18.17375 5.61098125,18.1025 L8.04168113,17.1525 C8.55469316,17.5325 9.09213434,17.84125 9.69064838,18.07875 L10.0570856,20.59625 C10.1059438,20.83375 10.301377,21 10.5456684,21 L14.4543316,21 C14.698623,21 14.9062707,20.83375 14.9306999,20.59625 L15.297137,18.07875 C15.8956511,17.84125 16.4453068,17.520625 16.9461043,17.1525 L19.3768042,18.1025 C19.5966665,18.185625 19.8531725,18.1025 19.9753182,17.88875 L21.9296498,14.599375 C22.0517955,14.385625 22.0029372,14.13625 21.8075041,13.99375 L19.7676705,12.42625 Z M12.5,15.0625 C10.4845956,15.0625 8.83562833,13.459375 8.83562833,11.5 C8.83562833,9.540625 10.4845956,7.9375 12.5,7.9375 C14.5154044,7.9375 16.1643717,9.540625 16.1643717,11.5 C16.1643717,13.459375 14.5154044,15.0625 12.5,15.0625 Z" id="Shape"></path>
            </g>
        </g>
    </g>
</svg>