<?xml version="1.0" encoding="UTF-8"?>
<svg width="131px" height="130px" viewBox="0 0 131 130" version="1.1" xmlns="http://www.w3.org/2000/svg" xmlns:xlink="http://www.w3.org/1999/xlink">
    <!-- Generator: Sketch 50.2 (55047) - http://www.bohemiancoding.com/sketch -->
    <title>Group 8</title>
    <desc>Created with Sketch.</desc>
    <defs></defs>
    <g id="Home-Swap-" stroke="none" stroke-width="1" fill="none" fill-rule="evenodd">
        <g id="Swap-home1" transform="translate(-1281.000000, -358.000000)">
            <g id="Group-8" transform="translate(1291.000000, 368.000000)">
                <g id="Oval-4" opacity="0.959430804">
                    <g id="Group">
                        <ellipse id="Oval-4" fill="#FFFFFF" cx="55.5" cy="55" rx="49.95" ry="49.5"></ellipse>
                        <ellipse id="Oval-4" stroke="#FFFFFF" stroke-width="2" opacity="0.306305804" cx="55.5" cy="55" rx="55.5" ry="55"></ellipse>
                    </g>
                </g>
                <g id="omg" transform="translate(28.000000, 27.000000)">
                    <g id="Vector">
                        <g>
                            <rect id="Path" fill="#FFFFFF" x="8.28571429" y="10" width="41.4285714" height="38"></rect>
                            <path d="M49.4866357,8.25504 C38.1766357,-2.75168 19.7925829,-2.75168 8.48254143,8.25504 C-2.82752071,19.26176 -2.82752071,37.1526 8.48254143,48.1594 C19.7925829,59.1662 38.1766357,59.1662 49.4866357,48.1594 C60.7966357,37.1526 60.7966357,19.26176 49.4866357,8.25504 Z M44.9626357,28.8276 L29.62205,43.7568 C29.2518857,44.117 28.6760286,44.117 28.3060714,43.7568 L12.9654236,28.8276 C12.59528,28.4674 12.59528,27.907 12.9654236,27.5468 L28.3060714,12.6177 C28.6760286,12.25748 29.2518857,12.25748 29.62205,12.6177 L44.9626357,27.5468 C45.3328,27.907 45.3328,28.4674 44.9626357,28.8276 Z" id="path0_fill" fill="#2176FF" fill-rule="nonzero"></path>
                            <path d="M58.0004143,28.1472 C58.0004143,20.66256 54.9570714,13.45816 49.5280643,8.17494 C44.92187,3.692196 37.4777979,3.65217 32.8715207,8.1349 L28.3475002,12.49756 C28.5120102,12.33748 28.7587759,12.25742 28.9644129,12.25742 C29.211178,12.25742 29.4579411,12.3775 29.6224498,12.5376 L49.4458286,31.8694 C54.0520643,36.3522 54.0520643,43.5966 49.4458286,48.0792 C54.91585,42.796 58.0004143,35.6316 58.0004143,28.1472 Z" id="path1_fill" fill="#1A53F0" fill-rule="nonzero"></path>
                            <path d="M7.54116,48.5726 C12.1474371,53.0552 19.5915093,53.0552 24.238925,48.6126 C24.238925,48.6126 26.0896429,46.73144 28.7218071,44.16988 C28.3928643,44.5301 27.7757857,44.5301 27.4058286,44.2099 L27.3646071,44.16988 L12.1063193,29.320806 C11.9006886,29.16071 11.8184321,28.880536 11.8184321,28.64039 C11.8184321,28.400244 11.9006886,28.1600978 12.0651807,28.0000001 L7.62341643,32.32264 C3.01714964,36.80538 2.97602143,44.0498 7.54116,48.5726 Z" id="path2_fill" fill="#1A53F0" fill-rule="nonzero"></path>
                        </g>
                    </g>
                </g>
            </g>
        </g>
    </g>
</svg>