<?xml version="1.0" encoding="UTF-8"?>
<svg width="90px" height="90px" viewBox="0 0 90 90" version="1.1" xmlns="http://www.w3.org/2000/svg" xmlns:xlink="http://www.w3.org/1999/xlink">
    <!-- Generator: Sketch 50.2 (55047) - http://www.bohemiancoding.com/sketch -->
    <title>aelf</title>
    <desc>Created with Sketch.</desc>
    <defs></defs>
    <g id="Home-Swap-" stroke="none" stroke-width="1" fill="none" fill-rule="evenodd">
        <g id="Swap-home1" transform="translate(-1255.000000, -512.000000)">
            <g id="aelf" transform="translate(1265.000000, 522.000000)">
                <g id="Group-8" opacity="0.959430804">
                    <g id="Oval-4">
                        <g id="Group">
                            <circle id="Oval-4" fill="#FFFFFF" cx="35" cy="35" r="31.5"></circle>
                            <circle id="Oval-4" stroke="#FFFFFF" stroke-width="2" opacity="0.306305804" cx="35" cy="35" r="35"></circle>
                        </g>
                    </g>
                </g>
                <g id="Group" transform="translate(37.500000, 35.000000) scale(-1, 1) rotate(-180.000000) translate(-37.500000, -35.000000) translate(20.000000, 17.000000)" fill="#F4B403" fill-rule="nonzero" opacity="0.783203125">
                    <path d="M16.9279128,35.6047297 C16.0184409,35.1182432 14.7862531,33.2939189 14.7862531,32.4121622 C14.7862531,31.3175676 15.7544007,29.6148649 16.7225482,29.097973 C18.101425,28.3682432 19.9497066,28.7027027 21.0058676,29.9493243 C23.4702431,32.777027 20.2137469,37.3378378 16.9279128,35.6047297 Z" id="Shape"></path>
                    <path d="M2.90444258,31.6824324 C0.821458508,30.5574324 0,29.1587838 0,26.7567568 C0,25.0236486 0.293378039,24.1722973 1.32020117,22.9864865 C3.0804694,20.9797297 5.63285834,20.7060811 8.44928751,22.2567568 C9.76948868,22.9864865 10.6496228,23.2601351 11.7937972,23.2601351 C13.2606873,23.2601351 13.4073764,23.1689189 15.0209556,21.4662162 C16.4291702,19.9763514 16.8398994,19.7027027 17.6320201,19.7939189 C18.8642079,19.9155405 19.8030176,21.222973 19.5389774,22.4087838 C19.2162615,23.6554054 17.9253982,24.2635135 16.4878458,23.8378378 C14.6395641,23.3209459 13.0553227,23.7466216 11.9991618,25.1148649 C11.5004191,25.7533784 10.8549874,26.9087838 10.5616094,27.6993243 C9.47611065,30.7398649 7.74518022,32.1993243 5.16345348,32.1689189 C4.43000838,32.1689189 3.43252305,31.9560811 2.90444258,31.6824324 Z" id="Shape"></path>
                    <path d="M24.7904443,24.8716216 C23.2355407,24.1722973 21.4459346,22.1047297 20.947192,20.5540541 C20.7124895,19.8851351 20.6244761,18.4560811 20.6831517,17.3006757 C20.8298407,14.8074324 21.9153395,13.0439189 24.1450126,11.5844595 C25.4358759,10.7635135 25.9639564,10.6418919 27.6948868,10.6418919 C33.7384744,10.6722973 37.0243085,17.2398649 33.5624476,22.4391892 C31.7728416,25.1452703 27.7242246,26.2702703 24.7904443,24.8716216 Z" id="Shape"></path>
                    <path d="M16.1357921,16.2972973 C15.8717519,15.9932432 15.3143336,15.2635135 14.8449288,14.6554054 C14.4048617,14.0777027 13.5834032,13.3783784 13.0553227,13.1655405 C11.969824,12.6790541 10.8843252,12.8918919 7.30511316,14.2601351 C4.45934619,15.3547297 2.14165968,14.5033784 0.674769489,11.8885135 C-1.23218776,8.39189189 1.32020117,3.77027027 5.19279128,3.77027027 C7.86253143,3.77027027 9.68147527,5.29054054 10.620285,8.30067568 C11.7351215,11.8277027 13.1433361,12.8918919 16.1357921,12.5878378 C18.5121542,12.3445946 19.3922883,12.8614865 19.3922883,14.472973 C19.3922883,16.4493243 17.2799665,17.6351351 16.1357921,16.2972973 Z" id="Shape"></path>
                    <path d="M16.5758592,6.81081081 C15.7544007,6.32432432 14.7569153,4.59121622 14.7862531,3.55743243 C14.7862531,2.55405405 15.9597653,0.912162162 17.0746018,0.364864865 C19.3629505,-0.760135135 21.8566639,1.06418919 21.8566639,3.89189189 C21.8566639,5.625 20.2724225,7.2972973 18.5708298,7.26689189 C17.9253982,7.26689189 17.0159262,7.05405405 16.5758592,6.81081081 Z" id="Shape"></path>
                </g>
            </g>
        </g>
    </g>
</svg>