<?xml version="1.0" encoding="UTF-8"?>
<svg width="60px" height="60px" viewBox="0 0 60 60" version="1.1" xmlns="http://www.w3.org/2000/svg" xmlns:xlink="http://www.w3.org/1999/xlink">
    <!-- Generator: Sketch 50.2 (55047) - http://www.bohemiancoding.com/sketch -->
    <title>eng-copy</title>
    <desc>Created with Sketch.</desc>
    <defs></defs>
    <g id="Home-Swap-" stroke="none" stroke-width="1" fill="none" fill-rule="evenodd">
        <g id="Swap-home1" transform="translate(-927.000000, -239.000000)">
            <g id="eng-copy" transform="translate(927.000000, 239.000000)">
                <circle id="Oval" fill="#FFFFFF" opacity="0.367354911" cx="30" cy="30" r="30"></circle>
                <rect id="Rectangle-2" x="11" y="10" width="40" height="40"></rect>
                <g id="Group-4" transform="translate(13.105262, 10.000000)" fill="#FFFFFF" fill-rule="nonzero">
                    <path d="M34.4881469,9.65859767 C34.4471593,9.63522538 34.4061718,9.61185309 34.3593287,9.58263773 C31.6482911,8.03422371 28.9431087,6.4799666 26.2379264,4.93155258 C23.3980704,3.30717862 20.5640699,1.6769616 17.724214,0.0584307178 L17.6246727,0 L17.519276,0.0409015024 C17.331904,0.111018364 17.1855197,0.181135225 17.0508462,0.257095158 C14.5798788,1.70033389 12.1089113,3.14357262 9.64379931,4.58096829 C6.57558387,6.37479131 3.50151304,8.16277129 0.456719093,9.95075124 C0.0761198489,10.1260434 0.0878305949,10.5233723 0.0936859678,10.7629382 C0.0936859678,10.8155259 0.0995413409,10.8739566 0.0936859678,10.9323873 C0.0878305949,15.466611 0.0819752218,20.0008347 0.0702644758,24.5350584 L0.05855373,29.5834724 C0.035132238,29.8873122 0.169805817,30.1444073 0.398165362,30.2495827 C3.91724453,32.2420702 7.43632369,34.2404007 10.9554029,36.2387311 L17.1796644,39.7737896 C17.3201933,39.8614358 17.4607223,39.9081802 17.5895405,39.9081802 C17.7007926,39.9081802 17.8003339,39.8731218 17.8823091,39.808848 L26.9112942,34.6202004 C29.4759476,33.1477462 32.0406011,31.6694491 34.5876882,30.2086811 C34.8746016,30.0801336 35.0444073,29.7938231 35.0092751,29.5250418 L35.038552,10.418197 C35.0795396,9.9799666 34.7106511,9.77545909 34.4881469,9.65859767 M17.5602636,10.8622704 L24.9848764,15.1744574 L17.5719743,19.4398998 L15.0483086,18.0141903 C13.3853826,17.0734558 11.7224567,16.1385643 10.0595308,15.1978297 L17.5602636,10.8622704 M25.997856,14.5901502 L17.9350075,9.90984976 C17.7125033,9.75208682 17.4197346,9.75208682 17.2089412,9.89232053 L9.04069589,14.6135225 L1.62193832,10.4298831 L6.79808804,7.40901502 C10.3874317,5.31135224 13.9767753,3.21953256 17.5719743,1.12771286 C20.8685493,3.02671118 24.1651242,4.91402338 27.4675547,6.80133556 C29.4818031,7.95826378 31.4960513,9.10934891 33.5102996,10.2662771 L25.997856,14.5901502 M1.11252087,11.3063439 L8.4961462,15.4782972 L8.64838591,24.6811353 C8.63081978,24.9674458 8.77134873,25.2245409 8.99385291,25.3238731 C10.627502,26.2646078 12.2670064,27.1994991 13.9065108,28.1402338 L17.0567015,29.9457429 L17.0508462,38.5409016 L1.07738863,29.472454 L1.11252087,11.3063439 M9.52083649,16.0567613 L17.0684123,20.3163606 L17.0567015,28.7829716 L9.66136544,24.5409016 L9.52083649,16.0567613 M18.0755364,29.951586 L21.2315825,28.1460769 C22.8476653,27.2170284 24.4696038,26.2938231 26.0973973,25.3589316 L26.1442404,25.3297162 C26.2320709,25.2771284 26.3491784,25.2070118 26.4311538,25.0901502 L26.4779967,25.0258764 L26.4779967,24.9499164 C26.4604304,22.9223707 26.4604304,20.8539232 26.466286,18.8555926 C26.466286,17.7337229 26.4721413,16.6118531 26.466286,15.4899833 L34.0197171,11.1427379 L34.0080062,18.557596 L33.9904402,29.384808 C30.6177453,31.3188647 27.2450504,33.2587647 23.8665002,35.1986644 L18.0638257,38.5350584 L18.0755364,29.951586 M18.0755364,28.7888147 L18.0813918,20.3163606 L25.5177156,16.039232 L25.5177156,24.5292153 C23.0408927,25.9432387 20.5582146,27.3631051 18.0755364,28.7888147" id="Shape"></path>
                    <path d="M17.3436148,2.12687813 C17.126966,2.15025042 16.9337387,2.29048413 16.8341974,2.49499164 C16.734656,2.71118531 16.7463668,2.94490818 16.8693296,3.12020033 C16.986437,3.30717862 17.2030858,3.418197 17.4373008,3.418197 C17.4782884,3.418197 17.5251314,3.41235393 17.5719743,3.40651084 C17.8471769,3.35976627 18.0521149,3.17278798 18.0989579,2.93322204 C18.1575116,2.72287144 18.1048133,2.50083473 17.9467182,2.33722871 C17.7944785,2.16777963 17.5602636,2.08597663 17.3436148,2.12687813 M17.771057,4.91402338 C17.5426975,4.79131887 17.2733503,4.79716193 17.0742676,4.93155258 C16.8986064,5.0308848 16.781499,5.21786311 16.7580775,5.43405676 C16.7405114,5.65025042 16.828342,5.84891487 16.9688709,5.95993322 C17.0918338,6.07679467 17.2499288,6.13522538 17.4197346,6.13522538 C17.519276,6.13522538 17.6188173,6.11185309 17.7125033,6.07095158 C17.9642843,5.95993322 18.116524,5.73205342 18.1106687,5.49248749 C18.1223794,5.2587646 17.9935612,5.03672789 17.771057,4.91402338 M17.8003339,7.65442404 C17.5778297,7.51419031 17.3026272,7.50834724 17.0918338,7.63105176 C16.8986064,7.73038398 16.7756436,7.91736227 16.7580775,8.14524207 C16.7405114,8.37312187 16.8400527,8.5951586 17.0098585,8.70617696 C17.126966,8.79966611 17.2733503,8.84641069 17.42559,8.84641069 C17.5251314,8.84641069 17.6246727,8.8230384 17.7183587,8.78213689 C17.9525736,8.6769616 18.0989579,8.47829716 18.1106687,8.25041736 C18.1282348,8.01085142 18.0111273,7.78881469 17.8003339,7.65442404 M6.92690624,25.5517529 C6.69854671,25.6160267 6.52288551,25.8030051 6.47018716,26.048414 C6.4174888,26.299666 6.5053194,26.5509182 6.68098058,26.6853089 C6.79223267,26.7846411 6.93276162,26.8372287 7.07914596,26.8372287 C7.12598893,26.8372287 7.17868729,26.8313856 7.22553027,26.8196996 C7.43632369,26.7729549 7.61198489,26.6268782 7.676394,26.451586 C7.78764607,26.2237062 7.74665847,25.9490818 7.56514191,25.7445742 C7.40119147,25.5517529 7.1552658,25.481636 6.92690624,25.5517529 M27.5963729,26.8430718 C27.6490713,26.8430718 27.7017696,26.8372287 27.7603233,26.8196996 C27.9711167,26.7671118 28.1350671,26.6210351 28.1877656,26.4574291 C28.3048731,26.2237062 28.25803,25.9432387 28.0765136,25.7328882 C27.9008522,25.5400669 27.6490713,25.46995 27.4207118,25.5459098 C27.1982076,25.6101836 27.0284018,25.8030051 26.9815587,26.048414 C26.9347158,26.299666 27.0225464,26.5450751 27.1923522,26.6794658 C27.2977489,26.7904842 27.4441331,26.8430718 27.5963729,26.8430718 M4.5964678,26.9307178 C4.36225287,27.0125209 4.2041578,27.2228716 4.18073631,27.4858098 C4.15731482,27.7545909 4.28613302,28.0058431 4.49107109,28.1227044 C4.58475704,28.1811353 4.69600913,28.2161936 4.80726122,28.2161936 C4.9009472,28.2161936 4.98877778,28.1928213 5.08246376,28.1519198 C5.2874018,28.0584307 5.42793076,27.8714524 5.44549689,27.6844742 C5.49819524,27.4565942 5.40450927,27.1994991 5.21128196,27.0417362 C5.0297654,26.8839733 4.80140584,26.8430718 4.5964678,26.9307178 M29.8682576,28.2103507 C29.9443776,28.2103507 30.0204973,28.1986644 30.0966171,28.1694491 C30.3191213,28.087646 30.4772164,27.8948247 30.500638,27.7020033 C30.5650471,27.4741236 30.4889271,27.2287144 30.3015553,27.0592653 C30.125894,26.8956593 29.8799684,26.8430718 29.6691749,26.9248749 C29.4525262,27.0008347 29.2885758,27.193656 29.247588,27.4390651 C29.2066004,27.6903171 29.3002864,27.9357262 29.4759476,28.0701169 C29.5871998,28.1577629 29.7277287,28.2103507 29.8682576,28.2103507 M2.83985591,28.3388982 C2.64077322,28.2278798 2.41241367,28.2278798 2.22504173,28.3388982 C2.02010368,28.4499164 1.89128548,28.6719533 1.89128548,28.9232053 C1.89128548,29.1803004 2.03181443,29.4023373 2.23089711,29.5016696 C2.31872771,29.5542571 2.41826904,29.5776293 2.51781038,29.5776293 C2.63491784,29.5776293 2.75788069,29.5425709 2.86913276,29.472454 C3.0799262,29.3380633 3.19703364,29.0984976 3.17361216,28.89399 C3.17946753,28.6661102 3.05064933,28.4557596 2.83985591,28.3388982 M31.7712538,29.4315527 C31.8766507,29.5250418 32.0113242,29.5776293 32.1518531,29.5776293 C32.2338282,29.5776293 32.3158036,29.5601002 32.3977787,29.5250418 C32.6261382,29.4257096 32.7842333,29.2153589 32.7959442,29.0108513 C32.8427871,28.7595993 32.7256796,28.5025042 32.5031756,28.3564273 C32.2982373,28.2161936 32.0464564,28.2103507 31.8473738,28.3388982 C31.6600018,28.4499164 31.5370389,28.6485809 31.5253282,28.8823038 C31.5136173,29.1101836 31.6131587,29.3263773 31.7712538,29.4315527" id="Shape"></path>
                </g>
            </g>
        </g>
    </g>
</svg>