<?xml version="1.0" encoding="UTF-8"?>
<svg width="90px" height="90px" viewBox="0 0 90 90" version="1.1" xmlns="http://www.w3.org/2000/svg" xmlns:xlink="http://www.w3.org/1999/xlink">
    <!-- Generator: Sketch 50.2 (55047) - http://www.bohemiancoding.com/sketch -->
    <title>kyber-logo</title>
    <desc>Created with Sketch.</desc>
    <defs></defs>
    <g id="Home-Swap-" stroke="none" stroke-width="1" fill="none" fill-rule="evenodd">
        <g id="Swap-home1" transform="translate(-1059.000000, -171.000000)">
            <g id="kyber-logo" transform="translate(1069.000000, 181.000000)">
                <g id="Oval-4" opacity="0.967578125" transform="translate(0.036585, 0.000000)">
                    <g id="Group">
                        <circle id="Oval-4" fill="#FFFFFF" cx="35" cy="35" r="31.5"></circle>
                        <circle id="Oval-4" stroke="#FFFFFF" stroke-width="2" opacity="0.306305804" cx="35" cy="35" r="35"></circle>
                    </g>
                </g>
                <path d="M34.1724138,36.0047619 L46.8308583,43.9721698 C47.2755523,44.2498091 47.8275862,43.8964499 47.8275862,43.3411712 L47.8275862,28.6599393 C47.8275862,28.0962473 47.2755523,27.7513015 46.8308583,28.0289408 L34.1724138,36.0047619 Z" id="Shape" fill="#31CB9E" fill-rule="nonzero"></path>
                <path d="M46.3095629,25.1424766 L37.330575,18.1497207 C36.9135182,17.8242822 36.3165545,18.0579303 36.2102459,18.5752941 L32.9310345,34.137931 L46.227787,26.3440957 C46.6693766,26.0854138 46.7102645,25.4595705 46.3095629,25.1424766" id="Shape" fill="#31CB9E" fill-rule="nonzero"></path>
                <path d="M37.3221335,53.8539463 L46.3087589,46.8595866 C46.7094365,46.5424199 46.668551,45.9164331 46.2351651,45.6576919 L32.9310345,37.862069 L36.2100488,53.4282753 C36.308174,53.9457577 36.9132789,54.171113 37.3221335,53.8539463" id="Shape" fill="#31CB9E" fill-rule="nonzero"></path>
                <path d="M30.5397805,36.0039624 L34.1548584,20.0750805 C34.2971184,19.44902 33.5439772,18.9973054 33.0084101,19.3856214 L23.7531412,26.0741669 C23.2761518,26.414934 23,26.9538215 23,27.5164835 L23,44.4835165 C23,45.0461785 23.2761518,45.585066 23.7531412,45.9258331 L33.0084101,52.6143786 C33.5439772,53.0026946 34.2971184,52.55098 34.1548584,51.9249195 L30.5397805,36.0039624 Z" id="Shape" fill="#31CB9E" fill-rule="nonzero"></path>
            </g>
        </g>
    </g>
</svg>