<?xml version="1.0" encoding="UTF-8"?>
<svg width="21px" height="30px" viewBox="0 0 21 30" version="1.1" xmlns="http://www.w3.org/2000/svg" xmlns:xlink="http://www.w3.org/1999/xlink">
    <!-- Generator: Sketch 50.2 (55047) - http://www.bohemiancoding.com/sketch -->
    <title>Fill 1</title>
    <desc>Created with Sketch.</desc>
    <defs></defs>
    <g id="Home-Swap-" stroke="none" stroke-width="1" fill="none" fill-rule="evenodd">
        <g id="Swap---After-click-Accept" transform="translate(-786.000000, -396.000000)" fill="#EF8102">
            <g id="Page-1" transform="translate(786.000000, 396.000000)">
                <path d="M13.8939265,9.18622059 C14.2305441,7.07695588 14.2371618,5.06607353 12.2320147,4.25651471 C11.0721618,3.78842647 9.31495588,3.90225 8.18157353,4.46739706 C6.34098529,5.38416176 6.56069118,7.31695588 6.86819118,9.18622059 L13.8939265,9.18622059 Z M4.06716176,12.9887206 C4.06716176,16.0637206 4.03760294,18.9150441 4.09892647,21.7646029 C4.10775,22.1771029 4.44966176,22.7713676 4.80613235,22.9588676 C7.88289706,24.5740147 10.9574559,26.5879853 14.4065735,23.7115147 C14.7334853,23.4393088 15.22275,23.3687206 15.5783382,23.1212206 C15.9714265,22.84725 16.5970147,22.4854853 16.6058382,22.1484265 C16.6856912,19.1043088 16.6526029,16.0579853 16.6526029,12.9887206 L4.06716176,12.9887206 Z M0.00922058824,9.39225 C1.11833824,9.30754412 1.97466176,9.24269118 2.79613235,9.18004412 C4.09275,1.97960294 6.15436765,-0.281426471 11.0470147,0.0273970588 C15.2576029,0.292985294 17.3681912,3.07813235 17.8084853,9.12357353 C18.6886324,9.21357353 19.6036324,9.30666176 20.7603971,9.42533824 C20.7603971,14.4750441 20.7926029,19.5273971 20.7048088,24.5779853 C20.6973088,25.0151912 19.9746618,25.5887206 19.4584853,25.8441618 C16.8295147,27.1438676 14.1820147,28.4131324 11.4868676,29.5654853 C10.8520147,29.83725 9.90745588,29.8496029 9.27569118,29.5813676 C6.57833824,28.4334265 3.91760294,27.1901912 1.31069118,25.8503382 C0.735838235,25.5556324 0.0784852941,24.7319559 0.0656911765,24.1394559 C-0.0340147059,19.2988676 0.00922058824,14.4551912 0.00922058824,9.39225 Z" id="Fill-1"></path>
            </g>
        </g>
    </g>
</svg>