<?xml version="1.0" encoding="UTF-8"?>
<svg width="28px" height="28px" viewBox="0 0 28 28" version="1.1" xmlns="http://www.w3.org/2000/svg" xmlns:xlink="http://www.w3.org/1999/xlink">
    <!-- Generator: Sketch 50.2 (55047) - http://www.bohemiancoding.com/sketch -->
    <title>AE</title>
    <desc>Created with Sketch.</desc>
    <defs></defs>
    <g id="Wallet" stroke="none" stroke-width="1" fill="none" fill-rule="evenodd">
        <g id="Desktop" transform="translate(-523.000000, -297.000000)">
            <g id="Stacked-Group-3" transform="translate(74.000000, 297.000000)">
                <g id="AE" transform="translate(449.000000, 0.000000)">
                    <circle id="Oval-2" fill="#DE3F6B" cx="14" cy="14" r="14"></circle>
                    <g id="aeternity" stroke-width="1" transform="translate(4.500000, 9.500000)" fill="#FFFFFF">
                        <path d="M4.15258525,0 L4.94272994,0 C6.17697056,0.120638298 7.3189315,0.739148936 8.16482849,1.62957447 C9.92006476,3.46404255 10.8851563,6.05297872 13.1190934,7.41829787 C14.7339877,8.40638298 16.9929171,7.59829787 17.7869068,5.93042553 C18.1906304,5.92276596 18.5962764,5.92276596 19,5.92468085 C18.4443995,7.6193617 16.8256602,8.83723404 15.055044,9 L14.4033188,9 C13.3132652,8.91 12.2539715,8.49255319 11.4292219,7.7706383 C10.2315087,6.75957447 9.46251138,5.37319149 8.53202469,4.13808511 C7.73226753,3.04659574 6.91520793,1.81914894 5.59061014,1.32319149 C3.95456845,0.712340426 1.95517555,1.66787234 1.35920267,3.29170213 C0.834362036,4.62829787 1.26115552,6.28659574 2.43387635,7.14255319 C3.31245573,7.82042553 4.53708388,8.07319149 5.59253263,7.6787234 C6.76525347,7.25744681 7.63614287,6.3 8.303248,5.28510638 C8.56662957,5.66042553 8.82232116,6.04148936 9.07609026,6.42446809 C8.03794394,7.72659574 6.59799656,8.84489362 4.88505515,9 L4.18334514,9 C2.02438531,8.8506383 0.148031974,7.02382979 0,4.86574468 L0,4.15914894 C0.140342001,2.00489362 1.99170292,0.157021277 4.15258525,0" id="Shape" fill-rule="nonzero"></path>
                        <path d="M14.1585547,0 L14.8108395,0 C16.9781084,0.134201774 18.8221041,1.89877374 19,3.94263049 L19,4.99085515 C17.2114772,5.00717699 15.4210414,4.99629577 13.6325186,4.9981093 C13.6344315,4.69162147 13.6344315,4.38694717 13.6325186,4.08045934 C15.0461211,4.07683226 16.4578108,4.08589995 17.8695005,4.07683226 C17.7700319,3.53458455 17.6399575,2.97964209 17.3013815,2.5208171 C16.4750266,1.32388236 14.7285866,0.834227242 13.3321998,1.35289896 C12.218916,1.74462306 11.381084,2.60242629 10.7345377,3.51826272 C10.4858661,3.17913121 10.2391073,2.83637262 10,2.48998696 C11.0195537,1.2386461 12.4427205,0.155964224 14.1585547,0" id="Shape" fill-rule="nonzero"></path>
                    </g>
                </g>
            </g>
        </g>
    </g>
</svg>