<?xml version="1.0" encoding="UTF-8"?>
<svg width="28px" height="28px" viewBox="0 0 28 28" version="1.1" xmlns="http://www.w3.org/2000/svg" xmlns:xlink="http://www.w3.org/1999/xlink">
    <!-- Generator: Sketch 50.2 (55047) - http://www.bohemiancoding.com/sketch -->
    <title>aelf</title>
    <desc>Created with Sketch.</desc>
    <defs></defs>
    <g id="IOS?-(for-Mike-Le)" stroke="none" stroke-width="1" fill="none" fill-rule="evenodd">
        <g id="Artboard-2-Copy" transform="translate(-283.000000, -73.000000)">
            <g id="aelf" transform="translate(283.000000, 73.000000)">
                <g id="round-border" fill="#FFFFFF" stroke="#2B60BF">
                    <circle id="Path" cx="14" cy="14" r="13.5"></circle>
                </g>
                <g transform="translate(5.000000, 5.000000)" fill="#2B60BF" fill-rule="nonzero" id="Group">
                    <g transform="translate(9.500000, 9.500000) scale(-1, 1) rotate(-180.000000) translate(-9.500000, -9.500000) ">
                        <path d="M9.18943839,18.7913851 C8.69572506,18.5346284 8.02682313,17.5717905 8.02682313,17.1064189 C8.02682313,16.5287162 8.55238894,15.6300676 9.07795474,15.3572635 C9.82648785,14.9721284 10.8298407,15.1486486 11.4031852,15.8065878 C12.7409891,17.2989865 10.9731769,19.7060811 9.18943839,18.7913851 Z" id="Shape"></path>
                        <path d="M1.5766974,16.7212838 C0.445934619,16.1275338 0,15.3893581 0,14.1216216 C0,13.2069257 0.159262364,12.7576014 0.716680637,12.1317568 C1.67225482,11.0726351 3.05783738,10.9282095 4.58675608,11.7466216 C5.30343671,12.1317568 5.78122381,12.2761824 6.40234702,12.2761824 C7.19865884,12.2761824 7.27829003,12.2280405 8.15423303,11.3293919 C8.91869237,10.5430743 9.14165968,10.3986486 9.57166806,10.4467905 C10.24057,10.5109797 10.7502096,11.2010135 10.6068734,11.8268581 C10.4316848,12.4847973 9.73093043,12.8057432 8.95054484,12.5810811 C7.94719195,12.308277 7.08717519,12.5329392 6.51383068,13.2550676 C6.24308466,13.5920608 5.89270746,14.2018581 5.7334451,14.6190878 C5.14417435,16.2238176 4.2045264,16.9940878 2.8030176,16.9780405 C2.40486169,16.9780405 1.86336966,16.8657095 1.5766974,16.7212838 Z" id="Shape"></path>
                        <path d="M13.4576697,13.1266892 C12.6135792,12.7576014 11.6420788,11.6663851 11.3713328,10.847973 C11.2439229,10.4949324 11.1961442,9.74070946 11.2279966,9.13091216 C11.3076278,7.81503378 11.8968986,6.88429054 13.1072925,6.11402027 C13.8080469,5.68074324 14.0947192,5.61655405 15.0343671,5.61655405 C18.3151718,5.63260135 20.0989103,9.09881757 18.2196144,11.8429054 C17.248114,13.2711149 15.0502934,13.8648649 13.4576697,13.1266892 Z" id="Shape"></path>
                        <path d="M8.75943001,8.60135135 C8.61609388,8.44087838 8.31349539,8.05574324 8.05867561,7.7347973 C7.81978206,7.42989865 7.37384744,7.06081081 7.08717519,6.94847973 C6.49790444,6.69172297 5.9086337,6.80405405 3.96563286,7.52618243 C2.42078793,8.10388514 1.16261526,7.65456081 0.366303437,6.27449324 C-0.668901928,4.42905405 0.716680637,1.98986486 2.81894384,1.98986486 C4.26823135,1.98986486 5.25565801,2.79222973 5.76529757,4.38091216 C6.37049455,6.24239865 7.1349539,6.80405405 8.75943001,6.64358108 C10.0494552,6.5152027 10.5272422,6.78800676 10.5272422,7.63851351 C10.5272422,8.68158784 9.38055323,9.30743243 8.75943001,8.60135135 Z" id="Shape"></path>
                        <path d="M8.99832355,3.59459459 C8.55238894,3.33783784 8.0108969,2.42314189 8.02682313,1.87753378 C8.02682313,1.34797297 8.66387259,0.481418919 9.26906957,0.192567568 C10.511316,-0.401182432 11.8650461,0.561655405 11.8650461,2.05405405 C11.8650461,2.96875 11.0050293,3.85135135 10.0813076,3.83530405 C9.73093043,3.83530405 9.2372171,3.72297297 8.99832355,3.59459459 Z" id="Shape"></path>
                    </g>
                </g>
            </g>
        </g>
    </g>
</svg>