<?xml version="1.0" encoding="UTF-8"?>
<svg width="28px" height="28px" viewBox="0 0 28 28" version="1.1" xmlns="http://www.w3.org/2000/svg" xmlns:xlink="http://www.w3.org/1999/xlink">
    <!-- Generator: Sketch 50.2 (55047) - http://www.bohemiancoding.com/sketch -->
    <title>aion</title>
    <desc>Created with Sketch.</desc>
    <defs></defs>
    <g id="Wallet" stroke="none" stroke-width="1" fill="none" fill-rule="evenodd">
        <g id="Desktop" transform="translate(-423.000000, -297.000000)">
            <g id="Stacked-Group-3" transform="translate(74.000000, 297.000000)">
                <g id="aion" transform="translate(349.000000, 0.000000)">
                    <g id="AION">
                        <rect id="Rectangle" x="0.965517241" y="0.965517241" width="27.0344828" height="27.0344828"></rect>
                        <circle id="Oval-2" fill="#FFFFFF" cx="14" cy="14" r="13.0344828"></circle>
                        <g id="aion" transform="translate(0.482759, 0.719903)" fill-rule="nonzero">
                            <path d="M20.0482033,9.55218391 C22.0544465,13.009752 20.802323,17.3162976 17.2024682,19.4079129 C13.6026134,21.4995281 9.23441016,20.4466062 7.24239564,16.9890381 C5.25038113,13.5314701 6.48353297,9.25338173 10.0976165,7.16650938 C13.7116999,5.07963702 18.046703,6.09461585 20.0482033,9.55218391 Z M9.29606776,15.7843436 C10.7015139,18.1626468 13.7649404,18.9576536 16.1495463,17.562928 C18.4836824,16.1583942 19.246785,13.1333592 17.858173,10.789716 C16.4695611,8.44607288 13.4497908,7.66239548 11.0967492,9.03502128 C8.74370759,10.4076471 7.93949173,13.4220126 9.29606776,15.7843436 Z" id="Shape" fill="#4221CC"></path>
                            <path d="M26.3799637,16.2396612 C25.2075616,21.2466307 21.2498911,25.1266998 16.2206897,26.1997338 L15.7464005,23.91366 C19.8830487,23.0313532 23.1406928,19.8438851 24.1128615,15.7274289 C24.1413188,15.6041137 24.1697762,15.4760557 24.1934906,15.3527405 L26.4890502,15.8270296 C26.4511071,15.9535068 26.4147449,16.0910506 26.3799637,16.2396612 Z" id="Shape" fill="#4221CC"></path>
                            <path d="M26.716709,12.7773503 L24.3784634,12.8579794 C24.2697737,9.6473227 22.7471663,6.64898405 20.2189474,4.66700544 L21.6418149,2.83150635 C24.7204042,5.2336806 26.5783534,8.87491368 26.716709,12.7773503 Z" id="Shape" fill="#4221CC"></path>
                            <path d="M10.0122444,2.91213551 C6.43641882,4.11232274 3.7418115,7.08537281 2.89790684,10.7616213 L0.621318814,10.2304174 C1.65221274,5.77250248 4.9243797,2.16988617 9.26286751,0.716176649 L10.0122444,2.91213551 Z" id="Shape" fill="#4221CC"></path>
                            <path d="M12.2176891,26.4084211 C11.6350294,26.3515656 11.0567329,26.2565032 10.4865336,26.1238475 C4.88103152,24.8305188 0.760308413,20.0533973 0.30354507,14.3187901 L2.6323049,14.1290744 C3.00808629,18.8509092 6.40183814,22.7840526 11.0177374,23.8472595 C11.4863744,23.9571187 11.9616698,24.0363346 12.440605,24.0844041 L12.2176891,26.4084211 Z" id="Shape" fill="#5AF0BD"></path>
                            <path d="M18.6680218,1.05766485 L17.7573866,3.21093769 C16.3963925,2.63533616 14.9332893,2.34013452 13.4555838,2.34298851 L13.4555838,-1.07823849e-06 C15.2464259,-0.000719820786 17.0190979,0.358976136 18.6680218,1.05766485 Z" id="Shape" fill="#5AF0BD"></path>
                        </g>
                    </g>
                </g>
            </g>
        </g>
    </g>
</svg>