<?xml version="1.0" encoding="UTF-8"?>
<svg width="28px" height="28px" viewBox="0 0 28 28" version="1.1" xmlns="http://www.w3.org/2000/svg" xmlns:xlink="http://www.w3.org/1999/xlink">
    <!-- Generator: Sketch 50.2 (55047) - http://www.bohemiancoding.com/sketch -->
    <title>appc</title>
    <desc>Created with Sketch.</desc>
    <defs>
        <linearGradient x1="20.8273455%" y1="18.404845%" x2="88.6676247%" y2="91.8805173%" id="linearGradient-1">
            <stop stop-color="#FC8F55" offset="0%"></stop>
            <stop stop-color="#FE7A6A" offset="44%"></stop>
            <stop stop-color="#FE687C" offset="100%"></stop>
        </linearGradient>
    </defs>
    <g id="IOS?-(for-Mike-Le)" stroke="none" stroke-width="1" fill="none" fill-rule="evenodd">
        <g id="Artboard-2-Copy" transform="translate(-99.000000, -201.000000)" fill-rule="nonzero">
            <g id="appc" transform="translate(99.000000, 201.000000)">
                <circle id="Oval" fill="url(#linearGradient-1)" cx="13.9171429" cy="13.9171429" r="13.9171429"></circle>
                <path d="M12.1085714,15.4057143 L13.96,9.77142857 L15.8457143,15.4057143 L12.1085714,15.4057143 Z M19.9571429,18.9685714 L18.4257143,14.7628571 L19.34,14.7628571 C19.7043194,14.7597331 19.9984497,14.4643295 20,14.1 C20,13.9332925 19.9337757,13.7734129 19.8158957,13.6555329 C19.6980157,13.5376529 19.5381361,13.4714286 19.3714286,13.4714286 L17.9428571,13.4714286 L17.7142857,12.8171429 L19.34,12.8171429 C19.6963393,12.8172641 19.9878471,12.5333609 19.9971429,12.1771429 C19.9979066,12.001867 19.9286164,11.8335493 19.8046764,11.7096093 C19.6807365,11.5856694 19.5124188,11.5163791 19.3371429,11.5171429 L17.2257143,11.5171429 L16.0828571,8.37428571 C15.912114,7.92525385 15.6299287,7.52704818 15.2628571,7.21714286 C14.9002093,6.91889961 14.4405976,6.76433992 13.9714286,6.78285714 C13.5010359,6.76790976 13.0408529,6.92197982 12.6742857,7.21714286 C12.3070006,7.52747194 12.0239754,7.92547609 11.8514286,8.37428571 L10.6542857,11.5457143 L8.55428571,11.5457143 C8.20509214,11.5457107 7.92157294,11.8279528 7.92,12.1771429 C7.92,12.5400728 8.21421288,12.8342857 8.57714286,12.8342857 L10.1714286,12.8342857 L9.92571429,13.4714286 L8.49714286,13.4714286 C8.14683653,13.4714286 7.86285714,13.755408 7.86285714,14.1057143 C7.86285369,14.4643755 8.15277079,14.7555698 8.51142857,14.7571429 L9.42857143,14.7571429 L7.87142857,18.9685714 C7.77572582,19.2060053 7.72253439,19.4584228 7.71428571,19.7142857 C7.73051939,20.0731879 7.88636509,20.4115371 8.14857143,20.6571429 C8.43710535,20.9070543 8.80686808,21.0431757 9.18857143,21.04 C9.8493649,21.0762167 10.4452601,20.6447886 10.6171429,20.0057143 L11.22,18.2085714 L16.7657143,18.2085714 L17.3685714,20.0485714 C17.5627832,20.6652078 18.1518255,21.0704689 18.7971429,21.0314286 C19.0372495,21.036239 19.274187,20.9760174 19.4828571,20.8571429 C19.6638677,20.7227952 19.8245677,20.5630575 19.96,20.3828571 C20.0780079,20.1800763 20.1382795,19.9488705 20.1342857,19.7142857 C20.0964509,19.4648877 20.0371838,19.219216 19.9571429,18.98 L19.9571429,18.9685714 Z" id="Shape" fill="#FEFEFE"></path>
            </g>
        </g>
    </g>
</svg>