
<svg width="29px" height="29px" viewBox="0 0 29 29" version="1.1" xmlns="http://www.w3.org/2000/svg" xmlns:xlink="http://www.w3.org/1999/xlink">
    <!-- Generator: Sketch 48.2 (47327) - http://www.bohemiancoding.com/sketch -->
    <desc>Created with Sketch.</desc>
    <defs>
        <linearGradient x1="20.8273455%" y1="18.404845%" x2="88.6676247%" y2="91.8805173%" id="linearGradient-1">
            <stop stop-color="#FC8F55" offset="0%"></stop>
            <stop stop-color="#FE7A6A" offset="44%"></stop>
            <stop stop-color="#FE687C" offset="100%"></stop>
        </linearGradient>
    </defs>
    <g id="Page-1" stroke="none" stroke-width="1" fill="none" fill-rule="evenodd">
        <g id="appc" fill-rule="nonzero">
            <circle id="Oval" fill="url(#linearGradient-1)" cx="14.4141837" cy="14.4141837" r="14.4141837"></circle>
            <path d="M12.5512245,15.9323599 L14.4687755,10.0968497 L16.4218368,15.9323599 L12.5512245,15.9323599 Z M20.6801021,19.6224619 L19.0939796,15.2665436 L20.0409184,15.2665436 C20.4182492,15.263308 20.7228841,14.9573543 20.7244898,14.580013 C20.7244898,14.4073517 20.6559003,14.2417621 20.5338103,14.1196721 C20.4117203,13.9975821 20.2461308,13.9289926 20.0734694,13.9289926 L18.5938775,13.9289926 L18.3571428,13.2513396 L20.0409184,13.2513396 C20.4099841,13.2514651 20.7119029,12.9574225 20.7215307,12.5884824 C20.7223216,12.4069467 20.6505568,12.2326176 20.5221904,12.1042512 C20.393824,11.9758849 20.219495,11.9041199 20.0379592,11.904911 L17.8511225,11.904911 L16.6674489,8.64980891 C16.4906079,8.1847402 16.1983445,7.7723129 15.8181632,7.45133953 C15.4425637,7.14244473 14.9665373,6.98236505 14.4806123,7.0015436 C13.9934198,6.98606239 13.5168017,7.14563495 13.1371428,7.45133953 C12.7567404,7.77275179 12.4636072,8.18497037 12.284898,8.64980891 L11.045,11.9345028 L8.87,11.9345028 C8.50833523,11.9344991 8.21469035,12.2268213 8.21306123,12.5884824 C8.21306123,12.9643741 8.51778171,13.2690946 8.89367348,13.2690946 L10.544898,13.2690946 L10.2904082,13.9289926 L8.81081633,13.9289926 C8.44799906,13.9289926 8.15387755,14.2231141 8.15387755,14.5859314 C8.15387398,14.9574019 8.45414526,15.258996 8.82561225,15.2606253 L9.77551021,15.2606253 L8.1627551,19.6224619 C8.0636344,19.8683756 8.00854328,20.129808 8,20.3948089 C8.01681345,20.766529 8.17822507,21.1169621 8.44979592,21.3713396 C8.74863463,21.6301764 9.13160317,21.7711593 9.52693878,21.7678701 C10.211332,21.8053803 10.8285092,21.358544 11.0065307,20.6966457 L11.6309184,18.8353191 L17.3746939,18.8353191 L17.9990816,20.7410334 C18.2002295,21.3796925 18.8103091,21.7994272 19.4786735,21.7589926 C19.7273554,21.7639748 19.9727549,21.7016024 20.1888775,21.5784824 C20.3763528,21.4393366 20.5427921,21.273894 20.6830612,21.0872578 C20.8052837,20.8772349 20.8677079,20.6377717 20.8635714,20.3948089 C20.8243854,20.1365038 20.7630016,19.8820581 20.6801021,19.6342987 L20.6801021,19.6224619 Z" id="Shape" fill="#FEFEFE"></path>
        </g>
    </g>
</svg>