<?xml version="1.0" encoding="UTF-8"?>
<svg width="28px" height="28px" viewBox="0 0 28 28" version="1.1" xmlns="http://www.w3.org/2000/svg" xmlns:xlink="http://www.w3.org/1999/xlink">
    <!-- Generator: Sketch 50.2 (55047) - http://www.bohemiancoding.com/sketch -->
    <title>ast</title>
    <desc>Created with Sketch.</desc>
    <defs>
        <linearGradient x1="0%" y1="50%" x2="100%" y2="50%" id="linearGradient-1">
            <stop stop-color="#0025FF" offset="0%"></stop>
            <stop stop-color="#00A4FF" offset="100%"></stop>
        </linearGradient>
    </defs>
    <g id="IOS?-(for-Mike-Le)" stroke="none" stroke-width="1" fill="none" fill-rule="evenodd">
        <g id="Artboard-2-Copy" transform="translate(-215.000000, -128.000000)">
            <g id="ast" transform="translate(215.000000, 128.000000)">
                <circle id="Oval" stroke="#0086FF" fill="#FFFFFF" cx="14" cy="14" r="13.5"></circle>
                <path d="M14.0083826,5.5 L6.43047337,13.1548798 L5.5,14.0968883 L5.82692308,14.3854314 C5.90236686,14.4533239 5.97781065,14.5212164 6.06163708,14.5891089 C6.32149901,14.8097595 6.59812623,15.0219236 6.87475345,15.2256011 C7.92258383,15.9724187 9.07938856,16.549505 10.3032544,16.9314003 C11.5019724,17.3132956 12.7509862,17.5 14.0083826,17.5 C15.0059172,17.5 15.995069,17.3811881 16.959073,17.1435644 C18.3505917,16.8041018 19.6666667,16.218529 20.8653846,15.4123055 C21.1587771,15.2171146 21.4521696,14.9964639 21.7287968,14.7758133 C21.8880671,14.6485149 22.0389546,14.5212164 22.1814596,14.3854314 L22.5,14.0968883 L14.0083826,5.5 Z M21.4354043,14.3769448 C21.1671598,14.5975955 20.8905325,14.801273 20.6055227,14.9879774 C19.4571006,15.7602546 18.1913215,16.3203678 16.8500986,16.6513437 C15.9196252,16.8804809 14.9640039,16.9992928 14.0083826,16.9992928 C11.5522682,17.0077793 9.15483235,16.2439887 7.15138067,14.8097595 C6.88313609,14.6230552 6.62327416,14.4108911 6.36341223,14.198727 L6.20414201,14.062942 L14,6.1874116 L21.795858,14.062942 C21.6868836,14.1732673 21.561144,14.2751061 21.4354043,14.3769448 Z" id="Shape" fill="url(#linearGradient-1)" fill-rule="nonzero"></path>
                <path d="M8.85407725,13.5076336 L8.5,13.6526718 L8.93276109,13.6526718 C11.2932761,13.6526718 13.6144492,14.2862595 15.6287554,15.4847328 L15.6523605,15.5 L15.683834,15.4923664 C16.9978541,15.2633588 18.2567954,14.7900763 19.3898426,14.0954198 L19.5,14.0267176 L19.3898426,13.9656489 C17.6824034,13.0038168 15.7310443,12.5 13.7482117,12.5 C12.0643777,12.5076336 10.3962804,12.851145 8.85407725,13.5076336 Z M15.7467811,15.0343511 C14.2203147,14.1412214 12.5128755,13.5610687 10.7424893,13.3320611 C11.7181688,13.0725191 12.7253219,12.9427481 13.7403433,12.9427481 C15.4241774,12.9427481 17.0765379,13.3167939 18.5793991,14.0496183 C17.6981402,14.5229008 16.7460658,14.851145 15.7467811,15.0343511 Z" id="Shape" fill="url(#linearGradient-1)" fill-rule="nonzero"></path>
                <path d="M18.5,17.5 C18.5,17.5 17.316,18.2628524 16.868,18.486733 C15.38,19.3573798 13.716,19.8631841 12.012,19.9709784 L11.5,20.0041459 L13.916,22.5 L17.348,18.9510779 C17.756,18.486733 18.14,17.9975124 18.5,17.5 Z M12.54,20.4021559 C13.86,20.261194 15.148,19.8963516 16.348,19.3076285 L13.916,21.8283582 L12.54,20.4021559 Z" id="Shape" fill="url(#linearGradient-1)" fill-rule="nonzero"></path>
            </g>
        </g>
    </g>
</svg>