<?xml version="1.0" encoding="UTF-8"?>
<svg width="28px" height="28px" viewBox="0 0 28 28" version="1.1" xmlns="http://www.w3.org/2000/svg" xmlns:xlink="http://www.w3.org/1999/xlink">
    <!-- Generator: Sketch 49.1 (51147) - http://www.bohemiancoding.com/sketch -->
    <title>ast</title>
    <desc>Created with Sketch.</desc>
    <defs>
        <circle id="path-1" cx="14" cy="14" r="14"></circle>
        <linearGradient x1="0%" y1="50%" x2="100%" y2="50%" id="linearGradient-2">
            <stop stop-color="#0025FF" offset="0%"></stop>
            <stop stop-color="#00A4FF" offset="100%"></stop>
        </linearGradient>
    </defs>
    <g id="Wallet" stroke="none" stroke-width="1" fill="none" fill-rule="evenodd">
        <g id="AST">
            <g id="Oval">
                <use fill="#FFFFFF" fill-rule="evenodd" xlink:href="#path-1"></use>
                <circle stroke="#0086FF" stroke-width="1" cx="14" cy="14" r="13.5"></circle>
            </g>
            <g id="airswap" stroke-width="1" fill-rule="evenodd" transform="translate(5.500000, 5.500000)" fill="url(#linearGradient-2)">
                <path d="M8.50838264,0 L0.930473373,7.65487977 L0,8.59688826 L0.326923077,8.8854314 C0.402366864,8.9533239 0.477810651,9.02121641 0.561637081,9.08910891 C0.821499014,9.30975955 1.09812623,9.52192362 1.37475345,9.72560113 C2.42258383,10.4724187 3.57938856,11.049505 4.80325444,11.4314003 C6.00197239,11.8132956 7.25098619,12 8.50838264,12 C9.50591716,12 10.495069,11.8811881 11.459073,11.6435644 C12.8505917,11.3041018 14.1666667,10.718529 15.3653846,9.91230552 C15.6587771,9.71711457 15.9521696,9.49646393 16.2287968,9.2758133 C16.3880671,9.14851485 16.5389546,9.02121641 16.6814596,8.8854314 L17,8.59688826 L8.50838264,0 Z M15.9354043,8.87694484 C15.6671598,9.09759547 15.3905325,9.30127298 15.1055227,9.48797737 C13.9571006,10.2602546 12.6913215,10.8203678 11.3500986,11.1513437 C10.4196252,11.3804809 9.46400394,11.4992928 8.50838264,11.4992928 C6.05226824,11.5077793 3.65483235,10.7439887 1.65138067,9.30975955 C1.38313609,9.12305516 1.12327416,8.91089109 0.863412229,8.69872702 L0.704142012,8.56294201 L8.5,0.687411598 L16.295858,8.56294201 C16.1868836,8.67326733 16.061144,8.77510608 15.9354043,8.87694484 Z" id="Shape" fill-rule="nonzero"></path>
                <path d="M3.35407725,8.00763359 L3,8.15267176 L3.43276109,8.15267176 C5.79327611,8.15267176 8.11444921,8.78625954 10.1287554,9.98473282 L10.1523605,10 L10.183834,9.99236641 C11.4978541,9.76335878 12.7567954,9.29007634 13.8898426,8.59541985 L14,8.52671756 L13.8898426,8.46564885 C12.1824034,7.50381679 10.2310443,7 8.24821173,7 C6.56437768,7.00763359 4.8962804,7.35114504 3.35407725,8.00763359 Z M10.2467811,9.53435115 C8.72031474,8.64122137 7.01287554,8.0610687 5.24248927,7.83206107 C6.21816881,7.57251908 7.22532189,7.44274809 8.24034335,7.44274809 C9.9241774,7.44274809 11.5765379,7.81679389 13.0793991,8.54961832 C12.1981402,9.02290076 11.2460658,9.35114504 10.2467811,9.53435115 Z" id="Shape" fill-rule="nonzero"></path>
                <path d="M13,12 C13,12 11.816,12.7628524 11.368,12.986733 C9.88,13.8573798 8.216,14.3631841 6.512,14.4709784 L6,14.5041459 L8.416,17 L11.848,13.4510779 C12.256,12.986733 12.64,12.4975124 13,12 Z M7.04,14.9021559 C8.36,14.761194 9.648,14.3963516 10.848,13.8076285 L8.416,16.3283582 L7.04,14.9021559 Z" id="Shape" fill-rule="nonzero"></path>
            </g>
        </g>
    </g>
</svg>