<?xml version="1.0" encoding="UTF-8"?>
<svg width="28px" height="28px" viewBox="0 0 28 28" version="1.1" xmlns="http://www.w3.org/2000/svg" xmlns:xlink="http://www.w3.org/1999/xlink">
    <!-- Generator: Sketch 49.2 (51160) - http://www.bohemiancoding.com/sketch -->
    <title>bat</title>
    <desc>Created with Sketch.</desc>
    <defs>
        <linearGradient x1="50%" y1="0%" x2="50%" y2="100%" id="linearGradient-1">
            <stop stop-color="#000000" offset="0%"></stop>
            <stop stop-color="#000000" stop-opacity="0" offset="97.8336256%"></stop>
        </linearGradient>
    </defs>
    <g id="Wallet" stroke="none" stroke-width="1" fill="none" fill-rule="evenodd">
        <g id="Desktop" transform="translate(-413.000000, -320.000000)">
            <g id="bat" transform="translate(413.000000, 320.000000)">
                <g id="BAT">
                    <path d="M27.9119463,13.9746746 C27.9119463,21.6682667 21.67519,27.9050229 13.981598,27.9050229 C6.28814527,27.9050229 0.0512497512,21.6682667 0.0512497512,13.9746746 C0.0512497512,6.28108259 6.28814527,0.0443263682 13.981598,0.0443263682 C21.67519,0.0443263682 27.9119463,6.28108259 27.9119463,13.9746746" id="Fill-256" fill="#672893"></path>
                    <path d="M26.6004736,13.9753572 C26.6004736,16.7920736 25.6768915,19.3942627 24.1152995,21.4949592 C21.816792,24.5888896 18.1322149,26.5934667 13.9809711,26.5934667 C13.175797,26.5934667 12.3887323,26.5182428 11.6253493,26.3733672 C5.78156816,25.2700836 1.36286169,20.1381433 1.36286169,13.9753572 C1.36286169,7.00600398 7.01161791,1.35585473 13.9809711,1.35585473 C20.9503244,1.35585473 26.6004736,7.00600398 26.6004736,13.9753572" id="Fill-258" fill="#FFFFFF"></path>
                    <polygon id="Fill-260" fill="#FF4F00" points="14.0096259 11.1185493 10.5476557 17.0367184 10.6355562 17.0367184 5.41822289 19.9914846 5.3626408 19.9914846 14.0096259 5.20873831"></polygon>
                    <polygon id="Fill-262" fill="#672893" points="22.6561652 19.9915264 5.41819502 19.9915264 10.6356677 17.0367602 17.4449612 17.0367602 22.6531005 19.9865114"></polygon>
                    <polygon id="Fill-264" fill="#A01A63" points="17.4450169 17.0367602 17.4710667 17.0367602 14.0096537 11.118591 14.0096537 5.2087801 22.6531562 19.9865114"></polygon>
                    <polygon id="Fill-266" fill="#FFFFFF" points="14.0096259 11.1185493 10.547795 17.0367184 17.4714567 17.0367184"></polygon>
                    <path d="M5.41793035,19.992 L11.6252935,26.3733532 C12.3888159,26.5182289 13.1758806,26.5934527 13.9809154,26.5934527 C18.1322985,26.5934527 21.8167363,24.5888756 24.1152438,21.4950846 L22.6525572,19.992 L5.41793035,19.992 Z" id="Fill-269" fill="url(#linearGradient-1)" opacity="0.100000001"></path>
                </g>
            </g>
        </g>
    </g>
</svg>