<?xml version="1.0" encoding="UTF-8"?>
<svg width="28px" height="28px" viewBox="0 0 28 28" version="1.1" xmlns="http://www.w3.org/2000/svg" xmlns:xlink="http://www.w3.org/1999/xlink">
    <!-- Generator: Sketch 49.3 (51167) - http://www.bohemiancoding.com/sketch -->
    <title>abt</title>
    <desc>Created with Sketch.</desc>
    <defs>
        <linearGradient x1="1.11715201%" y1="50.0016158%" x2="101.132047%" y2="50.0016158%" id="linearGradient-1">
            <stop stop-color="#0CFFAA" offset="0%"></stop>
            <stop stop-color="#23FCC1" offset="14%"></stop>
            <stop stop-color="#38F9D8" offset="31%"></stop>
            <stop stop-color="#48F7E8" offset="50%"></stop>
            <stop stop-color="#51F5F1" offset="71%"></stop>
            <stop stop-color="#54F5F4" offset="100%"></stop>
            <stop stop-color="#FFFFFF" offset="100%"></stop>
        </linearGradient>
    </defs>
    <g id="abt" stroke="none" stroke-width="1" fill="none" fill-rule="evenodd">
        <g>
            <rect id="Rectangle" x="0" y="0" width="28" height="28"></rect>
            <path d="M25.7929557,7.17502263 L13.9762487,0.389190901 L2.18857109,7.21372843 L2.21056303,20.8249774 L14.0237513,27.6108091 L25.8114289,20.7871512 L25.7929557,7.17502263 Z M13.4774716,13.1568292 L11.848309,12.2305288 L13.4774716,9.4604246 L13.4774716,13.1568292 Z M12.9100797,14.0479424 L9.68430251,15.9031821 L11.3090667,13.1445137 L12.9100797,14.0479424 Z M13.4774716,14.938176 L13.4774716,19.5547232 L9.32011605,17.3308986 L13.4774716,14.938176 Z M14.5330845,14.9698444 L18.4960314,17.2209389 L14.5330845,19.5468061 L14.5330845,14.9698444 Z M15.0318616,14.040905 L16.5959281,13.1445137 L17.9840591,15.7228483 L15.0318616,14.040905 Z M14.5295658,13.1128453 L14.5295658,9.30208266 L16.0953916,12.2111759 L14.5295658,13.1128453 Z M14.5295658,7.07737843 L14.5295658,1.93214512 L24.2491218,7.51457812 L17.0102562,11.6842492 L14.5295658,7.07737843 Z M13.4739529,7.37910779 L10.9272867,11.7097598 L3.66906821,7.58583199 L13.4739529,1.91103286 L13.4739529,7.37910779 Z M10.3915632,12.6167072 L7.83346119,16.9693512 L3.27233369,19.5951883 L3.25474014,8.56491297 L10.3915632,12.6167072 Z M8.24251119,17.9510712 L13.4739529,20.7510845 L13.4739529,26.0678549 L3.79750112,20.5100529 L8.24251119,17.9510712 Z M14.5295658,20.7704374 L19.5516443,17.8226383 L24.2253705,20.4775048 L14.5295658,26.0889671 L14.5295658,20.7704374 Z M19.7108659,16.6992902 L17.5116723,12.6131885 L24.731185,8.45583297 L24.7496582,19.566159 L19.7108659,16.6992902 Z" id="Shape" fill="url(#linearGradient-1)" fill-rule="nonzero"></path>
        </g>
    </g>
</svg>