<svg xmlns="http://www.w3.org/2000/svg" viewBox="0 0 28 28"><defs><style>.cls-1{fill:#4dae4a;}.cls-2{fill:#fff;}</style></defs><title>Artboard 1 copySVG 28x28</title><g id="Layer_2" data-name="Layer 2"><circle class="cls-1" cx="14" cy="14" r="14"/></g><g id="Layer_1" data-name="Layer 1"><path id="Layer_5" data-name="Layer 5" class="cls-2" d="M15.89,22.73A5.36,5.36,0,0,0,19.61,19a.52.52,0,0,0-.43-.64.54.54,0,0,0-.59.4,4.28,4.28,0,0,1-3,3,.53.53,0,0,0-.35.58A.51.51,0,0,0,15.89,22.73Z"/><path id="Layer_4" data-name="Layer 4" class="cls-2" d="M14.46,15.84a.53.53,0,0,0,.53-.53V6.4a.54.54,0,0,0-1.07,0v8.91A.54.54,0,0,0,14.46,15.84Z"/><path id="Layer_3" data-name="Layer 3" class="cls-2" d="M8.88,15.84a.53.53,0,0,0,.53-.53V6.4a.54.54,0,0,0-1.07,0v8.91A.54.54,0,0,0,8.88,15.84Z"/><path id="Layer_2-2" data-name="Layer 2" class="cls-2" d="M12.6,15.84a.54.54,0,0,0,.54-.53V4.91a.54.54,0,0,0-1.07,0v10.4A.53.53,0,0,0,12.6,15.84Z"/><path id="Layer_1-2" data-name="Layer 1" class="cls-2" d="M10.74,15.84a.53.53,0,0,0,.53-.53V2.91a.54.54,0,1,0-1.07,0v12.4A.54.54,0,0,0,10.74,15.84Z"/><path id="Layer_6" data-name="Layer 6" class="cls-2" d="M14.47,25.69A8,8,0,0,0,15.73,9.84v1.1a6.9,6.9,0,0,1-1.27,13.68,7,7,0,0,1-6.92-6.95V9.92a.54.54,0,0,0-1.07,0v7.91a8,8,0,0,0,8,7.86Z"/></g></svg>