<?xml version="1.0" encoding="UTF-8"?>
<svg width="28px" height="28px" viewBox="0 0 28 28" version="1.1" xmlns="http://www.w3.org/2000/svg" xmlns:xlink="http://www.w3.org/1999/xlink">
    <!-- Generator: Sketch 50.2 (55047) - http://www.bohemiancoding.com/sketch -->
    <title>blz</title>
    <desc>Created with Sketch.</desc>
    <defs></defs>
    <g id="IOS?-(for-Mike-Le)" stroke="none" stroke-width="1" fill="none" fill-rule="evenodd">
        <g id="Artboard-2-Copy" transform="translate(-98.000000, -173.000000)">
            <g id="blz" transform="translate(98.000000, 173.000000)">
                <circle id="Oval-2" stroke="#5DA9DD" fill="#FFFFFF" cx="14" cy="14" r="13.5"></circle>
                <g id="bluzelle" transform="translate(1.000000, 2.000000)" fill-rule="nonzero">
                    <g id="Group" transform="translate(2.000000, 0.961538)" fill="#FDBA4D">
                        <g id="Ellipse" transform="translate(4.495491, 17.952272) rotate(-45.000000) translate(-4.495491, -17.952272) translate(1.995491, 15.548426)">
                            <path d="M2.1519661,-0.000784414806 C3.32734302,-0.000784414806 4.27809236,0.946381101 4.27809236,2.11732748 C4.27809236,3.28827386 3.32734302,4.23543938 2.1519661,4.23543938 C0.976589172,4.23543938 0.0258398368,3.29347807 0.0258398368,2.12253169 C0.0258398368,0.951585307 0.976589172,-0.000784414806 2.1519661,-0.000784414806 Z" id="path0_fill"></path>
                        </g>
                        <g id="Ellipse_1_" transform="translate(18.848144, 4.063868) rotate(-45.000000) translate(-18.848144, -4.063868) translate(16.348144, 1.660022)">
                            <path d="M2.16339,0.226527076 C3.33876692,0.226527076 4.28951626,1.17369259 4.28951626,2.34463897 C4.28951626,3.51558535 3.33876692,4.46275087 2.16339,4.46275087 C0.988013073,4.46275087 0.0372637381,3.51558535 0.0372637381,2.34463897 C0.0424876355,1.1788968 0.99323697,0.226527076 2.16339,0.226527076 Z" id="path0_fill_1_"></path>
                        </g>
                        <g id="Subtract" transform="translate(7.637369, 15.145391) rotate(-45.000000) translate(-7.637369, -15.145391) translate(6.137369, 13.222314)">
                            <path d="M0.0264010993,0.0514132096 L0.0264010993,3.21036633 L2.93088808,3.21036633 C2.72193218,2.72637516 2.60700644,2.19554614 2.60700644,1.62828767 C2.60700644,1.07143761 2.72193218,0.53540438 2.93088808,0.0462090034 L0.0264010993,0.0514132096 Z" id="path1_fill"></path>
                        </g>
                        <g id="Subtract_1_" transform="translate(15.511848, 7.461810) rotate(-45.000000) translate(-15.511848, -7.461810) translate(14.011848, 5.538733)">
                            <path d="M0.00595993092,3.17394623 L2.91044691,3.17394623 L2.91044691,0.0149931119 L0.00595993092,0.0149931119 C0.214915829,0.498984282 0.329841572,1.02981331 0.329841572,1.59707178 C0.329841572,2.15912604 0.214915829,2.68995506 0.00595993092,3.17394623 Z" id="path2_fill"></path>
                        </g>
                    </g>
                    <g id="Group_1_" transform="translate(2.000000, 0.961538)" fill="#5DA9DD">
                        <g id="Ellipse_2_" transform="translate(18.773389, 17.386686) rotate(45.000000) translate(-18.773389, -17.386686) translate(16.273389, 14.982840)">
                            <path d="M2.16260447,4.09593686 C0.972407351,4.09593686 0.0096701269,3.18138961 0.0096701269,2.050768 C0.0096701269,0.920146395 0.972407351,0.00559914048 2.16260447,0.00559914048 C3.35280158,0.00559914048 4.31553881,0.920146395 4.31553881,2.050768 C4.31553881,3.17636462 3.34751182,4.09593686 2.16260447,4.09593686 Z" id="path0_fill_2_"></path>
                        </g>
                        <g id="Ellipse_3_" transform="translate(4.367022, 3.995910) rotate(45.000000) translate(-4.367022, -3.995910) translate(1.867022, 1.592064)">
                            <path d="M2.18422037,4.13569374 C0.994023258,4.13569374 0.0312860341,3.22114648 0.0312860341,2.09052488 C0.0312860341,0.959903272 0.994023258,0.0453560177 2.18422037,0.0453560177 C3.37441749,0.0453560177 4.33715472,0.959903272 4.33715472,2.09052488 C4.33715472,3.22114648 3.37441749,4.13569374 2.18422037,4.13569374 Z" id="path0_fill_3_"></path>
                        </g>
                        <g id="Subtract_2_" transform="translate(15.086203, 14.267639) rotate(45.000000) translate(-15.086203, -14.267639) translate(13.586203, 12.344562)">
                            <path d="M2.94505605,3.09072829 L2.94505605,0.0405624428 L0.00394673157,0.0405624428 C0.21553733,0.50788604 0.331912159,1.0204345 0.331912159,1.56815786 C0.331912159,2.10583124 0.21553733,2.62340469 0.00394673157,3.09575327 L2.94505605,3.09072829 Z" id="path3_fill"></path>
                        </g>
                        <g id="Subtract_3_" transform="translate(7.448882, 6.813211) rotate(45.000000) translate(-7.448882, -6.813211) translate(5.948882, 4.890134)">
                            <path d="M2.97633376,0.00495219964 L0.0352244375,0.00495219964 L0.0352244375,3.05511804 L2.97633376,3.05511804 C2.76474316,2.58779445 2.64836833,2.07524598 2.64836833,1.52752263 C2.64836833,0.989849243 2.76474316,0.472275797 2.97633376,0.00495219964 Z" id="path4_fill"></path>
                        </g>
                    </g>
                    <g id="Group_2_" transform="translate(11.000000, 0.000000)" fill="#18568C">
                        <g id="Ellipse_4_" transform="translate(0.004029, 0.000000)">
                            <path d="M4.85247342,2.06610082 C4.85247342,3.20829414 3.774146,4.13220163 2.4410489,4.13220163 C1.10795181,4.13220163 0.0296243799,3.20829414 0.0296243799,2.06610082 C0.0296243799,0.92390749 1.10795181,0 2.4410489,0 C3.774146,0 4.85247342,0.92390749 4.85247342,2.06610082 Z" id="path0_fill_4_"></path>
                        </g>
                        <g id="Ellipse_5_" transform="translate(0.004029, 19.703393)">
                            <path d="M4.85247342,2.0965593 C4.85247342,3.23875263 3.774146,4.16266012 2.4410489,4.16266012 C1.10795181,4.16266012 0.0296243799,3.23875263 0.0296243799,2.0965593 C0.0296243799,0.954365979 1.10795181,0.0304584887 2.4410489,0.0304584887 C3.774146,0.0304584887 4.85247342,0.954365979 4.85247342,2.0965593 Z" id="path0_fill_5_"></path>
                        </g>
                        <g id="Subtract_4_" transform="translate(1.781966, 5.173019)">
                            <path d="M1.54046775,0.0406113182 L0.0236995039,0.0406113182 L0.0236995039,2.59912437 C0.272544295,2.56358946 0.521389086,2.5432838 0.782083629,2.5432838 C1.04277817,2.5432838 1.29162296,2.56358946 1.54046775,2.59912437 L1.54046775,0.0406113182 Z" id="path5_fill"></path>
                        </g>
                        <g id="Subtract_5_" transform="translate(1.781966, 16.166604)">
                            <path d="M1.54046775,0.0406113182 C1.29162296,0.0761462217 1.04277817,0.0964518808 0.782083629,0.0964518808 C0.521389086,0.0964518808 0.272544295,0.0761462217 0.0236995039,0.0406113182 L0.0236995039,2.59912437 L1.54046775,2.59912437 L1.54046775,0.0406113182 Z" id="path6_fill"></path>
                        </g>
                    </g>
                    <g id="Group_3_" transform="translate(0.000000, 8.653846)" fill="#18578C">
                        <g id="Ellipse_6_" transform="translate(22.415075, 2.454787) rotate(90.000000) translate(-22.415075, -2.454787) translate(19.915075, 0.050941)">
                            <path d="M4.31390977,2.11538462 C4.31390977,3.28482328 3.35173872,4.23076923 2.16224154,4.23076923 C0.972744361,4.23076923 0.0105733083,3.28482328 0.0105733083,2.11538462 C0.0105733083,0.945945946 0.972744361,0 2.16224154,0 C3.35173872,0 4.31390977,0.945945946 4.31390977,2.11538462 Z" id="path0_fill_6_"></path>
                        </g>
                        <g id="Ellipse_7_" transform="translate(2.688666, 2.818613) rotate(90.000000) translate(-2.688666, -2.818613) translate(0.188666, 0.414767)">
                            <path d="M4.30862312,2.14137214 C4.30862312,3.31081081 3.34645207,4.25675676 2.15695489,4.25675676 C0.967457707,4.25675676 0.00528665414,3.31081081 0.00528665414,2.14137214 C0.00528665414,0.971933472 0.967457707,0.025987526 2.15695489,0.025987526 C3.34645207,0.025987526 4.30862312,0.971933472 4.30862312,2.14137214 Z" id="path0_fill_7_"></path>
                        </g>
                        <g id="Subtract_6_" transform="translate(18.485666, 2.799782) rotate(90.000000) translate(-18.485666, -2.799782) translate(17.485666, 1.357475)">
                            <path d="M1.35338346,2.66632017 L1.35338346,0.0467775468 L0,0.0467775468 L0,2.66632017 C0.222039474,2.62993763 0.444078947,2.60914761 0.676691729,2.60914761 C0.909304511,2.60914761 1.13134398,2.62993763 1.35338346,2.66632017 Z" id="path7_fill"></path>
                        </g>
                        <g id="Subtract_7_" transform="translate(7.512281, 2.799730) rotate(90.000000) translate(-7.512281, -2.799730) translate(6.512281, 1.357423)">
                            <path d="M1.35338346,0.0155925156 C1.13134398,0.051975052 0.909304511,0.0727650728 0.676691729,0.0727650728 C0.444078947,0.0727650728 0.222039474,0.051975052 -2.84217094e-14,0.0155925156 L-2.84217094e-14,2.63513514 L1.35338346,2.63513514 L1.35338346,0.0155925156 Z" id="path8_fill"></path>
                        </g>
                    </g>
                    <g id="Ellipse_8_" transform="translate(10.000000, 8.653846)" fill="#18568B">
                        <path d="M5.99482759,2.88461538 C5.99482759,4.46618037 4.66034483,5.75431034 3.01034483,5.75431034 C1.36034483,5.75431034 0.025862069,4.47115385 0.025862069,2.88461538 C0.025862069,1.29807692 1.36034483,0.0149204244 3.01034483,0.0149204244 C4.66034483,0.0149204244 5.99482759,1.3030504 5.99482759,2.88461538 Z" id="path9_fill"></path>
                    </g>
                </g>
            </g>
        </g>
    </g>
</svg>