<?xml version="1.0" encoding="UTF-8"?>
<svg width="28px" height="28px" viewBox="0 0 28 28" version="1.1" xmlns="http://www.w3.org/2000/svg" xmlns:xlink="http://www.w3.org/1999/xlink">
    <!-- Generator: Sketch 49 (51002) - http://www.bohemiancoding.com/sketch -->
    <title>ethos</title>
    <desc>Created with Sketch.</desc>
    <defs>
        <circle id="path-1" cx="14" cy="14" r="14"></circle>
    </defs>
    <g id="Page-1" stroke="none" stroke-width="1" fill="none" fill-rule="evenodd">
        <g id="ethos">
            <g id="Oval">
                <use fill="#FFFFFF" fill-rule="evenodd" xlink:href="#path-1"></use>
                <circle stroke="#00FFBA" stroke-width="1" cx="14" cy="14" r="13.5"></circle>
            </g>
            <g stroke-width="1" fill-rule="evenodd" transform="translate(5.500000, 5.500000)">
                <path d="M10.5660494,3.14482319 C9.85215218,1.56672196 8.34298308,0.423479379 6.54052295,0.0953615618 C4.73806282,-0.232756255 2.87872054,0.297286299 1.58095178,1.50918611 C0.806258835,2.23188393 0.806439986,3.4039131 1.58095178,4.12661092 C2.35546357,4.84930874 3.61183745,4.84913978 4.38653039,4.12661092 C4.52793488,3.9944055 4.69539966,3.88893163 4.87971443,3.81599024 C5.26544143,3.66553548 5.69972956,3.66553548 6.08545656,3.81599024 C6.36294944,3.926241 6.60038584,4.10890894 6.76921162,4.3420264 C6.94217712,4.58027144 7.03403908,4.8616493 7.03278656,5.14936983 C7.03278656,6.1715374 7.92106128,7 9.01639178,7 C10.1117223,7 10.999997,6.17145293 10.999997,5.14936983 C11.0007671,4.46082362 10.8531976,3.77915162 10.5660494,3.14482319 Z" id="Shape" fill="#00FFBA" fill-rule="nonzero"></path>
                <g id="Group" fill="#00CFAB" fill-rule="nonzero">
                    <path d="M8.49456543,9.95663337 C7.46709291,9.95663337 6.63492507,10.7896503 6.63492507,11.8171229 C6.63545945,12.0112015 6.59687586,12.2033975 6.52147852,12.3822328 C6.41083378,12.6424875 6.22725411,12.8651719 5.99288212,13.0234266 C5.87637466,13.1024508 5.74884619,13.1638545 5.61441558,13.2056543 C5.08996632,13.3696595 4.51786992,13.2230844 4.13689311,12.8271029 L4.13587413,12.825999 C4.00840813,12.6942341 3.90702005,12.5395445 3.83705794,12.3700899 C3.69081709,12.0113387 3.69261845,11.6092696 3.84206793,11.2518432 C3.95276715,10.9915533 4.13632998,10.7688009 4.37066434,10.6103946 C4.6101538,10.4484449 4.89283735,10.3623143 5.18194306,10.3632068 C6.20941558,10.3632068 7.04158342,9.53044456 7.04158342,8.50297203 C7.04158342,7.4754995 6.20882118,6.64256743 5.18194306,6.64256743 C3.10592306,6.64212139 1.2306751,7.88262753 0.418937169,9.79337104 C-0.392800761,11.7041145 0.0161862957,13.9150284 1.45773726,15.4089461 C2.92174067,16.9284473 5.16200714,17.4062593 7.1185783,16.6163103 C9.07514946,15.8263613 10.3556761,13.9270589 10.3542907,11.817038 C10.3544605,10.7896503 9.5216983,9.95663337 8.49456543,9.95663337" id="Shape"></path>
                    <path d="M16.4217283,2.82053946 C16.0601325,2.1170716 15.5424569,1.50560855 14.9082867,1.03290709 C14.907013,1.03188811 14.9059091,1.03078422 14.9045504,1.02985015 C13.3351476,-0.137562858 11.2414348,-0.319766171 9.4939653,0.55899925 C7.74649577,1.43776467 6.64425167,3.22714701 6.64553946,5.18313187 C6.64553946,6.2106044 7.4783017,7.04336663 8.50517982,7.04336663 C9.53205794,7.04336663 10.3648202,6.2106044 10.3648202,5.18313187 C10.3643089,4.98894773 10.4029809,4.79665646 10.4785215,4.61776723 C10.589162,4.35750995 10.7727426,4.13482452 11.0071179,3.97657343 C11.1235792,3.89759605 11.2510488,3.83622177 11.3854146,3.79443057 C11.8285555,3.65587444 12.3112511,3.73796015 12.6836813,4.01520979 C12.863325,4.14888149 13.0100072,4.32187937 13.1125025,4.52096404 C13.3070064,4.90362978 13.3236165,5.35241477 13.1579321,5.74841159 C13.0472246,6.00862825 12.8636583,6.2312964 12.6293357,6.38960539 C12.5128066,6.46859202 12.3852838,6.52999291 12.2508691,6.57183317 C12.1106325,6.61529563 11.9646191,6.6372549 11.8178022,6.63696304 C10.7903297,6.63696304 9.95816184,7.46981019 9.95816184,8.4971978 C9.95816184,9.52458541 10.7909241,10.3576873 11.8178022,10.3576873 C13.6205358,10.35689 15.292999,9.41820453 16.2327211,7.87977305 C17.1724433,6.34134158 17.2440431,4.42479861 16.4217283,2.82053946 Z" id="Shape"></path>
                </g>
                <g id="Group" transform="translate(0.000000, 1.000000)" fill="#00FFBA" fill-rule="nonzero">
                    <path d="M16.3011126,8.81288818 C15.5065822,6.89963338 13.6607284,5.65639876 11.6166085,5.65774245 C10.6066574,5.65774245 9.7886804,6.48928458 9.7886804,7.51525172 C9.7886804,8.54121887 10.6072416,9.37293058 11.6166085,9.37293058 C11.8074178,9.37225983 11.9963903,9.41079211 12.1721651,9.48621092 C12.4278823,9.59686733 12.6466854,9.78021517 12.8022578,10.0142024 C13.0685616,10.4178741 13.1193318,10.9298116 12.9376414,11.3793323 C12.8681764,11.549107 12.7677246,11.704001 12.6415838,11.8358453 C12.5106074,11.973011 12.3544118,12.0827393 12.1818473,12.1588129 C11.8241734,12.3139351 11.4199367,12.3154643 11.0611354,12.1630525 C10.8054257,12.0523836 10.5866258,11.8690384 10.4310427,11.6350609 C10.2718833,11.3958182 10.1872531,11.1134686 10.1881536,10.8247165 C10.1881536,9.79874934 9.3695924,8.96703763 8.3602255,8.96703763 C7.35085861,8.96703763 6.53229736,9.79883413 6.53229736,10.8247165 C6.530349,12.9283853 7.78482739,14.8229573 9.70360496,15.6141735 C11.6223825,16.4053897 13.8218301,15.9350591 15.2637842,14.4251828 L15.2642016,14.4251828 C16.6872,12.9353141 17.0954739,10.7255261 16.3011126,8.81288818 Z" id="Shape"></path>
                    <path d="M5.09307522,5.65197668 C4.90226484,5.65265912 4.7132901,5.61412637 4.53751861,5.53869634 C4.28179891,5.4280441 4.06299485,5.24469537 3.90742594,5.01070482 C3.52475724,4.43499566 3.59830202,3.66436875 4.08270672,3.17405405 C4.79676723,2.44858506 4.79676723,1.27228405 4.08270672,0.546899841 C3.3686462,-0.178484367 2.21120878,-0.178738739 1.4973152,0.546899841 C0.0412745323,2.02398682 -0.394864451,4.24695177 0.392461221,6.1782508 C1.17978689,8.10954982 3.03534522,9.36840096 5.09307522,9.3672496 C6.10302638,9.3672496 6.92100336,8.53562268 6.92100336,7.50974033 C6.92100336,6.48385798 6.10269251,5.65197668 5.09307522,5.65197668 Z" id="Shape"></path>
                </g>
            </g>
        </g>
    </g>
</svg>