<?xml version="1.0" encoding="UTF-8"?>
<svg width="28px" height="28px" viewBox="0 0 28 28" version="1.1" xmlns="http://www.w3.org/2000/svg" xmlns:xlink="http://www.w3.org/1999/xlink">
    <!-- Generator: Sketch 50.2 (55047) - http://www.bohemiancoding.com/sketch -->
    <title>chatCoin</title>
    <desc>Created with Sketch.</desc>
    <defs>
        <linearGradient x1="50%" y1="0%" x2="50%" y2="100%" id="linearGradient-1">
            <stop stop-color="#03C9FE" offset="0%"></stop>
            <stop stop-color="#1271F7" offset="100%"></stop>
        </linearGradient>
    </defs>
    <g id="Wallet" stroke="none" stroke-width="1" fill="none" fill-rule="evenodd">
        <g id="New" transform="translate(-247.000000, -195.000000)">
            <g id="chatCoin" transform="translate(247.000000, 195.000000)">
                <g id="Asset-10">
                    <circle id="Oval" fill="url(#linearGradient-1)" fill-rule="nonzero" cx="14" cy="14" r="14"></circle>
                    <path d="M9.80281407,19.6984925 C9.72666606,19.6980462 9.65196166,19.6776723 9.58613065,19.639397 C9.45086158,19.557344 9.36819203,19.4106723 9.3680402,19.2524623 C9.3680402,17.9861307 9.37648241,17.2699497 9.39336683,16.8914573 C7.73869347,15.8305528 6.75376884,14.1322613 6.75376884,12.3354774 C6.75376884,9.21889447 9.65788945,6.68341709 13.2261307,6.68341709 C16.7943719,6.68341709 19.6984925,9.2160804 19.6984925,12.3354774 C19.6984925,15.4548744 16.7943719,17.9875377 13.2261307,17.9875377 C13.0980905,17.9875377 12.9658291,17.9875377 12.8223116,17.9762814 L10.0194975,19.639397 C9.95366648,19.6776723 9.87896208,19.6980462 9.80281407,19.6984925 Z M10.2713568,16.7521608 C10.2572864,16.8928643 10.2460302,17.5738693 10.241809,18.478593 L12.5043216,17.1348744 C12.5715198,17.0961924 12.6476898,17.0758157 12.7252261,17.0757789 L12.7491457,17.0757789 C12.9264322,17.0884422 13.0826131,17.0940704 13.2289447,17.0940704 C16.3244221,17.0940704 18.8331658,14.958191 18.8331658,12.3340704 C18.8331658,9.70994975 16.321608,7.57547739 13.2261307,7.57547739 C10.1306533,7.57547739 7.62190955,9.70854271 7.62190955,12.3354774 C7.62190955,13.9029146 8.53366834,15.3704523 10.0603015,16.2625126 C10.1645293,16.3213806 10.2406177,16.4197882 10.2713568,16.5354774 C10.2882354,16.6067191 10.2882354,16.6809191 10.2713568,16.7521608 Z" id="Shape" fill="#FFFFFF" fill-rule="nonzero"></path>
                    <path d="M9.80281407,19.5493467 C9.75326217,19.5488321 9.70472481,19.5352417 9.66211055,19.5099497 C9.57393736,19.4541342 9.52075744,19.3568149 9.52140704,19.2524623 C9.52140704,17.7849246 9.53266332,17.1250251 9.55095477,16.8112563 C7.87939698,15.7784925 6.89447236,14.118191 6.89447236,12.3354774 C6.89447236,9.30050251 9.73668342,6.83256281 13.2261307,6.83256281 C16.7155779,6.83256281 19.5577889,9.30050251 19.5577889,12.3354774 C19.5577889,15.3704523 16.719799,17.839799 13.2261307,17.839799 C13.0854271,17.839799 12.9447236,17.839799 12.7871357,17.8243216 L9.94773869,19.5127638 C9.90361147,19.5377993 9.85353678,19.5504395 9.80281407,19.5493467 Z M10.1306533,16.7254271 C10.1123618,16.8900503 10.1011055,17.798995 10.0982915,18.7360804 L12.5732663,17.2643216 C12.623155,17.2354925 12.6803547,17.2218037 12.7378894,17.2249246 C12.9165829,17.2375879 13.0755779,17.2446231 13.2261307,17.2446231 C16.3961809,17.2446231 18.9752764,15.0426131 18.9752764,12.3354774 C18.9752764,9.62834171 16.3961809,7.42773869 13.2261307,7.42773869 C10.0560804,7.42773869 7.47698492,9.62974874 7.47698492,12.3354774 C7.47698492,13.9577889 8.41547739,15.4731658 9.98854271,16.3905528 C10.1046972,16.4584652 10.1620366,16.5949328 10.1292462,16.7254271 L10.1306533,16.7254271 Z" id="Shape" fill="#FFFFFF" fill-rule="nonzero"></path>
                    <circle id="Oval" fill="#FFFFFF" fill-rule="nonzero" cx="10.5527638" cy="12.5226131" r="1"></circle>
                    <circle id="Oval" fill="#FFFFFF" fill-rule="nonzero" cx="13.3668342" cy="12.5226131" r="1"></circle>
                    <circle id="Oval" fill="#FFFFFF" fill-rule="nonzero" cx="16.1809045" cy="12.5226131" r="1"></circle>
                    <path d="M20.8114573,15.9248241 C20.8020142,15.108043 20.4797214,14.3259793 19.9109548,13.7396985 C19.8651231,14.0238346 19.7964241,14.3038062 19.7055276,14.5768844 C19.9591098,14.980908 20.0946015,15.4478182 20.0966834,15.9248241 C20.0966834,16.8351759 19.6056281,17.680804 18.7501508,18.2436181 C18.6553376,18.2978681 18.6004858,18.4020865 18.6094472,18.5109548 L18.6910553,19.1638191 L17.7469347,18.7853266 C17.6981919,18.7656939 17.6461158,18.7556608 17.5935678,18.7557789 C17.5622791,18.7558824 17.5311108,18.7596603 17.5007035,18.7670352 C17.2022681,18.8333608 16.8974757,18.8668597 16.5917588,18.8669347 C15.8583767,18.8719533 15.1381523,18.6721617 14.5121608,18.2900503 C14.1075987,18.2886403 13.7044964,18.2414386 13.3105528,18.1493467 C14.0830151,18.9555779 15.2663317,19.4719598 16.5917588,19.4719598 C16.915271,19.4720796 17.2380399,19.4409807 17.5555779,19.3790955 L18.9626131,19.9419095 C19.0118924,19.9613861 19.0643984,19.9714099 19.1173869,19.9714573 C19.1899944,19.9719602 19.2614121,19.9530127 19.3242211,19.9165829 C19.4273414,19.8626438 19.4866219,19.7507939 19.4733668,19.6351759 L19.3453266,18.6094472 C20.279598,17.9340704 20.8114573,16.9660302 20.8114573,15.9248241 Z" id="Shape" fill="#FFFFFF" fill-rule="nonzero"></path>
                </g>
            </g>
        </g>
    </g>
</svg>