<svg width="28" height="28" viewBox="0 0 28 28" version="1.1" xmlns="http://www.w3.org/2000/svg" xmlns:xlink="http://www.w3.org/1999/xlink">
<title>cvc</title>
<desc>Created using Figma</desc>
<g id="Canvas" transform="translate(-523 35)">
<g id="cvc">
<g id="bg">
<use xlink:href="#path0_fill" transform="translate(523 -35)" fill="#3AB03E"/>
</g>
<g id="cvc">
<use xlink:href="#path1_fill" transform="translate(528 -30)" fill="#FFFFFF"/>
</g>
</g>
</g>
<defs>
<path id="path0_fill" d="M 0 14C 0 6.26801 6.26801 0 14 0C 21.732 0 28 6.26801 28 14C 28 21.732 21.732 28 14 28C 6.26801 28 0 21.732 0 14Z"/>
<path id="path1_fill" d="M 10.0467 9.70065C 10.4064 9.52657 10.7093 9.25662 10.921 8.92147C 11.1327 8.58633 11.2448 8.19942 11.2444 7.80471C 11.2444 6.64002 10.2882 5.6961 9.10971 5.6961C 7.9312 5.6961 6.97457 6.63993 6.97457 7.80462C 6.97411 8.19946 7.08621 8.5865 7.29811 8.92168C 7.51002 9.25687 7.81321 9.52673 8.17319 9.70056L 8.17319 12.3048L 10.0466 12.3048L 10.0466 9.70065L 10.0467 9.70065ZM 9.1098 15.75C 5.34223 15.75 2.27752 12.7222 2.27752 9C 2.27752 5.27778 5.34269 2.25054 9.1098 2.25054C 12.1842 2.25054 14.7902 4.26654 15.6452 7.03098L 17.9999 7.03098C 17.0914 3.00753 13.456 0 9.1098 0C 4.07864 0 0 4.02939 0 9C 0 13.9706 4.07864 18 9.1098 18C 13.456 18 17.0914 14.9925 18 10.9689L 15.6453 10.9689C 14.7896 13.734 12.1842 15.75 9.1098 15.75Z"/>
</defs>
</svg>
