<?xml version="1.0" encoding="UTF-8"?>
<svg width="28px" height="28px" viewBox="0 0 28 28" version="1.1" xmlns="http://www.w3.org/2000/svg" xmlns:xlink="http://www.w3.org/1999/xlink">
    <!-- Generator: Sketch 50.2 (55047) - http://www.bohemiancoding.com/sketch -->
    <title>cvc</title>
    <desc>Created with Sketch.</desc>
    <defs></defs>
    <g id="Wallet" stroke="none" stroke-width="1" fill="none" fill-rule="evenodd">
        <g id="Desktop" transform="translate(-417.000000, -183.000000)">
            <g id="Stacked-Group-2" transform="translate(120.000000, 183.000000)">
                <g id="cvc" transform="translate(297.000000, 0.000000)">
                    <g>
                        <g id="bg" fill="#3AB03E" fill-rule="nonzero">
                            <g id="path0_fill-link">
                                <path d="M0,14 C0,6.26801 6.26801,0 14,0 C21.732,0 28,6.26801 28,14 C28,21.732 21.732,28 14,28 C6.26801,28 0,21.732 0,14 Z" id="path0_fill"></path>
                            </g>
                        </g>
                        <g transform="translate(5.000000, 5.000000)" fill="#FFFFFF" fill-rule="nonzero" id="path1_fill-link">
                            <g>
                                <path d="M10.0467,9.70065 C10.4064,9.52657 10.7093,9.25662 10.921,8.92147 C11.1327,8.58633 11.2448,8.19942 11.2444,7.80471 C11.2444,6.64002 10.2882,5.6961 9.10971,5.6961 C7.9312,5.6961 6.97457,6.63993 6.97457,7.80462 C6.97411,8.19946 7.08621,8.5865 7.29811,8.92168 C7.51002,9.25687 7.81321,9.52673 8.17319,9.70056 L8.17319,12.3048 L10.0466,12.3048 L10.0466,9.70065 L10.0467,9.70065 Z M9.1098,15.75 C5.34223,15.75 2.27752,12.7222 2.27752,9 C2.27752,5.27778 5.34269,2.25054 9.1098,2.25054 C12.1842,2.25054 14.7902,4.26654 15.6452,7.03098 L17.9999,7.03098 C17.0914,3.00753 13.456,0 9.1098,0 C4.07864,0 0,4.02939 0,9 C0,13.9706 4.07864,18 9.1098,18 C13.456,18 17.0914,14.9925 18,10.9689 L15.6453,10.9689 C14.7896,13.734 12.1842,15.75 9.1098,15.75 Z" id="path1_fill"></path>
                            </g>
                        </g>
                    </g>
                </g>
            </g>
        </g>
    </g>
</svg>