<?xml version="1.0" encoding="UTF-8"?>
<svg width="28px" height="28px" viewBox="0 0 28 28" version="1.1" xmlns="http://www.w3.org/2000/svg" xmlns:xlink="http://www.w3.org/1999/xlink">
    <!-- Generator: Sketch 51.3 (57544) - http://www.bohemiancoding.com/sketch -->
    <title>Datum DAT</title>
    <desc>Created with Sketch.</desc>
    <defs></defs>
    <g id="Wallet" stroke="none" stroke-width="1" fill="none" fill-rule="evenodd">
        <g id="New" transform="translate(-469.000000, -424.000000)">
            <g id="Datum-DAT" transform="translate(469.000000, 424.000000)">
                <g id="Datum-Exchange-Icon">
                    <circle id="Oval" fill="#199AFF" fill-rule="nonzero" cx="14.0145078" cy="14" r="14"></circle>
                    <g id="Group" transform="translate(5.832124, 3.249741)" fill="#FFFFFF" fill-rule="nonzero">
                        <path d="M14.7776166,2.47792746 C14.7776166,1.12 13.6750259,0.0174093264 12.3170984,0.0174093264 C10.959171,0.0174093264 9.85658031,1.12 9.85658031,2.47792746 L9.85658031,4.9384456 L12.3170984,4.9384456 C13.6750259,4.9384456 14.7776166,3.83585492 14.7776166,2.47792746" id="Shape"></path>
                        <path d="M14.7776166,4.68020725 L14.7776166,5.78279793 L14.7776166,6.10487047 L14.7776166,13.1643523 C14.7776166,17.2439378 11.4727461,20.5517098 7.39606218,20.5517098 C3.31937824,20.5517098 0.014507772,17.2439378 0.014507772,13.1643523 C0.014507772,9.08476684 3.31937824,5.78569948 7.39606218,5.78569948 L11.7048705,5.78569948 C11.707772,5.78569948 11.707772,5.78569948 11.7106736,5.78569948 L12.3170984,5.78569948 C13.2949223,5.78279793 14.1740933,5.35626943 14.7776166,4.68020725 M4.93554404,13.1643523 C4.93554404,14.5222798 6.03813472,15.6248705 7.39606218,15.6248705 C8.75398964,15.6248705 9.85658031,14.5222798 9.85658031,13.1643523 L9.85658031,10.7038342 L7.39606218,10.7038342 C6.03813472,10.7038342 4.93554404,11.8064249 4.93554404,13.1643523" id="Shape"></path>
                    </g>
                </g>
            </g>
        </g>
    </g>
</svg>