<svg width="28" height="28" viewBox="0 0 28 28" version="1.1" xmlns="http://www.w3.org/2000/svg" xmlns:xlink="http://www.w3.org/1999/xlink">
<title>dgd</title>
<desc>Created using Figma</desc>
<g id="Canvas" transform="translate(-485 35)">
<g id="dgd">
<g id="Vector">
<use xlink:href="#path0_fill" transform="translate(493.032 -24.682)" fill="#014655"/>
</g>
<g id="Vector">
<use xlink:href="#path1_fill" transform="translate(485 -35)" fill="#014655"/>
</g>
<g id="Vector">
<use xlink:href="#path2_fill" transform="translate(491.796 -28.6363)" fill="#C39145"/>
</g>
</g>
</g>
<defs>
<path id="path0_fill" d="M 1.70898e-07 0L 3.83054 0L 3.83054 1.23564L 1.70898e-07 1.23564L 1.70898e-07 0ZM 9.60106 5.684L 0.61782 5.684L 0.61782 10.256L 9.5886 10.256C 10.8366 10.256 11.9239 9.21802 11.9239 7.9576C 11.8993 6.68458 10.8738 5.6714 9.60106 5.684Z"/>
<path id="path1_fill" d="M 14 0C 6.26472 0 0 6.26471 0 14C 0 21.7353 6.26472 28 14 28C 21.7353 28 28 21.7353 28 14C 28.0123 6.26471 21.7351 0 14 0ZM 14.4572 6.24008L 21.1298 6.24008L 21.1298 7.59933L 15.94 7.59933L 15.94 11.5534L 19.7705 11.5534L 19.7705 10.318L 17.052 10.318L 17.052 8.95845L 21.2532 8.95845L 21.2532 12.9126L 14.4572 12.9126L 14.4572 6.24008ZM 6.79616 6.36369L 10.9973 6.36369L 10.9973 7.96991L 6.79616 7.96991L 6.79616 6.36369ZM 6.67254 8.95859L 11.9858 8.95859L 11.9858 6.24008L 13.468 6.24008L 13.468 12.9126L 6.67254 12.9126L 6.67254 8.95845L 6.67254 8.95859ZM 17.9417 22.3037L 6.79616 22.3037L 6.79616 14.2719L 17.9418 14.2719C 20.1043 14.2719 21.8712 16.0882 21.8712 18.2878C 21.8712 20.4873 20.104 22.3035 17.9417 22.3035L 17.9417 22.3037Z"/>
<path id="path2_fill" d="M 3.41796e-08 -1.70898e-07L 4.20111 -1.70898e-07L 4.20111 1.60622L 3.41796e-08 1.60622L 3.41796e-08 -1.70898e-07Z"/>
</defs>
</svg>
