<?xml version="1.0" encoding="UTF-8"?>
<svg width="28px" height="28px" viewBox="0 0 28 28" version="1.1" xmlns="http://www.w3.org/2000/svg" xmlns:xlink="http://www.w3.org/1999/xlink">
    <!-- Generator: Sketch 51 (57462) - http://www.bohemiancoding.com/sketch -->
    <title>DGX-S</title>
    <desc>Created with Sketch.</desc>
    <defs></defs>
    <g id="IOS?-(for-Mike-Le)" stroke="none" stroke-width="1" fill="none" fill-rule="evenodd">
        <g id="Artboard-3" transform="translate(-497.000000, -295.000000)">
            <g id="DGX-S" transform="translate(497.000000, 295.000000)">
                <g id="DGX">
                    <circle id="Oval" fill="#131E33" fill-rule="nonzero" cx="13.9921477" cy="13.9921477" r="13.9921477"></circle>
                    <path d="M13.9921477,27.185855 C6.70546444,27.185855 0.798440492,21.2788311 0.798440492,13.9921477 C0.798440492,6.70546444 6.70546444,0.798440492 13.9921477,0.798440492 C21.2788311,0.798440492 27.185855,6.70546444 27.185855,13.9921477 C27.185855,21.2788311 21.2788311,27.185855 13.9921477,27.185855 Z M13.9921477,26.936881 C21.1413265,26.936881 26.936881,21.1413265 26.936881,13.9921477 C26.936881,6.84296898 21.1413265,1.0474145 13.9921477,1.0474145 C6.84296898,1.0474145 1.0474145,6.84296898 1.0474145,13.9921477 C1.0474145,21.1413265 6.84296898,26.936881 13.9921477,26.936881 Z" id="Oval" fill="#BF9E5B" fill-rule="nonzero"></path>
                    <path d="M13.9921477,26.6894391 C6.97962735,26.6894391 1.29485636,21.0046681 1.29485636,13.9921477 C1.29485636,6.97962735 6.97962735,1.29485636 13.9921477,1.29485636 C21.0046681,1.29485636 26.6894391,6.97962735 26.6894391,13.9921477 C26.6894391,21.0046681 21.0046681,26.6894391 13.9921477,26.6894391 Z M13.9921477,26.5936799 C20.9517818,26.5936799 26.5936799,20.9517818 26.5936799,13.9921477 C26.5936799,7.03251371 20.9517818,1.3906156 13.9921477,1.3906156 C7.03251371,1.3906156 1.3906156,7.03251371 1.3906156,13.9921477 C1.3906156,20.9517818 7.03251371,26.5936799 13.9921477,26.5936799 Z" id="Oval" fill="#BF9E5B" fill-rule="nonzero"></path>
                    <circle id="Oval" fill="#BF9E5B" fill-rule="nonzero" cx="13.9921477" cy="13.9921477" r="8.44213406"></circle>
                    <polygon id="Shape" fill="#131E33" fill-rule="nonzero" points="13.9923393 7.88366621 7.88366621 13.9923393 10.1048974 16.2135705 13.9921477 12.3263201 17.8793981 16.2135705 20.1008208 13.9921477"></polygon>
                    <rect id="Rectangle-path" fill="#BF9E5B" fill-rule="nonzero" transform="translate(13.992083, 16.768712) rotate(-45.000000) translate(-13.992083, -16.768712) " x="11.7892377" y="14.565867" width="4.40569083" height="4.40569083"></rect>
                    <path d="M13.9921477,13.8701505 L16.8907798,16.7687825 L13.9921477,19.6674145 L11.0935157,16.7687825 L13.9921477,13.8701505 Z M13.9921477,13.4367442 L10.6597264,16.7691655 L13.9921477,20.1015869 L17.3245691,16.7691655 L13.9921477,13.4367442 Z" id="Shape" fill="#121E33" fill-rule="nonzero"></path>
                    <path d="M13.9921477,25.2969083 C7.74870086,25.2969083 2.68738714,20.2355946 2.68738714,13.9921477 C2.68738714,7.74870086 7.74870086,2.68738714 13.9921477,2.68738714 C20.2355946,2.68738714 25.2969083,7.74870086 25.2969083,13.9921477 C25.2969083,20.2355946 20.2355946,25.2969083 13.9921477,25.2969083 Z M13.9921477,25.1436936 C20.1509764,25.1436936 25.1436936,20.1509764 25.1436936,13.9921477 C25.1436936,7.83331905 20.1509764,2.84060192 13.9921477,2.84060192 C7.83331905,2.84060192 2.84060192,7.83331905 2.84060192,13.9921477 C2.84060192,20.1509764 7.83331905,25.1436936 13.9921477,25.1436936 Z" id="Oval" fill="#BF9E5B" fill-rule="nonzero"></path>
                </g>
            </g>
        </g>
    </g>
</svg>