<?xml version="1.0" encoding="UTF-8"?>
<svg width="24px" height="28px" viewBox="0 0 24 28" version="1.1" xmlns="http://www.w3.org/2000/svg" xmlns:xlink="http://www.w3.org/1999/xlink">
    <!-- Generator: Sketch 50.2 (55047) - http://www.bohemiancoding.com/sketch -->
    <title>dta</title>
    <desc>Created with Sketch.</desc>
    <defs></defs>
    <g id="Wallet" stroke="none" stroke-width="1" fill="none" fill-rule="evenodd">
        <g id="New" transform="translate(-151.000000, -251.000000)">
            <g id="dta" transform="translate(149.000000, 251.000000)">
                <rect id="Rectangle-2" x="0" y="0" width="28" height="28"></rect>
                <g id="Asset-16" stroke-width="1" fill-rule="evenodd" transform="translate(2.438119, 0.500000)">
                    <path d="M18.980198,11.1555446 L18.8799505,11.095396 L4.00990099,2.22950495 L8.01980198,0 L23.1237624,8.7870297 L18.980198,11.1555446 Z M4.81188119,2.24153465 L18.980198,10.6930693 L22.3217822,8.78435644 L8.01980198,0.461138614 L4.81188119,2.24153465 Z" id="Shape" fill="#70D462" fill-rule="nonzero"></path>
                    <polygon id="Shape" fill="#70D462" fill-rule="nonzero" points="18.980198 11.124802 18.980198 15.8030198 23.1237624 13.3302475 23.1237624 8.78569307"></polygon>
                    <path d="M18.980198,11.0579703 L4.27722772,2.36985149" id="Shape" fill="#70D462" fill-rule="nonzero"></path>
                    <rect id="Rectangle-path" fill="#2570CF" fill-rule="nonzero" x="3.87623762" y="6.78074257" width="1" height="12.9653465"></rect>
                    <polygon id="Shape" fill="#2570CF" fill-rule="nonzero" points="8.79059406 8.91935644 8.79059406 4.50846535 8.01980198 4.50846535 8.01980198 17.4738119 8.79059406 17.4738119 8.79059406 9.38450495 8.2606745 9.15727723 8.2606745 8.69212871"></polygon>
                    <polygon id="Shape" fill="#2570CF" fill-rule="nonzero" points="0.770792079 4.70361386 0.770792079 21.884703 0.271026641 21.884703 0 21.7630693 0 21.4810396 0.00384434952 4.51113861 0.00384434952 4.50579208 0.16146268 4.44163366"></polygon>
                    <polygon id="Shape" fill="#202545" fill-rule="nonzero" points="15.5049505 13.5641584 7.43435644 18.2838119 6.8649505 18.615297 4.78915842 19.830297 4.24782178 20.1470792 3.87623762 19.9479208 3.87623762 19.6485149 4.14891089 19.4894554 6.8649505 17.9015347 7.43435644 17.5700495 14.9128218 13.1965842"></polygon>
                    <polygon id="Shape" fill="#202545" fill-rule="nonzero" points="18.9187129 15.5838119 11.285198 20.0174257 10.7465347 20.3288614 8.27108911 21.7670792 7.66693069 21.4462871 10.7465347 19.6578713 11.285198 19.3464356 18.3586634 15.2389604"></polygon>
                    <path d="M23.1237624,13.1965842 L23.1237624,18.4308416 L22.990099,18.5083663 C17.2011386,21.8165347 8.28712871,26.9639109 8.28712871,26.9639109 L8.28712871,26.3824752 C8.6520297,26.1605941 9.22277228,25.8304455 10.0902475,25.3198515 C11.394802,24.5566337 13.120396,23.5581683 15.2376238,22.3378218 C18.5417822,20.4344554 21.884703,18.5230693 22.5891089,18.1207426 L22.5891089,13.4639109 L23.1237624,13.1965842 Z" id="Shape" fill="#202545" fill-rule="nonzero"></path>
                    <path d="M8.59277228,26.3824752 L8.59277228,27.1532673 L7.8219802,26.7793889 C7.98588426,26.6854763 8.22952544,26.5596688 8.59277228,26.3824752 Z" id="Shape" fill="#202545" fill-rule="nonzero"></path>
                    <polyline id="Shape" points="4.14356436 24.1569802 0.535990099 21.829901 0.00133663366 21.4850495"></polyline>
                    <polygon id="Shape" fill="#2570CF" fill-rule="nonzero" points="4.27054455 23.960495 4.14356436 24.1569802 4.01658416 24.3534653 0.18980198 21.884703 0.00133663366 21.7630693 0.00133663366 21.4850495 0 21.4837129 0.00133663366 21.4810396 0.126980198 21.2872277 0.535990099 21.5505446"></polygon>
                    <polygon id="Shape" fill="#202545" fill-rule="nonzero" points="8.28712871 21.7510396 8.28712871 26.9639109 7.8219802 26.6818812 3.87623762 24.2906436 3.87623762 19.6485149 4.14891089 19.4894554 4.66217822 19.7621287 4.78915842 19.830297"></polygon>
                    <polygon id="Shape" fill="#2570CF" fill-rule="nonzero" points="8.95767327 8.94509136 8.95767327 9.46292079 8.18688119 9.20995814 8.18688119 8.69212871"></polygon>
                    <polygon id="Shape" fill="#70D462" fill-rule="nonzero" points="19.0443564 10.6275743 18.9735149 15.820396 15.309802 13.5574752 14.7871782 13.2340099 8.55445545 9.38450495 8.55445545 8.91935644 18.5885644 15.1173267 18.6487129 10.6222277"></polygon>
                    <polygon id="Shape" fill="#2570CF" fill-rule="nonzero" points="8.55445545 4.50846535 8.09732673 4.77178218 4.14356436 7.04806931 0.537326733 4.83727723 0.535990099 4.83594059 0.00400990099 4.51113861 0 4.50846535 0.00400990099 4.50579208 0.113613861 4.44163366 0.228564356 4.37480198 4.41089109 1.96886139 8.25772277 4.32668317"></polygon>
                </g>
            </g>
        </g>
    </g>
</svg>