<?xml version="1.0" encoding="UTF-8"?>
<svg width="28px" height="28px" viewBox="0 0 28 28" version="1.1" xmlns="http://www.w3.org/2000/svg" xmlns:xlink="http://www.w3.org/1999/xlink">
    <!-- Generator: Sketch 48.2 (47327) - http://www.bohemiancoding.com/sketch -->
    <title>eng</title>
    <desc>Created with Sketch.</desc>
    <defs></defs>
    <g id="Page-1" stroke="none" stroke-width="1" fill="none" fill-rule="evenodd">
        <g id="eng">
            <path d="M27.9724179,14.0694289 C27.9724179,21.7630209 21.7356617,27.9997771 14.0420697,27.9997771 C6.34847761,27.9997771 0.111721393,21.7630209 0.111721393,14.0694289 C0.111721393,6.37583682 6.34847761,0.139080597 14.0420697,0.139080597 C21.7356617,0.139080597 27.9724179,6.37583682 27.9724179,14.0694289 Z" id="Fill-626" fill="#000000"></path>
            <g id="eng-copy" transform="translate(3.042070, 3.069429)">
                <rect id="Rectangle-2" x="0" y="0" width="22" height="22"></rect>
                <g id="Group-4" transform="translate(1.157895, 0.000000)" fill="#FFFFFF" fill-rule="nonzero">
                    <path d="M18.9684808,5.31222871 C18.9459376,5.29937396 18.9233944,5.2865192 18.8976308,5.27045075 C17.4065601,4.41882304 15.9187098,3.56398164 14.4308595,2.71235392 C12.8689388,1.81894825 11.3102385,0.922328881 9.74831772,0.0321368948 L9.69356999,0 L9.63560179,0.0224958264 C9.53254723,0.0610601002 9.45203585,0.099624374 9.37796538,0.141402337 C8.01893331,0.935183639 6.65990124,1.72896494 5.30408962,2.51953255 C3.61657113,3.50613523 1.92583218,4.48952421 0.251195501,5.47291319 C0.0418659169,5.56932387 0.0483068272,5.78785476 0.0515272823,5.91961603 C0.0515272823,5.94853923 0.0547477375,5.98067613 0.0515272823,6.01281302 C0.0483068272,8.50663606 0.045086372,11.0004591 0.0386454617,13.4942821 L0.0322045514,16.2709098 C0.0193227309,16.4380217 0.0933931992,16.579424 0.21899095,16.6372705 C2.15448449,17.7331386 4.08997803,18.8322204 6.02547158,19.9313022 L9.44881539,21.8755843 C9.52610632,21.9237896 9.60339724,21.9494992 9.67424725,21.9494992 C9.7354359,21.9494992 9.79018364,21.930217 9.83527001,21.8948664 L14.8012118,19.0411102 C16.2117712,18.2312604 17.6223306,17.418197 19.0232285,16.6147746 C19.1810308,16.5440735 19.274424,16.3866027 19.2551013,16.238773 L19.2712036,5.73000835 C19.2937468,5.48898164 19.0908581,5.3765025 18.9684808,5.31222871 M9.65814498,5.97424875 L13.7416821,8.34595159 L9.66458589,10.6919449 L8.27656972,9.90780467 C7.36196046,9.39040067 6.4473512,8.87621035 5.53274194,8.35880634 L9.65814498,5.97424875 M14.2988208,8.02458264 L9.86425411,5.45041736 C9.74187681,5.36364775 9.58085406,5.36364775 9.46491767,5.44077629 L4.97238274,8.0374374 L0.892066075,5.73643573 L3.73894842,4.07495826 C5.71308743,2.92124374 7.68722643,1.7707429 9.66458589,0.62024207 C11.4777021,1.66469115 13.2908184,2.70271285 15.1071551,3.74073456 C16.2149917,4.37704508 17.3228282,5.0101419 18.4306648,5.64645242 L14.2988208,8.02458264 M0.611886477,6.21848915 L4.67288041,8.51306344 L4.75661225,13.5746244 C4.74695088,13.7320952 4.82424181,13.8734975 4.9466191,13.9281302 C5.84512609,14.4455342 6.74685353,14.9597245 7.64858097,15.4771285 L9.38118584,16.4701586 L9.37796538,21.1974958 L0.592563747,16.2098497 L0.611886477,6.21848915 M5.23646007,8.8312187 L9.38762675,11.1739983 L9.38118584,15.8306344 L5.31375099,13.4974958 L5.23646007,8.8312187 M9.94154503,16.4733723 L11.6773704,15.4803422 C12.566216,14.9693656 13.458282,14.4616027 14.3535686,13.9474124 L14.3793322,13.9313439 C14.427639,13.9024207 14.4920482,13.8638564 14.5371345,13.7995826 L14.5628982,13.7642321 L14.5628982,13.7224541 C14.5532368,12.6073038 14.5532368,11.4696578 14.5564573,10.370576 C14.5564573,9.75354758 14.5596777,9.1365192 14.5564573,8.51949082 L18.7108444,6.12850584 L18.7044035,10.2066778 L18.6947421,16.1616444 C16.83976,17.2253756 14.9847778,18.2923205 13.1265752,19.3592654 L9.93510412,21.1942821 L9.94154503,16.4733723 M9.94154503,15.8338481 L9.94476549,11.1739983 L14.0347435,8.82157763 L14.0347435,13.4910684 C12.672491,14.2687813 11.307018,15.0497078 9.94154503,15.8338481" id="Shape"></path>
                    <path d="M9.53898814,1.16978297 C9.4198313,1.18263773 9.31355628,1.25976628 9.25880854,1.37224541 C9.2040608,1.49115192 9.21050171,1.6196995 9.27813127,1.71611018 C9.34254037,1.81894825 9.46169721,1.88000835 9.59051542,1.88000835 C9.61305861,1.88000835 9.63882225,1.87679466 9.66458589,1.87358097 C9.81594728,1.84787145 9.92866321,1.74503339 9.95442685,1.61327212 C9.9866314,1.4975793 9.95764731,1.3754591 9.87069502,1.28547579 C9.78696318,1.1922788 9.65814498,1.14728715 9.53898814,1.16978297 M9.77408136,2.70271285 C9.64848361,2.63522538 9.50034268,2.63843907 9.3908472,2.71235392 C9.29423355,2.76698664 9.22982444,2.86982471 9.21694262,2.98873122 C9.20728126,3.10763773 9.25558809,3.21690317 9.33287901,3.27796327 C9.40050857,3.34223706 9.48746086,3.37437396 9.58085406,3.37437396 C9.63560179,3.37437396 9.69034953,3.3615192 9.74187681,3.33902337 C9.88035638,3.27796327 9.96408822,3.15262938 9.96086776,3.02086811 C9.96730867,2.89232053 9.89645866,2.77020033 9.77408136,2.70271285 M9.79018364,4.20993322 C9.66780634,4.13280467 9.51644495,4.12959098 9.40050857,4.19707846 C9.29423355,4.25171119 9.22660399,4.35454925 9.21694262,4.47988314 C9.20728126,4.60521703 9.262029,4.72733723 9.35542219,4.78839733 C9.4198313,4.83981636 9.50034268,4.86552588 9.58407451,4.86552588 C9.63882225,4.86552588 9.69356999,4.85267112 9.74509727,4.83017529 C9.87391547,4.77232888 9.95442685,4.66306344 9.96086776,4.53772955 C9.97052913,4.40596828 9.90612002,4.28384808 9.79018364,4.20993322 M3.80979844,14.0534641 C3.68420069,14.0888147 3.58758703,14.1916528 3.55860293,14.3266277 C3.52961884,14.4648164 3.57792567,14.603005 3.67453932,14.6769199 C3.73572797,14.7315526 3.81301889,14.7604758 3.89353027,14.7604758 C3.91929391,14.7604758 3.94827801,14.7572621 3.97404165,14.7508347 C4.08997803,14.7251252 4.18659169,14.644783 4.22201669,14.5483723 C4.28320534,14.4230384 4.26066216,14.271995 4.16082805,14.1595159 C4.0706553,14.0534641 3.93539619,14.0148998 3.80979844,14.0534641 M15.1780051,14.7636895 C15.2069892,14.7636895 15.2359733,14.7604758 15.2681778,14.7508347 C15.3841142,14.7219115 15.474287,14.6415693 15.5032711,14.551586 C15.5676802,14.4230384 15.5419165,14.2687813 15.4420824,14.1530885 C15.3454688,14.0470367 15.2069892,14.0084725 15.0813914,14.0502504 C14.9590141,14.085601 14.8656209,14.1916528 14.8398573,14.3266277 C14.8140937,14.4648164 14.8624005,14.5997913 14.9557937,14.6737062 C15.0137619,14.7347663 15.0942733,14.7636895 15.1780051,14.7636895 M2.52805729,14.8118948 C2.39923908,14.8568865 2.31228679,14.9725793 2.29940497,15.1171953 C2.28652315,15.265025 2.35737317,15.4032137 2.4700891,15.4674875 C2.52161638,15.4996244 2.58280503,15.5189065 2.64399367,15.5189065 C2.69552096,15.5189065 2.74382778,15.5060518 2.79535507,15.4835559 C2.908071,15.4321369 2.98536192,15.3292988 2.99502328,15.2264608 C3.02400738,15.1011269 2.9724801,14.9597245 2.86620508,14.8729549 C2.76637097,14.7861853 2.64077322,14.7636895 2.52805729,14.8118948 M16.4275417,15.5156928 C16.4694076,15.5156928 16.5112735,15.5092654 16.5531394,15.493197 C16.6755167,15.4482053 16.762469,15.3421536 16.7753508,15.2361018 C16.8107759,15.1107679 16.7689099,14.975793 16.6658554,14.882596 C16.5692417,14.7926127 16.4339826,14.7636895 16.3180462,14.8086811 C16.1988894,14.8504591 16.1087166,14.9565109 16.0861734,15.0914858 C16.0636303,15.2296745 16.1151575,15.3646494 16.2117712,15.4385643 C16.2729598,15.4867696 16.3502508,15.5156928 16.4275417,15.5156928 M1.56192075,15.586394 C1.45242527,15.5253339 1.32682752,15.5253339 1.22377295,15.586394 C1.11105702,15.6474541 1.04020701,15.7695743 1.04020701,15.9077629 C1.04020701,16.0491653 1.11749794,16.1712855 1.22699341,16.2259182 C1.27530024,16.2548414 1.33004797,16.2676962 1.38479571,16.2676962 C1.44920482,16.2676962 1.51683437,16.248414 1.57802302,16.2098497 C1.69395941,16.1359349 1.75836851,16.0041736 1.74548669,15.8916945 C1.74870714,15.7663606 1.67785713,15.6506678 1.56192075,15.586394 M17.4741896,16.1873539 C17.5321578,16.238773 17.6062283,16.2676962 17.6835192,16.2676962 C17.7286056,16.2676962 17.7736919,16.2580551 17.8187783,16.238773 C17.9443761,16.1841402 18.0313284,16.0684474 18.0377693,15.9559683 C18.0635329,15.8177796 17.9991238,15.6763773 17.8767465,15.5960351 C17.7640306,15.5189065 17.625551,15.5156928 17.5160555,15.586394 C17.413001,15.6474541 17.3453714,15.7567195 17.3389305,15.8852671 C17.3324896,16.010601 17.3872373,16.1295075 17.4741896,16.1873539" id="Shape"></path>
                </g>
            </g>
        </g>
    </g>
</svg>