<?xml version="1.0" encoding="UTF-8"?>
<svg width="28px" height="28px" viewBox="0 0 26 28" version="1.1" xmlns="http://www.w3.org/2000/svg" xmlns:xlink="http://www.w3.org/1999/xlink">
    <!-- Generator: Sketch 48.2 (47327) - http://www.bohemiancoding.com/sketch -->
    <title>eng</title>
    <desc>Created with Sketch.</desc>
    <defs></defs>
    <g id="Page-1" stroke="none" stroke-width="1" fill="none" fill-rule="evenodd">
        <g id="eng" transform="translate(-1.000000, 0.000000)">
            <rect id="Rectangle-2" x="0" y="0" width="28" height="28"></rect>
            <g id="Group-4" transform="translate(1.750000, 0.000000)" fill="#E8E8E8" fill-rule="nonzero">
                <path d="M24.090985,6.76101836 C24.0623539,6.74465776 24.0337229,6.72829716 24.0010017,6.70784641 C22.1072621,5.62395659 20.2176127,4.53597663 18.3279633,3.45208681 C16.3442404,2.31502504 14.3646077,1.17387312 12.3808848,0.0409015025 L12.3113523,0 L12.2377295,0.0286310518 C12.1068447,0.0777128548 12.004591,0.126794658 11.9105175,0.179966611 C10.1844741,1.19023372 8.45843072,2.20050083 6.73647746,3.2066778 C4.59323873,4.46235392 2.44590985,5.7139399 0.31903172,6.96552588 C0.0531719533,7.08823038 0.0613522538,7.3663606 0.065442404,7.53405676 C0.065442404,7.57086811 0.0695325543,7.61176962 0.065442404,7.65267112 C0.0613522538,10.8266277 0.0572621035,14.0005843 0.049081803,17.1745409 L0.0409015025,20.7084307 C0.0245409015,20.9211185 0.118614357,21.1010851 0.278130217,21.1747078 C2.73631052,22.5694491 5.19449082,23.9682805 7.65267112,25.3671119 L12.0005008,27.8416528 C12.0986644,27.903005 12.196828,27.9357262 12.2868114,27.9357262 C12.3645242,27.9357262 12.4340568,27.9111853 12.4913189,27.8661937 L18.7983306,24.2341402 C20.5898164,23.2034224 22.3813022,22.1686144 24.1605175,21.1460768 C24.3609349,21.0560935 24.4795492,20.8556761 24.4550083,20.6675292 L24.4754591,7.2927379 C24.5040902,6.98597663 24.2464107,6.84282137 24.090985,6.76101836 M12.2663606,7.60358932 L17.4526711,10.6221202 L12.2745409,13.6079299 L10.5116861,12.6099332 C9.35008347,11.951419 8.1884808,11.296995 7.02687813,10.6384808 L12.2663606,7.60358932 M18.1602671,10.2131052 L12.5281302,6.93689482 C12.3727045,6.82646077 12.168197,6.82646077 12.0209516,6.92462437 L6.31519199,10.2294658 L1.13297162,7.3009182 L4.74866444,5.18631052 C7.25592654,3.71794658 9.76318865,2.25367279 12.2745409,0.789398998 C14.5772955,2.11869783 16.8800501,3.43981636 19.1868948,4.76093489 C20.5939065,5.57078464 22.0009182,6.37654424 23.4079299,7.18639399 L18.1602671,10.2131052 M0.777128548,7.91444073 L5.93480801,10.834808 L6.04115192,17.2767947 C6.02888147,17.477212 6.12704508,17.6571786 6.28247078,17.7267112 C7.4236227,18.3852254 8.56886477,19.0396494 9.71410684,19.6981636 L11.9146077,20.96202 L11.9105175,26.9786311 L0.752587646,20.6307179 L0.777128548,7.91444073 M6.65058431,11.2397329 L11.922788,14.2214524 L11.9146077,20.1480801 L6.74874791,17.1786311 L6.65058431,11.2397329 M12.6262938,20.9661102 L14.8308848,19.7022538 C15.9597663,19.0519199 17.0927379,18.4056761 18.2297997,17.7512521 L18.2625209,17.7308013 C18.3238731,17.69399 18.4056761,17.6449082 18.4629382,17.5631052 L18.4956594,17.5181135 L18.4956594,17.4649416 C18.483389,16.0456594 18.483389,14.5977462 18.4874791,13.1989149 C18.4874791,12.413606 18.4915693,11.6282972 18.4874791,10.8429883 L23.763773,7.79991653 L23.7555927,12.9903172 L23.7433222,20.5693656 C21.3873957,21.9232053 19.0314691,23.2811352 16.6714524,24.6390651 L12.6181135,26.9745409 L12.6262938,20.9661102 M12.6262938,20.1521703 L12.630384,14.2214524 L17.8248748,11.2274624 L17.8248748,17.1704508 C16.0947412,18.1602671 14.3605175,19.1541736 12.6262938,20.1521703" id="Shape"></path>
                <path d="M12.115025,1.48881469 C11.9636895,1.50517529 11.8287145,1.6033389 11.759182,1.74649416 C11.6896494,1.89782972 11.6978297,2.06143573 11.7837229,2.18414023 C11.8655259,2.31502504 12.0168614,2.3927379 12.1804674,2.3927379 C12.2090985,2.3927379 12.2418197,2.38864775 12.2745409,2.3845576 C12.466778,2.35183639 12.6099332,2.22095159 12.6426544,2.05325543 C12.6835559,1.90601002 12.6467446,1.75058431 12.5363105,1.6360601 C12.4299666,1.51744574 12.2663606,1.46018364 12.115025,1.48881469 M12.413606,3.43981636 C12.2540902,3.35392321 12.0659432,3.35801336 11.9268781,3.45208681 C11.8041736,3.52161937 11.7223706,3.65250417 11.70601,3.80383973 C11.6937396,3.95517529 11.7550918,4.0942404 11.8532554,4.17195326 C11.9391486,4.25375626 12.0495826,4.29465776 12.168197,4.29465776 C12.2377295,4.29465776 12.3072621,4.27829716 12.3727045,4.24966611 C12.548581,4.17195326 12.6549249,4.0124374 12.6508347,3.84474124 C12.659015,3.68113523 12.5690317,3.52570952 12.413606,3.43981636 M12.4340568,5.35809683 C12.2786311,5.25993322 12.086394,5.25584307 11.9391486,5.34173623 C11.8041736,5.41126878 11.7182805,5.54215359 11.70601,5.70166945 C11.6937396,5.86118531 11.7632721,6.01661102 11.8818865,6.09432387 C11.9636895,6.15976628 12.0659432,6.19248748 12.1722871,6.19248748 C12.2418197,6.19248748 12.3113523,6.17612688 12.3767947,6.14749583 C12.5404007,6.07387312 12.6426544,5.93480801 12.6508347,5.77529215 C12.6631052,5.60759599 12.5813022,5.45217028 12.4340568,5.35809683 M4.83864775,17.886227 C4.67913189,17.9312187 4.55642738,18.0621035 4.51961603,18.2338898 C4.48280467,18.4097663 4.54415693,18.5856427 4.66686144,18.6797162 C4.74457429,18.7492487 4.8427379,18.7860601 4.94499165,18.7860601 C4.97771285,18.7860601 5.01452421,18.7819699 5.04724541,18.7737896 C5.19449082,18.7410684 5.31719533,18.6388147 5.36218698,18.5161102 C5.43989983,18.3565943 5.41126878,18.1643573 5.28447412,18.021202 C5.16994992,17.886227 4.99816361,17.8371452 4.83864775,17.886227 M19.2768781,18.7901503 C19.3136895,18.7901503 19.3505008,18.7860601 19.3914023,18.7737896 C19.5386477,18.7369783 19.653172,18.6347245 19.6899833,18.5202003 C19.7717863,18.3565943 19.7390651,18.1602671 19.6122705,18.0130217 C19.4895659,17.8780467 19.3136895,17.8289649 19.1541736,17.8821369 C18.9987479,17.9271285 18.8801336,18.0621035 18.8474124,18.2338898 C18.8146912,18.4097663 18.8760434,18.5815526 18.9946578,18.675626 C19.0682805,18.7533389 19.1705342,18.7901503 19.2768781,18.7901503 M3.21076795,18.8515025 C3.04716194,18.9087646 2.93672788,19.05601 2.92036728,19.2400668 C2.90400668,19.4282137 2.99398998,19.6040902 3.13714524,19.6858932 C3.20258765,19.7267947 3.2803005,19.7513356 3.35801336,19.7513356 C3.42345576,19.7513356 3.48480801,19.734975 3.55025042,19.7063439 C3.69340568,19.6409015 3.79156928,19.5100167 3.80383973,19.3791319 C3.84065109,19.219616 3.77520868,19.0396494 3.64023372,18.9292154 C3.51343907,18.8187813 3.35392321,18.7901503 3.21076795,18.8515025 M20.8638564,19.7472454 C20.9170284,19.7472454 20.9702003,19.7390651 21.0233723,19.7186144 C21.178798,19.6613523 21.2892321,19.5263773 21.3055927,19.3914023 C21.3505843,19.2318865 21.2974124,19.0601002 21.1665275,18.9414858 C21.043823,18.8269616 20.8720367,18.7901503 20.7247913,18.8474124 C20.5734558,18.9005843 20.4589316,19.0355593 20.4303005,19.2073456 C20.4016694,19.383222 20.4671119,19.5550083 20.5898164,19.6490818 C20.6675292,19.7104341 20.7656928,19.7472454 20.8638564,19.7472454 M1.98372287,19.8372287 C1.84465776,19.7595159 1.6851419,19.7595159 1.5542571,19.8372287 C1.41110184,19.9149416 1.32111853,20.0703673 1.32111853,20.2462437 C1.32111853,20.4262104 1.41928214,20.5816361 1.55834725,20.6511686 C1.6196995,20.68798 1.68923205,20.7043406 1.75876461,20.7043406 C1.84056761,20.7043406 1.92646077,20.6797997 2.00417362,20.6307179 C2.15141903,20.5366444 2.23322204,20.3689482 2.21686144,20.225793 C2.22095159,20.0662771 2.13096828,19.9190317 1.98372287,19.8372287 M22.1931553,20.6020868 C22.266778,20.6675292 22.3608514,20.7043406 22.459015,20.7043406 C22.5162771,20.7043406 22.5735392,20.6920701 22.6308013,20.6675292 C22.7903172,20.5979967 22.9007513,20.4507513 22.9089316,20.307596 C22.9416528,20.1317195 22.8598497,19.9517529 22.704424,19.8494992 C22.5612688,19.7513356 22.3853923,19.7472454 22.2463272,19.8372287 C22.1154424,19.9149416 22.0295492,20.0540067 22.0213689,20.2176127 C22.0131886,20.3771285 22.0827212,20.5284641 22.1931553,20.6020868" id="Shape"></path>
            </g>
        </g>
    </g>
</svg>