<?xml version="1.0" encoding="UTF-8"?>
<svg width="28px" height="28px" viewBox="0 0 28 28" version="1.1" xmlns="http://www.w3.org/2000/svg" xmlns:xlink="http://www.w3.org/1999/xlink">
    <!-- Generator: Sketch 48.2 (47327) - http://www.bohemiancoding.com/sketch -->
    <title>eng</title>
    <desc>Created with Sketch.</desc>
    <defs></defs>
    <g id="Page-1" stroke="none" stroke-width="1" fill="none" fill-rule="evenodd">
        <g id="eng">
            <path d="M27.9724179,14.0694289 C27.9724179,21.7630209 21.7356617,27.9997771 14.0420697,27.9997771 C6.34847761,27.9997771 0.111721393,21.7630209 0.111721393,14.0694289 C0.111721393,6.37583682 6.34847761,0.139080597 14.0420697,0.139080597 C21.7356617,0.139080597 27.9724179,6.37583682 27.9724179,14.0694289 Z" id="Fill-626" fill="#000000"></path>
            <g id="eng-copy" transform="translate(5.042070, 5.069429)">
                <rect id="Rectangle-2" x="0" y="0" width="18" height="18"></rect>
                <g id="Group-4" transform="translate(0.947368, 0.000000)" fill="#FFFFFF" fill-rule="nonzero">
                    <path d="M15.5196661,4.34636895 C15.5012217,4.33585142 15.4827773,4.32533389 15.4616979,4.31218698 C14.241731,3.61540067 13.0243989,2.91598497 11.8070669,2.21919866 C10.5291317,1.48823038 9.25383147,0.754632721 7.97589632,0.026293823 L7.93110272,0 L7.88367419,0.0184056761 C7.79935682,0.0499582638 7.73348388,0.0815108514 7.67288077,0.115692821 C6.56094544,0.76515025 5.4490101,1.41460768 4.33970969,2.06143573 C2.95901274,2.86865609 1.57568087,3.67324708 0.205523592,4.47783806 C0.034253932,4.55671953 0.0395237677,4.73551753 0.0421586855,4.8433222 C0.0421586855,4.86698664 0.0447936034,4.89328047 0.0421586855,4.91957429 C0.0395237677,6.95997496 0.0368888498,9.00037563 0.0316190141,11.0407763 L0.0263491785,13.3125626 C0.0158095071,13.4492905 0.0764126175,13.5649833 0.179174413,13.6123122 C1.76276004,14.5089316 3.34634566,15.4081803 4.92993129,16.307429 L7.73084896,17.8982053 C7.79408699,17.9376461 7.85732502,17.9586811 7.91529321,17.9586811 C7.96535665,17.9586811 8.01015025,17.9429048 8.0470391,17.9139816 L12.1100824,15.5790902 C13.2641764,14.9164858 14.4182705,14.2512521 15.5644597,13.5939065 C15.6935707,13.5360601 15.7699833,13.4072204 15.7541738,13.2862688 L15.7673484,4.68818865 C15.7857928,4.49098497 15.619793,4.39895659 15.5196661,4.34636895 M7.90211862,4.8880217 L11.2431944,6.82850584 L7.90738845,8.74795492 L6.77173886,8.10638564 C6.02342219,7.68305509 5.27510553,7.26235392 4.52678886,6.83902337 L7.90211862,4.8880217 M11.6990352,6.56556761 L8.07075336,4.45943239 C7.97062648,4.38843907 7.83888059,4.38843907 7.74402355,4.45154424 L4.06831315,6.57608514 L0.729872243,4.69344741 L3.05913962,3.33405676 C4.67434426,2.39010851 6.2895489,1.44878965 7.90738845,0.507470785 C9.3908472,1.36202003 10.8743059,2.21131052 12.3603996,3.060601 C13.2668114,3.5812187 14.1732231,4.09920701 15.0796348,4.61982471 L11.6990352,6.56556761 M0.500634391,5.08785476 L3.82326579,6.96523372 L3.89177366,11.1065109 C3.8838689,11.2353506 3.94710693,11.3510434 4.04723381,11.3957429 C4.78237589,11.8190735 5.52015289,12.2397746 6.25792988,12.6631052 L7.67551568,13.4755843 L7.67288077,17.3434057 L0.484824884,13.2626043 L0.500634391,5.08785476 M4.28437642,7.22554257 L7.68078552,9.14236227 L7.67551568,12.9523372 L4.34761445,11.0434057 L4.28437642,7.22554257 M8.13399139,13.4782137 L9.55421211,12.6657346 C10.2814494,12.2476628 11.0113217,11.8322204 11.7438288,11.4115192 L11.7649082,11.3983723 C11.8044319,11.3747078 11.8571303,11.3431553 11.8940192,11.2905676 L11.9150985,11.2616444 L11.9150985,11.2274624 C11.9071937,10.3150668 11.9071937,9.38426544 11.9098287,8.48501669 C11.9098287,7.98017529 11.9124636,7.47533389 11.9098287,6.97049249 L15.3088727,5.01423205 L15.3036028,8.3509182 L15.2956981,13.2231636 C13.7779854,14.0934891 12.2602727,14.9664441 10.7399251,15.839399 L8.12872155,17.3407763 L8.13399139,13.4782137 M8.13399139,12.9549666 L8.13662631,9.14236227 L11.482972,7.21765442 L11.482972,11.0381469 C10.3684017,11.6744574 9.25119656,12.3133973 8.13399139,12.9549666" id="Shape"></path>
                    <path d="M7.80462666,0.957095159 C7.7071347,0.967612688 7.62018241,1.03071786 7.57538881,1.12274624 C7.5305952,1.22003339 7.53586504,1.32520868 7.59119831,1.40409015 C7.64389667,1.48823038 7.74138863,1.53818865 7.84678534,1.53818865 C7.86522977,1.53818865 7.88630911,1.53555927 7.90738845,1.53292988 C8.03122959,1.51189482 8.12345172,1.42775459 8.14453106,1.31994992 C8.17088024,1.22529215 8.14716598,1.12537563 8.0760232,1.05175292 C8.00751533,0.975500835 7.90211862,0.938689482 7.80462666,0.957095159 M7.99697566,2.21131052 C7.89421387,2.15609349 7.77300764,2.15872287 7.68342044,2.21919866 C7.6043729,2.26389816 7.55167455,2.3480384 7.54113487,2.44532554 C7.53323012,2.54261269 7.57275389,2.63201169 7.63599192,2.68196995 C7.69132519,2.7345576 7.76246797,2.76085142 7.83888059,2.76085142 C7.88367419,2.76085142 7.9284678,2.75033389 7.97062648,2.73192821 C8.08392795,2.68196995 8.15243581,2.57942404 8.1498009,2.47161937 C8.15507073,2.36644407 8.09710254,2.26652755 7.99697566,2.21131052 M8.01015025,3.44449082 C7.91002337,3.38138564 7.78618223,3.37875626 7.69132519,3.43397329 C7.6043729,3.47867279 7.54903963,3.56281302 7.54113487,3.66535893 C7.53323012,3.76790484 7.57802372,3.86782137 7.65443634,3.91777963 C7.7071347,3.95984975 7.77300764,3.98088481 7.84151551,3.98088481 C7.88630911,3.98088481 7.93110272,3.97036728 7.9732614,3.9519616 C8.07865811,3.90463272 8.14453106,3.81523372 8.1498009,3.71268781 C8.15770565,3.60488314 8.10500729,3.50496661 8.01015025,3.44449082 M3.11710781,11.4982888 C3.01434602,11.527212 2.93529848,11.6113523 2.91158422,11.7217863 C2.88786996,11.8348497 2.92739373,11.9479132 3.00644126,12.008389 C3.0565047,12.0530885 3.11974273,12.0767529 3.18561568,12.0767529 C3.20669502,12.0767529 3.23040928,12.0741235 3.25148862,12.0688648 C3.34634566,12.0478297 3.4253932,11.9820952 3.4543773,11.9032137 C3.50444073,11.8006678 3.48599631,11.6770868 3.40431386,11.5850584 C3.33053616,11.4982888 3.21986961,11.4667362 3.11710781,11.4982888 M12.4183678,12.0793823 C12.4420821,12.0793823 12.4657963,12.0767529 12.4921455,12.0688648 C12.5870025,12.0452003 12.6607802,11.9794658 12.6844945,11.9058431 C12.7371929,11.8006678 12.7161135,11.6744574 12.6344311,11.5797997 C12.5553835,11.4930301 12.4420821,11.4614775 12.3393203,11.4956594 C12.2391934,11.5245826 12.1627808,11.6113523 12.1417014,11.7217863 C12.1206221,11.8348497 12.1601459,11.9452838 12.2365585,12.0057596 C12.283987,12.0557179 12.3498599,12.0793823 12.4183678,12.0793823 M2.06841051,12.118823 C1.96301379,12.1556344 1.89187101,12.2502922 1.88133134,12.3686144 C1.87079167,12.4895659 1.92875986,12.6026294 2.02098199,12.655217 C2.06314067,12.6815109 2.11320411,12.6972871 2.16326755,12.6972871 C2.20542624,12.6972871 2.24495,12.6867696 2.28710869,12.6683639 C2.37933081,12.6262938 2.44256884,12.5421536 2.4504736,12.4580134 C2.47418786,12.3554674 2.43202917,12.2397746 2.34507688,12.1687813 C2.26339443,12.097788 2.16063263,12.0793823 2.06841051,12.118823 M13.4407159,12.6946578 C13.4749699,12.6946578 13.5092238,12.689399 13.5434777,12.6762521 C13.6436046,12.6394407 13.7147474,12.5526711 13.7252871,12.4659015 C13.7542712,12.3633556 13.7200172,12.2529215 13.6356999,12.1766694 C13.5566523,12.1030467 13.4459858,12.0793823 13.3511287,12.1161937 C13.2536368,12.1503756 13.1798591,12.2371452 13.1614146,12.3475793 C13.1429702,12.4606427 13.1851289,12.5710768 13.2641764,12.6315526 C13.3142399,12.6709933 13.3774779,12.6946578 13.4407159,12.6946578 M1.27793516,12.7525042 C1.18834795,12.7025459 1.08558615,12.7025459 1.00126878,12.7525042 C0.909046657,12.8024624 0.851078464,12.902379 0.851078464,13.0154424 C0.851078464,13.1311352 0.914316492,13.2310518 1.0039037,13.2757513 C1.04342747,13.2994157 1.08822107,13.3099332 1.13301467,13.3099332 C1.18571303,13.3099332 1.24104631,13.2941569 1.29110974,13.2626043 C1.38596679,13.2021285 1.43866514,13.0943239 1.42812547,13.0022955 C1.43076039,12.8997496 1.3727922,12.8050918 1.27793516,12.7525042 M14.2970642,13.2441987 C14.3444928,13.2862688 14.4050959,13.3099332 14.4683339,13.3099332 C14.5052227,13.3099332 14.5421116,13.3020451 14.5790004,13.2862688 C14.6817622,13.2415693 14.752905,13.1469115 14.7581749,13.0548831 C14.7792542,12.9418197 14.7265558,12.8261269 14.626429,12.7603923 C14.5342068,12.6972871 14.4209054,12.6946578 14.3313182,12.7525042 C14.2470008,12.8024624 14.1916675,12.8918614 14.1863977,12.9970367 C14.1811278,13.0995826 14.2259214,13.1968698 14.2970642,13.2441987" id="Shape"></path>
                </g>
            </g>
        </g>
    </g>
</svg>