<?xml version="1.0" encoding="UTF-8"?>
<svg width="28px" height="28px" viewBox="0 0 28 28" version="1.1" xmlns="http://www.w3.org/2000/svg" xmlns:xlink="http://www.w3.org/1999/xlink">
    <!-- Generator: Sketch 50 (54983) - http://www.bohemiancoding.com/sketch -->
    <title>enjin</title>
    <desc>Created with Sketch.</desc>
    <defs>
        <radialGradient cx="19.7348992%" cy="16.048556%" fx="19.7348992%" fy="16.048556%" r="55.5423921%" id="radialGradient-1">
            <stop stop-color="#00FAFF" offset="0%"></stop>
            <stop stop-color="#00FAFF" offset="39%"></stop>
            <stop stop-color="#C864E9" offset="85%"></stop>
        </radialGradient>
        <radialGradient cx="49.752893%" cy="45.9019054%" fx="49.752893%" fy="45.9019054%" r="57.8720653%" gradientTransform="translate(0.497529,0.459019),scale(0.788957,1.000000),translate(-0.497529,-0.459019)" id="radialGradient-2">
            <stop stop-color="#00FFFF" offset="50%"></stop>
            <stop stop-color="#00F4FF" stop-opacity="0" offset="100%"></stop>
        </radialGradient>
        <linearGradient x1="62.222603%" y1="55.5761305%" x2="116.048325%" y2="80.1326086%" id="linearGradient-3">
            <stop stop-color="#9634D6" offset="0%"></stop>
            <stop stop-color="#BF43DD" offset="100%"></stop>
        </linearGradient>
        <linearGradient x1="64.212147%" y1="51.1065093%" x2="99.694151%" y2="76.4327237%" id="linearGradient-4">
            <stop stop-color="#9634D6" offset="0%"></stop>
            <stop stop-color="#BF43DD" offset="100%"></stop>
        </linearGradient>
        <linearGradient x1="3.9491749%" y1="24.5335875%" x2="87.7109861%" y2="95.7706488%" id="linearGradient-5">
            <stop stop-color="#BF43DD" offset="0%"></stop>
            <stop stop-color="#8669E1" offset="50%"></stop>
            <stop stop-color="#00FFF3" offset="100%"></stop>
        </linearGradient>
        <linearGradient x1="17.0099534%" y1="49.752128%" x2="91.7611185%" y2="74.3709662%" id="linearGradient-6">
            <stop stop-color="#BF43DD" offset="0%"></stop>
            <stop stop-color="#8669E1" offset="51%"></stop>
            <stop stop-color="#04A7F1" offset="100%"></stop>
        </linearGradient>
        <linearGradient x1="13.960507%" y1="5.6309045%" x2="79.0664252%" y2="124.066972%" id="linearGradient-7">
            <stop stop-color="#BF43DD" offset="0%"></stop>
            <stop stop-color="#8669E1" offset="51%"></stop>
            <stop stop-color="#04A7F1" offset="100%"></stop>
        </linearGradient>
        <linearGradient x1="82.0604342%" y1="79.4563544%" x2="57.4810034%" y2="50.6899206%" id="linearGradient-8">
            <stop stop-color="#FFFFFF" offset="0%"></stop>
            <stop stop-color="#00FFF3" offset="100%"></stop>
        </linearGradient>
        <linearGradient x1="0.259571309%" y1="97.9571929%" x2="62.6036012%" y2="16.3481953%" id="linearGradient-9">
            <stop stop-color="#FFFFFF" stop-opacity="0" offset="0%"></stop>
            <stop stop-color="#FFFFFF" offset="83%"></stop>
        </linearGradient>
        <linearGradient x1="55.7137792%" y1="65.7295022%" x2="46.906014%" y2="32.9454722%" id="linearGradient-10">
            <stop stop-color="#FFFFFF" stop-opacity="0" offset="0%"></stop>
            <stop stop-color="#FFFFFF" offset="100%"></stop>
        </linearGradient>
    </defs>
    <g id="enjin" stroke="none" stroke-width="1" fill="none" fill-rule="evenodd">
        <g>
            <rect id="Rectangle-2" x="0" y="0" width="28" height="28"></rect>
            <g id="Group-2" transform="translate(1.500000, 1.000000)" fill-rule="nonzero">
                <circle id="Oval" fill="url(#radialGradient-1)" cx="13.0086572" cy="13.0086572" r="13.0086572"></circle>
                <path d="M21.9267861,9.85443416 C23.5251163,11.7752894 24.6517203,14.0789756 24.6517203,16.697146 C24.6517203,22.4597117 19.6740249,27.1291768 13.533542,27.1291768 C7.39305917,27.1291768 2.41625722,22.4588183 2.41625722,16.697146 C2.41625722,10.9354736 5.80723681,11.6859473 11.9490598,11.6859473 C15.2993887,11.6859473 20.9583176,8.69209337 21.9267861,9.85443416 Z" id="Shape" fill="url(#radialGradient-2)"></path>
                <path d="M4.26921248,15.9721348 L2.93265459,13.8064822 C4.37776313,18.8132137 6.38304667,20.1131413 8.14621311,21.284863 C6.03818615,19.1125098 4.26921248,15.9721348 4.26921248,15.9721348 Z" id="Shape" fill="url(#linearGradient-3)"></path>
                <path d="M22.2426104,9.66324205 L22.2301025,9.49527889 L20.1019736,9.49527889 L22.2461841,7.66376575 L22.2426104,7.57442364 C22.1532683,5.45701576 21.1785459,4.09276182 21.149063,4.03558287 L21.098138,3.93775327 L9.59042824,3.93775327 C8.50313482,3.93775327 7.00933483,4.19639866 5.45969602,5.9300822 C4.57967629,6.91284536 2.96481775,9.00613087 2.8142763,11.4219414 C2.6994717,12.8514151 2.88709012,14.1218598 3.42760985,15.3677354 C3.68339053,15.9657064 3.98944244,16.5408987 4.342473,17.0871242 C5.43423352,19.0463966 6.62427036,20.4097571 7.87952693,21.1405755 C8.94269798,21.7588229 9.88436376,21.8423578 10.664767,21.8423578 L17.1867407,21.8423578 L17.2260512,21.8213624 C17.2474933,21.8101946 19.3809828,20.6943117 21.308092,19.5243769 L21.3639308,19.4904269 L21.3853729,19.4292275 C21.3916269,19.4109124 21.3987742,19.3934907 21.4063683,19.3756223 C21.4193229,19.3425657 21.4345111,19.3054887 21.4479124,19.2617111 C21.6851157,18.5822644 21.8830084,17.1219677 21.9794979,16.3134216 C22.017915,16.0190394 22.0402505,15.8256137 22.0402505,15.82204 L22.0639262,15.6196802 L22.0558854,15.6196802 L22.0724137,15.4561841 L19.79419,15.4561841 L22.2345696,13.6081427 L22.2412703,13.5272881 C22.3931518,11.7337453 22.2461841,9.68379074 22.2426104,9.66324205 Z" id="Shape" fill="url(#linearGradient-4)"></path>
                <path d="M12.6557558,17.7790788 C12.6557558,17.7790788 10.4976973,17.9850124 4.14189998,16.3250361 C6.73550128,21.3849262 9.1642664,21.6596532 10.9725506,21.6596532 L17.1416229,21.6596532 C17.1416229,21.6596532 19.2688584,20.5486841 21.2133894,19.3680282 L12.6557558,17.7790788 Z" id="Shape" fill="#FFFFFF"></path>
                <path d="M10.9725506,21.4832025 C10.1934874,21.4832025 9.10038679,21.4899032 8.01443351,20.7823137 C6.12708154,19.5520729 5.50481378,18.5831578 4.42556116,16.5506249 C9.27281705,17.7960538 11.5970519,17.933194 12.3801355,17.933194 C12.5226361,17.933194 12.6097447,17.9282802 12.6481618,17.9255999 L21.019517,19.2822598 C19.3037019,20.306567 17.2801032,21.3608038 17.0469203,21.4832025 L10.9725506,21.4832025 Z" id="Shape" fill="url(#linearGradient-5)"></path>
                <path d="M8.65367627,15.8014914 C8.65367627,15.8014914 7.61150062,14.5953729 7.24832496,13.6760427 L19.0388025,15.8014914 L22.0616926,13.5125466 C22.058119,11.6363624 22.0496315,9.84013942 22.0496315,9.84013942 L7.24832496,9.84013942 C7.24832496,9.84013942 7.77142298,8.34142561 8.71398219,7.74462035 L19.5105288,9.76062495 L22.0567788,7.5811243 C21.9540354,5.53161642 20.9721657,4.28172037 20.9721657,4.28172037 L9.57881376,4.28172037 C8.58443614,4.28172037 6.55190325,4.50150195 5.02236642,6.21374339 C3.49282959,7.92598482 2.12544867,11.7395526 3.59423287,15.2944749 C5.08490589,18.9038959 7.01960917,19.3680282 8.11404995,19.3680282 L21.2133894,19.3680282 C21.2321512,19.3153163 21.2580604,19.2666249 21.2745887,19.2045321 C21.5899663,18.1386808 21.8597795,15.8014914 21.8597795,15.8014914 L8.65367627,15.8014914 Z" id="Shape" fill="#FFFFFF"></path>
                <path d="M11.8047723,5.4882855 C11.8047723,5.4882855 7.54940785,6.31827365 7.34168746,6.4223572 C7.13396707,6.52644075 6.30397891,10.2640677 6.30397891,10.2640677 L18.6635657,10.2640677 L21.8325301,7.58380456 L11.8047723,5.4882855 Z" id="Shape" fill="url(#linearGradient-6)"></path>
                <path d="M11.8078993,11.4197078 C11.8078993,11.4197078 7.55253483,12.249696 7.34526114,12.3537795 C7.13798746,12.4578631 6.30710589,16.19549 6.30710589,16.19549 L18.2106012,16.19549 L21.8486117,13.4459868 L11.8078993,11.4197078 Z" id="Shape" fill="url(#linearGradient-7)"></path>
                <polygon id="Shape" fill="#BD15D4" points="6.23473878 8.25565719 5.95822497 10.8849953 8.72559666 11.0234756 8.72559666 7.18310522"></polygon>
                <path d="M22.0616926,13.5125466 L7.25993943,13.5125466 C7.62311509,14.4287499 8.66618416,15.6379953 8.66618416,15.6379953 L21.871394,15.6379953 C21.871394,15.6379953 21.6118551,18.2445512 21.2745887,19.2045321 L8.51206903,19.2045321 C6.88559601,19.2045321 5.13672431,18.6595453 3.60584735,15.1314256 C2.07497038,11.6033059 3.50221051,7.76070193 5.03264076,6.05024733 C6.56307102,4.33979274 8.59605061,4.11822432 9.5890881,4.11822432 L20.9851203,4.11822432 C20.9851203,4.11822432 21.9719038,5.47935129 22.0572255,7.5811243 L8.72559666,7.5811243 C7.78303746,8.17792956 7.25993943,9.67664337 7.25993943,9.67664337 L22.0616926,9.67664337 C22.0616926,9.67664337 22.2126808,11.7123032 22.0616926,13.5125466 Z" id="Shape" fill="url(#linearGradient-8)"></path>
                <path d="M4.36704208,6.59523417 C3.65766577,8.06535851 2.87279538,10.2582605 3.46468682,12.4256999 C3.79212564,10.8010138 4.32147761,8.67333153 6.34909667,6.25350062 L6.82305654,4.64087563 C6.82305654,4.64087563 5.07597168,5.12510984 4.36704208,6.59523417 Z" id="Shape" fill="url(#linearGradient-9)"></path>
                <path d="M19.4193999,3.18459932 C19.4193999,3.18459932 18.4938157,2.46539538 16.7775539,1.89628617 C14.079869,1.00286513 9.64179995,0.480660524 5.40877102,3.70054998 C3.49863682,5.1532526 2.57707301,7.01737562 2.09551907,8.55048614 C0.829541443,12.5784749 3.2047013,15.9721348 3.2047013,15.9721348 C3.2047013,15.9721348 1.30350131,11.312944 4.43628221,7.51724469 C4.84199385,7.02838137 5.28755125,6.57400846 5.76837299,6.15879799 C6.9360743,7.09331641 8.96592692,7.1777447 10.1372019,6.22937825 C11.2736335,5.30960129 10.6607467,4.07802037 10.2864032,3.52275919 C13.169473,2.45378091 16.459496,2.19111512 19.4193999,3.18459932 Z" id="Shape" fill="url(#linearGradient-10)"></path>
                <path d="M5.13717102,17.8000742 L3.78185129,15.7268907 C4.8816526,18.4661196 6.38974733,19.7392446 6.82305654,20.1082275 C5.3694605,18.7135973 5.13717102,17.8000742 5.13717102,17.8000742 Z" id="Shape" fill="#FFFFFF"></path>
            </g>
        </g>
    </g>
</svg>