<?xml version="1.0" encoding="UTF-8"?>
<svg width="28px" height="28px" viewBox="0 0 28 28" version="1.1" xmlns="http://www.w3.org/2000/svg" xmlns:xlink="http://www.w3.org/1999/xlink">
    <!-- Generator: Sketch 48.2 (47327) - http://www.bohemiancoding.com/sketch -->
    <title>EOS</title>
    <desc>Created with Sketch.</desc>
    <defs></defs>
    <g id="Page-1" stroke="none" stroke-width="1" fill="none" fill-rule="evenodd">
        <g id="EOS">
            <path d="M27.9724179,14.0694289 C27.9724179,21.7630209 21.7356617,27.9997771 14.0420697,27.9997771 C6.34847761,27.9997771 0.111721393,21.7630209 0.111721393,14.0694289 C0.111721393,6.37583682 6.34847761,0.139080597 14.0420697,0.139080597 C21.7356617,0.139080597 27.9724179,6.37583682 27.9724179,14.0694289 Z" id="Fill-626" fill="#000000"></path>
            <path d="M9.84489935,11.3343938 L10.701869,13.9928311 L8.30745942,18.2278593 L9.84489935,11.3343938 Z M17.3822225,13.9928311 L18.2393017,11.3343938 L19.7766321,18.2278593 L17.3822225,13.9928311 Z M17.18414,14.6073764 L20.0355197,19.6507035 L14.4641214,23.0448098 L17.18414,14.6073764 Z M13.6200797,23.0448098 L8.04857175,19.6507035 L10.8999515,14.6073764 L13.6200797,23.0448098 Z M14.0421005,9.04990763 L16.8666383,14.0458434 L14.0421005,22.8075221 L11.2174532,14.0458434 L14.0421005,9.04990763 Z M13.8050151,8.50435541 L11.0193707,13.4312981 L10.0659892,10.4737438 L13.8050151,5.29265095 L13.8050151,8.50435541 Z M14.279186,5.29265095 L18.0182118,10.4737438 L17.0647208,13.4312981 L14.279186,8.50435541 L14.279186,5.29265095 Z M20.5870392,19.6822243 L18.5123224,10.3796223 C18.5052011,10.3478811 18.4918349,10.3180134 18.4728812,10.2917829 L14.2340477,4.41800401 C14.1893477,4.35617476 14.1180248,4.31958418 14.0421005,4.31958418 C13.9661762,4.31958418 13.8947438,4.35617476 13.8501533,4.41800401 L9.61131979,10.2917829 C9.5923661,10.3180134 9.57889036,10.3478811 9.57176903,10.3796223 L7.49705229,19.6822243 C7.47481183,19.7822974 7.51852583,19.8854563 7.60562515,19.9385788 L13.9191754,23.7848872 C13.922024,23.7865404 13.9249821,23.7877527 13.9278306,23.7892957 C13.9318843,23.7915 13.9359379,23.7937042 13.9402107,23.795688 C13.9467843,23.7988842 13.9533578,23.8016395 13.96026,23.8041744 C13.9644233,23.8057174 13.9684769,23.8072604 13.9727497,23.8085829 C13.9803093,23.8108974 13.9877593,23.8125506 13.9954284,23.8140935 C13.999263,23.814865 14.0030975,23.8159672 14.0069321,23.8165182 C14.0185454,23.8182816 14.0303777,23.8192735 14.0421005,23.8192735 C14.0538233,23.8192735 14.0655461,23.8182816 14.0771594,23.8165182 C14.0811035,23.8159672 14.0848285,23.814865 14.088663,23.8140935 C14.0963322,23.8125506 14.1038917,23.8108974 14.1113417,23.8085829 C14.1156145,23.8072604 14.1197778,23.8057174 14.1240506,23.8041744 C14.1307337,23.8016395 14.1374168,23.7988842 14.1439903,23.795688 C14.1481535,23.7937042 14.1522072,23.7915 14.1563704,23.7892957 C14.1591094,23.7877527 14.1620675,23.7865404 14.164916,23.7848872 L20.4785759,19.9385788 C20.5656752,19.8854563 20.6093892,19.7822974 20.5870392,19.6822243 Z" id="Fill-628" fill="#FFFFFF"></path>
        </g>
    </g>
</svg>