<svg width="28" height="28" viewBox="0 0 28 28" version="1.1" xmlns="http://www.w3.org/2000/svg" xmlns:xlink="http://www.w3.org/1999/xlink">
<title>eos</title>
<desc>Created using Figma</desc>
<g id="Canvas" transform="translate(-785 35)">
<g id="eos">
<g id="Vector">
<use xlink:href="#path0_fill" transform="translate(785 -35)"/>
</g>
<g id="Vector (Stroke)">
<use xlink:href="#path1_fill" transform="translate(791.801 -31.514)" fill="#FFFFFF"/>
</g>
</g>
</g>
<defs>
<path id="path0_fill" d="M 14 28C 21.732 28 28 21.732 28 14C 28 6.26801 21.732 0 14 0C 6.26801 0 0 6.26801 0 14C 0 21.732 6.26801 28 14 28Z"/>
<path id="path1_fill" fill-rule="evenodd" d="M 7.2023 9.66486e-06C 7.37866 -0.00102667 7.54938 0.0815057 7.65754 0.229278L 12.1275 6.33613C 12.1409 6.35398 12.1532 6.37259 12.1643 6.39184C 12.1745 6.40941 12.1837 6.42751 12.1919 6.44607C 12.2085 6.48353 12.221 6.52285 12.2291 6.56332L 14.3909 16.4398C 14.3923 16.446 14.3936 16.4523 14.3948 16.4585C 14.3977 16.4741 14.4 16.4898 14.4016 16.5055C 14.4087 16.5737 14.4032 16.6429 14.3851 16.7095C 14.3724 16.7564 14.3535 16.8019 14.3284 16.845C 14.2908 16.9095 14.2414 16.9648 14.1838 17.0086C 14.1703 17.0189 14.1563 17.0286 14.1419 17.0376C 14.1417 17.0377 14.1414 17.0379 14.1412 17.038L 7.50301 21.1975C 7.41074 21.2553 7.3063 21.2836 7.2023 21.283C 7.0983 21.2836 6.99386 21.2553 6.90159 21.1975L 0.26347 17.0381C 0.262858 17.0377 0.262245 17.0373 0.261634 17.0369C 0.247621 17.0281 0.233994 17.0186 0.220796 17.0086C 0.152446 16.9566 0.0982032 16.8905 0.060588 16.8164C 0.0420364 16.7798 0.027742 16.7417 0.017709 16.7028C 0.000138892 16.6346 -0.00436215 16.5638 0.00422892 16.4943C 0.00634064 16.4772 0.00925675 16.4602 0.0129509 16.4433C 0.0132035 16.4421 0.0134464 16.441 0.0137064 16.4398L 2.17547 6.56334C 2.18536 6.51388 2.20186 6.46614 2.22431 6.4214C 2.22632 6.4174 2.22838 6.41342 2.23048 6.40946C 2.24409 6.3839 2.25967 6.35937 2.27709 6.33614L 6.74706 0.229278C 6.85522 0.0815047 7.02594 -0.00102785 7.2023 9.66486e-06ZM 6.63894 2.27323L 3.34475 6.77376L 4.10705 9.16766L 6.63894 4.69962L 6.63894 2.27323ZM 7.2023 5.9772L 4.57019 10.6221L 6.28365 16.003L 8.12095 16.003L 9.83441 10.6221L 7.2023 5.9772ZM 10.5869 11.9501L 9.29636 16.003L 12.8836 16.003L 10.5869 11.9501ZM 11.8962 17.123L 8.93972 17.123L 8.20276 19.4373L 11.8962 17.123ZM 7.2023 18.8879L 7.7643 17.123L 6.6403 17.123L 7.2023 18.8879ZM 5.10824 16.003L 3.81765 11.9501L 1.521 16.003L 5.10824 16.003ZM 1.89913 13.064L 3.35451 10.4957L 2.82515 8.83326L 1.89913 13.064ZM 2.50838 17.123L 5.46488 17.123L 6.20184 19.4373L 2.50838 17.123ZM 12.5055 13.064L 11.0501 10.4957L 11.5795 8.83326L 12.5055 13.064ZM 11.0599 6.77376L 10.2976 9.16766L 7.76566 4.69962L 7.76566 2.27323L 11.0599 6.77376Z"/>
</defs>
</svg>
