<svg width="29" height="28" viewBox="0 0 29 28" version="1.1" xmlns="http://www.w3.org/2000/svg" xmlns:xlink="http://www.w3.org/1999/xlink">
<title>fun</title>
<desc>Created using Figma</desc>
<g id="Canvas" transform="translate(-561 35)">
<g id="fun">
<g id="bg">
<use xlink:href="#path0_fill" transform="translate(561 -35)" fill="#FFFFFF"/>
</g>
<g id="fun">
<use xlink:href="#path1_fill" transform="translate(561 -35)" fill="#F1385B"/>
</g>
</g>
</g>
<defs>
<path id="path0_fill" d="M 0 14C 0 6.26801 6.26801 0 14 0C 21.732 0 28 6.26801 28 14C 28 21.732 21.732 28 14 28C 6.26801 28 0 21.732 0 14Z"/>
<path id="path1_fill" d="M 1.58712 14.0404C 1.58764 14.8075 1.65846 15.573 1.79868 16.3272L 0.238637 16.6184C 0.397219 17.4687 0.634684 18.3024 0.947952 19.1086L 2.42719 18.5334C 2.70506 19.2478 3.04847 19.935 3.453 20.5861L 2.10508 21.4238C 2.5615 22.158 3.08457 22.8487 3.66765 23.487L 4.83937 22.4168C 5.35674 22.9832 5.92497 23.5009 6.5369 23.9635L 5.58039 25.2298C 6.27034 25.7512 7.00701 26.2077 7.781 26.5934L 8.48864 25.1727C 9.17496 25.5143 9.89151 25.7914 10.6291 26.0004L 10.197 27.529C 11.029 27.7644 11.881 27.9221 12.7421 28L 12.8859 26.4196C 13.2633 26.454 13.6479 26.4714 14.029 26.4714C 14.414 26.4714 14.8025 26.4536 15.1835 26.4186L 15.3288 27.9989C 16.19 27.92 17.0419 27.7614 17.8737 27.5251L 17.4395 25.9983C 18.1767 25.7884 18.8929 25.5106 19.5787 25.1684L 20.2876 26.5884C 21.0611 26.202 21.7973 25.7449 22.4867 25.2231L 21.5292 23.9576C 22.1408 23.4945 22.7087 22.9763 23.2257 22.4095L 24.3984 23.4788C 24.981 22.8399 25.5035 22.1487 25.9593 21.414L 24.6108 20.5774C 25.0149 19.9257 25.3577 19.238 25.635 18.5231L 27.1148 19.0965C 27.4273 18.29 27.664 17.4561 27.8218 16.6056L 26.2646 16.3159C 26.405 15.5618 26.4761 14.7963 26.4769 14.0292L 26.4769 14.0066L 28.0612 14.0039C 28.0596 13.1395 27.9785 12.2771 27.819 11.4276L 26.2586 11.7201C 26.1169 10.9668 25.9055 10.2283 25.6272 9.51403L 27.1059 8.93785C 26.7919 8.13205 26.4039 7.35712 25.9467 6.62304L 24.5999 7.46198C 24.1942 6.81096 23.7296 6.19858 23.2118 5.63258L 24.3826 4.56131C 23.799 3.92349 23.158 3.34065 22.4677 2.82015L 21.5123 4.08726C 20.8998 3.62557 20.2459 3.22136 19.5591 2.87977L 20.2654 1.45833C 19.4906 1.07336 18.6815 0.76141 17.8488 0.526515L 17.4175 2.05401C 16.6797 1.84601 15.9241 1.70672 15.1606 1.63791L 15.3035 0.0572391C 14.8838 0.0198279 14.459 0.000748223 14.0292 2.67585e-10C 13.5866 2.67585e-10 13.1492 0.0202488 12.7169 0.0607464L 12.8636 1.64099C 12.1003 1.71188 11.3452 1.85324 10.6079 2.06327L 10.1724 0.536897C 9.34068 0.774311 8.53285 1.08866 7.7594 1.47587L 8.46942 2.8952C 7.78381 3.23859 7.13131 3.64444 6.5202 4.1076L 5.56159 2.84301C 4.87266 3.36529 4.23319 3.94977 3.65124 4.58909L 4.82492 5.65755C 4.30865 6.22495 3.84561 6.8386 3.44164 7.49074L 2.09231 6.65544C 1.63691 7.39081 1.25076 8.16687 0.938833 8.97363L 2.41919 9.54574C 2.1431 10.2607 1.93401 10.9998 1.79461 11.7535L 0.234148 11.4656C 0.0781374 12.3112 -0.000237835 13.1693 5.42255e-07 14.0292C 5.42255e-07 14.0334 5.42255e-07 14.0376 5.42255e-07 14.0418L 1.58712 14.0404ZM 15.448 23.8681L 15.3638 23.2774C 16.2454 23.1515 17.1044 22.8993 17.9141 22.5286L 18.1626 23.0713C 17.3005 23.4656 16.3861 23.7338 15.4475 23.8674L 15.448 23.8681ZM 23.969 14.0285C 23.9697 14.9763 23.8351 15.9193 23.5692 16.829L 22.9965 16.6606C 23.2464 15.8057 23.373 14.9195 23.3723 14.0288L 23.3723 14.0133L 23.9691 14.0118L 23.9691 14.0279L 23.969 14.0285ZM 22.3837 8.6424C 22.8983 9.43832 23.2958 10.3041 23.5641 11.2131L 22.9917 11.3815C 22.7396 10.5271 22.3661 9.7135 21.8824 8.96549L 22.3837 8.6424ZM 21.8909 19.079L 22.3927 19.4017C 21.8797 20.1985 21.2559 20.9182 20.54 21.5391L 20.1496 21.0888C 20.8224 20.5049 21.4087 19.8282 21.8909 19.079ZM 18.1467 4.97966C 19.0091 5.37288 19.8108 5.88739 20.5275 6.50758L 20.1371 6.95903C 19.4634 6.37609 18.7098 5.89247 17.8991 5.52287L 18.1467 4.97966ZM 16.6423 11.5779L 18.0327 11.5779L 19.8409 14.2448L 19.8409 11.5779L 21.2579 11.5779L 21.2579 16.4039L 19.8476 16.4039L 18.0452 13.7515L 18.0452 16.4039L 16.6423 16.4039L 16.6423 11.5779ZM 14.0292 4.08979C 14.498 4.08983 14.9663 4.12264 15.4306 4.18799L 15.3471 4.7789C 14.4648 4.65485 13.5695 4.65598 12.6876 4.78227L 12.6027 4.1915C 13.0752 4.1238 13.5519 4.08981 14.0292 4.08979ZM 11.1568 11.5779L 12.6439 11.5779L 12.6439 14.5182C 12.6439 14.7811 12.7182 14.9864 12.8639 15.1343C 13.0097 15.2821 13.2125 15.3561 13.4712 15.3561C 13.7277 15.3561 13.9318 15.2832 14.0777 15.1376C 14.2236 14.992 14.2994 14.7855 14.2994 14.5184L 14.2994 11.5779L 15.7865 11.5779L 15.7865 14.4498C 15.7871 14.7245 15.741 14.9972 15.6501 15.2565C 15.5626 15.5066 15.4192 15.7336 15.2309 15.9202C 15.0413 16.1097 14.8421 16.2428 14.6333 16.3194C 14.3439 16.4267 13.9964 16.4804 13.5906 16.4805C 13.3339 16.4791 13.0775 16.4627 12.8227 16.4313C 12.5454 16.3983 12.3135 16.3331 12.1271 16.2357C 11.9407 16.1382 11.7702 15.9997 11.6157 15.82C 11.4614 15.6404 11.3537 15.4552 11.2966 15.2647C 11.2045 14.9581 11.1563 14.6864 11.1563 14.4499L 11.1563 11.5779L 11.1568 11.5779ZM 12.7036 23.2782L 12.6194 23.8691C 11.6808 23.736 10.7662 23.4683 9.9039 23.0745L 10.1518 22.5316C 10.9621 22.9017 11.8215 23.1531 12.7036 23.2782ZM 9.88903 4.9906L 10.1379 5.53311C 9.32829 5.90473 8.57597 6.39018 7.90376 6.97475L 7.51221 6.52427C 8.22734 5.90238 9.02771 5.38593 9.88903 4.9906ZM 6.8078 11.5779L 10.4834 11.5779L 10.4834 12.616L 8.30892 12.616L 8.30892 13.4578L 10.1748 13.4578L 10.1748 14.4258L 8.30892 14.4258L 8.30892 16.4039L 6.8078 16.4039L 6.8078 11.5779ZM 7.91611 21.0939L 7.52539 21.5449C 6.80902 20.9245 6.18462 20.2053 5.67102 19.409L 6.17256 19.0856C 6.65547 19.8344 7.24254 20.5106 7.91611 21.0939ZM 5.6619 8.664L 6.164 8.98667C 5.68229 9.7359 5.31078 10.5505 5.06089 11.4054L 4.48737 11.2374C 4.75332 10.3275 5.14869 9.46064 5.66134 8.6633L 5.6619 8.664ZM 4.68729 14.0372C 4.68732 14.9279 4.81459 15.8141 5.06524 16.6689L 4.49271 16.8373C 4.22602 15.928 4.09058 14.9853 4.09049 14.0377L 4.68729 14.0372Z"/>
</defs>
</svg>
