<?xml version="1.0" encoding="UTF-8"?>
<svg width="28px" height="28px" viewBox="0 0 27 28" version="1.1" xmlns="http://www.w3.org/2000/svg" xmlns:xlink="http://www.w3.org/1999/xlink">
    <!-- Generator: Sketch 48.2 (47327) - http://www.bohemiancoding.com/sketch -->
    <title>gifto</title>
    <desc>Created with Sketch.</desc>
    <defs></defs>
    <g id="Symbols" stroke="none" stroke-width="1" fill="none" fill-rule="evenodd">
        <g id="gifto">
            <g>
                <path d="M12.6075552,26.9703533 C5.25228391,26.4439206 -0.048728597,19.684153 1.17637359,12.4026115 C2.05211204,7.18953093 6.18857874,3.05260907 11.4010858,2.17677426 C15.4210979,1.50126337 19.4457682,2.78240471 22.3291836,5.66613741 C28.2311018,11.568705 26.8243304,21.384577 19.4876919,25.4702532 C17.4893312,26.5883402 14.9506214,27.1380663 12.6075552,26.9703533 Z" id="Path-Copy" fill="#FFFFFF"></path>
                <g id="Group" transform="translate(13.066667, 14.000000) scale(-1, 1) rotate(-180.000000) translate(-13.066667, -14.000000) " fill-rule="nonzero">
                    <path d="M12.1319424,27.9634805 C4.44480874,27.3739519 -1.09538003,19.8039873 0.184997516,11.6497112 C1.10024839,5.81181293 5.42334824,1.1790572 10.8710383,0.198248556 C15.0724292,-0.558226197 19.2786885,0.8764673 22.2922007,4.10583194 C28.4604074,10.7158562 26.9901639,21.7082169 19.3225037,26.2835849 C17.2339791,27.535681 14.5807253,28.151295 12.1319424,27.9634805 Z M10.9148535,21.2282467 C11.3043219,21.0039128 11.7814208,20.5187255 12.0881272,20.0335383 C12.3120715,19.6735606 12.8573274,18.5153717 12.8573274,18.3953792 C12.8573274,18.3484256 12.9400894,18.3275573 13.0861401,18.3275573 C13.2370591,18.3275573 13.3198212,18.3484256 13.3198212,18.3953792 C13.3198212,18.5153717 13.865077,19.6735606 14.0890214,20.0335383 C14.3908594,20.5135085 14.8679583,21.0039128 15.2622951,21.2282467 L15.5933433,21.4212782 L16.1288624,21.4212782 L16.6643815,21.4212782 L16.985693,21.2595491 C17.5796324,20.9673933 17.8668654,20.4665549 17.8668654,19.7205143 C17.8668654,19.1779393 17.7646299,18.849264 17.4579235,18.4475498 L17.204769,18.1084405 L18.4169896,18.1032234 C19.7411823,18.1032234 19.9067064,18.0771381 20.2280179,17.8162847 C20.9777447,17.2006708 20.7684054,15.901621 19.8628912,15.5572946 L19.6438152,15.4790386 L16.6351714,15.4790386 L13.6265276,15.4790386 L13.6265276,16.600708 L13.6265276,17.7223775 L13.0861401,17.7223775 L12.550621,17.7223775 L12.550621,16.600708 L12.550621,15.4790386 L9.54197715,15.4790386 L6.53333333,15.4790386 L6.30938897,15.5572946 C5.40387481,15.901621 5.19453552,17.2006708 5.94913065,17.8162847 C6.27044213,18.0771381 6.43109786,18.1032234 7.76015897,18.1032234 L8.97237953,18.1084405 L8.71435668,18.4475498 C8.41251863,18.849264 8.31028316,19.1779393 8.31028316,19.7205143 C8.31028316,20.8265325 8.99185296,21.4682318 10.1213115,21.4317123 L10.5838053,21.4160611 L10.9148535,21.2282467 Z M12.550621,10.627166 L12.550621,6.49003168 L10.4669647,6.50568288 L8.37844014,6.52133408 L7.9987084,6.71958263 C7.35608544,7.05869201 6.92280179,7.62213527 6.75240934,8.33165642 L6.67451565,8.64989752 L6.67451565,11.7070989 L6.67451565,14.7643004 L9.61013413,14.7643004 L12.550621,14.7643004 L12.550621,10.627166 Z M19.5026329,11.7070989 L19.5026329,8.64989752 L19.4247392,8.33165642 C19.2543467,7.62213527 18.8161947,7.05869201 18.1784401,6.71958263 L17.79384,6.52133408 L15.7101838,6.50568288 L13.6265276,6.49003168 L13.6265276,10.627166 L13.6265276,14.7643004 L16.5621461,14.7643004 L19.5026329,14.7643004 L19.5026329,11.7070989 Z" id="Shape" fill="#7E27FF"></path>
                    <path d="M9.65394933,19.934414 L9.52250373,19.7935532 L9.5468455,19.5587852 C9.61013413,18.9796907 10.2235469,18.5518912 11.2264282,18.3901621 L11.5136612,18.3432085 L11.4601093,18.4840693 C10.9391952,19.7465996 10.1018381,20.4196013 9.65394933,19.934414 Z" id="Shape" fill="#000000"></path>
                    <path d="M15.7637357,19.9657164 C15.4375559,19.7831191 14.9896672,19.1466369 14.7170392,18.4840693 L14.658619,18.3432085 L14.945852,18.3901621 C15.9487332,18.5518912 16.5670144,18.9796907 16.6254347,19.5587852 L16.6546448,19.7935532 L16.5231992,19.934414 C16.3576751,20.1117943 16.041232,20.1222284 15.7637357,19.9657164 Z" id="Shape" fill="#000000"></path>
                </g>
            </g>
        </g>
    </g>
</svg>