<svg width="28" height="28" viewBox="0 0 28 28" version="1.1" xmlns="http://www.w3.org/2000/svg" xmlns:xlink="http://www.w3.org/1999/xlink">
<title>gnt</title>
<desc>Created using Figma</desc>
<g id="Canvas" transform="translate(-633 35)">
<g id="gnt">
<g id="Vector">
<use xlink:href="#path0_fill" transform="translate(633 -35)" fill="#002D64"/>
</g>
<g id="Vector">
<use xlink:href="#path1_fill" transform="translate(643.385 -30.604)" fill="#FFFFFF"/>
</g>
</g>
</g>
<defs>
<path id="path0_fill" d="M 14 28C 21.732 28 28 21.732 28 14C 28 6.26801 21.732 0 14 0C 6.26801 0 0 6.26801 0 14C 0 21.732 6.26801 28 14 28Z"/>
<path id="path1_fill" d="M 6.23002 7.504C 6.92162 6.8124 7.29682 5.9024 7.29682 4.9224C 7.29677 4.06687 6.99653 3.23849 6.44842 2.5816L 8.57082 0.4592L 8.09762 -7.95808e-16L 5.97522 2.1224C 5.32002 1.5764 4.50802 1.274 3.64842 1.274C 2.92686 1.27449 2.22161 1.48879 1.62176 1.88984C 1.0219 2.29088 0.554341 2.86068 0.278113 3.52729C 0.00188434 4.19389 -0.0706197 4.9274 0.0697567 5.63518C 0.210133 6.34296 0.557094 6.99328 1.06682 7.504C 1.67162 8.1088 2.46122 8.4868 3.30962 8.5596L 3.30962 11.2504C 2.45936 11.3209 1.66304 11.6957 1.06682 12.306C 0.383643 12.9915 2.93139e-05 13.9198 2.93139e-05 14.8876C 2.93139e-05 15.8554 0.383643 16.7837 1.06682 17.4692C 1.75842 18.1608 2.66842 18.536 3.64842 18.536C 4.12786 18.5374 4.60283 18.4439 5.04593 18.2608C 5.48902 18.0777 5.89147 17.8087 6.23002 17.4692C 6.92162 16.7776 7.29682 15.8676 7.29682 14.8876C 7.29682 13.9076 6.92162 12.9976 6.23002 12.306C 5.62523 11.7012 4.83562 11.3232 3.98722 11.2504L 3.98722 8.5596C 4.83765 8.48966 5.63416 8.11478 6.23002 7.504ZM 5.75682 12.7764C 6.31402 13.3448 6.63042 14.0868 6.63042 14.8848C 6.63105 15.2765 6.55419 15.6644 6.40426 16.0263C 6.25433 16.3881 6.03429 16.7167 5.75682 16.9932C 5.19962 17.5616 4.44642 17.8668 3.64842 17.8668C 3.25674 17.8674 2.8688 17.7906 2.50695 17.6406C 2.1451 17.4907 1.81648 17.2707 1.54002 16.9932C 0.982824 16.4248 0.666425 15.6828 0.666425 14.8848C 0.665794 14.4931 0.742657 14.1052 0.892588 13.7433C 1.04252 13.3815 1.26256 13.0529 1.54002 12.7764C 2.09722 12.208 2.85042 11.9028 3.64842 11.9028C 4.44922 11.9056 5.19962 12.208 5.75682 12.7764ZM 3.64842 7.9156C 3.25674 7.91623 2.8688 7.83937 2.50695 7.68944C 2.1451 7.5395 1.81648 7.31947 1.54002 7.042C 0.982824 6.4736 0.666425 5.7316 0.666425 4.9336C 0.666055 4.54195 0.743037 4.15409 0.892953 3.79228C 1.04287 3.43046 1.26277 3.10181 1.54002 2.8252C 2.09722 2.2568 2.85042 1.9516 3.64842 1.9516C 4.04011 1.95097 4.42805 2.02783 4.7899 2.17776C 5.15175 2.32769 5.48037 2.54773 5.75682 2.8252C 6.32522 3.3824 6.63042 4.1356 6.63042 4.9336C 6.63105 5.32528 6.55419 5.71322 6.40426 6.07508C 6.25433 6.43693 6.03429 6.76554 5.75682 7.042C 5.19962 7.6132 4.44922 7.9156 3.64842 7.9156Z"/>
</defs>
</svg>
