<svg width="28" height="28" viewBox="0 0 28 28" version="1.1" xmlns="http://www.w3.org/2000/svg" xmlns:xlink="http://www.w3.org/1999/xlink">
<title>link</title>
<desc>Created using Figma</desc>
<g id="Canvas" transform="translate(-823 35)">
<g id="link">
<g id="bg">
<use xlink:href="#path0_fill" transform="translate(823 -35)" fill="#1C2E4C"/>
</g>
<g id="Group">
<g id="Group">
<g id="Vector">
<use xlink:href="#path1_fill" transform="translate(841.911 -17.4611)" fill="#FFFFFF"/>
</g>
<g id="Vector (Stroke)">
<use xlink:href="#path2_fill" transform="translate(841.719 -17.6529)" fill="#1C2E4C"/>
</g>
<g id="Vector">
<use xlink:href="#path3_fill" transform="translate(839.004 -17.4611)" fill="#FFFFFF"/>
</g>
<g id="Vector (Stroke)">
<use xlink:href="#path4_fill" transform="translate(838.812 -17.6529)" fill="#1C2E4C"/>
</g>
<g id="Vector">
<use xlink:href="#path5_fill" transform="translate(839.004 -19.1016)" fill="#FFFFFF"/>
</g>
<g id="Vector (Stroke)">
<use xlink:href="#path6_fill" transform="translate(838.812 -19.2935)" fill="#1C2E4C"/>
</g>
</g>
<g id="Group">
<g id="Vector">
<use xlink:href="#path7_fill" transform="translate(841.911 -21.9797)" fill="#FFFFFF"/>
</g>
<g id="Vector (Stroke)">
<use xlink:href="#path8_fill" transform="translate(841.719 -22.1716)" fill="#1C2E4C"/>
</g>
<g id="Vector">
<use xlink:href="#path9_fill" transform="translate(839.004 -21.9797)" fill="#FFFFFF"/>
</g>
<g id="Vector (Stroke)">
<use xlink:href="#path10_fill" transform="translate(838.812 -22.1716)" fill="#1C2E4C"/>
</g>
<g id="Vector">
<use xlink:href="#path11_fill" transform="translate(839.004 -23.6202)" fill="#FFFFFF"/>
</g>
<g id="Vector (Stroke)">
<use xlink:href="#path12_fill" transform="translate(838.812 -23.8121)" fill="#1C2E4C"/>
</g>
</g>
<g id="Group">
<g id="Vector">
<use xlink:href="#path13_fill" transform="translate(831.099 -20.4735)" fill="#FFFFFF"/>
</g>
<g id="Vector (Stroke)">
<use xlink:href="#path14_fill" transform="translate(830.907 -20.6654)" fill="#1C2E4C"/>
</g>
<g id="Vector">
<use xlink:href="#path15_fill" transform="translate(828.192 -20.4735)" fill="#FFFFFF"/>
</g>
<g id="Vector (Stroke)">
<use xlink:href="#path16_fill" transform="translate(828 -20.6654)" fill="#1C2E4C"/>
</g>
<g id="Vector">
<use xlink:href="#path17_fill" transform="translate(828.192 -22.114)" fill="#FFFFFF"/>
</g>
<g id="Vector (Stroke)">
<use xlink:href="#path18_fill" transform="translate(828 -22.3059)" fill="#1C2E4C"/>
</g>
</g>
<g id="Group">
<g id="Vector">
<use xlink:href="#path19_fill" transform="translate(835.051 -18.1422)" fill="#FFFFFF"/>
</g>
<g id="Vector (Stroke)">
<use xlink:href="#path20_fill" transform="translate(834.859 -18.3341)" fill="#1C2E4C"/>
</g>
<g id="Vector">
<use xlink:href="#path21_fill" transform="translate(832.144 -18.1422)" fill="#FFFFFF"/>
</g>
<g id="Vector (Stroke)">
<use xlink:href="#path22_fill" transform="translate(831.953 -18.3341)" fill="#1C2E4C"/>
</g>
<g id="Vector">
<use xlink:href="#path23_fill" transform="translate(832.144 -19.7923)" fill="#FFFFFF"/>
</g>
<g id="Vector (Stroke)">
<use xlink:href="#path24_fill" transform="translate(831.953 -19.9842)" fill="#1C2E4C"/>
</g>
</g>
<g id="Group">
<g id="Vector">
<use xlink:href="#path25_fill" transform="translate(839.004 -15.8205)" fill="#FFFFFF"/>
</g>
<g id="Vector (Stroke)">
<use xlink:href="#path26_fill" transform="translate(838.812 -16.0124)" fill="#1C2E4C"/>
</g>
<g id="Vector">
<use xlink:href="#path27_fill" transform="translate(836.107 -15.8205)" fill="#FFFFFF"/>
</g>
<g id="Vector (Stroke)">
<use xlink:href="#path28_fill" transform="translate(835.915 -16.0124)" fill="#1C2E4C"/>
</g>
<g id="Vector">
<use xlink:href="#path29_fill" transform="translate(836.107 -17.4611)" fill="#FFFFFF"/>
</g>
<g id="Vector (Stroke)">
<use xlink:href="#path30_fill" transform="translate(835.915 -17.6529)" fill="#1C2E4C"/>
</g>
</g>
<g id="Group">
<g id="Vector">
<use xlink:href="#path31_fill" transform="translate(839.004 -28.1676)" fill="#FFFFFF"/>
</g>
<g id="Vector (Stroke)">
<use xlink:href="#path32_fill" transform="translate(838.812 -28.3595)" fill="#1C2E4C"/>
</g>
<g id="Vector">
<use xlink:href="#path33_fill" transform="translate(836.107 -28.1676)" fill="#FFFFFF"/>
</g>
<g id="Vector (Stroke)">
<use xlink:href="#path34_fill" transform="translate(835.915 -28.3595)" fill="#1C2E4C"/>
</g>
<g id="Vector">
<use xlink:href="#path35_fill" transform="translate(836.107 -29.8081)" fill="#FFFFFF"/>
</g>
<g id="Vector (Stroke)">
<use xlink:href="#path36_fill" transform="translate(835.915 -30)" fill="#1C2E4C"/>
</g>
</g>
<g id="Group">
<g id="Vector">
<use xlink:href="#path37_fill" transform="translate(835.051 -25.8363)" fill="#FFFFFF"/>
</g>
<g id="Vector (Stroke)">
<use xlink:href="#path38_fill" transform="translate(834.859 -26.0282)" fill="#1C2E4C"/>
</g>
<g id="Vector">
<use xlink:href="#path39_fill" transform="translate(832.144 -25.8363)" fill="#FFFFFF"/>
</g>
<g id="Vector (Stroke)">
<use xlink:href="#path40_fill" transform="translate(831.953 -26.0282)" fill="#1C2E4C"/>
</g>
<g id="Vector">
<use xlink:href="#path41_fill" transform="translate(832.144 -27.4769)" fill="#FFFFFF"/>
</g>
<g id="Vector (Stroke)">
<use xlink:href="#path42_fill" transform="translate(831.953 -27.6687)" fill="#1C2E4C"/>
</g>
</g>
<g id="Group">
<g id="Vector">
<use xlink:href="#path43_fill" transform="translate(831.099 -23.5147)" fill="#FFFFFF"/>
</g>
<g id="Vector (Stroke)">
<use xlink:href="#path44_fill" transform="translate(830.907 -23.7065)" fill="#1C2E4C"/>
</g>
<g id="Vector">
<use xlink:href="#path45_fill" transform="translate(828.192 -23.5147)" fill="#FFFFFF"/>
</g>
<g id="Vector (Stroke)">
<use xlink:href="#path46_fill" transform="translate(828 -23.7065)" fill="#1C2E4C"/>
</g>
<g id="Vector">
<use xlink:href="#path47_fill" transform="translate(828.192 -25.1552)" fill="#FFFFFF"/>
</g>
<g id="Vector (Stroke)">
<use xlink:href="#path48_fill" transform="translate(828 -25.3471)" fill="#1C2E4C"/>
</g>
</g>
<g id="Group">
<g id="Vector">
<use xlink:href="#path49_fill" transform="translate(841.911 -26.5175)" fill="#FFFFFF"/>
</g>
<g id="Vector (Stroke)">
<use xlink:href="#path50_fill" transform="translate(841.719 -26.7094)" fill="#1C2E4C"/>
</g>
<g id="Vector">
<use xlink:href="#path51_fill" transform="translate(839.004 -26.5175)" fill="#FFFFFF"/>
</g>
<g id="Vector (Stroke)">
<use xlink:href="#path52_fill" transform="translate(838.812 -26.7094)" fill="#1C2E4C"/>
</g>
<g id="Vector">
<use xlink:href="#path53_fill" transform="translate(839.004 -28.1676)" fill="#FFFFFF"/>
</g>
<g id="Vector (Stroke)">
<use xlink:href="#path54_fill" transform="translate(838.812 -28.3595)" fill="#1C2E4C"/>
</g>
</g>
</g>
</g>
</g>
<defs>
<path id="path0_fill" d="M 14 28C 21.732 28 28 21.732 28 14C 28 6.26801 21.732 0 14 0C 6.26801 0 0 6.26801 0 14C 0 21.732 6.26801 28 14 28Z"/>
<path id="path1_fill" d="M 2.89729 3.01242L 2.89729 -2.92776e-07L 0 1.64052L 0 4.65293L 2.89729 3.01242Z"/>
<path id="path2_fill" fill-rule="evenodd" d="M 3.1858 0.0261098C 3.24477 0.0604886 3.28104 0.123611 3.28104 0.191874L 3.28104 3.20429C 3.28104 3.27341 3.24386 3.3372 3.1837 3.37126L 0.286414 5.01177C 0.227013 5.04541 0.154215 5.04495 0.0952411 5.01057C 0.0362676 4.97619 0 4.91307 0 4.84481L 0 1.83239C 0 1.76327 0.0371817 1.69949 0.0973333 1.66543L 2.99462 0.0249077C 3.05403 -0.00872674 3.12682 -0.00826898 3.1858 0.0261098ZM 0.383747 1.94425L 0.383747 4.51567L 2.89729 3.09244L 2.89729 0.521014L 0.383747 1.94425Z"/>
<path id="path3_fill" d="M -2.92776e-07 3.01242L -2.92776e-07 -2.92776e-07L 2.90688 1.64052L 2.90688 4.65293L -2.92776e-07 3.01242Z"/>
<path id="path4_fill" fill-rule="evenodd" d="M 0.0951237 0.0261783C 0.154031 -0.0082178 0.226771 -0.00875246 0.286177 0.024774L 3.19306 1.66529C 3.25335 1.69932 3.29063 1.76317 3.29063 1.83239L 3.29063 4.84481C 3.29063 4.91302 3.25442 4.97611 3.19551 5.0105C 3.1366 5.0449 3.06386 5.04543 3.00446 5.01191L 0.0975699 3.37139C 0.0372855 3.33737 0 3.27351 0 3.20429L 0 0.191874C 0 0.12366 0.0362165 0.0605744 0.0951237 0.0261783ZM 0.383747 0.520479L 0.383747 3.09225L 2.90689 4.5162L 2.90689 1.94443L 0.383747 0.520479Z"/>
<path id="path5_fill" d="M 2.90688 -1.46388e-07L -2.92776e-07 1.64052L 2.90688 3.28104L 5.80418 1.64052L 2.90688 -1.46388e-07Z"/>
<path id="path6_fill" fill-rule="evenodd" d="M 3.00445 0.024774C 3.06307 -0.00830558 3.13473 -0.00825485 3.1933 0.0249077L 6.09059 1.66543C 6.15074 1.69949 6.18792 1.76327 6.18792 1.83239C 6.18792 1.90152 6.15074 1.9653 6.09059 1.99936L 3.1933 3.63988C 3.13473 3.67304 3.06307 3.67309 3.00445 3.64001L 0.0975698 1.99949C 0.0372854 1.96547 0 1.90161 0 1.83239C 2.28731e-08 1.76317 0.0372855 1.69931 0.0975699 1.66529L 3.00445 0.024774ZM 0.582266 1.83239L 3.0986 3.2525L 5.60663 1.83239L 3.0986 0.412282L 0.582266 1.83239Z"/>
<path id="path7_fill" d="M 2.89729 3.01242L 2.89729 -1.46388e-07L 0 1.65011L 0 4.65294L 2.89729 3.01242Z"/>
<path id="path8_fill" fill-rule="evenodd" d="M 3.18559 0.025989C 3.24468 0.060337 3.28104 0.123525 3.28104 0.191874L 3.28104 3.20429C 3.28104 3.27341 3.24386 3.3372 3.1837 3.37125L 0.286414 5.01177C 0.227013 5.04541 0.154215 5.04495 0.0952411 5.01057C 0.0362676 4.97619 0 4.91307 0 4.84481L 0 1.84199C 0 1.77303 0.0369987 1.70938 0.0969155 1.67526L 2.99421 0.025145C 3.0536 -0.00868058 3.1265 -0.00835908 3.18559 0.025989ZM 0.383747 1.95352L 0.383747 4.51567L 2.89729 3.09244L 2.89729 0.521963L 0.383747 1.95352Z"/>
<path id="path9_fill" d="M -2.92776e-07 3.01242L -2.92776e-07 -1.46388e-07L 2.90688 1.65011L 2.90688 4.65294L -2.92776e-07 3.01242Z"/>
<path id="path10_fill" fill-rule="evenodd" d="M 0.0953309 0.0260575C 0.154355 -0.00830803 0.227198 -0.00870687 0.286595 0.0250102L 3.19348 1.67512C 3.25353 1.70921 3.29063 1.77294 3.29063 1.84199L 3.29063 4.84481C 3.29063 4.91302 3.25442 4.97611 3.19551 5.0105C 3.1366 5.0449 3.06386 5.04543 3.00446 5.01191L 0.0975698 3.37139C 0.0372854 3.33737 0 3.27351 0 3.20429L 0 0.191874C 0 0.123574 0.0363067 0.060423 0.0953309 0.0260575ZM 0.383747 0.521424L 0.383747 3.09225L 2.90689 4.5162L 2.90689 1.9537L 0.383747 0.521424Z"/>
<path id="path11_fill" d="M 2.90688 0L -2.92776e-07 1.64052L 2.90688 3.29063L 5.80418 1.64052L 2.90688 0Z"/>
<path id="path12_fill" fill-rule="evenodd" d="M 3.00445 0.024774C 3.06307 -0.00830559 3.13473 -0.00825484 3.1933 0.0249077L 6.09059 1.66543C 6.15067 1.69944 6.18784 1.76311 6.18792 1.83215C 6.18801 1.90119 6.151 1.96495 6.09101 1.99912L 3.19372 3.64923C 3.13493 3.68271 3.06287 3.68276 3.00404 3.64937L 0.0971525 1.99926C 0.0370279 1.96513 -8.6264e-05 1.90129 1.50574e-07 1.83215C 8.65538e-05 1.76302 0.0373602 1.69927 0.0975699 1.66529L 3.00445 0.024774ZM 0.581403 1.83288L 3.0986 3.26178L 5.60749 1.83288L 3.0986 0.412282L 0.581403 1.83288Z"/>
<path id="path13_fill" d="M 2.89729 3.01242L 2.89729 2.92776e-07L -7.3194e-08 1.64052L -7.3194e-08 4.65293L 2.89729 3.01242Z"/>
<path id="path14_fill" fill-rule="evenodd" d="M 3.1858 0.0261098C 3.24477 0.0604886 3.28104 0.123611 3.28104 0.191874L 3.28104 3.20429C 3.28104 3.27341 3.24386 3.3372 3.18371 3.37125L 0.286414 5.01177C 0.227013 5.04541 0.154215 5.04495 0.0952411 5.01057C 0.0362676 4.97619 0 4.91307 0 4.84481L 0 1.83239C 0 1.76327 0.0371817 1.69949 0.0973333 1.66543L 2.99462 0.0249077C 3.05403 -0.00872675 3.12682 -0.00826897 3.1858 0.0261098ZM 0.383747 1.94425L 0.383747 4.51567L 2.89729 3.09244L 2.89729 0.521014L 0.383747 1.94425Z"/>
<path id="path15_fill" d="M 0 3.01242L 0 2.92776e-07L 2.90688 1.64052L 2.90688 4.65293L 0 3.01242Z"/>
<path id="path16_fill" fill-rule="evenodd" d="M 0.0951237 0.0261783C 0.154031 -0.0082178 0.226771 -0.00875246 0.286177 0.024774L 3.19306 1.66529C 3.25335 1.69931 3.29063 1.76317 3.29063 1.83239L 3.29063 4.84481C 3.29063 4.91302 3.25442 4.97611 3.19551 5.0105C 3.1366 5.0449 3.06386 5.04543 3.00445 5.01191L 0.0975698 3.37139C 0.0372855 3.33737 0 3.27351 0 3.20429L 0 0.191874C 0 0.12366 0.0362165 0.0605744 0.0951237 0.0261783ZM 0.383747 0.520479L 0.383747 3.09225L 2.90688 4.5162L 2.90688 1.94443L 0.383747 0.520479Z"/>
<path id="path17_fill" d="M 2.90688 -2.92776e-07L 0 1.64052L 2.90688 3.28104L 5.80418 1.64052L 2.90688 -2.92776e-07Z"/>
<path id="path18_fill" fill-rule="evenodd" d="M 3.00445 0.024774C 3.06307 -0.0083056 3.13473 -0.00825484 3.1933 0.0249077L 6.09059 1.66543C 6.15074 1.69949 6.18792 1.76327 6.18792 1.83239C 6.18792 1.90152 6.15074 1.9653 6.09059 1.99936L 3.1933 3.63988C 3.13473 3.67304 3.06307 3.67309 3.00445 3.64001L 0.0975699 1.99949C 0.0372855 1.96547 1.14366e-08 1.90162 0 1.83239C 0 1.76317 0.0372854 1.69932 0.0975698 1.66529L 3.00445 0.024774ZM 0.582266 1.83239L 3.0986 3.2525L 5.60663 1.83239L 3.0986 0.412282L 0.582266 1.83239Z"/>
<path id="path19_fill" d="M 2.89729 3.00282L 2.89729 -1.46388e-07L 0 1.64052L 0 4.65294L 2.89729 3.00282Z"/>
<path id="path20_fill" fill-rule="evenodd" d="M 3.1858 0.0261098C 3.24477 0.0604886 3.28104 0.123611 3.28104 0.191874L 3.28104 3.19469C 3.28104 3.26365 3.24404 3.3273 3.18412 3.36142L 0.286832 5.01154C 0.22744 5.04536 0.154539 5.04504 0.0954487 5.01069C 0.036358 4.97635 0 4.91316 0 4.84481L 0 1.83239C 0 1.76327 0.0371817 1.69949 0.0973333 1.66543L 2.99462 0.0249077C 3.05403 -0.00872674 3.12682 -0.00826898 3.1858 0.0261098ZM 0.383747 1.94425L 0.383747 4.51472L 2.89729 3.08316L 2.89729 0.521014L 0.383747 1.94425Z"/>
<path id="path21_fill" d="M 7.3194e-08 3.00282L 7.3194e-08 -1.46388e-07L 2.90688 1.64052L 2.90688 4.65294L 7.3194e-08 3.00282Z"/>
<path id="path22_fill" fill-rule="evenodd" d="M 0.0951237 0.0261783C 0.154031 -0.00821779 0.226771 -0.00875245 0.286177 0.024774L 3.19306 1.66529C 3.25335 1.69931 3.29063 1.76317 3.29063 1.83239L 3.29063 4.84481C 3.29063 4.91311 3.25433 4.97626 3.1953 5.01062C 3.13628 5.04499 3.06343 5.04539 3.00404 5.01167L 0.0971524 3.36156C 0.0371025 3.32747 0 3.26375 0 3.19469L 0 0.191874C 0 0.12366 0.0362165 0.0605744 0.0951237 0.0261783ZM 0.383747 0.520479L 0.383747 3.08298L 2.90688 4.51526L 2.90688 1.94443L 0.383747 0.520479Z"/>
<path id="path23_fill" d="M 2.90688 1.46388e-07L 7.3194e-08 1.65011L 2.90688 3.29063L 5.80418 1.65011L 2.90688 1.46388e-07Z"/>
<path id="path24_fill" fill-rule="evenodd" d="M 3.00404 0.0250102C 3.06287 -0.00838472 3.13493 -0.00833353 3.19372 0.0251449L 6.09101 1.67526C 6.151 1.70942 6.18801 1.77319 6.18792 1.84223C 6.18784 1.91127 6.15067 1.97494 6.09059 2.00895L 3.1933 3.64947C 3.13473 3.68263 3.06307 3.68268 3.00445 3.6496L 0.0975699 2.00909C 0.0373602 1.97511 8.65538e-05 1.91136 1.50574e-07 1.84223C -8.6264e-05 1.77309 0.0370279 1.70925 0.0971525 1.67512L 3.00404 0.0250102ZM 0.581404 1.8415L 3.0986 3.2621L 5.60749 1.8415L 3.0986 0.412595L 0.581404 1.8415Z"/>
<path id="path25_fill" d="M 2.90688 3.01242L 2.90688 2.92776e-07L -2.92776e-07 1.64052L -2.92776e-07 4.65293L 2.90688 3.01242Z"/>
<path id="path26_fill" fill-rule="evenodd" d="M 3.19551 0.0261783C 3.25442 0.0605744 3.29063 0.12366 3.29063 0.191874L 3.29063 3.20429C 3.29063 3.27351 3.25335 3.33737 3.19306 3.37139L 0.286177 5.01191C 0.226771 5.04543 0.154031 5.0449 0.0951237 5.0105C 0.0362165 4.97611 0 4.91302 0 4.84481L 0 1.83239C 0 1.76317 0.0372855 1.69931 0.0975699 1.66529L 3.00446 0.024774C 3.06386 -0.00875245 3.1366 -0.0082178 3.19551 0.0261783ZM 0.383747 1.94443L 0.383747 4.5162L 2.90689 3.09225L 2.90689 0.520479L 0.383747 1.94443Z"/>
<path id="path27_fill" d="M 0 3.01242L 0 2.92776e-07L 2.89729 1.64052L 2.89729 4.65293L 0 3.01242Z"/>
<path id="path28_fill" fill-rule="evenodd" d="M 0.0952411 0.0261098C 0.154215 -0.00826897 0.227013 -0.00872675 0.286414 0.0249077L 3.1837 1.66543C 3.24386 1.69949 3.28104 1.76327 3.28104 1.83239L 3.28104 4.84481C 3.28104 4.91307 3.24477 4.97619 3.1858 5.01057C 3.12682 5.04495 3.05403 5.04541 2.99462 5.01177L 0.0973333 3.37125C 0.0371817 3.3372 0 3.27341 0 3.20429L 0 0.191874C 0 0.123611 0.0362676 0.0604886 0.0952411 0.0261098ZM 0.383747 0.521014L 0.383747 3.09244L 2.89729 4.51567L 2.89729 1.94425L 0.383747 0.521014Z"/>
<path id="path29_fill" d="M 2.89729 -2.92776e-07L 0 1.64052L 2.89729 3.28104L 5.80418 1.64052L 2.89729 -2.92776e-07Z"/>
<path id="path30_fill" fill-rule="evenodd" d="M 2.99462 0.0249077C 3.05319 -0.00825484 3.12485 -0.0083056 3.18347 0.024774L 6.09035 1.66529C 6.15064 1.69932 6.18792 1.76317 6.18792 1.83239C 6.18792 1.90162 6.15064 1.96547 6.09035 1.99949L 3.18347 3.64001C 3.12485 3.67309 3.05319 3.67304 2.99462 3.63988L 0.0973333 1.99936C 0.0371818 1.9653 1.14366e-08 1.90152 1.05233e-14 1.83239C -2.28731e-08 1.76327 0.0371817 1.69949 0.0973333 1.66543L 2.99462 0.0249077ZM 3.08932 0.412282L 0.581289 1.83239L 3.08932 3.2525L 5.60566 1.83239L 3.08932 0.412282Z"/>
<path id="path31_fill" d="M 2.90688 3.01242L 2.90688 3.6597e-08L -2.92776e-07 1.65011L -2.92776e-07 4.65293L 2.90688 3.01242Z"/>
<path id="path32_fill" fill-rule="evenodd" d="M 3.1953 0.0260575C 3.25433 0.060423 3.29063 0.123574 3.29063 0.191874L 3.29063 3.20429C 3.29063 3.27351 3.25335 3.33737 3.19306 3.37139L 0.286177 5.01191C 0.226771 5.04543 0.154031 5.0449 0.0951237 5.0105C 0.0362165 4.97611 0 4.91302 0 4.84481L 0 1.84199C 0 1.77294 0.0371025 1.70921 0.0971525 1.67512L 3.00404 0.0250102C 3.06343 -0.00870687 3.13628 -0.00830803 3.1953 0.0260575ZM 0.383747 1.9537L 0.383747 4.5162L 2.90689 3.09225L 2.90689 0.521424L 0.383747 1.9537Z"/>
<path id="path33_fill" d="M 0 3.01242L 0 3.6597e-08L 2.89729 1.65011L 2.89729 4.65293L 0 3.01242Z"/>
<path id="path34_fill" fill-rule="evenodd" d="M 0.0954487 0.025989C 0.154539 -0.00835908 0.22744 -0.00868058 0.286832 0.0251449L 3.18412 1.67526C 3.24404 1.70938 3.28104 1.77303 3.28104 1.84199L 3.28104 4.84481C 3.28104 4.91307 3.24477 4.97619 3.1858 5.01057C 3.12682 5.04495 3.05403 5.04541 2.99462 5.01177L 0.0973333 3.37125C 0.0371817 3.3372 0 3.27341 0 3.20429L 0 0.191874C 0 0.123525 0.036358 0.060337 0.0954487 0.025989ZM 0.383747 0.521963L 0.383747 3.09244L 2.89729 4.51567L 2.89729 1.95352L 0.383747 0.521963Z"/>
<path id="path35_fill" d="M 2.89729 0L 0 1.64052L 2.89729 3.29063L 5.80418 1.64052L 2.89729 0Z"/>
<path id="path36_fill" fill-rule="evenodd" d="M 2.99462 0.0249077C 3.05319 -0.00825484 3.12485 -0.00830559 3.18347 0.024774L 6.09035 1.66529C 6.15056 1.69927 6.18784 1.76302 6.18792 1.83215C 6.18801 1.90129 6.15089 1.96513 6.09077 1.99926L 3.18389 3.64937C 3.12506 3.68276 3.05299 3.68271 2.99421 3.64923L 0.0969155 1.99912C 0.0369241 1.96495 -8.6275e-05 1.90119 1.51035e-07 1.83215C 8.65771e-05 1.76311 0.0372565 1.69944 0.0973333 1.66543L 2.99462 0.0249077ZM 3.08932 0.412282L 0.58043 1.83288L 3.08932 3.26178L 5.60652 1.83288L 3.08932 0.412282Z"/>
<path id="path37_fill" d="M 2.89729 3.01242L 2.89729 1.46388e-07L 0 1.64052L 0 4.65293L 2.89729 3.01242Z"/>
<path id="path38_fill" fill-rule="evenodd" d="M 3.1858 0.0261098C 3.24477 0.0604886 3.28104 0.123611 3.28104 0.191873L 3.28104 3.20429C 3.28104 3.27341 3.24386 3.3372 3.1837 3.37126L 0.286414 5.01177C 0.227013 5.04541 0.154215 5.04495 0.0952411 5.01057C 0.0362676 4.97619 0 4.91307 0 4.84481L 0 1.83239C 0 1.76327 0.0371817 1.69949 0.0973333 1.66543L 2.99462 0.0249077C 3.05403 -0.00872674 3.12682 -0.00826898 3.1858 0.0261098ZM 0.383747 1.94425L 0.383747 4.51567L 2.89729 3.09244L 2.89729 0.521014L 0.383747 1.94425Z"/>
<path id="path39_fill" d="M 7.3194e-08 3.01242L 7.3194e-08 1.46388e-07L 2.90688 1.64052L 2.90688 4.65293L 7.3194e-08 3.01242Z"/>
<path id="path40_fill" fill-rule="evenodd" d="M 0.0951237 0.0261783C 0.154031 -0.0082178 0.226771 -0.00875245 0.286177 0.024774L 3.19306 1.66529C 3.25335 1.69931 3.29063 1.76317 3.29063 1.83239L 3.29063 4.84481C 3.29063 4.91302 3.25442 4.97611 3.19551 5.0105C 3.1366 5.0449 3.06386 5.04543 3.00445 5.01191L 0.0975699 3.37139C 0.0372855 3.33737 0 3.27351 0 3.20429L 0 0.191873C 0 0.12366 0.0362165 0.0605744 0.0951237 0.0261783ZM 0.383747 0.520479L 0.383747 3.09225L 2.90688 4.5162L 2.90688 1.94443L 0.383747 0.520479Z"/>
<path id="path41_fill" d="M 2.90688 -7.3194e-08L 7.3194e-08 1.64052L 2.90688 3.28104L 5.80418 1.64052L 2.90688 -7.3194e-08Z"/>
<path id="path42_fill" fill-rule="evenodd" d="M 3.00445 0.024774C 3.06307 -0.00830559 3.13473 -0.00825486 3.1933 0.0249077L 6.09059 1.66543C 6.15074 1.69949 6.18792 1.76327 6.18792 1.83239C 6.18792 1.90152 6.15074 1.9653 6.09059 1.99936L 3.1933 3.63988C 3.13473 3.67304 3.06307 3.67309 3.00445 3.64001L 0.0975698 1.99949C 0.0372855 1.96547 1.14366e-08 1.90162 0 1.83239C 0 1.76317 0.0372855 1.69932 0.0975698 1.66529L 3.00445 0.024774ZM 0.582266 1.83239L 3.0986 3.2525L 5.60663 1.83239L 3.0986 0.412282L 0.582266 1.83239Z"/>
<path id="path43_fill" d="M 2.89729 3.01242L 2.89729 -1.46388e-07L -7.3194e-08 1.65011L -7.3194e-08 4.65293L 2.89729 3.01242Z"/>
<path id="path44_fill" fill-rule="evenodd" d="M 3.18559 0.025989C 3.24468 0.060337 3.28104 0.123525 3.28104 0.191874L 3.28104 3.20429C 3.28104 3.27341 3.24386 3.3372 3.18371 3.37125L 0.286414 5.01177C 0.227013 5.04541 0.154215 5.04495 0.0952411 5.01057C 0.0362676 4.97619 0 4.91307 0 4.84481L 0 1.84199C 0 1.77303 0.0369987 1.70938 0.0969155 1.67526L 2.99421 0.0251449C 3.0536 -0.00868058 3.1265 -0.00835908 3.18559 0.025989ZM 0.383747 1.95352L 0.383747 4.51567L 2.89729 3.09244L 2.89729 0.521963L 0.383747 1.95352Z"/>
<path id="path45_fill" d="M 0 3.01242L 0 -1.46388e-07L 2.90688 1.65011L 2.90688 4.65293L 0 3.01242Z"/>
<path id="path46_fill" fill-rule="evenodd" d="M 0.0953309 0.0260575C 0.154355 -0.00830803 0.227198 -0.00870687 0.286595 0.0250102L 3.19348 1.67512C 3.25353 1.70921 3.29063 1.77294 3.29063 1.84199L 3.29063 4.84481C 3.29063 4.91302 3.25442 4.97611 3.19551 5.0105C 3.1366 5.0449 3.06386 5.04543 3.00445 5.01191L 0.0975698 3.37139C 0.0372855 3.33737 0 3.27351 0 3.20429L 0 0.191874C 0 0.123574 0.0363067 0.060423 0.0953309 0.0260575ZM 0.383747 0.521424L 0.383747 3.09225L 2.90688 4.5162L 2.90688 1.9537L 0.383747 0.521424Z"/>
<path id="path47_fill" d="M 2.90688 0L 0 1.64052L 2.90688 3.29063L 5.80418 1.64052L 2.90688 0Z"/>
<path id="path48_fill" fill-rule="evenodd" d="M 3.00445 0.024774C 3.06307 -0.00830559 3.13473 -0.00825484 3.1933 0.0249077L 6.09059 1.66543C 6.15067 1.69944 6.18784 1.76311 6.18792 1.83215C 6.18801 1.90119 6.151 1.96495 6.09101 1.99912L 3.19372 3.64923C 3.13493 3.68271 3.06287 3.68276 3.00404 3.64937L 0.0971525 1.99926C 0.0370279 1.96513 -8.62527e-05 1.90129 1.50534e-07 1.83215C 8.65652e-05 1.76302 0.0373602 1.69927 0.0975699 1.66529L 3.00445 0.024774ZM 0.581403 1.83288L 3.0986 3.26178L 5.60749 1.83288L 3.0986 0.412282L 0.581403 1.83288Z"/>
<path id="path49_fill" d="M 2.89729 3.00282L 2.89729 -7.3194e-08L 0 1.64052L 0 4.65293L 2.89729 3.00282Z"/>
<path id="path50_fill" fill-rule="evenodd" d="M 3.1858 0.0261098C 3.24477 0.0604886 3.28104 0.123611 3.28104 0.191874L 3.28104 3.1947C 3.28104 3.26365 3.24404 3.3273 3.18412 3.36142L 0.286832 5.01154C 0.22744 5.04536 0.154539 5.04504 0.0954487 5.01069C 0.036358 4.97635 0 4.91316 0 4.84481L 0 1.83239C 0 1.76327 0.0371817 1.69949 0.0973333 1.66543L 2.99462 0.0249077C 3.05403 -0.00872673 3.12682 -0.00826899 3.1858 0.0261098ZM 0.383747 1.94425L 0.383747 4.51472L 2.89729 3.08316L 2.89729 0.521014L 0.383747 1.94425Z"/>
<path id="path51_fill" d="M -2.92776e-07 3.00282L -2.92776e-07 -7.3194e-08L 2.90688 1.64052L 2.90688 4.65293L -2.92776e-07 3.00282Z"/>
<path id="path52_fill" fill-rule="evenodd" d="M 0.0951237 0.0261783C 0.154031 -0.0082178 0.226771 -0.00875246 0.286177 0.024774L 3.19306 1.66529C 3.25335 1.69932 3.29063 1.76317 3.29063 1.83239L 3.29063 4.84481C 3.29063 4.91311 3.25433 4.97626 3.1953 5.01062C 3.13628 5.04499 3.06343 5.04539 3.00404 5.01167L 0.0971525 3.36156C 0.0371025 3.32747 0 3.26375 0 3.1947L 0 0.191874C 0 0.12366 0.0362165 0.0605744 0.0951237 0.0261783ZM 0.383747 0.520479L 0.383747 3.08298L 2.90689 4.51526L 2.90689 1.94443L 0.383747 0.520479Z"/>
<path id="path53_fill" d="M 2.90688 3.6597e-08L -2.92776e-07 1.65011L 2.90688 3.29063L 5.80418 1.65011L 2.90688 3.6597e-08Z"/>
<path id="path54_fill" fill-rule="evenodd" d="M 3.00404 0.0250102C 3.06287 -0.00838472 3.13493 -0.00833353 3.19372 0.0251449L 6.09101 1.67526C 6.151 1.70942 6.18801 1.77319 6.18792 1.84223C 6.18784 1.91127 6.15067 1.97494 6.09059 2.00895L 3.1933 3.64947C 3.13473 3.68263 3.06307 3.68269 3.00445 3.64961L 0.0975698 2.00909C 0.0373601 1.97511 8.65423e-05 1.91136 1.50574e-07 1.84223C -8.6264e-05 1.77309 0.0370279 1.70925 0.0971525 1.67512L 3.00404 0.0250102ZM 0.581403 1.8415L 3.0986 3.2621L 5.60749 1.8415L 3.0986 0.412595L 0.581403 1.8415Z"/>
</defs>
</svg>
