<?xml version="1.0" encoding="UTF-8"?>
<svg width="28px" height="28px" viewBox="0 0 28 28" version="1.1" xmlns="http://www.w3.org/2000/svg" xmlns:xlink="http://www.w3.org/1999/xlink">
    <!-- Generator: Sketch 48.2 (47327) - http://www.bohemiancoding.com/sketch -->
    <title>mana</title>
    <desc>Created with Sketch.</desc>
    <defs></defs>
    <g id="Symbols" stroke="none" stroke-width="1" fill="none" fill-rule="evenodd">
        <g id="mana" fill-rule="nonzero">
            <g>
                <path d="M27.4549788,15.1864407 C27.4972458,14.7279973 27.5254237,14.2834462 27.5254237,13.8111106 C27.5254237,6.44823226 21.467161,0.474576271 14,0.474576271 C6.53283898,0.474576271 0.474576271,6.44823226 0.474576271,13.8111106 C0.474576271,13.8666795 27.2436441,14.4918295 27.4549788,15.1864407" id="Shape" fill="#D7D1C7"></path>
                <path d="M0.474576271,13.8283709 C0.474576271,21.1282798 6.53283877,27.0508475 13.9999995,27.0508475 C21.4671603,27.0508475 26.7570097,22.5607148 27.5254228,15.4811805 C27.5313401,15.4260868 0.474576271,13.3738483 0.474576271,13.8283709" id="Shape" fill="#BFB5AF"></path>
                <path d="M8.77966102,4.27118644 C10.2206921,4.27118644 11.3898305,5.44032486 11.3898305,6.88135593 C11.3898305,8.32238701 10.2206921,9.49152542 8.77966102,9.49152542 C7.33862994,9.49152542 6.16949153,8.32238701 6.16949153,6.88135593 C6.16949153,5.44032486 7.33862994,4.27118644 8.77966102,4.27118644" id="Shape" fill="#F47E33"></path>
                <path d="M9.01694915,4.46756283 C7.81489865,4.46756283 6.84044418,5.44201729 6.84044418,6.6440678 C6.84044418,7.8461183 7.81489865,8.82057276 9.01694915,8.82057276 C10.2189997,8.82057276 11.1934541,7.8461183 11.1934541,6.6440678 C11.1934541,5.44126242 10.2054354,4.46756283 9.01694915,4.46756283 M9.01694915,9.96610169 C7.18410286,9.96610169 5.69491525,8.47691409 5.69491525,6.6440678 C5.69491525,4.81122151 7.18410286,3.3220339 9.01694915,3.3220339 C10.8497954,3.3220339 12.3389831,4.81122151 12.3389831,6.6440678 C12.3389831,8.47691409 10.8354763,9.96610169 9.01694915,9.96610169" id="Shape" fill="#35312E"></path>
                <path d="M17.559322,3.79661017 C19.9182657,3.79661017 21.8305085,5.70885298 21.8305085,8.06779661 C21.8305085,10.4267402 19.9182657,12.3389831 17.559322,12.3389831 C15.2003784,12.3389831 13.2881356,10.4267402 13.2881356,8.06779661 C13.2881356,5.70885298 15.2003784,3.79661017 17.559322,3.79661017" id="Shape" fill="#F47E33"></path>
                <g id="Group" transform="translate(0.474576, 9.966102)" fill="#BFB5AF">
                    <polyline id="Shape" points="9.35451386 7.11864407 12.7460464 2.90221643 13.468832 3.31290743 14.8588043 3.81942634 15.8456847 3.31290743 19.0009219 0 20.0990001 1.45110821 20.6271896 1.02672751 21.3221757 1.02672751 23.0735409 3.43611473 24.324516 3.23076923 26.5762712 5.74967405"></polyline>
                    <polyline id="Shape" points="11.5784696 5.02411995 9.74370612 4.02477184 7.07495922 4.70925684 5.85178356 0.725554107 3.65562726 0.725554107 1.5428693 4.38070404 0 4.43546284"></polyline>
                </g>
                <g id="Group" transform="translate(2.847458, 14.711864)" fill="#F47E33">
                    <path d="M3.27595853,1.16134979 C3.27595853,1.16134979 2.28073062,4.17225664 2.28073062,4.22960725 C2.28073062,4.51636028 2.72305414,4.74576271 3.27595853,4.74576271 C3.82886293,4.74576271 4.27118644,4.51636028 4.27118644,4.22960725 C4.25736383,4.1865943 3.27595853,1.16134979 3.27595853,1.16134979" id="Shape"></path>
                    <path d="M0.981405299,0 C0.981405299,0 0,2.9965692 0,3.05391981 C0,3.34067285 0.442323515,3.57007527 0.981405299,3.57007527 C1.52048708,3.57007527 1.9628106,3.34067285 1.9628106,3.05391981 C1.9628106,2.9965692 0.981405299,0 0.981405299,0" id="Shape"></path>
                </g>
                <g id="Group" transform="translate(13.762712, 12.813559)" fill="#D8A780">
                    <path d="M8.19352851,2.05184447 C8.19352851,3.18245264 2.73590139,3.18245264 2.73590139,2.05184447 C2.73590139,0.921236291 3.9550077,0 5.45762712,0 C6.96024653,0 8.19352851,0.907278166 8.19352851,2.05184447" id="Shape"></path>
                    <path d="M10.9152542,4.84346959 C10.9152542,5.97407777 5.45762712,5.97407777 5.45762712,4.84346959 C5.45762712,3.71286142 6.67673344,2.79162512 8.17935285,2.79162512 C9.69614792,2.777667 10.9152542,3.69890329 10.9152542,4.84346959" id="Shape"></path>
                    <path d="M5.45762712,8.16550349 C5.45762712,9.29611167 0,9.29611167 0,8.16550349 C0,7.03489531 1.21910632,6.11365902 2.72172573,6.11365902 C4.22434515,6.11365902 5.45762712,7.03489531 5.45762712,8.16550349" id="Shape"></path>
                </g>
                <path d="M14.3028832,27.0508475 C8.65538605,27.0508475 3.81873862,23.4998444 1.89830508,18.5084746 C2.28239179,18.5084746 2.68070393,18.5227356 3.09324151,18.5227356 C3.29239758,18.5797799 3.52000452,18.608302 3.76183689,18.608302 C3.96099296,18.608302 4.13169816,18.5940409 4.30240336,18.5512577 C4.38775597,18.5512577 4.487334,18.5512577 4.5726866,18.5655188 C4.54423574,18.6510851 4.54423574,18.6796073 4.54423574,18.7081294 C4.54423574,19.3498769 5.22705655,19.8062307 6.15170973,19.8062307 C7.06213748,19.8062307 7.57425309,19.2357885 7.61692939,18.622563 C7.75918373,18.6368241 8.05791784,18.7794347 8.20017217,18.7936957 C12.0410392,19.2072663 12.2970971,19.9060581 12.2970971,19.9345802 C12.3113225,19.9916245 12.2117445,20.2911066 11.443571,20.8187657 C9.79342074,21.9596503 9.22440339,22.6299199 9.38088316,23.3429728 C9.5658138,24.1986361 10.6753976,24.412552 12.3539988,24.7262952 C12.8234381,24.8118616 13.3640046,24.92595 13.9187965,25.0400385 C14.5304901,25.182649 15.1706346,25.3109986 15.7823283,25.425087 C16.920363,25.6532639 18.0726231,25.8814408 18.9830508,26.166662 C17.5462821,26.7513653 15.9530335,27.0508475 14.3028832,27.0508475" id="Shape" fill="#D7D1C7"></path>
                <path d="M25.27,12.586 L24.066,12.796 L22.33,10.388 L21.77,10.388 C22.1290053,9.70094764 22.3163412,8.93719395 22.316,8.162 C22.316,5.53 20.174,3.388 17.542,3.388 C14.91,3.388 12.754,5.516 12.754,8.148 C12.754,10.332 14.238,12.18 16.24,12.754 L16.17,12.824 L15.484,13.174 L14.364,12.768 L13.258,12.124 L11.704,14.084 L10.458,13.398 L8.064,14.014 L6.86,10.066 L3.92,10.066 L1.778,13.818 L1.12,13.832 C1.204,6.804 6.958,1.12 14,1.12 C21.098,1.12 26.88,6.902 26.88,14 L26.88,14.406 L25.27,12.586 Z M18.76,21.042 C18.564,21.182 17.836,21.406 16.632,21.406 C15.428,21.406 14.7,21.182 14.504,21.042 C14.56,20.258 15.512,19.614 16.632,19.614 C17.752,19.614 18.704,20.258 18.76,21.042 Z M22.022,16.268 C23.142,16.268 24.094,16.912 24.15,17.696 C23.954,17.836 23.212,18.06 22.022,18.06 C20.832,18.06 20.09,17.836 19.894,17.696 C19.95,16.912 20.902,16.268 22.022,16.268 Z M21.448,14.896 C21.252,15.036 20.51,15.26 19.32,15.26 C18.13,15.26 17.388,15.036 17.192,14.896 C17.248,14.112 18.2,13.468 19.32,13.468 C20.44,13.468 21.392,14.112 21.448,14.896 Z M20.594,10.15 L19.754,9.016 L17.15,11.802 C15.316,11.606 13.888,10.052 13.888,8.162 C13.888,6.146 15.526,4.508 17.542,4.508 C19.558,4.508 21.196,6.146 21.196,8.162 C21.1941715,8.86929503 20.9848599,9.56051025 20.594,10.15 Z M19.992,25.396 C18.942,24.878 17.346,24.57 15.666,24.234 C15.078,24.122 14.462,23.996 13.874,23.87 C13.328,23.744 12.796,23.646 12.32,23.562 C11.564,23.422 10.654,23.24 10.36,23.072 C10.458,22.918 10.766,22.554 11.858,21.812 C12.25,21.546 13.44,20.734 13.118,19.698 C12.824,18.732 11.298,18.144 8.19,17.808 C7.91,17.78 7.616,17.752 7.308,17.724 C7.154,17.262 6.93,16.604 6.608,15.652 L6.076,14.098 L5.544,15.652 C5.362,16.17 5.222,16.59 5.096,16.954 C4.956,16.506 4.704,15.778 4.27,14.518 L3.78,12.936 L3.248,14.49 C2.52,16.618 2.31,17.248 2.254,17.486 L1.61,17.486 C1.3815287,16.6572521 1.23153445,15.8088472 1.162,14.952 L2.45,14.91 L4.578,11.186 L6.048,11.186 L7.322,15.372 L10.318,14.602 L11.004,14.98 L9.548,16.814 L10.43,17.514 L13.538,13.58 L13.902,13.79 L15.582,14.406 L16.31,14.028 C16.17,14.322 16.086,14.644 16.086,14.98 C16.086,15.316 16.296,16.03 17.892,16.296 C18.3996917,16.3793513 18.7727214,16.8175132 18.774,17.332 L18.774,19.152 C18.55,18.998 18.298,18.858 18.018,18.76 L18.032,18.76 C17.416,18.564 16.842,18.27 16.66,17.668 C16.52,18.158 16.128,18.438 15.624,18.634 C14.322,18.984 13.384,19.964 13.384,21.126 C13.384,21.546 13.706,22.54 16.632,22.54 C19.572,22.54 19.88,21.546 19.88,21.126 L19.88,18.928 C20.076,18.998 20.3,19.054 20.566,19.096 C21.0736917,19.1793513 21.4467214,19.6175132 21.448,20.132 L21.448,21.392 C21.448,21.686 21.658,21.952 21.952,21.98 C22.288,22.008 22.568,21.742 22.568,21.42 L22.568,20.132 C22.5692786,19.6175132 22.9423083,19.1793513 23.45,19.096 C25.046,18.83 25.256,18.13 25.256,17.78 C25.256,16.842 24.64,16.03 23.73,15.568 L23.744,15.568 C23.73,15.568 23.716,15.554 23.688,15.554 C23.534,15.47 23.352,15.414 23.184,15.358 C22.932,15.232 22.708,15.064 22.554,14.854 C22.484,13.86 21.742,13.02 20.678,12.614 L20.664,12.614 C20.594,12.586 20.524,12.572 20.454,12.544 C19.922,12.348 19.46,12.054 19.306,11.536 C19.138,12.11 18.648,12.404 18.018,12.6 C17.976,12.614 17.92,12.628 17.878,12.656 L19.628,10.794 L20.678,12.208 L21.518,11.536 L21.728,11.536 L23.548,14.042 L24.836,13.818 L26.726,15.96 C26.11,20.048 23.548,23.52 19.992,25.396 Z M5.726,18.704 L6.104,17.57 L6.482,18.704 C6.23553148,18.7786709 5.97246852,18.7786709 5.726,18.704 Z M3.416,17.514 C3.5,17.262 3.626,16.856 3.78,16.422 C3.934,16.87 4.074,17.276 4.144,17.528 C3.892,17.528 3.654,17.514 3.416,17.514 Z M14,26.88 C8.526,26.88 3.836,23.45 1.974,18.62 C2.338,18.62 2.73,18.634 3.122,18.634 C3.33165098,18.6921325 3.54845206,18.7204109 3.766,18.718 C3.948,18.718 4.13,18.704 4.284,18.662 C4.37289158,18.6600363 4.46180567,18.664716 4.55,18.676 C4.522,18.76 4.522,18.788 4.522,18.816 C4.522,19.432 5.18,19.88 6.09,19.88 C6.972,19.88 7.616,19.46 7.644,18.872 C7.784,18.886 7.938,18.9 8.078,18.914 C11.802,19.32 12.054,19.992 12.054,20.02 C12.068,20.076 11.984,20.37 11.228,20.874 C9.646,21.966 9.1,22.624 9.24,23.31 C9.408,24.136 10.486,24.346 12.124,24.654 C12.586,24.738 13.104,24.836 13.636,24.962 C14.224,25.088 14.854,25.214 15.456,25.34 C16.548,25.564 17.668,25.788 18.564,26.054 C17.1048116,26.601894 15.5586583,26.8817193 14,26.88 Z M14,0 C6.286,0 0,6.286 0,14 C0,21.714 6.286,28 14,28 C21.714,28 28,21.714 28,14 C28,6.286 21.714,0 14,0 Z" id="Shape" fill="#35312E"></path>
            </g>
        </g>
    </g>
</svg>