<?xml version="1.0" encoding="UTF-8"?>
<svg width="80px" height="80px" viewBox="0 0 80 80" version="1.1" xmlns="http://www.w3.org/2000/svg" xmlns:xlink="http://www.w3.org/1999/xlink">
    <!-- Generator: Sketch 48.2 (47327) - http://www.bohemiancoding.com/sketch -->
    <title>mds_icon</title>
    <desc>Created with Sketch.</desc>
    <defs></defs>
    <g id="A4" stroke="none" stroke-width="1" fill="none" fill-rule="evenodd">
        <g id="mds_icon" fill-rule="nonzero">
            <circle id="Oval" fill="#2C363F" cx="40" cy="40" r="40"></circle>
            <path d="M45.5555556,38.8888889 C43.1009567,38.8888889 41.1111111,36.8990433 41.1111111,34.4444444 C41.1111111,31.9898456 43.1009567,30 45.5555556,30 C48.0101544,30 50,31.9898456 50,34.4444444 C50,36.8990433 48.0101544,38.8888889 45.5555556,38.8888889 Z M45.5555556,26.6666667 C43.7146064,26.6666667 42.2222222,25.1742825 42.2222222,23.3333333 C42.2222222,21.4923842 43.7146064,20 45.5555556,20 C47.3965047,20 48.8888889,21.4923842 48.8888889,23.3333333 C48.8888889,25.1742825 47.3965047,26.6666667 45.5555556,26.6666667 Z M34.4444444,26.6666667 C32.6034953,26.6666667 31.1111111,25.1742825 31.1111111,23.3333333 C31.1111111,21.4923842 32.6034953,20 34.4444444,20 C36.2853936,20 37.7777778,21.4923842 37.7777778,23.3333333 C37.7777778,25.1742825 36.2853936,26.6666667 34.4444444,26.6666667 Z M45.5555556,60 C43.7146064,60 42.2222222,58.5076158 42.2222222,56.6666667 C42.2222222,54.8257175 43.7146064,53.3333333 45.5555556,53.3333333 C47.3965047,53.3333333 48.8888889,54.8257175 48.8888889,56.6666667 C48.8888889,58.5076158 47.3965047,60 45.5555556,60 Z M56.6666667,37.7777778 C54.8257175,37.7777778 53.3333333,36.2853936 53.3333333,34.4444444 C53.3333333,32.6034953 54.8257175,31.1111111 56.6666667,31.1111111 C58.5076158,31.1111111 60,32.6034953 60,34.4444444 C60,36.2853936 58.5076158,37.7777778 56.6666667,37.7777778 Z M56.6666667,48.8888889 C54.8257175,48.8888889 53.3333333,47.3965047 53.3333333,45.5555556 C53.3333333,43.7146064 54.8257175,42.2222222 56.6666667,42.2222222 C58.5076158,42.2222222 60,43.7146064 60,45.5555556 C60,47.3965047 58.5076158,48.8888889 56.6666667,48.8888889 Z M23.3333333,37.7777778 C21.4923842,37.7777778 20,36.2853936 20,34.4444444 C20,32.6034953 21.4923842,31.1111111 23.3333333,31.1111111 C25.1742825,31.1111111 26.6666667,32.6034953 26.6666667,34.4444444 C26.6666667,36.2853936 25.1742825,37.7777778 23.3333333,37.7777778 Z M23.3333333,48.8888889 C21.4923842,48.8888889 20,47.3965047 20,45.5555556 C20,43.7146064 21.4923842,42.2222222 23.3333333,42.2222222 C25.1742825,42.2222222 26.6666667,43.7146064 26.6666667,45.5555556 C26.6666667,47.3965047 25.1742825,48.8888889 23.3333333,48.8888889 Z M12.2222222,36.6666667 C10.9949228,36.6666667 10,35.6717439 10,34.4444444 C10,33.217145 10.9949228,32.2222222 12.2222222,32.2222222 C13.4495217,32.2222222 14.4444444,33.217145 14.4444444,34.4444444 C14.4444444,35.6717439 13.4495217,36.6666667 12.2222222,36.6666667 Z M34.4444444,14.4444444 C33.217145,14.4444444 32.2222222,13.4495217 32.2222222,12.2222222 C32.2222222,10.9949228 33.217145,10 34.4444444,10 C35.6717439,10 36.6666667,10.9949228 36.6666667,12.2222222 C36.6666667,13.4495217 35.6717439,14.4444444 34.4444444,14.4444444 Z M45.5555556,14.4444444 C44.3282561,14.4444444 43.3333333,13.4495217 43.3333333,12.2222222 C43.3333333,10.9949228 44.3282561,10 45.5555556,10 C46.782855,10 47.7777778,10.9949228 47.7777778,12.2222222 C47.7777778,13.4495217 46.782855,14.4444444 45.5555556,14.4444444 Z M34.4444444,70 C33.217145,70 32.2222222,69.0050772 32.2222222,67.7777778 C32.2222222,66.5504783 33.217145,65.5555556 34.4444444,65.5555556 C35.6717439,65.5555556 36.6666667,66.5504783 36.6666667,67.7777778 C36.6666667,69.0050772 35.6717439,70 34.4444444,70 Z M45.5555556,70 C44.3282561,70 43.3333333,69.0050772 43.3333333,67.7777778 C43.3333333,66.5504783 44.3282561,65.5555556 45.5555556,65.5555556 C46.782855,65.5555556 47.7777778,66.5504783 47.7777778,67.7777778 C47.7777778,69.0050772 46.782855,70 45.5555556,70 Z M12.2222222,47.7777778 C10.9949228,47.7777778 10,46.782855 10,45.5555556 C10,44.3282561 10.9949228,43.3333333 12.2222222,43.3333333 C13.4495217,43.3333333 14.4444444,44.3282561 14.4444444,45.5555556 C14.4444444,46.782855 13.4495217,47.7777778 12.2222222,47.7777778 Z M67.7777778,36.6666667 C66.5504783,36.6666667 65.5555556,35.6717439 65.5555556,34.4444444 C65.5555556,33.217145 66.5504783,32.2222222 67.7777778,32.2222222 C69.0050772,32.2222222 70,33.217145 70,34.4444444 C70,35.6717439 69.0050772,36.6666667 67.7777778,36.6666667 Z M67.7777778,47.7777778 C66.5504783,47.7777778 65.5555556,46.782855 65.5555556,45.5555556 C65.5555556,44.3282561 66.5504783,43.3333333 67.7777778,43.3333333 C69.0050772,43.3333333 70,44.3282561 70,45.5555556 C70,46.782855 69.0050772,47.7777778 67.7777778,47.7777778 Z M34.4444444,60 C32.6034953,60 31.1111111,58.5076158 31.1111111,56.6666667 C31.1111111,54.8257175 32.6034953,53.3333333 34.4444444,53.3333333 C36.2853936,53.3333333 37.7777778,54.8257175 37.7777778,56.6666667 C37.7777778,58.5076158 36.2853936,60 34.4444444,60 Z M45.5555556,50 C43.1009567,50 41.1111111,48.0101544 41.1111111,45.5555556 C41.1111111,43.1009567 43.1009567,41.1111111 45.5555556,41.1111111 C48.0101544,41.1111111 50,43.1009567 50,45.5555556 C50,48.0101544 48.0101544,50 45.5555556,50 Z M34.4444444,38.8888889 C31.9898456,38.8888889 30,36.8990433 30,34.4444444 C30,31.9898456 31.9898456,30 34.4444444,30 C36.8990433,30 38.8888889,31.9898456 38.8888889,34.4444444 C38.8888889,36.8990433 36.8990433,38.8888889 34.4444444,38.8888889 Z M34.4444444,50 C31.9898456,50 30,48.0101544 30,45.5555556 C30,43.1009567 31.9898456,41.1111111 34.4444444,41.1111111 C36.8990433,41.1111111 38.8888889,43.1009567 38.8888889,45.5555556 C38.8888889,48.0101544 36.8990433,50 34.4444444,50 Z" id="Combined-Shape" fill="#FFFFFF"></path>
        </g>
    </g>
</svg>