<?xml version="1.0" encoding="UTF-8"?>
<svg width="28px" height="28px" viewBox="0 0 28 28" version="1.1" xmlns="http://www.w3.org/2000/svg" xmlns:xlink="http://www.w3.org/1999/xlink">
    <!-- Generator: Sketch 51 (57462) - http://www.bohemiancoding.com/sketch -->
    <title>mds</title>
    <desc>Created with Sketch.</desc>
    <defs></defs>
    <g id="Wallet" stroke="none" stroke-width="1" fill="none" fill-rule="evenodd">
        <g id="New" transform="translate(-437.000000, -251.000000)">
            <g id="mds" transform="translate(437.000000, 251.000000)">
                <g>
                    <circle id="Oval" fill="#2C363F" fill-rule="nonzero" cx="14" cy="14" r="14"></circle>
                    <path d="M15.9444445,13.6111111 C15.0853348,13.6111111 14.3888889,12.9146652 14.3888889,12.0555555 C14.3888889,11.196446 15.0853348,10.5 15.9444445,10.5 C16.803554,10.5 17.5,11.196446 17.5,12.0555555 C17.5,12.9146652 16.803554,13.6111111 15.9444445,13.6111111 Z M15.9444445,9.33333334 C15.3001122,9.33333334 14.7777778,8.81099887 14.7777778,8.16666666 C14.7777778,7.52233447 15.3001122,7 15.9444445,7 C16.5887766,7 17.1111111,7.52233447 17.1111111,8.16666666 C17.1111111,8.81099887 16.5887766,9.33333334 15.9444445,9.33333334 Z M12.0555555,9.33333334 C11.4112234,9.33333334 10.8888889,8.81099887 10.8888889,8.16666666 C10.8888889,7.52233447 11.4112234,7 12.0555555,7 C12.6998878,7 13.2222222,7.52233447 13.2222222,8.16666666 C13.2222222,8.81099887 12.6998878,9.33333334 12.0555555,9.33333334 Z M15.9444445,21 C15.3001122,21 14.7777778,20.4776655 14.7777778,19.8333333 C14.7777778,19.1890011 15.3001122,18.6666667 15.9444445,18.6666667 C16.5887766,18.6666667 17.1111111,19.1890011 17.1111111,19.8333333 C17.1111111,20.4776655 16.5887766,21 15.9444445,21 Z M19.8333333,13.2222222 C19.1890011,13.2222222 18.6666667,12.6998878 18.6666667,12.0555555 C18.6666667,11.4112234 19.1890011,10.8888889 19.8333333,10.8888889 C20.4776655,10.8888889 21,11.4112234 21,12.0555555 C21,12.6998878 20.4776655,13.2222222 19.8333333,13.2222222 Z M19.8333333,17.1111111 C19.1890011,17.1111111 18.6666667,16.5887766 18.6666667,15.9444445 C18.6666667,15.3001122 19.1890011,14.7777778 19.8333333,14.7777778 C20.4776655,14.7777778 21,15.3001122 21,15.9444445 C21,16.5887766 20.4776655,17.1111111 19.8333333,17.1111111 Z M8.16666666,13.2222222 C7.52233447,13.2222222 7,12.6998878 7,12.0555555 C7,11.4112234 7.52233447,10.8888889 8.16666666,10.8888889 C8.81099887,10.8888889 9.33333334,11.4112234 9.33333334,12.0555555 C9.33333334,12.6998878 8.81099887,13.2222222 8.16666666,13.2222222 Z M8.16666666,17.1111111 C7.52233447,17.1111111 7,16.5887766 7,15.9444445 C7,15.3001122 7.52233447,14.7777778 8.16666666,14.7777778 C8.81099887,14.7777778 9.33333334,15.3001122 9.33333334,15.9444445 C9.33333334,16.5887766 8.81099887,17.1111111 8.16666666,17.1111111 Z M4.27777777,12.8333333 C3.84822298,12.8333333 3.5,12.4851104 3.5,12.0555555 C3.5,11.6260008 3.84822298,11.2777778 4.27777777,11.2777778 C4.70733259,11.2777778 5.05555554,11.6260008 5.05555554,12.0555555 C5.05555554,12.4851104 4.70733259,12.8333333 4.27777777,12.8333333 Z M12.0555555,5.05555554 C11.6260008,5.05555554 11.2777778,4.70733259 11.2777778,4.27777777 C11.2777778,3.84822298 11.6260008,3.5 12.0555555,3.5 C12.4851104,3.5 12.8333333,3.84822298 12.8333333,4.27777777 C12.8333333,4.70733259 12.4851104,5.05555554 12.0555555,5.05555554 Z M15.9444445,5.05555554 C15.5148896,5.05555554 15.1666667,4.70733259 15.1666667,4.27777777 C15.1666667,3.84822298 15.5148896,3.5 15.9444445,3.5 C16.3739993,3.5 16.7222222,3.84822298 16.7222222,4.27777777 C16.7222222,4.70733259 16.3739993,5.05555554 15.9444445,5.05555554 Z M12.0555555,24.5 C11.6260008,24.5 11.2777778,24.151777 11.2777778,23.7222222 C11.2777778,23.2926674 11.6260008,22.9444445 12.0555555,22.9444445 C12.4851104,22.9444445 12.8333333,23.2926674 12.8333333,23.7222222 C12.8333333,24.151777 12.4851104,24.5 12.0555555,24.5 Z M15.9444445,24.5 C15.5148896,24.5 15.1666667,24.151777 15.1666667,23.7222222 C15.1666667,23.2926674 15.5148896,22.9444445 15.9444445,22.9444445 C16.3739993,22.9444445 16.7222222,23.2926674 16.7222222,23.7222222 C16.7222222,24.151777 16.3739993,24.5 15.9444445,24.5 Z M4.27777777,16.7222222 C3.84822298,16.7222222 3.5,16.3739993 3.5,15.9444445 C3.5,15.5148896 3.84822298,15.1666667 4.27777777,15.1666667 C4.70733259,15.1666667 5.05555554,15.5148896 5.05555554,15.9444445 C5.05555554,16.3739993 4.70733259,16.7222222 4.27777777,16.7222222 Z M23.7222222,12.8333333 C23.2926674,12.8333333 22.9444445,12.4851104 22.9444445,12.0555555 C22.9444445,11.6260008 23.2926674,11.2777778 23.7222222,11.2777778 C24.151777,11.2777778 24.5,11.6260008 24.5,12.0555555 C24.5,12.4851104 24.151777,12.8333333 23.7222222,12.8333333 Z M23.7222222,16.7222222 C23.2926674,16.7222222 22.9444445,16.3739993 22.9444445,15.9444445 C22.9444445,15.5148896 23.2926674,15.1666667 23.7222222,15.1666667 C24.151777,15.1666667 24.5,15.5148896 24.5,15.9444445 C24.5,16.3739993 24.151777,16.7222222 23.7222222,16.7222222 Z M12.0555555,21 C11.4112234,21 10.8888889,20.4776655 10.8888889,19.8333333 C10.8888889,19.1890011 11.4112234,18.6666667 12.0555555,18.6666667 C12.6998878,18.6666667 13.2222222,19.1890011 13.2222222,19.8333333 C13.2222222,20.4776655 12.6998878,21 12.0555555,21 Z M15.9444445,17.5 C15.0853348,17.5 14.3888889,16.803554 14.3888889,15.9444445 C14.3888889,15.0853348 15.0853348,14.3888889 15.9444445,14.3888889 C16.803554,14.3888889 17.5,15.0853348 17.5,15.9444445 C17.5,16.803554 16.803554,17.5 15.9444445,17.5 Z M12.0555555,13.6111111 C11.196446,13.6111111 10.5,12.9146652 10.5,12.0555555 C10.5,11.196446 11.196446,10.5 12.0555555,10.5 C12.9146652,10.5 13.6111111,11.196446 13.6111111,12.0555555 C13.6111111,12.9146652 12.9146652,13.6111111 12.0555555,13.6111111 Z M12.0555555,17.5 C11.196446,17.5 10.5,16.803554 10.5,15.9444445 C10.5,15.0853348 11.196446,14.3888889 12.0555555,14.3888889 C12.9146652,14.3888889 13.6111111,15.0853348 13.6111111,15.9444445 C13.6111111,16.803554 12.9146652,17.5 12.0555555,17.5 Z" id="Combined-Shape" fill="#FFFFFF" fill-rule="nonzero"></path>
                </g>
            </g>
        </g>
    </g>
</svg>