<svg id="Layer_1" data-name="Layer 1" xmlns="http://www.w3.org/2000/svg" viewBox="0 0 1000 1000"><defs><style>.cls-1{fill:#9ce3e5;}.cls-2{opacity:0.7;}.cls-3{fill:#2e7689;}.cls-4{fill:#36c7ce;}.cls-5{fill:#3588a5;}.cls-6{fill:#ebffff;}.cls-7{fill:#2fadaa;}.cls-8{fill:#28808e;}.cls-9{fill:#2f7a8e;}.cls-10{fill:#3ca7d5;}</style></defs><title>MossCoin_logo_1000x1000</title><circle class="cls-1" cx="500" cy="500" r="500"/><g class="cls-2"><path class="cls-3" d="M1000,500c0,276.14-223.86,500-500,500S0,776.14,0,500Z"/></g><circle class="cls-4" cx="500" cy="500" r="457.42"/><g class="cls-2"><path class="cls-5" d="M729.8,298,956.74,524.89h0c-3.64,240.76-204,429.6-445,432.53h0L288.52,734.16h95.61V461.89L491,624.56l18.31,10.33,106-157.09Z"/></g><path class="cls-6" d="M615.24,719.91V431.58L491,620.23h-2.53l-123-186.76V719.91H270.14V278.27H374.86L491,465,607,278.27H711.77V719.91Z"/><polygon class="cls-7" points="365.81 719.91 384.13 734.15 288.45 734.15 270.14 719.91 365.81 719.91"/><polygon class="cls-7" points="711.42 719.91 729.74 734.15 634.07 734.15 615.75 719.91 711.42 719.91"/><polygon class="cls-8" points="615.24 431.58 490.96 620.95 509.27 634.89 615.24 477.8 615.24 431.58"/><polygon class="cls-8" points="365.81 719.91 365.4 433.47 384.13 461.89 384.13 734.15 365.81 719.91"/><polygon class="cls-8" points="711.42 719.91 711.77 278.27 729.74 297.94 729.74 734.15 711.42 719.91"/><rect class="cls-6" x="165.08" y="442.76" width="105.06" height="41.29"/><rect class="cls-6" x="165.08" y="528.37" width="105.06" height="41.29"/><polygon class="cls-7" points="270.14 485.52 270.14 499.75 183.4 499.75 165.08 485.52 270.14 485.52"/><polygon class="cls-7" points="270.14 571.26 270.14 585.5 183.4 585.5 165.08 571.26 270.14 571.26"/><rect class="cls-6" x="711.56" y="442.76" width="105.06" height="41.29"/><polygon class="cls-7" points="816.61 485.52 834.92 499.75 730.09 499.75 711.77 485.52 816.61 485.52"/><polygon class="cls-8" points="834.92 499.75 816.61 485.52 816.61 441.37 834.92 455.6 834.92 499.75"/><rect class="cls-6" x="711.56" y="528.69" width="105.06" height="41.29"/><polygon class="cls-7" points="816.61 571.45 834.92 585.69 730.09 585.69 711.77 571.45 816.61 571.45"/><polygon class="cls-8" points="834.92 585.69 816.61 571.45 816.61 527.3 834.92 541.54 834.92 585.69"/><g class="cls-2"><path class="cls-9" d="M553.1,997.2C783,971,969.81,794.52,996.61,564.75l-22.88-22.87-17-17h0c-11.79,240.18-202.55,421.2-445,432.53h0L534.34,980,553.1,997.2"/></g><g class="cls-2"><path class="cls-10" d="M957.42,500C957.42,247.37,752.63,42.58,500,42.58S42.58,247.37,42.58,500C42.58,280.51,280.51,79.56,500,79.56S957.42,280.51,957.42,500Z"/></g></svg>