<svg width="28" height="29" viewBox="0 0 28 29" version="1.1" xmlns="http://www.w3.org/2000/svg" xmlns:xlink="http://www.w3.org/1999/xlink">
<title>omg</title>
<desc>Created using Figma</desc>
<g id="Canvas" transform="translate(-447 35)">
<g id="omg">
<g id="Vector">
<use xlink:href="#path0_fill" transform="translate(447 -35)" fill="#2176FF"/>
</g>
<g id="Vector">
<use xlink:href="#path1_fill" transform="translate(460.685 -32.6036)" fill="#1A53F0"/>
</g>
<g id="Vector">
<use xlink:href="#path2_fill" transform="translate(449.435 -21.2666)" fill="#1A53F0"/>
</g>
</g>
</g>
<defs>
<path id="path0_fill" fill-rule="evenodd" d="M 23.8901 4.12752C 18.4301 -1.37584 9.55504 -1.37584 4.09502 4.12752C -1.36501 9.63088 -1.36501 18.5763 4.09502 24.0797C 9.55504 29.5831 18.4301 29.5831 23.8901 24.0797C 29.3501 18.5763 29.3501 9.63088 23.8901 4.12752ZM 21.7061 14.4138L 14.3003 21.8784C 14.1216 22.0585 13.8436 22.0585 13.665 21.8784L 6.25917 14.4138C 6.08048 14.2337 6.08048 13.9535 6.25917 13.7734L 13.665 6.30885C 13.8436 6.12874 14.1216 6.12874 14.3003 6.30885L 21.7061 13.7734C 21.8848 13.9535 21.8848 14.2337 21.7061 14.4138Z"/>
<path id="path1_fill" fill-rule="evenodd" d="M 14.3152 11.6772C 14.3152 7.93488 12.846 4.33268 10.2251 1.69107C 8.00142 -0.550302 4.40773 -0.570315 2.18401 1.67105L 1.03998e-07 3.85238C 0.0794187 3.77234 0.198547 3.73231 0.29782 3.73231C 0.416948 3.73231 0.536075 3.79235 0.615493 3.8724L 10.1854 13.5383C 12.4091 15.7797 12.4091 19.4019 10.1854 21.6432C 12.8261 19.0016 14.3152 15.4194 14.3152 11.6772Z"/>
<path id="path2_fill" fill-rule="evenodd" d="M 1.64056 10.2863C 3.86428 12.5276 7.45797 12.5276 9.70155 10.3063C 9.70155 10.3063 10.595 9.36572 11.8657 8.08494C 11.7069 8.26505 11.409 8.26505 11.2304 8.10495L 11.2105 8.08494L 3.84443 0.660403C 3.74516 0.580355 3.70545 0.440268 3.70545 0.320195C 3.70545 0.200122 3.74516 0.0800489 3.82457 4.36232e-08L 1.68027 2.16132C -0.543445 4.40269 -0.5633 8.0249 1.64056 10.2863Z"/>
</defs>
</svg>
