<?xml version="1.0" encoding="UTF-8"?>
<svg width="28px" height="29px" viewBox="0 0 28 29" version="1.1" xmlns="http://www.w3.org/2000/svg" xmlns:xlink="http://www.w3.org/1999/xlink">
    <!-- Generator: Sketch 48.2 (47327) - http://www.bohemiancoding.com/sketch -->
    <title>omg</title>
    <desc>Created with Sketch.</desc>
    <defs></defs>
    <g id="Page-1" stroke="none" stroke-width="1" fill="none" fill-rule="evenodd">
        <g id="omg">
            <g id="Vector">
                <rect id="Path" fill="#FFFFFF" x="4" y="5" width="20" height="19"></rect>
                <path d="M23.8901,4.12752 C18.4301,-1.37584 9.55504,-1.37584 4.09502,4.12752 C-1.36501,9.63088 -1.36501,18.5763 4.09502,24.0797 C9.55504,29.5831 18.4301,29.5831 23.8901,24.0797 C29.3501,18.5763 29.3501,9.63088 23.8901,4.12752 Z M21.7061,14.4138 L14.3003,21.8784 C14.1216,22.0585 13.8436,22.0585 13.665,21.8784 L6.25917,14.4138 C6.08048,14.2337 6.08048,13.9535 6.25917,13.7734 L13.665,6.30885 C13.8436,6.12874 14.1216,6.12874 14.3003,6.30885 L21.7061,13.7734 C21.8848,13.9535 21.8848,14.2337 21.7061,14.4138 Z" id="path0_fill" fill="#2176FF" fill-rule="nonzero"></path>
                <path d="M28.0002,14.0736 C28.0002,10.33128 26.531,6.72908 23.9101,4.08747 C21.68642,1.846098 18.09273,1.826085 15.86901,4.06745 L13.6850001,6.24878 C13.7644187,6.16874 13.883547,6.12871 13.98282,6.12871 C14.101948,6.12871 14.221075,6.18875 14.300493,6.2688 L23.8704,15.9347 C26.0941,18.1761 26.0941,21.7983 23.8704,24.0396 C26.5111,21.398 28.0002,17.8158 28.0002,14.0736 Z" id="path1_fill" fill="#1A53F0" fill-rule="nonzero"></path>
                <path d="M3.64056,24.2863 C5.86428,26.5276 9.45797,26.5276 11.70155,24.3063 C11.70155,24.3063 12.595,23.36572 13.8657,22.08494 C13.7069,22.26505 13.409,22.26505 13.2304,22.10495 L13.2105,22.08494 L5.84443,14.660403 C5.74516,14.580355 5.70545,14.440268 5.70545,14.320195 C5.70545,14.200122 5.74516,14.0800489 5.82457,14 L3.68027,16.16132 C1.456555,18.40269 1.4367,22.0249 3.64056,24.2863 Z" id="path2_fill" fill="#1A53F0" fill-rule="nonzero"></path>
            </g>
        </g>
    </g>
</svg>