<?xml version="1.0" encoding="utf-8"?>
<!-- Generator: Adobe Illustrator 22.1.0, SVG Export Plug-In . SVG Version: 6.00 Build 0)  -->
<svg version="1.1" id="Layer_1" xmlns="http://www.w3.org/2000/svg" xmlns:xlink="http://www.w3.org/1999/xlink" x="0px" y="0px"
	 viewBox="0 0 30 30" style="enable-background:new 0 0 30 30;" xml:space="preserve">
<style type="text/css">
	.st0{fill:#FFFFFF;}
	.st1{fill:url(#Fill-1_1_);}
	.st2{fill:url(#Fill-1-Copy-6_1_);}
</style>
<title>Artboard 1</title>
<circle class="st0" cx="15" cy="15" r="15"/>
<g id="Group-6">
	
		<linearGradient id="Fill-1_1_" gradientUnits="userSpaceOnUse" x1="-664.2556" y1="-368.7927" x2="-664.3073" y2="-368.8075" gradientTransform="matrix(213.68 0 0 317.98 141955.3594 117283.0547)">
		<stop  offset="0" style="stop-color:#00D7AF"/>
		<stop  offset="1" style="stop-color:#46737A"/>
	</linearGradient>
	<path id="Fill-1" class="st1" d="M12,16.1c-0.1,0.1-0.2,0.2-0.2,0.4c0,0.9,0,1.8,0,2.7c0,0.6-0.4,0.8-0.9,0.5l-4.1-2.4
		c-0.2-0.1-0.3-0.3-0.3-0.5v-3.7l0.2,0.1l-0.2-0.1V7.3c0-0.2,0.1-0.4,0.3-0.5L11.5,4c0.2-0.1,0.4-0.1,0.6,0l4.7,2.8
		c0.2,0.1,0.3,0.3,0.3,0.5v5.5c0,0.2-0.1,0.4-0.3,0.5L12,16.1"/>
	
		<linearGradient id="Fill-1-Copy-6_1_" gradientUnits="userSpaceOnUse" x1="-668.134" y1="-369.8148" x2="-668.1784" y2="-369.8296" gradientTransform="matrix(-213.68 0 0 -317.98 -142753.4062 -117578.1094)">
		<stop  offset="0" style="stop-color:#00D7AF"/>
		<stop  offset="1" style="stop-color:#46737A"/>
	</linearGradient>
	<path id="Fill-1-Copy-6" class="st2" d="M18,13.9c0.1-0.1,0.2-0.2,0.2-0.4c0-0.9,0-1.8,0-2.7c0-0.6,0.4-0.8,0.9-0.5l4.1,2.4
		c0.2,0.1,0.3,0.3,0.3,0.5v3.7l-0.2-0.1l0.2,0.1v5.9c0,0.2-0.1,0.4-0.3,0.5L18.5,26c-0.2,0.1-0.4,0.1-0.6,0l-4.7-2.8
		c-0.2-0.1-0.3-0.3-0.3-0.5v-5.5c0-0.2,0.1-0.4,0.3-0.5L18,13.9"/>
</g>
</svg>
