<svg width="28" height="28" viewBox="0 0 28 28" version="1.1" xmlns="http://www.w3.org/2000/svg" xmlns:xlink="http://www.w3.org/1999/xlink">
<title>pay</title>
<desc>Created using Figma</desc>
<g id="Canvas" transform="translate(-671 35)">
<g id="pay">
<g id="bg">
<use xlink:href="#path0_fill" transform="translate(671 -35)" fill="#F1F1F1"/>
</g>
<g id="Vector">
<use xlink:href="#path1_fill" transform="translate(675 -27)" fill="#302C2C"/>
</g>
</g>
</g>
<defs>
<path id="path0_fill" d="M 28 14C 28 21.732 21.732 28 14 28C 6.26801 28 0 21.732 0 14C 0 6.26801 6.26801 0 14 0C 21.732 0 28 6.26801 28 14Z"/>
<path id="path1_fill" d="M 19.9183 5.9821C 19.8725 5.8799 19.7983 5.7946 19.7228 5.7135C 17.9938 3.7906 14.4749 -8.54493e-08 14.4749 -8.54493e-08L 10.0049 4.8044L 5.47682 0.0454C 5.47682 0.0454 1.91682 3.8684 0.173219 5.8133C -0.0536807 6.0333 -0.0536807 6.4293 0.149819 6.6641C 1.05612 7.6787 5.50822 12.5036 5.50822 12.5036L 9.99933 7.6664L 14.4583 12.5079L 19.8376 6.6596C 19.8376 6.6596 19.9511 6.5438 19.9751 6.4657C 20.0281 6.3054 19.9904 6.1298 19.9183 5.9821ZM 2.65252 6.5174C 2.50762 6.3488 2.55622 6.083 2.69152 5.9237C 3.26072 5.2868 5.53832 2.8854 5.53832 2.8854L 8.71053 6.1963L 5.53262 9.61211C 5.53262 9.61211 3.58792 7.5715 2.65252 6.5174ZM 17.1873 6.6304C 17.1295 6.7495 16.9541 6.9472 16.9541 6.9472L 14.4901 9.57811L 11.3101 6.2542L 14.4409 2.8822C 14.4409 2.8822 16.2446 4.7183 17.0709 5.7048C 17.1409 5.7915 17.2234 5.8729 17.2589 5.9811C 17.3349 6.1946 17.287 6.4328 17.1873 6.6303"/>
</defs>
</svg>
