<?xml version="1.0" encoding="UTF-8"?>
<svg width="28px" height="28px" viewBox="0 0 28 28" version="1.1" xmlns="http://www.w3.org/2000/svg" xmlns:xlink="http://www.w3.org/1999/xlink">
    <!-- Generator: Sketch 50.2 (55047) - http://www.bohemiancoding.com/sketch -->
    <title>poe</title>
    <desc>Created with Sketch.</desc>
    <defs></defs>
    <g id="Wallet" stroke="none" stroke-width="1" fill="none" fill-rule="evenodd">
        <g id="New" transform="translate(-44.000000, -139.000000)">
            <g id="poe" transform="translate(44.000000, 139.000000)">
                <g id="poet">
                    <g id="Group" transform="translate(0.040076, 0.103851)" fill="#FFFFFF">
                        <ellipse id="Oval" cx="13.9636588" cy="13.9185286" rx="13.9454058" ry="13.9003347"></ellipse>
                    </g>
                    <g id="Group" transform="translate(0.040076, 0.103851)" fill="#212121" fill-rule="nonzero">
                        <path d="M13.9878749,0.0181034406 C14.0847397,0.0181034406 14.1816044,0.0181034406 14.2784692,0.0211206807 C14.4721987,0.0241379208 14.6659282,0.0331896412 14.8596577,0.0452586016 C15.3863597,0.0784482428 15.9130618,0.141810285 16.4306828,0.235344728 C16.978574,0.331896412 17.5173842,0.461637736 18.0471133,0.624568702 C18.5859234,0.787499668 19.1126255,0.983620274 19.6241924,1.20991328 C20.3294889,1.52370625 21.0105691,1.89784403 21.6553251,2.32327488 C22.3121892,2.75775746 22.932729,3.24655035 23.5078634,3.78663633 C24.0890519,4.32973955 24.621808,4.92111861 25.1000777,5.55172179 C25.5783474,6.18232498 26.0021306,6.85215228 26.3653734,7.55516922 C26.6680758,8.14353105 26.9314268,8.75301355 27.1493725,9.38059949 C27.3612641,9.99611647 27.5307774,10.6267197 27.6548854,11.2663746 C27.7426691,11.7099089 27.8062366,12.1564604 27.8486149,12.6060292 C27.8909932,13.043529 27.9091554,13.4810288 27.9091554,13.9185286 C27.9091554,14.552149 27.866777,15.1887867 27.7820204,15.8163726 C27.6851556,16.5103379 27.5368315,17.1952514 27.340075,17.8650787 C27.1312104,18.5650784 26.8678593,19.2469746 26.5530489,19.904733 C26.1958601,20.646974 25.7720769,21.3590427 25.2877531,22.02887 C24.7973753,22.707749 24.2464571,23.3413695 23.6440794,23.9206796 C23.0174856,24.5241276 22.3333783,25.070248 21.6008387,25.546972 C20.8834341,26.0176614 20.1236513,26.4189544 19.3305712,26.7508508 C18.8916528,26.9318852 18.4436533,27.0917989 17.9865728,27.230592 C17.5385733,27.3633505 17.0845198,27.4749884 16.6244123,27.5655056 C16.1854939,27.6499883 15.7465755,27.7133504 15.3016031,27.7555917 C14.8657117,27.7948159 14.4267933,27.8159365 13.9878749,27.8189538 C13.5489566,27.8189538 13.1100382,27.7978331 12.6711198,27.758609 C12.2261473,27.7193849 11.7842019,27.6560228 11.3483106,27.5745573 C10.888203,27.4870574 10.4311225,27.3754195 9.98312303,27.2426609 C9.52604251,27.1068851 9.07804305,26.9469714 8.63609764,26.765937 C7.84301752,26.4370578 7.08020763,26.0357649 6.3628031,25.5711099 C5.63026345,25.094386 4.94615617,24.5512827 4.31350829,23.9478347 C3.71113064,23.3715419 3.15718536,22.7409387 2.66680758,22.0650769 C2.18248384,21.3952496 1.75567355,20.6861982 1.39545777,19.9409399 C1.07762032,19.2861988 0.81124226,18.6043025 0.602377648,17.90732 C0.402594107,17.2374927 0.251242939,16.5525792 0.154378191,15.8616312 C0.0635674905,15.2159419 0.0181621401,14.5672352 0.0181621401,13.9185286 C0.0181621401,13.4870633 0.0393513037,13.0555979 0.0787026073,12.6301671 C0.118053911,12.1866328 0.181621401,11.7461157 0.266378056,11.3086159 C0.38745899,10.668961 0.553945275,10.0383578 0.76583691,9.41982361 C0.980755568,8.79223767 1.24107958,8.18275517 1.54680894,7.59137611 C1.90702472,6.88835916 2.32778096,6.21853186 2.80302363,5.58491144 C3.28129332,4.95129101 3.81404943,4.35991195 4.38918387,3.81379149 C4.96431831,3.27370551 5.58183107,2.78189538 6.23869514,2.34439556 C6.88345112,1.91896471 7.56150435,1.54482693 8.26680079,1.22801672 C8.77836774,0.998706475 9.3050698,0.802585868 9.84085294,0.636637662 C10.370582,0.473706697 10.9093922,0.340948132 11.4542564,0.241379208 C11.9749044,0.147844765 12.4985794,0.084482723 13.0252815,0.0482758417 C13.219011,0.0362068813 13.4127405,0.027155161 13.60647,0.0211206807 C13.7033347,0.0181034406 13.8001995,0.0181034406 13.8970642,0.0181034406 C13.9273345,0.0181034406 13.9576047,0.0181034406 13.9878749,0.0181034406 Z M13.9424696,1.0228444 C13.8879832,1.0228444 13.8334967,1.0228444 13.7759833,1.0228444 C13.6670105,1.02586164 13.5550106,1.02887888 13.4430107,1.03189612 C13.3824703,1.03491336 13.3189028,1.0379306 13.2583623,1.04094784 C13.091876,1.04999956 12.9284168,1.06206852 12.7649575,1.07715472 C12.4531741,1.10732712 12.1444177,1.14655124 11.8356613,1.19784432 C11.7145804,1.21594776 11.5965265,1.23706844 11.4754456,1.26120636 C11.4300402,1.27025808 11.3846348,1.2793098 11.3392295,1.28836153 C11.2393377,1.30948221 11.142473,1.33060289 11.0456082,1.35474081 C10.9336084,1.37887873 10.8246355,1.40603389 10.7126357,1.43318905 C10.5643115,1.47241317 10.4190144,1.51465453 10.2706903,1.55689589 C9.95587982,1.65043034 9.6410694,1.75603374 9.33231301,1.87370611 C9.19912398,1.92499919 9.06593496,1.97930951 8.93274593,2.03663707 C8.85404332,2.06982671 8.77534071,2.10301635 8.69663811,2.13922324 C8.55436801,2.20258528 8.41209791,2.26896456 8.26982781,2.33836108 C8.16993604,2.38663692 8.0730713,2.43793001 7.97317952,2.48922309 C7.92172013,2.51637825 7.87026073,2.54353341 7.81880133,2.57068857 C7.67047719,2.64913681 7.52215304,2.73361954 7.37685592,2.8211195 C7.17707238,2.93879186 6.97728884,3.06249871 6.78355935,3.19224003 C6.65339734,3.27973999 6.52626236,3.36723996 6.39912738,3.45775716 C6.37491119,3.47887784 6.34766798,3.49698128 6.32042477,3.51810196 C6.29620858,3.5362054 6.26896537,3.55430884 6.24474919,3.57241229 C6.1811817,3.62068813 6.11761421,3.66594673 6.05707374,3.71422257 C5.96626304,3.78663633 5.87545234,3.8590501 5.78464164,3.93146386 C5.56972298,4.10646378 5.35783134,4.29051543 5.15502078,4.48060156 C4.90680486,4.70689457 4.67069704,4.94525653 4.44367029,5.19267022 C4.33469745,5.31034259 4.22572461,5.43103219 4.11977879,5.55473903 C3.99567083,5.7025838 3.87156287,5.85344581 3.75350896,6.00430781 C3.62637398,6.16723878 3.50226603,6.33620422 3.38118509,6.50516967 C3.28129332,6.64697995 3.18442857,6.79180748 3.08756383,6.936635 C3.06334764,6.97585912 3.03913145,7.01508325 3.01491526,7.05430737 C2.96345587,7.13577285 2.91199647,7.21723833 2.86053707,7.30172106 C2.78183447,7.43447962 2.70313186,7.57025543 2.62745627,7.70603123 C2.51545641,7.91120356 2.40648357,8.11939312 2.30356478,8.33059993 C2.08259207,8.78922043 1.88583555,9.26292712 1.72237629,9.74568554 C1.66183582,9.92068547 1.60432238,10.0987026 1.55286298,10.2737026 C1.47113335,10.5482714 1.39848479,10.8258575 1.33794432,11.1034436 C1.29859302,11.2814608 1.26226874,11.4564607 1.22897148,11.6344778 C1.19567423,11.8336157 1.16237697,12.0357708 1.13816078,12.2349086 C1.11697162,12.3978396 1.09880948,12.5577533 1.08367436,12.7206843 C1.07156627,12.8564601 1.05945818,12.9922359 1.05340413,13.1310289 C1.03826901,13.3573219 1.02918794,13.5866322 1.02918794,13.8129252 C1.02616092,14.2685285 1.04432306,14.7241317 1.08972841,15.1767177 C1.10486353,15.3517177 1.12605269,15.5267176 1.15026888,15.7017175 C1.19567423,16.0185277 1.25318767,16.3383552 1.31978218,16.6521481 C1.38940372,16.9780101 1.47416038,17.3008548 1.5679981,17.617665 C1.61037643,17.7504235 1.65275475,17.8831821 1.69513308,18.0129234 C1.73448438,18.1245613 1.77383569,18.2361992 1.81318699,18.3478371 C1.87372746,18.5137853 1.94032197,18.6797335 2.00691649,18.8426645 C2.04324077,18.9271472 2.07956505,19.0116299 2.11588933,19.0961126 C2.17340277,19.2288712 2.23394324,19.3586125 2.29448371,19.4883538 C2.40042952,19.7055951 2.51242939,19.9198192 2.62745627,20.1280087 C2.8121047,20.4629224 3.01188824,20.7918016 3.2268069,21.1086118 C3.37210402,21.3228358 3.52345519,21.5310254 3.6808604,21.739215 C3.73534682,21.8086115 3.79286027,21.8810252 3.84734669,21.9504218 C3.91999525,22.040939 3.99567083,22.1314562 4.07134642,22.2219734 C4.16215712,22.330594 4.25599484,22.4361974 4.35285959,22.5418008 C4.56475122,22.7771456 4.78572393,23.0034386 5.01275068,23.2236971 C5.31848004,23.5133521 5.63631749,23.787921 5.96626304,24.0504209 C6.10853314,24.1620588 6.25383026,24.2706794 6.39912738,24.3762828 C6.55653259,24.4909379 6.71696483,24.5995586 6.88042409,24.705162 C6.98334289,24.7745585 7.0892887,24.8409378 7.1922075,24.9042998 C7.22550476,24.9254205 7.25880201,24.943524 7.29209927,24.9646446 C7.38896402,25.0219722 7.48280174,25.0762825 7.57966649,25.1336101 C7.6583691,25.1788687 7.74009873,25.22111 7.81880133,25.2663686 C7.88236882,25.2995583 7.94593631,25.3327479 8.00950381,25.3659376 C8.15782795,25.4443858 8.31220614,25.5198168 8.46658433,25.5922306 C8.64215169,25.6736961 8.82377309,25.7551615 9.00539449,25.8275753 C9.19912398,25.9090408 9.3958805,25.9844718 9.59263702,26.0568856 C9.69858284,26.0930924 9.80452866,26.1292993 9.91047447,26.1655062 C10.0255014,26.2017131 10.1375012,26.23792 10.2525281,26.2741268 C10.4250684,26.3254199 10.5976088,26.3706785 10.7731761,26.4159371 C10.8639868,26.440075 10.9547975,26.4611957 11.0456082,26.4823164 C11.142473,26.5034371 11.2393377,26.5245578 11.3392295,26.5456785 C11.4814996,26.5758509 11.6298237,26.603006 11.7751209,26.6271439 C12.0082017,26.6663681 12.2443095,26.6995577 12.4804173,26.7267129 C12.6620387,26.7478335 12.8466871,26.765937 13.0313356,26.7780059 C13.0797679,26.7810232 13.1251733,26.7870577 13.1736057,26.7870577 C13.2977136,26.7961094 13.4218216,26.8021439 13.5459295,26.8051611 C13.6942537,26.8111956 13.8395508,26.8111956 13.9848479,26.8111956 C14.0151181,26.8111956 14.0423614,26.8111956 14.0696046,26.8111956 C14.1604153,26.8111956 14.251226,26.8081783 14.3390096,26.8081783 C14.4086312,26.8051611 14.4782527,26.8021439 14.5478743,26.7991266 C14.5811715,26.7991266 14.6174958,26.7961094 14.6507931,26.7930921 C14.7385767,26.7900749 14.8293874,26.7840404 14.9201981,26.7780059 C15.029171,26.7689542 15.1381438,26.7599025 15.2471167,26.7508508 C15.286468,26.7448163 15.3288463,26.7417991 15.3681976,26.7357646 C15.6254946,26.7086094 15.8797645,26.6754198 16.1340345,26.6301612 C16.3217099,26.5999888 16.5063584,26.5637819 16.6879798,26.5245578 C16.7485202,26.5124888 16.8060337,26.5004198 16.8665742,26.4853336 C17.1178171,26.4280061 17.36906,26.3616268 17.620303,26.289213 C18.0622484,26.1594717 18.4981397,26.0055925 18.92495,25.8275753 C19.3608414,25.6495581 19.7846247,25.4443858 20.1962998,25.2180928 C20.3325159,25.1426618 20.4687319,25.0642136 20.601921,24.9857653 C20.6200831,24.9767136 20.6352182,24.9646446 20.6533804,24.9555929 C20.741164,24.9012826 20.8289477,24.8469723 20.9167314,24.7896447 C21.1104609,24.6689551 21.2981363,24.542231 21.4827848,24.4094725 C21.6341359,24.3008518 21.7854871,24.1892139 21.9338113,24.0715416 C22.1426759,23.9086106 22.3454864,23.7396452 22.54527,23.5646452 C22.675432,23.4499901 22.805594,23.3293005 22.9297019,23.2086109 C22.9781343,23.1633523 23.0235397,23.1180937 23.068945,23.0728351 C23.1658098,22.9793006 23.2596475,22.882749 23.3534852,22.78318 C23.5351066,22.5930939 23.713701,22.3939561 23.8832143,22.191801 C24.0133763,22.0379217 24.1374843,21.8810252 24.2615922,21.7211115 C24.3039705,21.6668012 24.3463489,21.6094736 24.3887272,21.5521461 C24.4462406,21.4736978 24.5037541,21.3952496 24.5582405,21.3168013 C24.6006188,21.2564565 24.6399701,21.199129 24.6793214,21.1387842 C24.7398619,21.0543015 24.7973753,20.9668015 24.8518618,20.8793015 C24.8972671,20.809905 24.9426725,20.7374912 24.9880778,20.6680947 C25.136402,20.4236983 25.2786721,20.1762846 25.4118611,19.9228364 C25.4784556,19.8021468 25.5389961,19.6814572 25.5995365,19.5577504 C25.6842932,19.3857677 25.7629958,19.213785 25.8386714,19.0418023 C25.8871038,18.9271472 25.9355361,18.8124921 25.9809415,18.6978369 C26.0354279,18.5650784 26.0868873,18.4293026 26.1353197,18.2935268 C26.177698,18.1818889 26.2140223,18.070251 26.2533736,17.9586131 C26.301806,17.8077511 26.3502383,17.6568891 26.3926167,17.5030099 C26.4138058,17.4336133 26.434995,17.3642168 26.4531571,17.2948203 C26.4834274,17.1771479 26.5136976,17.0624928 26.5409408,16.9448204 C26.568184,16.8361998 26.5924002,16.7245619 26.6166164,16.612924 C26.6711028,16.3564586 26.7195352,16.0999932 26.7588865,15.8405106 C26.7861297,15.6594761 26.8073189,15.4784417 26.828508,15.2974073 C26.8739134,14.853873 26.8981296,14.4073215 26.9011566,13.9577527 C26.9041836,13.2336151 26.8466702,12.5094775 26.7255892,11.7943916 C26.6408326,11.2874952 26.5258057,10.7866334 26.3835356,10.2948232 C26.3351032,10.1349095 26.2866708,9.97801303 26.2352114,9.82111654 C26.171644,9.64008214 26.1080765,9.46206497 26.0384549,9.28404781 C25.9385632,9.02154792 25.8265633,8.76206527 25.7085094,8.50559986 C25.6116446,8.29439305 25.5056988,8.08318624 25.393699,7.87801392 C24.9366184,7.02111773 24.3826731,6.21551462 23.7439712,5.48232527 C23.6259173,5.34353223 23.5048364,5.21077366 23.3807284,5.0780151 C23.2778096,4.97241169 23.1748908,4.86379105 23.068945,4.76120489 C22.9720803,4.6646532 22.8752155,4.57111876 22.7753237,4.48060156 C22.5937023,4.31163611 22.4090539,4.14870515 22.2213785,3.99180866 C22.1668921,3.94655006 22.1093786,3.90129146 22.0548922,3.8590501 C21.9943517,3.81077425 21.9338113,3.76249841 21.8732708,3.71422257 C21.7642979,3.63275709 21.6553251,3.5512916 21.5463523,3.46982612 C21.1074339,3.15603315 20.6533804,2.8663781 20.1781377,2.60689545 C20.0237595,2.52241273 19.8693813,2.44094725 19.7119761,2.362499 C19.6695978,2.34439556 19.6302465,2.32327488 19.5878681,2.3021542 C19.4637602,2.24482664 19.3396522,2.18448184 19.2125173,2.13017151 C19.1307876,2.09396463 19.046031,2.05775775 18.9612743,2.02155087 C18.7614908,1.93706815 18.5586802,1.85861991 18.3558696,1.78620614 C18.010789,1.6624993 17.6657083,1.55387865 17.3115466,1.46034421 C17.2086278,1.43318905 17.105709,1.40603389 17.0027902,1.38189597 C16.8211688,1.33663737 16.6365204,1.29741325 16.451872,1.26120636 C16.2611695,1.22499948 16.06744,1.19180984 15.8737105,1.16163744 C15.7950079,1.14956848 15.7132783,1.14051676 15.6315486,1.1284478 C15.4499272,1.10430988 15.2652788,1.08620644 15.0836574,1.07112024 C14.9201981,1.05603404 14.7537118,1.04698232 14.5902526,1.0379306 C14.5327391,1.03491336 14.4782527,1.03189612 14.4237663,1.03189612 C14.3329556,1.02887888 14.2421449,1.02586164 14.1513342,1.0228444 C14.0817127,1.0228444 14.0120911,1.0228444 13.9424696,1.0228444 Z" id="Shape"></path>
                    </g>
                    <g id="Group" transform="translate(5.688292, 6.089611)">
                        <g transform="translate(3.301281, 0.992882)">
                            <g id="Bottom" transform="translate(0.643107, 0.738297)" fill="#E1DED9">
                                <g id="Group" transform="translate(2.523717, 7.239366)" stroke="#FA903E" stroke-width="1.16401926">
                                    <polygon id="Shape" points="4.86377577 0.0131785476 1.77277189 0.0131785476 0.00894502731 1.76592538 3.09994891 1.76592538"></polygon>
                                </g>
                                <g id="Group" transform="translate(5.207225, 4.537764)" stroke="#FA903E" stroke-width="1.16401926">
                                    <polygon id="Shape" points="4.90916351 0 1.81849092 0 0.0212030277 1.7856932 3.11187561 1.7856932"></polygon>
                                </g>
                                <g id="Group" transform="translate(7.956993, 0.024111)">
                                    <path d="M2.94026361,0 C3.0267322,0.0823659226 3.10591226,0.171321119 3.17846637,0.266865589 C3.26592886,0.378883244 3.34411502,0.497490172 3.41203097,0.622686375 C3.52964152,0.836837773 3.61611011,1.07075699 3.66878639,1.31126549 C3.73007639,1.58801499 3.74564736,1.87794304 3.71483671,2.15798717 C3.69727795,2.32271902 3.66447952,2.48415623 3.61677271,2.6422988 C3.57072238,2.79055746 3.51108887,2.93881612 3.43886605,3.07719087 C3.34477762,3.26169053 3.22915486,3.43301165 3.09531075,3.58785959 L0.000331297308,3.58785959 L1.75156887,1.84499667 C1.81683444,1.75933611 1.84400081,1.74286292 1.87216109,1.63743454 C1.8827626,1.5978989 1.88806336,1.55836326 1.88806336,1.51882761 C1.88806336,1.43646169 1.86652903,1.3573904 1.82577946,1.28490839 C1.80557033,1.25196202 1.78039173,1.21901565 1.75156887,1.18936392 L1.74825589,1.18606929 L2.94026361,0 Z" id="Shape"></path>
                                </g>
                                <g id="Group" transform="translate(0.038987, 9.908022)" stroke="#FA903E" stroke-width="1.16401926">
                                    <polygon id="Shape" points="4.65273939 0.0230624583 1.56173551 0.0230624583 0.000662594615 1.57813108 3.09166648 1.57813108"></polygon>
                                </g>
                            </g>
                            <g id="Tpo" fill="#FFFFFF">
                                <g id="Group" transform="translate(0.019499, 6.956325)">
                                    <polygon id="Shape" points="0.01722746 1.55177398 0.01722746 4.59931312 1.57763778 3.04753914 1.57763778 0"></polygon>
                                </g>
                                <g id="Group" transform="translate(5.187737, 1.553121)">
                                    <polygon id="Shape" points="0.0198778385 1.8120503 0.0198778385 4.85958943 1.81716573 3.07389623 1.81716573 0.0230624583"></polygon>
                                </g>
                                <g id="Group" transform="translate(2.504229, 4.287670)">
                                    <polygon id="Shape" points="0.0248472981 1.73956829 0.0248472981 4.79040206 1.771778 3.05083377 1.771778 0.0032946369"></polygon>
                                </g>
                                <g id="Group" transform="translate(7.904375, 0.004642)">
                                    <path d="M2.44398024,1.94383577 C2.36877575,1.87135376 2.33597732,1.86805912 2.23857591,1.82852348 C2.19815764,1.82193421 2.15807066,1.81863957 2.11798369,1.8120503 C2.01196855,1.82522884 1.97983271,1.81863957 1.88508168,1.8746484 C1.84996417,1.89441622 1.82081,1.92406795 1.78867416,1.94713041 L0.0324671362,3.69328797 L0.0324671362,0.64904347 C0.0390930823,0.642454196 0.0463816231,0.635864922 0.0533388665,0.632570285 C0.139476167,0.556793637 0.230251629,0.490900899 0.325333956,0.428302797 C0.452220825,0.345936875 0.586727532,0.273454863 0.726203699,0.214151399 C0.863360784,0.154847934 1.00581863,0.105428381 1.15125814,0.0724820119 C1.28543355,0.0395356428 1.42192804,0.0164731845 1.55908513,0.00658927381 C1.60679194,0.0032946369 1.65416746,0 1.70187427,0 C1.7230773,0 1.74428033,0 1.76515206,0 C1.77575357,0 1.78635508,0 1.7969566,0 C1.82876114,0 1.86056568,0 1.89203892,0 C1.95034725,0.0032946369 2.00832428,0.00658927381 2.06630131,0.0131785476 C2.26176672,0.0362410059 2.45491305,0.0790712857 2.64110214,0.141669387 C2.86108355,0.217446036 3.07112604,0.322874417 3.26360978,0.451365256 C3.39745389,0.543615089 3.52268427,0.645748833 3.63598795,0.757766488 L2.44398024,1.94383577 Z" id="Shape"></path>
                                </g>
                            </g>
                        </g>
                        <g transform="translate(0.007808, 0.009132)" fill="#212121" id="Shape">
                            <path d="M0.021534325,15.8307303 L2.36413759,13.4981274 L2.36413759,9.09319785 L10.1416732,1.3573904 L10.1416732,1.35080113 C10.2420563,1.25196202 10.3424394,1.15312292 10.4424911,1.05428381 C10.4537552,1.0443999 10.4646881,1.03122135 10.4762835,1.02133744 C10.5037811,0.994980345 10.5319414,0.96862325 10.560433,0.945560791 C10.6256986,0.886257327 10.6929519,0.8302485 10.762193,0.777534309 C10.7986357,0.747882577 10.8354097,0.721525482 10.8728463,0.695168387 C10.9364554,0.64904347 11.001721,0.60621319 11.0683118,0.563382911 C11.0845453,0.553499 11.1007789,0.543615089 11.1170125,0.533731178 C11.1836032,0.494195536 11.2518505,0.45795453 11.3210916,0.421713524 C11.4257815,0.368999333 11.5331219,0.31957978 11.6427813,0.2767495 C11.8061109,0.214151399 11.9740786,0.161437208 12.145028,0.121901565 C12.3136583,0.0823659226 12.4856016,0.0527141905 12.6585388,0.0395356428 C12.7085647,0.0362410059 12.7585906,0.032946369 12.8086165,0.0296517321 C12.8523478,0.0263570952 12.8957477,0.0263570952 12.9394789,0.0263570952 C12.9603507,0.0263570952 12.9815537,0.0263570952 13.0027567,0.0263570952 C13.0319109,0.0263570952 13.0607338,0.0263570952 13.0898879,0.0263570952 C13.1763565,0.0296517321 13.2628251,0.0362410059 13.3486311,0.0461249166 C13.5215683,0.0625981012 13.692849,0.0922498333 13.8611481,0.135080113 C13.9665006,0.161437208 14.0708593,0.194383577 14.1735614,0.230624583 C14.2222621,0.247097768 14.2703002,0.263570952 14.318007,0.283338774 C14.5628358,0.382177881 14.7964004,0.504079446 15.0140627,0.652338107 C15.4195706,0.929087607 15.7684267,1.28820303 16.0314767,1.70003264 C16.1384858,1.86805912 16.231249,2.04596952 16.3087726,2.23046918 C16.3680748,2.36884393 16.418432,2.51380796 16.4595128,2.66206662 C16.5595646,3.02118204 16.6026333,3.40006528 16.5870623,3.77235925 C16.5767921,4.01616239 16.5413433,4.25996552 16.4817098,4.49717937 C16.4373159,4.67508977 16.3793389,4.84641089 16.3087726,5.01443737 C16.2415192,5.17257994 16.1620079,5.33072251 16.0722263,5.47898117 C16.0142493,5.57452564 15.9516341,5.66677547 15.8850433,5.75573067 C15.807851,5.86115905 15.7246954,5.95999816 15.6369016,6.05554263 C15.6057597,6.088489 15.5739551,6.12143537 15.5418193,6.15438174 L15.5328743,6.16097101 C15.4984194,6.19721202 15.4633018,6.23015838 15.4275217,6.26310475 C15.3877661,6.29934576 15.3470165,6.33558677 15.3056043,6.36853313 L15.3238257,6.35535459 L7.46744132,14.1669387 L3.01016734,14.1669387 L1.33943502,15.8307303 L0.021534325,15.8307303 Z M8.62830708,11.6531307 L5.5373032,11.6531307 L3.97623029,13.2081993 L7.06723417,13.2081993 L8.62830708,11.6531307 Z M3.33020054,9.49184892 L3.33020054,12.5393881 L4.89061086,10.9876141 L4.89061086,7.94007494 L3.33020054,9.49184892 Z M11.3240733,8.97459093 L8.23306939,8.97459093 L6.46924253,10.7273378 L9.56024641,10.7273378 L11.3240733,8.97459093 Z M5.82255018,7.01098733 L5.82255018,10.0618211 L7.56948089,8.32225282 L7.56948089,5.27471368 L5.82255018,7.01098733 Z M14.0529692,6.25981012 L10.9622966,6.25981012 L9.16500872,8.04550332 L12.2556813,8.04550332 L14.0529692,6.25981012 Z M8.50108892,4.34892071 L8.50108892,7.39645985 L10.2983768,5.61076665 L10.2983768,2.55993287 L8.50108892,4.34892071 Z M14.9888841,5.33401715 C15.1227282,5.17916921 15.238351,5.00784809 15.3324394,4.82334843 C15.4046622,4.68497368 15.4642957,4.53671502 15.5103461,4.38845636 C15.5580529,4.23031378 15.5908513,4.06887658 15.6084101,3.90414473 C15.6392207,3.62410059 15.6236497,3.33417255 15.5623597,3.05742305 C15.5096835,2.81691455 15.4232149,2.58299533 15.3056043,2.36884393 C15.2376884,2.24364773 15.1595022,2.1250408 15.0720397,2.01302315 C14.9004277,1.79228248 14.6933669,1.5978989 14.4614588,1.43975633 C14.268975,1.31126549 14.0589326,1.20583711 13.8389511,1.13006046 C13.6527621,1.06746236 13.4596157,1.02463208 13.2641503,1.00156962 C13.2061733,0.994980345 13.1481963,0.991685708 13.0898879,0.988391071 C13.0584147,0.988391071 13.0266101,0.988391071 12.9948056,0.988391071 C12.9842041,0.988391071 12.9736026,0.988391071 12.9630011,0.988391071 C12.9421293,0.988391071 12.9209263,0.988391071 12.8997233,0.988391071 C12.8520165,0.988391071 12.8046409,0.991685708 12.7569341,0.994980345 C12.619777,1.00486426 12.4832826,1.02792671 12.3491071,1.06087308 C12.2036676,1.09381945 12.0612098,1.14323901 11.9240527,1.20254247 C11.7845765,1.26184593 11.6500698,1.33432795 11.523183,1.41669387 C11.4281006,1.47929197 11.3373252,1.54518471 11.2511879,1.62096136 C11.2442306,1.62425599 11.2369421,1.63084527 11.2303161,1.63743454 L11.2303161,4.68167904 L12.9865232,2.93552148 C13.018659,2.91245902 13.0478132,2.88280729 13.0829307,2.86303947 C13.1776817,2.80703064 13.2098176,2.81361992 13.3158327,2.80044137 C13.3559197,2.80703064 13.3960066,2.81032528 13.4364249,2.81691455 C13.5351515,2.8564502 13.5676186,2.85974483 13.6451422,2.93552148 C13.6739651,2.96517321 13.6991437,2.99811958 13.7193528,3.03106595 C13.7601024,3.10354796 13.7816367,3.18261925 13.7816367,3.26498517 C13.7816367,3.30452081 13.7763359,3.34405646 13.7657344,3.3835921 C13.7375742,3.48902048 13.7104078,3.50549367 13.6451422,3.59115422 L11.8939046,5.33401715 L14.9888841,5.33401715 Z"></path>
                        </g>
                    </g>
                </g>
            </g>
        </g>
    </g>
</svg>