<?xml version="1.0" encoding="UTF-8"?>
<svg width="28px" height="28px" viewBox="0 0 28 28" version="1.1" xmlns="http://www.w3.org/2000/svg" xmlns:xlink="http://www.w3.org/1999/xlink">
    <!-- Generator: Sketch 49.2 (51160) - http://www.bohemiancoding.com/sketch -->
    <title>rcn</title>
    <desc>Created with Sketch.</desc>
    <defs></defs>
    <g id="rcn" stroke="none" stroke-width="1" fill="none" fill-rule="evenodd">
        <g id="Group">
            <rect id="bounding" x="0" y="0" width="28" height="28"></rect>
            <path d="M16.7451233,26.1246981 C20.6264432,25.1293688 23.6206044,22.475157 25.1731323,18.8256159 C25.8385015,17.1667336 25.9493963,16.2819964 26.0602912,14.0701533 C26.0602912,11.9689023 26.0602912,11.9689023 26.3929758,11.4159416 C27.0583449,10.4206122 27.723714,9.0935063 27.6128192,8.87232199 C27.5019243,8.42995337 27.2801346,8.20876906 26.94745,8.20876906 C26.5038706,8.20876906 26.3929758,8.31936122 25.9493963,9.20409845 C25.7276066,9.64646707 25.5058169,9.97824354 25.3949221,9.97824354 L25.2840272,9.97824354 L25.0622375,9.20409845 C23.8423941,6.66047889 21.2918124,4.11685933 18.6303358,3.01093778 C16.5233336,2.12620054 13.9727519,1.79442408 11.8657496,2.12620054 C6.87548108,3.01093778 3.10505597,6.54988674 1.88521255,11.4159416 C1.66342284,12.1900866 1.66342284,12.7430474 1.66342284,14.5125219 C1.55252799,16.6137728 1.55252799,16.6137728 1.10894856,17.2773258 C0.554474281,18.162063 0,19.1573924 0,19.599761 C0,19.9315375 0.332684568,20.2633139 0.776263993,20.2633139 C1.10894856,20.2633139 1.33073827,20.0421296 1.7743177,19.1573924 C1.99610741,18.8256159 2.10700227,18.4938395 2.21789712,18.4938395 C2.21789712,18.4938395 2.43968683,18.9362081 2.66147655,19.3785767 C3.88131996,21.9221963 6.21011194,24.2446315 8.64979878,25.3505531 C9.53695763,25.7929217 11.0894856,26.2352903 12.0875393,26.3458825 C13.1964879,26.5670668 15.5252799,26.3458825 16.7451233,26.1246981 Z" id="white" fill="#445BFB"></path>
            <g id="rcn_vectorized" transform="translate(0.000000, 2.000000)" fill="#FFFFFF" fill-rule="nonzero">
                <path d="M16.7451233,24.1246981 C20.6264432,23.1293688 23.6206044,20.475157 25.1731323,16.8256159 C25.8385015,15.1667336 25.9493963,14.2819964 26.0602912,12.0701533 C26.0602912,9.96890233 26.0602912,9.96890233 26.3929758,9.41594155 C27.0583449,8.42061216 27.723714,7.0935063 27.6128192,6.87232199 C27.5019243,6.42995337 27.2801346,6.20876906 26.94745,6.20876906 C26.5038706,6.20876906 26.3929758,6.31936122 25.9493963,7.20409845 C25.7276066,7.64646707 25.5058169,7.97824354 25.3949221,7.97824354 L25.2840272,7.97824354 L25.0622375,7.20409845 C23.8423941,4.66047889 21.2918124,2.11685933 18.6303358,1.01093778 C16.5233336,0.126200542 13.9727519,-0.205575922 11.8657496,0.126200542 C6.87548108,1.01093778 3.10505597,4.54988674 1.88521255,9.41594155 C1.66342284,10.1900866 1.66342284,10.7430474 1.66342284,12.5125219 C1.55252799,14.6137728 1.55252799,14.6137728 1.10894856,15.2773258 C0.554474281,16.162063 0,17.1573924 0,17.599761 C0,17.9315375 0.332684568,18.2633139 0.776263993,18.2633139 C1.10894856,18.2633139 1.33073827,18.0421296 1.7743177,17.1573924 C1.99610741,16.8256159 2.10700227,16.4938395 2.21789712,16.4938395 C2.21789712,16.4938395 2.43968683,16.9362081 2.66147655,17.3785767 C3.88131996,19.9221963 6.21011194,22.2446315 8.64979878,23.3505531 C9.53695763,23.7929217 11.0894856,24.2352903 12.0875393,24.3458825 C13.1964879,24.5670668 15.5252799,24.3458825 16.7451233,24.1246981 Z M11.7548547,22.6870001 C10.5350113,22.4658158 9.20427306,21.9128551 8.20621935,21.3598943 C6.98637594,20.5857492 5.43384795,19.037459 4.76847881,17.9315375 C4.21400453,17.0468002 3.43774054,15.2773258 3.43774054,14.8349571 C3.43774054,14.5031807 5.10116338,13.0654827 6.43190166,12.1807454 C8.64979878,10.6324553 11.3112753,9.74771802 14.4163313,9.3053494 C15.3034901,9.08416509 16.4124387,9.08416509 16.8560181,9.08416509 L16.966913,9.08416509 L15.7470696,10.3006788 L14.5272262,11.6277846 L14.9708056,12.0701533 C15.1925953,12.4019297 15.5252799,12.623114 15.5252799,12.623114 C15.7470696,12.623114 19.9610741,8.42061216 19.9610741,8.31002 C19.9610741,8.08883569 15.0817004,3.22278088 14.8599107,3.22278088 C14.8599107,3.22278088 14.5272262,3.44396519 14.3054364,3.6651495 L13.861857,4.21811027 L15.414385,5.76640044 C16.3015439,6.65113768 16.966913,7.42528276 16.966913,7.42528276 L16.966913,7.53587492 L16.3015439,7.53587492 C15.9688593,7.53587492 15.1925953,7.64646707 14.5272262,7.64646707 C10.2023268,8.31002 6.54279651,9.85831017 3.88131996,12.1807454 L3.21595083,12.7337062 L3.10505597,12.0701533 C3.10505597,10.5218631 3.65953025,8.31002 4.65758396,6.76172983 C5.32295309,5.54521613 6.98637594,3.88633381 8.20621935,3.11218872 C11.3112753,1.23212209 15.3034901,1.01093778 18.6303358,2.6698201 C20.1828638,3.44396519 21.7353918,4.8816632 22.7334455,6.31936122 C23.3988146,7.31469061 24.0641838,8.75238862 24.1750786,9.41594155 C24.1750786,9.74771802 24.1750786,9.85831017 23.1770249,10.7430474 C22.0680764,11.848969 20.848233,12.623114 19.4065998,13.3972591 C17.1887027,14.5031807 14.1945416,15.2773258 11.8657496,15.3879179 L10.6459062,15.3879179 L11.8657496,14.1714042 L13.085593,12.8442984 L12.8638033,12.5125219 C12.4202239,12.0701533 12.1984342,11.848969 12.0875393,11.848969 C11.8657496,11.848969 7.65174507,16.0514708 7.65174507,16.162063 C7.65174507,16.3832473 12.5311187,21.2493021 12.7529085,21.2493021 C12.7529085,21.2493021 13.085593,21.0281178 13.3073827,20.6963413 L13.7509622,20.2539727 L12.1984342,18.7056826 L10.6459062,17.0468002 L10.756801,17.0468002 C10.756801,16.9362081 11.0894856,16.9362081 11.3112753,16.9362081 C12.7529085,16.9362081 15.6361747,16.3832473 17.4104924,15.8302865 C20.071969,14.9455493 21.7353918,14.0608121 24.0641838,12.0701533 L24.5077632,11.7383768 L24.5077632,12.623114 C24.5077632,15.6091022 22.8443404,18.8162747 20.1828638,20.8069335 C19.295705,21.4704864 17.743177,22.2446315 16.6342284,22.576408 C15.414385,22.9081844 12.8638033,23.0187766 11.7548547,22.6870001 Z" id="Shape"></path>
            </g>
        </g>
    </g>
</svg>