<?xml version="1.0" encoding="UTF-8"?>
<svg width="28px" height="28px" viewBox="0 0 28 28" version="1.1" xmlns="http://www.w3.org/2000/svg" xmlns:xlink="http://www.w3.org/1999/xlink">
    <!-- Generator: Sketch 50.2 (55047) - http://www.bohemiancoding.com/sketch -->
    <title>REP</title>
    <desc>Created with Sketch.</desc>
    <defs></defs>
    <g id="Wallet" stroke="none" stroke-width="1" fill="none" fill-rule="evenodd">
        <g id="Desktop" transform="translate(-284.000000, -346.000000)">
            <g id="REP" transform="translate(284.000000, 346.000000)">
                <path d="M13.9677234,27.9561751 C6.27427065,27.9561751 0.0373751244,21.7192796 0.0373751244,14.0258269 C0.0373751244,6.33223483 6.27427065,0.095478607 13.9677234,0.095478607 C21.6613154,0.095478607 27.8980716,6.33223483 27.8980716,14.0258269 C27.8980716,21.7192796 21.6613154,27.9561751 13.9677234,27.9561751 Z" id="Fill-89" fill="#602453"></path>
                <path d="M13.5951841,5.54858308 C13.5911443,5.54677214 13.5869652,5.5451005 13.5827861,5.54328955 C11.3614527,9.53419502 9.1401194,13.5251005 6.91878607,17.516006 C6.94929353,17.5123841 6.96977114,17.5012398 6.99038806,17.4899562 C7.22344279,17.3626328 7.45440796,17.2315483 7.68997015,17.1088219 C8.23715423,16.8236677 8.79548259,16.5637274 9.38292537,16.3703741 C9.53156219,16.3213393 9.68437811,16.3036478 9.83900498,16.3127025 C10.1836418,16.3330408 10.5004179,16.4504736 10.8067463,16.6014786 C11.2731343,16.8313294 11.6747463,17.1485234 12.0593632,17.495807 C12.42601,17.826792 12.8606368,18.0422945 13.346806,18.144404 C13.4755224,18.1714289 13.6064677,18.1874488 13.7427065,18.2097373 C13.7339303,18.221996 13.7287761,18.2321652 13.7209751,18.2396876 C13.5324975,18.4191104 13.365194,18.6148318 13.2392637,18.844404 C13.2309055,18.8597274 13.1900896,18.870593 13.1705871,18.8643244 C12.9362786,18.7886826 12.6969552,18.7243244 12.4714229,18.6277871 C12.155204,18.4922448 11.8519403,18.3287025 11.5936716,18.0939761 C11.3101891,17.8362647 11.005393,17.6064139 10.6745473,17.4125035 C10.4533333,17.2829512 10.2273831,17.1613393 9.97621891,17.0990706 C9.86129353,17.0706527 9.74330348,17.0430706 9.62531343,17.0833294 C9.47068657,17.1359861 9.3159204,17.1892 9.163801,17.2489612 C8.53094527,17.4974786 7.93305473,17.8170408 7.34268657,18.1515085 C7.19042786,18.2378766 7.04095522,18.329399 6.88312438,18.422593 C9.11741294,19.7532199 11.3440398,21.0793891 13.5841791,22.4133592 L13.5841791,22.3088816 C13.5841791,21.4397672 13.5840398,20.5706527 13.5843184,19.7016776 C13.5843184,19.6541751 13.5841791,19.6065333 13.5894726,19.5595881 C13.6227662,19.2677473 13.7602587,19.0242448 13.9484577,18.80721 C14.2992239,18.4025333 14.7448557,18.1310308 15.2232239,17.9057771 C15.9324179,17.5717274 16.442408,17.0479463 16.7325771,16.3156279 C16.7431642,16.2890209 16.7555622,16.2631104 16.772,16.2260557 C16.790806,16.2594886 16.8016716,16.2801055 16.813791,16.2998866 C16.9214726,16.4756876 17.0284577,16.6520458 17.1379502,16.8267323 C17.170408,16.8786925 17.2374129,16.9252199 17.2390846,16.9759264 C17.2407562,17.0302547 17.1848955,17.0868119 17.152995,17.1418368 C16.7927562,17.7624338 16.2877811,18.2282647 15.6508856,18.5557672 C15.4465274,18.660802 15.2431443,18.7687622 15.0467264,18.8875881 C14.8287164,19.0193692 14.6282587,19.1759463 14.4705672,19.3800259 C14.3986866,19.4732199 14.3428259,19.5743542 14.3428259,19.6972199 C14.3429652,20.5805433 14.3429652,21.464006 14.3431045,22.3473294 L14.3431045,22.4364836 C16.5772537,21.0995881 18.7983085,19.7703542 21.0273035,18.4366627 C21.0066866,18.4249612 20.9969353,18.4189711 20.9867662,18.4138169 C20.0849154,17.9641453 19.1834826,17.5139164 18.2812139,17.0653592 C18.069194,16.9599065 17.8911642,16.8129413 17.7397413,16.6333791 C17.285194,16.0945532 17.0437811,15.4561254 16.907403,14.7772995 C16.8310647,14.3975582 16.7030448,14.0462348 16.5082985,13.7127423 C16.2794229,13.3208816 15.9683582,13.0067522 15.6021294,12.7518269 C15.2609751,12.5144537 14.8780299,12.3581552 14.4640199,12.2901751 C14.3769552,12.2758269 14.2890547,12.2655184 14.1999005,12.2531204 C14.2046368,12.2418368 14.205194,12.236404 14.2082587,12.2333393 C14.396597,12.0473692 14.5650149,11.8460756 14.692199,11.6120458 C14.6997214,11.598394 14.7323184,11.5879463 14.7497313,11.5915682 C14.84,11.6109313 14.9302687,11.6316876 15.0185871,11.6585731 C15.6199602,11.8417572 16.1437413,12.1547721 16.5913234,12.5967821 C17.0212139,13.0213791 17.3402189,13.5157672 17.5200597,14.0929015 C17.5731343,14.2632697 17.5816318,14.4470109 17.6192438,14.6226726 C17.716199,15.075409 17.8708259,15.5068318 18.1144677,15.9031502 C18.2523781,16.1270109 18.4259502,16.3113095 18.6675025,16.4312498 C19.4342289,16.8119662 20.1977512,17.1988119 20.9626667,17.5830109 C20.9906667,17.5970806 21.0200597,17.6083642 21.0646368,17.6277274 C18.8132139,13.5861154 16.5715423,9.56149851 14.3297313,5.5370209 C14.3247164,5.53813532 14.3197015,5.53924975 14.3145473,5.54022488 L14.3145473,5.62213532 C14.3145473,7.31286169 14.3146866,9.00358806 14.3141294,10.6941751 C14.3141294,10.7653592 14.3131542,10.8371005 14.3032637,10.9073095 C14.2588259,11.2260358 14.0938905,11.4841652 13.8803383,11.7134587 C13.5457313,12.073001 13.1388259,12.3318269 12.6983483,12.5418965 C12.5678209,12.6040259 12.4332537,12.6607224 12.3117811,12.7376179 C11.8530547,13.0287622 11.5192836,13.4360856 11.2731343,13.9136179 C10.9733532,14.4949313 10.9092736,15.1142746 11.015005,15.7545134 C11.0339502,15.869996 11.0637612,15.983807 11.0889751,16.1001254 C11.0790846,16.0987323 11.074209,16.0990109 11.0698905,16.0973393 C10.811204,15.998991 10.5522388,15.9010607 10.2943881,15.8004836 C10.2757214,15.7931005 10.2535721,15.7652398 10.2527363,15.7461552 C10.2427065,15.5001453 10.2216716,15.2534388 10.2319801,15.0079861 C10.2548259,14.4642846 10.43801,13.9619562 10.6905672,13.4887423 C11.0400796,12.8341552 11.5468657,12.3272299 12.2025672,11.9739562 C12.4237811,11.8547124 12.6501493,11.7446627 12.8664876,11.6170607 C13.1028856,11.4776179 13.3140697,11.3044637 13.4735721,11.0764239 C13.5511642,10.965399 13.5971343,10.8471303 13.596995,10.7060159 C13.5943483,9.02949851 13.5951841,7.3531204 13.5951841,5.67660299 C13.5951841,5.63397612 13.5951841,5.59134925 13.5951841,5.54858308 M22.169592,18.1913493 C22.1651343,18.489598 22.0394826,18.7212597 21.7820498,18.8754687 C20.563005,19.6055582 19.3432637,20.3345333 18.123801,21.0639264 C16.8920796,21.8005632 15.659801,22.5363642 14.4289154,23.274394 C14.1270448,23.4553493 13.8321393,23.45521 13.5297114,23.2742547 C11.0771343,21.805996 8.6238607,20.3388517 6.16975124,18.8731005 C5.93265672,18.7315682 5.78861692,18.5359861 5.7678607,18.2573791 C5.7558806,18.0987124 5.79920398,17.9534189 5.87637811,17.8152299 C6.26322388,17.1238667 6.64839801,16.4316677 7.03399005,15.7397473 L13.0364378,4.96894129 C13.1276816,4.8052597 13.2164179,4.64018507 13.3104478,4.47817512 C13.5458706,4.07224478 14.032597,3.95996617 14.4037015,4.23606567 C14.4989851,4.30697114 14.5793632,4.41130945 14.6381493,4.51620498 C15.4653333,5.99115025 16.2875025,7.46874229 17.1109254,8.94577711 C18.76,11.9040259 20.4090746,14.8622746 22.0588458,17.8199662 C22.1237612,17.9362846 22.1665274,18.0570607 22.169592,18.1913493" id="Fill-91" fill="#FFFFFF"></path>
            </g>
        </g>
    </g>
</svg>