<?xml version="1.0" encoding="UTF-8"?>
<svg width="201px" height="201px" viewBox="0 0 201 201" version="1.1" xmlns="http://www.w3.org/2000/svg" xmlns:xlink="http://www.w3.org/1999/xlink">
    <!-- Generator: Sketch 50.2 (55047) - http://www.bohemiancoding.com/sketch -->
    <title>REP</title>
    <desc>Created with Sketch.</desc>
    <defs></defs>
    <g id="Page-1" stroke="none" stroke-width="1" fill="none" fill-rule="evenodd">
        <g id="Artboard" transform="translate(-755.000000, -3510.000000)">
            <g id="REP" transform="translate(755.000000, 3510.000000)">
                <path d="M200.2683,100.6854 C200.2683,155.9134 155.4973,200.6854 100.2683,200.6854 C45.0403,200.6854 0.2683,155.9134 0.2683,100.6854 C0.2683,45.4564 45.0403,0.6854 100.2683,0.6854 C155.4973,0.6854 200.2683,45.4564 200.2683,100.6854" id="Fill-89" fill="#602453"></path>
                <path d="M97.594,39.8309 C97.565,39.8179 97.535,39.8059 97.505,39.7929 C81.559,68.4419 65.613,97.0909 49.667,125.7399 C49.886,125.7139 50.033,125.6339 50.181,125.5529 C51.854,124.6389 53.512,123.6979 55.203,122.8169 C59.131,120.7699 63.139,118.9039 67.356,117.5159 C68.423,117.1639 69.52,117.0369 70.63,117.1019 C73.104,117.2479 75.378,118.0909 77.577,119.1749 C80.925,120.8249 83.808,123.1019 86.569,125.5949 C89.201,127.9709 92.321,129.5179 95.811,130.2509 C96.735,130.4449 97.675,130.5599 98.653,130.7199 C98.59,130.8079 98.553,130.8809 98.497,130.9349 C97.144,132.2229 95.943,133.6279 95.039,135.2759 C94.979,135.3859 94.686,135.4639 94.546,135.4189 C92.864,134.8759 91.146,134.4139 89.527,133.7209 C87.257,132.7479 85.08,131.5739 83.226,129.8889 C81.191,128.0389 79.003,126.3889 76.628,124.9969 C75.04,124.0669 73.418,123.1939 71.615,122.7469 C70.79,122.5429 69.943,122.3449 69.096,122.6339 C67.986,123.0119 66.875,123.3939 65.783,123.8229 C61.24,125.6069 56.948,127.9009 52.71,130.3019 C51.617,130.9219 50.544,131.5789 49.411,132.2479 C65.45,141.7999 81.434,151.3199 97.515,160.8959 L97.515,160.1459 C97.515,153.9069 97.514,147.6679 97.516,141.4299 C97.516,141.0889 97.515,140.7469 97.553,140.4099 C97.792,138.3149 98.779,136.5669 100.13,135.0089 C102.648,132.1039 105.847,130.1549 109.281,128.5379 C114.372,126.1399 118.033,122.3799 120.116,117.1229 C120.192,116.9319 120.281,116.7459 120.399,116.4799 C120.534,116.7199 120.612,116.8679 120.699,117.0099 C121.472,118.2719 122.24,119.5379 123.026,120.7919 C123.259,121.1649 123.74,121.4989 123.752,121.8629 C123.764,122.2529 123.363,122.6589 123.134,123.0539 C120.548,127.5089 116.923,130.8529 112.351,133.2039 C110.884,133.9579 109.424,134.7329 108.014,135.5859 C106.449,136.5319 105.01,137.6559 103.878,139.1209 C103.362,139.7899 102.961,140.5159 102.961,141.3979 C102.962,147.7389 102.962,154.0809 102.963,160.4219 L102.963,161.0619 C119.001,151.4649 134.945,141.9229 150.946,132.3489 C150.798,132.2649 150.728,132.2219 150.655,132.1849 C144.181,128.9569 137.71,125.7249 131.233,122.5049 C129.711,121.7479 128.433,120.6929 127.346,119.4039 C124.083,115.5359 122.35,110.9529 121.371,106.0799 C120.823,103.3539 119.904,100.8319 118.506,98.4379 C116.863,95.6249 114.63,93.3699 112.001,91.5399 C109.552,89.8359 106.803,88.7139 103.831,88.2259 C103.206,88.1229 102.575,88.0489 101.935,87.9599 C101.969,87.8789 101.973,87.8399 101.995,87.8179 C103.347,86.4829 104.556,85.0379 105.469,83.3579 C105.523,83.2599 105.757,83.1849 105.882,83.2109 C106.53,83.3499 107.178,83.4989 107.812,83.6919 C112.129,85.0069 115.889,87.2539 119.102,90.4269 C122.188,93.4749 124.478,97.0239 125.769,101.1669 C126.15,102.3899 126.211,103.7089 126.481,104.9699 C127.177,108.2199 128.287,111.3169 130.036,114.1619 C131.026,115.7689 132.272,117.0919 134.006,117.9529 C139.51,120.6859 144.991,123.4629 150.482,126.2209 C150.683,126.3219 150.894,126.4029 151.214,126.5419 C135.052,97.5289 118.96,68.6379 102.867,39.7479 C102.831,39.7559 102.795,39.7639 102.758,39.7709 L102.758,40.3589 C102.758,52.4959 102.759,64.6329 102.755,76.7689 C102.755,77.2799 102.748,77.7949 102.677,78.2989 C102.358,80.5869 101.174,82.4399 99.641,84.0859 C97.239,86.6669 94.318,88.5249 91.156,90.0329 C90.219,90.4789 89.253,90.8859 88.381,91.4379 C85.088,93.5279 82.692,96.4519 80.925,99.8799 C78.773,104.0529 78.313,108.4989 79.072,113.0949 C79.208,113.9239 79.422,114.7409 79.603,115.5759 C79.532,115.5659 79.497,115.5679 79.466,115.5559 C77.609,114.8499 75.75,114.1469 73.899,113.4249 C73.765,113.3719 73.606,113.1719 73.6,113.0349 C73.528,111.2689 73.377,109.4979 73.451,107.7359 C73.615,103.8329 74.93,100.2269 76.743,96.8299 C79.252,92.1309 82.89,88.4919 87.597,85.9559 C89.185,85.0999 90.81,84.3099 92.363,83.3939 C94.06,82.3929 95.576,81.1499 96.721,79.5129 C97.278,78.7159 97.608,77.8669 97.607,76.8539 C97.588,64.8189 97.594,52.7849 97.594,40.7499 C97.594,40.4439 97.594,40.1379 97.594,39.8309 M159.146,130.5879 C159.114,132.7289 158.212,134.3919 156.364,135.4989 C147.613,140.7399 138.857,145.9729 130.103,151.2089 C121.261,156.4969 112.415,161.7789 103.579,167.0769 C101.412,168.3759 99.295,168.3749 97.124,167.0759 C79.518,156.5359 61.907,146.0039 44.29,135.4819 C42.588,134.4659 41.554,133.0619 41.405,131.0619 C41.319,129.9229 41.63,128.8799 42.184,127.8879 C44.961,122.9249 47.726,117.9559 50.494,112.9889 L93.583,35.6699 C94.238,34.4949 94.875,33.3099 95.55,32.1469 C97.24,29.2329 100.734,28.4269 103.398,30.4089 C104.082,30.9179 104.659,31.6669 105.081,32.4199 C111.019,43.0079 116.921,53.6149 122.832,64.2179 C134.67,85.4539 146.508,106.6899 158.351,127.9219 C158.817,128.7569 159.124,129.6239 159.146,130.5879" id="Fill-91" fill="#FFFFFF"></path>
            </g>
        </g>
    </g>
</svg>