<?xml version="1.0" encoding="UTF-8"?>
<svg width="28px" height="28px" viewBox="0 0 28 28" version="1.1" xmlns="http://www.w3.org/2000/svg" xmlns:xlink="http://www.w3.org/1999/xlink">
    <!-- Generator: Sketch 50.2 (55047) - http://www.bohemiancoding.com/sketch -->
    <title>req</title>
    <desc>Created with Sketch.</desc>
    <defs>
        <linearGradient x1="-28.431662%" y1="0%" x2="-28.431662%" y2="99.9995%" id="linearGradient-1">
            <stop stop-color="#6CFDCC" offset="0%"></stop>
            <stop stop-color="#5A89F9" offset="100%"></stop>
        </linearGradient>
    </defs>
    <g id="IOS?-(for-Mike-Le)" stroke="none" stroke-width="1" fill="none" fill-rule="evenodd">
        <g id="Artboard-2-Copy" transform="translate(-347.000000, -73.000000)">
            <g id="req" transform="translate(347.000000, 73.000000)">
                <circle id="Oval" stroke="#63C3E3" fill="#FFFFFF" cx="14" cy="14" r="13.5"></circle>
                <path d="M8,6 L13.5906451,6 C14.1557489,6.08873956 14.7355195,6.00943495 15.2963096,6.12749936 C16.5454046,6.35325823 17.6766475,7.12768936 18.3332032,8.19774901 C19.1096817,9.43687282 19.2113141,11.0527997 18.6207591,12.3844881 C18.0858517,13.6103519 16.9671187,14.5699122 15.6595289,14.9174754 C14.8293009,15.1536042 13.9579195,15.0657147 13.1057775,15.0817796 C14.5657871,17.464601 16.0226045,19.8496324 17.4762298,22.2368738 C17.0956691,22.4985025 16.629782,22.6571117 16.3153082,23 L16.26639,23 C14.375061,19.8841706 12.4647513,16.7788811 10.5672967,13.6669617 C11.9151771,13.6603317 13.2630575,13.6773316 14.6099026,13.6584617 C16.1648439,13.6168969 17.5241989,12.2625987 17.556811,10.7307363 C17.6585297,9.40754796 16.7871483,8.08818456 15.5129471,7.65273174 C14.9847691,7.44966775 14.4095711,7.4591027 13.8516282,7.46479768 C11.9007691,7.46479768 9.95022639,7.46448601 8,7.46386268" id="Shape" fill="url(#linearGradient-1)" fill-rule="nonzero"></path>
            </g>
        </g>
    </g>
</svg>