<?xml version="1.0" encoding="UTF-8"?>
<svg width="66px" height="66px" viewBox="0 0 66 66" version="1.1" xmlns="http://www.w3.org/2000/svg" xmlns:xlink="http://www.w3.org/1999/xlink">
    <!-- Generator: Sketch 48.2 (47327) - http://www.bohemiancoding.com/sketch -->
    <title>SNT</title>
    <desc>Created with Sketch.</desc>
    <defs></defs>
    <g id="Page-1" stroke="none" stroke-width="1" fill="none" fill-rule="evenodd">
        <g id="SNT">
            <path d="M66,33 C66,51.22557 51.22557,66 33,66 C14.77476,66 0,51.22557 0,33 C0,14.77443 14.77476,0 33,0 C51.22557,0 66,14.77443 66,33" id="Fill-170" fill="#F4F4F4"></path>
            <path d="M20.625,30.1858472 C20.625,30.1858472 23.8680402,15.2656537 37.2632208,12.8465372 C50.6584013,10.4267911 53.4787524,17.9539456 53.6195386,21.0458435 C53.7606553,24.1371116 51.2225376,31.7990113 39.5194355,30.8579989 C27.5341001,28.8415438 20.625,30.1858472 20.625,30.1858472" id="Fill-172" fill="#4957B8"></path>
            <path d="M45.375,35.8140984 C45.375,35.8140984 42.1319598,50.734166 28.7367792,53.1535769 C15.3412682,55.5729877 12.5212476,48.0458967 12.3804614,44.9543398 C12.2393447,41.8627829 14.7774624,34.2012627 26.4805645,35.1419523 C38.4658999,37.1583904 45.375,35.8140984 45.375,35.8140984" id="Fill-174" fill="#4957B8"></path>
        </g>
    </g>
</svg>