<?xml version="1.0" encoding="UTF-8"?>
<svg width="28px" height="28px" viewBox="0 0 28 28" version="1.1" xmlns="http://www.w3.org/2000/svg" xmlns:xlink="http://www.w3.org/1999/xlink">
    <!-- Generator: Sketch 50.2 (55047) - http://www.bohemiancoding.com/sketch -->
    <title>snt</title>
    <desc>Created with Sketch.</desc>
    <defs></defs>
    <g id="IOS?-(for-Mike-Le)" stroke="none" stroke-width="1" fill="none" fill-rule="evenodd">
        <g id="Artboard-2-Copy" transform="translate(-198.000000, -146.000000)" fill-rule="nonzero">
            <g id="snt" transform="translate(198.000000, 146.000000)">
                <path d="M28,14 C28,21.73206 21.73206,28 14,28 C6.26808,28 0,21.73206 0,14 C0,6.26794 6.26808,0 14,0 C21.73206,0 28,6.26794 28,14" id="Fill-170" fill="#4957B8"></path>
                <path d="M8.75,12.806117 C8.75,12.806117 10.1258352,6.47633793 15.8086391,5.4500461 C21.491443,4.42348715 22.6879556,7.61682543 22.747683,8.92853965 C22.8075507,10.2399867 21.7307735,13.4904896 16.7658211,13.0912723 C11.6811334,12.2358065 8.75,12.806117 8.75,12.806117" id="Fill-172" fill="#FFFFFF"></path>
                <path d="M19.25,15.1938599 C19.25,15.1938599 17.8741648,21.5235856 12.1913609,22.5500023 C6.50841682,23.576419 5.31204444,20.3831077 5.25231695,19.0715381 C5.19244926,17.7599685 6.26922647,14.5096266 11.2341789,14.9087071 C16.3188666,15.7641656 19.25,15.1938599 19.25,15.1938599" id="Fill-174" fill="#FFFFFF"></path>
            </g>
        </g>
    </g>
</svg>