<?xml version="1.0" encoding="UTF-8"?>
<svg width="28px" height="28px" viewBox="0 0 28 28" version="1.1" xmlns="http://www.w3.org/2000/svg" xmlns:xlink="http://www.w3.org/1999/xlink">
    <!-- Generator: Sketch 50.2 (55047) - http://www.bohemiancoding.com/sketch -->
    <title>sub</title>
    <desc>Created with Sketch.</desc>
    <defs>
        <path d="M0,14.0005185 C0,6.26837038 6.23674077,0.000518518519 13.931037,0.000518518519 C21.6232592,0.000518518519 27.86,6.26837038 27.86,14.0005185 C27.86,21.7311111 21.6232592,28 13.931037,28 C6.23674077,28 0,21.7311111 0,14.0005185 Z" id="path-1"></path>
        <linearGradient x1="0.000741099179%" y1="-0.0010490935%" x2="0.000741099179%" y2="256.406662%" id="linearGradient-3">
            <stop stop-color="#EE4037" offset="0%"></stop>
            <stop stop-color="#C1041B" offset="100%"></stop>
        </linearGradient>
        <path d="M4.71385185,0.501407408 L0.195481481,3.90755556 C0.0995555557,3.97962963 0.0793333333,4.11755556 0.151407408,4.21607408 C0.224,4.31148148 0.361925926,4.33222222 0.457333333,4.25911111 L4.84555556,0.953037038 L11.1844444,5.73014815 L8.41659257,5.73014815 L3.8837037,2.31362963 C3.78777778,2.24155556 3.64985185,2.26074074 3.57725926,2.35770371 C3.50518519,2.45518519 3.52540741,2.59311111 3.62133333,2.66622222 L8.21177776,6.12525923 C8.24962962,6.15377776 8.29525923,6.17037038 8.34296295,6.17037038 L11.8414074,6.17037038 C11.9352592,6.17037038 12.0187408,6.11022224 12.0477778,6.01948148 C12.0783704,5.92977776 12.0472592,5.83125926 11.9720741,5.77525926 L4.97674074,0.501407408 C4.93785185,0.472370371 4.89222222,0.457333333 4.84555556,0.457333333 C4.79940741,0.457333333 4.75325926,0.472370371 4.71385185,0.501407408 Z" id="path-4"></path>
        <path d="M1.27762963,0.380592592 L0.310592592,1.10755556 C0.256666667,1.14903704 0.224518519,1.21437037 0.224518519,1.28333333 C0.224518519,1.35177778 0.256666667,1.41814815 0.310592592,1.45859259 L14.0694815,11.8294815 L10.9355556,14.1908148 L10.0561481,13.5281481 C9.95918519,13.455037 9.82281481,13.4752592 9.75022224,13.5711852 C9.67814814,13.6686667 9.69733333,13.8065926 9.79325923,13.8786667 L10.8043704,14.6414074 C10.8442963,14.6704444 10.8899259,14.6849629 10.9355556,14.6849629 C10.9817037,14.6849629 11.0283704,14.6704444 11.0662222,14.6414074 L14.5646667,12.0047408 C14.6201481,11.9637778 14.6528148,11.8984444 14.6528148,11.8294815 C14.6528148,11.7605185 14.6201481,11.6941481 14.5646667,11.6537037 L0.807333333,1.28333333 L1.53948148,0.731111109 C1.63644444,0.658518519 1.65562963,0.521111111 1.58303704,0.424148148 C1.54051852,0.367111111 1.47466667,0.335481481 1.40829629,0.335481481 C1.36266667,0.335481481 1.316,0.350518519 1.27762963,0.380592592 Z" id="path-6"></path>
        <path d="M0.442814815,0.158148148 C0.348962963,0.158148148 0.264444444,0.218296296 0.234888889,0.308 C0.205333333,0.397703704 0.235925926,0.496740741 0.310592592,0.553777778 L7.30748147,5.82659259 C7.34533333,5.85562962 7.392,5.87014814 7.43814814,5.87014814 C7.48377776,5.87014814 7.53044442,5.85562962 7.56933333,5.82659259 L12.0794074,2.42718519 C12.1758519,2.35407408 12.1955556,2.21614815 12.1224444,2.11866667 C12.0508889,2.02222222 11.914,2.00251852 11.8165185,2.07511111 L7.43814814,5.376 L1.09874074,0.598370372 L3.86866667,0.598370372 L8.34918519,3.976 C8.44614814,4.04859259 8.582,4.02888889 8.65562962,3.93140741 C8.72770372,3.83444444 8.70851852,3.69703704 8.61155557,3.62444444 L4.07088889,0.203259259 C4.03355556,0.172666667 3.98740741,0.158148148 3.9397037,0.158148148 L0.442814815,0.158148148 Z" id="path-8"></path>
        <path d="M3.80903704,0.501407408 L0.31162963,3.13859259 C0.256666667,3.17851852 0.224518519,3.24437037 0.224518519,3.31281481 C0.224518519,3.38281481 0.256666667,3.44814815 0.31162963,3.48911111 L14.0694815,13.8594815 L13.2911852,14.4454074 C13.1952592,14.5185185 13.1750371,14.6554074 13.2486667,14.7539259 C13.2901481,14.8104444 13.3570371,14.8405185 13.4223704,14.8405185 C13.4685185,14.8405185 13.5136296,14.8270371 13.5530371,14.7974815 L14.5646667,14.0352592 C14.6201481,13.9937778 14.6517778,13.9279259 14.6517778,13.8594815 C14.6517778,13.7894815 14.6201481,13.7251852 14.5646667,13.6837037 L0.807333333,3.31281481 L3.9397037,0.952 L4.90207408,1.67637037 C4.99851852,1.74948148 5.13540741,1.72977778 5.20851852,1.6322963 C5.28007408,1.53585185 5.26140741,1.39844444 5.16392592,1.32585185 L4.07088889,0.501407408 C4.03251852,0.472370371 3.98637037,0.457333333 3.9397037,0.457333333 C3.89407408,0.457333333 3.84792592,0.472370371 3.80903704,0.501407408 Z" id="path-10"></path>
    </defs>
    <g id="Wallet" stroke="none" stroke-width="1" fill="none" fill-rule="evenodd">
        <g id="Desktop" transform="translate(-224.000000, -297.000000)">
            <g id="Stacked-Group-3" transform="translate(74.000000, 297.000000)">
                <g id="sub" transform="translate(150.000000, 0.000000)">
                    <g id="Group-3">
                        <g id="Fill-1-Clipped">
                            <mask id="mask-2" fill="white">
                                <use xlink:href="#path-1"></use>
                            </mask>
                            <g id="path-1"></g>
                            <polygon id="Fill-1" fill="url(#linearGradient-3)" fill-rule="nonzero" mask="url(#mask-2)" points="0 28 27.8605185 28 27.8605185 0.000518518519 0 0.000518518519"></polygon>
                        </g>
                    </g>
                    <g id="S" transform="translate(6.222222, 3.888889)">
                        <g id="Group-8" transform="translate(3.111111, 0.259259)">
                            <g id="Fill-6-Clipped">
                                <mask id="mask-5" fill="white">
                                    <use xlink:href="#path-4"></use>
                                </mask>
                                <g id="path-4"></g>
                                <polygon id="Fill-6" fill="#FFFFFE" fill-rule="nonzero" mask="url(#mask-5)" points="-0.242148148 6.51985186 12.4102222 6.51985186 12.4102222 0.106814815 -0.242148148 0.106814815"></polygon>
                            </g>
                        </g>
                        <g id="Group-11" transform="translate(0.518519, 4.925926)">
                            <g id="Fill-9-Clipped">
                                <mask id="mask-7" fill="white">
                                    <use xlink:href="#path-6"></use>
                                </mask>
                                <g id="path-6"></g>
                                <polygon id="Fill-9" fill="#FFFFFE" fill-rule="nonzero" mask="url(#mask-7)" points="-0.126 15.036 15.0022963 15.036 15.0022963 -0.014 -0.126 -0.014"></polygon>
                            </g>
                        </g>
                        <g id="Group-14" transform="translate(0.518519, 13.740741)">
                            <g id="Fill-12-Clipped">
                                <mask id="mask-9" fill="white">
                                    <use xlink:href="#path-8"></use>
                                </mask>
                                <g id="path-8"></g>
                                <polygon id="Fill-12" fill="#FFFFFE" fill-rule="nonzero" mask="url(#mask-9)" points="-0.126 6.22066667 12.5180741 6.22066667 12.5180741 -0.19237037 -0.126 -0.19237037"></polygon>
                            </g>
                        </g>
                        <g id="Group-17" transform="translate(0.518519, 0.259259)">
                            <g id="Fill-15-Clipped">
                                <mask id="mask-11" fill="white">
                                    <use xlink:href="#path-10"></use>
                                </mask>
                                <g id="path-10"></g>
                                <polygon id="Fill-15" fill="#FFFFFE" fill-rule="nonzero" mask="url(#mask-11)" points="-0.126 15.1910371 15.0022963 15.1910371 15.0022963 0.106814815 -0.126 0.106814815"></polygon>
                            </g>
                        </g>
                    </g>
                </g>
            </g>
        </g>
    </g>
</svg>