<?xml version="1.0" encoding="utf-8"?>
<!-- Generator: Adobe Illustrator 22.1.0, SVG Export Plug-In . SVG Version: 6.00 Build 0)  -->
<svg version="1.1" xmlns="http://www.w3.org/2000/svg" xmlns:xlink="http://www.w3.org/1999/xlink" x="0px" y="0px"
	 viewBox="0 0 581.8 581.8" style="enable-background:new 0 0 581.8 581.8;" xml:space="preserve">
<style type="text/css">
	.st0{fill:#032B77;}
	.st1{fill:#E91D63;}
	.st2{fill:#CC3028;}
	.st3{display:none;}
	.st4{fill:#FFFFFF;}
</style>
<g id="Layer_4">
	<g>
		<circle cx="291.5" cy="291.5" r="265.5"/>
		<circle class="st0" cx="291.5" cy="291.5" r="240.5"/>
	</g>
</g>
<g id="Layer_3">
	<path d="M281.9,169c-0.5,6.1-5.7,11-11.9,11h-71c-6.6,0-12-5.4-12-12v-36c0-6.6,5.4-12,12-12v49H281.9z"/>
	<path d="M320,229.9c-6.1-0.5-11-5.7-11-11.9v-71c0-6.6,5.4-12,12-12h36c6.6,0,12,5.4,12,12h-49V229.9z"/>
	<path d="M280,263.9c6.1-0.5,11-5.7,11-11.9v-71c0-6.6-5.4-12-12-12h-36c-6.6,0-12,5.4-12,12h49V263.9z"/>
	<path d="M162.1,424c0.5,6.1,5.7,11,11.9,11h71c6.6,0,12-5.4,12-12v-36c0-6.6-5.4-12-12-12v49H162.1z"/>
	<g>
		<circle class="st1" cx="193" cy="140" r="17"/>
		<path d="M193,128c6.6,0,12,5.4,12,12s-5.4,12-12,12s-12-5.4-12-12S186.4,128,193,128 M193,118c-12.1,0-22,9.9-22,22s9.9,22,22,22
			s22-9.9,22-22S205.1,118,193,118L193,118z"/>
	</g>
	<g>
		<circle class="st1" cx="373" cy="140" r="17"/>
		<path d="M373,128c6.6,0,12,5.4,12,12s-5.4,12-12,12s-12-5.4-12-12S366.4,128,373,128 M373,118c-12.1,0-22,9.9-22,22s9.9,22,22,22
			s22-9.9,22-22S385.1,118,373,118L373,118z"/>
	</g>
	<g>
		<circle class="st1" cx="164" cy="429" r="17"/>
		<path d="M164,417c6.6,0,12,5.4,12,12c0,6.6-5.4,12-12,12s-12-5.4-12-12C152,422.4,157.4,417,164,417 M164,407
			c-12.1,0-22,9.9-22,22c0,12.1,9.9,22,22,22s22-9.9,22-22C186,416.9,176.1,407,164,407L164,407z"/>
	</g>
	<path d="M291,376.1c-6.1,0.5-11,5.7-11,11.9v47c0,6.6,5.4,12,12,12h30c6.6,0,12-5.4,12-12h-43V376.1z"/>
	<path d="M390,370.1c-6.1,0.5-11,5.7-11,11.9v47c0,6.6,5.4,12,12,12h30c6.6,0,12-5.4,12-12h-43V370.1z"/>
	<g>
		<circle class="st1" cx="424" cy="435" r="17"/>
		<path d="M424,423c6.6,0,12,5.4,12,12s-5.4,12-12,12s-12-5.4-12-12S417.4,423,424,423 M424,413c-12.1,0-22,9.9-22,22s9.9,22,22,22
			s22-9.9,22-22S436.1,413,424,413L424,413z"/>
	</g>
	<g>
		<circle class="st1" cx="332" cy="441" r="17"/>
		<path d="M332,429c6.6,0,12,5.4,12,12c0,6.6-5.4,12-12,12s-12-5.4-12-12C320,434.4,325.4,429,332,429 M332,419
			c-12.1,0-22,9.9-22,22c0,12.1,9.9,22,22,22s22-9.9,22-22C354,428.9,344.1,419,332,419L332,419z"/>
	</g>
	<g>
		<circle class="st1" cx="437" cy="169" r="17"/>
		<path d="M437,157c6.6,0,12,5.4,12,12s-5.4,12-12,12c-6.6,0-12-5.4-12-12S430.4,157,437,157 M437,147c-12.1,0-22,9.9-22,22
			s9.9,22,22,22c12.1,0,22-9.9,22-22S449.1,147,437,147L437,147z"/>
	</g>
	<g>
		<circle class="st1" cx="141" cy="193" r="17"/>
		<path d="M141,181c6.6,0,12,5.4,12,12s-5.4,12-12,12s-12-5.4-12-12S134.4,181,141,181 M141,171c-12.1,0-22,9.9-22,22s9.9,22,22,22
			s22-9.9,22-22S153.1,171,141,171L141,171z"/>
	</g>
</g>
<g id="Layer_2">
	<rect y="191.8" width="582" height="197"/>
	<rect x="25" y="217.2" class="st2" width="532" height="146"/>
</g>
<g id="Layer_1" class="st3">
	
		<image style="display:inline;overflow:visible;" width="1212" height="1212" xlink:href="SURETYAI ICON.png"  transform="matrix(0.48 0 0 0.48 0 0)">
	</image>
</g>
<g id="name">
	<g>
		<path class="st4" d="M120,271.9H97.6v-6.7c0-3.1-0.3-5.1-0.9-6c-0.6-0.9-1.5-1.3-2.9-1.3c-1.4,0-2.5,0.6-3.3,1.7
			c-0.7,1.2-1.1,2.9-1.1,5.3c0,3,0.4,5.3,1.3,6.8c0.8,1.5,3.1,3.4,6.8,5.5c10.7,6.2,17.5,11.3,20.2,15.3c2.8,4,4.2,10.4,4.2,19.3
			c0,6.5-0.8,11.2-2.3,14.3c-1.5,3.1-4.5,5.6-8.9,7.7c-4.4,2.1-9.6,3.1-15.4,3.1c-6.4,0-11.9-1.2-16.5-3.6c-4.6-2.4-7.5-5.4-8.9-9.1
			c-1.4-3.7-2.1-8.9-2.1-15.7v-5.9h22.3v11c0,3.4,0.3,5.6,0.9,6.6c0.6,1,1.7,1.5,3.3,1.5c1.6,0,2.8-0.6,3.6-1.8
			c0.8-1.2,1.2-3.1,1.2-5.5c0-5.3-0.7-8.8-2.2-10.5c-1.5-1.6-5.3-4.4-11.3-8.2c-6-3.9-9.9-6.7-11.9-8.5c-1.9-1.8-3.6-4.2-4.8-7.3
			c-1.3-3.1-1.9-7.1-1.9-11.9c0-6.9,0.9-12,2.7-15.2c1.8-3.2,4.7-5.7,8.8-7.5c4-1.8,8.9-2.7,14.6-2.7c6.2,0,11.6,1,16,3
			c4.4,2,7.3,4.5,8.7,7.5c1.4,3,2.1,8.1,2.1,15.3V271.9z"/>
		<path class="st4" d="M184.2,244.4V305c0,6.9-0.2,11.7-0.7,14.5c-0.5,2.8-1.8,5.6-4.1,8.6c-2.2,2.9-5.2,5.2-8.9,6.7
			c-3.7,1.5-8,2.3-13,2.3c-5.5,0-10.4-0.9-14.6-2.7c-4.2-1.8-7.4-4.1-9.5-7c-2.1-2.9-3.3-5.9-3.7-9.1c-0.4-3.2-0.6-9.9-0.6-20.1
			v-53.7h24.1v68c0,4,0.2,6.5,0.7,7.6c0.4,1.1,1.3,1.7,2.7,1.7c1.5,0,2.5-0.6,2.9-1.8c0.4-1.2,0.7-4.1,0.7-8.6v-66.8H184.2z"/>
		<path class="st4" d="M193.5,244.4h17c11.4,0,19,0.4,23.1,1.3c4,0.9,7.3,3.1,9.8,6.6c2.5,3.5,3.8,9.2,3.8,16.9
			c0,7.1-0.9,11.8-2.7,14.2c-1.8,2.4-5.3,3.9-10.6,4.4c4.8,1.2,8,2.7,9.6,4.6c1.6,1.9,2.7,3.7,3.1,5.3c0.4,1.6,0.6,6.1,0.6,13.4
			v23.9h-22.3V305c0-4.9-0.4-7.9-1.2-9c-0.8-1.2-2.8-1.7-6.1-1.7v40.9h-24.1V244.4z M217.6,259.9v20.2c2.7,0,4.6-0.4,5.7-1.1
			s1.6-3.1,1.6-7.1v-5c0-2.9-0.5-4.8-1.6-5.7C222.3,260.4,220.4,259.9,217.6,259.9z"/>
		<path class="st4" d="M256.5,244.4h40.1v18.1h-16.1v17.2h15V297h-15v19.9h17.7v18.1h-41.7V244.4z"/>
		<path class="st4" d="M352.1,244.4v18.1h-14.3v72.5h-24.1v-72.5h-14.2v-18.1H352.1z"/>
		<path class="st4" d="M411.7,244.4l-17.5,57.9v32.8h-22.3v-32.8L355,244.4h22.1c3.5,17.7,5.4,29.6,5.8,35.7
			c1.3-9.7,3.6-21.6,6.7-35.7H411.7z"/>
		<path class="st4" d="M420.6,316.6v18.5h-17.4v-18.5H420.6z"/>
		<path class="st4" d="M469.1,244.4l13.8,90.7h-24.6l-1.3-16.3h-8.6l-1.4,16.3h-24.9l12.3-90.7H469.1z M456.3,302.7
			c-1.2-10.3-2.4-23-3.7-38.1c-2.5,17.4-4,30.1-4.6,38.1H456.3z"/>
		<path class="st4" d="M511,244.4v90.7h-24.1v-90.7H511z"/>
	</g>
</g>
</svg>
