<?xml version="1.0" encoding="UTF-8"?>
<svg width="28px" height="28px" viewBox="0 0 28 28" version="1.1" xmlns="http://www.w3.org/2000/svg" xmlns:xlink="http://www.w3.org/1999/xlink">
    <!-- Generator: Sketch 51 (57462) - http://www.bohemiancoding.com/sketch -->
    <title>tomo</title>
    <desc>Created with Sketch.</desc>
    <defs>
        <linearGradient x1="-77.1931811%" y1="-11.5288019%" x2="190.984571%" y2="112.776939%" id="linearGradient-1">
            <stop stop-color="#FF694D" offset="0%"></stop>
            <stop stop-color="#FFCC4D" offset="100%"></stop>
        </linearGradient>
        <path d="M10.4390137,9.18154521 L10.4390137,10.3629151 L9.19627397,10.3629151 C8.82797808,10.3629151 8.52887671,10.6620932 8.52887671,11.0303123 C8.52887671,11.3985315 8.82797808,11.6977096 9.19627397,11.6977096 L10.4466082,11.6977096 L10.4466082,15.771211 C10.4466082,17.2824438 11.2905205,18.6171616 12.656,19.2615452 C13.1929863,19.5147726 13.7529096,19.6374356 14.3129863,19.6374356 C15.1644932,19.6374356 16.0082521,19.3459288 16.7063342,18.7859288 C16.7984658,18.7092164 16.8905205,18.6325041 16.9824986,18.5481205 C17.2970959,18.2643616 17.3124384,17.781074 17.0286027,17.4664767 C16.7447671,17.1520329 16.2614795,17.1366137 15.9468822,17.4204493 C15.8778411,17.4818192 15.8088767,17.543189 15.7397589,17.5968877 C15.0340055,18.1645589 14.1288767,18.2719562 13.3079781,17.8807233 C12.4718904,17.4818192 11.9732603,16.6916822 11.9732603,15.771211 L11.9732603,11.6977096 L16.5529096,11.6977096 C16.9212055,11.6977096 17.2203836,11.3985315 17.2203836,11.0303123 C17.2203836,10.6620932 16.9212055,10.3629151 16.5529096,10.3629151 L11.9732603,10.3629151 L11.9732603,9.18154521 C11.9732603,8.7596274 11.6280548,8.41442192 11.206137,8.41442192 C10.7842192,8.41442192 10.4390137,8.7596274 10.4390137,9.18154521" id="path-2"></path>
        <linearGradient x1="-7.50955505%" y1="15.6686112%" x2="105.391163%" y2="82.4253107%" id="linearGradient-4">
            <stop stop-color="#FF694D" offset="0%"></stop>
            <stop stop-color="#FFCC4D" offset="100%"></stop>
        </linearGradient>
        <linearGradient x1="7.73523798%" y1="23.2965491%" x2="91.344282%" y2="73.2871986%" id="linearGradient-5">
            <stop stop-color="#FF694D" offset="0%"></stop>
            <stop stop-color="#FFCC4D" offset="100%"></stop>
        </linearGradient>
        <path d="M13.3079781,0.0911342466 C6.13537534,0.413326027 0.328252055,6.22812055 0.0137315068,13.4007233 C0.00498630137,13.600789 0.000460273973,13.7998575 0,13.9980822 L0,14.0633644 C0.00314520548,15.4080548 0.195769863,16.7090192 0.558389041,17.9420932 C0.673457534,18.333326 1.11079452,18.5174356 1.4790137,18.3485918 C1.48668493,18.3485918 1.48668493,18.3409973 1.49435616,18.3409973 C1.79345753,18.2029151 1.93921096,17.8653808 1.84715616,17.550937 C1.47126575,16.2773589 1.29490411,14.9196274 1.34860274,13.5157151 C1.60942466,7.0105863 6.87956164,1.71743562 13.3846904,1.42600548 C20.595726,1.11140822 26.5638685,6.88784658 26.5638685,14.0297644 C26.5638685,20.9875726 20.9024986,26.6412712 13.9523616,26.6412712 C13.0165479,26.6412712 12.1036712,26.5415452 11.2291507,26.3420932 C10.9912658,26.2883178 10.745863,26.3804493 10.6001096,26.5722301 C10.285589,26.963463 10.4926356,27.5541479 10.9835945,27.6615452 C12.1036712,27.9071014 13.2696986,28.0143452 14.466411,27.9760658 C21.7003836,27.7153205 27.5842192,21.8774356 27.898663,14.643463 C28.2274521,6.67305205 21.8482082,0.0774794521 13.9486027,0.0767123288 C13.735726,0.0767123288 13.5230027,0.0814684932 13.3079781,0.0911342466" id="path-6"></path>
    </defs>
    <g id="Wallet" stroke="none" stroke-width="1" fill="none" fill-rule="evenodd">
        <g id="New" transform="translate(-335.000000, -251.000000)">
            <g id="tomo" transform="translate(335.000000, 251.000000)">
                <mask id="mask-3" fill="white">
                    <use xlink:href="#path-2"></use>
                </mask>
                <use id="Clip-2" fill="url(#linearGradient-1)" fill-rule="evenodd" xlink:href="#path-2"></use>
                <path d="M10.285589,4.22592877 C7.44715616,5.20784658 5.20723288,7.40181918 4.19463014,10.2248329 C1.55572603,17.5815452 6.96386849,24.493326 13.9677808,24.493326 C18.9617534,24.4780603 23.1579178,20.9415452 24.1705205,16.2314082 C24.2472329,15.8708603 23.9710685,15.5256548 23.5951014,15.5256548 L23.418663,15.5256548 C23.1502466,15.5256548 22.9123616,15.7098411 22.8509918,15.9783342 C21.9842192,19.9442082 18.509074,22.9744219 14.3283288,23.143189 C7.88441644,23.404011 2.82907397,16.9448329 5.62147945,10.2171616 C6.46531507,8.17669041 8.09928767,6.55031233 10.1397589,5.70655342 C14.7579178,3.79633973 19.245589,5.58373699 21.5238685,8.96675068 C21.7003836,9.2275726 22.0532603,9.30428493 22.3140822,9.13551781 L22.4214027,9.07414795 C22.7205808,8.88236712 22.8127123,8.48346301 22.6132603,8.19195616 C20.7340384,5.41934247 17.555463,3.59535342 13.9596493,3.59527671 C12.7699178,3.59527671 11.5346959,3.7949589 10.285589,4.22592877" id="Clip-5" fill="url(#linearGradient-4)" fill-rule="evenodd"></path>
                <mask id="mask-7" fill="white">
                    <use xlink:href="#path-6"></use>
                </mask>
                <use id="Clip-8" fill="url(#linearGradient-5)" fill-rule="evenodd" xlink:href="#path-6"></use>
            </g>
        </g>
    </g>
</svg>