<?xml version="1.0" encoding="UTF-8"?>
<svg width="34px" height="36px" viewBox="0 0 34 36" version="1.1" xmlns="http://www.w3.org/2000/svg" xmlns:xlink="http://www.w3.org/1999/xlink">
    <!-- Generator: Sketch 51 (57462) - http://www.bohemiancoding.com/sketch -->
    <title>Tusd</title>
    <desc>Created with Sketch.</desc>
    <defs></defs>
    <g id="IOS?-(for-Mike-Le)" stroke="none" stroke-width="1" fill="none" fill-rule="evenodd">
        <g id="Artboard-3" transform="translate(-537.000000, -188.000000)">
            <g id="Tusd" transform="translate(537.000000, 188.000000)">
                <g id="Group">
                    <path d="M32.8505007,9.85436249 C30.6787909,6.61913624 28.7985735,4.48356656 27.2098486,3.44765347 C24.8267613,1.89378383 21.5192883,0.0516412815 17.0090572,0.39584557 C12.498826,0.740049858 7.35103252,1.81380394 3.48243198,6.63343544 C-0.386168563,11.4530669 -0.0222981431,17.8365221 1.22389859,20.9834595 C2.05469641,23.0814178 4.38625051,25.4857284 8.2185609,28.1963912 C6.32178394,26.3071894 4.89510537,23.9028788 3.93852518,20.9834595 C2.5036549,16.6043305 4.8686805,10.0554557 8.61070593,7.3384509 C12.3527314,4.62144606 18.5839793,2.68846704 23.413388,4.14500571 C26.6329938,5.11603149 29.778698,7.01915042 32.8505007,9.85436249 Z" id="Path-3" fill="#00CAF8" fill-rule="nonzero"></path>
                    <path d="M1.04130276,26.3825883 C3.74298117,30.6225463 6.91528646,33.3530279 10.5582186,34.5740329 C16.0226169,36.4055404 22.1354814,35.7544317 26.641714,32.622028 C31.1479466,29.4896242 34.4426447,25.0590432 33.6236924,19.0848328 C33.0777241,15.1020259 30.4929317,11.3896844 25.8693151,7.94780833 C28.7762267,11.1471949 30.2296824,13.9573033 30.2296824,16.3781337 C30.2296824,20.0093792 28.5707458,25.7422925 25.2166209,28.394842 C21.8381525,31.0666431 18.7274663,33.4774009 11.9582081,32.1775617 C7.44536929,31.3110022 3.80640085,29.3793444 1.04130276,26.3825883 Z" id="Path-5" fill="#0DCCBC" fill-rule="nonzero"></path>
                    <path d="M14.8530523,27.6713291 L14.8530523,14.218165 L8.76000643,14.218165 C9.59943637,11.7736887 11.6304517,10.5514505 14.8530523,10.5514505 C18.0756529,10.5514505 21.4054504,10.5514505 24.8424448,10.5514505 C24.612556,11.7384002 24.1010491,12.5915179 23.3079241,13.1108036 C22.1182366,13.8897321 21.3320759,14.218165 20.0162946,14.218165 C19.1391071,14.218165 18.6251786,14.218165 18.4745089,14.218165 C18.4745089,19.2997455 18.4745089,22.084375 18.4745089,22.5720536 C18.4745089,23.3035714 18.6754018,24.8200995 17.4107813,26.2457143 C16.5677009,27.1961242 15.7151246,27.6713291 14.8530523,27.6713291 Z" id="Path-6" fill="#00CAF8" fill-rule="nonzero"></path>
                </g>
            </g>
        </g>
    </g>
</svg>