<?xml version="1.0" encoding="UTF-8"?>
<svg width="28px" height="28px" viewBox="0 0 28 28" version="1.1" xmlns="http://www.w3.org/2000/svg" xmlns:xlink="http://www.w3.org/1999/xlink">
    <!-- Generator: Sketch 50.2 (55047) - http://www.bohemiancoding.com/sketch -->
    <title>wabi@2x</title>
    <desc>Created with Sketch.</desc>
    <defs></defs>
    <g id="Wallet" stroke="none" stroke-width="1" fill="none" fill-rule="evenodd">
        <g id="Desktop" transform="translate(-421.000000, -343.000000)">
            <g id="wabi" transform="translate(421.000000, 343.000000)">
                <circle id="Path" fill="#36A234" cx="14" cy="14" r="14"></circle>
                <g stroke-width="1" transform="translate(2.000000, 3.000000)" fill="#FFFFFF" id="Group">
                    <g fill-rule="nonzero">
                        <path d="M18.44,20.5654569 C18.51,20.4814569 18.51,20.3904569 18.447,20.1524569 C18.328,19.6764569 18.349,19.0674569 18.482,19.0114569 C18.615,18.9624569 18.951,19.2704569 19.147,19.6274569 C19.336,19.9564569 19.504,20.0544569 19.735,19.9704569 C20.043,19.8514569 19.994,19.7464569 19.364,19.2074569 C18.839,18.7594569 18.734,18.5984569 18.874,18.4584569 C18.958,18.3744569 19.021,18.3884569 19.322,18.5494569 C19.7,18.7454569 19.91,18.7314569 19.91,18.5074569 C19.91,18.4024569 19.77,18.3184569 19.259,18.1224569 C18.895,17.9824569 18.538,17.8004569 18.454,17.7094569 C18.286,17.5274569 17.992,16.9534569 17.642,16.1064569 C17.341,15.3714569 17.054,14.8324569 16.865,14.6224569 C16.711,14.4544569 16.193,14.3494569 15.101,14.2654569 C14.59,14.2234569 14.527,14.2304569 14.499,14.3494569 C14.457,14.4684569 14.31,15.2664569 14.31,15.3364569 C14.31,15.3574569 14.569,15.3504569 14.891,15.3294569 C15.465,15.2874569 16.039,15.1334569 16.305,14.9514569 C16.508,14.8114569 16.529,14.8324569 16.62,15.2244569 C16.732,15.6724569 16.97,16.2604569 17.334,16.9884569 C17.607,17.5274569 17.614,17.5694569 17.586,18.0804569 C17.551,18.6474569 17.453,18.8924569 17.11,19.2634569 C16.984,19.3964569 16.907,19.5434569 16.928,19.5994569 C16.949,19.6554569 16.97,19.7184569 16.97,19.7324569 C16.97,19.7464569 17.033,19.7604569 17.103,19.7604569 C17.187,19.7604569 17.334,19.6344569 17.467,19.4454569 C17.838,18.9274569 17.95,19.0254569 17.95,19.8864569 C17.95,20.2784569 17.978,20.4464569 18.069,20.5444569 C18.209,20.6984569 18.321,20.7054569 18.44,20.5654569 Z M12.455,18.0524569 C12.749,17.9264569 12.833,17.7654569 12.882,17.2194569 C12.931,16.7014569 13.029,16.5194569 13.344,16.4074569 C13.47,16.3584569 13.645,16.2884569 13.729,16.2604569 C13.932,16.1764569 13.988,15.8754569 14.205,13.9154569 C14.436,11.7874569 14.485,11.4864569 14.702,10.8284569 C15.031,9.82745685 15.003,8.66545685 14.618,7.49645685 C14.422,6.89445685 14.205,6.62145685 13.757,6.38345685 C12.861,5.91445685 11.937,6.25745685 11.216,7.32145685 C10.677,8.11245685 10.481,9.05045685 10.67,9.96045685 C10.775,10.4504569 10.831,11.1924569 10.782,11.3744569 C10.761,11.4654569 10.537,11.7454569 10.285,12.0114569 C9.501,12.8164569 8.675,14.2584569 8.836,14.5174569 C8.885,14.5874569 8.92,14.8044569 8.92,14.9934569 C8.92,15.3784569 8.808,15.5324569 8.318,15.8054569 C7.996,15.9874569 7.975,16.1694569 8.241,16.6734569 C8.388,16.9674569 8.472,17.0304569 9.207,17.4014569 C9.956,17.7794569 10.292,17.8844569 11.405,18.0804569 C11.867,18.1644569 12.203,18.1574569 12.455,18.0524569 Z M5.987,15.4694569 C6.134,15.3504569 6.26,14.9654569 6.26,14.6084569 C6.26,14.2584569 6.379,13.9014569 6.463,13.9924569 C6.498,14.0274569 6.575,14.2234569 6.645,14.4264569 C6.757,14.7764569 6.96,14.9864569 7.1,14.8954569 C7.219,14.8184569 7.177,14.4124569 7.023,14.1604569 C6.813,13.8174569 6.813,13.1664569 7.03,12.7324569 C7.247,12.3124569 7.695,11.8504569 7.891,11.8504569 C8.01,11.8574569 8.15,12.0254569 8.535,12.6764569 L9.025,13.4954569 L9.102,13.0054569 C9.179,12.4524569 9.144,12.2844569 8.829,11.7454569 C8.479,11.1364569 8.087,10.6604569 7.94,10.6604569 C7.772,10.6604569 7.394,11.0314569 7.072,11.5074569 C6.946,11.7034569 6.596,12.0814569 6.302,12.3544569 L5.763,12.8514569 L5.434,12.7954569 C5.252,12.7604569 4.979,12.7324569 4.825,12.7324569 C4.573,12.7254569 4.545,12.7394569 4.524,12.9144569 C4.503,13.0684569 4.538,13.1174569 4.685,13.1524569 C4.79,13.1804569 5.007,13.1804569 5.168,13.1594569 C5.364,13.1314569 5.511,13.1454569 5.588,13.2014569 C5.707,13.2854569 5.7,13.2994569 5.581,13.4394569 C5.511,13.5234569 5.301,13.6354569 5.105,13.6984569 C4.615,13.8524569 4.3,14.0624569 4.3,14.2234569 C4.3,14.4334569 4.566,14.4824569 4.783,14.3074569 C5.504,13.7194569 5.707,13.6354569 5.896,13.8244569 C6.029,13.9574569 5.994,14.2094569 5.77,14.6504569 C5.574,15.0424569 5.504,15.4064569 5.609,15.5114569 C5.679,15.5884569 5.861,15.5674569 5.987,15.4694569 Z M19.756,9.36545685 C19.777,9.19045685 19.497,8.75645685 19.063,8.30145685 C18.888,8.11945685 18.384,7.53845685 17.943,7.01345685 C16.641,5.45945685 16.508,5.29145685 16.564,5.23545685 C16.62,5.17945685 17.726,5.66245685 17.978,5.85145685 C18.293,6.09645685 18.867,6.69845685 18.972,6.90145685 C19.021,6.98545685 19.091,7.24445685 19.14,7.46845685 C19.224,7.88845685 19.455,8.21045685 19.665,8.21045685 C19.805,8.21045685 19.868,8.04945685 19.812,7.83945685 C19.791,7.75545685 19.637,7.44745685 19.462,7.16045685 C19.287,6.87345685 19.168,6.61445685 19.182,6.58645685 C19.252,6.48145685 19.511,6.53045685 19.812,6.70545685 C19.987,6.80345685 20.239,7.06245685 20.428,7.32845685 C20.799,7.84645685 21.051,8.07045685 21.275,8.07045685 C21.464,8.07045685 21.688,7.83245685 21.639,7.69245685 C21.618,7.63645685 21.296,7.36345685 20.932,7.09045685 C20.302,6.62145685 20.106,6.37645685 20.218,6.19445685 C20.281,6.08945685 20.862,6.22945685 21.478,6.50245685 C22.528,6.97145685 22.815,6.99945685 22.983,6.68445685 C23.123,6.42545685 22.78,6.26445685 21.436,5.97045685 C21.065,5.88645685 20.659,5.75345685 20.533,5.67645685 L20.302,5.53645685 L20.463,5.40345685 C20.603,5.29145685 20.75,5.27045685 21.443,5.27045685 C22.066,5.27045685 22.297,5.24245685 22.402,5.16545685 C22.535,5.06045685 22.528,5.05345685 22.332,4.87845685 C22.206,4.77345685 22.087,4.71745685 22.017,4.74545685 C21.709,4.87145685 20.666,5.06045685 20.288,5.06045685 C19.609,5.06045685 19.553,4.81545685 20.169,4.57745685 C20.449,4.46545685 20.554,4.33945685 20.498,4.19245685 C20.435,4.02445685 20.267,4.05245685 19.658,4.33245685 C18.426,4.89945685 18.202,4.92745685 16.725,4.73845685 C16.025,4.64745685 15.822,4.64045685 15.745,4.71045685 C15.591,4.83645685 15.619,4.95545685 15.836,5.14445685 C16.011,5.29145685 17.362,7.77645685 17.299,7.83245685 C17.264,7.86745685 15.899,7.38445685 14.912,6.97845685 C14.786,6.92945685 14.786,6.93645685 14.912,7.13245685 C15.374,7.88145685 16.711,8.72145685 18.265,9.24645685 C19.07,9.51945685 19.119,9.52645685 19.455,9.51945685 C19.679,9.50545685 19.742,9.47745685 19.756,9.36545685 Z M2.515,6.63545685 C2.669,6.36245685 2.893,5.99845685 3.012,5.83045685 C3.271,5.46645685 3.866,4.85045685 3.957,4.85045685 C4.048,4.85045685 3.971,5.45945685 3.803,6.09645685 C3.649,6.67745685 3.635,6.95745685 3.754,7.07645685 C3.845,7.16745685 4.153,7.18845685 4.279,7.10445685 C4.328,7.07645685 4.384,6.67745685 4.426,6.07545685 C4.503,4.97645685 4.559,4.77345685 4.832,4.59845685 C5.007,4.47945685 5.021,4.47945685 5.105,4.59145685 C5.147,4.65445685 5.196,4.91345685 5.203,5.17245685 C5.224,5.86545685 5.392,6.17345685 5.693,6.07545685 C5.924,6.00545685 5.945,5.71845685 5.77,5.17245685 C5.567,4.53545685 5.532,4.07345685 5.623,3.45045685 C5.756,2.60345685 6.078,1.84745685 6.239,2.00845685 C6.274,2.03645685 6.295,2.98145685 6.302,4.10145685 C6.309,5.85145685 6.323,6.20145685 6.428,6.53045685 C6.624,7.13245685 6.666,7.16045685 7.436,7.16045685 C8.703,7.16045685 11.055,6.82445685 11.37,6.60045685 C11.706,6.36245685 11.636,6.27845685 10.971,6.06845685 C9.522,5.62745685 8.815,5.54345685 7.94,5.71145685 C7.653,5.76745685 7.394,5.80245685 7.366,5.78845685 C7.345,5.77445685 7.366,5.61345685 7.422,5.43145685 C7.597,4.86445685 7.548,4.51445685 7.135,3.26845685 C6.918,2.63145685 6.715,1.88945685 6.687,1.62345685 C6.652,1.35745685 6.582,1.09145685 6.54,1.03545685 C6.358,0.818456854 6.155,0.916456854 5.826,1.37145685 C5.413,1.93145685 4.762,2.54745685 4.384,2.74345685 C4.223,2.82745685 3.691,2.98145685 3.208,3.09345685 C2.34,3.28945685 2.06,3.42245685 2.165,3.59045685 C2.2,3.65345685 2.354,3.66045685 2.69,3.63245685 C3.306,3.56945685 3.355,3.65345685 2.942,4.03845685 C2.543,4.40245685 1.99,4.73845685 1.416,4.96945685 C0.891,5.17945685 0.8,5.24945685 0.8,5.41745685 C0.8,5.55045685 0.996,5.69045685 1.185,5.69045685 C1.248,5.69045685 1.528,5.50145685 1.801,5.26345685 C2.375,4.78045685 2.774,4.54945685 2.991,4.58445685 C3.39,4.64045685 2.914,5.55745685 2.165,6.17345685 C1.892,6.39745685 1.626,6.67045685 1.57,6.77545685 C1.479,6.95045685 1.479,6.97145685 1.605,7.06245685 C1.682,7.11845685 1.857,7.16045685 1.99,7.14645685 C2.207,7.12545685 2.256,7.08345685 2.515,6.63545685 Z" id="Shape" transform="translate(11.906009, 10.795228) scale(-1, 1) rotate(-180.000000) translate(-11.906009, -10.795228) "></path>
                        <path d="M13.05,3.741 C13.05,3.741 12.973,4.35 13.12,4.693 C13.12,4.693 13.309,5.001 13.561,5.05 C13.561,5.05 13.673,4.448 13.484,3.965 C13.484,3.972 13.407,3.685 13.05,3.741 Z M8.003,5.736 C8.003,5.736 8.542,6.03 8.745,6.345 C8.745,6.345 8.885,6.674 8.78,6.912 C8.78,6.912 8.22,6.653 7.94,6.219 C7.94,6.226 7.758,5.995 8.003,5.736 Z" id="Shape"></path>
                    </g>
                </g>
            </g>
        </g>
    </g>
</svg>