<?xml version="1.0" encoding="UTF-8"?>
<svg width="28px" height="28px" viewBox="0 0 28 28" version="1.1" xmlns="http://www.w3.org/2000/svg" xmlns:xlink="http://www.w3.org/1999/xlink">
    <!-- Generator: Sketch 50.2 (55047) - http://www.bohemiancoding.com/sketch -->
    <title>wax</title>
    <desc>Created with Sketch.</desc>
    <defs></defs>
    <g id="Wallet" stroke="none" stroke-width="1" fill="none" fill-rule="evenodd">
        <g id="Desktop" transform="translate(-124.000000, -297.000000)">
            <g id="Stacked-Group-3" transform="translate(74.000000, 297.000000)">
                <g id="wax" transform="translate(50.000000, 0.000000)">
                    <circle id="Oval-2" fill="#FF8B00" cx="14" cy="14" r="14"></circle>
                    <g stroke-width="1" transform="translate(4.000000, 10.521739)" fill="#FFFFFF" id="Shape">
                        <path d="M11.777938,0.0181687094 C12.4302812,0.0139870224 13.0836337,0.00807498198 13.7352559,0.0209084355 C14.066907,0.266041817 14.3652487,0.55443403 14.6885364,0.811679885 C16.4573784,2.30471699 18.2278673,3.79580177 20,5.28493151 C19.5130497,5.30209084 19.0253785,5.28767123 18.5384283,5.29228551 C18.3710166,5.28738284 18.2024513,5.3035328 18.0364816,5.2853641 C17.838212,5.15212689 17.6708003,4.97981255 17.4820476,4.83475126 C17.2030281,4.59596251 16.9178082,4.36452776 16.6409517,4.12400865 C16.1591925,4.49661139 15.7127614,4.91377073 15.2314348,5.28666186 C14.6857967,5.29819755 14.1387167,5.2925739 13.592646,5.28940159 C13.4951694,5.21600577 13.4340303,5.10583994 13.3524153,5.01542898 C13.1614996,4.79596251 12.9790916,4.56943043 12.7913482,4.34736842 C11.8842105,4.33900505 10.9770728,4.35054074 10.0699351,4.34174477 C10.1044235,4.26939286 10.1485123,4.20202285 10.2010094,4.14145638 C10.3824081,3.93525595 10.5534247,3.71910598 10.7362653,3.51362653 C11.1832733,3.5111752 11.6291276,3.51780822 12.0751262,3.51045422 C11.7506849,3.08637347 11.3888969,2.69214131 11.0543619,2.27613554 C10.3622206,3.11925018 9.64772891,3.94506128 8.95126172,4.7851478 C8.47930786,5.33857246 8.01614996,5.89891853 7.54520548,6.45291997 C7.50079308,6.49877433 7.4630137,6.57462149 7.38759913,6.55991348 C6.85522711,6.55501081 6.32285508,6.56798846 5.79077145,6.55255948 C6.15645278,6.14246575 6.4961788,5.71045422 6.85782264,5.29805335 C6.27757751,5.281615 5.6961788,5.30396539 5.11593367,5.28651766 C4.97433309,4.95760634 4.86431146,4.61326604 4.74102379,4.27627974 C4.54592646,3.76899784 4.38240807,3.24960346 4.17116078,2.74780101 C3.99711608,3.23619322 3.81528479,3.72141312 3.6444124,4.21081471 C3.52732516,4.52025955 3.407354,4.82883922 3.30641673,5.14376352 C3.27426099,5.19682769 3.27627974,5.3035328 3.19105984,5.29156453 C2.62018745,5.29156453 2.04931507,5.29502523 1.47887527,5.28940159 C1.47080029,5.2778659 1.45508291,5.25450613 1.44700793,5.24253785 C0.971160779,3.92155732 0.480894016,2.60504686 0.0119682769,1.28190339 C0.457966835,1.28190339 0.904109589,1.27945205 1.35010815,1.28334535 C1.54693583,1.73741889 1.68320115,2.2149964 1.87310743,2.67253064 C2.02523432,3.12069214 2.19437635,3.56222062 2.35270368,4.00821918 C2.68276857,3.14160058 2.99033886,2.26589762 3.31088681,1.39552992 C3.33467916,1.35328046 3.33972603,1.27080029 3.40634463,1.28262437 C3.93987022,1.28262437 4.47541456,1.27671233 5.00980534,1.28579668 C5.33006489,2.19149243 5.67080029,3.08954578 5.98658976,3.99668349 C6.10410959,3.77476568 6.15962509,3.52819034 6.25825523,3.29819755 C6.46344629,2.72487383 6.67281903,2.15328046 6.88017304,1.58111031 C6.92141312,1.48118241 6.93785148,1.36049027 7.01788032,1.28291276 C7.45349676,1.2777217 7.88968998,1.28291276 8.32530642,1.28046143 C8.31968277,1.39798125 8.26200433,1.50237924 8.22566691,1.61211247 C7.83028118,2.68911319 7.44268205,3.76928623 7.04585436,4.84599856 C7.01441961,4.91550108 7.00533526,4.99149243 6.99942322,5.0666186 C7.14491709,4.99769286 7.22278298,4.84715213 7.32804614,4.73237203 C8.29607787,3.58255227 9.26421053,2.43287671 10.2324441,1.28334535 C10.7792358,1.28608508 11.3273252,1.27209805 11.8729632,1.28997837 C12.1652487,1.59134823 12.4136986,1.93251622 12.6934391,2.24542177 C13.2572459,2.9333814 13.8435472,3.60317231 14.400721,4.29675559 C14.4979092,4.27685652 14.5563086,4.18947368 14.6314348,4.13280461 C14.9486662,3.88046143 15.2487383,3.607354 15.5658255,3.35414564 C15.5946647,3.3332372 15.6116799,3.30209084 15.6311464,3.27310743 C15.3071377,3.02321557 15.0074982,2.74419611 14.688969,2.48767123 C13.9689894,1.87855434 13.2480079,1.27062273 12.5260274,0.663878875 C12.2820476,0.44369142 12.0142754,0.247873107 11.777938,0.0181687094" fill-rule="nonzero"></path>
                        <path d="M17.5260274,1.74895458 C17.6752704,1.61081471 17.8311464,1.47945205 17.9916366,1.35400144 C18.6174477,1.33727469 19.2461428,1.35227109 19.8723864,1.34635905 C19.2791637,1.88190339 18.6467195,2.37303533 18.0465753,2.90021629 C17.7913482,2.61816871 17.4631579,2.41672675 17.1907714,2.15313627 C17.1551023,2.13081148 17.1428669,2.08464491 17.1627974,2.04758472 C17.2736842,1.93626532 17.4082192,1.85277578 17.5260274,1.74895458" fill-rule="nonzero"></path>
                    </g>
                </g>
            </g>
        </g>
    </g>
</svg>