<?xml version="1.0" encoding="UTF-8"?>
<svg width="201px" height="201px" viewBox="0 0 201 201" version="1.1" xmlns="http://www.w3.org/2000/svg" xmlns:xlink="http://www.w3.org/1999/xlink">
    <!-- Generator: Sketch 50.2 (55047) - http://www.bohemiancoding.com/sketch -->
    <title>ZRX</title>
    <desc>Created with Sketch.</desc>
    <defs></defs>
    <g id="Page-1" stroke="none" stroke-width="1" fill="none" fill-rule="evenodd">
        <g id="Artboard" transform="translate(-1801.000000, -7307.000000)" fill="#000000">
            <g id="ZRX" transform="translate(1801.000000, 7307.000000)">
                <path d="M0.7971,94.2274 C1.8281,88.6574 2.7111,83.0524 3.9261,77.5224 C5.9351,68.3824 9.3201,59.7664 14.2641,51.4284 C27.9261,69.3384 41.3551,86.8744 54.6991,104.4764 C59.2011,110.4144 59.1041,110.4884 53.9541,115.7624 C50.8641,118.9274 47.8741,122.2004 44.6471,125.2174 C42.7781,126.9644 42.6591,128.4684 43.8591,130.6474 C48.6391,139.3304 54.9581,146.6374 62.8691,152.5864 C63.7871,153.2784 64.7021,153.9744 65.9931,154.9524 C60.6091,159.0834 55.4891,163.0464 50.3301,166.9574 C46.8091,169.6284 43.1991,172.1834 39.6921,174.8724 C37.8181,176.3064 36.2491,176.7034 34.2691,174.8594 C18.9451,160.5934 8.3641,143.5654 3.8461,122.9884 C2.7181,117.8534 1.8071,112.6694 0.7971,107.5084 L0.7971,94.2274 Z" id="Fill-841"></path>
                <path d="M107.0461,0.4774 C112.6241,1.5054 118.2251,2.4254 123.7751,3.5844 C133.1001,5.5314 141.7841,9.1484 150.6751,14.1944 C130.3081,28.8144 110.3321,43.1524 89.9551,57.7794 C85.4841,53.4084 80.9271,49.1954 76.6761,44.6934 C74.5821,42.4764 72.8821,42.3394 70.2981,43.7964 C60.8441,49.1274 53.1381,56.3214 46.6531,65.6584 C45.3441,64.0264 44.2211,62.7004 43.1771,61.3144 C37.6241,53.9434 32.1411,46.5194 26.5181,39.2024 C25.0031,37.2304 24.9051,35.8704 26.6941,33.9154 C43.2131,15.8694 63.6741,5.3354 87.7281,1.5364 C89.9991,1.1764 92.2741,0.8304 94.5461,0.4774 L107.0461,0.4774 Z" id="Fill-843"></path>
                <path d="M51.429,186.7947 C71.439,171.8367 91.07,157.1617 111.711,141.7317 C116.098,146.5127 120.55,151.0557 124.624,155.9157 C127.096,158.8637 129.242,158.6847 132.29,156.9007 C141.417,151.5597 148.997,144.6297 155.177,135.3697 C158.427,139.5537 161.525,143.4627 164.535,147.4387 C167.986,151.9937 171.22,156.7197 174.813,161.1567 C177.117,164.0017 176.567,165.8677 174.171,168.3857 C158.334,185.0227 139.132,195.4107 116.543,199.1637 C94.293,202.8597 73.213,198.7367 53.323,188.2557 C52.763,187.9607 52.304,187.4787 51.429,186.7947" id="Fill-845"></path>
                <path d="M135.6575,46.0906 C145.1115,39.0396 154.1075,32.4226 162.9795,25.6446 C165.0965,24.0266 166.2675,25.2306 167.6115,26.4546 C176.7285,34.7626 184.1945,44.3516 189.7785,55.3616 C197.8095,71.1956 201.6615,88.0426 200.6345,105.7376 C199.7545,120.8746 195.8455,135.3126 187.8035,149.2596 C183.7705,143.9916 180.0105,139.1246 176.2975,134.2226 C165.9405,120.5516 155.6365,106.8426 145.2225,93.2156 C143.7755,91.3206 143.5765,90.1516 145.4635,88.3486 C149.5015,84.4876 153.1535,80.2256 157.1575,76.3266 C159.1105,74.4246 159.1425,72.8046 157.9115,70.5226 C153.2645,61.9096 146.9925,54.7396 139.2495,48.8146 C138.2295,48.0326 137.2035,47.2626 135.6575,46.0906" id="Fill-847"></path>
            </g>
        </g>
    </g>
</svg>