<?xml version="1.0" encoding="UTF-8"?>
<svg width="26px" height="12px" viewBox="0 0 26 12" version="1.1" xmlns="http://www.w3.org/2000/svg" xmlns:xlink="http://www.w3.org/1999/xlink">
    <!-- Generator: Sketch 51.1 (57501) - http://www.bohemiancoding.com/sketch -->
    <title>Group 12</title>
    <desc>Created with Sketch.</desc>
    <defs></defs>
    <g id="Desktop---Swap-" stroke="none" stroke-width="1" fill="none" fill-rule="evenodd">
        <g id="New-Token" transform="translate(-432.000000, -481.000000)">
            <g id="Group-12" transform="translate(432.000000, 481.000000)">
                <g id="Group">
                    <rect id="Rectangle-4" fill="#EE344E" fill-rule="nonzero" x="0" y="0" width="26" height="12" rx="2"></rect>
                    <path d="M8.35253906,9.42480469 L7.06494141,9.42480469 L3.90527344,4.30517578 L3.87011719,4.30517578 L3.89208984,4.59082031 C3.93310567,5.13574491 3.95361328,5.63378681 3.95361328,6.08496094 L3.95361328,9.42480469 L3,9.42480469 L3,3 L4.27441406,3 L7.42529297,8.09326172 L7.45166016,8.09326172 C7.44580075,8.02587857 7.43408212,7.78051969 7.41650391,7.35717773 C7.39892569,6.93383577 7.39013672,6.60351681 7.39013672,6.36621094 L7.39013672,3 L8.35253906,3 L8.35253906,9.42480469 Z M13.6831055,9.42480469 L10.0488281,9.42480469 L10.0488281,3 L13.6831055,3 L13.6831055,3.88769531 L11.0991211,3.88769531 L11.0991211,5.63671875 L13.5205078,5.63671875 L13.5205078,6.515625 L11.0991211,6.515625 L11.0991211,8.53271484 L13.6831055,8.53271484 L13.6831055,9.42480469 Z M21,9.42480469 L19.8574219,9.42480469 L18.7675781,5.59277344 C18.7207029,5.42578042 18.6621097,5.18481603 18.5917969,4.86987305 C18.521484,4.55493007 18.479004,4.33593812 18.4643555,4.21289062 C18.4350584,4.40039156 18.3874515,4.64355319 18.3215332,4.94238281 C18.2556149,5.24121243 18.2006838,5.46386646 18.1567383,5.61035156 L17.0932617,9.42480469 L15.9506836,9.42480469 L15.1201172,6.20800781 L14.2763672,3 L15.3486328,3 L16.2670898,6.74414062 C16.4106452,7.34472957 16.5131833,7.8749977 16.574707,8.33496094 C16.6069338,8.08593625 16.6552731,7.80761873 16.7197266,7.5 C16.78418,7.19238127 16.8427732,6.94336033 16.8955078,6.75292969 L17.9414062,3 L18.9829102,3 L20.0551758,6.77050781 C20.1577154,7.11914237 20.2661127,7.64062153 20.3803711,8.33496094 C20.4243166,7.91601353 20.5297843,7.38281574 20.6967773,6.73535156 L21.6108398,3 L22.6743164,3 L21,9.42480469 Z" id="New" fill="#FFFFFF"></path>
                </g>
            </g>
        </g>
    </g>
</svg>