<?xml version="1.0" encoding="UTF-8"?>
<svg width="19px" height="13px" viewBox="0 0 19 13" version="1.1" xmlns="http://www.w3.org/2000/svg" xmlns:xlink="http://www.w3.org/1999/xlink">
    <!-- Generator: Sketch 52.4 (67378) - http://www.bohemiancoding.com/sketch -->
    <title>keystore copy</title>
    <desc>Created with Sketch.</desc>
    <g id="KyberSwap.com-" stroke="none" stroke-width="1" fill="none" fill-rule="evenodd">
        <g id="landing-page--1" transform="translate(-511.000000, -700.000000)" fill="#97AABF">
            <g id="Group-12" transform="translate(489.000000, 653.000000)">
                <g id="Group-4" transform="translate(0.000000, 38.000000)">
                    <g id="keystore-copy" transform="translate(22.000000, 8.666667)">
                        <path d="M9.48128297,4.55755483 C9.97722052,4.55184035 10.2726435,4.31708963 10.2707234,3.93010524 C10.2688033,3.5588928 10.0046507,3.28368358 9.50322711,3.29282674 C9.00701525,3.30196991 8.66331516,3.48711897 8.68169338,3.94724867 C8.69842579,4.36303403 8.983151,4.56144067 9.48128297,4.55755483 M10.2932161,9.01896145 C10.2932161,8.33505282 10.2978793,7.65114419 10.2918446,6.96723556 C10.2877301,6.50573439 10.0474418,6.18869519 9.45220698,6.18480935 C8.86986438,6.1809235 8.6696241,6.49636264 8.6696241,6.93683454 C8.6696241,8.32362386 8.67319003,9.71064176 8.66523528,11.0974311 C8.66276656,11.5598466 8.97327614,11.803969 9.46647067,11.8716284 C9.89685011,11.9308304 10.2855357,11.5353886 10.2921189,11.0709159 C10.3017195,10.3870073 10.2945876,9.70287007 10.2932161,9.01896145 M2.56366726,9.77715828 L2.55872982,9.77715828 C2.55872982,10.062425 2.54199742,10.3483774 2.56147284,10.6329584 C2.65555834,12.0211192 4.2363593,13.3148768 5.79987925,13.3237914 C6.34189949,13.3267629 6.7207102,13.1640146 6.75444932,12.7153139 C6.78763983,12.2750705 6.49057104,12.0572347 5.91124575,12.0156333 C4.76905329,11.9340305 4.20646041,11.3913838 4.16942967,10.4482665 C4.15516598,10.0871115 4.11703804,9.72412793 4.14611402,9.36503018 C4.21578667,8.50763003 3.96068604,7.75697631 3.26697693,7.10141149 C3.16356517,7.00357964 3.18468641,6.69728366 3.29248699,6.58047975 C3.88607597,5.93954399 4.23773081,5.2519781 4.15571459,4.42429322 C4.11840955,4.04645199 4.1417252,3.6638106 4.15269727,3.28368358 C4.18040174,2.32456573 4.84530917,1.72111694 6.00889718,1.65940059 C6.59590291,1.62831383 6.76569569,1.33984703 6.7517063,0.947376734 C6.73771691,0.547134753 6.44147103,0.338899205 5.94087034,0.348042369 C4.65220074,0.372043173 3.69187033,0.841773196 3.02943162,1.76934713 C2.40182923,2.64823372 2.57765665,3.60940878 2.56366726,4.55184035 C2.54995217,5.47552844 1.96294643,6.05360495 0.85888191,6.16378007 C0.370899106,6.21246742 0.0181470613,6.34870055 0.000591749648,6.80700162 C-0.0161406568,7.25935964 0.323719205,7.42896532 0.798261225,7.51308242 C2.14837441,7.75194757 2.56586167,8.18670499 2.56366726,9.32068584 C2.56339295,9.47291951 2.56366726,9.6249246 2.56366726,9.77715828 M16.3903953,3.86176009 C16.3860065,3.86176009 16.3810691,3.86176009 16.3764059,3.86176009 C16.3764059,3.55729275 16.3942355,3.25213967 16.3731143,2.94881522 C16.2779316,1.58122654 14.5926217,0.264153844 13.0521431,0.336156256 C12.5271295,0.360842798 12.1455758,0.546677595 12.1376211,1.00475009 C12.1296663,1.45825099 12.4810469,1.60317013 13.014838,1.69688756 C13.5050153,1.7828333 14.0497785,2.0210127 14.3624825,2.33576611 C14.6469334,2.62240428 14.6954848,3.09624873 14.7706435,3.49763361 C14.916572,4.27640255 14.8367502,5.11803075 15.1711241,5.82891171 C15.495623,6.51807766 15.9306656,7.01020843 15.2262587,7.7537762 C14.5100569,8.50991582 14.8172748,9.51063506 14.7791469,10.413751 C14.7377273,11.4030413 14.1241143,11.9706032 12.9391308,12.0311767 C12.427558,12.0576918 12.1845267,12.230269 12.195773,12.6618264 C12.2072937,13.1016125 12.4431932,13.3130482 12.9896023,13.3311059 C14.3696144,13.3768217 15.2424425,12.7132566 15.941912,11.8540279 C16.6205345,11.0203999 16.3358093,10.0473388 16.3764059,9.12707935 C16.4153568,8.23653523 17.0476223,7.63491508 18.1149304,7.5242828 C18.616354,7.47216677 19.0094284,7.31078993 18.9998278,6.83008811 C18.989953,6.35532935 18.624583,6.19966699 18.0973751,6.15669412 C17.0753268,6.07326275 16.4104194,5.44947043 16.3914925,4.60372781 C16.3860065,4.35640523 16.3903953,4.10908266 16.3903953,3.86176009" id="Fill-1"></path>
                    </g>
                </g>
            </g>
        </g>
    </g>
</svg>