<?xml version="1.0" encoding="UTF-8"?>
<svg width="16px" height="17px" viewBox="0 0 16 17" version="1.1" xmlns="http://www.w3.org/2000/svg" xmlns:xlink="http://www.w3.org/1999/xlink">
    <!-- Generator: Sketch 52.4 (67378) - http://www.bohemiancoding.com/sketch -->
    <title>ledger</title>
    <desc>Created with Sketch.</desc>
    <g id="KyberSwap.com-" stroke="none" stroke-width="1" fill="none" fill-rule="evenodd">
        <g id="landing-page--1" transform="translate(-675.000000, -660.000000)" fill="#97AABF">
            <g id="Group-12" transform="translate(489.000000, 653.000000)">
                <g id="Group-6" transform="translate(158.000000, 0.000000)">
                    <g id="ledger" transform="translate(28.000000, 7.333333)">
                        <path d="M0,2.37438449 C0.0289791929,2.23488888 0.0532573855,2.0942213 0.0876179867,1.95605187 C0.373141903,0.807981087 1.40609395,0.00147871276 2.58963264,0.00055347103 C2.99555783,0.00024505712 3.40148303,0.000491788248 3.81786176,0.000491788248 L3.81786176,3.7785005 L0.0305255746,3.7785005 C0.0269070415,3.71111206 0.0211854292,3.64174977 0.019762758,3.5723258 C0.0125566193,3.22443491 0.00646387548,2.87651318 0,2.52859145 L0,2.37438449 Z M6.10875202,9.85410032 L6.10875202,0.00965168137 C6.16420526,0.00653670088 6.21817398,0.000892726331 6.2721427,0.000892726331 C8.68885894,0.000430105466 11.1055752,-0.000988598519 13.5223223,0.00113945746 C14.6936756,0.00215722336 15.7937096,0.964747877 15.9531416,2.12629634 C15.9788734,2.31396621 15.9941207,2.50465853 15.9943372,2.69396299 C15.9971207,5.0165973 15.996131,7.33923161 15.996131,9.66183509 L15.996131,9.85410032 L6.10875202,9.85410032 Z M6.11062314,12.1929726 L9.90649535,12.1929726 C9.90937162,12.2441693 9.91456746,12.2939165 9.91459839,12.3436637 C9.91506231,13.5053047 9.91342314,14.6669456 9.91725817,15.8285866 C9.9176293,15.9497625 9.89328925,15.9987694 9.75754787,15.9981526 C8.58752455,15.9929712 7.41747031,15.9943591 6.24744699,15.9966105 C6.14906619,15.9967956 6.09942733,15.9814366 6.09982939,15.8637767 C6.10394277,14.6661746 6.10242731,13.4685417 6.10279845,12.2709397 C6.10279845,12.2508619 6.10669533,12.230815 6.11062314,12.1929726 Z M3.82055865,6.12852814 L3.82055865,9.90959015 C3.77249711,9.91282849 3.72341495,9.91896593 3.6743328,9.91899677 C2.51043315,9.91955192 1.34650258,9.91822574 0.182633864,9.92130988 C0.0708923223,9.92161829 0.0163669038,9.90416206 0.016861746,9.77265437 C0.0215008911,8.60176096 0.0194905949,7.43080587 0.0200782199,6.25988162 C0.0200782199,6.21963361 0.0266658059,6.17935475 0.0311193852,6.12852814 L3.82055865,6.12852814 Z M3.81512157,16 C3.11977558,15.961109 2.42814091,16.0767642 1.75376385,15.8521155 C0.810471017,15.5378418 0.0832077062,14.6231478 0.0346203933,13.6340335 C0.0112700298,13.1588911 0.0305998009,12.6816822 0.0305998009,12.1960228 L3.81512157,12.1960228 L3.81512157,16 Z M12.2045454,12.1951099 L15.9711291,12.1951099 C15.9787373,12.2036838 15.9910774,12.2111166 15.9909846,12.2183952 C15.9847063,12.7515195 16.0309741,13.2918915 15.959624,13.8163185 C15.7866458,15.0874773 14.6558078,15.9682149 13.4811762,15.9774981 C13.0595089,15.980829 12.6377796,15.9780224 12.2045454,15.9780224 L12.2045454,12.1951099 Z" id="Combined-Shape-Copy"></path>
                    </g>
                </g>
            </g>
        </g>
    </g>
</svg>