<?xml version="1.0" encoding="UTF-8"?>
<svg width="19px" height="18px" viewBox="0 0 19 18" version="1.1" xmlns="http://www.w3.org/2000/svg" xmlns:xlink="http://www.w3.org/1999/xlink">
    <!-- Generator: Sketch 52.4 (67378) - http://www.bohemiancoding.com/sketch -->
    <title>metamask_gray</title>
    <desc>Created with Sketch.</desc>
    <g id="KyberSwap.com-" stroke="none" stroke-width="1" fill="none" fill-rule="evenodd">
        <g id="landing-page--1" transform="translate(-509.000000, -658.000000)">
            <g id="metamask_gray" transform="translate(510.000000, 659.000000)">
                <g id="Group-7">
                    <polygon id="Path" stroke="#9DAFC6" stroke-width="0.5" fill="#9DAFC6" stroke-linecap="round" stroke-linejoin="round" points="16.5409091 0.0337552743 9.75 5.02278481 11.0113636 2.07932489"></polygon>
                    <g id="Group" transform="translate(0.136364, 0.000000)" fill="#9DAFC6">
                        <polygon id="Path" stroke="#9DAFC6" stroke-width="0.5" stroke-linecap="round" stroke-linejoin="round" points="0.743181818 0.0337552743 7.47272727 5.07004219 6.27272727 2.07932489"></polygon>
                        <polygon id="Path" stroke="#9DAFC6" stroke-width="0.5" stroke-linecap="round" stroke-linejoin="round" points="13.9636364 11.5983122 12.1568182 14.3392405 16.0227273 15.3924051 17.1272727 11.6590717"></polygon>
                        <polygon id="Path" stroke="#9DAFC6" stroke-width="0.5" stroke-linecap="round" stroke-linejoin="round" points="0.0272727273 11.6590717 1.125 15.3924051 4.99090909 14.3392405 3.19090909 11.5983122"></polygon>
                        <polygon id="Path" stroke="#9DAFC6" stroke-width="0.5" stroke-linecap="round" stroke-linejoin="round" points="4.77954545 6.96708861 3.70227273 8.58059072 7.53409091 8.74936709 7.40454545 4.6649789"></polygon>
                        <polygon id="Path" stroke="#9DAFC6" stroke-width="0.5" stroke-linecap="round" stroke-linejoin="round" points="12.3681818 6.96708861 9.70227273 4.61772152 9.61363636 8.74936709 13.4454545 8.58059072"></polygon>
                        <polygon id="Path" points="4.99090909 14.3392405 7.30227273 13.2253165 5.31136364 11.6860759"></polygon>
                        <polygon id="Path" points="9.84545455 13.2253165 12.1568182 14.3392405 11.8363636 11.6860759"></polygon>
                    </g>
                    <g id="Group" transform="translate(5.113636, 13.164557)" fill="#E4E8EA" stroke="#E4E8EB" stroke-linecap="round" stroke-linejoin="round" stroke-width="0.5">
                        <polygon id="Path" points="7.17954545 1.17468354 4.86818182 0.0607594937 5.05227273 1.55274262 5.03181818 2.18059072"></polygon>
                        <polygon id="Path" points="0.0136363636 1.17468354 2.16136364 2.18059072 2.14772727 1.55274262 2.325 0.0607594937"></polygon>
                    </g>
                    <polygon id="Path" fill="#FFFFFF" points="7.31590909 10.7004219 5.39318182 10.1400844 6.75 9.5257384"></polygon>
                    <polygon id="Path" fill="#FFFFFF" points="10.1045455 10.7004219 10.6704545 9.5257384 12.0340909 10.1400844"></polygon>
                    <g id="Group" transform="translate(3.272727, 8.573840)" fill="#8B9DB1" stroke="#8C9EB1" stroke-linecap="round" stroke-linejoin="round" stroke-width="0.5">
                        <polygon id="Path" points="1.85454545 5.76540084 2.18863636 3.02447257 0.0545454545 3.08523207"></polygon>
                        <polygon id="Path" points="8.68636364 3.02447257 9.02045455 5.76540084 10.8272727 3.08523207"></polygon>
                        <polygon id="Path" points="10.3090909 0.00675105485 6.47727273 0.175527426 6.83181818 2.12658228 7.39772727 0.951898734 8.76136364 1.56624473"></polygon>
                        <polygon id="Path" points="2.12045455 1.56624473 3.47727273 0.951898734 4.04318182 2.12658228 4.39772727 0.175527426 0.565909091 0.00675105485"></polygon>
                    </g>
                    <g id="Group" transform="translate(3.818182, 8.573840)" stroke="#9DAFC5" stroke-linecap="round" stroke-linejoin="round" stroke-width="0.5">
                        <polygon id="Path" fill="#9DAFC6" points="0.0204545455 0.00675105485 1.62954545 3.11223629 1.575 1.56624473"></polygon>
                        <polygon id="Path" fill="#9DAFC6" points="8.21590909 1.56624473 8.15454545 3.11223629 9.76363636 0.00675105485"></polygon>
                        <polygon id="Path" fill="#9DAFC5" points="3.85227273 0.175527426 3.49772727 2.12658228 3.94772727 4.42869198 4.04318182 1.39746835"></polygon>
                        <polygon id="Path" fill="#9DAFC5" points="5.93181818 0.175527426 5.74772727 1.3907173 5.83636364 4.42869198 6.28636364 2.12658228"></polygon>
                    </g>
                    <polygon id="Path" stroke="#AABCD6" stroke-width="0.5" fill="#ABBCD7" stroke-linecap="round" stroke-linejoin="round" points="10.1045455 10.7004219 9.65454545 13.0025316 9.98181818 13.2253165 11.9727273 11.6860759 12.0340909 10.1400844"></polygon>
                    <polygon id="Path" stroke="#AABCD6" stroke-width="0.5" fill="#ABBCD7" stroke-linecap="round" stroke-linejoin="round" points="5.39318182 10.1400844 5.44772727 11.6860759 7.43863636 13.2253165 7.76590909 13.0025316 7.31590909 10.7004219"></polygon>
                    <polygon id="Path" stroke="#D4D8DA" stroke-width="0.5" fill="#D4D8DA" stroke-linecap="round" stroke-linejoin="round" points="10.1454545 15.3451477 10.1659091 14.7172996 9.99545455 14.5687764 7.425 14.5687764 7.26136364 14.7172996 7.275 15.3451477 5.12727273 14.3392405 5.87727273 14.9468354 7.40454545 15.9932489 10.0159091 15.9932489 11.5431818 14.9468354 12.2931818 14.3392405"></polygon>
                    <polygon id="Path" stroke="#464646" stroke-width="0.5" fill="#464646" stroke-linecap="round" stroke-linejoin="round" points="9.98181818 13.2253165 9.65454545 13.0025316 7.76590909 13.0025316 7.43863636 13.2253165 7.26136364 14.7172996 7.425 14.5687764 9.99545455 14.5687764 10.1659091 14.7172996"></polygon>
                    <g id="Group" fill="#6D7781" stroke="#6D7881" stroke-linecap="round" stroke-linejoin="round" stroke-width="0.5">
                        <polygon id="Path" points="16.8272727 5.34683544 17.4 2.59240506 16.5409091 0.0337552743 9.98181818 4.85400844 12.5045455 6.96708861 16.0704545 8 16.8545455 7.08860759 16.5136364 6.84556962 17.0590909 6.35274262 16.6431818 6.02869198 17.1886364 5.61687764"></polygon>
                        <polygon id="Path" points="0.0204545455 2.59240506 0.6 5.34683544 0.231818182 5.61687764 0.777272727 6.02869198 0.361363636 6.35274262 0.906818182 6.84556962 0.565909091 7.08860759 1.35 8 4.91590909 6.96708861 7.43863636 4.85400844 0.879545455 0.0337552743"></polygon>
                    </g>
                    <polygon id="Path" stroke="#AABCD6" stroke-width="0.5" fill="#ABBCD7" stroke-linecap="round" stroke-linejoin="round" points="16.0704545 8 12.5045455 6.96708861 13.5818182 8.58059072 11.9727273 11.6860759 14.1 11.6590717 17.2636364 11.6590717"></polygon>
                    <polygon id="Path" stroke="#AABCD6" stroke-width="0.5" fill="#ABBCD7" stroke-linecap="round" stroke-linejoin="round" points="4.91590909 6.96708861 1.35 8 0.163636364 11.6590717 3.32727273 11.6590717 5.44772727 11.6860759 3.83863636 8.58059072"></polygon>
                    <polygon id="Path" stroke="#AABCD6" stroke-width="0.5" fill="#ABBCD7" stroke-linecap="round" stroke-linejoin="round" points="9.75 8.74936709 9.98181818 4.85400844 11.0113636 2.07932489 6.40909091 2.07932489 7.43863636 4.85400844 7.67045455 8.74936709 7.75909091 9.97805907 7.76590909 13.0025316 9.65454545 13.0025316 9.66136364 9.97805907"></polygon>
                </g>
            </g>
        </g>
    </g>
</svg>