<?xml version="1.0" encoding="UTF-8"?>
<svg width="17px" height="16px" viewBox="0 0 17 16" version="1.1" xmlns="http://www.w3.org/2000/svg" xmlns:xlink="http://www.w3.org/1999/xlink">
    <!-- Generator: Sketch 52.4 (67378) - http://www.bohemiancoding.com/sketch -->
    <title>Fill 1 Copy</title>
    <desc>Created with Sketch.</desc>
    <g id="KyberSwap.com-" stroke="none" stroke-width="1" fill="none" fill-rule="evenodd">
        <g id="landing-page--1" transform="translate(-663.000000, -698.000000)" fill="#97AABF">
            <g id="Group-12" transform="translate(489.000000, 653.000000)">
                <g id="Group-5" transform="translate(159.000000, 38.000000)">
                    <path d="M23.4860235,15 C23.4420451,15.0433892 23.4075291,15.0766189 23.3737658,15.1105894 C21.625923,16.8771631 19.8779726,18.6438426 18.1303448,20.4106279 C18.1038933,20.437508 18.076044,20.4641765 18.0550763,20.4950781 C17.9632487,20.6305369 17.988625,20.8069508 18.1134632,20.9174345 C18.2322799,21.0223092 18.4057201,21.0286589 18.5321713,20.9285463 C18.5786227,20.8918243 18.6190527,20.8474827 18.6607729,20.8052576 C20.4084007,19.0383665 22.155921,17.2713695 23.9030111,15.5041608 C23.9360217,15.4708253 23.9653765,15.4339974 24,15.3947355 C23.8276351,15.2623457 23.6651626,15.1375754 23.4860235,15 M29.5622436,10.5546988 C30.1453172,9.96814195 30.1460152,9.02792917 29.563756,8.44102328 C28.9797517,7.85237237 28.0207981,7.85307037 27.4355141,8.44265195 C26.8487178,9.03374588 26.8558143,9.98140405 27.4512194,10.5685426 C28.0401098,11.1491665 28.977425,11.1430008 29.5622436,10.5546988 M16.6727747,20.3413166 C16.6581073,20.0522155 16.6396039,19.7045329 16.6232441,19.3568503 C16.6065458,19.0055725 16.791242,18.8304622 17.1709015,18.8373355 C17.5414221,18.8439973 17.9119427,18.8524568 18.3010796,18.8604932 C18.2833659,18.5084752 18.265765,18.1678773 18.248954,17.8272795 C18.2294351,17.4318011 18.4016075,17.276782 18.8275257,17.2716006 C19.1869893,17.2671594 19.5462273,17.2383974 19.9220508,17.2194694 C19.9083988,16.9541605 19.9017421,16.6236082 19.8709406,16.2950651 C19.8495036,16.0667662 19.9279177,15.8985293 20.0990748,15.7371656 C20.764184,15.110639 21.4171081,14.4725864 22.078607,13.8425703 C22.1573595,13.7675986 22.1756373,13.7106032 22.1323121,13.6078211 C21.2919841,11.6135103 21.8654786,9.48490602 23.6128149,8.09375261 C25.3885834,6.67975875 28.1364607,6.63111702 29.9789093,7.98071347 C32.1548716,9.57478747 32.6377669,12.3420788 31.1149543,14.4918316 C29.837087,16.2958053 27.3331396,17.0596919 25.1357403,16.3091289 C24.984215,16.2574206 24.8976775,16.2777232 24.7865439,16.3848408 C22.6442037,18.4525372 20.4965608,20.5153694 18.3530924,22.5820083 C18.2217629,22.7085826 18.0786995,22.7755178 17.8908442,22.7923309 C17.1968515,22.8545077 16.5038742,22.9275761 15.8103327,22.9949343 C15.4568489,23.0293007 15.2659473,22.8891914 15.221381,22.5628689 C15.1483826,22.0262237 15.0761739,21.4895786 15.0066731,20.9526162 C14.9607529,20.5977431 15.1535726,20.4077231 15.5312012,20.3997924 C15.9078144,20.3918617 16.2838635,20.3621479 16.6727747,20.3413166" id="Fill-1-Copy"></path>
                </g>
            </g>
        </g>
    </g>
</svg>