<?xml version="1.0" encoding="UTF-8"?>
<svg width="13px" height="18px" viewBox="0 0 13 18" version="1.1" xmlns="http://www.w3.org/2000/svg" xmlns:xlink="http://www.w3.org/1999/xlink">
    <!-- Generator: Sketch 52.4 (67378) - http://www.bohemiancoding.com/sketch -->
    <title>Combined Shape</title>
    <desc>Created with Sketch.</desc>
    <g id="KyberSwap.com-" stroke="none" stroke-width="1" fill="none" fill-rule="evenodd">
        <g id="landing-page--1" transform="translate(-824.000000, -696.000000)" fill="#97AABF" fill-rule="nonzero">
            <path d="M829.543317,705.000903 L836.455717,701.141528 C836.698551,701.007182 837,701.174096 837,701.446858 L837,708.550876 C837,708.819567 836.698551,708.990552 836.455717,708.856207 L829.543317,705.000903 Z M836.057971,699.484602 C836.263124,699.639302 836.24219,699.944633 836.016103,700.070836 L829.208374,703.873216 L830.887279,696.280669 C830.941707,696.028262 831.247343,695.914273 831.46087,696.073044 L836.057971,699.484602 Z M831.46087,713.928761 C831.25153,714.083462 830.941707,713.973543 830.891465,713.721136 L829.21256,706.128589 L836.024477,709.93097 C836.246377,710.057173 836.267311,710.362503 836.062158,710.517204 L831.46087,713.928761 Z M827.772303,705.000903 L829.580998,713.179684 C829.652174,713.501299 829.275362,713.73335 829.007407,713.533867 L824.376812,710.097883 C824.138164,709.922827 824,709.645995 824,709.356949 L824,700.640786 C824,700.35174 824.138164,700.074907 824.376812,699.899851 L829.007407,696.463867 C829.275362,696.264385 829.652174,696.496436 829.580998,696.81805 L827.772303,705.000903 Z" id="Combined-Shape"></path>
        </g>
    </g>
</svg>