<?xml version="1.0" encoding="UTF-8"?>
<svg width="12px" height="16px" viewBox="0 0 12 16" version="1.1" xmlns="http://www.w3.org/2000/svg" xmlns:xlink="http://www.w3.org/1999/xlink">
    <!-- Generator: Sketch 52.4 (67378) - http://www.bohemiancoding.com/sketch -->
    <title>trezor copy</title>
    <desc>Created with Sketch.</desc>
    <g id="KyberSwap.com-" stroke="none" stroke-width="1" fill="none" fill-rule="evenodd">
        <g id="landing-page--1" transform="translate(-842.000000, -660.000000)" fill="#97AABF">
            <g id="Group-12" transform="translate(489.000000, 653.000000)">
                <g id="Group-2" transform="translate(317.000000, 0.000000)">
                    <g id="trezor-copy" transform="translate(36.000000, 6.333333)">
                        <path d="M8.02880747,5.60280917 C8.22332539,4.46940555 8.22714947,3.38886722 7.06845492,2.95385454 C6.39822215,2.70232949 5.38280293,2.76349204 4.72786645,3.06717119 C3.66426389,3.55979046 3.79122316,4.59836844 3.96891515,5.60280917 L8.02880747,5.60280917 Z M2.35031192,7.64606495 C2.35031192,9.29840196 2.33323106,10.8305475 2.36866748,12.3617447 C2.37376625,12.5833997 2.57134342,12.9027251 2.77733357,13.0034773 C4.55527322,13.8713691 6.33193819,14.9535669 8.32504577,13.4079087 C8.51395505,13.2616402 8.79668161,13.2237099 9.00216188,13.0907169 C9.2293119,12.9435001 9.5908144,12.7491075 9.59591317,12.5679905 C9.642057,10.932248 9.62293662,9.29532013 9.62293662,7.64606495 L2.35031192,7.64606495 Z M0.00538949894,5.71351812 C0.646304369,5.66800181 1.1411396,5.63315338 1.6158347,5.59949027 C2.36509834,1.73036654 3.55642499,0.51541285 6.38369067,0.681357744 C8.81682174,0.824070353 10.0364465,2.32065623 10.290875,5.56914606 C10.7994768,5.61750715 11.3282189,5.66752768 11.9966671,5.73129793 C11.9966671,8.44473401 12.0152776,11.1595925 11.9645449,13.8735027 C11.9602109,14.1084332 11.542622,14.4166166 11.2443442,14.5538768 C9.72516688,15.2522677 8.19528218,15.9343012 6.63786414,16.5535127 C6.27100794,16.6995442 5.72518505,16.706182 5.36011342,16.562047 C3.80142069,15.9452062 2.26388784,15.2771594 0.757457465,14.5571957 C0.425272868,14.3988368 0.045414811,13.9562381 0.0380216005,13.6378609 C-0.0195944538,11.0367933 0.00538949894,8.43406613 0.00538949894,5.71351812 Z" id="Fill-1"></path>
                    </g>
                </g>
            </g>
        </g>
    </g>
</svg>