<svg xmlns="http://www.w3.org/2000/svg" width="52" height="18" viewBox="0 0 52 18">
    <g fill="none" fill-rule="evenodd">
        <path d="M-1-2h22v22H-1z"/>
        <path fill="#9EA1AA" d="M10.48 5.849c.547-.008.874-.333.872-.869-.002-.514-.294-.895-.848-.882-.549.012-.929.269-.908.906.018.576.333.85.883.845m.898 6.177c0-.947.005-1.894-.002-2.84-.004-.64-.27-1.079-.928-1.084-.643-.005-.865.431-.865 1.041 0 1.92.004 3.841-.005 5.761-.002.64.34.978.886 1.072.476.082.905-.465.912-1.109.011-.947.003-1.894.002-2.84m-8.543 1.05h-.006c0 .394-.018.79.003 1.184.104 1.922 1.851 3.713 3.58 3.726.598.004 1.017-.221 1.054-.843.037-.61-.291-.91-.932-.969-1.262-.112-1.884-.864-1.925-2.17-.015-.5-.058-1.002-.025-1.5.077-1.187-.205-2.226-.972-3.134-.114-.135-.091-.56.028-.721.656-.888 1.045-1.84.954-2.986-.041-.523-.015-1.053-.003-1.579.03-1.328.765-2.163 2.051-2.249.65-.043.837-.442.821-.986C7.447.296 7.12.008 6.566.02 5.142.054 4.08.704 3.348 1.988c-.693 1.217-.499 2.548-.514 3.853C2.818 7.12 2.17 7.921.949 8.073c-.54.067-.929.256-.948.89-.019.627.357.862.881.978 1.493.33 1.954.933 1.952 2.503v.632m15.282-8.19H18.1c0-.422.02-.845-.003-1.265-.106-1.893-1.968-3.717-3.67-3.617-.581.034-1.003.291-1.012.926-.009.628.38.828.97.958.542.119 1.144.449 1.49.885.314.396.367 1.053.45 1.608.162 1.079.074 2.244.443 3.228.359.954.84 1.636.061 2.665-.792 1.047-.452 2.433-.494 3.684-.046 1.37-.724 2.155-2.034 2.239-.565.037-.834.276-.821.873.012.61.273.902.877.927 1.525.063 2.49-.856 3.263-2.045.75-1.155.435-2.502.48-3.776.043-1.233.742-2.066 1.922-2.22.554-.071.988-.295.978-.96-.011-.658-.415-.873-.998-.933-1.13-.115-1.864-.98-1.885-2.15-.006-.343-.001-.685-.001-1.027"/>
        <g>
            <path d="M30-2h22v22H30z"/>
            <path fill="#FF9008" d="M41.48 5.849c.547-.008.874-.333.872-.869-.002-.514-.294-.895-.848-.882-.549.012-.929.269-.908.906.018.576.333.85.883.845m.898 6.177c0-.947.005-1.894-.002-2.84-.004-.64-.27-1.079-.928-1.084-.643-.005-.865.431-.865 1.041 0 1.92.004 3.841-.005 5.761-.002.64.34.978.886 1.072.476.082.905-.465.912-1.109.011-.947.003-1.894.002-2.84m-8.543 1.05h-.006c0 .394-.018.79.003 1.184.104 1.922 1.851 3.713 3.58 3.726.598.004 1.017-.221 1.054-.843.037-.61-.291-.91-.932-.969-1.262-.112-1.884-.864-1.925-2.17-.015-.5-.058-1.002-.025-1.5.077-1.187-.205-2.226-.972-3.134-.114-.135-.091-.56.028-.721.656-.888 1.045-1.84.954-2.986-.041-.523-.015-1.053-.003-1.579.03-1.328.765-2.163 2.051-2.249.65-.043.837-.442.821-.986-.015-.554-.342-.842-.896-.83-1.424.034-2.486.684-3.218 1.968-.693 1.217-.499 2.548-.514 3.853-.016 1.279-.664 2.08-1.885 2.232-.54.067-.929.256-.948.89-.019.627.357.862.881.978 1.493.33 1.954.933 1.952 2.503v.632m15.282-8.19H49.1c0-.422.02-.845-.003-1.265-.106-1.893-1.968-3.717-3.67-3.617-.581.034-1.003.291-1.012.926-.009.628.38.828.97.958.542.119 1.144.449 1.49.885.314.396.367 1.053.45 1.608.162 1.079.074 2.244.443 3.228.359.954.84 1.636.061 2.665-.792 1.047-.452 2.433-.494 3.684-.046 1.37-.724 2.155-2.034 2.239-.565.037-.834.276-.821.873.012.61.273.902.877.927 1.525.063 2.49-.856 3.263-2.045.75-1.155.435-2.502.48-3.776.043-1.233.742-2.066 1.922-2.22.554-.071.988-.295.978-.96-.011-.658-.415-.873-.998-.933-1.13-.115-1.864-.98-1.885-2.15-.006-.343-.001-.685-.001-1.027"/>
        </g>
    </g>
</svg>
