<svg xmlns="http://www.w3.org/2000/svg" width="49" height="18" viewBox="0 0 49 18">
    <g fill="none" fill-rule="evenodd">
        <path d="M-2-2h22v22H-2z"/>
        <path fill="#9EA1AA" d="M4.292 13.72V18c-.782-.044-1.56.086-2.319-.166C.912 17.48.093 16.45.039 15.338c-.026-.534-.005-1.071-.005-1.617h4.258zm6.853-.003c.003.058.009.114.009.17 0 1.306-.001 2.613.003 3.92 0 .136-.027.192-.18.19a621.144 621.144 0 0 0-3.949 0c-.11 0-.166-.018-.166-.15.005-1.348.003-2.695.004-4.042 0-.023.004-.045.008-.088h4.27zm6.823.002c.008.01.022.019.022.027-.007.6.045 1.207-.035 1.797-.195 1.43-1.467 2.421-2.789 2.432-.474.003-.948 0-1.436 0V13.72h4.238zM4.298 6.895v4.253c-.054.004-.11.01-.164.01-1.31.001-2.62 0-3.929.003-.125 0-.187-.019-.186-.167.005-1.317.003-2.634.004-3.952 0-.045.007-.09.012-.147h4.263zM15.213 0c1.317.001 2.555 1.084 2.734 2.391.03.211.046.426.047.639l.002 3.92v4.135H6.872V.01c.063-.004.123-.01.184-.01 2.719 0 5.438-.002 8.157 0zm-10.918 0v4.25H.035C.03 4.175.023 4.097.021 4.019L0 2.845V2.67c.033-.157.06-.315.099-.47A2.903 2.903 0 0 1 2.913 0h1.382z"/>
        <g>
            <path d="M29-2h22v22H29z"/>
            <path fill="#FF9008" d="M35.292 13.72V18c-.782-.044-1.56.086-2.319-.166-1.061-.354-1.88-1.383-1.934-2.496-.026-.534-.005-1.071-.005-1.617h4.258zm6.853-.003c.003.058.009.114.009.17 0 1.306-.001 2.613.003 3.92 0 .136-.027.192-.18.19a621.144 621.144 0 0 0-3.949 0c-.11 0-.166-.018-.166-.15.005-1.348.003-2.695.004-4.042 0-.023.004-.045.008-.088h4.27zm6.823.002c.008.01.022.019.022.027-.007.6.045 1.207-.035 1.797-.195 1.43-1.467 2.421-2.789 2.432-.474.003-.948 0-1.436 0V13.72h4.238zm-13.67-6.824v4.253c-.054.004-.11.01-.164.01-1.31.001-2.62 0-3.929.003-.125 0-.187-.019-.186-.167.005-1.317.003-2.634.004-3.952 0-.045.007-.09.012-.147h4.263zM46.213 0c1.317.001 2.555 1.084 2.734 2.391.03.211.046.426.047.639l.002 3.92v4.135H37.872V.01c.063-.004.123-.01.184-.01 2.719 0 5.438-.002 8.157 0zm-10.918 0v4.25h-4.26c-.005-.076-.011-.154-.013-.232L31 2.845V2.67c.033-.157.06-.315.099-.47A2.903 2.903 0 0 1 33.913 0h1.382z"/>
        </g>
    </g>
</svg>
