<svg xmlns="http://www.w3.org/2000/svg" width="52" height="19" viewBox="0 0 52 19">
    <g fill="none" fill-rule="evenodd">
        <path d="M-1-1h22v22H-1z"/>
        <path fill="#929498" d="M19.214.04l-7.888 5.927L12.79 2.47zM1.022.04l7.817 5.983L7.445 2.47z"/>
        <path fill="#919397" d="M16.379 13.779l-2.099 3.256 4.49 1.251 1.284-4.435zM.19 13.851l1.275 4.435 4.49-1.25-2.09-3.257z"/>
        <path fill="#929498" d="M5.71 8.277L4.46 10.194l4.451.2-.15-4.852zM14.525 8.277L11.43 5.486l-.103 4.908 4.45-.2zM5.956 17.035l2.685-1.323-2.313-1.829zM11.595 15.712l2.685 1.323-.372-3.152z"/>
        <g fill="#CCCED2">
            <path d="M14.28 17.035l-2.685-1.323.214 1.772-.024.746zM5.956 17.035L8.45 18.23l-.016-.746.206-1.772z"/>
        </g>
        <path fill="#FFF" d="M8.498 12.712l-2.233-.665 1.576-.73zM11.738 12.712l.657-1.395 1.584.73z"/>
        <g fill="#7F8185">
            <path d="M5.956 17.035l.388-3.256-2.479.072zM13.892 13.779l.388 3.256 2.099-3.184zM15.777 10.194l-4.451.2.412 2.318.657-1.395 1.584.73zM6.265 12.047l1.576-.73.657 1.395.412-2.318-4.451-.2z"/>
        </g>
        <path fill="#919397" d="M4.459 10.194l1.87 3.69-.064-1.837zM13.979 12.047l-.071 1.836 1.869-3.69z"/>
        <path fill="#909296" d="M8.91 10.394l-.412 2.318.523 2.735.11-3.6zM11.326 10.394l-.214 1.444.103 3.61.523-2.736z"/>
        <path fill="#9D9FA3" d="M11.738 12.712l-.523 2.735.38.265 2.313-1.829.071-1.836zM6.265 12.047l.063 1.836 2.313 1.829.38-.265-.523-2.735z"/>
        <path fill="#B9BBBF" d="M11.785 18.23l.024-.746-.198-.176H8.625l-.19.176.016.746-2.495-1.195.871.722L8.601 19h3.034l1.774-1.243.871-.722z"/>
        <path fill="#464646" d="M11.595 15.712l-.38-.265H9.02l-.38.265-.206 1.772.19-.176h2.986l.198.176z"/>
        <g fill="#505256">
            <path d="M19.547 6.352l.665-3.272-.998-3.04-7.619 5.727 2.93 2.51 4.143 1.227.91-1.083-.395-.288.633-.586-.483-.385.634-.49zM.024 3.08l.673 3.272-.428.32.634.49-.483.385.633.586-.396.288.911 1.083L5.71 8.277l2.93-2.51L1.023.04z"/>
        </g>
        <path fill="#9D9FA3" d="M18.668 9.504l-4.143-1.227 1.252 1.917-1.87 3.69 2.472-.033h3.675zM5.71 8.277L1.568 9.504.19 13.851h3.675l2.463.032-1.869-3.69z"/>
        <path fill="#9EA0A4" d="M11.326 10.394l.269-4.627 1.196-3.297H7.445L8.64 5.767l.27 4.627.102 1.46.008 3.593h2.194l.008-3.593z"/>
        <g>
            <path fill="#F77B00" d="M50.298.04l-7.923 5.925 1.472-3.496zM32.026.04l7.851 5.98-1.4-3.55z"/>
            <path fill="#F87B00" d="M47.45 13.773l-2.108 3.255 4.51 1.25 1.289-4.433zM31.19 13.845l1.282 4.433 4.51-1.25-2.1-3.255z"/>
            <path fill="#F77D00" d="M36.735 8.273l-1.257 1.916 4.47.2-.15-4.85zM45.589 8.273l-3.11-2.79-.104 4.907 4.47-.2z"/>
            <path fill="#F77B00" d="M36.982 17.028l2.696-1.323-2.322-1.828zM42.645 15.705l2.697 1.323-.374-3.15z"/>
            <g fill="#DFC7BA">
                <path d="M45.342 17.028l-2.697-1.323.215 1.772-.024.745zM36.982 17.028l2.505 1.194-.015-.745.206-1.772z"/>
            </g>
            <path fill="#FFF" d="M39.535 12.707l-2.243-.666 1.583-.73zM42.789 12.707l.66-1.395 1.59.73z"/>
            <path fill="#E36700" d="M36.982 17.028l.39-3.255-2.49.072zM44.952 13.773l.39 3.255 2.108-3.183z"/>
            <path fill="#E26600" d="M46.845 10.19l-4.47.2.414 2.317.66-1.395 1.59.73zM37.292 12.041l1.583-.73.66 1.396.414-2.317-4.47-.2z"/>
            <g fill="#F87B00">
                <path d="M35.478 10.19l1.878 3.687-.064-1.836zM45.04 12.041l-.072 1.836 1.877-3.688zM39.949 10.39l-.414 2.317.525 2.734.112-3.6zM42.375 10.39l-.215 1.443.104 3.608.525-2.734z"/>
            </g>
            <path fill="#FF8C00" d="M42.789 12.707l-.525 2.734.381.264 2.323-1.828.072-1.836zM37.292 12.041l.064 1.836 2.322 1.828.382-.264-.525-2.734z"/>
            <path fill="#CDB5A7" d="M42.836 18.222l.024-.745-.199-.177h-2.998l-.191.177.016.745-2.506-1.194.875.721 1.782 1.243h3.046l1.782-1.243.875-.721z"/>
            <path fill="#181818" d="M42.645 15.705l-.381-.264H40.06l-.382.264-.206 1.772.19-.177h3l.198.177z"/>
            <g fill="#8B4402">
                <path d="M50.632 6.35l.668-3.272L50.298.04l-7.653 5.724 2.944 2.51 4.16 1.226.915-1.082-.398-.289.636-.585-.485-.385.636-.489zM31.024 3.078L31.7 6.35l-.43.321.637.49-.485.384.636.585-.398.289.915 1.082 4.16-1.227 2.943-2.509L32.026.04z"/>
            </g>
            <path fill="#FF8D00" d="M49.749 9.5l-4.16-1.227 1.256 1.916-1.877 3.688 2.482-.032h3.69zM36.735 8.273L32.575 9.5l-1.384 4.345h3.69l2.475.032-1.878-3.688z"/>
            <path fill="#FF8C00" d="M42.375 10.39l.27-4.626 1.202-3.295h-5.37l1.201 3.295.27 4.626.104 1.459.008 3.592h2.204l.008-3.592z"/>
        </g>
    </g>
</svg>
