<svg xmlns="http://www.w3.org/2000/svg" width="33" height="14" viewBox="0 0 33 14">
    <g fill="none">
        <g>
            <path fill="#494949" d="M0.137 8.047L0.472 7.901 4.626 6.096 9.116 8.047 7.429 11.53 3.305 12.113 0.204 8.767z" transform="translate(-3 -1) translate(3 1)"/>
            <path fill="#C42370" d="M8.182 5.9c-.741-.893-1.791-1.474-2.942-1.628l-.073-.009c-.36-.042-.722-.042-1.08 0l-.075.01c-1.15.153-2.2.734-2.941 1.627l-.187.31-.311.514-.228.378-.012.03-.003.007.502.297 3.18 1.882.615.363V5.184l-.614.279v-.674l.614-.279.614.28 3.128 1.42-.187-.31z" transform="translate(-3 -1) translate(3 1)"/>
            <path fill="#1C4D6B" d="M9.253 9.166c0 1.498-.712 2.9-1.815 3.802-.434.358-.93.632-1.463.81-.435.144-.89.218-1.349.218C2.071 13.996 0 11.721 0 9.166c0-.377.046-.753.137-1.119l4.49 2.656 4.49-2.656c.09.366.136.742.136 1.12z" transform="translate(-3 -1) translate(3 1)"/>
            <path fill="#000" d="M4.086 4.264L4.626 4.509 4.012 4.789 4.012 4.231zM4.012 5.463L4.626 5.184 4.626 9.683 4.012 9.32z" transform="translate(-3 -1) translate(3 1)"/>
            <path fill="#5B5B5B" d="M4.626 5.184L4.626 9.683 8.929 7.138z" transform="translate(-3 -1) translate(3 1)"/>
            <path fill="#9E9E9E" d="M4.626 0L4.626 5.184 8.929 7.138z" transform="translate(-3 -1) translate(3 1)"/>
            <path fill="#343535" d="M4.626 5.184v4.499l-.614-.363L.33 7.14l-.006-.004.009-.003.012-.031.538-.893 3.13-1.42v.676l.613-.281z" transform="translate(-3 -1) translate(3 1)"/>
            <path fill="#7C7C7C" d="M4.626 5.184L4.626 9.683 4.012 9.32 0.33 7.141 0.324 7.138 0.333 7.134 4.012 5.463z" transform="translate(-3 -1) translate(3 1)"/>
            <path fill="#D9D9D9" d="M4.626 0L4.626 5.184 0.324 7.138z" transform="translate(-3 -1) translate(3 1)"/>
            <path fill="#DDD" d="M.137 8.047l4.49 2.656c-.06.404-.168.8-.322 1.179-.36.868-1.085 1.786-2.49 1.088C.713 12.066 0 10.664 0 9.166c0-.377.046-.753.137-1.119z" transform="translate(-3 -1) translate(3 1)"/>
            <path fill="#BDBDBD" d="M7.437 12.969l-.01.009-.071.056-.006.005-.078.059-.084.061-.086.06-.077.05-.014.01-.081.051-.01.007-.084.05-.092.052-.092.05-.004.001-.092.047c-.03.016-.061.03-.095.046-.033.015-.063.03-.095.043-.064.029-.13.055-.195.08-.065.026-.132.05-.199.071-.026.01-.053.018-.08.026l-.09.027c-.052.015-.103.028-.154.041l-.059.014-.033.008-.082.017-.076.015-.07.012-.077.012-.038.006-.058.007-.032.004-.064.007-.08.008-.06.004-.054.003h-.003l-.061.003-.087.003h-.176c-.03 0-.058 0-.087-.003l-.063-.003h-.003c-.018 0-.035-.002-.053-.003l-.062-.004-.079-.008-.064-.007-.03-.004-.058-.007c-.013 0-.026-.004-.039-.006l-.077-.012-.07-.012-.075-.015-.083-.017-.033-.008-.058-.014-.154-.04-.092-.028-.08-.026c-.067-.022-.133-.045-.199-.07-.066-.026-.132-.052-.193-.08l-.096-.044c-.032-.014-.063-.03-.094-.045-.032-.015-.062-.031-.092-.047l-.004-.002-.092-.049-.092-.052-.083-.05-.01-.007-.08-.051-.015-.01-.076-.05-.086-.06-.085-.062c-.028-.02-.052-.039-.077-.059l-.007-.005-.07-.056-.011-.009c1.404.699 2.13-.22 2.49-1.088.153-.378.26-.773.32-1.177.06.404.168.8.322 1.178.36.867 1.085 1.785 2.49 1.087z" transform="translate(-3 -1) translate(3 1)"/>
            <path fill="#9F9F9F" d="M9.253 9.166c0 1.498-.712 2.9-1.816 3.803-1.404.698-2.13-.22-2.49-1.088-.153-.379-.26-.774-.32-1.178l4.49-2.656c.09.366.136.742.136 1.12z" transform="translate(-3 -1) translate(3 1)"/>
        </g>
        <g>
            <path fill="#6D420E" d="M0.137 8.047L0.472 7.901 4.626 6.096 9.116 8.047 7.429 11.53 3.305 12.113 0.204 8.767z" transform="translate(-3 -1) translate(26 1)"/>
            <path fill="#C42370" d="M8.182 5.9c-.741-.893-1.791-1.474-2.942-1.628l-.073-.009c-.36-.042-.722-.042-1.08 0l-.075.01c-1.15.153-2.2.734-2.941 1.627l-.187.31-.311.514-.228.378-.012.03-.003.007.502.297 3.18 1.882.615.363V5.184l-.614.279v-.674l.614-.279.614.28 3.128 1.42-.187-.31z" transform="translate(-3 -1) translate(26 1)"/>
            <path fill="#1C4D6B" d="M9.253 9.166c0 1.498-.712 2.9-1.815 3.802-.434.358-.93.632-1.463.81-.435.144-.89.218-1.349.218C2.071 13.996 0 11.721 0 9.166c0-.377.046-.753.137-1.119l4.49 2.656 4.49-2.656c.09.366.136.742.136 1.12z" transform="translate(-3 -1) translate(26 1)"/>
            <path fill="#000" d="M4.086 4.264L4.626 4.509 4.012 4.789 4.012 4.231zM4.012 5.463L4.626 5.184 4.626 9.683 4.012 9.32z" transform="translate(-3 -1) translate(26 1)"/>
            <path fill="#A85D00" d="M4.626 5.184L4.626 9.683 8.929 7.138z" transform="translate(-3 -1) translate(26 1)"/>
            <path fill="#D87801" d="M4.626 0L4.626 5.184 8.929 7.138z" transform="translate(-3 -1) translate(26 1)"/>
            <path fill="#343535" d="M4.626 5.184v4.499l-.614-.363L.33 7.14l-.006-.004.009-.003.012-.031.538-.893 3.13-1.42v.676l.613-.281z" transform="translate(-3 -1) translate(26 1)"/>
            <path fill="#FFB003" d="M4.626 5.184L4.626 9.683 4.012 9.32 0.33 7.141 0.324 7.138 0.333 7.134 4.012 5.463z" transform="translate(-3 -1) translate(26 1)"/>
            <path fill="#FF9008" d="M4.626 0L4.626 5.184.324 7.138zM.137 8.047l4.49 2.656c-.06.404-.168.8-.322 1.179-.36.868-1.085 1.786-2.49 1.088C.713 12.066 0 10.664 0 9.166c0-.377.046-.753.137-1.119z" transform="translate(-3 -1) translate(26 1)"/>
            <path fill="#A85D00" d="M7.437 12.969l-.01.009-.071.056-.006.005-.078.059-.084.061-.086.06-.077.05-.014.01-.081.051-.01.007-.084.05-.092.052-.092.05-.004.001-.092.047c-.03.016-.061.03-.095.046-.033.015-.063.03-.095.043-.064.029-.13.055-.195.08-.065.026-.132.05-.199.071-.026.01-.053.018-.08.026l-.09.027c-.052.015-.103.028-.154.041l-.059.014-.033.008-.082.017-.076.015-.07.012-.077.012-.038.006-.058.007-.032.004-.064.007-.08.008-.06.004-.054.003h-.003l-.061.003-.087.003h-.176c-.03 0-.058 0-.087-.003l-.063-.003h-.003c-.018 0-.035-.002-.053-.003l-.062-.004-.079-.008-.064-.007-.03-.004-.058-.007c-.013 0-.026-.004-.039-.006l-.077-.012-.07-.012-.075-.015-.083-.017-.033-.008-.058-.014-.154-.04-.092-.028-.08-.026c-.067-.022-.133-.045-.199-.07-.066-.026-.132-.052-.193-.08l-.096-.044c-.032-.014-.063-.03-.094-.045-.032-.015-.062-.031-.092-.047l-.004-.002-.092-.049-.092-.052-.083-.05-.01-.007-.08-.051-.015-.01-.076-.05-.086-.06-.085-.062c-.028-.02-.052-.039-.077-.059l-.007-.005-.07-.056-.011-.009c1.404.699 2.13-.22 2.49-1.088.153-.378.26-.773.32-1.177.06.404.168.8.322 1.178.36.867 1.085 1.785 2.49 1.087z" transform="translate(-3 -1) translate(26 1)"/>
            <path fill="#D87801" d="M9.253 9.166c0 1.498-.712 2.9-1.816 3.803-1.404.698-2.13-.22-2.49-1.088-.153-.379-.26-.774-.32-1.178l4.49-2.656c.09.366.136.742.136 1.12z" transform="translate(-3 -1) translate(26 1)"/>
        </g>
    </g>
</svg>
