<svg xmlns="http://www.w3.org/2000/svg" width="51" height="20" viewBox="0 0 51 20">
    <g fill="none" fill-rule="evenodd">
        <path d="M-1-1h22v22H-1z"/>
        <path fill="#9EA1AA" d="M9.972 10.49c-.054.055-.097.096-.138.139l-6.473 6.62c-.033.033-.067.066-.093.105a.401.401 0 0 0 .072.527c.147.131.36.14.517.014.057-.046.107-.1.159-.154l6.471-6.62c.04-.042.077-.088.12-.137l-.635-.493m7.121-5.253a1.695 1.695 0 0 0 .002-2.402 1.72 1.72 0 0 0-2.429.002 1.695 1.695 0 0 0 .018 2.416c.672.66 1.742.652 2.409-.016M1.968 16.677c-.017-.362-.04-.796-.058-1.23-.02-.44.197-.659.644-.65.436.008.872.019 1.33.029l-.062-1.292c-.023-.494.18-.688.681-.694.423-.006.846-.042 1.288-.066-.016-.331-.024-.744-.06-1.155-.026-.286.067-.496.268-.698.782-.783 1.55-1.58 2.329-2.368.092-.094.114-.165.063-.293-.989-2.493-.314-5.154 1.742-6.893 2.089-1.767 5.322-1.828 7.49-.141 2.56 1.992 3.127 5.452 1.336 8.139-1.504 2.255-4.45 3.21-7.035 2.271-.178-.064-.28-.039-.41.095-2.52 2.585-5.047 5.163-7.57 7.747a.826.826 0 0 1-.543.262c-.816.078-1.632.17-2.448.254-.416.043-.64-.133-.693-.54-.085-.671-.17-1.342-.252-2.013-.054-.444.173-.681.617-.691.443-.01.885-.047 1.343-.073"/>
        <g>
            <path d="M30-1h22v22H30z"/>
            <path fill="#FF9008" d="M40.972 10.49c-.054.055-.097.096-.138.139l-6.473 6.62c-.033.033-.067.066-.093.105a.401.401 0 0 0 .072.527c.147.131.36.14.517.014.057-.046.107-.1.159-.154l6.471-6.62c.04-.042.077-.088.12-.137l-.635-.493m7.121-5.253a1.695 1.695 0 0 0 .002-2.402 1.72 1.72 0 0 0-2.429.002 1.695 1.695 0 0 0 .018 2.416c.672.66 1.742.652 2.409-.016M32.968 16.677c-.017-.362-.04-.796-.058-1.23-.02-.44.197-.659.644-.65.436.008.872.019 1.33.029l-.062-1.292c-.023-.494.18-.688.681-.694.423-.006.846-.042 1.288-.066-.016-.331-.024-.744-.06-1.155-.026-.286.067-.496.268-.698.782-.783 1.55-1.58 2.329-2.368.092-.094.114-.165.063-.293-.989-2.493-.314-5.154 1.742-6.893 2.089-1.767 5.322-1.828 7.49-.141 2.56 1.992 3.127 5.452 1.336 8.139-1.504 2.255-4.45 3.21-7.035 2.271-.178-.064-.28-.039-.41.095-2.52 2.585-5.047 5.163-7.57 7.747a.826.826 0 0 1-.543.262c-.816.078-1.632.17-2.448.254-.416.043-.64-.133-.693-.54-.085-.671-.17-1.342-.252-2.013-.054-.444.173-.681.617-.691.443-.01.885-.047 1.343-.073"/>
        </g>
    </g>
</svg>
