<svg xmlns="http://www.w3.org/2000/svg" width="45" height="20" viewBox="0 0 45 20">
    <g fill="none" fill-rule="evenodd">
        <path d="M-4-1h22v22H-4z"/>
        <path fill="#9EA1AA" fill-rule="nonzero" d="M5.583 11.254l7.296 4.225a.396.396 0 0 1 .105.588l-.065.063-4.928 3.79a.385.385 0 0 1-.589-.157l-.02-.073-1.799-8.436zM5.363.515c.287-.221.69.037.615.394L4.04 10l1.938 9.088c.076.357-.328.615-.615.393l-4.96-3.818A1.036 1.036 0 0 1 0 14.841V5.156c0-.32.148-.628.404-.823zm8.554 5.464l.007.073v7.893a.39.39 0 0 1-.517.37l-.066-.03L5.937 10l7.404-4.288a.388.388 0 0 1 .576.266zM7.927.04l.064.041 4.924 3.79c.195.154.2.439.028.599l-.073.053-7.292 4.225L7.377.312a.386.386 0 0 1 .55-.272z"/>
        <g>
            <path d="M27-1h22v22H27z"/>
            <path fill="#FF9008" fill-rule="nonzero" d="M36.583 11.254l7.296 4.225a.396.396 0 0 1 .105.588l-.065.063-4.928 3.79a.385.385 0 0 1-.589-.157l-.02-.073-1.799-8.436zM36.363.515c.287-.221.69.037.615.394L35.04 10l1.938 9.088c.076.357-.328.615-.615.393l-4.96-3.818a1.036 1.036 0 0 1-.403-.823V5.156c0-.32.148-.628.404-.823zm8.554 5.464l.007.073v7.893a.39.39 0 0 1-.517.37l-.066-.03L36.937 10l7.404-4.288a.388.388 0 0 1 .576.266zM38.927.04l.064.041 4.924 3.79c.195.154.2.439.028.599l-.073.053-7.292 4.225L38.377.312a.386.386 0 0 1 .55-.272z"/>
        </g>
    </g>
</svg>
