<svg xmlns="http://www.w3.org/2000/svg" width="45" height="21" viewBox="0 0 45 21">
    <g fill="none" fill-rule="evenodd">
        <path d="M-4-1h22v22H-4z"/>
        <path fill="#9EA1AA" d="M9.093 6.212c.22-1.426.225-2.786-1.088-3.333-.759-.317-1.909-.24-2.65.142-1.205.62-1.061 1.927-.86 3.191h4.598zM2.662 8.784c0 2.08-.02 4.008.02 5.935.006.279.23.68.463.807 2.014 1.093 4.026 2.455 6.284.51.213-.185.534-.233.766-.4.258-.185.667-.43.673-.658.052-2.058.03-4.119.03-6.194H2.662zM.006 6.352l1.824-.144c.849-4.87 2.198-6.398 5.4-6.19 2.755.18 4.137 2.064 4.425 6.152l1.932.204c0 3.415.02 6.832-.037 10.247-.005.296-.477.684-.815.857-1.72.879-3.453 1.737-5.217 2.516-.416.184-1.034.192-1.447.01a78.422 78.422 0 0 1-5.213-2.522c-.376-.2-.807-.757-.815-1.157-.065-3.274-.037-6.55-.037-9.973z"/>
        <g>
            <path d="M27-1h22v22H27z"/>
            <path fill="#FF9008" d="M40.093 6.212c.22-1.426.225-2.786-1.088-3.333-.759-.317-1.909-.24-2.65.142-1.205.62-1.061 1.927-.86 3.191h4.598zm-6.431 2.572c0 2.08-.02 4.008.02 5.935.006.279.23.68.463.807 2.014 1.093 4.026 2.455 6.284.51.213-.185.534-.233.766-.4.258-.185.667-.43.673-.658.052-2.058.03-4.119.03-6.194h-8.236zm-2.656-2.432l1.824-.144c.849-4.87 2.198-6.398 5.4-6.19 2.755.18 4.137 2.064 4.425 6.152l1.932.204c0 3.415.02 6.832-.037 10.247-.005.296-.477.684-.815.857-1.72.879-3.453 1.737-5.217 2.516-.416.184-1.034.192-1.447.01a78.422 78.422 0 0 1-5.213-2.522c-.376-.2-.807-.757-.815-1.157-.065-3.274-.037-6.55-.037-9.973z"/>
        </g>
    </g>
</svg>
