<svg xmlns="http://www.w3.org/2000/svg" width="43" height="3" viewBox="0 0 43 3">
    <g fill="none" fill-rule="evenodd">
        <path d="M-5-10h53v22H-5z"/>
        <path d="M-2-7h16V9H-2z"/>
        <path fill="#9EA1AA" d="M1.481 0C.667 0 0 .667 0 1.481c0 .815.667 1.482 1.481 1.482.815 0 1.482-.667 1.482-1.482C2.963.667 2.296 0 1.481 0zm8.89 0c-.815 0-1.482.667-1.482 1.481 0 .815.667 1.482 1.481 1.482.815 0 1.482-.667 1.482-1.482C11.852.667 11.185 0 10.37 0zM5.925 0C5.11 0 4.444.667 4.444 1.481c0 .815.667 1.482 1.482 1.482s1.481-.667 1.481-1.482C7.407.667 6.741 0 5.926 0z"/>
        <g>
            <path d="M29-7h16V9H29z"/>
            <path fill="#FF9008" d="M32.481 0C31.667 0 31 .667 31 1.481c0 .815.667 1.482 1.481 1.482.815 0 1.482-.667 1.482-1.482C33.963.667 33.296 0 32.481 0zm8.89 0c-.815 0-1.482.667-1.482 1.481 0 .815.667 1.482 1.481 1.482.815 0 1.482-.667 1.482-1.482C42.852.667 42.185 0 41.37 0zm-4.445 0c-.815 0-1.482.667-1.482 1.481 0 .815.667 1.482 1.482 1.482s1.481-.667 1.481-1.482C38.407.667 37.741 0 36.926 0z"/>
        </g>
    </g>
</svg>
