<svg xmlns="http://www.w3.org/2000/svg" width="26" height="16" viewBox="0 0 26 16">
    <path fill="#9EA1AA" fill-rule="evenodd" d="M5.323 3.114c4.24-4.152 11.114-4.152 15.354 0l.51.5a.524.524 0 0 1 0 .75l-1.745 1.71a.276.276 0 0 1-.384 0l-.702-.688c-2.958-2.896-7.754-2.896-10.712 0l-.752.737a.276.276 0 0 1-.384 0l-1.745-1.71a.524.524 0 0 1 0-.751l.56-.548zm18.964 3.534l1.554 1.521a.524.524 0 0 1 0 .752l-7.005 6.859a.551.551 0 0 1-.768 0l-4.972-4.868a.138.138 0 0 0-.192 0L7.932 15.78a.551.551 0 0 1-.767 0L.159 8.92a.524.524 0 0 1 0-.75l1.554-1.522a.551.551 0 0 1 .767 0l4.972 4.868a.138.138 0 0 0 .192 0l4.972-4.868a.551.551 0 0 1 .768 0l4.972 4.868a.138.138 0 0 0 .192 0l4.972-4.868a.551.551 0 0 1 .767 0z"/>
</svg>
