<svg xmlns="http://www.w3.org/2000/svg" width="47" height="16" viewBox="0 0 47 16">
    <g fill="none" fill-rule="evenodd">
        <path d="M-3-3h53v22H-3z"/>
        <path fill="#9EA1AA" d="M2.341 2.341c3.122-3.121 8.196-3.121 11.318 0 3.121 3.122 3.121 8.196 0 11.318-3.122 3.121-8.196 3.121-11.318 0-3.121-3.122-3.121-8.196 0-11.318zm7.326 2.992H6.333a1 1 0 0 0-1 1v3.334a1 1 0 0 0 1 1h3.334a1 1 0 0 0 1-1V6.333a1 1 0 0 0-1-1z"/>
        <path fill="#FF9008" d="M33.341 2.341c3.122-3.121 8.196-3.121 11.318 0 3.121 3.122 3.121 8.196 0 11.318-3.122 3.121-8.196 3.121-11.318 0-3.121-3.122-3.121-8.196 0-11.318zm7.326 2.992h-3.334a1 1 0 0 0-1 1v3.334a1 1 0 0 0 1 1h3.334a1 1 0 0 0 1-1V6.333a1 1 0 0 0-1-1z"/>
    </g>
</svg>
