<svg xmlns="http://www.w3.org/2000/svg" width="50" height="11" viewBox="0 0 50 11">
    <g fill="none" fill-rule="evenodd">
        <path d="M-2-6h53v22H-2z"/>
        <path fill="#9EA1AA" d="M3.89 2.15c3.098-2.866 8.122-2.866 11.22 0l.373.344a.348.348 0 0 1 0 .519l-1.275 1.18a.21.21 0 0 1-.28 0l-.514-.475c-2.162-1.999-5.666-1.999-7.828 0l-.55.508a.21.21 0 0 1-.28 0L3.48 3.046a.348.348 0 0 1 0-.518l.41-.379zm13.858 2.44l1.136 1.05a.348.348 0 0 1 0 .518l-5.12 4.735a.42.42 0 0 1-.56 0L9.57 7.533a.105.105 0 0 0-.14 0l-3.633 3.36a.42.42 0 0 1-.561 0L.116 6.158a.348.348 0 0 1 0-.519l1.136-1.05a.42.42 0 0 1 .56 0l3.634 3.36a.105.105 0 0 0 .14 0L9.22 4.59a.42.42 0 0 1 .561 0l3.634 3.36a.105.105 0 0 0 .14 0l3.633-3.36a.42.42 0 0 1 .561 0z"/>
        <path fill="#FF9008" d="M34.89 2.15c3.098-2.866 8.122-2.866 11.22 0l.373.344a.348.348 0 0 1 0 .519l-1.275 1.18a.21.21 0 0 1-.28 0l-.514-.475c-2.162-1.999-5.666-1.999-7.828 0l-.55.508a.21.21 0 0 1-.28 0l-1.276-1.18a.348.348 0 0 1 0-.518l.41-.379zm13.858 2.44l1.136 1.05a.348.348 0 0 1 0 .518l-5.12 4.735a.42.42 0 0 1-.56 0l-3.634-3.36a.105.105 0 0 0-.14 0l-3.633 3.36a.42.42 0 0 1-.561 0l-5.12-4.735a.348.348 0 0 1 0-.519l1.136-1.05a.42.42 0 0 1 .56 0l3.634 3.36a.105.105 0 0 0 .14 0l3.633-3.36a.42.42 0 0 1 .561 0l3.634 3.36a.105.105 0 0 0 .14 0l3.633-3.36a.42.42 0 0 1 .561 0z"/>
    </g>
</svg>
