<?xml version="1.0" encoding="UTF-8"?>
<svg width="21px" height="21px" viewBox="0 0 21 21" version="1.1" xmlns="http://www.w3.org/2000/svg" xmlns:xlink="http://www.w3.org/1999/xlink">
    <!-- Generator: Sketch 48 (47235) - http://www.bohemiancoding.com/sketch -->
    <title>cn</title>
    <desc>Created with Sketch.</desc>
    <defs></defs>
    <g id="Symbols" stroke="none" stroke-width="1" fill="none" fill-rule="evenodd">
        <g id="cn" fill-rule="nonzero">
            <g id="Asset-30">
                <path d="M0.310457471,7.97610224 C1.70196747,2.34877194 7.39508845,-1.08303283 13.0222762,0.310107624 C18.649464,1.70324808 22.0827769,7.39119595 20.6902035,13.0217167 C19.2976301,18.6522374 13.606636,22.0829787 7.97625789,20.6898382 C2.34587982,19.2966978 -1.08317941,13.6060912 0.310457471,7.97610224" id="Shape" fill="#EF3827"></path>
                <path d="M10.6452643,9.52864109 L10.1764568,10.0967319 L9.49381631,9.82313123 L9.88338869,10.4467574 L9.41458125,11.0133197 L10.1256651,10.8314288 L10.518285,11.4545455 L10.5645055,10.7183201 L11.2755893,10.5364291 L10.5944726,10.2643569 L10.6452643,9.52864109 Z M13.3636364,7.98231312 L12.6261408,7.98231312 L12.4021494,7.28073368 L12.1740946,7.98231312 L11.4401545,7.98231312 L12.0334016,8.41487736 L11.8053468,9.11492831 L12.4001177,8.68236407 L12.9938727,9.11492831 L12.7673417,8.41334886 L13.3636364,7.98231312 Z M12.1674917,5.28197103 L12.2792334,6.0100444 L12.6159825,5.35330082 L13.3372247,5.47252347 L12.8186414,4.950797 L13.1533587,4.29456292 L12.4991615,4.62828445 L11.9826099,4.10706747 L12.0943516,4.83514084 L11.4401545,5.16784337 L12.1674917,5.28197103 Z M10.6488197,1.90909091 L10.1800123,2.47718175 L9.49889548,2.20510954 L9.88999162,2.82669772 L9.42118417,3.39376956 L10.1322681,3.2113691 L10.5248879,3.83448577 L10.5726321,3.09826043 L11.283716,2.91687896 L10.6025992,2.64429726 L10.6488197,1.90909091 Z M5.52190493,5.14950142 L4.8331694,3.02132615 L4.14392596,5.14950142 L1.90909091,5.14950142 L3.7162598,6.46553607 L3.02650843,8.59574933 L4.8331694,7.28073368 L6.63729079,8.59778732 L5.94804734,6.46553607 L7.75369248,5.14848242 L5.52190493,5.14950142 Z" id="Shape" fill="#FFD203"></path>
            </g>
        </g>
    </g>
</svg>