<?xml version="1.0" encoding="UTF-8"?>
<svg width="30px" height="21px" viewBox="0 0 30 21" version="1.1" xmlns="http://www.w3.org/2000/svg" xmlns:xlink="http://www.w3.org/1999/xlink">
    <!-- Generator: Sketch 48.2 (47327) - http://www.bohemiancoding.com/sketch -->
    <title>flags/china</title>
    <desc>Created with Sketch.</desc>
    <defs></defs>
    <g id="Symbols" stroke="none" stroke-width="1" fill="none" fill-rule="evenodd">
        <g id="flags/china">
            <rect id="Rectangle-Copy" fill="#D92412" x="0" y="0" width="30" height="21"></rect>
            <g id="Page-1" transform="translate(4.000000, 2.000000)" fill="#FFD203">
                <path d="M3.46912381,3.05508289 L2.80711862,1.04856048 L2.14364979,3.05508289 L0,3.05508289 L1.73456191,4.2967057 L1.07265429,6.30466924 L2.80711862,5.06309446 L4.54007052,6.30466924 L3.8782117,4.2967057 L5.61267603,3.05508289 L3.46912381,3.05508289 Z M8.39374182,0 L7.94323287,0.53556903 L7.2889362,0.279145361 L7.66436032,0.865201704 L7.21390016,1.40009821 L7.89722573,1.2281243 L8.27421107,1.8156698 L8.32007185,1.12167341 L9.00354379,0.95042006 L8.34924711,0.694044429 L8.39374182,0 Z M9.85084603,3.18175753 L9.95798461,3.86821205 L10.2814494,3.24891382 L10.9770696,3.35992826 L10.4791387,2.86802524 L10.8007984,2.24944757 L10.1710421,2.5639965 L9.67462356,2.07218954 L9.78200608,2.75787547 L9.15371344,3.07170383 L9.85084603,3.18175753 Z M11,5.72615477 L10.293744,5.7254342 L10.0776617,5.0646797 L9.85850575,5.72615477 L9.15371344,5.7254342 L9.72365556,6.13346392 L9.50459717,6.79431451 L10.0760517,6.38628479 L10.6460914,6.7950831 L10.4284967,6.13346392 L11,5.72615477 Z M8.38910696,7.18423412 L7.93859801,7.71989923 L7.28288648,7.46189033 L7.65821303,8.04957994 L7.20775287,8.58361177 L7.89263966,8.41231039 L8.26957621,9 L8.31392456,8.30609968 L8.99886013,8.13470222 L8.34309982,7.87755799 L8.38910696,7.18423412 Z" id="Fill-7-Copy"></path>
            </g>
        </g>
    </g>
</svg>