<?xml version="1.0" encoding="UTF-8"?>
<svg width="21px" height="21px" viewBox="0 0 21 21" version="1.1" xmlns="http://www.w3.org/2000/svg" xmlns:xlink="http://www.w3.org/1999/xlink" style="background: #0077E2;">
    <!-- Generator: Sketch 48 (47235) - http://www.bohemiancoding.com/sketch -->
    <title>kr</title>
    <desc>Created with Sketch.</desc>
    <defs></defs>
    <g id="Symbols" stroke="none" stroke-width="1" fill="none" fill-rule="evenodd">
        <g id="kr" fill-rule="nonzero">
            <g id="Asset-40">
                <path d="M0.310457018,7.97588854 C1.70196499,2.348709 7.39454593,-1.08300381 13.0222572,0.310099315 C18.6499684,1.70320244 22.0827447,7.39099791 20.6901733,13.0213678 C19.2976019,18.6517376 13.6066161,22.082387 7.97624624,20.6892839 C2.34587639,19.2961807 -1.08317783,13.6057267 0.310457018,7.97588854" id="Shape" fill="#FFFFFF"></path>
                <g id="Group" transform="translate(7.000000, 7.000000)">
                    <path d="M6.7853683,3.08891351 C6.91113328,4.45835645 6.19949569,5.76869245 4.98234943,6.40880633 C3.76520318,7.0489202 2.28229672,6.89272496 1.22522876,6.013067 C0.168160802,5.13340905 -0.254851762,3.7035598 0.153475891,2.3903731 C0.561803544,1.0771864 1.72104071,0.139328361 3.09054175,0.0141977152 C4.95925284,-0.155794972 6.61233798,1.22035581 6.7840084,3.08891351" id="Shape" fill="#EF3827"></path>
                    <path d="M0.49529398,1.66672621 C0.156189564,2.18577444 0.127023829,2.84840766 0.419213521,3.39524223 C0.711403213,3.94207681 1.27846887,4.28612617 1.89843618,4.29271436 C2.51840349,4.29930254 3.09265245,3.96738153 3.3963969,3.42687974 C3.89165347,2.64815484 4.91850461,2.40808461 5.70767594,2.88651973 C6.49684726,3.36495485 6.75889322,4.38641894 6.29749981,5.18567339 C5.32576938,6.78878451 3.23844789,7.30061968 1.63533677,6.32888925 C0.0322256465,5.35715882 -0.479609532,3.26983733 0.492120899,1.66672621" id="Shape" fill="#223C72"></path>
                </g>
                <path d="M3.96123181,14.7768592 L4.97785755,16.2835319 L5.48669231,15.9422212 L4.4690228,14.4355485 L3.96123181,14.7768592 Z M3.80205786,14.5388811 L4.31089261,14.1960047 L3.2932231,12.6877663 L2.78438835,13.029077 L3.80205786,14.5388811 Z M2.00156565,13.5582652 L4.19764426,16.8121982 L4.70439149,16.4708875 L2.50779099,13.2164326 L2.00156565,13.5582652 Z M3.56721105,12.5030202 L5.76276778,15.7574751 L6.26899313,15.4145987 L4.07291451,12.1591001 L3.56721105,12.5030202 Z M17.0677713,8.31387496 L16.0521894,6.80041774 L15.5443984,7.14485973 L16.5610241,8.65309813 L17.0677713,8.31387496 Z M15.8898841,6.5666147 L14.8743021,5.05472312 L14.3665111,5.39759946 L15.3831369,6.9047941 L15.8898841,6.5666147 Z M18.1271914,7.60046254 L18.6339386,7.2575862 L17.6162691,5.74986968 L17.1100438,6.09013661 L18.1271914,7.60046254 Z M17.4555295,5.50771652 L16.43786,4 L15.930069,4.34287634 L16.9477385,5.85111475 L17.4555295,5.50771652 Z M17.850594,7.78364305 L15.6586905,4.52814438 L15.1482901,4.86945508 L17.3438468,8.12390999 L17.850594,7.78364305 Z M15.930069,16.4708875 L16.43786,16.8121982 L17.4555295,15.3039598 L16.9466948,14.9616053 L15.930069,16.4708875 Z M17.1100438,14.7236272 L17.6178348,15.0649379 L18.6355043,13.5582652 L18.1266695,13.2164326 L17.1100438,14.7236272 Z M16.1664815,14.4355485 L15.1498557,15.9422212 L15.6560811,16.2861413 L16.6737506,14.7779029 L16.1664815,14.4355485 Z M17.8521597,13.0311646 L17.3454125,12.6882882 L16.3272211,14.1960047 L16.8339683,14.5388811 L17.8521597,13.0311646 Z M15.3841807,13.9074041 L14.3665111,15.4156425 L14.8753459,15.7585188 L15.8909279,14.2502804 L15.3841807,13.9074041 Z M16.0532331,14.0117805 L17.0688151,12.5035421 L16.5620679,12.159622 L15.5443984,13.6673385 L16.0532331,14.0117805 Z M3.56512352,8.31387496 L4.07291451,8.65570754 L6.26742748,5.40020887 L5.76120214,5.05837629 L3.56512352,8.31387496 Z M3.28956993,8.12808504 L5.48669231,4.86945508 L4.97785755,4.52814438 L2.78230082,7.78416494 L3.28956993,8.12808504 Z M4.70386961,4.34287634 L4.19712238,4 L2,7.25549867 L2.50779099,7.59837501 L4.70386961,4.34287634 Z" id="Shape" fill="#3E3E3F"></path>
            </g>
        </g>
    </g>
</svg>