<?xml version="1.0" encoding="UTF-8"?>
<svg width="30px" height="21px" viewBox="0 0 30 21" version="1.1" xmlns="http://www.w3.org/2000/svg" xmlns:xlink="http://www.w3.org/1999/xlink" style="background: #D8D8D8;">
    <!-- Generator: Sketch 48.2 (47327) - http://www.bohemiancoding.com/sketch -->
    <title>flags/korea</title>
    <desc>Created with Sketch.</desc>
    <defs>
        <polygon id="path-1" points="0 0.063175 4.014384 0.063175 4.014384 4.245175 0 4.245175"></polygon>
        <polygon id="path-3" points="0.093216 0.088625 2.168976 0.088625 2.168976 2.25 0.093216 2.25"></polygon>
        <polygon id="path-5" points="0.12228 0.057875 2.19816 0.057875 2.19816 2.219875 0.12228 2.219875"></polygon>
    </defs>
    <g id="Symbols" stroke="none" stroke-width="1" fill="none" fill-rule="evenodd">
        <g id="flags/korea">
            <rect id="Rectangle-Copy-2" fill="#FFFFFF" x="0" y="0" width="30" height="21"></rect>
            <g id="korea" transform="translate(6.000000, 3.000000)">
                <g id="Page-1">
                    <path d="M9.831096,3.551275 C7.664616,3.153275 5.598456,4.660275 5.216136,6.917025 C5.025576,8.045525 5.748456,9.121025 6.831816,9.320025 C7.914936,9.519025 8.948136,8.765775 9.138696,7.637275 C9.141336,7.627025 9.142056,7.615775 9.143496,7.605275 C9.142056,7.615775 9.141336,7.627025 9.138696,7.637275 C9.330216,6.508775 10.363656,5.755775 11.446056,5.954525 C12.529176,6.153275 13.252296,7.229525 13.061736,8.358025 C13.443816,6.101025 11.997336,3.949275 9.831096,3.551275" id="Fill-1" fill="#C2262D"></path>
                    <path d="M13.061736,8.357925 C13.252296,7.229675 12.529176,6.153425 11.446296,5.954675 C10.362696,5.755925 9.330216,6.509175 9.138696,7.637175 C8.948136,8.765925 7.914936,9.519175 6.831816,9.320175 C5.748456,9.121175 5.025576,8.045425 5.216376,6.916925 C4.834536,9.173675 6.280536,11.325675 8.447256,11.723425 C10.614216,12.121175 12.679656,10.614175 13.061736,8.357925" id="Fill-3" fill="#005DAB"></path>
                    <polygon id="Fill-5" fill="#000000" points="0.6708 4.1819 4.08264 0.6274 3.48048 -0.0001 0.0684 3.55415"></polygon>
                    <polygon id="Fill-7" fill="#000000" points="1.5858 5.134775 4.99788 1.580525 4.39572 0.953025 0.98388 4.507775"></polygon>
                    <polygon id="Fill-9" fill="#000000" points="2.5008 6.088375 5.91288 2.533875 5.31096 1.906625 1.89864 5.461125"></polygon>
                    <g id="Group-13" transform="translate(0.000000, 11.024650)">
                        <mask id="mask-2" fill="white">
                            <use xlink:href="#path-1"></use>
                        </mask>
                        <g id="Clip-12"></g>
                        <polygon id="Fill-11" fill="#000000" mask="url(#mask-2)" points="4.014384 3.617925 0.602064 0.063175 -9.6e-05 0.690425 3.412224 4.245175"></polygon>
                    </g>
                    <polygon id="Fill-14" fill="#000000" points="5.844624 12.73585 2.432544 9.1816 1.830624 9.8086 5.242464 13.3631"></polygon>
                    <polygon id="Fill-16" fill="#000000" points="2.994624 11.67335 1.521504 10.1386 0.919584 10.76635 2.392704 12.30135"></polygon>
                    <polygon id="Fill-18" fill="#000000" points="4.943688 13.70385 3.470808 12.16985 2.868648 12.79685 4.341528 14.33135"></polygon>
                    <g id="Group-22" transform="translate(14.160000, 13.024650)">
                        <mask id="mask-4" fill="white">
                            <use xlink:href="#path-3"></use>
                        </mask>
                        <g id="Clip-21"></g>
                        <polygon id="Fill-20" fill="#000000" mask="url(#mask-4)" points="1.566816 0.088625 0.093216 1.622875 0.695856 2.250125 2.168976 0.716125"></polygon>
                    </g>
                    <polygon id="Fill-23" fill="#000000" points="14.811336 12.16015 13.338456 13.69415 13.940856 14.3214 15.413496 12.78715"></polygon>
                    <polygon id="Fill-25" fill="#000000" points="13.896096 11.20655 12.423216 12.7408 13.025376 13.3683 14.498256 11.8338"></polygon>
                    <g id="Group-29" transform="translate(16.080000, 11.024650)">
                        <mask id="mask-6" fill="white">
                            <use xlink:href="#path-5"></use>
                        </mask>
                        <g id="Clip-28"></g>
                        <polygon id="Fill-27" fill="#000000" mask="url(#mask-6)" points="1.59588 0.057875 0.12228 1.592375 0.72468 2.219875 2.19828 0.685375"></polygon>
                    </g>
                    <polygon id="Fill-30" fill="#000000" points="16.76088 10.1294 15.28728 11.66415 15.8892 12.29115 17.3628 10.75665"></polygon>
                    <polygon id="Fill-32" fill="#000000" points="15.8454 9.176025 14.3718 10.711025 14.97492 11.338025 16.4478 9.803775"></polygon>
                    <polygon id="Fill-34" fill="#000000" points="17.307672 4.507825 13.895352 0.953075 13.293912 1.580575 16.705512 5.134825"></polygon>
                    <polygon id="Fill-36" fill="#000000" points="14.449224 3.436525 12.979944 1.906775 12.378024 2.534025 13.846824 4.063775"></polygon>
                    <polygon id="Fill-38" fill="#000000" points="16.392192 5.461175 14.923392 3.930925 14.321952 4.558675 15.790272 6.088425"></polygon>
                    <polygon id="Fill-40" fill="#000000" points="16.279704 1.530025 14.810664 2.5e-05 14.208504 0.627525 15.677544 2.157275"></polygon>
                    <polygon id="Fill-42" fill="#000000" points="18.222912 3.55395 16.754832 2.02445 16.151712 2.65195 17.620752 4.1812"></polygon>
                </g>
            </g>
        </g>
    </g>
</svg>