<?xml version="1.0" encoding="UTF-8"?>
<svg width="28px" height="28px" viewBox="0 0 28 28" version="1.1" xmlns="http://www.w3.org/2000/svg" xmlns:xlink="http://www.w3.org/1999/xlink">
    <!-- Generator: Sketch 49.1 (51147) - http://www.bohemiancoding.com/sketch -->
    <title>link</title>
    <desc>Created with Sketch.</desc>
    <defs></defs>
    <g id="link" stroke="none" stroke-width="1" fill="none" fill-rule="evenodd">
        <rect id="Rectangle" x="0" y="0" width="28" height="28"></rect>
        <g transform="translate(3.000000, 2.000000)">
            <g id="Group">
                <g>
                    <polyline id="Shape" stroke="#E7E7E9" stroke-width="0.677664" points="10.5374332 24.9806801 10.5611408 12.5 0.0673796791 6.32019578 10.5611408 12.48712 20.9613191 6.33178774"></polyline>
                    <polygon id="Shape" fill="#FFFFFF" points="0.0311942959 18.7892839 0.00748663102 6.32019578 10.4787879 0.00643997939 20.9488414 6.24678001 20.9962567 18.8253478 10.5024955 24.992272"></polygon>
                    <polygon id="Shape-Copy" stroke="#3FA0F1" stroke-width="0.677664" points="0.0311942959 18.7892839 0.00748663102 6.32019578 10.4787879 0.00643997939 20.9488414 6.24678001 20.9962567 18.8253478 10.5024955 24.992272"></polygon>
                </g>
                <polygon id="Shape" fill="#000000" fill-rule="nonzero" points="1.93529412 10.309119 1.18039216 9.38948995 1.18039216 9.0945389 1.93654189 9.07264297 1.93654189 9.42812983 1.47736185 9.42297785 1.93654189 9.96136012 1.93654189 10.309119"></polygon>
                <polyline id="Shape" fill="#000000" fill-rule="nonzero" points="3.08324421 10.9878928 3.83939394 10.9621329 3.83939394 10.6671819 3.08324421 9.7501288 3.08324421 10.1056157 3.54242424 10.6439979 3.08324421 10.637558 3.08324421 10.9878928"></polyline>
                <path d="M2.14991087,9.6239052 L2.81871658,10.0193199 C2.86114082,10.0450799 2.89483066,10.1146316 2.89483066,10.1790314 L2.89483066,10.3374549 C2.89483066,10.4005667 2.86114082,10.4314786 2.81871658,10.4070067 L2.14991087,10.011592 C2.10748663,9.98583205 2.07379679,9.91628027 2.07379679,9.85188047 L2.07379679,9.69345698 C2.07379679,9.62905719 2.10998217,9.59943328 2.14991087,9.6239052" id="Shape" fill="#000000" fill-rule="nonzero"></path>
                <g transform="translate(1.172906, 10.806285)" fill="#6F9DCE" fill-rule="nonzero" id="Shape">
                    <path d="M0.112299465,0.0193199382 L6.13404635,3.58578053 C6.19269162,3.62184441 6.24010695,3.70814013 6.24010695,3.7815559 L6.24010695,4.07521896 C6.24010695,4.14863472 6.19269162,4.17310665 6.13404635,4.13575477 L0.112299465,0.569294178 C0.0536541889,0.533230294 0.00623885918,0.44693457 0.00623885918,0.373518805 L0.00623885918,0.0798557445 C0.00623885918,0.00772797527 0.0536541889,-0.0167439464 0.112299465,0.0193199382 Z"></path>
                    <path d="M0.112299465,0.923493045 L8.5597148,5.91834106 C8.61836007,5.95440495 8.6657754,6.04070067 8.6657754,6.11411643 L8.6657754,6.4077795 C8.6657754,6.48119526 8.61836007,6.50566718 8.5597148,6.4683153 L0.112299465,1.47346728 C0.0536541889,1.4374034 0.00623885918,1.35110768 0.00623885918,1.27769191 L0.00623885918,0.984028851 C0.00623885918,0.923493045 0.0536541889,0.899021123 0.112299465,0.923493045"></path>
                    <path d="M0.112299465,1.79031427 L8.5597148,6.78516229 C8.61836007,6.82122617 8.6657754,6.9075219 8.6657754,6.98093766 L8.6657754,7.27460072 C8.6657754,7.34801649 8.61836007,7.37248841 8.5597148,7.33513653 L0.112299465,2.34028851 C0.0536541889,2.30422463 0.00623885918,2.2179289 0.00623885918,2.14451314 L0.00623885918,1.85085008 C0.00623885918,1.79031427 0.0536541889,1.75425039 0.112299465,1.79031427"></path>
                    <path d="M0.112299465,2.65842349 L3.76827094,4.81968058 C3.82691622,4.85574446 3.87433155,4.94204019 3.87433155,5.01545595 L3.87433155,5.30911901 C3.87433155,5.38253478 3.82691622,5.4070067 3.76827094,5.36965482 L0.112299465,3.20710974 C0.0536541889,3.17104585 0.00623885918,3.08475013 0.00623885918,3.01133436 L0.00623885918,2.7189593 C0.00623885918,2.64554353 0.0536541889,2.62107161 0.112299465,2.65842349"></path>
                    <path d="M0.112299465,3.51236476 L7.28199643,7.7498712 C7.34064171,7.78593509 7.38805704,7.87223081 7.38805704,7.94564657 L7.38805704,8.23930963 C7.38805704,8.3127254 7.34064171,8.33719732 7.28199643,8.29984544 L0.112299465,4.062339 C0.0536541889,4.02627512 0.00623885918,3.93997939 0.00623885918,3.86656363 L0.00623885918,3.57290057 C0.00623885918,3.51236476 0.0536541889,3.48789284 0.112299465,3.51236476"></path>
                    <path d="M0.112299465,4.38047398 L1.42495544,5.14940752 C1.48360071,5.18547141 1.53101604,5.27176713 1.53101604,5.3451829 L1.53101604,5.63884596 C1.53101604,5.71226172 1.48360071,5.73673364 1.42495544,5.69938176 L0.112299465,4.92916023 C0.0536541889,4.89309634 0.00623885918,4.80680062 0.00623885918,4.73338485 L0.00623885918,4.43972179 C0.00623885918,4.38047398 0.0536541889,4.3431221 0.112299465,4.38047398"></path>
                </g>
                <polyline id="Shape" fill="#000000" fill-rule="nonzero" points="2.00516934 18.3037094 1.17914439 17.3016486 1.17914439 16.9783617 2.00516934 16.9526018 2.00516934 17.3402885 1.50356506 17.3325605 2.00516934 17.9211747 2.00516934 18.3037094"></polyline>
                <polyline id="Shape" fill="#000000" fill-rule="nonzero" points="2.9285205 18.8511077 3.75454545 18.8253478 3.75454545 18.5020608 2.9285205 17.5 2.9285205 17.8876868 3.43012478 18.4737249 2.9285205 18.4685729 2.9285205 18.8511077"></polyline>
            </g>
            <text id="/" fill="#000000" font-family="Helvetica" font-size="2.492496" font-weight="normal">
                <tspan x="2" y="19">/</tspan>
            </text>
            <g id="Group" transform="translate(5.000000, 3.000000)">
                <path d="M8.87509058,12.1473054 L12.3523551,10.1556886 C12.6855978,9.96526946 12.9623188,10.0946108 12.9658514,10.4550898 L12.9882246,12.9197605 C12.9917572,13.2754491 12.7256341,13.7197605 12.3876812,13.9137725 L8.91041667,15.9053892 C8.57717391,16.0958084 8.3004529,15.9664671 8.29692029,15.605988 L8.2745471,13.1413174 C8.27101449,12.7808383 8.53713768,12.3413174 8.87509058,12.1473054" id="Shape" fill="#3FA0F1" fill-rule="nonzero"></path>
                <path d="M10.4353261,9.45269461 L10.7591486,9.26706587 C11.4209239,8.88862275 11.9637681,9.15329341 11.9696558,9.85748503 L11.9837862,11.3736527 C11.9908514,12.0790419 11.4586051,12.9592814 10.7968297,13.3377246 L10.4730072,13.5233533 C9.81123188,13.9017964 9.26838768,13.6371257 9.2625,12.9329341 L9.24836957,11.4167665 C9.24130435,10.7125749 9.77355072,9.83233533 10.4353261,9.45269461" id="Shape" stroke="#3FA0F1" stroke-width="0.5" stroke-linejoin="bevel"></path>
                <path d="M3.86349638,1.94491018 C3.65860507,1.87065868 3.46195652,1.7748503 3.2759058,1.65988024 C2.75190217,1.33532934 2.67418478,1.04790419 3.04393116,0.810778443 L4.03541667,0.174850299 C4.43577899,-0.0814371257 4.90326087,-0.045508982 5.42844203,0.280239521 C5.5932971,0.380838323 5.74402174,0.501796407 5.87943841,0.639520958 L5.64746377,0.788023952 C5.52146739,0.646706587 5.37663043,0.525748503 5.21648551,0.42754491 C5.14818841,0.386826347 5.07753623,0.352095808 5.00452899,0.323353293 C4.93623188,0.294610778 4.86911232,0.265868263 4.79021739,0.256287425 C4.71132246,0.234730539 4.63125,0.237125749 4.55,0.253892216 C4.46168478,0.270658683 4.37807971,0.304191617 4.30153986,0.353293413 L3.33125,0.974850299 C3.08867754,1.13053892 3.15344203,1.31736527 3.51612319,1.54131737 C3.6986413,1.65149701 3.89293478,1.74131737 4.09547101,1.80718563 L3.86349638,1.94491018 Z" id="Shape" fill="#000000" fill-rule="nonzero"></path>
                <path d="M5.39547101,2.93413174 L5.12817029,2.76886228 L6.24682971,2.05269461 C6.28922101,2.0251497 6.32101449,2.00479042 6.33161232,1.98562874 C6.34221014,1.96646707 6.36576087,1.94011976 6.36693841,1.91497006 C6.3798913,1.88263473 6.37164855,1.85149701 6.33514493,1.81556886 C6.29393116,1.77125749 6.24565217,1.73293413 6.19384058,1.70179641 C6.03134058,1.6011976 5.9053442,1.5497006 5.82644928,1.54011976 C5.72871377,1.53772455 5.6321558,1.56646707 5.54972826,1.62155689 L4.43106884,2.33772455 L4.17436594,2.17844311 L6.42110507,0.738922156 L6.67898551,0.898203593 L5.79230072,1.46586826 C5.96893116,1.38922156 6.19501812,1.43592814 6.47173913,1.60718563 C6.65307971,1.71976048 6.74375,1.82874251 6.73668478,1.91856287 C6.72961957,2.00838323 6.6625,2.09820359 6.50353261,2.2 L5.37663043,2.92215569 L5.39547101,2.93413174 Z" id="Shape" fill="#000000" fill-rule="nonzero"></path>
                <path d="M6.94981884,3.89700599 L6.7013587,3.74371257 L6.84855072,3.6491018 C6.71313406,3.71137725 6.50706522,3.66347305 6.24918478,3.50419162 C6.05842391,3.38562874 5.9571558,3.28263473 5.9442029,3.19520958 C5.93125,3.10778443 6.03016304,2.99640719 6.2303442,2.86706587 C6.39873188,2.75928144 6.56358696,2.70179641 6.69429348,2.70179641 C6.825,2.70179641 6.98985507,2.76526946 7.19003623,2.88862275 L7.60923913,3.14850299 L7.85181159,2.99281437 C7.9365942,2.93892216 7.97074275,2.88023952 7.94483696,2.83712575 C7.92835145,2.78682635 7.85298913,2.72694611 7.71992754,2.64431138 C7.55389493,2.54131737 7.3807971,2.45149701 7.20063406,2.3760479 L7.41141304,2.24071856 C7.62336957,2.34491018 7.80588768,2.44550898 7.95778986,2.54011976 C8.19565217,2.68742515 8.31693841,2.80239521 8.32047101,2.88502994 C8.32400362,2.96646707 8.23568841,3.07185629 8.03550725,3.2 M7.00869565,3.53413174 L7.43025362,3.26347305 L7.0298913,3.01556886 C6.90625,2.93892216 6.81793478,2.91137725 6.74846014,2.90778443 C6.6884058,2.91017964 6.58478261,2.95209581 6.46820652,3.02754491 C6.36222826,3.09461078 6.29746377,3.16047904 6.28333333,3.20598802 C6.2692029,3.25149701 6.3245471,3.31137725 6.41992754,3.37125749 L6.59184783,3.47784431 C6.62952899,3.50179641 6.67898551,3.51856287 6.72726449,3.53532934 C6.77436594,3.55209581 6.825,3.56047904 6.87563406,3.55928144 C6.92626812,3.56407186 6.96748188,3.56167665 7.00869565,3.53413174" id="Shape" fill="#000000" fill-rule="nonzero"></path>
                <path d="M9.47916667,3.17724551 L9.22246377,3.01796407 L9.52862319,2.82155689 L9.78532609,2.98203593 L9.47916667,3.17724551 Z M7.66576087,4.34011976 L7.40788043,4.18083832 L8.95869565,3.18682635 L9.21657609,3.34610778 L7.66576087,4.34011976 Z" id="Shape" fill="#000000" fill-rule="nonzero"></path>
                <path d="M9.32373188,5.36886228 L9.06702899,5.20958084 L10.1856884,4.49341317 C10.2280797,4.46586826 10.2598732,4.44550898 10.270471,4.42634731 C10.2810688,4.40718563 10.3046196,4.38083832 10.3057971,4.35568862 C10.31875,4.32335329 10.3105072,4.29221557 10.2740036,4.25628743 C10.2327899,4.21197605 10.1845109,4.17365269 10.1326993,4.14251497 C9.97961957,4.04790419 9.85362319,3.99640719 9.77472826,3.98682635 C9.69583333,3.97724551 9.59338768,4.00718563 9.49800725,4.06826347 L8.37934783,4.78443114 L8.12146739,4.6251497 L9.67228261,3.63113772 L9.93016304,3.79041916 L9.74057971,3.91257485 C9.91721014,3.83592814 10.1432971,3.88263473 10.4200181,4.05389222 C10.6013587,4.16646707 10.692029,4.2754491 10.6849638,4.36526946 C10.6778986,4.45508982 10.610779,4.54491018 10.4518116,4.64670659 L9.32373188,5.36886228 Z" id="Shape" fill="#000000" fill-rule="nonzero"></path>
                <polyline id="Shape" fill="#000000" fill-rule="nonzero" points="1.20108696 3.57844311 0 2.83353293 2.07835145 1.50179641 2.35507246 1.67305389 0.4875 2.86946108 1.41186594 3.44311377"></polyline>
                <path d="M3.55851449,2.75329341 L3.30063406,2.59401198 L3.60679348,2.39760479 L3.86467391,2.55688623 L3.55851449,2.75329341 Z M1.7451087,3.91616766 L1.48722826,3.75568862 L3.03804348,2.76167665 L3.29592391,2.92215569 L1.7451087,3.91616766 Z" id="Shape" fill="#000000" fill-rule="nonzero"></path>
                <path d="M3.40307971,4.94371257 L3.14519928,4.78443114 L4.2638587,4.06826347 C4.30625,4.04071856 4.33804348,4.02035928 4.3486413,4.0011976 C4.35923913,3.98203593 4.38278986,3.95568862 4.38396739,3.93053892 C4.39692029,3.89820359 4.38867754,3.86706587 4.35217391,3.83113772 C4.31096014,3.78682635 4.26268116,3.74850299 4.21086957,3.71736527 C4.05778986,3.62275449 3.93179348,3.57125749 3.85289855,3.56167665 C3.77400362,3.55209581 3.67155797,3.58203593 3.57617754,3.64311377 L2.45751812,4.35928144 L2.20199275,4.1988024 L3.75280797,3.20479042 L4.01068841,3.36526946 L3.82110507,3.48742515 C3.99773551,3.41077844 4.22382246,3.45748503 4.50054348,3.62874251 C4.68188406,3.74131737 4.77255435,3.8502994 4.76548913,3.94011976 C4.75842391,4.02994012 4.69130435,4.11976048 4.53233696,4.22155689 L3.40307971,4.94371257 Z" id="Shape" fill="#000000" fill-rule="nonzero"></path>
                <path d="M5.11050725,6.0011976 L4.78668478,5.8 L4.95742754,5.04191617 L4.61594203,5.05628743 L4.92563406,4.80958084 L6.29157609,4.75209581 L6.61422101,4.97844311 L5.29773551,5.05269461 L5.11050725,6.0011976 Z M4.10960145,5.38083832 L3.85172101,5.22155689 L6.09846014,3.78203593 L6.35634058,3.94131737 L4.10960145,5.38083832 Z" id="Shape" fill="#000000" fill-rule="nonzero"></path>
            </g>
            <path d="M16,15.3684784 C16,15.0353543 15.7764128,14.904203 15.5,15.0746996 C15.2235872,15.2451963 15,15.6530767 15,15.9848893 C15,16.2235846 15.1154791,16.3586704 15.2825553,16.3534243 L15.2825553,17 L15.6953317,16.7455666 L15.6953317,16.1107945 C15.8734644,15.9101331 16,15.6176658 16,15.3684784 Z" id="Shape" fill="#2C6CEA" fill-rule="nonzero"></path>
        </g>
    </g>
</svg>