<?xml version="1.0" encoding="UTF-8"?>
<svg width="28px" height="12px" viewBox="0 0 28 12" version="1.1" xmlns="http://www.w3.org/2000/svg" xmlns:xlink="http://www.w3.org/1999/xlink">
    <!-- Generator: Sketch 52.5 (67469) - http://www.bohemiancoding.com/sketch -->
    <title>Group 2</title>
    <desc>Created with Sketch.</desc>
    <defs>
        <rect id="path-1" x="0" y="0" width="27.75" height="12" rx="3"></rect>
    </defs>
    <g id="Limit-Order-6June" stroke="none" stroke-width="1" fill="none" fill-rule="evenodd">
        <g id="2---LimitOrder---after-login-Copy" transform="translate(-865.000000, -146.000000)">
            <g id="Group-2" transform="translate(865.000000, 146.000000)">
                <mask id="mask-2" fill="white">
                    <use xlink:href="#path-1"></use>
                </mask>
                <use id="Badge-bg" fill="#8690AD" xlink:href="#path-1"></use>
                <path d="M7.764,6.096 C8.08933496,6.18666712 8.3453324,6.35066548 8.532,6.588 C8.7186676,6.82533452 8.812,7.12533152 8.812,7.488 C8.812,7.97333576 8.62933516,8.34666536 8.264,8.608 C7.89866484,8.86933464 7.36667016,9 6.668,9 L3.996,9 L3.996,3.4 L6.508,3.4 C7.1480032,3.4 7.64266492,3.52799872 7.992,3.784 C8.34133508,4.04000128 8.516,4.3946644 8.516,4.848 C8.516,5.1413348 8.44800068,5.3946656 8.312,5.608 C8.17599932,5.8213344 7.99333448,5.98399944 7.764,6.096 Z M4.796,4.048 L4.796,5.84 L6.436,5.84 C6.84666872,5.84 7.16266556,5.76400076 7.384,5.612 C7.60533444,5.45999924 7.716,5.2373348 7.716,4.944 C7.716,4.6506652 7.60533444,4.42800076 7.384,4.276 C7.16266556,4.12399924 6.84666872,4.048 6.436,4.048 L4.796,4.048 Z M6.636,8.352 C7.0893356,8.352 7.43066552,8.27733408 7.66,8.128 C7.88933448,7.97866592 8.004,7.7440016 8.004,7.424 C8.004,6.79999688 7.54800456,6.488 6.636,6.488 L4.796,6.488 L4.796,8.352 L6.636,8.352 Z M14.116,8.304 L14.116,9 L10.052,9 L10.052,3.4 L14.004,3.4 L14.004,4.096 L10.852,4.096 L10.852,5.816 L13.66,5.816 L13.66,6.496 L10.852,6.496 L10.852,8.304 L14.116,8.304 Z M16.524,4.096 L14.604,4.096 L14.604,3.4 L19.236,3.4 L19.236,4.096 L17.316,4.096 L17.316,9 L16.524,9 L16.524,4.096 Z M23.396,7.6 L20.42,7.6 L19.804,9 L18.98,9 L21.516,3.4 L22.308,3.4 L24.852,9 L24.012,9 L23.396,7.6 Z M23.116,6.96 L21.908,4.216 L20.7,6.96 L23.116,6.96 Z" id="BETA" fill="#FFFFFF" mask="url(#mask-2)"></path>
            </g>
        </g>
    </g>
</svg>