<?xml version="1.0" encoding="UTF-8"?>
<svg width="12px" height="18px" viewBox="0 0 12 18" version="1.1" xmlns="http://www.w3.org/2000/svg" xmlns:xlink="http://www.w3.org/1999/xlink">
    <!-- Generator: Sketch 52.2 (67145) - http://www.bohemiancoding.com/sketch -->
    <title>Page 1</title>
    <desc>Created with Sketch.</desc>
    <defs>
        <polygon id="path-1" points="0 5.29411765e-05 11.6084151 5.29411765e-05 11.6084151 17.8655824 0 17.8655824"></polygon>
    </defs>
    <g id="Swap---Orange" stroke="none" stroke-width="1" fill="none" fill-rule="evenodd">
        <g id="Swap-1--orange" transform="translate(-694.000000, -354.000000)">
            <g id="Group-11" transform="translate(399.000000, 344.000000)">
                <g id="Group-9" transform="translate(295.000000, 6.000000)">
                    <g id="Page-1" transform="translate(0.000000, 4.000000)">
                        <mask id="mask-2" fill="white">
                            <use xlink:href="#path-1"></use>
                        </mask>
                        <g id="Clip-2"></g>
                        <path d="M7.76679119,5.51173235 C7.95496255,4.24617353 7.95866186,3.03964412 6.8377722,2.55390882 C6.1894072,2.27305588 5.2071182,2.34135 4.57355042,2.68043824 C3.54465016,3.23049706 3.66746712,4.39017353 3.83936153,5.51173235 L7.76679119,5.51173235 Z M2.27356869,7.79323235 C2.27356869,9.63823235 2.25704512,11.3490265 2.29132536,13.0587618 C2.29625776,13.3062618 2.48738856,13.6628206 2.68665784,13.7753206 C4.40658842,14.7444088 6.1252859,15.9527912 8.05336408,14.2269088 C8.23610979,14.0635853 8.5096118,14.0212324 8.70838783,13.8727324 C8.9281266,13.70835 9.27783431,13.4912912 9.28276672,13.2890559 C9.32740501,11.4625853 9.30890848,9.63479118 9.30890848,7.79323235 L2.27356869,7.79323235 Z M0.00515436609,5.63535 C0.62515802,5.58452647 1.10384819,5.54561471 1.56305535,5.50802647 C2.28787267,1.18776176 3.44032974,-0.168855882 6.17534984,0.0164382353 C8.52909481,0.175791176 9.70892674,1.84687941 9.95505389,5.47414412 C10.4470616,5.52814412 10.9585522,5.58399706 11.6051909,5.65520294 C11.6051909,8.68502647 11.6231942,11.7164382 11.5741167,14.7467912 C11.5699242,15.0091147 11.16596,15.3532324 10.8774141,15.5064971 C9.40780325,16.2863206 7.92783431,17.0478794 6.42123036,17.7392912 C6.06634362,17.90235 5.53832938,17.9097618 5.18516898,17.7488206 C3.67733193,17.0600559 2.18996438,16.3141147 0.732684509,15.5102029 C0.411338144,15.3333794 0.0438737669,14.8391735 0.0367217757,14.4836735 C-0.0190144319,11.5793206 0.00515436609,8.67311471 0.00515436609,5.63535 Z" id="Fill-1" fill="#EF8102" mask="url(#mask-2)"></path>
                    </g>
                </g>
            </g>
        </g>
    </g>
</svg>