<?xml version="1.0" encoding="UTF-8"?>
<svg width="17px" height="15px" viewBox="0 0 17 15" version="1.1" xmlns="http://www.w3.org/2000/svg" xmlns:xlink="http://www.w3.org/1999/xlink">
    <!-- Generator: Sketch 52.4 (67378) - http://www.bohemiancoding.com/sketch -->
    <title>Group</title>
    <desc>Created with Sketch.</desc>
    <g id="Swap---Orange" stroke="none" stroke-width="1" fill="none" fill-rule="evenodd">
        <g id="Artboard" transform="translate(-74.000000, -214.000000)" fill-rule="nonzero">
            <g id="Group" transform="translate(74.000000, 213.000000)">
                <path d="M1,0.992424401 L6.26733733,3.15209712 L10.7721761,3.15209712 L16.0732389,1.13935571 L16.9351173,3.56500771 L16.4048066,6.19836746 L16.7616869,6.39533056 L16.2572821,6.79017961 L16.6606483,7.07415452 L16.0732389,7.57005593 L16.4048066,7.83366217 L15.7647425,8.60457364 L16.9351173,12.1916356 L15.9373818,15.8905604 L12.1480174,14.6938184 C11.0835729,15.4259042 10.3839189,15.8248182 10.0490552,15.8905604 C9.7141916,15.9563027 8.85820192,15.9864931 7.48108619,15.9811318 C6.04952216,15.4631039 5.2177244,15.0339994 4.9856929,14.6938184 C4.9856929,14.6938184 3.68750304,15.1229229 1.09112332,15.9811318 L-1.77635684e-15,12.3034985 L1.30647755,8.60457364 L0.575512415,7.74051998 L0.904838938,7.57005593 L0.351852508,7.07415452 L0.771486745,6.79017961 L0.253239122,6.39533056 L0.575512415,6.19836746 L0.109340042,3.56500771 L1,0.992424401 Z" id="Path-12" fill="#FFFFFF"></path>
                <polygon id="Path-15" fill="#EF8102" points="5.36198533 10.5131485 6.69374938 9.88942855 7.21279589 10.9558154"></polygon>
                <polygon id="Path-16" fill="#EF8102" points="10.0242745 11.0105913 10.5762144 9.9159802 11.9063756 10.4632857"></polygon>
                <polygon id="Path-17" fill="#EF8102" points="7.30757344 14.6011972 7.50298246 13.077648 7.82641088 12.852621 9.64516432 12.852621 9.96998652 13.077648 10.1703435 14.6011972 9.96998652 14.3639049 7.60458958 14.3639049"></polygon>
            </g>
        </g>
    </g>
</svg>