<?xml version="1.0" encoding="UTF-8"?>
<svg width="17px" height="14px" viewBox="0 0 17 14" version="1.1" xmlns="http://www.w3.org/2000/svg" xmlns:xlink="http://www.w3.org/1999/xlink">
    <!-- Generator: Sketch 52.4 (67378) - http://www.bohemiancoding.com/sketch -->
    <title>Page 1</title>
    <desc>Created with Sketch.</desc>
    <defs>
        <polygon id="path-1" points="0 0 17 0 17 14 0 14"></polygon>
    </defs>
    <g id="Swap---Orange" stroke="none" stroke-width="1" fill="none" fill-rule="evenodd">
        <g id="Swap-1--orange" transform="translate(-884.000000, -350.000000)">
            <g id="Group-11" transform="translate(399.000000, 344.000000)">
                <g id="Group-8" transform="translate(485.000000, 6.000000)">
                    <g id="Page-1">
                        <mask id="mask-2" fill="white">
                            <use xlink:href="#path-1"></use>
                        </mask>
                        <g id="Clip-2"></g>
                        <path d="M8.48325318,4.54916161 C8.92698678,4.54300756 9.19131261,4.29019909 9.18959461,3.87344667 C9.18787662,3.47367943 8.95152957,3.17730027 8.50288741,3.18714675 C8.05890838,3.19699323 7.75138725,3.39638453 7.76783092,3.89190882 C7.78280202,4.33967767 8.03755616,4.55334637 8.48325318,4.54916161 M9.2097197,9.35375335 C9.2097197,8.61723637 9.21389197,7.88071938 9.20849256,7.1442024 C9.20481114,6.64720113 8.98981632,6.30577431 8.45723783,6.30158956 C7.93619444,6.2974048 7.75703209,6.63710849 7.75703209,7.11146284 C7.75703209,8.60492826 7.76022265,10.0986398 7.75310525,11.5921053 C7.7508964,12.0900912 8.02872075,12.3529923 8.47000008,12.4258563 C8.85507642,12.4896123 9.20284772,12.0637518 9.20873799,11.5635505 C9.21732796,10.8270335 9.21094684,10.0902703 9.2097197,9.35375335 M2.29380755,10.170273 L2.28938984,10.170273 C2.28938984,10.4774833 2.27441874,10.7854321 2.29184412,11.0919039 C2.37602588,12.5868463 3.79042674,13.9801237 5.18936564,13.9897241 C5.67433113,13.9929242 6.01326702,13.8176568 6.04345465,13.3344406 C6.07315143,12.8603324 5.80735304,12.6257399 5.28900936,12.5809384 C4.26704768,12.4930585 3.7636751,11.9086697 3.73054234,10.8930049 C3.71778009,10.5040688 3.68366561,10.1131634 3.70968097,9.72644276 C3.77201965,8.80308875 3.54377172,7.99469243 2.92308462,7.28869955 C2.83055831,7.18334217 2.84945626,6.85348497 2.94590941,6.72769614 C3.47701534,6.03745763 3.79165388,5.29700205 3.71827094,4.40564911 C3.68489275,3.99874317 3.70575412,3.58666783 3.71557124,3.17730027 C3.74035945,2.14440412 4.33527663,1.49453619 5.37638168,1.42807243 C5.90159734,1.39459439 6.0535172,1.08393782 6.04100037,0.661277509 C6.02848355,0.230247683 5.76342145,0.00599401602 5.31551557,0.0158404998 C4.1624954,0.0416875196 3.3032524,0.547550622 2.71054408,1.5464764 C2.1490051,2.49296965 2.30632437,3.52808125 2.29380755,4.54300756 C2.28153615,5.53774858 1.75632049,6.16029251 0.768473288,6.27894264 C0.331857094,6.33137517 0.0162368444,6.47808778 0.000529460212,6.97164277 C-0.0144416403,7.45879756 0.2896435,7.64144983 0.714233727,7.73203748 C1.92222974,7.98927687 2.29577097,8.45747717 2.29380755,9.67868732 C2.29356212,9.84263127 2.29380755,10.0063291 2.29380755,10.170273 M14.6650906,3.7998442 C14.6611637,3.7998442 14.656746,3.7998442 14.6525737,3.7998442 C14.6525737,3.47195629 14.6685265,3.1433299 14.6496286,2.8166728 C14.5644651,1.34388499 13.0565562,-0.0745009885 11.6782333,0.0030400709 C11.2084843,0.029625577 10.8670942,0.229755359 10.8599767,0.723064194 C10.8528593,1.21144979 11.1672524,1.36751655 11.6448551,1.46844301 C12.0834347,1.56099996 12.5708545,1.81750086 12.8506423,2.15646606 C13.105151,2.46515333 13.1485917,2.97544735 13.2158389,3.40770799 C13.3464066,4.24638224 13.2749871,5.15275107 13.5741636,5.91831518 C13.8645048,6.66049389 14.2537534,7.19048087 13.6234946,7.99124616 C12.9826825,8.80555037 13.2575617,9.88324801 13.2234472,10.8558344 C13.1863876,11.921224 12.6373654,12.5324445 11.577117,12.5976774 C11.119394,12.6262322 10.9019449,12.8120846 10.9120075,13.2768386 C10.9223154,13.7504545 11.1333834,13.9781544 11.6222757,13.9976012 C12.8570234,14.0468337 13.6379749,13.3322251 14.263816,12.4069018 C14.8710045,11.5091486 14.6162504,10.4612366 14.6525737,9.47018802 C14.6874245,8.51114051 15.2531357,7.86324188 16.2080956,7.74409942 C16.6567378,7.68797447 17.0084359,7.51418403 16.9998459,6.99650515 C16.9910105,6.48522648 16.6641006,6.31759009 16.1923882,6.27131162 C15.277924,6.18146245 14.6830068,5.5096861 14.6660723,4.59888636 C14.6611637,4.33253897 14.6650906,4.06619159 14.6650906,3.7998442" id="Fill-1" fill="#EF8102" mask="url(#mask-2)"></path>
                    </g>
                </g>
            </g>
        </g>
    </g>
</svg>