<?xml version="1.0" encoding="UTF-8"?>
<svg width="16px" height="17px" viewBox="0 0 16 17" version="1.1" xmlns="http://www.w3.org/2000/svg" xmlns:xlink="http://www.w3.org/1999/xlink">
    <!-- Generator: Sketch 52.2 (67145) - http://www.bohemiancoding.com/sketch -->
    <title>Page 1</title>
    <desc>Created with Sketch.</desc>
    <g id="Swap---Orange" stroke="none" stroke-width="1" fill="none" fill-rule="evenodd">
        <g id="Swap-1--orange" transform="translate(-576.000000, -354.000000)" fill="#EF8102">
            <g id="Group-11" transform="translate(399.000000, 344.000000)">
                <g id="Group-6" transform="translate(177.000000, 6.000000)">
                    <g id="Page-1" transform="translate(0.000000, 4.238095)">
                        <path d="M0,2.48163048 C0.0288307692,2.33583415 0.0529846154,2.1888129 0.0871692308,2.04440265 C0.371230769,0.844475906 1.39889231,0.00154550313 2.57636923,0.000578470161 C2.98021538,0.000256125839 3.38406154,0.000514001296 3.79830769,0.000514001296 L3.79830769,3.94916748 L0.0303692308,3.94916748 C0.0267692308,3.87873525 0.0210769231,3.80624001 0.0196615385,3.7336803 C0.0124923077,3.37007591 0.00643076923,3.00643928 0,2.64280265 L0,2.48163048 Z M6.07746462,10.2991895 L6.07746462,0.0100876277 C6.13263385,0.00683195001 6.18632615,0.000933048916 6.24001846,0.000933048916 C8.64435692,0.000449532432 11.0486954,-0.00103325145 13.4530646,0.00119092437 C14.6184185,0.00225466064 15.7128185,1.00832353 15.8714338,2.22233671 C15.8970338,2.41848323 15.9122031,2.61778873 15.9124185,2.81564367 C15.9151877,5.24318653 15.9142031,7.67072939 15.9142031,10.09824 L15.9142031,10.2991895 L6.07746462,10.2991895 Z M6.07932615,12.7437037 L9.85575692,12.7437037 C9.85861846,12.7972129 9.86378769,12.849207 9.86381846,12.9012012 C9.86428,14.1153111 9.86264923,15.329421 9.86646462,16.5435309 C9.86683385,16.6701799 9.84261846,16.7214004 9.70757231,16.7207558 C8.54354154,16.7153404 7.37948,16.7167909 6.21544923,16.719144 C6.11757231,16.7193374 6.06818769,16.7032847 6.06858769,16.5803103 C6.07268,15.3286151 6.07117231,14.0768876 6.07154154,12.8251924 C6.07154154,12.8042078 6.07541846,12.7832554 6.07932615,12.7437037 Z M3.80099077,6.40534096 L3.80099077,10.3571856 C3.75317538,10.3605703 3.70434462,10.3669849 3.65551385,10.3670172 C2.49757538,10.3675974 1.33960615,10.3662113 0.181698462,10.3694347 C0.0705292308,10.3697571 0.0162830769,10.3515124 0.0167753846,10.2140648 C0.0213907692,8.99028455 0.0193907692,7.76643986 0.0199753846,6.54262741 C0.0199753846,6.50056147 0.0265292308,6.45846331 0.03096,6.40534096 L3.80099077,6.40534096 Z M3.79558154,16.7226866 C3.10379692,16.682039 2.41570462,16.8029181 1.74478154,16.5681225 C0.80632,16.2396536 0.0827815385,15.2836448 0.0344430769,14.2498544 C0.0112123077,13.7532507 0.0304430769,13.2544873 0.0304430769,12.7468917 L3.79558154,12.7468917 L3.79558154,16.7226866 Z M12.1420369,12.7459376 L15.8893292,12.7459376 C15.8968985,12.7548988 15.9091754,12.7626673 15.9090831,12.7702746 C15.9028369,13.327479 15.9488677,13.8922585 15.8778831,14.4403728 C15.7057908,15.7689471 14.5807446,16.6894658 13.4121292,16.6991684 C12.9926215,16.7026497 12.5730523,16.6997163 12.1420369,16.6997163 L12.1420369,12.7459376 Z" id="Combined-Shape"></path>
                    </g>
                </g>
            </g>
        </g>
    </g>
</svg>