<?xml version="1.0" encoding="UTF-8"?>
<svg width="17px" height="17px" viewBox="0 0 17 17" version="1.1" xmlns="http://www.w3.org/2000/svg" xmlns:xlink="http://www.w3.org/1999/xlink">
    <!-- Generator: Sketch 52.2 (67145) - http://www.bohemiancoding.com/sketch -->
    <title>Fill 1</title>
    <desc>Created with Sketch.</desc>
    <g id="Swap---Orange" stroke="none" stroke-width="1" fill="none" fill-rule="evenodd">
        <g id="Swap-1--orange" transform="translate(-797.000000, -354.000000)" fill="#EF8102">
            <g id="Group-11" transform="translate(399.000000, 344.000000)">
                <g id="Group-7" transform="translate(398.000000, 6.000000)">
                    <path d="M8.56838975,12.9169715 C8.52434145,12.9630358 8.48977054,12.9983143 8.45595351,13.0343792 C6.70532987,14.909868 4.95459853,16.7854693 3.20419029,18.6611828 C3.17769669,18.6897202 3.14980302,18.7180328 3.128802,18.7508396 C3.0368283,18.8946499 3.06224492,19.0819404 3.18728177,19.1992357 C3.30628756,19.3105763 3.48000371,19.3173174 3.60665602,19.2110326 C3.65318136,19.1720465 3.69367564,19.1249711 3.73546229,19.0801427 C5.48587054,17.2043168 7.23617108,15.3283786 8.98604084,13.4522156 C9.01910399,13.4168248 9.04850542,13.3777263 9.08318403,13.3360438 C8.91054486,13.1954917 8.74781387,13.0630289 8.56838975,12.9169715 M14.3459324,8.45233508 C14.8857125,7.88585722 14.8863587,6.97782985 14.3473325,6.41101494 C13.8066908,5.84251475 12.9189399,5.84318886 12.3771135,6.41258786 C11.8338871,6.98344744 11.8404567,7.89866533 12.3916527,8.46570495 C12.9368177,9.02645286 13.8045368,9.02049821 14.3459324,8.45233508 M2.07401222,18.1751489 C2.06001154,17.867979 2.04234914,17.4985662 2.026733,17.1291535 C2.01079376,16.7559207 2.18709464,16.5698661 2.54949689,16.577169 C2.90317564,16.5842472 3.25685439,16.5932353 3.62830323,16.601774 C3.61139471,16.2277548 3.5945939,15.8658696 3.57854696,15.5039844 C3.55991529,15.0837887 3.72426175,14.9190809 4.13081999,14.9135757 C4.47394438,14.9088569 4.81685337,14.8782972 5.1755939,14.8581862 C5.1625625,14.5762955 5.15620834,14.2250837 5.12680691,13.8760066 C5.10634438,13.6334391 5.18119417,13.4546873 5.34457135,13.2832385 C5.9794484,12.6175539 6.60269411,11.9396231 7.23412483,11.270231 C7.30929772,11.1905735 7.32674472,11.1300159 7.28538886,11.0208099 C6.48325753,8.9018547 7.03068416,6.64021264 8.69859609,5.16211215 C10.3936478,3.65974367 13.0166216,3.60806184 14.7753225,5.04200806 C16.8523774,6.73571169 17.3133229,9.67595871 15.8597291,11.9600711 C14.6399467,13.8767931 12.249815,14.6884226 10.1522976,13.8909494 C10.0076598,13.8360094 9.92505576,13.8575809 9.81897368,13.9713933 C7.77401264,16.1683207 5.72398981,18.36008 3.6779518,20.5558838 C3.55259185,20.690369 3.41603136,20.7614877 3.23671495,20.7793516 C2.57426733,20.8454145 1.91278899,20.9230496 1.25077216,20.9946177 C0.913355745,21.031132 0.731131494,20.8822659 0.688590963,20.5355482 C0.618910649,19.9653627 0.549984219,19.3951772 0.483642529,18.8246547 C0.439809627,18.447602 0.623864737,18.2457058 0.984328429,18.2372794 C1.34382284,18.228853 1.70277877,18.1972822 2.07401222,18.1751489" id="Fill-1"></path>
                </g>
            </g>
        </g>
    </g>
</svg>