<?xml version="1.0" encoding="UTF-8"?>
<svg width="12px" height="17px" viewBox="0 0 12 17" version="1.1" xmlns="http://www.w3.org/2000/svg" xmlns:xlink="http://www.w3.org/1999/xlink">
    <!-- Generator: Sketch 52.4 (67378) - http://www.bohemiancoding.com/sketch -->
    <title>Coupon - KNC</title>
    <desc>Created with Sketch.</desc>
    <g id="Swap---Orange" stroke="none" stroke-width="1" fill="none" fill-rule="evenodd">
        <g id="Artboard" transform="translate(-732.000000, -214.000000)" fill-rule="nonzero">
            <g id="Group-11" transform="translate(45.000000, 204.000000)">
                <g id="Group-7" transform="translate(687.000000, 6.000000)">
                    <g id="Coupon---KNC" transform="translate(0.000000, 4.000000)">
                        <g id="Group-4">
                            <polygon id="Path-2" fill="#FFFFFF" points="11.199783 4.68165644 4.50585529 8.41408296 10.9537579 12.3593942"></polygon>
                            <polygon id="Path-4" fill="#FFFFFF" points="5.89793157 0.591088696 3.90372069 8.83645141 11.3220018 4.64685077"></polygon>
                            <polygon id="Path-5" fill="#FFFFFF" points="5.91747791 16.5033761 4.13996734 8.86468626 10.8893997 12.6840312"></polygon>
                            <path d="M5.37532505,0.493453818 L0.607337061,4.07634131 C0.400632379,4.23015214 0.281203008,4.46991608 0.281203008,4.7277754 L0.281203008,12.3233159 C0.281203008,12.5766514 0.400632379,12.8209392 0.607337061,12.9747501 L5.37532505,16.5531136 C5.67389847,16.7747822 6.08730784,16.7747822 6.38128783,16.5531136 L11.1492758,12.9702262 C11.3559805,12.8164153 11.4754099,12.5766514 11.4754099,12.3187921 L11.4754099,4.72325155 C11.4754099,4.46991608 11.3559805,4.22562829 11.1492758,4.07181746 L6.38128783,0.493453818 C6.08730784,0.267261426 5.67389847,0.267261426 5.37532505,0.493453818 Z M4.49338507,9.13400324 L10.6210305,12.5947468 L6.00462597,16.0600143 L4.49338507,9.13400324 Z M6.0092194,0.986553233 L10.6210305,4.45182068 L4.49338507,7.91256429 L6.0092194,0.986553233 Z M4.66793569,8.52328374 L10.8507024,5.02634936 L10.8507024,12.0156943 L4.66793569,8.52328374 Z M0.905910489,4.6237269 L5.29723661,1.32584182 L3.72628104,8.52328374 L5.29723661,15.7207257 L0.905910489,12.4228406 L0.905910489,4.6237269 Z" id="Shape" fill="#FFFFFF"></path>
                            <polyline id="Path-3" stroke="#EF8102" points="11.2396073 4.47914525 3.93787718 8.73416941 11.2396073 12.5424805"></polyline>
                        </g>
                    </g>
                </g>
            </g>
        </g>
    </g>
</svg>